*
*
G04 PADS 9.5 Build Number: 522968 generated Gerber (RS-274-X) file*
G04 PC Version=2.1*
*
%IN "MultiTestBoard.pcb"*%
*
%MOIN*%
*
%FSLAX35Y35*%
*
*
*
*
G04 PC Standard Apertures*
*
*
G04 Thermal Relief Aperture macro.*
%AMTER*
1,1,$1,0,0*
1,0,$1-$2,0,0*
21,0,$3,$4,0,0,45*
21,0,$3,$4,0,0,135*
%
*
*
G04 Annular Aperture macro.*
%AMANN*
1,1,$1,0,0*
1,0,$2,0,0*
%
*
*
G04 Odd Aperture macro.*
%AMODD*
1,1,$1,0,0*
1,0,$1-0.005,0,0*
%
*
*
G04 PC Custom Aperture Macros*
*
*
*
*
*
*
G04 PC Aperture Table*
*
%ADD010C,0.001*%
%ADD048C,0.07*%
%ADD061C,0.07874*%
%ADD148C,0.032*%
%ADD151C,0.22441*%
*
*
*
*
G04 PC Circuitry*
G04 Layer Name MultiTestBoard.pcb - circuitry*
%LPD*%
*
*
G04 PC Custom Flashes*
G04 Layer Name MultiTestBoard.pcb - flashes*
%LPD*%
*
*
G04 PC Circuitry*
G04 Layer Name MultiTestBoard.pcb - circuitry*
%LPD*%
*
G54D10*
G54D48*
G01X350000Y340000D03*
X340000D03*
X330000D03*
X320000D03*
X310000Y320000D03*
X320000Y280000D03*
X360000D03*
X370000Y300000D03*
Y310000D03*
X360000Y270000D03*
X350000D03*
X330000D03*
X320000D03*
X315000Y300000D03*
Y309000D03*
X370000Y340000D03*
X360000D03*
X430000Y320000D03*
Y310000D03*
Y300000D03*
Y290000D03*
X385000Y145000D03*
Y155000D03*
X397000Y251000D03*
X387000D03*
X377000Y221000D03*
Y211000D03*
X417000Y251000D03*
X427000D03*
X437000Y221000D03*
Y211000D03*
X377000Y231000D03*
X437000D03*
X387000Y191000D03*
X397000D03*
X407000D03*
X417000D03*
X427000D03*
X407000Y251000D03*
X466000Y210000D03*
X460000Y204000D03*
X445000Y189000D03*
X439000Y183000D03*
X377000Y251000D03*
X367000D03*
G54D61*
X451042Y183761D02*
X464961Y169842D01*
X444639Y177358D02*
X458558Y163439D01*
X478958Y183639D02*
X465039Y197558D01*
X485361Y190042D02*
X471442Y203961D01*
G54D148*
X294600Y308600D02*
Y311400D01*
X307400*
Y308600*
X294600*
Y311200D02*
X307400D01*
X295200Y308600D02*
Y311400D01*
X298400Y308600D02*
Y311400D01*
X301600Y308600D02*
Y311400D01*
X304800Y308600D02*
Y311400D01*
X294600Y288600D02*
Y291400D01*
X307400*
Y288600*
X294600*
Y288800D02*
X307400D01*
X295200Y288600D02*
Y291400D01*
X298400Y288600D02*
Y291400D01*
X301600Y288600D02*
Y291400D01*
X304800Y288600D02*
Y291400D01*
X294600Y146600D02*
Y149400D01*
X307400*
Y146600*
X294600*
Y148000D02*
X307400D01*
X295200Y146600D02*
Y149400D01*
X298400Y146600D02*
Y149400D01*
X301600Y146600D02*
Y149400D01*
X304800Y146600D02*
Y149400D01*
X294600Y126600D02*
Y129400D01*
X307400*
Y126600*
X294600*
Y128800D02*
X307400D01*
X295200Y126600D02*
Y129400D01*
X298400Y126600D02*
Y129400D01*
X301600Y126600D02*
Y129400D01*
X304800Y126600D02*
Y129400D01*
X294600Y216600D02*
Y219400D01*
X307400*
Y216600*
X294600*
Y218400D02*
X307400D01*
X295200Y216600D02*
Y219400D01*
X298400Y216600D02*
Y219400D01*
X301600Y216600D02*
Y219400D01*
X304800Y216600D02*
Y219400D01*
X294600Y196600D02*
Y199400D01*
X307400*
Y196600*
X294600*
Y199200D02*
X307400D01*
X295200Y196600D02*
Y199400D01*
X298400Y196600D02*
Y199400D01*
X301600Y196600D02*
Y199400D01*
X304800Y196600D02*
Y199400D01*
G54D151*
X397244Y344094D03*
X304724Y111811D03*
X0Y0D02*
M02*
