*
*
G04 PADS 9.5 Build Number: 522968 generated Gerber (RS-274-X) file*
G04 PC Version=2.1*
*
%IN "MultiTestBoard.pcb"*%
*
%MOIN*%
*
%FSLAX35Y35*%
*
*
*
*
G04 PC Standard Apertures*
*
*
G04 Thermal Relief Aperture macro.*
%AMTER*
1,1,$1,0,0*
1,0,$1-$2,0,0*
21,0,$3,$4,0,0,45*
21,0,$3,$4,0,0,135*
%
*
*
G04 Annular Aperture macro.*
%AMANN*
1,1,$1,0,0*
1,0,$2,0,0*
%
*
*
G04 Odd Aperture macro.*
%AMODD*
1,1,$1,0,0*
1,0,$1-0.005,0,0*
%
*
*
G04 PC Custom Aperture Macros*
*
*
*
*
*
*
G04 PC Aperture Table*
*
%ADD010C,0.001*%
%ADD011C,0.008*%
%ADD035C,0.03*%
%ADD036C,0.02*%
%ADD048C,0.07*%
%ADD061C,0.07874*%
%ADD147C,0.01*%
%ADD148C,0.032*%
%ADD151C,0.22441*%
*
*
*
*
G04 PC Circuitry*
G04 Layer Name MultiTestBoard.pcb - circuitry*
%LPD*%
*
*
G04 PC Custom Flashes*
G04 Layer Name MultiTestBoard.pcb - flashes*
%LPD*%
*
*
G04 PC Circuitry*
G04 Layer Name MultiTestBoard.pcb - circuitry*
%LPD*%
*
G54D10*
G54D11*
G01X364100Y298500D02*
X364700Y299100D01*
Y304700*
G54D35*
X301000Y209800D02*
X313500D01*
X315900*
Y230100*
X308900*
Y283100*
X301000Y283300D02*
Y290000D01*
Y310000*
X308900Y283100D02*
X311500D01*
X315000Y286600*
X329900*
X308900Y283100D02*
X301000D01*
Y283300*
X347500Y282300D02*
X358600Y293400D01*
Y298700*
X301000Y310000D02*
Y316300D01*
X321900Y296900D02*
Y302800D01*
X331700Y312600*
X358600Y298700D02*
Y311500D01*
X331900Y328900D02*
X344400D01*
X397300Y330500D02*
X402800D01*
X409550Y337250*
X409550*
X412300Y340000*
X391700Y330500D02*
X397300D01*
G54D36*
X301000Y128000D02*
Y138600D01*
Y148000*
Y138600D02*
X313500D01*
X301000Y148000D02*
Y154900D01*
X319100Y138600D02*
X313500D01*
Y209800*
X319100Y151000D02*
Y138600D01*
X334000*
X349000*
X378600*
X385000Y145000*
X301000Y191600D02*
Y198000D01*
Y218000D02*
Y209800D01*
Y198000*
X401200Y219800D02*
Y212800D01*
X416000*
X401200Y207200D02*
Y212800D01*
X393300Y212700D02*
Y219800D01*
X401200*
X388800Y213000D02*
Y227900D01*
X401000Y201800D02*
X415500D01*
X416000Y212800D02*
X420800D01*
X420500Y201700D02*
X416000Y206200D01*
Y212800*
X301000Y218000D02*
Y223800D01*
X383300Y227200D02*
Y235800D01*
X387100*
X406700Y230100D02*
X420000D01*
X407000Y225000D02*
Y229800D01*
X406700Y230100*
X402100D02*
X401700D01*
Y238300*
X402100Y230100D02*
X406700D01*
X401200Y219800D02*
X402100D01*
Y230100*
X401700D02*
X396300D01*
Y233700*
X393100Y230100D02*
X396300D01*
X420000D02*
X421700D01*
Y233300*
X420000Y230100D02*
Y232000D01*
X421700Y244500D02*
Y233300D01*
X428500*
X367000Y251000D02*
Y243700D01*
X356400*
Y259700*
X370200*
Y294000*
X367000Y243700D02*
X373500D01*
Y244300*
X387100Y235800D02*
X390700D01*
Y238300*
X401700*
X387100Y235800D02*
Y243700D01*
X373500*
X394800Y242000D02*
X404200D01*
X421700Y244500D02*
X440500D01*
X415800Y237800D02*
X408400D01*
X404200Y242000*
X412200Y244500D02*
X421700D01*
X338000Y274400D02*
X329900Y282500D01*
Y286600*
X315300Y293000D02*
X329900D01*
Y286600*
Y293000D02*
Y303500D01*
X336600Y310200*
Y317300*
X363400Y294000D02*
X370200D01*
X373600*
X377100Y297500*
Y304500*
X401100Y289500D02*
X393100D01*
Y313500*
X343000Y305200D02*
Y314000D01*
X339700Y317300*
X343000Y303000D02*
Y305200D01*
X340000Y300000D02*
Y305200D01*
X343000*
X363600Y309400D02*
Y323000D01*
X358300Y328300*
X347900Y312300D02*
X345300Y314900D01*
Y317300*
X377100Y313500D02*
Y304500D01*
X380000*
X377100Y313500D02*
Y322500D01*
X375500Y324100*
X377100Y313500D02*
X393100D01*
X396100*
X400900*
X409800Y309500D02*
X396100D01*
Y313500*
X423500Y304500D02*
Y328500D01*
X339700Y317300D02*
X336600D01*
X322500*
X345300D02*
X347300D01*
X354900Y324900*
X345300Y317300D02*
X339700D01*
X364800Y334800D02*
X358300Y328300D01*
X354900Y324900*
X352100Y327700*
X364800Y334800D02*
X371050Y328550D01*
X376000Y333500*
X386650*
X397244Y344094*
X371050Y328550D02*
X375500Y324100D01*
X379900Y328500*
X364800Y334800D02*
X370000Y340000D01*
G54D48*
X350000D03*
X340000D03*
X330000D03*
X320000D03*
X310000Y320000D03*
X320000Y280000D03*
X360000D03*
X370000Y300000D03*
Y310000D03*
X360000Y270000D03*
X350000D03*
X330000D03*
X320000D03*
X315000Y300000D03*
Y309000D03*
X370000Y340000D03*
X360000D03*
X430000Y320000D03*
Y310000D03*
Y300000D03*
Y290000D03*
X385000Y145000D03*
Y155000D03*
X397000Y251000D03*
X387000D03*
X377000Y221000D03*
Y211000D03*
X417000Y251000D03*
X427000D03*
X437000Y221000D03*
Y211000D03*
X377000Y231000D03*
X437000D03*
X387000Y191000D03*
X397000D03*
X407000D03*
X417000D03*
X427000D03*
X407000Y251000D03*
X466000Y210000D03*
X460000Y204000D03*
X445000Y189000D03*
X439000Y183000D03*
X377000Y251000D03*
X367000D03*
G54D61*
X451042Y183761D02*
X464961Y169842D01*
X444639Y177358D02*
X458558Y163439D01*
X478958Y183639D02*
X465039Y197558D01*
X485361Y190042D02*
X471442Y203961D01*
G54D147*
X489096Y239764D02*
G75*
G03X489096I-7206J0D01*
G01X398220Y110468D02*
G03X398220I-7206J0D01*
G01X390200Y155000D02*
G03X390200I-5200J0D01*
G01X315200Y320000D02*
G03X315200I-5200J0D01*
G01X491200Y205805D02*
Y248036D01*
G03X482236Y257000I-9482J-518*
G01X440400*
X438632Y257732D02*
G03X440400Y257000I1768J1768D01*
G01X438632Y257732D02*
X434832Y261532D01*
X434100Y263300D02*
G03X434832Y261532I2500J-0D01*
G01X434100Y263300D02*
Y286802D01*
X428572Y295000D02*
G03X434100Y286802I1428J-5000D01*
G01X425048Y301585D02*
G03X428572Y295000I4952J-1585D01*
G01X420800Y306397D02*
G03X425048Y301585I2700J-1897D01*
G01X420800Y306397D02*
Y326603D01*
X426200D02*
G03X420800I-2700J1897D01*
G01X426200D02*
Y323550D01*
X434100Y323198D02*
G03X426200Y323550I-4100J-3198D01*
G01X434100Y323198D02*
Y344565D01*
G03X425265Y353400I-9110J-275*
G01X293900*
Y102500*
X388084*
G03X398736Y106971I-202J15404*
G01X452895Y161130*
X440653Y173372*
X439019Y177800D02*
G03X440653Y173372I5620J-442D01*
G01X439874Y188126D02*
G03X439019Y177800I-874J-5126D01*
G01X450189Y189333D02*
G03X439874Y188126I-5189J-333D01*
G01X455028Y187747D02*
G03X450189Y189333I-3986J-3986D01*
G01X455028Y187747D02*
X467320Y175455D01*
X473245Y181380*
X461053Y193572*
X459545Y198820D02*
G03X461053Y193572I5494J-1262D01*
G01X460874Y209126D02*
G03X459545Y198820I-874J-5126D01*
G01X471184Y209592D02*
G03X460874Y209126I-5184J408D01*
G01X475428Y207947D02*
G03X471184Y209592I-3986J-3986D01*
G01X475428Y207947D02*
X487532Y195843D01*
G03X491200Y205805I-11854J10022*
G01X489096Y239764D02*
G03X489096I-7206J0D01*
G01X398220Y110468D02*
G03X398220I-7206J0D01*
G01X390200Y155000D02*
G03X390200I-5200J0D01*
G01X422000Y189572D02*
G03Y192428I5000J1428D01*
G01X412000Y189572D02*
G03X422000I5000J1428D01*
G01X402000D02*
G03X412000I5000J1428D01*
G01X392000D02*
G03X402000I5000J1428D01*
G01X392000Y192428D02*
G03Y189572I-5000J-1428D01*
G01X402000Y192428D02*
G03X392000I-5000J-1428D01*
G01X412000D02*
G03X402000I-5000J-1428D01*
G01X422000D02*
G03X412000I-5000J-1428D01*
G01X438428Y226000D02*
G03X435572I-1428J5000D01*
G01X438428Y216000D02*
G03Y226000I-1428J5000D01*
G01X435572Y216000D02*
G03X438428I1428J-5000D01*
G01X435572Y226000D02*
G03Y216000I1428J-5000D01*
G01X413993Y337167D02*
G03X409467Y341693I-1693J2833D01*
G01X413993Y337167D02*
X411813Y334987D01*
X405063Y328237*
X402800Y327300D02*
G03X405063Y328237I0J3200D01*
G01X402800Y327300D02*
X397300D01*
X392506*
Y333700D02*
G03Y327300I-806J-3200D01*
G01Y333700D02*
X397300D01*
X401475*
X407287Y339513*
X409467Y341693*
X361428Y275000D02*
G03X358572I-1428J5000D01*
G01X355000Y268572D02*
G03X361428Y275000I5000J1428D01*
G01X355000Y271428D02*
G03Y268572I-5000J-1428D01*
G01X358572Y275000D02*
G03X355000Y271428I1428J-5000D01*
G01X371428Y305000D02*
G03X365217Y307959I-1428J5000D01*
G01X366459Y296192D02*
G03X371428Y305000I3541J3808D01*
G01X361800Y296134D02*
G03X366459Y296192I2300J2366D01*
G01X361800Y296134D02*
Y293400D01*
X360863Y291137D02*
G03X361800Y293400I-2263J2263D01*
G01X360863Y291137D02*
X350333Y280607D01*
X345807Y285133D02*
G03X350333Y280607I1693J-2833D01*
G01X345807Y285133D02*
X355400Y294725D01*
Y297894*
Y299506D02*
G03Y297894I3200J-806D01*
G01Y299506D02*
Y310694D01*
X361800D02*
G03X355400I-3200J806D01*
G01X361800D02*
Y306275D01*
X365217Y307959D02*
G03X361800Y306275I-517J-3259D01*
G01X325000Y268572D02*
G03Y271428I5000J1428D01*
G01X318572Y275000D02*
G03X325000Y268572I1428J-5000D01*
G01X321428Y275000D02*
G03X318572I-1428J5000D01*
G01X325000Y271428D02*
G03X321428Y275000I-5000J-1428D01*
G01X333393Y309767D02*
G03X328867Y314293I-1693J2833D01*
G01X333393Y309767D02*
X325100Y301475D01*
Y297706*
X318655Y296301D02*
G03X325100Y297706I3245J599D01*
G01X312394Y304500D02*
G03X318655Y296301I2606J-4500D01*
G01X317606Y304500D02*
G03X312394I-2606J4500D01*
G01X318791Y303559D02*
G03X317606Y304500I-3791J-3559D01*
G01X319637Y305063D02*
G03X318791Y303559I2263J-2263D01*
G01X319637Y305063D02*
X328867Y314293D01*
X343594Y325700D02*
G03Y332100I806J3200D01*
G01Y325700D02*
X332706D01*
Y332100D02*
G03Y325700I-806J-3200D01*
G01Y332100D02*
X343594D01*
X315200Y320000D02*
G03X315200I-5200J0D01*
G01X355000Y338572D02*
G03Y341428I5000J1428D01*
G01X345000Y338572D02*
G03X355000I5000J1428D01*
G01X335000D02*
G03X345000I5000J1428D01*
G01X325000D02*
G03X335000I5000J1428D01*
G01X325000Y341428D02*
G03Y338572I-5000J-1428D01*
G01X335000Y341428D02*
G03X325000I-5000J-1428D01*
G01X345000D02*
G03X335000I-5000J-1428D01*
G01X355000D02*
G03X345000I-5000J-1428D01*
G01X413603Y199100D02*
G03Y204500I1897J2700D01*
G01Y199100D02*
X402897D01*
Y204500D02*
G03Y199100I-1897J-2700D01*
G01Y204500D02*
X413603D01*
X391500Y226003D02*
G03X386100I-2700J1897D01*
G01X391500D02*
Y214897D01*
X386100D02*
G03X391500I2700J-1897D01*
G01X386100D02*
Y226003D01*
X413903Y235100D02*
G03Y240500I1897J2700D01*
G01Y235100D02*
X408400D01*
X406491Y235891D02*
G03X408400Y235100I1909J1909D01*
G01X406491Y235891D02*
X403632Y238749D01*
X402303Y239300D02*
G03X403632Y238749I1897J2700D01*
G01X402303Y239300D02*
X396697D01*
Y244700D02*
G03Y239300I-1897J-2700D01*
G01Y244700D02*
X402303D01*
X407451Y242568D02*
G03X402303Y244700I-3251J-568D01*
G01X407451Y242568D02*
X409518Y240500D01*
X413903*
X378428Y226000D02*
G03X375572I-1428J5000D01*
G01X378428Y216000D02*
G03Y226000I-1428J5000D01*
G01X375572Y216000D02*
G03X378428I1428J-5000D01*
G01X375572Y226000D02*
G03Y216000I1428J-5000D01*
G01X422000Y249572D02*
G03Y252428I5000J1428D01*
G01X412000Y249572D02*
G03X422000I5000J1428D01*
G01X402000D02*
G03X412000I5000J1428D01*
G01X392000D02*
G03X402000I5000J1428D01*
G01X382000D02*
G03X392000I5000J1428D01*
G01X382000Y252428D02*
G03Y249572I-5000J-1428D01*
G01X392000Y252428D02*
G03X382000I-5000J-1428D01*
G01X402000D02*
G03X392000I-5000J-1428D01*
G01X412000D02*
G03X402000I-5000J-1428D01*
G01X422000D02*
G03X412000I-5000J-1428D01*
G01X431174Y247899D02*
X491200D01*
X430321Y246999D02*
X491200D01*
X485324Y246099D02*
X491200D01*
X486621Y245199D02*
X491200D01*
X487490Y244299D02*
X491200D01*
X488112Y243399D02*
X491200D01*
X488556Y242499D02*
X491200D01*
X488858Y241599D02*
X491200D01*
X489035Y240699D02*
X491200D01*
X489095Y239799D02*
X491200D01*
X489043Y238899D02*
X491200D01*
X488876Y237999D02*
X491200D01*
X488584Y237099D02*
X491200D01*
X488152Y236199D02*
X491200D01*
X487545Y235299D02*
X491200D01*
X486700Y234399D02*
X491200D01*
X485449Y233499D02*
X491200D01*
X482650Y232599D02*
X491200D01*
X442153Y231699D02*
X491200D01*
X442196Y230799D02*
X491200D01*
X442082Y229899D02*
X491200D01*
X441799Y228999D02*
X491200D01*
X441315Y228099D02*
X491200D01*
X440548Y227199D02*
X491200D01*
X439222Y226299D02*
X491200D01*
X439773Y225399D02*
X491200D01*
X440847Y224499D02*
X491200D01*
X441504Y223599D02*
X491200D01*
X441915Y222699D02*
X491200D01*
X442138Y221799D02*
X491200D01*
X442199Y220899D02*
X491200D01*
X442103Y219999D02*
X491200D01*
X441840Y219099D02*
X491200D01*
X441381Y218199D02*
X491200D01*
X440652Y217299D02*
X491200D01*
X439422Y216399D02*
X491200D01*
X439608Y215499D02*
X491200D01*
X468427Y214599D02*
X491200D01*
X469655Y213699D02*
X491200D01*
X470383Y212799D02*
X491200D01*
X470841Y211899D02*
X491200D01*
X471103Y210999D02*
X491200D01*
X471199Y210099D02*
X491200D01*
X473526Y209199D02*
X491200D01*
X475042Y208299D02*
X491200D01*
X475976Y207399D02*
X491200D01*
X476876Y206499D02*
X491200D01*
X477776Y205599D02*
X491198D01*
X478676Y204699D02*
X491156D01*
X431711Y248799D02*
X491127D01*
X479576Y203799D02*
X491062D01*
X432035Y249699D02*
X490960D01*
X480476Y202899D02*
X490914D01*
X481376Y201999D02*
X490711D01*
X432185Y250599D02*
X490701D01*
X482276Y201099D02*
X490450D01*
X432176Y251499D02*
X490340D01*
X483176Y200199D02*
X490129D01*
X432008Y252399D02*
X489864D01*
X484076Y199299D02*
X489743D01*
X484976Y198399D02*
X489287D01*
X431664Y253299D02*
X489252D01*
X485876Y197499D02*
X488753D01*
X431100Y254199D02*
X488467D01*
X486776Y196599D02*
X488131D01*
X430200Y255099D02*
X487437D01*
X428433Y255999D02*
X485991D01*
X293900Y256899D02*
X483194D01*
X441948Y232599D02*
X481130D01*
X428737Y246099D02*
X478456D01*
X441560Y233499D02*
X478331D01*
X405012Y245199D02*
X477159D01*
X440936Y234399D02*
X477080D01*
X406568Y244299D02*
X476290D01*
X439926Y235299D02*
X476235D01*
X407189Y243399D02*
X475668D01*
X437118Y236199D02*
X475628D01*
X407520Y242499D02*
X475224D01*
X419025Y237099D02*
X475196D01*
X408420Y241599D02*
X474922D01*
X419094Y237999D02*
X474904D01*
X417377Y240699D02*
X474745D01*
X418912Y238899D02*
X474737D01*
X418426Y239799D02*
X474685D01*
X461476Y181299D02*
X473163D01*
X460576Y182199D02*
X472426D01*
X462376Y180399D02*
X472263D01*
X459676Y183099D02*
X471526D01*
X463276Y179499D02*
X471363D01*
X458776Y183999D02*
X470626D01*
X464176Y178599D02*
X470463D01*
X457876Y184899D02*
X469726D01*
X465076Y177699D02*
X469563D01*
X456976Y185799D02*
X468826D01*
X465976Y176799D02*
X468663D01*
X456076Y186699D02*
X467926D01*
X466876Y175899D02*
X467763D01*
X455176Y187599D02*
X467026D01*
X454097Y188499D02*
X466126D01*
X450185Y189399D02*
X465226D01*
X450035Y190299D02*
X464326D01*
X440754Y214599D02*
X463573D01*
X449712Y191199D02*
X463426D01*
X449176Y192099D02*
X462526D01*
X441445Y213699D02*
X462345D01*
X448324Y192999D02*
X461626D01*
X441879Y212799D02*
X461617D01*
X442122Y211899D02*
X461159D01*
X442200Y210999D02*
X460897D01*
X460118Y209199D02*
X460862D01*
X442121Y210099D02*
X460801D01*
X446744Y193899D02*
X460751D01*
X430551Y194799D02*
X460123D01*
X441878Y209199D02*
X459882D01*
X429228Y195699D02*
X459717D01*
X293900Y196599D02*
X459484D01*
X293900Y198399D02*
X459465D01*
X293900Y197499D02*
X459402D01*
X417653Y199299D02*
X457778D01*
X441443Y208299D02*
X457074D01*
X418385Y200199D02*
X456452D01*
X440751Y207399D02*
X456064D01*
X418725Y201099D02*
X455685D01*
X439604Y206499D02*
X455440D01*
X418794Y201999D02*
X455201D01*
X293900Y205599D02*
X455052D01*
X418612Y202899D02*
X454918D01*
X417077Y204699D02*
X454847D01*
X418126Y203799D02*
X454804D01*
X293900Y161499D02*
X452526D01*
X293900Y160599D02*
X452363D01*
X293900Y162399D02*
X451626D01*
X387228Y159699D02*
X451463D01*
X293900Y163299D02*
X450726D01*
X388551Y158799D02*
X450563D01*
X293900Y164199D02*
X449826D01*
X389317Y157899D02*
X449663D01*
X293900Y165099D02*
X448926D01*
X389801Y156999D02*
X448763D01*
X293900Y165999D02*
X448026D01*
X390083Y156099D02*
X447863D01*
X293900Y166899D02*
X447126D01*
X390196Y155199D02*
X446963D01*
X293900Y167799D02*
X446226D01*
X390153Y154299D02*
X446063D01*
X293900Y168699D02*
X445326D01*
X389947Y153399D02*
X445163D01*
X293900Y169599D02*
X444426D01*
X389559Y152499D02*
X444263D01*
X293900Y170499D02*
X443526D01*
X388933Y151599D02*
X443363D01*
X431317Y193899D02*
X443256D01*
X293900Y171399D02*
X442626D01*
X387922Y150699D02*
X442463D01*
X293900Y172299D02*
X441726D01*
X431801Y192999D02*
X441676D01*
X293900Y149799D02*
X441563D01*
X293900Y173199D02*
X440826D01*
X432083Y192099D02*
X440824D01*
X293900Y148899D02*
X440663D01*
X432196Y191199D02*
X440288D01*
X293900Y174099D02*
X440040D01*
X432153Y190299D02*
X439965D01*
X431559Y188499D02*
X439824D01*
X431947Y189399D02*
X439815D01*
X293900Y147999D02*
X439763D01*
X293900Y174999D02*
X439519D01*
X293900Y175899D02*
X439194D01*
X293900Y176799D02*
X439030D01*
X293900Y177699D02*
X439012D01*
X293900Y147099D02*
X438863D01*
X293900Y257799D02*
X438566D01*
X293900Y146199D02*
X437963D01*
X293900Y258699D02*
X437666D01*
X293900Y145299D02*
X437063D01*
X418685Y236199D02*
X436882D01*
X293900Y259599D02*
X436766D01*
X430933Y187599D02*
X436573D01*
X293900Y178599D02*
X436231D01*
X293900Y144399D02*
X436163D01*
X293900Y260499D02*
X435866D01*
X429922Y186699D02*
X435345D01*
X293900Y143499D02*
X435263D01*
X293900Y179499D02*
X435155D01*
X293900Y261399D02*
X434966D01*
X391685Y226299D02*
X434778D01*
X293900Y185799D02*
X434617D01*
X391500Y216399D02*
X434578D01*
X293900Y180399D02*
X434497D01*
X379604Y206499D02*
X434396D01*
X391500Y215499D02*
X434392D01*
X293900Y142599D02*
X434363D01*
X293900Y262299D02*
X434309D01*
X391500Y225399D02*
X434227D01*
X293900Y184899D02*
X434159D01*
X293900Y263199D02*
X434102D01*
X363068Y344199D02*
X434100D01*
X412394Y343299D02*
X434100D01*
X414566Y342399D02*
X434100D01*
X415240Y341499D02*
X434100D01*
X415545Y340599D02*
X434100D01*
X415586Y339699D02*
X434100D01*
X415374Y338799D02*
X434100D01*
X414845Y337899D02*
X434100D01*
X413824Y336999D02*
X434100D01*
X412924Y336099D02*
X434100D01*
X412024Y335199D02*
X434100D01*
X411124Y334299D02*
X434100D01*
X410224Y333399D02*
X434100D01*
X409324Y332499D02*
X434100D01*
X424635Y331599D02*
X434100D01*
X425961Y330699D02*
X434100D01*
X426534Y329799D02*
X434100D01*
X426776Y328899D02*
X434100D01*
X426762Y327999D02*
X434100D01*
X426488Y327099D02*
X434100D01*
X426200Y326199D02*
X434100D01*
X426200Y325299D02*
X434100D01*
X432773Y324399D02*
X434100D01*
X433847Y323499D02*
X434100D01*
X433933Y286599D02*
X434100D01*
X432922Y285699D02*
X434100D01*
X362003Y284799D02*
X434100D01*
X363441Y283899D02*
X434100D01*
X364248Y282999D02*
X434100D01*
X364758Y282099D02*
X434100D01*
X365060Y281199D02*
X434100D01*
X365191Y280299D02*
X434100D01*
X365165Y279399D02*
X434100D01*
X364979Y278499D02*
X434100D01*
X364612Y277599D02*
X434100D01*
X364018Y276699D02*
X434100D01*
X363064Y275799D02*
X434100D01*
X361744Y274899D02*
X434100D01*
X363324Y273999D02*
X434100D01*
X364176Y273099D02*
X434100D01*
X364712Y272199D02*
X434100D01*
X365035Y271299D02*
X434100D01*
X365185Y270399D02*
X434100D01*
X365176Y269499D02*
X434100D01*
X365008Y268599D02*
X434100D01*
X364663Y267699D02*
X434100D01*
X364098Y266799D02*
X434100D01*
X363197Y265899D02*
X434100D01*
X361424Y264999D02*
X434100D01*
X293900Y264099D02*
X434100D01*
X293900Y181299D02*
X434086D01*
X417953Y235299D02*
X434074D01*
X361022Y345099D02*
X434068D01*
X293900Y345999D02*
X433943D01*
X293900Y183999D02*
X433897D01*
X293900Y182199D02*
X433862D01*
X293900Y183099D02*
X433801D01*
X293900Y346899D02*
X433723D01*
X293900Y141699D02*
X433463D01*
X392025Y227199D02*
X433452D01*
X293900Y347799D02*
X433402D01*
X391500Y217299D02*
X433348D01*
X380751Y207399D02*
X433249D01*
X391687Y214599D02*
X433246D01*
X391500Y224499D02*
X433153D01*
X380936Y234399D02*
X433064D01*
X293900Y348699D02*
X432967D01*
X392094Y228099D02*
X432685D01*
X391500Y218199D02*
X432619D01*
X293900Y140799D02*
X432563D01*
X381443Y208299D02*
X432557D01*
X392025Y213699D02*
X432555D01*
X391500Y223599D02*
X432496D01*
X381560Y233499D02*
X432440D01*
X293900Y349599D02*
X432398D01*
X391912Y228999D02*
X432201D01*
X391500Y219099D02*
X432160D01*
X381878Y209199D02*
X432122D01*
X392094Y212799D02*
X432121D01*
X391500Y222699D02*
X432085D01*
X381948Y232599D02*
X432052D01*
X391426Y229899D02*
X431918D01*
X391500Y219999D02*
X431897D01*
X390372Y210099D02*
X431879D01*
X391911Y211899D02*
X431878D01*
X391500Y221799D02*
X431862D01*
X382153Y231699D02*
X431847D01*
X390377Y230799D02*
X431804D01*
X391500Y220899D02*
X431801D01*
X391424Y210999D02*
X431800D01*
X293900Y139899D02*
X431663D01*
X293900Y350499D02*
X431662D01*
X293900Y138999D02*
X430763D01*
X293900Y351399D02*
X430694D01*
X293900Y138099D02*
X429863D01*
X293900Y352299D02*
X429341D01*
X293900Y137199D02*
X428963D01*
X293900Y136299D02*
X428063D01*
X361800Y294699D02*
X427772D01*
X372769Y295599D02*
X427231D01*
X426200Y324399D02*
X427227D01*
X293900Y135399D02*
X427163D01*
X355424Y285699D02*
X427078D01*
X293900Y353199D02*
X426914D01*
X361800Y293799D02*
X426449D01*
X293900Y134499D02*
X426263D01*
X373845Y296499D02*
X426155D01*
X356324Y286599D02*
X426067D01*
X361761Y292899D02*
X425683D01*
X418433Y255999D02*
X425567D01*
X374503Y297399D02*
X425497D01*
X357224Y287499D02*
X425441D01*
X293900Y133599D02*
X425363D01*
X418737Y246099D02*
X425263D01*
X361477Y291999D02*
X425199D01*
X374914Y298299D02*
X425086D01*
X358124Y288399D02*
X425053D01*
X360824Y291099D02*
X424917D01*
X375103Y300999D02*
X424897D01*
X375138Y299199D02*
X424862D01*
X359024Y289299D02*
X424847D01*
X359924Y290199D02*
X424804D01*
X375199Y300099D02*
X424801D01*
X419228Y195699D02*
X424772D01*
X293900Y132699D02*
X424463D01*
X419922Y186699D02*
X424078D01*
X420200Y255099D02*
X423800D01*
X420321Y246999D02*
X423679D01*
X293900Y131799D02*
X423563D01*
X420551Y194799D02*
X423449D01*
X420933Y187599D02*
X423067D01*
X421100Y254199D02*
X422900D01*
X421174Y247899D02*
X422826D01*
X421317Y193899D02*
X422683D01*
X293900Y130899D02*
X422663D01*
X421559Y188499D02*
X422441D01*
X408424Y331599D02*
X422365D01*
X421664Y253299D02*
X422336D01*
X421711Y248799D02*
X422289D01*
X421801Y192999D02*
X422199D01*
X421947Y189399D02*
X422053D01*
X293900Y129999D02*
X421763D01*
X374841Y301899D02*
X421469D01*
X407524Y330699D02*
X421039D01*
X293900Y129099D02*
X420863D01*
X346296Y326199D02*
X420800D01*
X293900Y325299D02*
X420800D01*
X312773Y324399D02*
X420800D01*
X313847Y323499D02*
X420800D01*
X314504Y322599D02*
X420800D01*
X314915Y321699D02*
X420800D01*
X315138Y320799D02*
X420800D01*
X315199Y319899D02*
X420800D01*
X315103Y318999D02*
X420800D01*
X314840Y318099D02*
X420800D01*
X314381Y317199D02*
X420800D01*
X313652Y316299D02*
X420800D01*
X333449Y315399D02*
X420800D01*
X372608Y314499D02*
X420800D01*
X373754Y313599D02*
X420800D01*
X374445Y312699D02*
X420800D01*
X374879Y311799D02*
X420800D01*
X375122Y310899D02*
X420800D01*
X375200Y309999D02*
X420800D01*
X375121Y309099D02*
X420800D01*
X374878Y308199D02*
X420800D01*
X374443Y307299D02*
X420800D01*
X373751Y306399D02*
X420800D01*
X374383Y302799D02*
X420672D01*
X347165Y327099D02*
X420512D01*
X406624Y329799D02*
X420466D01*
X372604Y305499D02*
X420355D01*
X373655Y303699D02*
X420299D01*
X404796Y327999D02*
X420238D01*
X405724Y328899D02*
X420224D01*
X372427Y304599D02*
X420201D01*
X293900Y128199D02*
X419963D01*
X293900Y127299D02*
X419063D01*
X293900Y126399D02*
X418163D01*
X293900Y125499D02*
X417263D01*
X293900Y124599D02*
X416363D01*
X408433Y255999D02*
X415567D01*
X293900Y123699D02*
X415463D01*
X408737Y246099D02*
X415263D01*
X409228Y195699D02*
X414772D01*
X293900Y122799D02*
X414563D01*
X409320Y240699D02*
X414223D01*
X409922Y186699D02*
X414078D01*
X402577Y204699D02*
X413923D01*
X410200Y255099D02*
X413800D01*
X410321Y246999D02*
X413679D01*
X293900Y121899D02*
X413663D01*
X410551Y194799D02*
X413449D01*
X410933Y187599D02*
X413067D01*
X411100Y254199D02*
X412900D01*
X411174Y247899D02*
X412826D01*
X293900Y120999D02*
X412763D01*
X411317Y193899D02*
X412683D01*
X411559Y188499D02*
X412441D01*
X411664Y253299D02*
X412336D01*
X411711Y248799D02*
X412289D01*
X364020Y343299D02*
X412206D01*
X411801Y192999D02*
X412199D01*
X411947Y189399D02*
X412053D01*
X293900Y120099D02*
X411863D01*
X293900Y119199D02*
X410963D01*
X293900Y118299D02*
X410063D01*
X364614Y342399D02*
X410034D01*
X364979Y341499D02*
X409273D01*
X392985Y117399D02*
X409163D01*
X365165Y340599D02*
X408373D01*
X394957Y116499D02*
X408263D01*
X365191Y339699D02*
X407473D01*
X379926Y235299D02*
X407383D01*
X396073Y115599D02*
X407363D01*
X365059Y338799D02*
X406573D01*
X396847Y114699D02*
X406463D01*
X377118Y236199D02*
X406183D01*
X364757Y337899D02*
X405673D01*
X398433Y255999D02*
X405567D01*
X397404Y113799D02*
X405563D01*
X293900Y237099D02*
X405283D01*
X398737Y246099D02*
X405263D01*
X364246Y336999D02*
X404773D01*
X399228Y195699D02*
X404772D01*
X397797Y112899D02*
X404663D01*
X293900Y237999D02*
X404383D01*
X399922Y186699D02*
X404078D01*
X363438Y336099D02*
X403873D01*
X400200Y255099D02*
X403800D01*
X398055Y111999D02*
X403763D01*
X400321Y246999D02*
X403679D01*
X400551Y194799D02*
X403449D01*
X395612Y245199D02*
X403388D01*
X395928Y238899D02*
X403072D01*
X400933Y187599D02*
X403067D01*
X361997Y335199D02*
X402973D01*
X401100Y254199D02*
X402900D01*
X398192Y111099D02*
X402863D01*
X401174Y247899D02*
X402826D01*
X401317Y193899D02*
X402683D01*
X401559Y188499D02*
X402441D01*
X401664Y253299D02*
X402336D01*
X401711Y248799D02*
X402289D01*
X401801Y192999D02*
X402199D01*
X293900Y334299D02*
X402073D01*
X401947Y189399D02*
X402053D01*
X398214Y110199D02*
X401963D01*
X398124Y109299D02*
X401063D01*
X397916Y108399D02*
X400163D01*
X293900Y204699D02*
X399423D01*
X397579Y107499D02*
X399263D01*
X293900Y199299D02*
X398847D01*
X293900Y203799D02*
X398374D01*
X397092Y106599D02*
X398347D01*
X293900Y200199D02*
X398115D01*
X293900Y202899D02*
X397888D01*
X293900Y201099D02*
X397775D01*
X293900Y201999D02*
X397706D01*
X396415Y105699D02*
X397282D01*
X395461Y104799D02*
X395980D01*
X388433Y255999D02*
X395567D01*
X388737Y246099D02*
X395263D01*
X389228Y195699D02*
X394772D01*
X393974Y103899D02*
X394299D01*
X389922Y186699D02*
X394078D01*
X293900Y245199D02*
X393988D01*
X390200Y255099D02*
X393800D01*
X390321Y246999D02*
X393679D01*
X293900Y238899D02*
X393672D01*
X390551Y194799D02*
X393449D01*
X390933Y187599D02*
X393067D01*
X391100Y254199D02*
X392900D01*
X391174Y247899D02*
X392826D01*
X391317Y193899D02*
X392683D01*
X391559Y188499D02*
X392441D01*
X293900Y244299D02*
X392432D01*
X293900Y239799D02*
X392341D01*
X391664Y253299D02*
X392336D01*
X391711Y248799D02*
X392289D01*
X391801Y192999D02*
X392199D01*
X391947Y189399D02*
X392053D01*
X293900Y243399D02*
X391811D01*
X293900Y102999D02*
X391775D01*
X293900Y240699D02*
X391767D01*
X293900Y242499D02*
X391538D01*
X293900Y241599D02*
X391524D01*
X293900Y333399D02*
X390123D01*
X347575Y327999D02*
X389547D01*
X293900Y332499D02*
X389074D01*
X293900Y117399D02*
X389043D01*
X347700Y328899D02*
X388815D01*
X346299Y331599D02*
X388588D01*
X347575Y329799D02*
X388475D01*
X347167Y330699D02*
X388406D01*
X293900Y103899D02*
X388054D01*
X382121Y210099D02*
X387228D01*
X382196Y230799D02*
X387223D01*
X293900Y116499D02*
X387071D01*
X293900Y104799D02*
X386567D01*
X382200Y210999D02*
X386176D01*
X382082Y229899D02*
X386174D01*
X379773Y225399D02*
X386100D01*
X380847Y224499D02*
X386100D01*
X381504Y223599D02*
X386100D01*
X381915Y222699D02*
X386100D01*
X382138Y221799D02*
X386100D01*
X382199Y220899D02*
X386100D01*
X382103Y219999D02*
X386100D01*
X381840Y219099D02*
X386100D01*
X381381Y218199D02*
X386100D01*
X380652Y217299D02*
X386100D01*
X379422Y216399D02*
X386100D01*
X379608Y215499D02*
X386100D01*
X293900Y115599D02*
X385955D01*
X379222Y226299D02*
X385915D01*
X380754Y214599D02*
X385913D01*
X382122Y211899D02*
X385689D01*
X381799Y228999D02*
X385688D01*
X293900Y105699D02*
X385613D01*
X380548Y227199D02*
X385575D01*
X381445Y213699D02*
X385575D01*
X378433Y255999D02*
X385567D01*
X381879Y212799D02*
X385506D01*
X381315Y228099D02*
X385506D01*
X378737Y246099D02*
X385263D01*
X293900Y114699D02*
X385181D01*
X293900Y106599D02*
X384936D01*
X293900Y195699D02*
X384772D01*
X293900Y113799D02*
X384624D01*
X293900Y107499D02*
X384449D01*
X293900Y112899D02*
X384231D01*
X293900Y108399D02*
X384112D01*
X293900Y186699D02*
X384078D01*
X293900Y111999D02*
X383973D01*
X293900Y109299D02*
X383904D01*
X293900Y111099D02*
X383836D01*
X293900Y110199D02*
X383814D01*
X380200Y255099D02*
X383800D01*
X380321Y246999D02*
X383679D01*
X293900Y194799D02*
X383449D01*
X293900Y187599D02*
X383067D01*
X381100Y254199D02*
X382900D01*
X381174Y247899D02*
X382826D01*
X293900Y159699D02*
X382772D01*
X293900Y193899D02*
X382683D01*
X293900Y188499D02*
X382441D01*
X381664Y253299D02*
X382336D01*
X381711Y248799D02*
X382289D01*
X293900Y192999D02*
X382199D01*
X293900Y150699D02*
X382078D01*
X293900Y189399D02*
X382053D01*
X293900Y192099D02*
X381917D01*
X293900Y190299D02*
X381847D01*
X293900Y191199D02*
X381804D01*
X293900Y158799D02*
X381449D01*
X293900Y151599D02*
X381067D01*
X293900Y157899D02*
X380683D01*
X293900Y152499D02*
X380441D01*
X293900Y156999D02*
X380199D01*
X293900Y153399D02*
X380053D01*
X293900Y156099D02*
X379917D01*
X293900Y154299D02*
X379847D01*
X293900Y155199D02*
X379804D01*
X293900Y236199D02*
X376882D01*
X293900Y255999D02*
X375567D01*
X293900Y246099D02*
X375263D01*
X293900Y226299D02*
X374778D01*
X293900Y216399D02*
X374578D01*
X293900Y206499D02*
X374396D01*
X293900Y215499D02*
X374392D01*
X293900Y225399D02*
X374227D01*
X293900Y235299D02*
X374074D01*
X293900Y255099D02*
X373800D01*
X293900Y246999D02*
X373679D01*
X293900Y227199D02*
X373452D01*
X293900Y217299D02*
X373348D01*
X293900Y207399D02*
X373249D01*
X293900Y214599D02*
X373246D01*
X293900Y224499D02*
X373153D01*
X293900Y234399D02*
X373064D01*
X293900Y254199D02*
X372900D01*
X293900Y247899D02*
X372826D01*
X293900Y228099D02*
X372685D01*
X293900Y218199D02*
X372619D01*
X293900Y208299D02*
X372557D01*
X293900Y213699D02*
X372555D01*
X293900Y223599D02*
X372496D01*
X293900Y233499D02*
X372440D01*
X293900Y253299D02*
X372336D01*
X293900Y248799D02*
X372289D01*
X293900Y228999D02*
X372201D01*
X293900Y219099D02*
X372160D01*
X293900Y209199D02*
X372122D01*
X293900Y212799D02*
X372121D01*
X293900Y222699D02*
X372085D01*
X293900Y232599D02*
X372052D01*
X293900Y252399D02*
X371992D01*
X293900Y249699D02*
X371965D01*
X293900Y229899D02*
X371918D01*
X293900Y219999D02*
X371897D01*
X293900Y210099D02*
X371879D01*
X293900Y211899D02*
X371878D01*
X293900Y221799D02*
X371862D01*
X293900Y231699D02*
X371847D01*
X293900Y251499D02*
X371824D01*
X293900Y250599D02*
X371815D01*
X293900Y230799D02*
X371804D01*
X293900Y220899D02*
X371801D01*
X293900Y210999D02*
X371800D01*
X359978Y314499D02*
X367392D01*
X365672Y295599D02*
X367231D01*
X361147Y313599D02*
X366246D01*
X361675Y312699D02*
X365555D01*
X361800Y308199D02*
X365122D01*
X361886Y311799D02*
X365121D01*
X361800Y309099D02*
X364879D01*
X361845Y310899D02*
X364878D01*
X361800Y309999D02*
X364800D01*
X361800Y307299D02*
X362666D01*
X361800Y295599D02*
X362528D01*
X361800Y306399D02*
X361871D01*
X351022Y345099D02*
X358978D01*
X351424Y264999D02*
X358576D01*
X351744Y274899D02*
X358256D01*
X351997Y335199D02*
X358003D01*
X354524Y284799D02*
X357997D01*
X334399Y314499D02*
X357222D01*
X323064Y275799D02*
X356936D01*
X353068Y344199D02*
X356932D01*
X353197Y265899D02*
X356803D01*
X353324Y273999D02*
X356676D01*
X353438Y336099D02*
X356562D01*
X353624Y283899D02*
X356559D01*
X334845Y313599D02*
X356053D01*
X324018Y276699D02*
X355982D01*
X354020Y343299D02*
X355980D01*
X354098Y266799D02*
X355902D01*
X354176Y273099D02*
X355824D01*
X354246Y336999D02*
X355754D01*
X352724Y282999D02*
X355752D01*
X334999Y312699D02*
X355525D01*
X333731Y309999D02*
X355400D01*
X332724Y309099D02*
X355400D01*
X331824Y308199D02*
X355400D01*
X330924Y307299D02*
X355400D01*
X330024Y306399D02*
X355400D01*
X329124Y305499D02*
X355400D01*
X328224Y304599D02*
X355400D01*
X327324Y303699D02*
X355400D01*
X326424Y302799D02*
X355400D01*
X325524Y301899D02*
X355400D01*
X325100Y300999D02*
X355400D01*
X325100Y300099D02*
X355400D01*
X325162Y297399D02*
X355400D01*
X325176Y296499D02*
X355400D01*
X324933Y295599D02*
X355400D01*
X324612Y277599D02*
X355388D01*
X354614Y342399D02*
X355386D01*
X324359Y294699D02*
X355373D01*
X334528Y310899D02*
X355355D01*
X325100Y299199D02*
X355338D01*
X354663Y267699D02*
X355337D01*
X325100Y298299D02*
X355324D01*
X334901Y311799D02*
X355314D01*
X354712Y272199D02*
X355288D01*
X354757Y337899D02*
X355243D01*
X351824Y282099D02*
X355242D01*
X324979Y278499D02*
X355021D01*
X354979Y341499D02*
X355021D01*
X350924Y281199D02*
X354940D01*
X349072Y279399D02*
X354835D01*
X350124Y280299D02*
X354809D01*
X323028Y293799D02*
X354473D01*
X293900Y292899D02*
X353573D01*
X293900Y291999D02*
X352673D01*
X293900Y291099D02*
X351773D01*
X293900Y290199D02*
X350873D01*
X293900Y289299D02*
X349973D01*
X293900Y288399D02*
X349073D01*
X341022Y345099D02*
X348978D01*
X331424Y264999D02*
X348576D01*
X331744Y274899D02*
X348256D01*
X293900Y287499D02*
X348173D01*
X341997Y335199D02*
X348003D01*
X293900Y286599D02*
X347273D01*
X343068Y344199D02*
X346932D01*
X333197Y265899D02*
X346803D01*
X333324Y273999D02*
X346676D01*
X343438Y336099D02*
X346562D01*
X293900Y285699D02*
X346373D01*
X344020Y343299D02*
X345980D01*
X325165Y279399D02*
X345928D01*
X334098Y266799D02*
X345902D01*
X334176Y273099D02*
X345824D01*
X344246Y336999D02*
X345754D01*
X344614Y342399D02*
X345386D01*
X322003Y284799D02*
X345344D01*
X334663Y267699D02*
X345337D01*
X334712Y272199D02*
X345288D01*
X344757Y337899D02*
X345243D01*
X344979Y341499D02*
X345021D01*
X335008Y268599D02*
X344992D01*
X335035Y271299D02*
X344965D01*
X325191Y280299D02*
X344876D01*
X335176Y269499D02*
X344824D01*
X335185Y270399D02*
X344815D01*
X323441Y283899D02*
X344613D01*
X325060Y281199D02*
X344389D01*
X324248Y282999D02*
X344275D01*
X324758Y282099D02*
X344206D01*
X331022Y345099D02*
X338978D01*
X331997Y335199D02*
X338003D01*
X333068Y344199D02*
X336932D01*
X333438Y336099D02*
X336562D01*
X334020Y343299D02*
X335980D01*
X334246Y336999D02*
X335754D01*
X334614Y342399D02*
X335386D01*
X334757Y337899D02*
X335243D01*
X334979Y341499D02*
X335021D01*
X293900Y326199D02*
X330004D01*
X293900Y331599D02*
X330001D01*
X312422Y315399D02*
X329951D01*
X293900Y327099D02*
X329135D01*
X293900Y330699D02*
X329133D01*
X293900Y314499D02*
X329001D01*
X321022Y345099D02*
X328978D01*
X293900Y327999D02*
X328725D01*
X293900Y329799D02*
X328725D01*
X293900Y328899D02*
X328600D01*
X321424Y264999D02*
X328576D01*
X321744Y274899D02*
X328256D01*
X317427Y313599D02*
X328173D01*
X321997Y335199D02*
X328003D01*
X318655Y312699D02*
X327273D01*
X323068Y344199D02*
X326932D01*
X323197Y265899D02*
X326803D01*
X323324Y273999D02*
X326676D01*
X323438Y336099D02*
X326562D01*
X319383Y311799D02*
X326373D01*
X324020Y343299D02*
X325980D01*
X324098Y266799D02*
X325902D01*
X324176Y273099D02*
X325824D01*
X324246Y336999D02*
X325754D01*
X319841Y310899D02*
X325473D01*
X324614Y342399D02*
X325386D01*
X324663Y267699D02*
X325337D01*
X324712Y272199D02*
X325288D01*
X324757Y337899D02*
X325243D01*
X324979Y341499D02*
X325021D01*
X320103Y309999D02*
X324573D01*
X320199Y309099D02*
X323673D01*
X320138Y308199D02*
X322773D01*
X319914Y307299D02*
X321873D01*
X319503Y306399D02*
X320973D01*
X293900Y293799D02*
X320772D01*
X318845Y305499D02*
X320073D01*
X293900Y294699D02*
X319441D01*
X317769Y304599D02*
X319253D01*
X293900Y345099D02*
X318978D01*
X317769Y295599D02*
X318867D01*
X318655Y303699D02*
X318829D01*
X293900Y264999D02*
X318576D01*
X293900Y274899D02*
X318256D01*
X293900Y335199D02*
X318003D01*
X293900Y284799D02*
X317997D01*
X293900Y275799D02*
X316936D01*
X293900Y344199D02*
X316932D01*
X293900Y265899D02*
X316803D01*
X293900Y273999D02*
X316676D01*
X293900Y336099D02*
X316562D01*
X293900Y283899D02*
X316559D01*
X293900Y276699D02*
X315982D01*
X293900Y343299D02*
X315980D01*
X293900Y266799D02*
X315902D01*
X293900Y273099D02*
X315824D01*
X293900Y336999D02*
X315754D01*
X293900Y282999D02*
X315752D01*
X293900Y277599D02*
X315388D01*
X293900Y342399D02*
X315386D01*
X293900Y267699D02*
X315337D01*
X293900Y272199D02*
X315288D01*
X293900Y337899D02*
X315243D01*
X293900Y282099D02*
X315242D01*
X293900Y278499D02*
X315021D01*
X293900Y341499D02*
X315021D01*
X293900Y268599D02*
X314992D01*
X293900Y271299D02*
X314965D01*
X293900Y338799D02*
X314941D01*
X293900Y281199D02*
X314940D01*
X293900Y279399D02*
X314835D01*
X293900Y340599D02*
X314835D01*
X293900Y269499D02*
X314824D01*
X293900Y270399D02*
X314815D01*
X293900Y339699D02*
X314809D01*
X293900Y280299D02*
X314809D01*
X293900Y313599D02*
X312573D01*
X293900Y304599D02*
X312231D01*
X293900Y295599D02*
X312231D01*
X293900Y312699D02*
X311345D01*
X293900Y303699D02*
X311345D01*
X293900Y305499D02*
X311155D01*
X293900Y296499D02*
X311155D01*
X293900Y311799D02*
X310617D01*
X293900Y302799D02*
X310617D01*
X293900Y306399D02*
X310497D01*
X293900Y297399D02*
X310497D01*
X293900Y310899D02*
X310159D01*
X293900Y301899D02*
X310159D01*
X293900Y307299D02*
X310086D01*
X293900Y298299D02*
X310086D01*
X293900Y309999D02*
X309897D01*
X293900Y300999D02*
X309897D01*
X293900Y308199D02*
X309862D01*
X293900Y299199D02*
X309862D01*
X293900Y309099D02*
X309801D01*
X293900Y300099D02*
X309801D01*
X293900Y315399D02*
X307578D01*
X293900Y324399D02*
X307227D01*
X293900Y316299D02*
X306348D01*
X293900Y323499D02*
X306153D01*
X293900Y317199D02*
X305619D01*
X293900Y322599D02*
X305496D01*
X293900Y318099D02*
X305160D01*
X293900Y321699D02*
X305085D01*
X293900Y318999D02*
X304897D01*
X293900Y320799D02*
X304862D01*
X293900Y319899D02*
X304801D01*
G54D148*
X294600Y308600D02*
Y311400D01*
X307400*
Y308600*
X294600*
Y311200D02*
X307400D01*
X295200Y308600D02*
Y311400D01*
X298400Y308600D02*
Y311400D01*
X301600Y308600D02*
Y311400D01*
X304800Y308600D02*
Y311400D01*
X294600Y288600D02*
Y291400D01*
X307400*
Y288600*
X294600*
Y288800D02*
X307400D01*
X295200Y288600D02*
Y291400D01*
X298400Y288600D02*
Y291400D01*
X301600Y288600D02*
Y291400D01*
X304800Y288600D02*
Y291400D01*
X294600Y146600D02*
Y149400D01*
X307400*
Y146600*
X294600*
Y148000D02*
X307400D01*
X295200Y146600D02*
Y149400D01*
X298400Y146600D02*
Y149400D01*
X301600Y146600D02*
Y149400D01*
X304800Y146600D02*
Y149400D01*
X294600Y126600D02*
Y129400D01*
X307400*
Y126600*
X294600*
Y128800D02*
X307400D01*
X295200Y126600D02*
Y129400D01*
X298400Y126600D02*
Y129400D01*
X301600Y126600D02*
Y129400D01*
X304800Y126600D02*
Y129400D01*
X294600Y216600D02*
Y219400D01*
X307400*
Y216600*
X294600*
Y218400D02*
X307400D01*
X295200Y216600D02*
Y219400D01*
X298400Y216600D02*
Y219400D01*
X301600Y216600D02*
Y219400D01*
X304800Y216600D02*
Y219400D01*
X294600Y196600D02*
Y199400D01*
X307400*
Y196600*
X294600*
Y199200D02*
X307400D01*
X295200Y196600D02*
Y199400D01*
X298400Y196600D02*
Y199400D01*
X301600Y196600D02*
Y199400D01*
X304800Y196600D02*
Y199400D01*
X336000Y106000D03*
X361000D03*
X352000Y114000D03*
X381000Y106000D03*
X323000Y118000D03*
X315000Y128000D03*
X335000Y124000D03*
X372000Y116000D03*
X405000Y128000D03*
X392000Y124000D03*
X417000Y131000D03*
X319100Y151000D03*
X347000Y146000D03*
Y152000D03*
X342000Y142000D03*
X334000Y141000D03*
X363000Y136000D03*
X358000Y149000D03*
X349000Y140000D03*
X370000Y148000D03*
X397000Y149000D03*
X395000Y138000D03*
X425000Y140000D03*
X408000Y143000D03*
X434000Y150000D03*
X307000Y162000D03*
X298000Y168000D03*
X301000Y154900D03*
X319000Y166000D03*
X334000Y162000D03*
X345000Y160000D03*
X339000Y164000D03*
X364000Y157000D03*
X351000Y159000D03*
X375000Y164000D03*
X407000Y155000D03*
X395000Y162000D03*
X404000Y168000D03*
X419000D03*
Y155000D03*
X445000Y159000D03*
X434000Y171000D03*
X298000Y183000D03*
X301000Y191600D03*
X308000Y184000D03*
X345000Y182000D03*
X333000D03*
X347000Y189000D03*
X338000Y182000D03*
X362000Y191000D03*
X351000Y183000D03*
X387000Y179000D03*
X374000Y182000D03*
X405000D03*
X422000Y181000D03*
X461000Y187000D03*
X346000Y202000D03*
X334000D03*
X347000Y195000D03*
X340000Y205000D03*
X351000Y198000D03*
X364000Y203000D03*
X353000Y212000D03*
X377000Y199000D03*
X388000Y203000D03*
X401200Y207200D03*
X393300Y212700D03*
X388800Y213000D03*
X401000Y201800D03*
X420500Y201700D03*
X420800Y212800D03*
X415500Y201800D03*
X445000Y203000D03*
X437000Y197000D03*
X428000Y204000D03*
X454000Y197000D03*
X487000Y204000D03*
X303000Y231000D03*
X301000Y223800D03*
X317000Y218000D03*
X331000Y215000D03*
X342000Y223000D03*
X328000Y228000D03*
X357000Y223000D03*
X366000Y233000D03*
X368000Y216000D03*
X383300Y227200D03*
X407000Y217000D03*
X403000D03*
X407000Y225000D03*
X403000D03*
X407000Y221000D03*
X396300Y233700D03*
X393100Y230100D03*
X388800Y227900D03*
X411000Y221000D03*
Y225000D03*
Y217000D03*
X420000Y232000D03*
X428500Y233300D03*
X451000Y231000D03*
X463000Y223000D03*
X449000Y217000D03*
X475000Y233000D03*
X487000Y229000D03*
X475000Y218000D03*
X297000Y242000D03*
X307000Y248000D03*
X315000Y236000D03*
X325000Y245000D03*
X340000Y235000D03*
X338000Y249000D03*
X350000Y237000D03*
X358000Y249000D03*
X373500Y244300D03*
X394800Y242000D03*
X404200D03*
X415800Y237800D03*
X412200Y244500D03*
X437000Y253000D03*
X440500Y244500D03*
X451000Y247000D03*
X463000Y237000D03*
X469000Y251000D03*
X307000Y266000D03*
X297000Y260000D03*
X318000Y256000D03*
X341000Y267000D03*
X333000Y260000D03*
X338000Y274400D03*
X349000Y258000D03*
X368000Y260000D03*
X376000Y267000D03*
X385000Y272000D03*
X392000Y260000D03*
X401000Y270000D03*
X411000Y259000D03*
X418000Y268000D03*
X430000Y264000D03*
X297000Y275000D03*
X301000Y283300D03*
X311000Y276000D03*
X315300Y293000D03*
X347500Y282300D03*
X367000Y288000D03*
X363400Y294000D03*
X370000Y276000D03*
X380000Y284000D03*
X397000Y279000D03*
X393000Y290000D03*
X401100Y289500D03*
X414000Y279000D03*
X417000Y289000D03*
X430000Y278000D03*
X321900Y296900D03*
X337000Y297000D03*
Y303000D03*
X343000D03*
Y297000D03*
X340000Y300000D03*
X331700Y312600D03*
X363600Y309400D03*
X364700Y304700D03*
X358600Y298700D03*
X364100Y298500D03*
X358600Y311500D03*
X347900Y312300D03*
X380000Y304500D03*
X398000Y302000D03*
X400900Y313500D03*
X409800Y309500D03*
X423500Y304500D03*
X297000Y333000D03*
X298000Y321000D03*
X301000Y316300D03*
X313000Y330000D03*
X324000Y329000D03*
X322500Y317300D03*
X331900Y328900D03*
X344400D03*
X352100Y327700D03*
X370000Y321000D03*
X379900Y328500D03*
X393000Y317000D03*
X391700Y330500D03*
X423500Y328500D03*
X307000Y339000D03*
X297000Y350000D03*
X313000D03*
X334000D03*
X356000Y351000D03*
X371000Y350000D03*
X412300Y340000D03*
X424000Y349000D03*
X431000Y336000D03*
G54D151*
X397244Y344094D03*
X304724Y111811D03*
G74*
X0Y0D02*
M02*
