% M48 INCH,LZ
T1C.014F095S300
X031500Y012800
X032300Y011800
X033500Y012400
X033600Y010600
X035200Y011400
X036100Y010600
X037200Y011600
X038100Y010600
X039200Y012400
X040500Y012800
X043400Y015000
X042500Y014000
X041900Y015500
X041700Y013100
X040800Y014300
X040700Y015500
X039700Y014900
X039500Y013800
X037000Y014800
X036300Y013600
X035800Y014900
X034900Y014000
X034700Y015200
X034700Y014600
X034200Y014200
X033400Y014100
X031910Y015100
X030100Y015490
X029800Y016800
X030700Y016200
X031900Y016600
X033400Y016200
X033900Y016400
X034500Y016000
X035100Y015900
X036400Y015700
X037500Y016400
X038700Y017900
X039500Y016200
X040400Y016800
X041900Y016800
X043400Y017100
X044500Y015900
X048700Y020400
X046100Y018700
X045400Y019700
X044500Y020300
X043700Y019700
X042800Y020400
X042200Y018100
X042050Y020170
X041550Y020180
X040500Y018200
X040100Y020180
X038800Y020300
X037700Y019900
X037400Y018200
X036400Y020300
X036200Y019100
X035100Y019800
X035100Y018300
X034700Y019500
X034700Y018900
X034600Y020200
X034500Y018200
X034000Y020500
X033800Y018200
X033400Y020200
X033300Y018200
X030800Y018400
X030100Y019160
X029800Y018300
X030100Y022380
X031700Y021800
X032800Y022800
X033100Y021500
X034200Y022300
X035300Y021200
X035700Y022300
X036800Y021600
X038330Y022720
X038880Y021300
X038880Y022790
X039310Y023010
X039330Y021270
X040120Y020720
X040300Y021700
X040300Y022500
X040700Y022500
X040700Y022100
X040700Y021700
X041100Y022100
X041100Y022500
X041100Y021700
X042080Y021280
X044900Y021700
X046300Y022300
X047500Y021800
X048700Y022900
X047500Y023300
X046900Y025100
X046300Y023700
X045100Y024700
X045100Y023100
X044050Y024450
X043700Y025300
X042850Y023330
X042000Y023200
X041580Y023780
X041220Y024450
X040420Y024200
X039630Y023370
X039480Y024200
X037350Y024430
X036600Y023300
X035800Y024900
X035000Y023700
X034000Y023500
X033800Y024900
X032500Y024500
X031500Y023600
X030700Y024800
X030300Y023100
X029700Y024200
X029700Y026000
X029700Y027500
X030700Y026600
X031100Y027600
X031800Y025600
X033300Y026000
X033800Y027440
X034100Y026700
X034900Y025800
X036800Y026000
X037000Y027600
X037600Y026700
X038500Y027200
X039200Y026000
X039700Y027900
X040100Y027000
X041100Y025900
X041400Y027900
X041800Y026800
X043000Y026400
X043000Y027800
X042350Y030450
X041700Y028900
X040110Y028950
X039800Y030200
X039300Y029000
X038000Y028400
X038000Y030450
X036700Y028800
X036470Y030470
X036410Y029850
X036340Y029400
X035860Y029870
X034750Y028230
X034300Y029700
X034300Y030300
X034000Y030000
X033700Y030300
X033700Y029700
X032190Y029690
X031530Y029300
X030100Y028330
X029800Y032100
X030100Y031630
X031300Y033000
X032250Y031730
X032400Y032900
X033170Y031260
X033190Y032890
X034440Y032890
X034790Y031230
X035210Y032770
X035860Y031150
X036360Y030940
X037000Y032100
X037990Y032850
X039170Y033050
X039300Y031700
X040090Y031350
X040980Y030950
X042350Y032850
X043100Y033600
X042400Y034900
X041230Y034000
X037100Y035000
X035600Y035100
X033400Y035000
X031300Y035000
X030700Y033900
X029700Y035000
X029700Y033300
T2C.037F197S550
X038500Y014500
X038500Y015500
X038700Y019100
X039700Y019100
X040700Y019100
X041700Y019100
X042700Y019100
X043900Y018300
X044500Y018900
X046000Y020400
X046600Y021000
X043700Y022100
X043700Y021100
X043700Y023100
X042700Y025100
X041700Y025100
X040700Y025100
X039700Y025100
X038700Y025100
X037700Y023100
X037700Y021100
X037700Y022100
X037700Y025100
X036700Y025100
X031500Y030000
X032000Y027000
X032000Y028000
X033000Y027000
X035000Y027000
X036000Y027000
X036000Y028000
X037000Y030000
X043000Y029000
X043000Y030000
X043000Y032000
X043000Y031000
X037000Y031000
X037000Y034000
X036000Y034000
X035000Y034000
X034000Y034000
X033000Y034000
X032000Y034000
X031500Y030900
X031000Y032000
T3C.03937F197S550
X045104Y018376G85X046496Y016984
X044464Y017736G85X045856Y016344
X047896Y018364G85X046504Y019756
X048536Y019004G85X047144Y020396
T4C.11811F069S658
X039101Y011047
X048189Y023976
T5C.11811F069S658
X030472Y011181
X039724Y034409
M30
