*
*
G04 PADS 9.5 Build Number: 522968 generated Gerber (RS-274-X) file*
G04 PC Version=2.1*
*
%IN "MultiTestBoard.pcb"*%
*
%MOIN*%
*
%FSLAX35Y35*%
*
*
*
*
G04 PC Standard Apertures*
*
*
G04 Thermal Relief Aperture macro.*
%AMTER*
1,1,$1,0,0*
1,0,$1-$2,0,0*
21,0,$3,$4,0,0,45*
21,0,$3,$4,0,0,135*
%
*
*
G04 Annular Aperture macro.*
%AMANN*
1,1,$1,0,0*
1,0,$2,0,0*
%
*
*
G04 Odd Aperture macro.*
%AMODD*
1,1,$1,0,0*
1,0,$1-0.005,0,0*
%
*
*
G04 PC Custom Aperture Macros*
*
*
*
*
*
*
G04 PC Aperture Table*
*
%ADD010C,0.001*%
%ADD011C,0.008*%
%ADD012C,0.00787*%
%ADD013C,0.01575*%
%ADD048C,0.07*%
%ADD061C,0.07874*%
%ADD089R,0.043X0.039*%
%ADD090R,0.048X0.048*%
%ADD102O,0.03346X0.00984*%
%ADD103O,0.00984X0.03346*%
%ADD148C,0.032*%
%ADD149O,0.05906X0.02362*%
%ADD150C,0.01969*%
%ADD151C,0.22441*%
*
*
*
*
G04 PC Circuitry*
G04 Layer Name MultiTestBoard.pcb - circuitry*
%LPD*%
*
*
G04 PC Custom Flashes*
G04 Layer Name MultiTestBoard.pcb - flashes*
%LPD*%
*
*
G04 PC Circuitry*
G04 Layer Name MultiTestBoard.pcb - circuitry*
%LPD*%
*
G54D10*
G54D11*
G01X328100Y181550D02*
Y178450D01*
X324600*
Y181550*
X328100*
X324600Y179200D02*
X328100D01*
X324600Y180000D02*
X328100D01*
X324600Y180800D02*
X328100D01*
X324800Y178450D02*
Y181550D01*
X325600Y178450D02*
Y181550D01*
X326400Y178450D02*
Y181550D01*
X327200Y178450D02*
Y181550D01*
X328000Y178450D02*
Y181550D01*
X321400D02*
Y178450D01*
X317900*
Y181550*
X321400*
X317900Y179200D02*
X321400D01*
X317900Y180000D02*
X321400D01*
X317900Y180800D02*
X321400D01*
X318400Y178450D02*
Y181550D01*
X319200Y178450D02*
Y181550D01*
X320000Y178450D02*
Y181550D01*
X320800Y178450D02*
Y181550D01*
X325450Y174100D02*
X328550D01*
Y170600*
X325450*
Y174100*
Y171200D02*
X328550D01*
X325450Y172000D02*
X328550D01*
X325450Y172800D02*
X328550D01*
X325450Y173600D02*
X328550D01*
X325600Y170600D02*
Y174100D01*
X326400Y170600D02*
Y174100D01*
X327200Y170600D02*
Y174100D01*
X328000Y170600D02*
Y174100D01*
X325450Y167400D02*
X328550D01*
Y163900*
X325450*
Y167400*
Y164000D02*
X328550D01*
X325450Y164800D02*
X328550D01*
X325450Y165600D02*
X328550D01*
X325450Y166400D02*
X328550D01*
X325450Y167200D02*
X328550D01*
X325600Y163900D02*
Y167400D01*
X326400Y163900D02*
Y167400D01*
X327200Y163900D02*
Y167400D01*
X328000Y163900D02*
Y167400D01*
X311900Y136450D02*
Y139550D01*
X315400*
Y136450*
X311900*
Y136800D02*
X315400D01*
X311900Y137600D02*
X315400D01*
X311900Y138400D02*
X315400D01*
X311900Y139200D02*
X315400D01*
X312000Y136450D02*
Y139550D01*
X312800Y136450D02*
Y139550D01*
X313600Y136450D02*
Y139550D01*
X314400Y136450D02*
Y139550D01*
X315200Y136450D02*
Y139550D01*
X318600Y136450D02*
Y139550D01*
X322100*
Y136450*
X318600*
Y136800D02*
X322100D01*
X318600Y137600D02*
X322100D01*
X318600Y138400D02*
X322100D01*
X318600Y139200D02*
X322100D01*
X319200Y136450D02*
Y139550D01*
X320000Y136450D02*
Y139550D01*
X320800Y136450D02*
Y139550D01*
X321600Y136450D02*
Y139550D01*
X311900Y206450D02*
Y209550D01*
X315400*
Y206450*
X311900*
Y207200D02*
X315400D01*
X311900Y208000D02*
X315400D01*
X311900Y208800D02*
X315400D01*
X312000Y206450D02*
Y209550D01*
X312800Y206450D02*
Y209550D01*
X313600Y206450D02*
Y209550D01*
X314400Y206450D02*
Y209550D01*
X315200Y206450D02*
Y209550D01*
X318600Y206450D02*
Y209550D01*
X322100*
Y206450*
X318600*
Y207200D02*
X322100D01*
X318600Y208000D02*
X322100D01*
X318600Y208800D02*
X322100D01*
X319200Y206450D02*
Y209550D01*
X320000Y206450D02*
Y209550D01*
X320800Y206450D02*
Y209550D01*
X321600Y206450D02*
Y209550D01*
X353550Y165900D02*
X350450D01*
Y169400*
X353550*
Y165900*
X350450Y166400D02*
X353550D01*
X350450Y167200D02*
X353550D01*
X350450Y168000D02*
X353550D01*
X350450Y168800D02*
X353550D01*
X351200Y165900D02*
Y169400D01*
X352000Y165900D02*
Y169400D01*
X352800Y165900D02*
Y169400D01*
X353550Y172600D02*
X350450D01*
Y176100*
X353550*
Y172600*
X350450Y172800D02*
X353550D01*
X350450Y173600D02*
X353550D01*
X350450Y174400D02*
X353550D01*
X350450Y175200D02*
X353550D01*
X350450Y176000D02*
X353550D01*
X351200Y172600D02*
Y176100D01*
X352000Y172600D02*
Y176100D01*
X352800Y172600D02*
Y176100D01*
X347550Y119900D02*
X344450D01*
Y123400*
X347550*
Y119900*
X344450Y120000D02*
X347550D01*
X344450Y120800D02*
X347550D01*
X344450Y121600D02*
X347550D01*
X344450Y122400D02*
X347550D01*
X344450Y123200D02*
X347550D01*
X344800Y119900D02*
Y123400D01*
X345600Y119900D02*
Y123400D01*
X346400Y119900D02*
Y123400D01*
X347200Y119900D02*
Y123400D01*
X347550Y126600D02*
X344450D01*
Y130100*
X347550*
Y126600*
X344450Y127200D02*
X347550D01*
X344450Y128000D02*
X347550D01*
X344450Y128800D02*
X347550D01*
X344450Y129600D02*
X347550D01*
X344800Y126600D02*
Y130100D01*
X345600Y126600D02*
Y130100D01*
X346400Y126600D02*
Y130100D01*
X347200Y126600D02*
Y130100D01*
X360550Y165900D02*
X357450D01*
Y169400*
X360550*
Y165900*
X357450Y166400D02*
X360550D01*
X357450Y167200D02*
X360550D01*
X357450Y168000D02*
X360550D01*
X357450Y168800D02*
X360550D01*
X357600Y165900D02*
Y169400D01*
X358400Y165900D02*
Y169400D01*
X359200Y165900D02*
Y169400D01*
X360000Y165900D02*
Y169400D01*
X360550Y172600D02*
X357450D01*
Y176100*
X360550*
Y172600*
X357450Y172800D02*
X360550D01*
X357450Y173600D02*
X360550D01*
X357450Y174400D02*
X360550D01*
X357450Y175200D02*
X360550D01*
X357450Y176000D02*
X360550D01*
X357600Y172600D02*
Y176100D01*
X358400Y172600D02*
Y176100D01*
X359200Y172600D02*
Y176100D01*
X360000Y172600D02*
Y176100D01*
X354550Y119900D02*
X351450D01*
Y123400*
X354550*
Y119900*
X351450Y120000D02*
X354550D01*
X351450Y120800D02*
X354550D01*
X351450Y121600D02*
X354550D01*
X351450Y122400D02*
X354550D01*
X351450Y123200D02*
X354550D01*
X352000Y119900D02*
Y123400D01*
X352800Y119900D02*
Y123400D01*
X353600Y119900D02*
Y123400D01*
X354400Y119900D02*
Y123400D01*
X354550Y126600D02*
X351450D01*
Y130100*
X354550*
Y126600*
X351450Y127200D02*
X354550D01*
X351450Y128000D02*
X354550D01*
X351450Y128800D02*
X354550D01*
X351450Y129600D02*
X354550D01*
X352000Y126600D02*
Y130100D01*
X352800Y126600D02*
Y130100D01*
X353600Y126600D02*
Y130100D01*
X354400Y126600D02*
Y130100D01*
X367550Y165900D02*
X364450D01*
Y169400*
X367550*
Y165900*
X364450Y166400D02*
X367550D01*
X364450Y167200D02*
X367550D01*
X364450Y168000D02*
X367550D01*
X364450Y168800D02*
X367550D01*
X364800Y165900D02*
Y169400D01*
X365600Y165900D02*
Y169400D01*
X366400Y165900D02*
Y169400D01*
X367200Y165900D02*
Y169400D01*
X367550Y172600D02*
X364450D01*
Y176100*
X367550*
Y172600*
X364450Y172800D02*
X367550D01*
X364450Y173600D02*
X367550D01*
X364450Y174400D02*
X367550D01*
X364450Y175200D02*
X367550D01*
X364450Y176000D02*
X367550D01*
X364800Y172600D02*
Y176100D01*
X365600Y172600D02*
Y176100D01*
X366400Y172600D02*
Y176100D01*
X367200Y172600D02*
Y176100D01*
X361550Y119900D02*
X358450D01*
Y123400*
X361550*
Y119900*
X358450Y120000D02*
X361550D01*
X358450Y120800D02*
X361550D01*
X358450Y121600D02*
X361550D01*
X358450Y122400D02*
X361550D01*
X358450Y123200D02*
X361550D01*
X359200Y119900D02*
Y123400D01*
X360000Y119900D02*
Y123400D01*
X360800Y119900D02*
Y123400D01*
X361550Y126600D02*
X358450D01*
Y130100*
X361550*
Y126600*
X358450Y127200D02*
X361550D01*
X358450Y128000D02*
X361550D01*
X358450Y128800D02*
X361550D01*
X358450Y129600D02*
X361550D01*
X359200Y126600D02*
Y130100D01*
X360000Y126600D02*
Y130100D01*
X360800Y126600D02*
Y130100D01*
G54D12*
X328606Y311661D02*
X326394D01*
Y314339*
X328606*
Y311661*
X326394Y311811D02*
X328606D01*
X326394Y312598D02*
X328606D01*
X326394Y313386D02*
X328606D01*
X326394Y314173D02*
X328606D01*
X326772Y311661D02*
Y314339D01*
X327559Y311661D02*
Y314339D01*
X328346Y311661D02*
Y314339D01*
X323606Y311661D02*
X321394D01*
Y314339*
X323606*
Y311661*
X321394Y311811D02*
X323606D01*
X321394Y312598D02*
X323606D01*
X321394Y313386D02*
X323606D01*
X321394Y314173D02*
X323606D01*
X322047Y311661D02*
Y314339D01*
X322835Y311661D02*
Y314339D01*
X325606Y291661D02*
X323394D01*
Y294339*
X325606*
Y291661*
X323394Y292126D02*
X325606D01*
X323394Y292913D02*
X325606D01*
X323394Y293701D02*
X325606D01*
X323622Y291661D02*
Y294339D01*
X324409Y291661D02*
Y294339D01*
X325197Y291661D02*
Y294339D01*
X320606Y291661D02*
X318394D01*
Y294339*
X320606*
Y291661*
X318394Y292126D02*
X320606D01*
X318394Y292913D02*
X320606D01*
X318394Y293701D02*
X320606D01*
X318898Y291661D02*
Y294339D01*
X319685Y291661D02*
Y294339D01*
X320472Y291661D02*
Y294339D01*
X339339Y284606D02*
Y282394D01*
X336661*
Y284606*
X339339*
X336661Y282677D02*
X339339D01*
X336661Y283465D02*
X339339D01*
X336661Y284252D02*
X339339D01*
X337008Y282394D02*
Y284606D01*
X337795Y282394D02*
Y284606D01*
X338583Y282394D02*
Y284606D01*
X339339Y279606D02*
Y277394D01*
X336661*
Y279606*
X339339*
X336661Y277953D02*
X339339D01*
X336661Y278740D02*
X339339D01*
X336661Y279528D02*
X339339D01*
X337008Y277394D02*
Y279606D01*
X337795Y277394D02*
Y279606D01*
X338583Y277394D02*
Y279606D01*
X344339Y284606D02*
Y282394D01*
X341661*
Y284606*
X344339*
X341661Y282677D02*
X344339D01*
X341661Y283465D02*
X344339D01*
X341661Y284252D02*
X344339D01*
X341732Y282394D02*
Y284606D01*
X342520Y282394D02*
Y284606D01*
X343307Y282394D02*
Y284606D01*
X344094Y282394D02*
Y284606D01*
X344339Y279606D02*
Y277394D01*
X341661*
Y279606*
X344339*
X341661Y277953D02*
X344339D01*
X341661Y278740D02*
X344339D01*
X341661Y279528D02*
X344339D01*
X341732Y277394D02*
Y279606D01*
X342520Y277394D02*
Y279606D01*
X343307Y277394D02*
Y279606D01*
X344094Y277394D02*
Y279606D01*
X353394Y295339D02*
X355606D01*
Y292661*
X353394*
Y295339*
Y292913D02*
X355606D01*
X353394Y293701D02*
X355606D01*
X353394Y294488D02*
X355606D01*
X353394Y295276D02*
X355606D01*
X353543Y292661D02*
Y295339D01*
X354331Y292661D02*
Y295339D01*
X355118Y292661D02*
Y295339D01*
X358394D02*
X360606D01*
Y292661*
X358394*
Y295339*
Y292913D02*
X360606D01*
X358394Y293701D02*
X360606D01*
X358394Y294488D02*
X360606D01*
X358394Y295276D02*
X360606D01*
X359055Y292661D02*
Y295339D01*
X359843Y292661D02*
Y295339D01*
X353394Y308339D02*
X355606D01*
Y305661*
X353394*
Y308339*
Y306299D02*
X355606D01*
X353394Y307087D02*
X355606D01*
X353394Y307874D02*
X355606D01*
X353543Y305661D02*
Y308339D01*
X354331Y305661D02*
Y308339D01*
X355118Y305661D02*
Y308339D01*
X358394D02*
X360606D01*
Y305661*
X358394*
Y308339*
Y306299D02*
X360606D01*
X358394Y307087D02*
X360606D01*
X358394Y307874D02*
X360606D01*
X359055Y305661D02*
Y308339D01*
X359843Y305661D02*
Y308339D01*
X318394Y289339D02*
X320606D01*
Y286661*
X318394*
Y289339*
Y287402D02*
X320606D01*
X318394Y288189D02*
X320606D01*
X318394Y288976D02*
X320606D01*
X318898Y286661D02*
Y289339D01*
X319685Y286661D02*
Y289339D01*
X320472Y286661D02*
Y289339D01*
X323394D02*
X325606D01*
Y286661*
X323394*
Y289339*
Y287402D02*
X325606D01*
X323394Y288189D02*
X325606D01*
X323394Y288976D02*
X325606D01*
X323622Y286661D02*
Y289339D01*
X324409Y286661D02*
Y289339D01*
X325197Y286661D02*
Y289339D01*
X360606Y287661D02*
X358394D01*
Y290339*
X360606*
Y287661*
X358394Y288189D02*
X360606D01*
X358394Y288976D02*
X360606D01*
X358394Y289764D02*
X360606D01*
X359055Y287661D02*
Y290339D01*
X359843Y287661D02*
Y290339D01*
X355606Y287661D02*
X353394D01*
Y290339*
X355606*
Y287661*
X353394Y288189D02*
X355606D01*
X353394Y288976D02*
X355606D01*
X353394Y289764D02*
X355606D01*
X353543Y287661D02*
Y290339D01*
X354331Y287661D02*
Y290339D01*
X355118Y287661D02*
Y290339D01*
X321394Y323339D02*
X323606D01*
Y320661*
X321394*
Y323339*
Y321260D02*
X323606D01*
X321394Y322047D02*
X323606D01*
X321394Y322835D02*
X323606D01*
X322047Y320661D02*
Y323339D01*
X322835Y320661D02*
Y323339D01*
X326394D02*
X328606D01*
Y320661*
X326394*
Y323339*
Y321260D02*
X328606D01*
X326394Y322047D02*
X328606D01*
X326394Y322835D02*
X328606D01*
X326772Y320661D02*
Y323339D01*
X327559Y320661D02*
Y323339D01*
X328346Y320661D02*
Y323339D01*
X343179Y320974D02*
X345128Y322923D01*
X347355Y320696*
X345407Y318747*
X343179Y320974*
X345256Y318898D02*
X345557D01*
X344469Y319685D02*
X346344D01*
X343681Y320472D02*
X347132D01*
X343465Y321260D02*
X346791D01*
X344252Y322047D02*
X346004D01*
X345040Y322835D02*
X345217D01*
X343307Y320847D02*
Y321102D01*
X344094Y320059D02*
Y321889D01*
X344882Y319272D02*
Y322677D01*
X345669Y319010D02*
Y322382D01*
X346457Y319797D02*
Y321595D01*
X347244Y320585D02*
Y320807D01*
X348747Y315407D02*
X350696Y317355D01*
X352923Y315128*
X350974Y313179*
X348747Y315407*
X350768Y313386D02*
X351181D01*
X349981Y314173D02*
X351968D01*
X349193Y314961D02*
X352756D01*
X349089Y315748D02*
X352303D01*
X349876Y316535D02*
X351516D01*
X350663Y317323D02*
X350728D01*
X348819Y315335D02*
Y315478D01*
X349606Y314548D02*
Y316266D01*
X350394Y313760D02*
Y317053D01*
X351181Y313386D02*
Y316870D01*
X351969Y314174D02*
Y316083D01*
X352756Y314961D02*
Y315295D01*
X352645Y319304D02*
X354593Y321253D01*
X356821Y319026*
X354872Y317077*
X352645Y319304*
X354626Y317323D02*
X355118D01*
X353838Y318110D02*
X355905D01*
X353051Y318898D02*
X356693D01*
X353026Y319685D02*
X356161D01*
X353813Y320472D02*
X355374D01*
X352756Y319193D02*
Y319415D01*
X353543Y318405D02*
Y320203D01*
X354331Y317618D02*
Y320990D01*
X355118Y317323D02*
Y320728D01*
X355906Y318111D02*
Y319941D01*
X356693Y318898D02*
Y319153D01*
X347077Y324872D02*
X349026Y326821D01*
X351253Y324593*
X349304Y322645*
X347077Y324872*
X349114Y322835D02*
X349494D01*
X348327Y323622D02*
X350281D01*
X347539Y324409D02*
X351069D01*
X347402Y325197D02*
X350649D01*
X348189Y325984D02*
X349862D01*
X348977Y326772D02*
X349075D01*
X347244Y324705D02*
Y325039D01*
X348031Y323917D02*
Y325826D01*
X348819Y323130D02*
Y326614D01*
X349606Y322947D02*
Y326240D01*
X350394Y323734D02*
Y325452D01*
X351181Y324522D02*
Y324665D01*
X412661Y327394D02*
Y329606D01*
X415339*
Y327394*
X412661*
Y327559D02*
X415339D01*
X412661Y328346D02*
X415339D01*
X412661Y329134D02*
X415339D01*
X413386Y327394D02*
Y329606D01*
X414173Y327394D02*
Y329606D01*
X414961Y327394D02*
Y329606D01*
X412661Y332394D02*
Y334606D01*
X415339*
Y332394*
X412661*
Y333071D02*
X415339D01*
X412661Y333858D02*
X415339D01*
X413386Y332394D02*
Y334606D01*
X414173Y332394D02*
Y334606D01*
X414961Y332394D02*
Y334606D01*
X412661Y303394D02*
Y305606D01*
X415339*
Y303394*
X412661*
Y303937D02*
X415339D01*
X412661Y304724D02*
X415339D01*
X412661Y305512D02*
X415339D01*
X413386Y303394D02*
Y305606D01*
X414173Y303394D02*
Y305606D01*
X414961Y303394D02*
Y305606D01*
X412661Y308394D02*
Y310606D01*
X415339*
Y308394*
X412661*
Y308661D02*
X415339D01*
X412661Y309449D02*
X415339D01*
X412661Y310236D02*
X415339D01*
X413386Y308394D02*
Y310606D01*
X414173Y308394D02*
Y310606D01*
X414961Y308394D02*
Y310606D01*
X417661Y327394D02*
Y329606D01*
X420339*
Y327394*
X417661*
Y327559D02*
X420339D01*
X417661Y328346D02*
X420339D01*
X417661Y329134D02*
X420339D01*
X418110Y327394D02*
Y329606D01*
X418898Y327394D02*
Y329606D01*
X419685Y327394D02*
Y329606D01*
X417661Y332394D02*
Y334606D01*
X420339*
Y332394*
X417661*
Y333071D02*
X420339D01*
X417661Y333858D02*
X420339D01*
X418110Y332394D02*
Y334606D01*
X418898Y332394D02*
Y334606D01*
X419685Y332394D02*
Y334606D01*
X324291Y198197D02*
Y200165D01*
X329803*
Y198197*
X324291*
Y198425D02*
X329803D01*
X324291Y199213D02*
X329803D01*
X324291Y200000D02*
X329803D01*
X324409Y198197D02*
Y200165D01*
X325197Y198197D02*
Y200165D01*
X325984Y198197D02*
Y200165D01*
X326772Y198197D02*
Y200165D01*
X327559Y198197D02*
Y200165D01*
X328346Y198197D02*
Y200165D01*
X329134Y198197D02*
Y200165D01*
X324291Y192016D02*
Y193984D01*
X329803*
Y192016*
X324291*
Y192126D02*
X329803D01*
X324291Y192913D02*
X329803D01*
X324291Y193701D02*
X329803D01*
X324409Y192016D02*
Y193984D01*
X325197Y192016D02*
Y193984D01*
X325984Y192016D02*
Y193984D01*
X326772Y192016D02*
Y193984D01*
X327559Y192016D02*
Y193984D01*
X328346Y192016D02*
Y193984D01*
X329134Y192016D02*
Y193984D01*
X324291Y185835D02*
Y187803D01*
X329803*
Y185835*
X324291*
Y186614D02*
X329803D01*
X324291Y187402D02*
X329803D01*
X324409Y185835D02*
Y187803D01*
X325197Y185835D02*
Y187803D01*
X325984Y185835D02*
Y187803D01*
X326772Y185835D02*
Y187803D01*
X327559Y185835D02*
Y187803D01*
X328346Y185835D02*
Y187803D01*
X329134Y185835D02*
Y187803D01*
X324291Y156197D02*
Y158165D01*
X329803*
Y156197*
X324291*
Y156693D02*
X329803D01*
X324291Y157480D02*
X329803D01*
X324409Y156197D02*
Y158165D01*
X325197Y156197D02*
Y158165D01*
X325984Y156197D02*
Y158165D01*
X326772Y156197D02*
Y158165D01*
X327559Y156197D02*
Y158165D01*
X328346Y156197D02*
Y158165D01*
X329134Y156197D02*
Y158165D01*
X324291Y150016D02*
Y151984D01*
X329803*
Y150016*
X324291*
Y150394D02*
X329803D01*
X324291Y151181D02*
X329803D01*
X324291Y151969D02*
X329803D01*
X324409Y150016D02*
Y151984D01*
X325197Y150016D02*
Y151984D01*
X325984Y150016D02*
Y151984D01*
X326772Y150016D02*
Y151984D01*
X327559Y150016D02*
Y151984D01*
X328346Y150016D02*
Y151984D01*
X329134Y150016D02*
Y151984D01*
X324291Y143835D02*
Y145803D01*
X329803*
Y143835*
X324291*
Y144094D02*
X329803D01*
X324291Y144882D02*
X329803D01*
X324291Y145669D02*
X329803D01*
X324409Y143835D02*
Y145803D01*
X325197Y143835D02*
Y145803D01*
X325984Y143835D02*
Y145803D01*
X326772Y143835D02*
Y145803D01*
X327559Y143835D02*
Y145803D01*
X328346Y143835D02*
Y145803D01*
X329134Y143835D02*
Y145803D01*
X417661Y303394D02*
Y305606D01*
X420339*
Y303394*
X417661*
Y303937D02*
X420339D01*
X417661Y304724D02*
X420339D01*
X417661Y305512D02*
X420339D01*
X418110Y303394D02*
Y305606D01*
X418898Y303394D02*
Y305606D01*
X419685Y303394D02*
Y305606D01*
X417661Y308394D02*
Y310606D01*
X420339*
Y308394*
X417661*
Y308661D02*
X420339D01*
X417661Y309449D02*
X420339D01*
X417661Y310236D02*
X420339D01*
X418110Y308394D02*
Y310606D01*
X418898Y308394D02*
Y310606D01*
X419685Y308394D02*
Y310606D01*
X392606Y222661D02*
X390394D01*
Y225339*
X392606*
Y222661*
X390394Y222835D02*
X392606D01*
X390394Y223622D02*
X392606D01*
X390394Y224409D02*
X392606D01*
X390394Y225197D02*
X392606D01*
X390551Y222661D02*
Y225339D01*
X391339Y222661D02*
Y225339D01*
X392126Y222661D02*
Y225339D01*
X387606Y222661D02*
X385394D01*
Y225339*
X387606*
Y222661*
X385394Y222835D02*
X387606D01*
X385394Y223622D02*
X387606D01*
X385394Y224409D02*
X387606D01*
X385394Y225197D02*
X387606D01*
X385827Y222661D02*
Y225339D01*
X386614Y222661D02*
Y225339D01*
X387402Y222661D02*
Y225339D01*
X406661Y238394D02*
Y240606D01*
X409339*
Y238394*
X406661*
Y238583D02*
X409339D01*
X406661Y239370D02*
X409339D01*
X406661Y240157D02*
X409339D01*
X407087Y238394D02*
Y240606D01*
X407874Y238394D02*
Y240606D01*
X408661Y238394D02*
Y240606D01*
X406661Y243394D02*
Y245606D01*
X409339*
Y243394*
X406661*
Y244094D02*
X409339D01*
X406661Y244882D02*
X409339D01*
X407087Y243394D02*
Y245606D01*
X407874Y243394D02*
Y245606D01*
X408661Y243394D02*
Y245606D01*
X422394Y230339D02*
X424606D01*
Y227661*
X422394*
Y230339*
Y228346D02*
X424606D01*
X422394Y229134D02*
X424606D01*
X422394Y229921D02*
X424606D01*
X422835Y227661D02*
Y230339D01*
X423622Y227661D02*
Y230339D01*
X424409Y227661D02*
Y230339D01*
X427394D02*
X429606D01*
Y227661*
X427394*
Y230339*
Y228346D02*
X429606D01*
X427394Y229134D02*
X429606D01*
X427394Y229921D02*
X429606D01*
X427559Y227661D02*
Y230339D01*
X428346Y227661D02*
Y230339D01*
X429134Y227661D02*
Y230339D01*
X422394Y225339D02*
X424606D01*
Y222661*
X422394*
Y225339*
Y222835D02*
X424606D01*
X422394Y223622D02*
X424606D01*
X422394Y224409D02*
X424606D01*
X422394Y225197D02*
X424606D01*
X422835Y222661D02*
Y225339D01*
X423622Y222661D02*
Y225339D01*
X424409Y222661D02*
Y225339D01*
X427394D02*
X429606D01*
Y222661*
X427394*
Y225339*
Y222835D02*
X429606D01*
X427394Y223622D02*
X429606D01*
X427394Y224409D02*
X429606D01*
X427394Y225197D02*
X429606D01*
X427559Y222661D02*
Y225339D01*
X428346Y222661D02*
Y225339D01*
X429134Y222661D02*
Y225339D01*
X414394Y207339D02*
X416606D01*
Y204661*
X414394*
Y207339*
Y204724D02*
X416606D01*
X414394Y205512D02*
X416606D01*
X414394Y206299D02*
X416606D01*
X414394Y207087D02*
X416606D01*
X414961Y204661D02*
Y207339D01*
X415748Y204661D02*
Y207339D01*
X416535Y204661D02*
Y207339D01*
X419394D02*
X421606D01*
Y204661*
X419394*
Y207339*
Y204724D02*
X421606D01*
X419394Y205512D02*
X421606D01*
X419394Y206299D02*
X421606D01*
X419394Y207087D02*
X421606D01*
X419685Y204661D02*
Y207339D01*
X420472Y204661D02*
Y207339D01*
X421260Y204661D02*
Y207339D01*
X381394Y241339D02*
X383606D01*
Y238661*
X381394*
Y241339*
Y239370D02*
X383606D01*
X381394Y240157D02*
X383606D01*
X381394Y240945D02*
X383606D01*
X381890Y238661D02*
Y241339D01*
X382677Y238661D02*
Y241339D01*
X383465Y238661D02*
Y241339D01*
X386394D02*
X388606D01*
Y238661*
X386394*
Y241339*
Y239370D02*
X388606D01*
X386394Y240157D02*
X388606D01*
X386394Y240945D02*
X388606D01*
X386614Y238661D02*
Y241339D01*
X387402Y238661D02*
Y241339D01*
X388189Y238661D02*
Y241339D01*
X372394D02*
X374606D01*
Y238661*
X372394*
Y241339*
Y239370D02*
X374606D01*
X372394Y240157D02*
X374606D01*
X372394Y240945D02*
X374606D01*
X372441Y238661D02*
Y241339D01*
X373228Y238661D02*
Y241339D01*
X374016Y238661D02*
Y241339D01*
X377394D02*
X379606D01*
Y238661*
X377394*
Y241339*
Y239370D02*
X379606D01*
X377394Y240157D02*
X379606D01*
X377394Y240945D02*
X379606D01*
X377953Y238661D02*
Y241339D01*
X378740Y238661D02*
Y241339D01*
X379528Y238661D02*
Y241339D01*
X432606Y238661D02*
X430394D01*
Y241339*
X432606*
Y238661*
X430394Y239370D02*
X432606D01*
X430394Y240157D02*
X432606D01*
X430394Y240945D02*
X432606D01*
X430709Y238661D02*
Y241339D01*
X431496Y238661D02*
Y241339D01*
X432283Y238661D02*
Y241339D01*
X427606Y238661D02*
X425394D01*
Y241339*
X427606*
Y238661*
X425394Y239370D02*
X427606D01*
X425394Y240157D02*
X427606D01*
X425394Y240945D02*
X427606D01*
X425984Y238661D02*
Y241339D01*
X426772Y238661D02*
Y241339D01*
X427559Y238661D02*
Y241339D01*
X441606Y238661D02*
X439394D01*
Y241339*
X441606*
Y238661*
X439394Y239370D02*
X441606D01*
X439394Y240157D02*
X441606D01*
X439394Y240945D02*
X441606D01*
X440157Y238661D02*
Y241339D01*
X440945Y238661D02*
Y241339D01*
X436606Y238661D02*
X434394D01*
Y241339*
X436606*
Y238661*
X434394Y239370D02*
X436606D01*
X434394Y240157D02*
X436606D01*
X434394Y240945D02*
X436606D01*
X434646Y238661D02*
Y241339D01*
X435433Y238661D02*
Y241339D01*
X436220Y238661D02*
Y241339D01*
X341024Y187488D02*
X341297Y187512D01*
X341562Y187583*
X341811Y187699*
X342036Y187857*
X342230Y188051*
X342387Y188276*
X342503Y188524*
X342575Y188790*
X342575D02*
X342598Y189063D01*
Y196937*
X342575Y197210*
X342575D02*
X342503Y197476D01*
X342387Y197724*
X342230Y197949*
X342036Y198143*
X341811Y198301*
X341562Y198417*
X341297Y198488*
X341024Y198512*
X335146*
X334900Y198492*
X334659Y198435*
X334431Y198340*
X334220Y198211*
X334033Y198051*
X328982Y193000*
X334033Y187949*
X334220Y187789*
X334431Y187660*
X334659Y187565*
X334900Y187508*
X335146Y187488*
X341024*
X329213Y192769D02*
Y193231D01*
X329606Y192376D02*
Y193624D01*
X330000Y191982D02*
Y194018D01*
X330394Y191588D02*
Y194412D01*
X330787Y191195D02*
Y194805D01*
X331181Y190801D02*
Y195199D01*
X331575Y190407D02*
Y195593D01*
X331969Y190013D02*
Y195987D01*
X332362Y189620D02*
Y196380D01*
X332756Y189226D02*
Y196774D01*
X333150Y188832D02*
Y197168D01*
X333543Y188439D02*
Y197561D01*
X333937Y188045D02*
Y197955D01*
X334331Y187721D02*
Y198279D01*
X334724Y187550D02*
Y198450D01*
X335118Y187490D02*
Y198510D01*
X335512Y187488D02*
Y198512D01*
X335906Y187488D02*
Y198512D01*
X336299Y187488D02*
Y198512D01*
X336693Y187488D02*
Y198512D01*
X337087Y187488D02*
Y198512D01*
X337480Y187488D02*
Y198512D01*
X337874Y187488D02*
Y198512D01*
X338268Y187488D02*
Y198512D01*
X338661Y187488D02*
Y198512D01*
X339055Y187488D02*
Y198512D01*
X339449Y187488D02*
Y198512D01*
X339843Y187488D02*
Y198512D01*
X340236Y187488D02*
Y198512D01*
X340630Y187488D02*
Y198512D01*
X341024Y187488D02*
Y198512D01*
X341417Y187544D02*
Y198456D01*
X341811Y187699D02*
Y198301D01*
X342205Y188025D02*
Y197975D01*
X341024Y145488D02*
X341297Y145512D01*
X341562Y145583*
X341811Y145699*
X342036Y145857*
X342230Y146051*
X342387Y146276*
X342503Y146524*
X342575Y146790*
X342575D02*
X342598Y147063D01*
Y154937*
X342575Y155210*
X342575D02*
X342503Y155476D01*
X342387Y155724*
X342230Y155949*
X342036Y156143*
X341811Y156301*
X341562Y156417*
X341297Y156488*
X341024Y156512*
X335146*
X334900Y156492*
X334659Y156435*
X334431Y156340*
X334220Y156211*
X334033Y156051*
X328982Y151000*
X334033Y145949*
X334220Y145789*
X334431Y145660*
X334659Y145565*
X334900Y145508*
X335146Y145488*
X341024*
X329213Y150769D02*
Y151231D01*
X329606Y150376D02*
Y151624D01*
X330000Y149982D02*
Y152018D01*
X330394Y149588D02*
Y152412D01*
X330787Y149195D02*
Y152805D01*
X331181Y148801D02*
Y153199D01*
X331575Y148407D02*
Y153593D01*
X331969Y148013D02*
Y153987D01*
X332362Y147620D02*
Y154380D01*
X332756Y147226D02*
Y154774D01*
X333150Y146832D02*
Y155168D01*
X333543Y146439D02*
Y155561D01*
X333937Y146045D02*
Y155955D01*
X334331Y145721D02*
Y156279D01*
X334724Y145550D02*
Y156450D01*
X335118Y145490D02*
Y156510D01*
X335512Y145488D02*
Y156512D01*
X335906Y145488D02*
Y156512D01*
X336299Y145488D02*
Y156512D01*
X336693Y145488D02*
Y156512D01*
X337087Y145488D02*
Y156512D01*
X337480Y145488D02*
Y156512D01*
X337874Y145488D02*
Y156512D01*
X338268Y145488D02*
Y156512D01*
X338661Y145488D02*
Y156512D01*
X339055Y145488D02*
Y156512D01*
X339449Y145488D02*
Y156512D01*
X339843Y145488D02*
Y156512D01*
X340236Y145488D02*
Y156512D01*
X340630Y145488D02*
Y156512D01*
X341024Y145488D02*
Y156512D01*
X341417Y145544D02*
Y156456D01*
X341811Y145699D02*
Y156301D01*
X342205Y146025D02*
Y155975D01*
G54D13*
X335866Y304134D02*
X344134D01*
Y295866*
X335866*
Y304134*
Y296850D02*
X344134D01*
X335866Y298425D02*
X344134D01*
X335866Y300000D02*
X344134D01*
X335866Y301575D02*
X344134D01*
X335866Y303150D02*
X344134D01*
X336220Y295866D02*
Y304134D01*
X337795Y295866D02*
Y304134D01*
X339370Y295866D02*
Y304134D01*
X340945Y295866D02*
Y304134D01*
X342520Y295866D02*
Y304134D01*
X344094Y295866D02*
Y304134D01*
G54D48*
X350000Y340000D03*
X340000D03*
X330000D03*
X320000D03*
X310000Y320000D03*
X320000Y280000D03*
X360000D03*
X370000Y300000D03*
Y310000D03*
X360000Y270000D03*
X350000D03*
X330000D03*
X320000D03*
X315000Y300000D03*
Y309000D03*
X370000Y340000D03*
X360000D03*
X430000Y320000D03*
Y310000D03*
Y300000D03*
Y290000D03*
X385000Y145000D03*
Y155000D03*
X397000Y251000D03*
X387000D03*
X377000Y221000D03*
Y211000D03*
X417000Y251000D03*
X427000D03*
X437000Y221000D03*
Y211000D03*
X377000Y231000D03*
X437000D03*
X387000Y191000D03*
X397000D03*
X407000D03*
X417000D03*
X427000D03*
X407000Y251000D03*
X466000Y210000D03*
X460000Y204000D03*
X445000Y189000D03*
X439000Y183000D03*
X377000Y251000D03*
X367000D03*
G54D61*
X451042Y183761D02*
X464961Y169842D01*
X444639Y177358D02*
X458558Y163439D01*
X478958Y183639D02*
X465039Y197558D01*
X485361Y190042D02*
X471442Y203961D01*
G54D89*
X373650Y174000D03*
X380350D03*
X367650Y128000D03*
X374350D03*
G54D90*
X336100Y175000D03*
X343900D03*
X329100Y132000D03*
X336900D03*
G54D102*
X332421Y304921D03*
Y302953D03*
Y300984D03*
Y299016D03*
Y297047D03*
Y295079D03*
X347579D03*
Y297047D03*
Y299016D03*
Y300984D03*
Y302953D03*
Y304921D03*
X397354Y227890D03*
Y225921D03*
Y223953D03*
Y221984D03*
Y220016D03*
Y218047D03*
Y216079D03*
Y214110D03*
X416646D03*
Y216079D03*
Y218047D03*
Y220016D03*
Y221984D03*
Y223953D03*
Y225921D03*
Y227890D03*
G54D103*
X344921Y307579D03*
X342953D03*
X340984D03*
X339016D03*
X337047D03*
X335079D03*
Y292421D03*
X337047D03*
X339016D03*
X340984D03*
X342953D03*
X344921D03*
X400110Y211354D03*
X402079D03*
X404047D03*
X406016D03*
X407984D03*
X409953D03*
X411921D03*
X413890D03*
Y230646D03*
X411921D03*
X409953D03*
X407984D03*
X406016D03*
X404047D03*
X402079D03*
X400110D03*
G54D148*
X294600Y298600D02*
Y301400D01*
X307400*
Y298600*
X294600*
X295200D02*
Y301400D01*
X298400Y298600D02*
Y301400D01*
X301600Y298600D02*
Y301400D01*
X304800Y298600D02*
Y301400D01*
X294600Y308600D02*
Y311400D01*
X307400*
Y308600*
X294600*
Y311200D02*
X307400D01*
X295200Y308600D02*
Y311400D01*
X298400Y308600D02*
Y311400D01*
X301600Y308600D02*
Y311400D01*
X304800Y308600D02*
Y311400D01*
X294600Y288600D02*
Y291400D01*
X307400*
Y288600*
X294600*
Y288800D02*
X307400D01*
X295200Y288600D02*
Y291400D01*
X298400Y288600D02*
Y291400D01*
X301600Y288600D02*
Y291400D01*
X304800Y288600D02*
Y291400D01*
X294600Y136600D02*
Y139400D01*
X307400*
Y136600*
X294600*
Y138400D02*
X307400D01*
X295200Y136600D02*
Y139400D01*
X298400Y136600D02*
Y139400D01*
X301600Y136600D02*
Y139400D01*
X304800Y136600D02*
Y139400D01*
X294600Y146600D02*
Y149400D01*
X307400*
Y146600*
X294600*
Y148000D02*
X307400D01*
X295200Y146600D02*
Y149400D01*
X298400Y146600D02*
Y149400D01*
X301600Y146600D02*
Y149400D01*
X304800Y146600D02*
Y149400D01*
X294600Y126600D02*
Y129400D01*
X307400*
Y126600*
X294600*
Y128800D02*
X307400D01*
X295200Y126600D02*
Y129400D01*
X298400Y126600D02*
Y129400D01*
X301600Y126600D02*
Y129400D01*
X304800Y126600D02*
Y129400D01*
X294600Y206600D02*
Y209400D01*
X307400*
Y206600*
X294600*
Y208800D02*
X307400D01*
X295200Y206600D02*
Y209400D01*
X298400Y206600D02*
Y209400D01*
X301600Y206600D02*
Y209400D01*
X304800Y206600D02*
Y209400D01*
X294600Y216600D02*
Y219400D01*
X307400*
Y216600*
X294600*
Y218400D02*
X307400D01*
X295200Y216600D02*
Y219400D01*
X298400Y216600D02*
Y219400D01*
X301600Y216600D02*
Y219400D01*
X304800Y216600D02*
Y219400D01*
X294600Y196600D02*
Y199400D01*
X307400*
Y196600*
X294600*
Y199200D02*
X307400D01*
X295200Y196600D02*
Y199400D01*
X298400Y196600D02*
Y199400D01*
X301600Y196600D02*
Y199400D01*
X304800Y196600D02*
Y199400D01*
G54D149*
X385370Y328500D03*
Y323500D03*
Y318500D03*
Y313500D03*
X406630D03*
Y318500D03*
Y323500D03*
Y328500D03*
X385370Y304500D03*
Y299500D03*
Y294500D03*
Y289500D03*
X406630D03*
Y294500D03*
Y299500D03*
Y304500D03*
G54D150*
X401094Y215094D02*
Y226906D01*
X412906*
Y215094*
X401094*
Y216142D02*
X412906D01*
X401094Y218110D02*
X412906D01*
X401094Y220079D02*
X412906D01*
X401094Y222047D02*
X412906D01*
X401094Y224016D02*
X412906D01*
X401094Y225984D02*
X412906D01*
X401181Y215094D02*
Y226906D01*
X403150Y215094D02*
Y226906D01*
X405118Y215094D02*
Y226906D01*
X407087Y215094D02*
Y226906D01*
X409055Y215094D02*
Y226906D01*
X411024Y215094D02*
Y226906D01*
G54D151*
X397244Y344094D03*
X304724Y111811D03*
X0Y0D02*
M02*
