*
*
G04 PADS 9.5 Build Number: 522968 generated Gerber (RS-274-X) file*
G04 PC Version=2.1*
*
%IN "MultiTestBoard.pcb"*%
*
%MOIN*%
*
%FSLAX35Y35*%
*
*
*
*
G04 PC Standard Apertures*
*
*
G04 Thermal Relief Aperture macro.*
%AMTER*
1,1,$1,0,0*
1,0,$1-$2,0,0*
21,0,$3,$4,0,0,45*
21,0,$3,$4,0,0,135*
%
*
*
G04 Annular Aperture macro.*
%AMANN*
1,1,$1,0,0*
1,0,$2,0,0*
%
*
*
G04 Odd Aperture macro.*
%AMODD*
1,1,$1,0,0*
1,0,$1-0.005,0,0*
%
*
*
G04 PC Custom Aperture Macros*
*
*
*
*
*
*
G04 PC Aperture Table*
*
%ADD010C,0.001*%
%ADD011C,0.008*%
%ADD012C,0.00787*%
%ADD082C,0.006*%
%ADD146C,0.00394*%
%ADD147C,0.01*%
*
*
*
*
G04 PC Circuitry*
G04 Layer Name MultiTestBoard.pcb - circuitry*
%LPD*%
*
*
G04 PC Custom Flashes*
G04 Layer Name MultiTestBoard.pcb - flashes*
%LPD*%
*
*
G04 PC Circuitry*
G04 Layer Name MultiTestBoard.pcb - circuitry*
%LPD*%
*
G54D10*
G54D11*
G01X291000Y287205D02*
X284701D01*
Y312795*
X291000*
X284661Y289567D02*
X274465D01*
Y288878*
X273283Y287697*
X257732*
X256551Y288878*
Y289567*
X253008*
Y310433*
X256551*
Y311122*
X257732Y312303*
X273283*
X274465Y311122*
Y310433*
X284701*
X291000Y312795D02*
Y287205D01*
X257693Y318012D02*
X273441D01*
X257693Y281988D02*
X273441D01*
X257693Y334646D02*
X273441D01*
X257693Y265354D02*
X273441D01*
X326500Y176800D02*
X319500D01*
X326500Y183200D02*
X319500D01*
X291000Y125205D02*
X284701D01*
Y150795*
X291000*
X284661Y127567D02*
X274465D01*
Y126878*
X273283Y125697*
X257732*
X256551Y126878*
Y127567*
X253008*
Y148433*
X256551*
Y149122*
X257732Y150303*
X273283*
X274465Y149122*
Y148433*
X284701*
X291000Y150795D02*
Y125205D01*
X257693Y156012D02*
X273441D01*
X257693Y119988D02*
X273441D01*
X257693Y172646D02*
X273441D01*
X257693Y103354D02*
X273441D01*
X330200Y172500D02*
Y165500D01*
X323800Y172500D02*
Y165500D01*
X313500Y141200D02*
X320500D01*
X313500Y134800D02*
X320500D01*
X313500Y211200D02*
X320500D01*
X313500Y204800D02*
X320500D01*
X291000Y195205D02*
X284701D01*
Y220795*
X291000*
X284661Y197567D02*
X274465D01*
Y196878*
X273283Y195697*
X257732*
X256551Y196878*
Y197567*
X253008*
Y218433*
X256551*
Y219122*
X257732Y220303*
X273283*
X274465Y219122*
Y218433*
X284701*
X291000Y220795D02*
Y195205D01*
X257693Y226012D02*
X273441D01*
X257693Y189988D02*
X273441D01*
X257693Y242646D02*
X273441D01*
X257693Y173354D02*
X273441D01*
X348800Y167500D02*
Y174500D01*
X355200Y167500D02*
Y174500D01*
X342800Y121500D02*
Y128500D01*
X349200Y121500D02*
Y128500D01*
X355800Y167500D02*
Y174500D01*
X362200Y167500D02*
Y174500D01*
X349800Y121500D02*
Y128500D01*
X356200Y121500D02*
Y128500D01*
X362800Y167500D02*
Y174500D01*
X369200Y167500D02*
Y174500D01*
X356800Y121500D02*
Y128500D01*
X363200Y121500D02*
Y128500D01*
X374000Y177500D02*
X370000D01*
Y170500*
X374000*
X380000Y177500D02*
X384000D01*
Y170500*
X380000*
X368000Y131500D02*
X364000D01*
Y124500*
X368000*
X374000Y131500D02*
X378000D01*
Y124500*
X374000*
X338000Y178500D02*
X332500D01*
Y171500*
X338000*
X342000D02*
X347500D01*
Y178500*
X342000*
X331000Y135500D02*
X325500D01*
Y128500*
X331000*
X335000D02*
X340500D01*
Y135500*
X335000*
G54D12*
X347573Y310630D02*
G75*
G03X347573I-880J0D01*
G01X325000Y311622D02*
Y314378D01*
X322000Y291622D02*
Y294378D01*
X339378Y281000D02*
X336622D01*
X344378D02*
X341622D01*
X357000Y295378D02*
Y292622D01*
Y308378D02*
Y305622D01*
X322000Y289378D02*
Y286622D01*
X357000Y287622D02*
Y290378D01*
X325000Y323378D02*
Y320622D01*
X389701Y330646D02*
X395213D01*
Y329440*
X396787*
Y330646*
X402299*
Y311354*
X389701*
Y330646*
X382678Y332024D02*
G03X382678I-1245J0D01*
G01X389701Y306646D02*
X395213D01*
Y305440*
X396787*
Y306646*
X402299*
Y287354*
X389701*
Y306646*
X382678Y308024D02*
G03X382678I-1245J0D01*
G01X412622Y331000D02*
X415378D01*
X412622Y307000D02*
X415378D01*
X417622Y331000D02*
X420378D01*
X330000Y201268D02*
Y202055D01*
X340197*
Y199693*
X330000Y184732D02*
Y183945D01*
X340197*
Y186307*
X330000Y159268D02*
Y160055D01*
X340197*
Y157693*
X330000Y142732D02*
Y141945D01*
X340197*
Y144307*
X417622Y307000D02*
X420378D01*
X394402Y230449D02*
G03X394402I-1182J0D01*
G01X389000Y222622D02*
Y225378D01*
X406622Y242000D02*
X409378D01*
X426000Y230378D02*
Y227622D01*
Y225378D02*
Y222622D01*
X418000Y207378D02*
Y204622D01*
X385000Y241378D02*
Y238622D01*
X376000Y241378D02*
Y238622D01*
X429000D02*
Y241378D01*
X438000Y238622D02*
Y241378D01*
G54D82*
X338300Y315844D02*
Y313313D01*
X338300D02*
X338436Y312806D01*
X338709Y312469*
X339118Y312300*
X339391*
X339800Y312469*
X340073Y312806*
X340209Y313313*
X340209D02*
Y315844D01*
X341436Y315169D02*
X341709Y315338D01*
X341709D02*
X342118Y315844D01*
Y312300*
X333345Y323000D02*
X333209Y323338D01*
X333209D02*
X332936Y323675D01*
X332664Y323844*
X332118*
X331845Y323675*
X331573Y323338*
X331573D02*
X331436Y323000D01*
X331300Y322494*
Y321650*
X331436Y321144*
X331573Y320806*
X331845Y320469*
X332118Y320300*
X332664*
X332936Y320469*
X333209Y320806*
X333345Y321144*
X334573Y323169D02*
X334845Y323338D01*
X334845D02*
X335255Y323844D01*
Y320300*
X326345Y299000D02*
X326209Y299338D01*
X326209D02*
X325936Y299675D01*
X325664Y299844*
X325118*
X324845Y299675*
X324573Y299338*
X324573D02*
X324436Y299000D01*
X324300Y298494*
Y297650*
X324436Y297144*
X324573Y296806*
X324845Y296469*
X325118Y296300*
X325664*
X325936Y296469*
X326209Y296806*
X326345Y297144*
X327709Y299000D02*
Y299169D01*
X327845Y299506*
X327982Y299675*
X328255Y299844*
X328800*
X329073Y299675*
X329209Y299506*
X329345Y299169*
Y298831*
X329209Y298494*
X328936Y297988*
X328936D02*
X327573Y296300D01*
X329482*
X332345Y280000D02*
X332209Y280338D01*
X332209D02*
X331936Y280675D01*
X331664Y280844*
X331118*
X330845Y280675*
X330573Y280338*
X330573D02*
X330436Y280000D01*
X330300Y279494*
Y278650*
X330436Y278144*
X330573Y277806*
X330845Y277469*
X331118Y277300*
X331664*
X331936Y277469*
X332209Y277806*
X332345Y278144*
X333845Y280844D02*
X335345D01*
X334527Y279494*
X334936*
X335209Y279325*
X335345Y279156*
X335482Y278650*
Y278313*
X335482D02*
X335345Y277806D01*
X335073Y277469*
X334664Y277300*
X334255*
X333845Y277469*
X333709Y277638*
X333709D02*
X333573Y277975D01*
X348345Y279000D02*
X348209Y279338D01*
X348209D02*
X347936Y279675D01*
X347664Y279844*
X347118*
X346845Y279675*
X346573Y279338*
X346573D02*
X346436Y279000D01*
X346300Y278494*
Y277650*
X346436Y277144*
X346573Y276806*
X346845Y276469*
X347118Y276300*
X347664*
X347936Y276469*
X348209Y276806*
X348345Y277144*
X350936Y279844D02*
X349573Y277481D01*
X351618*
X350936Y279844D02*
Y276300D01*
X368345Y295000D02*
X368209Y295338D01*
X367936Y295675*
X367664Y295844*
X367118*
X366845Y295675*
X366573Y295338*
X366436Y295000*
X366300Y294494*
Y293650*
X366436Y293144*
X366573Y292806*
X366845Y292469*
X367118Y292300*
X367664*
X367936Y292469*
X368209Y292806*
X368345Y293144*
X371345Y295844D02*
X369982D01*
X369845Y294325*
X369982Y294494*
X370391Y294663*
X370800*
X371209Y294494*
X371482Y294156*
X371618Y293650*
X371482Y293313*
X371345Y292806*
X371073Y292469*
X370664Y292300*
X370255*
X369845Y292469*
X369709Y292638*
X369573Y292975*
X354345Y303000D02*
X354209Y303338D01*
X354209D02*
X353936Y303675D01*
X353664Y303844*
X353118*
X352845Y303675*
X352573Y303338*
X352573D02*
X352436Y303000D01*
X352300Y302494*
Y301650*
X352436Y301144*
X352573Y300806*
X352845Y300469*
X353118Y300300*
X353664*
X353936Y300469*
X354209Y300806*
X354345Y301144*
X357209Y303338D02*
X357073Y303675D01*
X356664Y303844*
X356391*
X355982Y303675*
X355709Y303169*
X355573Y302325*
Y301481*
X355709Y300806*
X355982Y300469*
X356391Y300300*
X356527*
X356936Y300469*
X357209Y300806*
X357345Y301313*
X357345D02*
Y301481D01*
X357209Y301988*
X357209D02*
X356936Y302325D01*
X356527Y302494*
X356391*
X355982Y302325*
X355709Y301988*
X355709D02*
X355573Y301481D01*
X328300Y287844D02*
Y284300D01*
Y287844D02*
X329527D01*
X329936Y287675*
X330073Y287506*
X330209Y287169*
Y286831*
X330073Y286494*
X329936Y286325*
X329527Y286156*
X328300*
X329255D02*
X330209Y284300D01*
X331436Y287169D02*
X331709Y287338D01*
X332118Y287844*
Y284300*
X351300Y285844D02*
Y282300D01*
Y285844D02*
X352527D01*
X352936Y285675*
X353073Y285506*
X353209Y285169*
Y284831*
X353073Y284494*
X352936Y284325*
X352527Y284156*
X351300*
X352255D02*
X353209Y282300D01*
X354573Y285000D02*
Y285169D01*
X354709Y285506*
X354845Y285675*
X355118Y285844*
X355664*
X355936Y285675*
X356073Y285506*
X356209Y285169*
Y284831*
X356073Y284494*
X355800Y283988*
X355800D02*
X354436Y282300D01*
X356345*
X322300Y309844D02*
Y306300D01*
Y309844D02*
X323527D01*
X323936Y309675*
X324073Y309506*
X324209Y309169*
Y308831*
X324073Y308494*
X323936Y308325*
X323527Y308156*
X322300*
X323255D02*
X324209Y306300D01*
X325709Y309844D02*
X327209D01*
X326391Y308494*
X326800*
X327073Y308325*
X327209Y308156*
X327345Y307650*
Y307313*
X327345D02*
X327209Y306806D01*
X326936Y306469*
X326527Y306300*
X326118*
X325709Y306469*
X325573Y306638*
X325573D02*
X325436Y306975D01*
X347300Y349844D02*
Y346300D01*
X348527Y349844D02*
Y346300D01*
Y349844D02*
X350436Y346300D01*
Y349844D02*
Y346300D01*
X351936Y349844D02*
X353436D01*
X352618Y348494*
X353027*
X353300Y348325*
X353436Y348156*
X353573Y347650*
Y347313*
X353573D02*
X353436Y346806D01*
X353164Y346469*
X352755Y346300*
X352345*
X351936Y346469*
X351800Y346638*
X351800D02*
X351664Y346975D01*
X338300Y349844D02*
Y346300D01*
X339527Y349844D02*
Y346300D01*
Y349844D02*
X341436Y346300D01*
Y349844D02*
Y346300D01*
X344027Y349844D02*
X342664Y347481D01*
X344709*
X344027Y349844D02*
Y346300D01*
X327300Y349844D02*
Y346300D01*
X328527Y349844D02*
Y346300D01*
Y349844D02*
X330436Y346300D01*
Y349844D02*
Y346300D01*
X333436Y349844D02*
X332073D01*
X331936Y348325*
X332073Y348494*
X332482Y348663*
X332482D02*
X332891D01*
X332891D02*
X333300Y348494D01*
X333573Y348156*
X333709Y347650*
X333573Y347313*
X333573D02*
X333436Y346806D01*
X333164Y346469*
X332755Y346300*
X332345*
X331936Y346469*
X331800Y346638*
X331800D02*
X331664Y346975D01*
X317300Y349844D02*
Y346300D01*
X318527Y349844D02*
Y346300D01*
Y349844D02*
X320436Y346300D01*
Y349844D02*
Y346300D01*
X323300Y349338D02*
X323164Y349675D01*
X322755Y349844*
X322482*
X322073Y349675*
X321800Y349169*
X321664Y348325*
Y347481*
X321800Y346806*
X322073Y346469*
X322482Y346300*
X322618*
X323027Y346469*
X323300Y346806*
X323436Y347313*
X323436D02*
Y347481D01*
X323300Y347988*
X323300D02*
X323027Y348325D01*
X322618Y348494*
X322482*
X322073Y348325*
X321800Y347988*
X321800D02*
X321664Y347481D01*
X300300Y328844D02*
Y325300D01*
X301527Y328844D02*
Y325300D01*
Y328844D02*
X303436Y325300D01*
Y328844D02*
Y325300D01*
X305618Y328844D02*
Y325300D01*
X304664Y328844D02*
X306573D01*
X307800D02*
Y325300D01*
Y328844D02*
X309027D01*
X309436Y328675*
X309573Y328506*
X309709Y328169*
Y327831*
X309573Y327494*
X309436Y327325*
X309027Y327156*
X307800*
X308755D02*
X309709Y325300D01*
X310209Y263338D02*
X309936Y263675D01*
X309527Y263844*
X308982*
X308573Y263675*
X308300Y263338*
X308300D02*
Y263000D01*
X308436Y262663*
X308436D02*
X308573Y262494D01*
X308845Y262325*
X309664Y261988*
X309664D02*
X309936Y261819D01*
X310073Y261650*
X310209Y261313*
X310209D02*
Y260806D01*
X309936Y260469*
X309527Y260300*
X308982*
X308573Y260469*
X308300Y260806*
X313482Y263000D02*
X313345Y263338D01*
X313345D02*
X313073Y263675D01*
X312800Y263844*
X312255*
X311982Y263675*
X311709Y263338*
X311709D02*
X311573Y263000D01*
X311436Y262494*
Y261650*
X311573Y261144*
X311709Y260806*
X311982Y260469*
X312255Y260300*
X312800*
X313073Y260469*
X313345Y260806*
X313482Y261144*
X314709Y263844D02*
Y260300D01*
X316345*
X368209Y283338D02*
X367936Y283675D01*
X367527Y283844*
X366982*
X366573Y283675*
X366300Y283338*
X366300D02*
Y283000D01*
X366436Y282663*
X366436D02*
X366573Y282494D01*
X366845Y282325*
X367664Y281988*
X367664D02*
X367936Y281819D01*
X368073Y281650*
X368209Y281313*
X368209D02*
Y280806D01*
X367936Y280469*
X367527Y280300*
X366982*
X366573Y280469*
X366300Y280806*
X369436Y283844D02*
Y280300D01*
Y283844D02*
X370391D01*
X370800Y283675*
X371073Y283338*
X371073D02*
X371209Y283000D01*
X371345Y282494*
Y281650*
X371209Y281144*
X371073Y280806*
X370800Y280469*
X370391Y280300*
X369436*
X373664Y283844D02*
X372573Y280300D01*
X373664Y283844D02*
X374755Y280300D01*
X372982Y281481D02*
X374345D01*
X355300Y328844D02*
X356391Y327156D01*
Y325300*
X357482Y328844D02*
X356391Y327156D01*
X358709Y328169D02*
X358982Y328337D01*
X358982D02*
X359391Y328844D01*
Y325300*
X367345Y319000D02*
X367209Y319338D01*
X367209D02*
X366936Y319675D01*
X366664Y319844*
X366118*
X365845Y319675*
X365573Y319338*
X365573D02*
X365436Y319000D01*
X365300Y318494*
Y317650*
X365436Y317144*
X365573Y316806*
X365845Y316469*
X366118Y316300*
X366664*
X366936Y316469*
X367209Y316806*
X367345Y317144*
X368573Y319844D02*
Y316300D01*
X370209*
X371436Y319844D02*
Y316300D01*
X373345Y319844D02*
X371436Y317481D01*
X372118Y318325D02*
X373345Y316300D01*
X375391Y319844D02*
X374982Y319675D01*
X374709Y319169*
X374573Y318325*
Y317819*
X374709Y316975*
X374982Y316469*
X375391Y316300*
X375664*
X376073Y316469*
X376345Y316975*
X376482Y317819*
Y318325*
X376345Y319169*
X376073Y319675*
X375664Y319844*
X375391*
X377709D02*
Y316300D01*
Y319844D02*
X378936D01*
X379345Y319675*
X379482Y319506*
X379618Y319169*
Y318831*
X379482Y318494*
X379345Y318325*
X378936Y318156*
X377709D02*
X378936D01*
X379345Y317988*
X379345D02*
X379482Y317819D01*
X379618Y317481*
Y316975*
X379482Y316638*
X379482D02*
X379345Y316469D01*
X378936Y316300*
X377709*
X367345Y325000D02*
X367209Y325338D01*
X367209D02*
X366936Y325675D01*
X366664Y325844*
X366118*
X365845Y325675*
X365573Y325338*
X365573D02*
X365436Y325000D01*
X365300Y324494*
Y323650*
X365436Y323144*
X365573Y322806*
X365845Y322469*
X366118Y322300*
X366664*
X366936Y322469*
X367209Y322806*
X367345Y323144*
X368573Y325844D02*
Y322300D01*
X370209*
X371436Y325844D02*
Y322300D01*
X373345Y325844D02*
X371436Y323481D01*
X372118Y324325D02*
X373345Y322300D01*
X375391Y325844D02*
X374982Y325675D01*
X374709Y325169*
X374573Y324325*
Y323819*
X374709Y322975*
X374982Y322469*
X375391Y322300*
X375664*
X376073Y322469*
X376345Y322975*
X376482Y323819*
Y324325*
X376345Y325169*
X376073Y325675*
X375664Y325844*
X375391*
X378800D02*
X377709Y322300D01*
X378800Y325844D02*
X379891Y322300D01*
X378118Y323481D02*
X379482D01*
X359000Y261655D02*
X359338Y261791D01*
X359675Y262064*
X359844Y262336*
Y262882*
X359675Y263155*
X359338Y263427*
X359000Y263564*
X358494Y263700*
X357650*
X357144Y263564*
X356806Y263427*
X356469Y263155*
X356300Y262882*
Y262336*
X356469Y262064*
X356806Y261791*
X357144Y261655*
X359844Y260427D02*
X356300D01*
Y258791*
X359844Y257564D02*
X356300D01*
X359844Y255655D02*
X357481Y257564D01*
X358325Y256882D02*
X356300Y255655D01*
X359169Y254427D02*
X359338Y254155D01*
X359844Y253745*
X356300*
X359844Y251427D02*
X356300Y252518D01*
X359844Y251427D02*
X356300Y250336D01*
X357481Y252109D02*
Y250745D01*
X354000Y261655D02*
X354338Y261791D01*
X354338D02*
X354675Y262064D01*
X354844Y262336*
Y262882*
X354675Y263155*
X354338Y263427*
X354338D02*
X354000Y263564D01*
X353494Y263700*
X352650*
X352144Y263564*
X351806Y263427*
X351469Y263155*
X351300Y262882*
Y262336*
X351469Y262064*
X351806Y261791*
X352144Y261655*
X354844Y260427D02*
X351300D01*
Y258791*
X354844Y257564D02*
X351300D01*
X354844Y255655D02*
X352481Y257564D01*
X353325Y256882D02*
X351300Y255655D01*
X354169Y254427D02*
X354338Y254155D01*
X354338D02*
X354844Y253745D01*
X351300*
X354844Y252518D02*
X351300D01*
X354844D02*
Y251291D01*
X354675Y250882*
X354506Y250745*
X354169Y250609*
X353831*
X353494Y250745*
X353325Y250882*
X353156Y251291*
Y252518D02*
Y251291D01*
X352988Y250882*
X352988D02*
X352819Y250745D01*
X352481Y250609*
X351975*
X351638Y250745*
X351638D02*
X351469Y250882D01*
X351300Y251291*
Y252518*
X330000Y261655D02*
X330338Y261791D01*
X330675Y262064*
X330844Y262336*
Y262882*
X330675Y263155*
X330338Y263427*
X330000Y263564*
X329494Y263700*
X328650*
X328144Y263564*
X327806Y263427*
X327469Y263155*
X327300Y262882*
Y262336*
X327469Y262064*
X327806Y261791*
X328144Y261655*
X330844Y260427D02*
X327300D01*
Y258791*
X330844Y257564D02*
X327300D01*
X330844Y255655D02*
X328481Y257564D01*
X329325Y256882D02*
X327300Y255655D01*
X330000Y254291D02*
X330169D01*
X330506Y254155*
X330675Y254018*
X330844Y253745*
Y253200*
X330675Y252927*
X330506Y252791*
X330169Y252655*
X329831*
X329494Y252791*
X328988Y253064*
X327300Y254427*
Y252518*
X330844Y250200D02*
X327300Y251291D01*
X330844Y250200D02*
X327300Y249109D01*
X328481Y250882D02*
Y249518D01*
X323000Y261655D02*
X323338Y261791D01*
X323338D02*
X323675Y262064D01*
X323844Y262336*
Y262882*
X323675Y263155*
X323338Y263427*
X323338D02*
X323000Y263564D01*
X322494Y263700*
X321650*
X321144Y263564*
X320806Y263427*
X320469Y263155*
X320300Y262882*
Y262336*
X320469Y262064*
X320806Y261791*
X321144Y261655*
X323844Y260427D02*
X320300D01*
Y258791*
X323844Y257564D02*
X320300D01*
X323844Y255655D02*
X321481Y257564D01*
X322325Y256882D02*
X320300Y255655D01*
X323000Y254291D02*
X323169D01*
X323506Y254155*
X323675Y254018*
X323844Y253745*
Y253200*
X323675Y252927*
X323506Y252791*
X323169Y252655*
X322831*
X322494Y252791*
X321988Y253064*
X321988D02*
X320300Y254427D01*
Y252518*
X323844Y251291D02*
X320300D01*
X323844D02*
Y250064D01*
X323675Y249655*
X323506Y249518*
X323169Y249382*
X322831*
X322494Y249518*
X322325Y249655*
X322156Y250064*
Y251291D02*
Y250064D01*
X321988Y249655*
X321988D02*
X321819Y249518D01*
X321481Y249382*
X320975*
X320638Y249518*
X320638D02*
X320469Y249655D01*
X320300Y250064*
Y251291*
X299345Y270000D02*
X299209Y270338D01*
X299209D02*
X298936Y270675D01*
X298664Y270844*
X298118*
X297845Y270675*
X297573Y270338*
X297573D02*
X297436Y270000D01*
X297300Y269494*
Y268650*
X297436Y268144*
X297573Y267806*
X297845Y267469*
X298118Y267300*
X298664*
X298936Y267469*
X299209Y267806*
X299345Y268144*
X300573Y270844D02*
Y267300D01*
X302209*
X303436Y270844D02*
Y267300D01*
X305345Y270844D02*
X303436Y268481D01*
X304118Y269325D02*
X305345Y267300D01*
X306845Y270844D02*
X308345D01*
X307527Y269494*
X307936*
X308209Y269325*
X308345Y269156*
X308482Y268650*
Y268313*
X308482D02*
X308345Y267806D01*
X308073Y267469*
X307664Y267300*
X307255*
X306845Y267469*
X306709Y267638*
X306709D02*
X306573Y267975D01*
X310800Y270844D02*
X309709Y267300D01*
X310800Y270844D02*
X311891Y267300D01*
X310118Y268481D02*
X311482D01*
X299345Y275000D02*
X299209Y275338D01*
X299209D02*
X298936Y275675D01*
X298664Y275844*
X298118*
X297845Y275675*
X297573Y275338*
X297573D02*
X297436Y275000D01*
X297300Y274494*
Y273650*
X297436Y273144*
X297573Y272806*
X297845Y272469*
X298118Y272300*
X298664*
X298936Y272469*
X299209Y272806*
X299345Y273144*
X300573Y275844D02*
Y272300D01*
X302209*
X303436Y275844D02*
Y272300D01*
X305345Y275844D02*
X303436Y273481D01*
X304118Y274325D02*
X305345Y272300D01*
X306845Y275844D02*
X308345D01*
X307527Y274494*
X307936*
X308209Y274325*
X308345Y274156*
X308482Y273650*
Y273313*
X308482D02*
X308345Y272806D01*
X308073Y272469*
X307664Y272300*
X307255*
X306845Y272469*
X306709Y272638*
X306709D02*
X306573Y272975D01*
X309709Y275844D02*
Y272300D01*
Y275844D02*
X310936D01*
X311345Y275675*
X311482Y275506*
X311618Y275169*
Y274831*
X311482Y274494*
X311345Y274325*
X310936Y274156*
X309709D02*
X310936D01*
X311345Y273988*
X311345D02*
X311482Y273819D01*
X311618Y273481*
Y272975*
X311482Y272638*
X311482D02*
X311345Y272469D01*
X310936Y272300*
X309709*
X294664Y284844D02*
Y282144D01*
X294527Y281638*
X294527D02*
X294391Y281469D01*
X294118Y281300*
X293845*
X293573Y281469*
X293436Y281638*
X293436D02*
X293300Y282144D01*
Y282481*
X295891Y284169D02*
X296164Y284338D01*
X296164D02*
X296573Y284844D01*
Y281300*
X299436Y284338D02*
X299300Y284675D01*
X298891Y284844*
X298618*
X298209Y284675*
X297936Y284169*
X297800Y283325*
Y282481*
X297936Y281806*
X298209Y281469*
X298618Y281300*
X298755*
X299164Y281469*
X299436Y281806*
X299573Y282313*
X299573D02*
Y282481D01*
X299436Y282988*
X299436D02*
X299164Y283325D01*
X298755Y283494*
X298618*
X298209Y283325*
X297936Y282988*
X297936D02*
X297800Y282481D01*
X369345Y348000D02*
X369209Y348337D01*
X369209D02*
X368936Y348675D01*
X368664Y348844*
X368118*
X367845Y348675*
X367573Y348337*
X367573D02*
X367436Y348000D01*
X367300Y347494*
Y346650*
X367436Y346144*
X367573Y345806*
X367845Y345469*
X368118Y345300*
X368664*
X368936Y345469*
X369209Y345806*
X369345Y346144*
Y346650*
X368664D02*
X369345D01*
X370573Y348844D02*
Y345300D01*
Y348844D02*
X372482Y345300D01*
Y348844D02*
Y345300D01*
X373709Y348844D02*
Y345300D01*
Y348844D02*
X374664D01*
X375073Y348675*
X375345Y348337*
X375345D02*
X375482Y348000D01*
X375618Y347494*
Y346650*
X375482Y346144*
X375345Y345806*
X375073Y345469*
X374664Y345300*
X373709*
X356573Y348844D02*
X358073D01*
X357255Y347494*
X357664*
X357936Y347325*
X358073Y347156*
X358209Y346650*
Y346312*
X358209D02*
X358073Y345806D01*
X357800Y345469*
X357391Y345300*
X356982*
X356573Y345469*
X356436Y345637*
X356436D02*
X356300Y345975D01*
X359436Y348844D02*
X360527Y345300D01*
X361618Y348844D02*
X360527Y345300D01*
X363118Y348844D02*
X364618D01*
X363800Y347494*
X364209*
X364482Y347325*
X364618Y347156*
X364755Y346650*
Y346312*
X364755D02*
X364618Y345806D01*
X364345Y345469*
X363936Y345300*
X363527*
X363118Y345469*
X362982Y345637*
X362982D02*
X362845Y345975D01*
X373300Y335844D02*
Y333313D01*
X373300D02*
X373436Y332806D01*
X373709Y332469*
X374118Y332300*
X374391*
X374800Y332469*
X375073Y332806*
X375209Y333313*
X375209D02*
Y335844D01*
X376573Y335000D02*
Y335169D01*
X376709Y335506*
X376845Y335675*
X377118Y335844*
X377664*
X377936Y335675*
X378073Y335506*
X378209Y335169*
Y334831*
X378073Y334494*
X377800Y333988*
X377800D02*
X376436Y332300D01*
X378345*
X376300Y301844D02*
Y299313D01*
X376300D02*
X376436Y298806D01*
X376709Y298469*
X377118Y298300*
X377391*
X377800Y298469*
X378073Y298806*
X378209Y299313*
X378209D02*
Y301844D01*
X379709D02*
X381209D01*
X380391Y300494*
X380800*
X381073Y300325*
X381209Y300156*
X381345Y299650*
Y299313*
X381345D02*
X381209Y298806D01*
X380936Y298469*
X380527Y298300*
X380118*
X379709Y298469*
X379573Y298638*
X379573D02*
X379436Y298975D01*
X416345Y340000D02*
X416209Y340338D01*
X416209D02*
X415936Y340675D01*
X415664Y340844*
X415118*
X414845Y340675*
X414573Y340338*
X414573D02*
X414436Y340000D01*
X414300Y339494*
Y338650*
X414436Y338144*
X414573Y337806*
X414845Y337469*
X415118Y337300*
X415664*
X415936Y337469*
X416209Y337806*
X416345Y338144*
X419482Y340844D02*
X418118Y337300D01*
X417573Y340844D02*
X419482D01*
X415345Y316000D02*
X415209Y316338D01*
X415209D02*
X414936Y316675D01*
X414664Y316844*
X414118*
X413845Y316675*
X413573Y316338*
X413573D02*
X413436Y316000D01*
X413300Y315494*
Y314650*
X413436Y314144*
X413573Y313806*
X413845Y313469*
X414118Y313300*
X414664*
X414936Y313469*
X415209Y313806*
X415345Y314144*
X417255Y316844D02*
X416845Y316675D01*
X416709Y316338*
X416709D02*
Y316000D01*
X416845Y315663*
X416845D02*
X417118Y315494D01*
X417664Y315325*
X418073Y315156*
X418345Y314819*
X418482Y314481*
Y313975*
X418345Y313638*
X418345D02*
X418209Y313469D01*
X417800Y313300*
X417255*
X416845Y313469*
X416709Y313638*
X416709D02*
X416573Y313975D01*
Y314481*
X416709Y314819*
X416982Y315156*
X417391Y315325*
X417936Y315494*
X418209Y315663*
X418209D02*
X418345Y316000D01*
Y316338*
X418345D02*
X418209Y316675D01*
X417800Y316844*
X417255*
X413300Y284844D02*
Y281300D01*
X414936*
X416982Y284844D02*
X416709Y284675D01*
X416436Y284338*
X416436D02*
X416300Y284000D01*
X416164Y283494*
Y282650*
X416300Y282144*
X416436Y281806*
X416709Y281469*
X416982Y281300*
X417527*
X417800Y281469*
X418073Y281806*
X418209Y282144*
X418345Y282650*
Y283494*
X418209Y284000*
X418073Y284338*
X418073D02*
X417800Y284675D01*
X417527Y284844*
X416982*
X419573Y280625D02*
X422436D01*
X424073Y284844D02*
X423664Y284675D01*
X423391Y284169*
X423255Y283325*
Y282819*
X423391Y281975*
X423664Y281469*
X424073Y281300*
X424345*
X424755Y281469*
X425027Y281975*
X425164Y282819*
Y283325*
X425027Y284169*
X424755Y284675*
X424345Y284844*
X424073*
X409300Y279844D02*
Y276300D01*
X410936*
X412982Y279844D02*
X412709Y279675D01*
X412436Y279338*
X412436D02*
X412300Y279000D01*
X412164Y278494*
Y277650*
X412300Y277144*
X412436Y276806*
X412709Y276469*
X412982Y276300*
X413527*
X413800Y276469*
X414073Y276806*
X414209Y277144*
X414345Y277650*
Y278494*
X414209Y279000*
X414073Y279338*
X414073D02*
X413800Y279675D01*
X413527Y279844*
X412982*
X415573Y275625D02*
X418436D01*
X419255Y279169D02*
X419527Y279338D01*
X419527D02*
X419936Y279844D01*
Y276300*
X421845Y279844D02*
X421436Y279675D01*
X421300Y279338*
X421300D02*
Y279000D01*
X421436Y278663*
X421436D02*
X421709Y278494D01*
X422255Y278325*
X422664Y278156*
X422936Y277819*
X423073Y277481*
Y276975*
X422936Y276638*
X422936D02*
X422800Y276469D01*
X422391Y276300*
X421845*
X421436Y276469*
X421300Y276638*
X421300D02*
X421164Y276975D01*
Y277481*
X421300Y277819*
X421573Y278156*
X421982Y278325*
X422527Y278494*
X422800Y278663*
X422800D02*
X422936Y279000D01*
Y279338*
X422936D02*
X422800Y279675D01*
X422391Y279844*
X421845*
X425118D02*
X424709Y279675D01*
X424436Y279169*
X424300Y278325*
Y277819*
X424436Y276975*
X424709Y276469*
X425118Y276300*
X425391*
X425800Y276469*
X426073Y276975*
X426209Y277819*
Y278325*
X426073Y279169*
X425800Y279675*
X425391Y279844*
X425118*
X410300Y274844D02*
Y271300D01*
X411936*
X413982Y274844D02*
X413709Y274675D01*
X413436Y274338*
X413436D02*
X413300Y274000D01*
X413164Y273494*
Y272650*
X413300Y272144*
X413436Y271806*
X413709Y271469*
X413982Y271300*
X414527*
X414800Y271469*
X415073Y271806*
X415209Y272144*
X415345Y272650*
Y273494*
X415209Y274000*
X415073Y274338*
X415073D02*
X414800Y274675D01*
X414527Y274844*
X413982*
X416573Y270625D02*
X419436D01*
X422027Y273663D02*
X421891Y273156D01*
X421618Y272819*
X421209Y272650*
X421073*
X420664Y272819*
X420391Y273156*
X420255Y273663*
X420255D02*
Y273831D01*
X420391Y274338*
X420391D02*
X420664Y274675D01*
X421073Y274844*
X421209*
X421618Y274675*
X421891Y274338*
X421891D02*
X422027Y273663D01*
X422027D02*
Y272819D01*
X421891Y271975*
X421618Y271469*
X421209Y271300*
X420936*
X420527Y271469*
X420391Y271806*
X424073Y274844D02*
X423664Y274675D01*
X423391Y274169*
X423255Y273325*
Y272819*
X423391Y271975*
X423664Y271469*
X424073Y271300*
X424345*
X424755Y271469*
X425027Y271975*
X425164Y272819*
Y273325*
X425027Y274169*
X424755Y274675*
X424345Y274844*
X424073*
X409300Y269844D02*
Y266300D01*
X410936*
X412982Y269844D02*
X412709Y269675D01*
X412436Y269338*
X412436D02*
X412300Y269000D01*
X412164Y268494*
Y267650*
X412300Y267144*
X412436Y266806*
X412709Y266469*
X412982Y266300*
X413527*
X413800Y266469*
X414073Y266806*
X414209Y267144*
X414345Y267650*
Y268494*
X414209Y269000*
X414073Y269338*
X414073D02*
X413800Y269675D01*
X413527Y269844*
X412982*
X415573Y265625D02*
X418436D01*
X419391Y269000D02*
Y269169D01*
X419527Y269506*
X419664Y269675*
X419936Y269844*
X420482*
X420755Y269675*
X420891Y269506*
X421027Y269169*
Y268831*
X420891Y268494*
X420618Y267988*
X420618D02*
X419255Y266300D01*
X421164*
X424300Y269844D02*
X422936Y266300D01*
X422391Y269844D02*
X424300D01*
X426345D02*
X425936Y269675D01*
X425664Y269169*
X425527Y268325*
Y267819*
X425664Y266975*
X425936Y266469*
X426345Y266300*
X426618*
X427027Y266469*
X427300Y266975*
X427436Y267819*
Y268325*
X427300Y269169*
X427027Y269675*
X426618Y269844*
X426345*
X309345Y180000D02*
X309209Y180338D01*
X309209D02*
X308936Y180675D01*
X308664Y180844*
X308118*
X307845Y180675*
X307573Y180338*
X307573D02*
X307436Y180000D01*
X307300Y179494*
Y178650*
X307436Y178144*
X307573Y177806*
X307845Y177469*
X308118Y177300*
X308664*
X308936Y177469*
X309209Y177806*
X309345Y178144*
X310709Y180000D02*
Y180169D01*
X310845Y180506*
X310982Y180675*
X311255Y180844*
X311800*
X312073Y180675*
X312209Y180506*
X312345Y180169*
Y179831*
X312209Y179494*
X311936Y178988*
X311936D02*
X310573Y177300D01*
X312482*
X313982Y180844D02*
X315482D01*
X314664Y179494*
X315073*
X315345Y179325*
X315482Y179156*
X315618Y178650*
Y178313*
X315618D02*
X315482Y177806D01*
X315209Y177469*
X314800Y177300*
X314391*
X313982Y177469*
X313845Y177638*
X313845D02*
X313709Y177975D01*
X393345Y146000D02*
X393209Y146338D01*
X393209D02*
X392936Y146675D01*
X392664Y146844*
X392118*
X391845Y146675*
X391573Y146338*
X391573D02*
X391436Y146000D01*
X391300Y145494*
Y144650*
X391436Y144144*
X391573Y143806*
X391845Y143469*
X392118Y143300*
X392664*
X392936Y143469*
X393209Y143806*
X393345Y144144*
Y144650*
X392664D02*
X393345D01*
X394573Y146844D02*
Y143300D01*
Y146844D02*
X396482Y143300D01*
Y146844D02*
Y143300D01*
X397709Y146844D02*
Y143300D01*
Y146844D02*
X398664D01*
X399073Y146675*
X399345Y146338*
X399345D02*
X399482Y146000D01*
X399618Y145494*
Y144650*
X399482Y144144*
X399345Y143806*
X399073Y143469*
X398664Y143300*
X397709*
X400982Y146000D02*
Y146169D01*
X401118Y146506*
X401255Y146675*
X401527Y146844*
X402073*
X402345Y146675*
X402482Y146506*
X402618Y146169*
Y145831*
X402482Y145494*
X402209Y144988*
X402209D02*
X400845Y143300D01*
X402755*
X420345Y325000D02*
X420209Y325338D01*
X420209D02*
X419936Y325675D01*
X419664Y325844*
X419118*
X418845Y325675*
X418573Y325338*
X418573D02*
X418436Y325000D01*
X418300Y324494*
Y323650*
X418436Y323144*
X418573Y322806*
X418845Y322469*
X419118Y322300*
X419664*
X419936Y322469*
X420209Y322806*
X420345Y323144*
X421709Y325000D02*
Y325169D01*
X421845Y325506*
X421982Y325675*
X422255Y325844*
X422800*
X423073Y325675*
X423209Y325506*
X423345Y325169*
Y324831*
X423209Y324494*
X422936Y323988*
X422936D02*
X421573Y322300D01*
X423482*
X426073Y325844D02*
X424709Y323481D01*
X426755*
X426073Y325844D02*
Y322300D01*
X296391Y159844D02*
X295300Y156300D01*
X296391Y159844D02*
X297482Y156300D01*
X295709Y157481D02*
X297073D01*
X298709Y159844D02*
Y156300D01*
Y159844D02*
X299800Y156300D01*
X300891Y159844D02*
X299800Y156300D01*
X300891Y159844D02*
Y156300D01*
X302118Y159844D02*
Y156300D01*
Y159844D02*
X303345D01*
X303755Y159675*
X303891Y159506*
X304027Y159169*
Y158663*
X304027D02*
X303891Y158325D01*
X303755Y158156*
X303345Y157988*
X303345D02*
X302118D01*
X305255Y155625D02*
X308118D01*
X309755Y159844D02*
X309482Y159675D01*
X309209Y159338*
X309209D02*
X309073Y159000D01*
X308936Y158494*
Y157650*
X309073Y157144*
X309209Y156806*
X309482Y156469*
X309755Y156300*
X310300*
X310573Y156469*
X310845Y156806*
X310982Y157144*
X311118Y157650*
Y158494*
X310982Y159000*
X310845Y159338*
X310845D02*
X310573Y159675D01*
X310300Y159844*
X309755*
X312345D02*
Y157313D01*
X312345D02*
X312482Y156806D01*
X312755Y156469*
X313164Y156300*
X313436*
X313845Y156469*
X314118Y156806*
X314255Y157313*
X314255D02*
Y159844D01*
X316436D02*
Y156300D01*
X315482Y159844D02*
X317391D01*
X391300Y156844D02*
Y153300D01*
Y156844D02*
X392527D01*
X392936Y156675*
X393073Y156506*
X393209Y156169*
Y155663*
X393209D02*
X393073Y155325D01*
X392936Y155156*
X392527Y154988*
X392527D02*
X391300D01*
X395255Y156844D02*
X394982Y156675D01*
X394709Y156338*
X394709D02*
X394573Y156000D01*
X394436Y155494*
Y154650*
X394573Y154144*
X394709Y153806*
X394982Y153469*
X395255Y153300*
X395800*
X396073Y153469*
X396345Y153806*
X396482Y154144*
X396618Y154650*
Y155494*
X396482Y156000*
X396345Y156338*
X396345D02*
X396073Y156675D01*
X395800Y156844*
X395255*
X397845D02*
X398527Y153300D01*
X399209Y156844D02*
X398527Y153300D01*
X399209Y156844D02*
X399891Y153300D01*
X400573Y156844D02*
X399891Y153300D01*
X401800Y156844D02*
Y153300D01*
Y156844D02*
X403573D01*
X401800Y155156D02*
X402891D01*
X401800Y153300D02*
X403573D01*
X404800Y156844D02*
Y153300D01*
Y156844D02*
X406027D01*
X406436Y156675*
X406573Y156506*
X406709Y156169*
Y155831*
X406573Y155494*
X406436Y155325*
X406027Y155156*
X404800*
X405755D02*
X406709Y153300D01*
X317300Y193844D02*
Y191313D01*
X317300D02*
X317436Y190806D01*
X317709Y190469*
X318118Y190300*
X318391*
X318800Y190469*
X319073Y190806*
X319209Y191313*
X319209D02*
Y193844D01*
X321800D02*
X320436Y191481D01*
X322482*
X321800Y193844D02*
Y190300D01*
X318300Y157844D02*
Y155312D01*
X318300D02*
X318436Y154806D01*
X318709Y154469*
X319118Y154300*
X319391*
X319800Y154469*
X320073Y154806*
X320209Y155312*
X320209D02*
Y157844D01*
X323209D02*
X321845D01*
X321709Y156325*
X321845Y156494*
X322255Y156662*
X322255D02*
X322664D01*
X322664D02*
X323073Y156494D01*
X323345Y156156*
X323482Y155650*
X323345Y155312*
X323345D02*
X323209Y154806D01*
X322936Y154469*
X322527Y154300*
X322118*
X321709Y154469*
X321573Y154637*
X321573D02*
X321436Y154975D01*
X318345Y172000D02*
X318209Y172338D01*
X318209D02*
X317936Y172675D01*
X317664Y172844*
X317118*
X316845Y172675*
X316573Y172338*
X316573D02*
X316436Y172000D01*
X316300Y171494*
Y170650*
X316436Y170144*
X316573Y169806*
X316845Y169469*
X317118Y169300*
X317664*
X317936Y169469*
X318209Y169806*
X318345Y170144*
X321345Y171663D02*
X321209Y171156D01*
X320936Y170819*
X320527Y170650*
X320391*
X319982Y170819*
X319709Y171156*
X319573Y171663*
X319573D02*
Y171831D01*
X319709Y172338*
X319709D02*
X319982Y172675D01*
X320391Y172844*
X320527*
X320936Y172675*
X321209Y172338*
X321209D02*
X321345Y171663D01*
X321345D02*
Y170819D01*
X321209Y169975*
X320936Y169469*
X320527Y169300*
X320255*
X319845Y169469*
X319709Y169806*
X315345Y146000D02*
X315209Y146338D01*
X315209D02*
X314936Y146675D01*
X314664Y146844*
X314118*
X313845Y146675*
X313573Y146338*
X313573D02*
X313436Y146000D01*
X313300Y145494*
Y144650*
X313436Y144144*
X313573Y143806*
X313845Y143469*
X314118Y143300*
X314664*
X314936Y143469*
X315209Y143806*
X315345Y144144*
X316573Y146169D02*
X316845Y146338D01*
X316845D02*
X317255Y146844D01*
Y143300*
X319300Y146844D02*
X318891Y146675D01*
X318618Y146169*
X318482Y145325*
Y144819*
X318618Y143975*
X318891Y143469*
X319300Y143300*
X319573*
X319982Y143469*
X320255Y143975*
X320391Y144819*
Y145325*
X320255Y146169*
X319982Y146675*
X319573Y146844*
X319300*
X322345Y216000D02*
X322209Y216338D01*
X322209D02*
X321936Y216675D01*
X321664Y216844*
X321118*
X320845Y216675*
X320573Y216338*
X320573D02*
X320436Y216000D01*
X320300Y215494*
Y214650*
X320436Y214144*
X320573Y213806*
X320845Y213469*
X321118Y213300*
X321664*
X321936Y213469*
X322209Y213806*
X322345Y214144*
X323573Y216169D02*
X323845Y216338D01*
X323845D02*
X324255Y216844D01*
Y213300*
X325482Y216169D02*
X325755Y216338D01*
X325755D02*
X326164Y216844D01*
Y213300*
X305391Y228844D02*
X304300Y225300D01*
X305391Y228844D02*
X306482Y225300D01*
X304709Y226481D02*
X306073D01*
X307709Y228844D02*
Y225300D01*
Y228844D02*
X308800Y225300D01*
X309891Y228844D02*
X308800Y225300D01*
X309891Y228844D02*
Y225300D01*
X311118Y228844D02*
Y225300D01*
Y228844D02*
X312345D01*
X312755Y228675*
X312891Y228506*
X313027Y228169*
Y227663*
X313027D02*
X312891Y227325D01*
X312755Y227156*
X312345Y226988*
X312345D02*
X311118D01*
X314255Y224625D02*
X317118D01*
X317936Y228844D02*
Y225300D01*
X319164Y228844D02*
Y225300D01*
Y228844D02*
X321073Y225300D01*
Y228844D02*
Y225300D01*
X415345Y301000D02*
X415209Y301338D01*
X415209D02*
X414936Y301675D01*
X414664Y301844*
X414118*
X413845Y301675*
X413573Y301338*
X413573D02*
X413436Y301000D01*
X413300Y300494*
Y299650*
X413436Y299144*
X413573Y298806*
X413845Y298469*
X414118Y298300*
X414664*
X414936Y298469*
X415209Y298806*
X415345Y299144*
X416709Y301000D02*
Y301169D01*
X416845Y301506*
X416982Y301675*
X417255Y301844*
X417800*
X418073Y301675*
X418209Y301506*
X418345Y301169*
Y300831*
X418209Y300494*
X417936Y299988*
X417936D02*
X416573Y298300D01*
X418482*
X421482Y301844D02*
X420118D01*
X419982Y300325*
X420118Y300494*
X420527Y300663*
X420527D02*
X420936D01*
X420936D02*
X421345Y300494D01*
X421618Y300156*
X421755Y299650*
X421618Y299313*
X421618D02*
X421482Y298806D01*
X421209Y298469*
X420800Y298300*
X420391*
X419982Y298469*
X419845Y298638*
X419845D02*
X419709Y298975D01*
X348345Y163000D02*
X348209Y163338D01*
X348209D02*
X347936Y163675D01*
X347664Y163844*
X347118*
X346845Y163675*
X346573Y163338*
X346573D02*
X346436Y163000D01*
X346300Y162494*
Y161650*
X346436Y161144*
X346573Y160806*
X346845Y160469*
X347118Y160300*
X347664*
X347936Y160469*
X348209Y160806*
X348345Y161144*
X349573Y163169D02*
X349845Y163338D01*
X349845D02*
X350255Y163844D01*
Y160300*
X351618Y163000D02*
Y163169D01*
X351755Y163506*
X351891Y163675*
X352164Y163844*
X352709*
X352982Y163675*
X353118Y163506*
X353255Y163169*
Y162831*
X353118Y162494*
X352845Y161988*
X352845D02*
X351482Y160300D01*
X353391*
X340345Y117000D02*
X340209Y117338D01*
X340209D02*
X339936Y117675D01*
X339664Y117844*
X339118*
X338845Y117675*
X338573Y117338*
X338573D02*
X338436Y117000D01*
X338300Y116494*
Y115650*
X338436Y115144*
X338573Y114806*
X338845Y114469*
X339118Y114300*
X339664*
X339936Y114469*
X340209Y114806*
X340345Y115144*
X341573Y117169D02*
X341845Y117338D01*
X341845D02*
X342255Y117844D01*
Y114300*
X343755Y117844D02*
X345255D01*
X344436Y116494*
X344845*
X345118Y116325*
X345255Y116156*
X345391Y115650*
Y115313*
X345391D02*
X345255Y114806D01*
X344982Y114469*
X344573Y114300*
X344164*
X343755Y114469*
X343618Y114638*
X343618D02*
X343482Y114975D01*
X358345Y163000D02*
X358209Y163338D01*
X358209D02*
X357936Y163675D01*
X357664Y163844*
X357118*
X356845Y163675*
X356573Y163338*
X356573D02*
X356436Y163000D01*
X356300Y162494*
Y161650*
X356436Y161144*
X356573Y160806*
X356845Y160469*
X357118Y160300*
X357664*
X357936Y160469*
X358209Y160806*
X358345Y161144*
X359573Y163169D02*
X359845Y163338D01*
X359845D02*
X360255Y163844D01*
Y160300*
X362845Y163844D02*
X361482Y161481D01*
X363527*
X362845Y163844D02*
Y160300D01*
X351345Y117000D02*
X351209Y117338D01*
X351209D02*
X350936Y117675D01*
X350664Y117844*
X350118*
X349845Y117675*
X349573Y117338*
X349573D02*
X349436Y117000D01*
X349300Y116494*
Y115650*
X349436Y115144*
X349573Y114806*
X349845Y114469*
X350118Y114300*
X350664*
X350936Y114469*
X351209Y114806*
X351345Y115144*
X352573Y117169D02*
X352845Y117338D01*
X352845D02*
X353255Y117844D01*
Y114300*
X356255Y117844D02*
X354891D01*
X354755Y116325*
X354891Y116494*
X355300Y116663*
X355300D02*
X355709D01*
X355709D02*
X356118Y116494D01*
X356391Y116156*
X356527Y115650*
X356391Y115313*
X356391D02*
X356255Y114806D01*
X355982Y114469*
X355573Y114300*
X355164*
X354755Y114469*
X354618Y114638*
X354618D02*
X354482Y114975D01*
X370345Y163000D02*
X370209Y163338D01*
X370209D02*
X369936Y163675D01*
X369664Y163844*
X369118*
X368845Y163675*
X368573Y163338*
X368573D02*
X368436Y163000D01*
X368300Y162494*
Y161650*
X368436Y161144*
X368573Y160806*
X368845Y160469*
X369118Y160300*
X369664*
X369936Y160469*
X370209Y160806*
X370345Y161144*
X371573Y163169D02*
X371845Y163338D01*
X371845D02*
X372255Y163844D01*
Y160300*
X375118Y163338D02*
X374982Y163675D01*
X374573Y163844*
X374300*
X373891Y163675*
X373618Y163169*
X373482Y162325*
Y161481*
X373618Y160806*
X373891Y160469*
X374300Y160300*
X374436*
X374845Y160469*
X375118Y160806*
X375255Y161313*
X375255D02*
Y161481D01*
X375118Y161988*
X375118D02*
X374845Y162325D01*
X374436Y162494*
X374300*
X373891Y162325*
X373618Y161988*
X373618D02*
X373482Y161481D01*
X361345Y117000D02*
X361209Y117338D01*
X361209D02*
X360936Y117675D01*
X360664Y117844*
X360118*
X359845Y117675*
X359573Y117338*
X359573D02*
X359436Y117000D01*
X359300Y116494*
Y115650*
X359436Y115144*
X359573Y114806*
X359845Y114469*
X360118Y114300*
X360664*
X360936Y114469*
X361209Y114806*
X361345Y115144*
X362573Y117169D02*
X362845Y117338D01*
X362845D02*
X363255Y117844D01*
Y114300*
X366391Y117844D02*
X365027Y114300D01*
X364482Y117844D02*
X366391D01*
X387300Y174844D02*
Y171300D01*
Y174844D02*
X388527D01*
X388936Y174675*
X389073Y174506*
X389209Y174169*
Y173831*
X389073Y173494*
X388936Y173325*
X388527Y173156*
X387300*
X388255D02*
X389209Y171300D01*
X392209Y174844D02*
X390845D01*
X390709Y173325*
X390845Y173494*
X391255Y173663*
X391255D02*
X391664D01*
X391664D02*
X392073Y173494D01*
X392345Y173156*
X392482Y172650*
X392345Y172313*
X392345D02*
X392209Y171806D01*
X391936Y171469*
X391527Y171300*
X391118*
X390709Y171469*
X390573Y171638*
X390573D02*
X390436Y171975D01*
X381300Y129844D02*
Y126300D01*
Y129844D02*
X382527D01*
X382936Y129675*
X383073Y129506*
X383209Y129169*
Y128831*
X383073Y128494*
X382936Y128325*
X382527Y128156*
X381300*
X382255D02*
X383209Y126300D01*
X386073Y129338D02*
X385936Y129675D01*
X385527Y129844*
X385255*
X384845Y129675*
X384573Y129169*
X384436Y128325*
Y127481*
X384573Y126806*
X384845Y126469*
X385255Y126300*
X385391*
X385800Y126469*
X386073Y126806*
X386209Y127313*
X386209D02*
Y127481D01*
X386073Y127988*
X386073D02*
X385800Y128325D01*
X385391Y128494*
X385255*
X384845Y128325*
X384573Y127988*
X384573D02*
X384436Y127481D01*
X343300Y184844D02*
Y181300D01*
X344936*
X346164Y184169D02*
X346436Y184338D01*
X346436D02*
X346845Y184844D01*
Y181300*
X324300Y124844D02*
Y121300D01*
X325936*
X327300Y124000D02*
Y124169D01*
X327436Y124506*
X327573Y124675*
X327845Y124844*
X328391*
X328664Y124675*
X328800Y124506*
X328936Y124169*
Y123831*
X328800Y123494*
X328527Y122988*
X328527D02*
X327164Y121300D01*
X329073*
X393300Y259844D02*
Y256300D01*
X395345Y259844D02*
X395073Y259675D01*
X394800Y259338*
X394800D02*
X394664Y259000D01*
X394527Y258494*
Y257650*
X394664Y257144*
X394800Y256806*
X395073Y256469*
X395345Y256300*
X395891*
X396164Y256469*
X396436Y256806*
X396573Y257144*
X396709Y257650*
Y258494*
X396573Y259000*
X396436Y259338*
X396436D02*
X396164Y259675D01*
X395891Y259844*
X395345*
X395755Y256975D02*
X396573Y255962D01*
X397936Y259844D02*
Y256300D01*
Y259844D02*
X399845Y256300D01*
Y259844D02*
Y256300D01*
X383300Y259844D02*
Y256300D01*
X385345Y259844D02*
X385073Y259675D01*
X384800Y259338*
X384800D02*
X384664Y259000D01*
X384527Y258494*
Y257650*
X384664Y257144*
X384800Y256806*
X385073Y256469*
X385345Y256300*
X385891*
X386164Y256469*
X386436Y256806*
X386573Y257144*
X386709Y257650*
Y258494*
X386573Y259000*
X386436Y259338*
X386436D02*
X386164Y259675D01*
X385891Y259844*
X385345*
X385755Y256975D02*
X386573Y255962D01*
X387936Y259844D02*
Y256300D01*
Y259844D02*
X389164D01*
X389573Y259675*
X389709Y259506*
X389845Y259169*
Y258663*
X389845D02*
X389709Y258325D01*
X389573Y258156*
X389164Y257988*
X389164D02*
X387936D01*
X364118Y222844D02*
X363845Y222675D01*
X363573Y222338*
X363573D02*
X363436Y222000D01*
X363300Y221494*
Y220650*
X363436Y220144*
X363573Y219806*
X363845Y219469*
X364118Y219300*
X364664*
X364936Y219469*
X365209Y219806*
X365345Y220144*
X365482Y220650*
Y221494*
X365345Y222000*
X365209Y222338*
X365209D02*
X364936Y222675D01*
X364664Y222844*
X364118*
X367527D02*
X367255Y222675D01*
X366982Y222338*
X366982D02*
X366845Y222000D01*
X366709Y221494*
Y220650*
X366845Y220144*
X366982Y219806*
X367255Y219469*
X367527Y219300*
X368073*
X368345Y219469*
X368618Y219806*
X368755Y220144*
X368891Y220650*
Y221494*
X368755Y222000*
X368618Y222338*
X368618D02*
X368345Y222675D01*
X368073Y222844*
X367527*
X367936Y219975D02*
X368755Y218962D01*
X370118Y222844D02*
Y219300D01*
Y222844D02*
X371345D01*
X371755Y222675*
X371891Y222506*
X372027Y222169*
Y221663*
X372027D02*
X371891Y221325D01*
X371755Y221156*
X371345Y220988*
X371345D02*
X370118D01*
X364118Y211844D02*
X363845Y211675D01*
X363573Y211338*
X363573D02*
X363436Y211000D01*
X363300Y210494*
Y209650*
X363436Y209144*
X363573Y208806*
X363845Y208469*
X364118Y208300*
X364664*
X364936Y208469*
X365209Y208806*
X365345Y209144*
X365482Y209650*
Y210494*
X365345Y211000*
X365209Y211338*
X365209D02*
X364936Y211675D01*
X364664Y211844*
X364118*
X367527D02*
X367255Y211675D01*
X366982Y211338*
X366982D02*
X366845Y211000D01*
X366709Y210494*
Y209650*
X366845Y209144*
X366982Y208806*
X367255Y208469*
X367527Y208300*
X368073*
X368345Y208469*
X368618Y208806*
X368755Y209144*
X368891Y209650*
Y210494*
X368755Y211000*
X368618Y211338*
X368618D02*
X368345Y211675D01*
X368073Y211844*
X367527*
X367936Y208975D02*
X368755Y207962D01*
X370118Y211844D02*
Y208300D01*
Y211844D02*
X372027Y208300D01*
Y211844D02*
Y208300D01*
X391300Y236844D02*
Y234313D01*
X391300D02*
X391436Y233806D01*
X391709Y233469*
X392118Y233300*
X392391*
X392800Y233469*
X393073Y233806*
X393209Y234313*
X393209D02*
Y236844D01*
X396345D02*
X394982Y233300D01*
X394436Y236844D02*
X396345D01*
X388345Y220000D02*
X388209Y220338D01*
X388209D02*
X387936Y220675D01*
X387664Y220844*
X387118*
X386845Y220675*
X386573Y220338*
X386573D02*
X386436Y220000D01*
X386300Y219494*
Y218650*
X386436Y218144*
X386573Y217806*
X386845Y217469*
X387118Y217300*
X387664*
X387936Y217469*
X388209Y217806*
X388345Y218144*
X389573Y220169D02*
X389845Y220338D01*
X389845D02*
X390255Y220844D01*
Y217300*
X392164Y220844D02*
X391755Y220675D01*
X391618Y220338*
X391618D02*
Y220000D01*
X391755Y219663*
X391755D02*
X392027Y219494D01*
X392573Y219325*
X392982Y219156*
X393255Y218819*
X393391Y218481*
Y217975*
X393255Y217638*
X393255D02*
X393118Y217469D01*
X392709Y217300*
X392164*
X391755Y217469*
X391618Y217638*
X391618D02*
X391482Y217975D01*
Y218481*
X391618Y218819*
X391891Y219156*
X392300Y219325*
X392845Y219494*
X393118Y219663*
X393118D02*
X393255Y220000D01*
Y220338*
X393255D02*
X393118Y220675D01*
X392709Y220844*
X392164*
X400345Y239000D02*
X400209Y239338D01*
X400209D02*
X399936Y239675D01*
X399664Y239844*
X399118*
X398845Y239675*
X398573Y239338*
X398573D02*
X398436Y239000D01*
X398300Y238494*
Y237650*
X398436Y237144*
X398573Y236806*
X398845Y236469*
X399118Y236300*
X399664*
X399936Y236469*
X400209Y236806*
X400345Y237144*
X401573Y239169D02*
X401845Y239338D01*
X401845D02*
X402255Y239844D01*
Y236300*
X405255Y238663D02*
X405118Y238156D01*
X404845Y237819*
X404436Y237650*
X404300*
X403891Y237819*
X403618Y238156*
X403482Y238663*
X403482D02*
Y238831D01*
X403618Y239338*
X403618D02*
X403891Y239675D01*
X404300Y239844*
X404436*
X404845Y239675*
X405118Y239338*
X405118D02*
X405255Y238663D01*
X405255D02*
Y237819D01*
X405118Y236975*
X404845Y236469*
X404436Y236300*
X404164*
X403755Y236469*
X403618Y236806*
X421345Y235000D02*
X421209Y235337D01*
X421209D02*
X420936Y235675D01*
X420664Y235844*
X420118*
X419845Y235675*
X419573Y235337*
X419573D02*
X419436Y235000D01*
X419300Y234494*
Y233650*
X419436Y233144*
X419573Y232806*
X419845Y232469*
X420118Y232300*
X420664*
X420936Y232469*
X421209Y232806*
X421345Y233144*
X422709Y235000D02*
Y235169D01*
X422845Y235506*
X422982Y235675*
X423255Y235844*
X423800*
X424073Y235675*
X424209Y235506*
X424345Y235169*
Y234831*
X424209Y234494*
X423936Y233987*
X423936D02*
X422573Y232300D01*
X424482*
X426527Y235844D02*
X426118Y235675D01*
X425845Y235169*
X425709Y234325*
Y233819*
X425845Y232975*
X426118Y232469*
X426527Y232300*
X426800*
X427209Y232469*
X427482Y232975*
X427618Y233819*
Y234325*
X427482Y235169*
X427209Y235675*
X426800Y235844*
X426527*
X425345Y220000D02*
X425209Y220338D01*
X425209D02*
X424936Y220675D01*
X424664Y220844*
X424118*
X423845Y220675*
X423573Y220338*
X423573D02*
X423436Y220000D01*
X423300Y219494*
Y218650*
X423436Y218144*
X423573Y217806*
X423845Y217469*
X424118Y217300*
X424664*
X424936Y217469*
X425209Y217806*
X425345Y218144*
X426709Y220000D02*
Y220169D01*
X426845Y220506*
X426982Y220675*
X427255Y220844*
X427800*
X428073Y220675*
X428209Y220506*
X428345Y220169*
Y219831*
X428209Y219494*
X427936Y218988*
X427936D02*
X426573Y217300D01*
X428482*
X429709Y220169D02*
X429982Y220338D01*
X429982D02*
X430391Y220844D01*
Y217300*
X406345Y206000D02*
X406209Y206338D01*
X406209D02*
X405936Y206675D01*
X405664Y206844*
X405118*
X404845Y206675*
X404573Y206338*
X404573D02*
X404436Y206000D01*
X404300Y205494*
Y204650*
X404436Y204144*
X404573Y203806*
X404845Y203469*
X405118Y203300*
X405664*
X405936Y203469*
X406209Y203806*
X406345Y204144*
X407709Y206000D02*
Y206169D01*
X407845Y206506*
X407982Y206675*
X408255Y206844*
X408800*
X409073Y206675*
X409209Y206506*
X409345Y206169*
Y205831*
X409209Y205494*
X408936Y204988*
X408936D02*
X407573Y203300D01*
X409482*
X410845Y206000D02*
Y206169D01*
X410982Y206506*
X411118Y206675*
X411391Y206844*
X411936*
X412209Y206675*
X412345Y206506*
X412482Y206169*
Y205831*
X412345Y205494*
X412073Y204988*
X412073D02*
X410709Y203300D01*
X412618*
X415300Y259844D02*
Y256300D01*
X416527Y259844D02*
Y256300D01*
X417755Y259844D02*
Y256300D01*
Y259844D02*
X419664Y256300D01*
Y259844D02*
Y256300D01*
X426300Y259844D02*
Y256300D01*
X427527Y259844D02*
Y256300D01*
X428755Y259844D02*
Y256300D01*
Y259844D02*
X429982D01*
X430391Y259675*
X430527Y259506*
X430664Y259169*
Y258663*
X430664D02*
X430527Y258325D01*
X430391Y258156*
X429982Y257988*
X429982D02*
X428755D01*
X443118Y222844D02*
X442845Y222675D01*
X442573Y222338*
X442573D02*
X442436Y222000D01*
X442300Y221494*
Y220650*
X442436Y220144*
X442573Y219806*
X442845Y219469*
X443118Y219300*
X443664*
X443936Y219469*
X444209Y219806*
X444345Y220144*
X444482Y220650*
Y221494*
X444345Y222000*
X444209Y222338*
X444209D02*
X443936Y222675D01*
X443664Y222844*
X443118*
X445709D02*
Y219300D01*
X446936Y222844D02*
Y219300D01*
Y222844D02*
X448164D01*
X448573Y222675*
X448709Y222506*
X448845Y222169*
Y221663*
X448845D02*
X448709Y221325D01*
X448573Y221156*
X448164Y220988*
X448164D02*
X446936D01*
X443118Y212844D02*
X442845Y212675D01*
X442573Y212338*
X442573D02*
X442436Y212000D01*
X442300Y211494*
Y210650*
X442436Y210144*
X442573Y209806*
X442845Y209469*
X443118Y209300*
X443664*
X443936Y209469*
X444209Y209806*
X444345Y210144*
X444482Y210650*
Y211494*
X444345Y212000*
X444209Y212338*
X444209D02*
X443936Y212675D01*
X443664Y212844*
X443118*
X445709D02*
Y209300D01*
X446936Y212844D02*
Y209300D01*
Y212844D02*
X448845Y209300D01*
Y212844D02*
Y209300D01*
X382300Y236844D02*
Y233300D01*
Y236844D02*
X383527D01*
X383936Y236675*
X384073Y236506*
X384209Y236169*
Y235831*
X384073Y235494*
X383936Y235325*
X383527Y235156*
X382300*
X383255D02*
X384209Y233300D01*
X386800Y236844D02*
X385436Y234481D01*
X387482*
X386800Y236844D02*
Y233300D01*
X365300Y240844D02*
Y237300D01*
Y240844D02*
X366527D01*
X366936Y240675*
X367073Y240506*
X367209Y240169*
Y239831*
X367073Y239494*
X366936Y239325*
X366527Y239156*
X365300*
X366255D02*
X367209Y237300D01*
X370345Y240844D02*
X368982Y237300D01*
X368436Y240844D02*
X370345D01*
X333118Y231844D02*
X332845Y231675D01*
X332573Y231338*
X332573D02*
X332436Y231000D01*
X332300Y230494*
Y229650*
X332436Y229144*
X332573Y228806*
X332845Y228469*
X333118Y228300*
X333664*
X333936Y228469*
X334209Y228806*
X334345Y229144*
X334482Y229650*
Y230494*
X334345Y231000*
X334209Y231338*
X334209D02*
X333936Y231675D01*
X333664Y231844*
X333118*
X333527Y228975D02*
X334345Y227962D01*
X335709Y227625D02*
X338573D01*
X340209Y231844D02*
X339936Y231675D01*
X339664Y231338*
X339664D02*
X339527Y231000D01*
X339391Y230494*
Y229650*
X339527Y229144*
X339664Y228806*
X339936Y228469*
X340209Y228300*
X340755*
X341027Y228469*
X341300Y228806*
X341436Y229144*
X341573Y229650*
Y230494*
X341436Y231000*
X341300Y231338*
X341300D02*
X341027Y231675D01*
X340755Y231844*
X340209*
X342800D02*
Y229313D01*
X342800D02*
X342936Y228806D01*
X343209Y228469*
X343618Y228300*
X343891*
X344300Y228469*
X344573Y228806*
X344709Y229313*
X344709D02*
Y231844D01*
X346891D02*
Y228300D01*
X345936Y231844D02*
X347845D01*
X349073D02*
Y228300D01*
Y231844D02*
X350300D01*
X350709Y231675*
X350845Y231506*
X350982Y231169*
Y230663*
X350982D02*
X350845Y230325D01*
X350709Y230156*
X350300Y229988*
X350300D02*
X349073D01*
X352209Y231844D02*
Y229313D01*
X352209D02*
X352345Y228806D01*
X352618Y228469*
X353027Y228300*
X353300*
X353709Y228469*
X353982Y228806*
X354118Y229313*
X354118D02*
Y231844D01*
X356300D02*
Y228300D01*
X355345Y231844D02*
X357255D01*
X358482Y227625D02*
X361345D01*
X362164Y231844D02*
Y228300D01*
Y231844D02*
X363391D01*
X363800Y231675*
X363936Y231506*
X364073Y231169*
Y230831*
X363936Y230494*
X363800Y230325*
X363391Y230156*
X362164D02*
X363391D01*
X363800Y229988*
X363800D02*
X363936Y229819D01*
X364073Y229481*
Y228975*
X363936Y228638*
X363936D02*
X363800Y228469D01*
X363391Y228300*
X362164*
X365300Y231844D02*
Y228300D01*
X367618Y231844D02*
X366527Y228300D01*
X367618Y231844D02*
X368709Y228300D01*
X366936Y229481D02*
X368300D01*
X371845Y231338D02*
X371573Y231675D01*
X371164Y231844*
X370618*
X370209Y231675*
X369936Y231338*
X369936D02*
Y231000D01*
X370073Y230663*
X370073D02*
X370209Y230494D01*
X370482Y230325*
X371300Y229988*
X371300D02*
X371573Y229819D01*
X371709Y229650*
X371845Y229313*
X371845D02*
Y228806D01*
X371573Y228469*
X371164Y228300*
X370618*
X370209Y228469*
X369936Y228806*
X420300Y246844D02*
Y243300D01*
Y246844D02*
X421527D01*
X421936Y246675*
X422073Y246506*
X422209Y246169*
Y245831*
X422073Y245494*
X421936Y245325*
X421527Y245156*
X420300*
X421255D02*
X422209Y243300D01*
X424118Y246844D02*
X423709Y246675D01*
X423573Y246338*
X423573D02*
Y246000D01*
X423709Y245663*
X423709D02*
X423982Y245494D01*
X424527Y245325*
X424936Y245156*
X425209Y244819*
X425345Y244481*
Y243975*
X425209Y243638*
X425209D02*
X425073Y243469D01*
X424664Y243300*
X424118*
X423709Y243469*
X423573Y243638*
X423573D02*
X423436Y243975D01*
Y244481*
X423573Y244819*
X423845Y245156*
X424255Y245325*
X424800Y245494*
X425073Y245663*
X425073D02*
X425209Y246000D01*
Y246338*
X425209D02*
X425073Y246675D01*
X424664Y246844*
X424118*
X444300Y242844D02*
Y239300D01*
Y242844D02*
X445527D01*
X445936Y242675*
X446073Y242506*
X446209Y242169*
Y241831*
X446073Y241494*
X445936Y241325*
X445527Y241156*
X444300*
X445255D02*
X446209Y239300D01*
X449209Y241663D02*
X449073Y241156D01*
X448800Y240819*
X448391Y240650*
X448255*
X447845Y240819*
X447573Y241156*
X447436Y241663*
X447436D02*
Y241831D01*
X447573Y242338*
X447573D02*
X447845Y242675D01*
X448255Y242844*
X448391*
X448800Y242675*
X449073Y242338*
X449073D02*
X449209Y241663D01*
X449209D02*
Y240819D01*
X449073Y239975*
X448800Y239469*
X448391Y239300*
X448118*
X447709Y239469*
X447573Y239806*
X443300Y229844D02*
Y226300D01*
X444527Y225625D02*
X447391D01*
X449027Y229844D02*
X448755Y229675D01*
X448482Y229338*
X448482D02*
X448345Y229000D01*
X448209Y228494*
Y227650*
X448345Y227144*
X448482Y226806*
X448755Y226469*
X449027Y226300*
X449573*
X449845Y226469*
X450118Y226806*
X450255Y227144*
X450391Y227650*
Y228494*
X450255Y229000*
X450118Y229338*
X450118D02*
X449845Y229675D01*
X449573Y229844*
X449027*
X451618D02*
Y227313D01*
X451618D02*
X451755Y226806D01*
X452027Y226469*
X452436Y226300*
X452709*
X453118Y226469*
X453391Y226806*
X453527Y227313*
X453527D02*
Y229844D01*
X455709D02*
Y226300D01*
X454755Y229844D02*
X456664D01*
X457891D02*
Y226300D01*
Y229844D02*
X459118D01*
X459527Y229675*
X459664Y229506*
X459800Y229169*
Y228663*
X459800D02*
X459664Y228325D01*
X459527Y228156*
X459118Y227988*
X459118D02*
X457891D01*
X461027Y229844D02*
Y227313D01*
X461027D02*
X461164Y226806D01*
X461436Y226469*
X461845Y226300*
X462118*
X462527Y226469*
X462800Y226806*
X462936Y227313*
X462936D02*
Y229844D01*
X465118D02*
Y226300D01*
X464164Y229844D02*
X466073D01*
X467300Y225625D02*
X470164D01*
X470982Y229844D02*
Y226300D01*
Y229844D02*
X472209D01*
X472618Y229675*
X472755Y229506*
X472891Y229169*
Y228831*
X472755Y228494*
X472618Y228325*
X472209Y228156*
X470982D02*
X472209D01*
X472618Y227988*
X472618D02*
X472755Y227819D01*
X472891Y227481*
Y226975*
X472755Y226638*
X472755D02*
X472618Y226469D01*
X472209Y226300*
X470982*
X474118Y229844D02*
Y226300D01*
X476436Y229844D02*
X475345Y226300D01*
X476436Y229844D02*
X477527Y226300D01*
X475755Y227481D02*
X477118D01*
X480664Y229338D02*
X480391Y229675D01*
X479982Y229844*
X479436*
X479027Y229675*
X478755Y229338*
X478755D02*
Y229000D01*
X478891Y228663*
X478891D02*
X479027Y228494D01*
X479300Y228325*
X480118Y227988*
X480118D02*
X480391Y227819D01*
X480527Y227650*
X480664Y227313*
X480664D02*
Y226806D01*
X480391Y226469*
X479982Y226300*
X479436*
X479027Y226469*
X478755Y226806*
X359345Y192000D02*
X359209Y192338D01*
X359209D02*
X358936Y192675D01*
X358664Y192844*
X358118*
X357845Y192675*
X357573Y192338*
X357573D02*
X357436Y192000D01*
X357300Y191494*
Y190650*
X357436Y190144*
X357573Y189806*
X357845Y189469*
X358118Y189300*
X358664*
X358936Y189469*
X359209Y189806*
X359345Y190144*
X361664Y192844D02*
X360573Y189300D01*
X361664Y192844D02*
X362755Y189300D01*
X360982Y190481D02*
X362345D01*
X363982Y192844D02*
Y189300D01*
X365618*
X366845Y188625D02*
X369709D01*
X372573Y192000D02*
X372436Y192338D01*
X372436D02*
X372164Y192675D01*
X371891Y192844*
X371345*
X371073Y192675*
X370800Y192338*
X370800D02*
X370664Y192000D01*
X370527Y191494*
Y190650*
X370664Y190144*
X370800Y189806*
X371073Y189469*
X371345Y189300*
X371891*
X372164Y189469*
X372436Y189806*
X372573Y190144*
X373800Y192844D02*
Y189300D01*
X375436*
X378709Y192000D02*
X378573Y192338D01*
X378573D02*
X378300Y192675D01*
X378027Y192844*
X377482*
X377209Y192675*
X376936Y192338*
X376936D02*
X376800Y192000D01*
X376664Y191494*
Y190650*
X376800Y190144*
X376936Y189806*
X377209Y189469*
X377482Y189300*
X378027*
X378300Y189469*
X378573Y189806*
X378709Y190144*
X379936Y192844D02*
Y189300D01*
X381845Y192844D02*
X379936Y190481D01*
X380618Y191325D02*
X381845Y189300D01*
X392209Y185338D02*
X391936Y185675D01*
X391527Y185844*
X390982*
X390573Y185675*
X390300Y185338*
X390300D02*
Y185000D01*
X390436Y184663*
X390436D02*
X390573Y184494D01*
X390845Y184325*
X391664Y183988*
X391664D02*
X391936Y183819D01*
X392073Y183650*
X392209Y183313*
X392209D02*
Y182806D01*
X391936Y182469*
X391527Y182300*
X390982*
X390573Y182469*
X390300Y182806*
X395482Y185000D02*
X395345Y185338D01*
X395345D02*
X395073Y185675D01*
X394800Y185844*
X394255*
X393982Y185675*
X393709Y185338*
X393709D02*
X393573Y185000D01*
X393436Y184494*
Y183650*
X393573Y183144*
X393709Y182806*
X393982Y182469*
X394255Y182300*
X394800*
X395073Y182469*
X395345Y182806*
X395482Y183144*
X396709Y185844D02*
Y182300D01*
X398618Y185844D02*
X396709Y183481D01*
X397391Y184325D02*
X398618Y182300D01*
X402300Y185844D02*
Y182300D01*
Y185844D02*
X403391Y182300D01*
X404482Y185844D02*
X403391Y182300D01*
X404482Y185844D02*
Y182300D01*
X405709Y185844D02*
Y182300D01*
X408845Y185338D02*
X408573Y185675D01*
X408164Y185844*
X407618*
X407209Y185675*
X406936Y185338*
X406936D02*
Y185000D01*
X407073Y184663*
X407073D02*
X407209Y184494D01*
X407482Y184325*
X408300Y183988*
X408300D02*
X408573Y183819D01*
X408709Y183650*
X408845Y183313*
X408845D02*
Y182806D01*
X408573Y182469*
X408164Y182300*
X407618*
X407209Y182469*
X406936Y182806*
X410891Y185844D02*
X410618Y185675D01*
X410345Y185338*
X410345D02*
X410209Y185000D01*
X410073Y184494*
Y183650*
X410209Y183144*
X410345Y182806*
X410618Y182469*
X410891Y182300*
X411436*
X411709Y182469*
X411982Y182806*
X412118Y183144*
X412255Y183650*
Y184494*
X412118Y185000*
X411982Y185338*
X411982D02*
X411709Y185675D01*
X411436Y185844*
X410891*
X415300D02*
Y182300D01*
Y185844D02*
X416391Y182300D01*
X417482Y185844D02*
X416391Y182300D01*
X417482Y185844D02*
Y182300D01*
X419527Y185844D02*
X419255Y185675D01*
X418982Y185338*
X418982D02*
X418845Y185000D01*
X418709Y184494*
Y183650*
X418845Y183144*
X418982Y182806*
X419255Y182469*
X419527Y182300*
X420073*
X420345Y182469*
X420618Y182806*
X420755Y183144*
X420891Y183650*
Y184494*
X420755Y185000*
X420618Y185338*
X420618D02*
X420345Y185675D01*
X420073Y185844*
X419527*
X424027Y185338D02*
X423755Y185675D01*
X423345Y185844*
X422800*
X422391Y185675*
X422118Y185338*
X422118D02*
Y185000D01*
X422255Y184663*
X422255D02*
X422391Y184494D01*
X422664Y184325*
X423482Y183988*
X423482D02*
X423755Y183819D01*
X423891Y183650*
X424027Y183313*
X424027D02*
Y182806D01*
X423755Y182469*
X423345Y182300*
X422800*
X422391Y182469*
X422118Y182806*
X425255Y185844D02*
Y182300D01*
X430345Y185000D02*
X430209Y185338D01*
X430209D02*
X429936Y185675D01*
X429664Y185844*
X429118*
X428845Y185675*
X428573Y185338*
X428573D02*
X428436Y185000D01*
X428300Y184494*
Y183650*
X428436Y183144*
X428573Y182806*
X428845Y182469*
X429118Y182300*
X429664*
X429936Y182469*
X430209Y182806*
X430345Y183144*
X433482Y185338D02*
X433209Y185675D01*
X432800Y185844*
X432255*
X431845Y185675*
X431573Y185338*
X431573D02*
Y185000D01*
X431709Y184663*
X431709D02*
X431845Y184494D01*
X432118Y184325*
X432936Y183988*
X432936D02*
X433209Y183819D01*
X433345Y183650*
X433482Y183313*
X433482D02*
Y182806D01*
X433209Y182469*
X432800Y182300*
X432255*
X431845Y182469*
X431573Y182806*
X388300Y264844D02*
Y261300D01*
Y264844D02*
X389527D01*
X389936Y264675*
X390073Y264506*
X390209Y264169*
Y263831*
X390073Y263494*
X389936Y263325*
X389527Y263156*
X388300D02*
X389527D01*
X389936Y262988*
X389936D02*
X390073Y262819D01*
X390209Y262481*
Y261975*
X390073Y261638*
X390073D02*
X389936Y261469D01*
X389527Y261300*
X388300*
X391436Y264844D02*
Y261300D01*
Y264844D02*
X393345Y261300D01*
Y264844D02*
Y261300D01*
X394573Y264844D02*
Y261300D01*
Y264844D02*
X395527D01*
X395936Y264675*
X396209Y264338*
X396209D02*
X396345Y264000D01*
X396482Y263494*
Y262650*
X396345Y262144*
X396209Y261806*
X395936Y261469*
X395527Y261300*
X394573*
X397709Y260625D02*
X400573D01*
X403436Y264000D02*
X403300Y264338D01*
X403300D02*
X403027Y264675D01*
X402755Y264844*
X402209*
X401936Y264675*
X401664Y264338*
X401664D02*
X401527Y264000D01*
X401391Y263494*
Y262650*
X401527Y262144*
X401664Y261806*
X401936Y261469*
X402209Y261300*
X402755*
X403027Y261469*
X403300Y261806*
X403436Y262144*
Y262650*
X402755D02*
X403436D01*
X405755Y264844D02*
X404664Y261300D01*
X405755Y264844D02*
X406845Y261300D01*
X405073Y262481D02*
X406436D01*
X408073Y264844D02*
Y261300D01*
Y264844D02*
X409300D01*
X409709Y264675*
X409845Y264506*
X409982Y264169*
Y263663*
X409982D02*
X409845Y263325D01*
X409709Y263156*
X409300Y262988*
X409300D02*
X408073D01*
X411209Y260625D02*
X414073D01*
X415845Y264844D02*
Y261300D01*
X414891Y264844D02*
X416800D01*
X418027D02*
Y261300D01*
Y264844D02*
X419800D01*
X418027Y263156D02*
X419118D01*
X418027Y261300D02*
X419800D01*
X422936Y264338D02*
X422664Y264675D01*
X422255Y264844*
X421709*
X421300Y264675*
X421027Y264338*
X421027D02*
Y264000D01*
X421164Y263663*
X421164D02*
X421300Y263494D01*
X421573Y263325*
X422391Y262988*
X422391D02*
X422664Y262819D01*
X422800Y262650*
X422936Y262313*
X422936D02*
Y261806D01*
X422664Y261469*
X422255Y261300*
X421709*
X421300Y261469*
X421027Y261806*
X425118Y264844D02*
Y261300D01*
X424164Y264844D02*
X426073D01*
X427300D02*
Y261300D01*
X428527Y264844D02*
Y261300D01*
Y264844D02*
X430436Y261300D01*
Y264844D02*
Y261300D01*
X433709Y264000D02*
X433573Y264338D01*
X433573D02*
X433300Y264675D01*
X433027Y264844*
X432482*
X432209Y264675*
X431936Y264338*
X431936D02*
X431800Y264000D01*
X431664Y263494*
Y262650*
X431800Y262144*
X431936Y261806*
X432209Y261469*
X432482Y261300*
X433027*
X433300Y261469*
X433573Y261806*
X433709Y262144*
Y262650*
X433027D02*
X433709D01*
X441345Y166000D02*
X441209Y166338D01*
X441209D02*
X440936Y166675D01*
X440664Y166844*
X440118*
X439845Y166675*
X439573Y166338*
X439573D02*
X439436Y166000D01*
X439300Y165494*
Y164650*
X439436Y164144*
X439573Y163806*
X439845Y163469*
X440118Y163300*
X440664*
X440936Y163469*
X441209Y163806*
X441345Y164144*
X442573Y166844D02*
X443255Y163300D01*
X443936Y166844D02*
X443255Y163300D01*
X443936Y166844D02*
X444618Y163300D01*
X445300Y166844D02*
X444618Y163300D01*
X446527Y166169D02*
X446800Y166338D01*
X446800D02*
X447209Y166844D01*
Y163300*
X479345Y210000D02*
X479209Y210337D01*
X479209D02*
X478936Y210675D01*
X478664Y210844*
X478118*
X477845Y210675*
X477573Y210337*
X477573D02*
X477436Y210000D01*
X477300Y209494*
Y208650*
X477436Y208144*
X477573Y207806*
X477845Y207469*
X478118Y207300*
X478664*
X478936Y207469*
X479209Y207806*
X479345Y208144*
X480573Y210844D02*
X481255Y207300D01*
X481936Y210844D02*
X481255Y207300D01*
X481936Y210844D02*
X482618Y207300D01*
X483300Y210844D02*
X482618Y207300D01*
X484664Y210000D02*
Y210169D01*
X484800Y210506*
X484936Y210675*
X485209Y210844*
X485755*
X486027Y210675*
X486164Y210506*
X486300Y210169*
Y209831*
X486164Y209494*
X485891Y208987*
X485891D02*
X484527Y207300D01*
X486436*
X458300Y219844D02*
Y216300D01*
X459527Y219844D02*
Y216300D01*
Y219844D02*
X461436Y216300D01*
Y219844D02*
Y216300D01*
X462664Y219844D02*
Y216300D01*
Y219844D02*
X463618D01*
X464027Y219675*
X464300Y219338*
X464300D02*
X464436Y219000D01*
X464573Y218494*
Y217650*
X464436Y217144*
X464300Y216806*
X464027Y216469*
X463618Y216300*
X462664*
X465800Y219844D02*
Y216300D01*
Y219844D02*
X467573D01*
X465800Y218156D02*
X466891D01*
X465800Y216300D02*
X467573D01*
X468800Y219844D02*
X470709Y216300D01*
Y219844D02*
X468800Y216300D01*
X471936Y215625D02*
X474800D01*
X475618Y219844D02*
Y216300D01*
Y219844D02*
X477527Y216300D01*
Y219844D02*
Y216300D01*
X479573Y219844D02*
X479300Y219675D01*
X479027Y219338*
X479027D02*
X478891Y219000D01*
X478755Y218494*
Y217650*
X478891Y217144*
X479027Y216806*
X479300Y216469*
X479573Y216300*
X480118*
X480391Y216469*
X480664Y216806*
X480800Y217144*
X480936Y217650*
Y218494*
X480800Y219000*
X480664Y219338*
X480664D02*
X480391Y219675D01*
X480118Y219844*
X479573*
X432300Y204844D02*
Y201300D01*
X433527Y204844D02*
Y201300D01*
Y204844D02*
X435436Y201300D01*
Y204844D02*
Y201300D01*
X436664Y204844D02*
Y201300D01*
Y204844D02*
X437618D01*
X438027Y204675*
X438300Y204338*
X438300D02*
X438436Y204000D01*
X438573Y203494*
Y202650*
X438436Y202144*
X438300Y201806*
X438027Y201469*
X437618Y201300*
X436664*
X439800Y204844D02*
Y201300D01*
Y204844D02*
X441573D01*
X439800Y203156D02*
X440891D01*
X439800Y201300D02*
X441573D01*
X442800Y204844D02*
X444709Y201300D01*
Y204844D02*
X442800Y201300D01*
X445936Y200625D02*
X448800D01*
X449618Y204844D02*
Y201300D01*
Y204844D02*
X451527Y201300D01*
Y204844D02*
Y201300D01*
X454800Y204000D02*
X454664Y204338D01*
X454664D02*
X454391Y204675D01*
X454118Y204844*
X453573*
X453300Y204675*
X453027Y204338*
X453027D02*
X452891Y204000D01*
X452755Y203494*
Y202650*
X452891Y202144*
X453027Y201806*
X453300Y201469*
X453573Y201300*
X454118*
X454391Y201469*
X454664Y201806*
X454800Y202144*
X433255Y197844D02*
Y194300D01*
X432300Y197844D02*
X434209D01*
X435436D02*
Y194300D01*
X437345Y197844D02*
Y194300D01*
X435436Y196156D02*
X437345D01*
X438573Y197844D02*
Y195313D01*
X438573D02*
X438709Y194806D01*
X438982Y194469*
X439391Y194300*
X439664*
X440073Y194469*
X440345Y194806*
X440482Y195313*
X440482D02*
Y197844D01*
X441709D02*
Y194300D01*
Y197844D02*
X442800Y194300D01*
X443891Y197844D02*
X442800Y194300D01*
X443891Y197844D02*
Y194300D01*
X445118Y197844D02*
Y194300D01*
Y197844D02*
X446345D01*
X446755Y197675*
X446891Y197506*
X447027Y197169*
Y196831*
X446891Y196494*
X446755Y196325*
X446345Y196156*
X445118D02*
X446345D01*
X446755Y195988*
X446755D02*
X446891Y195819D01*
X447027Y195481*
Y194975*
X446891Y194638*
X446891D02*
X446755Y194469D01*
X446345Y194300*
X445118*
X448255Y193625D02*
X451118D01*
X451936Y197844D02*
Y194300D01*
Y197844D02*
X453845Y194300D01*
Y197844D02*
Y194300D01*
X457118Y197000D02*
X456982Y197338D01*
X456982D02*
X456709Y197675D01*
X456436Y197844*
X455891*
X455618Y197675*
X455345Y197338*
X455345D02*
X455209Y197000D01*
X455073Y196494*
Y195650*
X455209Y195144*
X455345Y194806*
X455618Y194469*
X455891Y194300*
X456436*
X456709Y194469*
X456982Y194806*
X457118Y195144*
X413255Y177844D02*
Y174300D01*
X412300Y177844D02*
X414209D01*
X415436D02*
Y174300D01*
X417345Y177844D02*
Y174300D01*
X415436Y176156D02*
X417345D01*
X418573Y177844D02*
Y175313D01*
X418573D02*
X418709Y174806D01*
X418982Y174469*
X419391Y174300*
X419664*
X420073Y174469*
X420345Y174806*
X420482Y175313*
X420482D02*
Y177844D01*
X421709D02*
Y174300D01*
Y177844D02*
X422800Y174300D01*
X423891Y177844D02*
X422800Y174300D01*
X423891Y177844D02*
Y174300D01*
X425118Y177844D02*
Y174300D01*
Y177844D02*
X426345D01*
X426755Y177675*
X426891Y177506*
X427027Y177169*
Y176831*
X426891Y176494*
X426755Y176325*
X426345Y176156*
X425118D02*
X426345D01*
X426755Y175988*
X426755D02*
X426891Y175819D01*
X427027Y175481*
Y174975*
X426891Y174638*
X426891D02*
X426755Y174469D01*
X426345Y174300*
X425118*
X428255Y173625D02*
X431118D01*
X431936Y177844D02*
Y174300D01*
Y177844D02*
X433845Y174300D01*
Y177844D02*
Y174300D01*
X435891Y177844D02*
X435618Y177675D01*
X435345Y177338*
X435345D02*
X435209Y177000D01*
X435073Y176494*
Y175650*
X435209Y175144*
X435345Y174806*
X435618Y174469*
X435891Y174300*
X436436*
X436709Y174469*
X436982Y174806*
X437118Y175144*
X437255Y175650*
Y176494*
X437118Y177000*
X436982Y177338*
X436982D02*
X436709Y177675D01*
X436436Y177844*
X435891*
X376073Y259844D02*
X374709D01*
X374573Y258325*
X374709Y258494*
X375118Y258663*
X375118D02*
X375527D01*
X375527D02*
X375936Y258494D01*
X376209Y258156*
X376345Y257650*
X376209Y257313*
X376209D02*
X376073Y256806D01*
X375800Y256469*
X375391Y256300*
X374982*
X374573Y256469*
X374436Y256638*
X374436D02*
X374300Y256975D01*
X377573Y259844D02*
X378664Y256300D01*
X379755Y259844D02*
X378664Y256300D01*
X361345Y246000D02*
X361209Y246338D01*
X361209D02*
X360936Y246675D01*
X360664Y246844*
X360118*
X359845Y246675*
X359573Y246338*
X359573D02*
X359436Y246000D01*
X359300Y245494*
Y244650*
X359436Y244144*
X359573Y243806*
X359845Y243469*
X360118Y243300*
X360664*
X360936Y243469*
X361209Y243806*
X361345Y244144*
Y244650*
X360664D02*
X361345D01*
X362573Y246844D02*
Y243300D01*
Y246844D02*
X364482Y243300D01*
Y246844D02*
Y243300D01*
X365709Y246844D02*
Y243300D01*
Y246844D02*
X366664D01*
X367073Y246675*
X367345Y246338*
X367345D02*
X367482Y246000D01*
X367618Y245494*
Y244650*
X367482Y244144*
X367345Y243806*
X367073Y243469*
X366664Y243300*
X365709*
X368845Y246169D02*
X369118Y246338D01*
X369118D02*
X369527Y246844D01*
Y243300*
G54D146*
X342066Y320974D02*
X350974Y312066D01*
X357934Y319026*
X349026Y327934*
X342066Y320974*
G54D147*
X489764Y239764D02*
G03X489764I-7874J0D01*
G01X398888Y110468D02*
G03X398888I-7874J0D01*
G01X409055Y344094D02*
G03X409055I-11811J0D01*
G01X316535Y111811D02*
G03X316535I-11811J0D01*
G74*
G01X0Y0D02*
M02*
