*
*
G04 PADS 9.5 Build Number: 522968 generated Gerber (RS-274-X) file*
G04 PC Version=2.1*
*
%IN "MultiTestBoard.pcb"*%
*
%MOIN*%
*
%FSLAX35Y35*%
*
*
*
*
G04 PC Standard Apertures*
*
*
G04 Thermal Relief Aperture macro.*
%AMTER*
1,1,$1,0,0*
1,0,$1-$2,0,0*
21,0,$3,$4,0,0,45*
21,0,$3,$4,0,0,135*
%
*
*
G04 Annular Aperture macro.*
%AMANN*
1,1,$1,0,0*
1,0,$2,0,0*
%
*
*
G04 Odd Aperture macro.*
%AMODD*
1,1,$1,0,0*
1,0,$1-0.005,0,0*
%
*
*
G04 PC Custom Aperture Macros*
*
*
*
*
*
*
G04 PC Aperture Table*
*
%ADD010C,0.001*%
%ADD011C,0.008*%
%ADD012C,0.00787*%
%ADD013C,0.01575*%
%ADD035C,0.03*%
%ADD036C,0.02*%
%ADD048C,0.07*%
%ADD061C,0.07874*%
%ADD089R,0.043X0.039*%
%ADD090R,0.048X0.048*%
%ADD102O,0.03346X0.00984*%
%ADD103O,0.00984X0.03346*%
%ADD147C,0.01*%
%ADD148C,0.032*%
%ADD149O,0.05906X0.02362*%
%ADD150C,0.01969*%
%ADD151C,0.22441*%
%ADD152C,0.028*%
*
*
*
*
G04 PC Circuitry*
G04 Layer Name MultiTestBoard.pcb - circuitry*
%LPD*%
*
*
G04 PC Custom Flashes*
G04 Layer Name MultiTestBoard.pcb - flashes*
%LPD*%
*
*
G04 PC Circuitry*
G04 Layer Name MultiTestBoard.pcb - circuitry*
%LPD*%
*
G54D10*
G54D11*
G01X328100Y181550D02*
Y178450D01*
X324600*
Y181550*
X328100*
X324600Y179200D02*
X328100D01*
X324600Y180000D02*
X328100D01*
X324600Y180800D02*
X328100D01*
X324800Y178450D02*
Y181550D01*
X325600Y178450D02*
Y181550D01*
X326400Y178450D02*
Y181550D01*
X327200Y178450D02*
Y181550D01*
X328000Y178450D02*
Y181550D01*
X321400D02*
Y178450D01*
X317900*
Y181550*
X321400*
X317900Y179200D02*
X321400D01*
X317900Y180000D02*
X321400D01*
X317900Y180800D02*
X321400D01*
X318400Y178450D02*
Y181550D01*
X319200Y178450D02*
Y181550D01*
X320000Y178450D02*
Y181550D01*
X320800Y178450D02*
Y181550D01*
X325450Y174100D02*
X328550D01*
Y170600*
X325450*
Y174100*
Y171200D02*
X328550D01*
X325450Y172000D02*
X328550D01*
X325450Y172800D02*
X328550D01*
X325450Y173600D02*
X328550D01*
X325600Y170600D02*
Y174100D01*
X326400Y170600D02*
Y174100D01*
X327200Y170600D02*
Y174100D01*
X328000Y170600D02*
Y174100D01*
X325450Y167400D02*
X328550D01*
Y163900*
X325450*
Y167400*
Y164000D02*
X328550D01*
X325450Y164800D02*
X328550D01*
X325450Y165600D02*
X328550D01*
X325450Y166400D02*
X328550D01*
X325450Y167200D02*
X328550D01*
X325600Y163900D02*
Y167400D01*
X326400Y163900D02*
Y167400D01*
X327200Y163900D02*
Y167400D01*
X328000Y163900D02*
Y167400D01*
X311900Y136450D02*
Y139550D01*
X315400*
Y136450*
X311900*
Y136800D02*
X315400D01*
X311900Y137600D02*
X315400D01*
X311900Y138400D02*
X315400D01*
X311900Y139200D02*
X315400D01*
X312000Y136450D02*
Y139550D01*
X312800Y136450D02*
Y139550D01*
X313600Y136450D02*
Y139550D01*
X314400Y136450D02*
Y139550D01*
X315200Y136450D02*
Y139550D01*
X318600Y136450D02*
Y139550D01*
X322100*
Y136450*
X318600*
Y136800D02*
X322100D01*
X318600Y137600D02*
X322100D01*
X318600Y138400D02*
X322100D01*
X318600Y139200D02*
X322100D01*
X319200Y136450D02*
Y139550D01*
X320000Y136450D02*
Y139550D01*
X320800Y136450D02*
Y139550D01*
X321600Y136450D02*
Y139550D01*
X311900Y206450D02*
Y209550D01*
X315400*
Y206450*
X311900*
Y207200D02*
X315400D01*
X311900Y208000D02*
X315400D01*
X311900Y208800D02*
X315400D01*
X312000Y206450D02*
Y209550D01*
X312800Y206450D02*
Y209550D01*
X313600Y206450D02*
Y209550D01*
X314400Y206450D02*
Y209550D01*
X315200Y206450D02*
Y209550D01*
X318600Y206450D02*
Y209550D01*
X322100*
Y206450*
X318600*
Y207200D02*
X322100D01*
X318600Y208000D02*
X322100D01*
X318600Y208800D02*
X322100D01*
X319200Y206450D02*
Y209550D01*
X320000Y206450D02*
Y209550D01*
X320800Y206450D02*
Y209550D01*
X321600Y206450D02*
Y209550D01*
X353550Y165900D02*
X350450D01*
Y169400*
X353550*
Y165900*
X350450Y166400D02*
X353550D01*
X350450Y167200D02*
X353550D01*
X350450Y168000D02*
X353550D01*
X350450Y168800D02*
X353550D01*
X351200Y165900D02*
Y169400D01*
X352000Y165900D02*
Y169400D01*
X352800Y165900D02*
Y169400D01*
X353550Y172600D02*
X350450D01*
Y176100*
X353550*
Y172600*
X350450Y172800D02*
X353550D01*
X350450Y173600D02*
X353550D01*
X350450Y174400D02*
X353550D01*
X350450Y175200D02*
X353550D01*
X350450Y176000D02*
X353550D01*
X351200Y172600D02*
Y176100D01*
X352000Y172600D02*
Y176100D01*
X352800Y172600D02*
Y176100D01*
X347550Y119900D02*
X344450D01*
Y123400*
X347550*
Y119900*
X344450Y120000D02*
X347550D01*
X344450Y120800D02*
X347550D01*
X344450Y121600D02*
X347550D01*
X344450Y122400D02*
X347550D01*
X344450Y123200D02*
X347550D01*
X344800Y119900D02*
Y123400D01*
X345600Y119900D02*
Y123400D01*
X346400Y119900D02*
Y123400D01*
X347200Y119900D02*
Y123400D01*
X347550Y126600D02*
X344450D01*
Y130100*
X347550*
Y126600*
X344450Y127200D02*
X347550D01*
X344450Y128000D02*
X347550D01*
X344450Y128800D02*
X347550D01*
X344450Y129600D02*
X347550D01*
X344800Y126600D02*
Y130100D01*
X345600Y126600D02*
Y130100D01*
X346400Y126600D02*
Y130100D01*
X347200Y126600D02*
Y130100D01*
X360550Y165900D02*
X357450D01*
Y169400*
X360550*
Y165900*
X357450Y166400D02*
X360550D01*
X357450Y167200D02*
X360550D01*
X357450Y168000D02*
X360550D01*
X357450Y168800D02*
X360550D01*
X357600Y165900D02*
Y169400D01*
X358400Y165900D02*
Y169400D01*
X359200Y165900D02*
Y169400D01*
X360000Y165900D02*
Y169400D01*
X360550Y172600D02*
X357450D01*
Y176100*
X360550*
Y172600*
X357450Y172800D02*
X360550D01*
X357450Y173600D02*
X360550D01*
X357450Y174400D02*
X360550D01*
X357450Y175200D02*
X360550D01*
X357450Y176000D02*
X360550D01*
X357600Y172600D02*
Y176100D01*
X358400Y172600D02*
Y176100D01*
X359200Y172600D02*
Y176100D01*
X360000Y172600D02*
Y176100D01*
X354550Y119900D02*
X351450D01*
Y123400*
X354550*
Y119900*
X351450Y120000D02*
X354550D01*
X351450Y120800D02*
X354550D01*
X351450Y121600D02*
X354550D01*
X351450Y122400D02*
X354550D01*
X351450Y123200D02*
X354550D01*
X352000Y119900D02*
Y123400D01*
X352800Y119900D02*
Y123400D01*
X353600Y119900D02*
Y123400D01*
X354400Y119900D02*
Y123400D01*
X354550Y126600D02*
X351450D01*
Y130100*
X354550*
Y126600*
X351450Y127200D02*
X354550D01*
X351450Y128000D02*
X354550D01*
X351450Y128800D02*
X354550D01*
X351450Y129600D02*
X354550D01*
X352000Y126600D02*
Y130100D01*
X352800Y126600D02*
Y130100D01*
X353600Y126600D02*
Y130100D01*
X354400Y126600D02*
Y130100D01*
X367550Y165900D02*
X364450D01*
Y169400*
X367550*
Y165900*
X364450Y166400D02*
X367550D01*
X364450Y167200D02*
X367550D01*
X364450Y168000D02*
X367550D01*
X364450Y168800D02*
X367550D01*
X364800Y165900D02*
Y169400D01*
X365600Y165900D02*
Y169400D01*
X366400Y165900D02*
Y169400D01*
X367200Y165900D02*
Y169400D01*
X367550Y172600D02*
X364450D01*
Y176100*
X367550*
Y172600*
X364450Y172800D02*
X367550D01*
X364450Y173600D02*
X367550D01*
X364450Y174400D02*
X367550D01*
X364450Y175200D02*
X367550D01*
X364450Y176000D02*
X367550D01*
X364800Y172600D02*
Y176100D01*
X365600Y172600D02*
Y176100D01*
X366400Y172600D02*
Y176100D01*
X367200Y172600D02*
Y176100D01*
X361550Y119900D02*
X358450D01*
Y123400*
X361550*
Y119900*
X358450Y120000D02*
X361550D01*
X358450Y120800D02*
X361550D01*
X358450Y121600D02*
X361550D01*
X358450Y122400D02*
X361550D01*
X358450Y123200D02*
X361550D01*
X359200Y119900D02*
Y123400D01*
X360000Y119900D02*
Y123400D01*
X360800Y119900D02*
Y123400D01*
X361550Y126600D02*
X358450D01*
Y130100*
X361550*
Y126600*
X358450Y127200D02*
X361550D01*
X358450Y128000D02*
X361550D01*
X358450Y128800D02*
X361550D01*
X358450Y129600D02*
X361550D01*
X359200Y126600D02*
Y130100D01*
X360000Y126600D02*
Y130100D01*
X360800Y126600D02*
Y130100D01*
X336900Y132000D02*
X337000D01*
X301000Y138000D02*
X301700D01*
X327047Y144500D02*
Y144819D01*
X327000Y175000D02*
X327100D01*
X387000Y191000D02*
X391700Y195700D01*
X399400*
X404047Y200347*
Y211354*
X407000Y191000D02*
X407900D01*
X408000Y190900*
Y211354*
X397000Y191000D02*
X406016Y200016D01*
Y211354*
X439000Y183000D02*
X451599Y170401D01*
Y170399*
X445000Y189000D02*
X453100Y180900D01*
X457999Y176801D02*
X458001D01*
X453100Y180900D02*
X457199Y176801D01*
X457999*
X471999Y190801D02*
Y190599D01*
X327047Y200800D02*
Y200900D01*
X377000Y211000D02*
X382079Y216079D01*
X397354*
X400110Y211354D02*
Y207900D01*
X400500*
X401200Y207200*
Y207221*
X402079Y208100*
Y211354*
X393300Y212700D02*
Y212710D01*
X394700Y214110*
X397354*
X416646D02*
X419500D01*
X420800Y212810*
Y212800*
X413890Y211354D02*
Y207610D01*
X415500Y206000*
X411921Y211354D02*
Y200600D01*
X416821Y195700*
X422300*
X427000Y191000*
X409953Y211354D02*
Y199800D01*
X416400Y193353*
Y191600*
X417000Y191000*
X407984Y211354D02*
X408000D01*
X460000Y204000D02*
X467900Y196100D01*
X466000Y210000D02*
X478401Y197599D01*
Y197299*
X467900Y196100D02*
X471999Y192001D01*
Y190801*
X478401Y197299D02*
Y197001D01*
X377000Y231000D02*
X377100Y230900D01*
Y230450*
X378750Y228800*
Y227050*
X385784Y220016*
X397354*
X377000Y231000D02*
X378500D01*
Y240000*
X377000Y221000D02*
X379953Y218047D01*
X397354*
X411000Y225000D02*
X407000Y221000D01*
X411000Y217000*
X407000Y221000D02*
X411000D01*
X397354Y223953D02*
X402600D01*
X403647Y225000*
X407000*
X402600Y223953D02*
Y221000D01*
X407000*
Y217000D02*
Y221000D01*
X403000Y217000*
X396300Y233700D02*
X398400D01*
X400110Y231990*
Y230646*
X393100Y230100D02*
Y229190D01*
X394400Y227890*
X397354*
X391500Y224221D02*
X393200Y225921D01*
X397354*
X391500Y224000D02*
Y223768D01*
X393283Y221984*
X397354*
X407984Y230646D02*
Y235184D01*
X408000Y235200*
Y236000*
X409953Y230646D02*
Y235153D01*
X411000Y236200*
Y239300*
X417000Y245300*
Y251000*
X411921Y230646D02*
Y234821D01*
X412600Y235500*
Y238600*
X423400Y249400*
X426500*
X427300Y250200*
X413890Y230646D02*
Y233100D01*
X414500Y233710*
X418590*
X420000Y232300*
Y232000*
X416646Y227890D02*
X419200D01*
X419600Y228290*
X420000Y228690*
Y232000*
X416646Y225921D02*
X420654D01*
X423500Y228768*
X416646Y223953D02*
X423453D01*
X423500Y224000*
X416646Y221984D02*
X421717D01*
X423500Y223768*
Y224000*
X416646Y220016D02*
X429216D01*
X432400Y223200*
Y226400*
X437000Y231000*
X416646Y218047D02*
X434047D01*
X437000Y221000*
X416646Y216079D02*
X431621D01*
X436700Y211000*
X437000*
X407984Y230646D02*
Y235984D01*
X408000Y236000*
X407984Y230646D02*
X407984D01*
X408000Y230661*
Y236000*
X423500Y228768D02*
Y229000D01*
X387500Y240100D02*
Y240000D01*
X387300Y240500D02*
Y240432D01*
X387500Y240232*
Y240100*
X378500Y240000D02*
X382500D01*
X387000Y251000D02*
X389700D01*
Y250150*
X391150*
X397600Y243700*
Y236800*
X402079Y232321*
Y230646*
X401400Y240800D02*
Y245400D01*
X407000Y251000*
X401400Y240800D02*
X406016Y236184D01*
Y230646*
X397000Y251000D02*
Y248500D01*
X399200Y246300*
Y237500*
X404047Y232653*
Y230646*
X408000Y236000D02*
Y239500D01*
X407900*
X423500Y237700D02*
X423600Y237800D01*
X423700*
X408000Y236000D02*
Y239500D01*
X427000Y251000D02*
X427300Y250700D01*
Y250200*
X435500Y240000D02*
Y237000D01*
X435500*
Y232500*
X437000Y231000*
X431500Y240000D02*
X435500D01*
X320000Y270000D02*
X330200Y280200D01*
Y284500*
X335079Y289379*
Y292421*
X330000Y270000D02*
Y272100D01*
X331800Y273900*
Y283800*
X337047Y289047*
Y292421*
X350000Y270000D02*
X350300D01*
Y283500*
X320000Y288200D02*
Y280000D01*
X324700*
X327200Y282500*
Y292500*
X329779Y295079*
X332421*
X319500Y288000D02*
X319700Y288200D01*
X320000*
X342500Y283500D02*
Y283616D01*
X342692Y283808*
X343000Y283500*
X344921Y292421D02*
Y289879D01*
X346919Y287881*
X348281*
X351900Y284261*
Y278200*
X352000Y278100*
Y278000*
X360000Y270000*
X342953Y292421D02*
Y289500D01*
X346253Y286200*
X347600*
X350300Y283500*
X340984Y292421D02*
Y287116D01*
X342150Y285950*
Y283500*
X339016Y292421D02*
Y283500D01*
X354500Y294232D02*
Y294000D01*
X359550Y280450D02*
X360000Y280000D01*
X359500Y289000D02*
Y280500D01*
X359550Y280450*
X301000Y300000D02*
X315000D01*
X327500Y312768D02*
Y313000D01*
X315000Y309000D02*
X319400D01*
X327416Y300984*
X332421*
X315000Y300000D02*
X326100D01*
X327084Y299016*
X332421*
X340174Y300426D02*
X342700Y302953D01*
X347579*
X337000Y303000D02*
X337600D01*
X340174Y300426*
X329121Y305900D02*
X330100Y304921D01*
X332421*
X328300Y296800D02*
X328547Y297047D01*
X332421*
X343000Y297000D02*
X340000Y300000D01*
Y300253*
X340174Y300426*
X347579Y304921D02*
X349600D01*
X350489Y305811*
X347579Y300984D02*
X354084D01*
X356300Y303200*
X363200*
X364700Y304700*
X347579Y299016D02*
X354400D01*
X356892Y301508*
X369100*
Y300000*
X370000*
X347579Y297047D02*
X351685D01*
X352366Y296366*
X347579Y295079D02*
X349900D01*
X351800Y293179*
Y287000*
X358350Y280450*
X359550*
X339016Y307579D02*
Y340000D01*
X340984Y307579D02*
Y330984D01*
X342953Y307579D02*
Y318521D01*
X345267Y320835*
X344921Y307579D02*
Y313921D01*
X350165Y319165*
X354733*
X364700Y304700D02*
X370000Y310000D01*
X364100Y298500D02*
X367300Y295300D01*
X377798*
X377798*
X383598Y289500*
X385370*
Y299500D02*
X393500D01*
X398500Y294500*
X406630*
X370000Y310000D02*
X375098D01*
X383598Y318500*
X385370*
X370000Y300000D02*
X378098D01*
X383598Y294500*
X385370*
X370000Y300000D02*
X381400Y311400D01*
X381498*
X383598Y313500*
X385370*
X406630Y299500D02*
X429500D01*
X430000Y300000*
X406630Y294500D02*
X425500D01*
X430000Y290000*
X317100Y320000D02*
X319700Y317400D01*
Y311000*
X327747Y302953*
X332421*
X317100Y320000D02*
X319100Y322000D01*
X322500*
X310000Y320000D02*
X317100D01*
X340984Y330984D02*
X350000Y340000D01*
X385370Y323500D02*
X393500D01*
X398500Y318500*
X406630*
Y323500D02*
X426500D01*
X430000Y320000*
X406630Y318500D02*
X421500D01*
X430000Y310000*
X419000Y328500D02*
X419150Y328650D01*
X320000Y340000D02*
X325600Y334400D01*
X332200*
X335079Y331521*
Y307579*
X339016Y340000D02*
X340000D01*
X330000D02*
X337047Y332953D01*
Y307579*
G54D12*
X328606Y311661D02*
X326394D01*
Y314339*
X328606*
Y311661*
X326394Y311811D02*
X328606D01*
X326394Y312598D02*
X328606D01*
X326394Y313386D02*
X328606D01*
X326394Y314173D02*
X328606D01*
X326772Y311661D02*
Y314339D01*
X327559Y311661D02*
Y314339D01*
X328346Y311661D02*
Y314339D01*
X323606Y311661D02*
X321394D01*
Y314339*
X323606*
Y311661*
X321394Y311811D02*
X323606D01*
X321394Y312598D02*
X323606D01*
X321394Y313386D02*
X323606D01*
X321394Y314173D02*
X323606D01*
X322047Y311661D02*
Y314339D01*
X322835Y311661D02*
Y314339D01*
X325606Y291661D02*
X323394D01*
Y294339*
X325606*
Y291661*
X323394Y292126D02*
X325606D01*
X323394Y292913D02*
X325606D01*
X323394Y293701D02*
X325606D01*
X323622Y291661D02*
Y294339D01*
X324409Y291661D02*
Y294339D01*
X325197Y291661D02*
Y294339D01*
X320606Y291661D02*
X318394D01*
Y294339*
X320606*
Y291661*
X318394Y292126D02*
X320606D01*
X318394Y292913D02*
X320606D01*
X318394Y293701D02*
X320606D01*
X318898Y291661D02*
Y294339D01*
X319685Y291661D02*
Y294339D01*
X320472Y291661D02*
Y294339D01*
X339339Y284606D02*
Y282394D01*
X336661*
Y284606*
X339339*
X336661Y282677D02*
X339339D01*
X336661Y283465D02*
X339339D01*
X336661Y284252D02*
X339339D01*
X337008Y282394D02*
Y284606D01*
X337795Y282394D02*
Y284606D01*
X338583Y282394D02*
Y284606D01*
X339339Y279606D02*
Y277394D01*
X336661*
Y279606*
X339339*
X336661Y277953D02*
X339339D01*
X336661Y278740D02*
X339339D01*
X336661Y279528D02*
X339339D01*
X337008Y277394D02*
Y279606D01*
X337795Y277394D02*
Y279606D01*
X338583Y277394D02*
Y279606D01*
X344339Y284606D02*
Y282394D01*
X341661*
Y284606*
X344339*
X341661Y282677D02*
X344339D01*
X341661Y283465D02*
X344339D01*
X341661Y284252D02*
X344339D01*
X341732Y282394D02*
Y284606D01*
X342520Y282394D02*
Y284606D01*
X343307Y282394D02*
Y284606D01*
X344094Y282394D02*
Y284606D01*
X344339Y279606D02*
Y277394D01*
X341661*
Y279606*
X344339*
X341661Y277953D02*
X344339D01*
X341661Y278740D02*
X344339D01*
X341661Y279528D02*
X344339D01*
X341732Y277394D02*
Y279606D01*
X342520Y277394D02*
Y279606D01*
X343307Y277394D02*
Y279606D01*
X344094Y277394D02*
Y279606D01*
X353394Y295339D02*
X355606D01*
Y292661*
X353394*
Y295339*
Y292913D02*
X355606D01*
X353394Y293701D02*
X355606D01*
X353394Y294488D02*
X355606D01*
X353394Y295276D02*
X355606D01*
X353543Y292661D02*
Y295339D01*
X354331Y292661D02*
Y295339D01*
X355118Y292661D02*
Y295339D01*
X358394D02*
X360606D01*
Y292661*
X358394*
Y295339*
Y292913D02*
X360606D01*
X358394Y293701D02*
X360606D01*
X358394Y294488D02*
X360606D01*
X358394Y295276D02*
X360606D01*
X359055Y292661D02*
Y295339D01*
X359843Y292661D02*
Y295339D01*
X353394Y308339D02*
X355606D01*
Y305661*
X353394*
Y308339*
Y306299D02*
X355606D01*
X353394Y307087D02*
X355606D01*
X353394Y307874D02*
X355606D01*
X353543Y305661D02*
Y308339D01*
X354331Y305661D02*
Y308339D01*
X355118Y305661D02*
Y308339D01*
X358394D02*
X360606D01*
Y305661*
X358394*
Y308339*
Y306299D02*
X360606D01*
X358394Y307087D02*
X360606D01*
X358394Y307874D02*
X360606D01*
X359055Y305661D02*
Y308339D01*
X359843Y305661D02*
Y308339D01*
X318394Y289339D02*
X320606D01*
Y286661*
X318394*
Y289339*
Y287402D02*
X320606D01*
X318394Y288189D02*
X320606D01*
X318394Y288976D02*
X320606D01*
X318898Y286661D02*
Y289339D01*
X319685Y286661D02*
Y289339D01*
X320472Y286661D02*
Y289339D01*
X323394D02*
X325606D01*
Y286661*
X323394*
Y289339*
Y287402D02*
X325606D01*
X323394Y288189D02*
X325606D01*
X323394Y288976D02*
X325606D01*
X323622Y286661D02*
Y289339D01*
X324409Y286661D02*
Y289339D01*
X325197Y286661D02*
Y289339D01*
X360606Y287661D02*
X358394D01*
Y290339*
X360606*
Y287661*
X358394Y288189D02*
X360606D01*
X358394Y288976D02*
X360606D01*
X358394Y289764D02*
X360606D01*
X359055Y287661D02*
Y290339D01*
X359843Y287661D02*
Y290339D01*
X355606Y287661D02*
X353394D01*
Y290339*
X355606*
Y287661*
X353394Y288189D02*
X355606D01*
X353394Y288976D02*
X355606D01*
X353394Y289764D02*
X355606D01*
X353543Y287661D02*
Y290339D01*
X354331Y287661D02*
Y290339D01*
X355118Y287661D02*
Y290339D01*
X321394Y323339D02*
X323606D01*
Y320661*
X321394*
Y323339*
Y321260D02*
X323606D01*
X321394Y322047D02*
X323606D01*
X321394Y322835D02*
X323606D01*
X322047Y320661D02*
Y323339D01*
X322835Y320661D02*
Y323339D01*
X326394D02*
X328606D01*
Y320661*
X326394*
Y323339*
Y321260D02*
X328606D01*
X326394Y322047D02*
X328606D01*
X326394Y322835D02*
X328606D01*
X326772Y320661D02*
Y323339D01*
X327559Y320661D02*
Y323339D01*
X328346Y320661D02*
Y323339D01*
X343179Y320974D02*
X345128Y322923D01*
X347355Y320696*
X345407Y318747*
X343179Y320974*
X345256Y318898D02*
X345557D01*
X344469Y319685D02*
X346344D01*
X343681Y320472D02*
X347132D01*
X343465Y321260D02*
X346791D01*
X344252Y322047D02*
X346004D01*
X345040Y322835D02*
X345217D01*
X343307Y320847D02*
Y321102D01*
X344094Y320059D02*
Y321889D01*
X344882Y319272D02*
Y322677D01*
X345669Y319010D02*
Y322382D01*
X346457Y319797D02*
Y321595D01*
X347244Y320585D02*
Y320807D01*
X348747Y315407D02*
X350696Y317355D01*
X352923Y315128*
X350974Y313179*
X348747Y315407*
X350768Y313386D02*
X351181D01*
X349981Y314173D02*
X351968D01*
X349193Y314961D02*
X352756D01*
X349089Y315748D02*
X352303D01*
X349876Y316535D02*
X351516D01*
X350663Y317323D02*
X350728D01*
X348819Y315335D02*
Y315478D01*
X349606Y314548D02*
Y316266D01*
X350394Y313760D02*
Y317053D01*
X351181Y313386D02*
Y316870D01*
X351969Y314174D02*
Y316083D01*
X352756Y314961D02*
Y315295D01*
X352645Y319304D02*
X354593Y321253D01*
X356821Y319026*
X354872Y317077*
X352645Y319304*
X354626Y317323D02*
X355118D01*
X353838Y318110D02*
X355905D01*
X353051Y318898D02*
X356693D01*
X353026Y319685D02*
X356161D01*
X353813Y320472D02*
X355374D01*
X352756Y319193D02*
Y319415D01*
X353543Y318405D02*
Y320203D01*
X354331Y317618D02*
Y320990D01*
X355118Y317323D02*
Y320728D01*
X355906Y318111D02*
Y319941D01*
X356693Y318898D02*
Y319153D01*
X347077Y324872D02*
X349026Y326821D01*
X351253Y324593*
X349304Y322645*
X347077Y324872*
X349114Y322835D02*
X349494D01*
X348327Y323622D02*
X350281D01*
X347539Y324409D02*
X351069D01*
X347402Y325197D02*
X350649D01*
X348189Y325984D02*
X349862D01*
X348977Y326772D02*
X349075D01*
X347244Y324705D02*
Y325039D01*
X348031Y323917D02*
Y325826D01*
X348819Y323130D02*
Y326614D01*
X349606Y322947D02*
Y326240D01*
X350394Y323734D02*
Y325452D01*
X351181Y324522D02*
Y324665D01*
X412661Y327394D02*
Y329606D01*
X415339*
Y327394*
X412661*
Y327559D02*
X415339D01*
X412661Y328346D02*
X415339D01*
X412661Y329134D02*
X415339D01*
X413386Y327394D02*
Y329606D01*
X414173Y327394D02*
Y329606D01*
X414961Y327394D02*
Y329606D01*
X412661Y332394D02*
Y334606D01*
X415339*
Y332394*
X412661*
Y333071D02*
X415339D01*
X412661Y333858D02*
X415339D01*
X413386Y332394D02*
Y334606D01*
X414173Y332394D02*
Y334606D01*
X414961Y332394D02*
Y334606D01*
X412661Y303394D02*
Y305606D01*
X415339*
Y303394*
X412661*
Y303937D02*
X415339D01*
X412661Y304724D02*
X415339D01*
X412661Y305512D02*
X415339D01*
X413386Y303394D02*
Y305606D01*
X414173Y303394D02*
Y305606D01*
X414961Y303394D02*
Y305606D01*
X412661Y308394D02*
Y310606D01*
X415339*
Y308394*
X412661*
Y308661D02*
X415339D01*
X412661Y309449D02*
X415339D01*
X412661Y310236D02*
X415339D01*
X413386Y308394D02*
Y310606D01*
X414173Y308394D02*
Y310606D01*
X414961Y308394D02*
Y310606D01*
X417661Y327394D02*
Y329606D01*
X420339*
Y327394*
X417661*
Y327559D02*
X420339D01*
X417661Y328346D02*
X420339D01*
X417661Y329134D02*
X420339D01*
X418110Y327394D02*
Y329606D01*
X418898Y327394D02*
Y329606D01*
X419685Y327394D02*
Y329606D01*
X417661Y332394D02*
Y334606D01*
X420339*
Y332394*
X417661*
Y333071D02*
X420339D01*
X417661Y333858D02*
X420339D01*
X418110Y332394D02*
Y334606D01*
X418898Y332394D02*
Y334606D01*
X419685Y332394D02*
Y334606D01*
X324291Y198197D02*
Y200165D01*
X329803*
Y198197*
X324291*
Y198425D02*
X329803D01*
X324291Y199213D02*
X329803D01*
X324291Y200000D02*
X329803D01*
X324409Y198197D02*
Y200165D01*
X325197Y198197D02*
Y200165D01*
X325984Y198197D02*
Y200165D01*
X326772Y198197D02*
Y200165D01*
X327559Y198197D02*
Y200165D01*
X328346Y198197D02*
Y200165D01*
X329134Y198197D02*
Y200165D01*
X324291Y192016D02*
Y193984D01*
X329803*
Y192016*
X324291*
Y192126D02*
X329803D01*
X324291Y192913D02*
X329803D01*
X324291Y193701D02*
X329803D01*
X324409Y192016D02*
Y193984D01*
X325197Y192016D02*
Y193984D01*
X325984Y192016D02*
Y193984D01*
X326772Y192016D02*
Y193984D01*
X327559Y192016D02*
Y193984D01*
X328346Y192016D02*
Y193984D01*
X329134Y192016D02*
Y193984D01*
X324291Y185835D02*
Y187803D01*
X329803*
Y185835*
X324291*
Y186614D02*
X329803D01*
X324291Y187402D02*
X329803D01*
X324409Y185835D02*
Y187803D01*
X325197Y185835D02*
Y187803D01*
X325984Y185835D02*
Y187803D01*
X326772Y185835D02*
Y187803D01*
X327559Y185835D02*
Y187803D01*
X328346Y185835D02*
Y187803D01*
X329134Y185835D02*
Y187803D01*
X324291Y156197D02*
Y158165D01*
X329803*
Y156197*
X324291*
Y156693D02*
X329803D01*
X324291Y157480D02*
X329803D01*
X324409Y156197D02*
Y158165D01*
X325197Y156197D02*
Y158165D01*
X325984Y156197D02*
Y158165D01*
X326772Y156197D02*
Y158165D01*
X327559Y156197D02*
Y158165D01*
X328346Y156197D02*
Y158165D01*
X329134Y156197D02*
Y158165D01*
X324291Y150016D02*
Y151984D01*
X329803*
Y150016*
X324291*
Y150394D02*
X329803D01*
X324291Y151181D02*
X329803D01*
X324291Y151969D02*
X329803D01*
X324409Y150016D02*
Y151984D01*
X325197Y150016D02*
Y151984D01*
X325984Y150016D02*
Y151984D01*
X326772Y150016D02*
Y151984D01*
X327559Y150016D02*
Y151984D01*
X328346Y150016D02*
Y151984D01*
X329134Y150016D02*
Y151984D01*
X324291Y143835D02*
Y145803D01*
X329803*
Y143835*
X324291*
Y144094D02*
X329803D01*
X324291Y144882D02*
X329803D01*
X324291Y145669D02*
X329803D01*
X324409Y143835D02*
Y145803D01*
X325197Y143835D02*
Y145803D01*
X325984Y143835D02*
Y145803D01*
X326772Y143835D02*
Y145803D01*
X327559Y143835D02*
Y145803D01*
X328346Y143835D02*
Y145803D01*
X329134Y143835D02*
Y145803D01*
X417661Y303394D02*
Y305606D01*
X420339*
Y303394*
X417661*
Y303937D02*
X420339D01*
X417661Y304724D02*
X420339D01*
X417661Y305512D02*
X420339D01*
X418110Y303394D02*
Y305606D01*
X418898Y303394D02*
Y305606D01*
X419685Y303394D02*
Y305606D01*
X417661Y308394D02*
Y310606D01*
X420339*
Y308394*
X417661*
Y308661D02*
X420339D01*
X417661Y309449D02*
X420339D01*
X417661Y310236D02*
X420339D01*
X418110Y308394D02*
Y310606D01*
X418898Y308394D02*
Y310606D01*
X419685Y308394D02*
Y310606D01*
X392606Y222661D02*
X390394D01*
Y225339*
X392606*
Y222661*
X390394Y222835D02*
X392606D01*
X390394Y223622D02*
X392606D01*
X390394Y224409D02*
X392606D01*
X390394Y225197D02*
X392606D01*
X390551Y222661D02*
Y225339D01*
X391339Y222661D02*
Y225339D01*
X392126Y222661D02*
Y225339D01*
X387606Y222661D02*
X385394D01*
Y225339*
X387606*
Y222661*
X385394Y222835D02*
X387606D01*
X385394Y223622D02*
X387606D01*
X385394Y224409D02*
X387606D01*
X385394Y225197D02*
X387606D01*
X385827Y222661D02*
Y225339D01*
X386614Y222661D02*
Y225339D01*
X387402Y222661D02*
Y225339D01*
X406661Y238394D02*
Y240606D01*
X409339*
Y238394*
X406661*
Y238583D02*
X409339D01*
X406661Y239370D02*
X409339D01*
X406661Y240157D02*
X409339D01*
X407087Y238394D02*
Y240606D01*
X407874Y238394D02*
Y240606D01*
X408661Y238394D02*
Y240606D01*
X406661Y243394D02*
Y245606D01*
X409339*
Y243394*
X406661*
Y244094D02*
X409339D01*
X406661Y244882D02*
X409339D01*
X407087Y243394D02*
Y245606D01*
X407874Y243394D02*
Y245606D01*
X408661Y243394D02*
Y245606D01*
X422394Y230339D02*
X424606D01*
Y227661*
X422394*
Y230339*
Y228346D02*
X424606D01*
X422394Y229134D02*
X424606D01*
X422394Y229921D02*
X424606D01*
X422835Y227661D02*
Y230339D01*
X423622Y227661D02*
Y230339D01*
X424409Y227661D02*
Y230339D01*
X427394D02*
X429606D01*
Y227661*
X427394*
Y230339*
Y228346D02*
X429606D01*
X427394Y229134D02*
X429606D01*
X427394Y229921D02*
X429606D01*
X427559Y227661D02*
Y230339D01*
X428346Y227661D02*
Y230339D01*
X429134Y227661D02*
Y230339D01*
X422394Y225339D02*
X424606D01*
Y222661*
X422394*
Y225339*
Y222835D02*
X424606D01*
X422394Y223622D02*
X424606D01*
X422394Y224409D02*
X424606D01*
X422394Y225197D02*
X424606D01*
X422835Y222661D02*
Y225339D01*
X423622Y222661D02*
Y225339D01*
X424409Y222661D02*
Y225339D01*
X427394D02*
X429606D01*
Y222661*
X427394*
Y225339*
Y222835D02*
X429606D01*
X427394Y223622D02*
X429606D01*
X427394Y224409D02*
X429606D01*
X427394Y225197D02*
X429606D01*
X427559Y222661D02*
Y225339D01*
X428346Y222661D02*
Y225339D01*
X429134Y222661D02*
Y225339D01*
X414394Y207339D02*
X416606D01*
Y204661*
X414394*
Y207339*
Y204724D02*
X416606D01*
X414394Y205512D02*
X416606D01*
X414394Y206299D02*
X416606D01*
X414394Y207087D02*
X416606D01*
X414961Y204661D02*
Y207339D01*
X415748Y204661D02*
Y207339D01*
X416535Y204661D02*
Y207339D01*
X419394D02*
X421606D01*
Y204661*
X419394*
Y207339*
Y204724D02*
X421606D01*
X419394Y205512D02*
X421606D01*
X419394Y206299D02*
X421606D01*
X419394Y207087D02*
X421606D01*
X419685Y204661D02*
Y207339D01*
X420472Y204661D02*
Y207339D01*
X421260Y204661D02*
Y207339D01*
X381394Y241339D02*
X383606D01*
Y238661*
X381394*
Y241339*
Y239370D02*
X383606D01*
X381394Y240157D02*
X383606D01*
X381394Y240945D02*
X383606D01*
X381890Y238661D02*
Y241339D01*
X382677Y238661D02*
Y241339D01*
X383465Y238661D02*
Y241339D01*
X386394D02*
X388606D01*
Y238661*
X386394*
Y241339*
Y239370D02*
X388606D01*
X386394Y240157D02*
X388606D01*
X386394Y240945D02*
X388606D01*
X386614Y238661D02*
Y241339D01*
X387402Y238661D02*
Y241339D01*
X388189Y238661D02*
Y241339D01*
X372394D02*
X374606D01*
Y238661*
X372394*
Y241339*
Y239370D02*
X374606D01*
X372394Y240157D02*
X374606D01*
X372394Y240945D02*
X374606D01*
X372441Y238661D02*
Y241339D01*
X373228Y238661D02*
Y241339D01*
X374016Y238661D02*
Y241339D01*
X377394D02*
X379606D01*
Y238661*
X377394*
Y241339*
Y239370D02*
X379606D01*
X377394Y240157D02*
X379606D01*
X377394Y240945D02*
X379606D01*
X377953Y238661D02*
Y241339D01*
X378740Y238661D02*
Y241339D01*
X379528Y238661D02*
Y241339D01*
X432606Y238661D02*
X430394D01*
Y241339*
X432606*
Y238661*
X430394Y239370D02*
X432606D01*
X430394Y240157D02*
X432606D01*
X430394Y240945D02*
X432606D01*
X430709Y238661D02*
Y241339D01*
X431496Y238661D02*
Y241339D01*
X432283Y238661D02*
Y241339D01*
X427606Y238661D02*
X425394D01*
Y241339*
X427606*
Y238661*
X425394Y239370D02*
X427606D01*
X425394Y240157D02*
X427606D01*
X425394Y240945D02*
X427606D01*
X425984Y238661D02*
Y241339D01*
X426772Y238661D02*
Y241339D01*
X427559Y238661D02*
Y241339D01*
X441606Y238661D02*
X439394D01*
Y241339*
X441606*
Y238661*
X439394Y239370D02*
X441606D01*
X439394Y240157D02*
X441606D01*
X439394Y240945D02*
X441606D01*
X440157Y238661D02*
Y241339D01*
X440945Y238661D02*
Y241339D01*
X436606Y238661D02*
X434394D01*
Y241339*
X436606*
Y238661*
X434394Y239370D02*
X436606D01*
X434394Y240157D02*
X436606D01*
X434394Y240945D02*
X436606D01*
X434646Y238661D02*
Y241339D01*
X435433Y238661D02*
Y241339D01*
X436220Y238661D02*
Y241339D01*
X341024Y187488D02*
X341297Y187512D01*
X341562Y187583*
X341811Y187699*
X342036Y187857*
X342230Y188051*
X342387Y188276*
X342503Y188524*
X342575Y188790*
X342575D02*
X342598Y189063D01*
Y196937*
X342575Y197210*
X342575D02*
X342503Y197476D01*
X342387Y197724*
X342230Y197949*
X342036Y198143*
X341811Y198301*
X341562Y198417*
X341297Y198488*
X341024Y198512*
X335146*
X334900Y198492*
X334659Y198435*
X334431Y198340*
X334220Y198211*
X334033Y198051*
X328982Y193000*
X334033Y187949*
X334220Y187789*
X334431Y187660*
X334659Y187565*
X334900Y187508*
X335146Y187488*
X341024*
X329213Y192769D02*
Y193231D01*
X329606Y192376D02*
Y193624D01*
X330000Y191982D02*
Y194018D01*
X330394Y191588D02*
Y194412D01*
X330787Y191195D02*
Y194805D01*
X331181Y190801D02*
Y195199D01*
X331575Y190407D02*
Y195593D01*
X331969Y190013D02*
Y195987D01*
X332362Y189620D02*
Y196380D01*
X332756Y189226D02*
Y196774D01*
X333150Y188832D02*
Y197168D01*
X333543Y188439D02*
Y197561D01*
X333937Y188045D02*
Y197955D01*
X334331Y187721D02*
Y198279D01*
X334724Y187550D02*
Y198450D01*
X335118Y187490D02*
Y198510D01*
X335512Y187488D02*
Y198512D01*
X335906Y187488D02*
Y198512D01*
X336299Y187488D02*
Y198512D01*
X336693Y187488D02*
Y198512D01*
X337087Y187488D02*
Y198512D01*
X337480Y187488D02*
Y198512D01*
X337874Y187488D02*
Y198512D01*
X338268Y187488D02*
Y198512D01*
X338661Y187488D02*
Y198512D01*
X339055Y187488D02*
Y198512D01*
X339449Y187488D02*
Y198512D01*
X339843Y187488D02*
Y198512D01*
X340236Y187488D02*
Y198512D01*
X340630Y187488D02*
Y198512D01*
X341024Y187488D02*
Y198512D01*
X341417Y187544D02*
Y198456D01*
X341811Y187699D02*
Y198301D01*
X342205Y188025D02*
Y197975D01*
X341024Y145488D02*
X341297Y145512D01*
X341562Y145583*
X341811Y145699*
X342036Y145857*
X342230Y146051*
X342387Y146276*
X342503Y146524*
X342575Y146790*
X342575D02*
X342598Y147063D01*
Y154937*
X342575Y155210*
X342575D02*
X342503Y155476D01*
X342387Y155724*
X342230Y155949*
X342036Y156143*
X341811Y156301*
X341562Y156417*
X341297Y156488*
X341024Y156512*
X335146*
X334900Y156492*
X334659Y156435*
X334431Y156340*
X334220Y156211*
X334033Y156051*
X328982Y151000*
X334033Y145949*
X334220Y145789*
X334431Y145660*
X334659Y145565*
X334900Y145508*
X335146Y145488*
X341024*
X329213Y150769D02*
Y151231D01*
X329606Y150376D02*
Y151624D01*
X330000Y149982D02*
Y152018D01*
X330394Y149588D02*
Y152412D01*
X330787Y149195D02*
Y152805D01*
X331181Y148801D02*
Y153199D01*
X331575Y148407D02*
Y153593D01*
X331969Y148013D02*
Y153987D01*
X332362Y147620D02*
Y154380D01*
X332756Y147226D02*
Y154774D01*
X333150Y146832D02*
Y155168D01*
X333543Y146439D02*
Y155561D01*
X333937Y146045D02*
Y155955D01*
X334331Y145721D02*
Y156279D01*
X334724Y145550D02*
Y156450D01*
X335118Y145490D02*
Y156510D01*
X335512Y145488D02*
Y156512D01*
X335906Y145488D02*
Y156512D01*
X336299Y145488D02*
Y156512D01*
X336693Y145488D02*
Y156512D01*
X337087Y145488D02*
Y156512D01*
X337480Y145488D02*
Y156512D01*
X337874Y145488D02*
Y156512D01*
X338268Y145488D02*
Y156512D01*
X338661Y145488D02*
Y156512D01*
X339055Y145488D02*
Y156512D01*
X339449Y145488D02*
Y156512D01*
X339843Y145488D02*
Y156512D01*
X340236Y145488D02*
Y156512D01*
X340630Y145488D02*
Y156512D01*
X341024Y145488D02*
Y156512D01*
X341417Y145544D02*
Y156456D01*
X341811Y145699D02*
Y156301D01*
X342205Y146025D02*
Y155975D01*
G54D13*
X335866Y304134D02*
X344134D01*
Y295866*
X335866*
Y304134*
Y296850D02*
X344134D01*
X335866Y298425D02*
X344134D01*
X335866Y300000D02*
X344134D01*
X335866Y301575D02*
X344134D01*
X335866Y303150D02*
X344134D01*
X336220Y295866D02*
Y304134D01*
X337795Y295866D02*
Y304134D01*
X339370Y295866D02*
Y304134D01*
X340945Y295866D02*
Y304134D01*
X342520Y295866D02*
Y304134D01*
X344094Y295866D02*
Y304134D01*
G54D35*
X374350Y128000D02*
Y144350D01*
X385000Y155000*
X385000*
X301700Y138000D02*
X313650D01*
Y175500*
X380350Y174000D02*
X380350D01*
X385000Y169350*
Y165600*
X385000*
Y155000*
X317900Y179900D02*
G75*
G03X313650Y175500I153J-4400D01*
G01X327000Y175000D02*
Y172350D01*
X317900Y179900D02*
X318000Y180000D01*
X319650*
X326350D02*
X327000Y179350D01*
Y175000*
X301000Y208000D02*
X313650D01*
X327047Y200900D02*
G03X327059Y201291I-6697J391D01*
X320350Y208000I-6709J0*
G01X377000Y251000D02*
X383834Y244166D01*
X386034*
X387300Y242900*
Y240500*
X301000Y283300D02*
Y290000D01*
X343000Y283500D02*
X346300D01*
X347500Y282300*
X301000Y310000D02*
Y316300D01*
X331700Y322000D02*
Y313000D01*
Y312600*
X358600Y311500D02*
X363800Y316700D01*
Y329900*
X331700Y322000D02*
Y328700D01*
X331900Y328900*
X344400D02*
X347200D01*
X357946Y339646*
X359769*
Y339769*
X360000Y340000*
X360700D02*
X363800Y336900D01*
Y329900*
X360350Y340350D02*
X365800Y345800D01*
X376400*
X391700Y330500*
X360700Y340000D02*
X360350Y340350D01*
X360000Y340000*
X412300D02*
X419300D01*
X423500Y335800*
Y328500*
G54D36*
X304724Y111811D02*
X345900D01*
Y121550*
X346000Y121650*
X337000Y132000D02*
X342550D01*
X346000Y128550*
Y128350*
X353000*
X346000Y121650D02*
X353000D01*
X360000Y128350D02*
X367300D01*
X367650Y128000*
X360000Y121650D02*
X378750D01*
X385000Y127900*
Y145000*
X353000Y128350D02*
X360000D01*
X353000Y121650D02*
X360000D01*
X301000Y148000D02*
Y154900D01*
X323425Y141075D02*
X329100Y135400D01*
Y132000*
X319100Y151000D02*
X327047D01*
X352000*
Y159000*
Y167650*
X366000Y174350D02*
X373300D01*
X373650Y174000*
X359000Y174350D02*
X366000D01*
X359000Y167650D02*
X366000D01*
X352000Y174350D02*
X359000D01*
X352000Y167650D02*
X359000D01*
X301000Y191600D02*
Y198000D01*
X327100Y175000D02*
X336100D01*
X343900D02*
X351350D01*
X352000Y174350*
X301000Y198000D02*
X314200D01*
Y193000*
X327047*
X388800Y213000D02*
Y212300D01*
X394400Y206700*
X399300Y201800*
X401000*
X420500Y201700D02*
Y206000D01*
X415500Y201800D02*
Y206000D01*
X301000Y218000D02*
Y223800D01*
X383300Y227200D02*
X386500Y224000D01*
X391500Y224221D02*
Y224000D01*
X388800Y227900D02*
X389700D01*
X391500Y226100*
Y224221*
X423500Y228768D02*
Y224000D01*
Y229000D02*
Y237700D01*
X428500Y224000D02*
Y229000D01*
Y233300*
X373500Y244300D02*
Y240000D01*
X387500Y240100D02*
X389400Y242000D01*
X394800*
X387500Y240000D02*
Y229000D01*
X388600Y227900*
X388800*
X404200Y242000D02*
X406700Y239500D01*
X407900*
X423700Y237800D02*
X424300D01*
X426500Y240000*
X415800Y237800D02*
X423600D01*
X408000Y244500D02*
X412200D01*
X440500Y240000D02*
Y244500D01*
X315300Y293000D02*
X319500D01*
X324500Y288000D02*
Y293000D01*
X328300Y296800*
X339016Y283500D02*
X342150D01*
X343000D02*
X342500D01*
X342150*
X338000Y274400D02*
Y278500D01*
X343000*
X338000Y283500D02*
X339016D01*
X359500Y294000D02*
X363400D01*
X354500D02*
Y289000D01*
X401100Y289500D02*
X406630D01*
X327400Y309400D02*
Y312300D01*
X327500Y312400*
Y312768*
X327400Y309400D02*
Y307621D01*
X329121Y305900*
X321900Y296900D02*
X324500Y294300D01*
Y293000*
X322500Y313000D02*
Y317300D01*
X327500Y313000D02*
X331700D01*
X350489Y305811D02*
X351679Y307000D01*
X354500*
X352366Y296366D02*
X354316Y294416D01*
X354500Y294232*
X354316Y294416D02*
X358600Y298700D01*
X347900Y312300D02*
Y312332D01*
X350835Y315267*
X359500Y307000D02*
X361200D01*
X363600Y309400*
X354500Y307000D02*
Y309000D01*
X357000Y311500*
X358600*
X380000Y304500D02*
X385370D01*
X400900Y313500D02*
X406630D01*
Y304500D02*
X414000D01*
X409800Y309500D02*
X414000D01*
X419000Y304500D02*
X423500D01*
X414000Y309500D02*
X419000D01*
X414000Y304500D02*
X419000D01*
X327500Y322000D02*
X331700D01*
X349165Y324733D02*
Y324765D01*
X352100Y327700*
X379900Y328500D02*
X385370D01*
X406630D02*
X414000D01*
X419000D02*
X423500D01*
X414000Y333500D02*
X419000D01*
X414000Y328500D02*
X414150Y328650D01*
X419150*
X397244Y344094D02*
X407838Y333500D01*
X414000*
G54D48*
X350000Y340000D03*
X340000D03*
X330000D03*
X320000D03*
X310000Y320000D03*
X320000Y280000D03*
X360000D03*
X370000Y300000D03*
Y310000D03*
X360000Y270000D03*
X350000D03*
X330000D03*
X320000D03*
X315000Y300000D03*
Y309000D03*
X370000Y340000D03*
X360000D03*
X430000Y320000D03*
Y310000D03*
Y300000D03*
Y290000D03*
X385000Y145000D03*
Y155000D03*
X397000Y251000D03*
X387000D03*
X377000Y221000D03*
Y211000D03*
X417000Y251000D03*
X427000D03*
X437000Y221000D03*
Y211000D03*
X377000Y231000D03*
X437000D03*
X387000Y191000D03*
X397000D03*
X407000D03*
X417000D03*
X427000D03*
X407000Y251000D03*
X466000Y210000D03*
X460000Y204000D03*
X445000Y189000D03*
X439000Y183000D03*
X377000Y251000D03*
X367000D03*
G54D61*
X451042Y183761D02*
X464961Y169842D01*
X444639Y177358D02*
X458558Y163439D01*
X478958Y183639D02*
X465039Y197558D01*
X485361Y190042D02*
X471442Y203961D01*
G54D89*
X373650Y174000D03*
X380350D03*
X367650Y128000D03*
X374350D03*
G54D90*
X336100Y175000D03*
X343900D03*
X329100Y132000D03*
X336900D03*
G54D102*
X332421Y304921D03*
Y302953D03*
Y300984D03*
Y299016D03*
Y297047D03*
Y295079D03*
X347579D03*
Y297047D03*
Y299016D03*
Y300984D03*
Y302953D03*
Y304921D03*
X397354Y227890D03*
Y225921D03*
Y223953D03*
Y221984D03*
Y220016D03*
Y218047D03*
Y216079D03*
Y214110D03*
X416646D03*
Y216079D03*
Y218047D03*
Y220016D03*
Y221984D03*
Y223953D03*
Y225921D03*
Y227890D03*
G54D103*
X344921Y307579D03*
X342953D03*
X340984D03*
X339016D03*
X337047D03*
X335079D03*
Y292421D03*
X337047D03*
X339016D03*
X340984D03*
X342953D03*
X344921D03*
X400110Y211354D03*
X402079D03*
X404047D03*
X406016D03*
X407984D03*
X409953D03*
X411921D03*
X413890D03*
Y230646D03*
X411921D03*
X409953D03*
X407984D03*
X406016D03*
X404047D03*
X402079D03*
X400110D03*
G54D147*
X489096Y239764D02*
G03X489096I-7206J0D01*
G01X398220Y110468D02*
G03X398220I-7206J0D01*
G01X491200Y205805D02*
Y248036D01*
G03X482236Y257000I-9482J-518*
G01X440400*
X438632Y257732D02*
G03X440400Y257000I1768J1768D01*
G01X438632Y257732D02*
X434832Y261532D01*
X434100Y263300D02*
G03X434832Y261532I2500J-0D01*
G01X434100Y263300D02*
Y286802D01*
X425151Y291879D02*
G03X434100Y286802I4849J-1879D01*
G01X425151Y291879D02*
X424630Y292400D01*
X410374*
X408402Y291619D02*
G03X410374Y292400I-0J2881D01*
G01X408402Y291619D02*
X404858D01*
X402886Y292400D02*
G03X404858Y291619I1972J2100D01*
G01X402886Y292400D02*
X398500D01*
X397015Y293015D02*
G03X398500Y292400I1485J1485D01*
G01X397015Y293015D02*
X392630Y297400D01*
X389114*
X388574Y297000D02*
G03X389114Y297400I-1432J2500D01*
G01X388574Y292000D02*
G03Y297000I-1432J2500D01*
G01X387142Y286619D02*
G03X388574Y292000I-0J2881D01*
G01X387142Y286619D02*
X383598D01*
X380719Y289410D02*
G03X383598Y286619I2879J90D01*
G01X380719Y289410D02*
X376929Y293200D01*
X367300*
X365815Y293815D02*
G03X367300Y293200I1485J1485D01*
G01X365815Y293815D02*
X364415Y295215D01*
X361284Y296780D02*
G03X364415Y295215I2816J1720D01*
G01X359168Y295449D02*
G03X361284Y296780I-568J3251D01*
G01X359168Y295449D02*
X357700Y293982D01*
Y292661*
X357669Y292303D02*
G03X357700Y292661I-2063J358D01*
G01X358394Y292432D02*
G03X357669Y292303I-0J-2093D01*
G01X358394Y292432D02*
X360606D01*
X362700Y290339D02*
G03X360606Y292432I-2094J-0D01*
G01X362700Y290339D02*
Y287661D01*
X361600Y285819D02*
G03X362700Y287661I-994J1842D01*
G01X361600Y285819D02*
Y284948D01*
X361428Y275000D02*
G03X361600Y284948I-1428J5000D01*
G01X355000Y268572D02*
G03X361428Y275000I5000J1428D01*
G01X348200Y274879D02*
G03X355000Y268572I1800J-4879D01*
G01X348200Y274879D02*
Y279075D01*
X344875Y280300D02*
G03X348200Y279075I2625J2000D01*
G01X344875Y280300D02*
X343000D01*
X341661*
X340500Y280652D02*
G03X341661Y280300I1161J1742D01*
G01X339339D02*
G03X340500Y280652I-0J2094D01*
G01X339339Y280300D02*
X336661D01*
X334568Y282394D02*
G03X336661Y280300I2093J-0D01*
G01X334568Y282394D02*
Y283598D01*
X333900Y282930*
Y273900*
X333859Y273486D02*
G03X333900Y273900I-2059J414D01*
G01X325000Y268572D02*
G03X333859Y273486I5000J1428D01*
G01X318572Y275000D02*
G03X325000Y268572I1428J-5000D01*
G01X317727Y284677D02*
G03X318572Y275000I2273J-4677D01*
G01X316300Y286661D02*
G03X317727Y284677I2094J0D01*
G01X316300Y286661D02*
Y289339D01*
X318394Y291432D02*
G03X316300Y289339I-0J-2093D01*
G01X318394Y291432D02*
X320606D01*
X321331Y291303D02*
G03X320606Y291432I-725J-1964D01*
G01X321300Y291661D02*
G03X321331Y291303I2094J0D01*
G01X321300Y291661D02*
Y293655D01*
X318655Y296301D02*
G03X321300Y293655I3245J599D01*
G01X310483Y297423D02*
G03X318655Y296301I4517J2577D01*
G01X307400Y295300D02*
G03X310483Y297423I0J3300D01*
G01X307400Y295300D02*
X294600D01*
X293900Y295375D02*
G03X294600Y295300I700J3225D01*
G01X293900Y295375D02*
Y212625D01*
X294600Y212700D02*
G03X293900Y212625I0J-3300D01*
G01X294600Y212700D02*
X307400D01*
X310166Y211200D02*
G03X307400Y212700I-2766J-1800D01*
G01X310166Y211200D02*
X310601D01*
X311900Y211650D02*
G03X310601Y211200I0J-2100D01*
G01X311900Y211650D02*
X315400D01*
X317000Y210910D02*
G03X315400Y211650I-1600J-1360D01*
G01X318600D02*
G03X317000Y210910I0J-2100D01*
G01X318600Y211650D02*
X322100D01*
X323964Y210517D02*
G03X322100Y211650I-1864J-967D01*
G01X330215Y202218D02*
G03X323964Y210517I-9865J-927D01*
G01X331897Y200165D02*
G03X330215Y202218I-2094J0D01*
G01X331897Y200165D02*
Y198197D01*
X329803Y196103D02*
G03X331897Y198197I0J2094D01*
G01X329803Y196103D02*
X327416D01*
X326678D02*
G03X327416I369J3078D01*
G01X326678D02*
X324291D01*
X322198Y198197D02*
G03X324291Y196103I2093J-0D01*
G01X322198Y198197D02*
Y200165D01*
X323743Y202186D02*
G03X322198Y200165I548J-2021D01*
G01X323743Y202186D02*
G03X322069Y204350I-3393J-895D01*
G01X318600*
X317000Y205090D02*
G03X318600Y204350I1600J1360D01*
G01X315400D02*
G03X317000Y205090I0J2100D01*
G01X315400Y204350D02*
X311900D01*
X310601Y204800D02*
G03X311900Y204350I1299J1650D01*
G01X310601Y204800D02*
X310166D01*
X307400Y203300D02*
G03X310166Y204800I0J3300D01*
G01X307400Y203300D02*
X294600D01*
X293900Y203375D02*
G03X294600Y203300I700J3225D01*
G01X293900Y203375D02*
Y142625D01*
X294600Y142700D02*
G03X293900Y142625I0J-3300D01*
G01X294600Y142700D02*
X307400D01*
X310166Y141200D02*
G03X307400Y142700I-2766J-1800D01*
G01X310166Y141200D02*
X310450D01*
Y175500*
X316287Y182895D02*
G03X310450Y175500I1766J-7395D01*
G01X317900Y183650D02*
G03X316287Y182895I0J-2100D01*
G01X317900Y183650D02*
X321400D01*
X323000Y182910D02*
G03X321400Y183650I-1600J-1360D01*
G01X323250Y183159D02*
G03X323000Y182910I1350J-1609D01*
G01X323250Y183159D02*
Y184018D01*
X322198Y185835D02*
G03X323250Y184018I2093J-0D01*
G01X322198Y185835D02*
Y187803D01*
X324291Y189897D02*
G03X322198Y187803I0J-2094D01*
G01X324291Y189897D02*
X326678D01*
X327416D02*
G03X326678I-369J-3078D01*
G01X327416D02*
X329803D01*
X331897Y187803D02*
G03X329803Y189897I-2094J0D01*
G01X331897Y187803D02*
Y185835D01*
X329803Y183741D02*
G03X331897Y185835I0J2094D01*
G01X329803Y183741D02*
X329450D01*
Y183159*
X330200Y181550D02*
G03X329450Y183159I-2100J0D01*
G01X330200Y181550D02*
Y179350D01*
Y178450*
Y177700*
X332027*
X333700Y179100D02*
G03X332027Y177700I0J-1700D01*
G01X333700Y179100D02*
X338500D01*
X340000Y178200D02*
G03X338500Y179100I-1500J-800D01*
G01X341500D02*
G03X340000Y178200I0J-1700D01*
G01X341500Y179100D02*
X346300D01*
X347973Y177700D02*
G03X346300Y179100I-1673J-300D01*
G01X347973Y177700D02*
X349090D01*
X350450Y178200D02*
G03X349090Y177700I0J-2100D01*
G01X350450Y178200D02*
X353550D01*
X355423Y177050D02*
G03X353550Y178200I-1873J-950D01*
G01X355423Y177050D02*
X355577D01*
X357450Y178200D02*
G03X355577Y177050I0J-2100D01*
G01X357450Y178200D02*
X360550D01*
X362423Y177050D02*
G03X360550Y178200I-1873J-950D01*
G01X362423Y177050D02*
X362577D01*
X364450Y178200D02*
G03X362577Y177050I0J-2100D01*
G01X364450Y178200D02*
X367550D01*
X369423Y177050D02*
G03X367550Y178200I-1873J-950D01*
G01X369423Y177050D02*
X370204D01*
X371500Y177650D02*
G03X370204Y177050I0J-1700D01*
G01X371500Y177650D02*
X375800D01*
X377000Y177154D02*
G03X375800Y177650I-1200J-1204D01*
G01X378200D02*
G03X377000Y177154I0J-1700D01*
G01X378200Y177650D02*
X382500D01*
X384200Y175950D02*
G03X382500Y177650I-1700J0D01*
G01X384200Y175950D02*
Y174675D01*
X387263Y171613*
X388200Y169350D02*
G03X387263Y171613I-3200J0D01*
G01X388200Y169350D02*
Y165600D01*
Y159099*
X384364Y149839D02*
G03X388200Y159099I636J5161D01*
G01X384364Y149839D02*
X377550Y143025D01*
Y131287*
X378200Y129950D02*
G03X377550Y131287I-1700J0D01*
G01X378200Y129950D02*
Y126050D01*
X376500Y124350D02*
G03X378200Y126050I0J1700D01*
G01X376500Y124350D02*
X372200D01*
X371000Y124846D02*
G03X372200Y124350I1200J1204D01*
G01X369800D02*
G03X371000Y124846I0J1700D01*
G01X369800Y124350D02*
X365500D01*
X363848Y125650D02*
G03X365500Y124350I1652J400D01*
G01X363848Y125650D02*
X363423D01*
X361550Y124500D02*
G03X363423Y125650I0J2100D01*
G01X361550Y124500D02*
X358450D01*
X356577Y125650D02*
G03X358450Y124500I1873J950D01*
G01X356577Y125650D02*
X356423D01*
X354550Y124500D02*
G03X356423Y125650I0J2100D01*
G01X354550Y124500D02*
X351450D01*
X349577Y125650D02*
G03X351450Y124500I1873J950D01*
G01X349577Y125650D02*
X349423D01*
X347550Y124500D02*
G03X349423Y125650I0J2100D01*
G01X347550Y124500D02*
X344450D01*
X342350Y126600D02*
G03X344450Y124500I2100J0D01*
G01X342350Y126600D02*
Y128382D01*
X341432Y129300*
X340973*
X339300Y127900D02*
G03X340973Y129300I0J1700D01*
G01X339300Y127900D02*
X334500D01*
X333000Y128800D02*
G03X334500Y127900I1500J800D01*
G01X331500D02*
G03X333000Y128800I0J1700D01*
G01X331500Y127900D02*
X326700D01*
X325000Y129600D02*
G03X326700Y127900I1700J0D01*
G01X325000Y129600D02*
Y134400D01*
X325307Y135375D02*
G03X325000Y134400I1393J-975D01*
G01X325307Y135375D02*
X324200Y136482D01*
Y136450*
X322100Y134350D02*
G03X324200Y136450I0J2100D01*
G01X322100Y134350D02*
X318600D01*
X317000Y135090D02*
G03X318600Y134350I1600J1360D01*
G01X315400D02*
G03X317000Y135090I0J2100D01*
G01X315400Y134350D02*
X311900D01*
X310601Y134800D02*
G03X311900Y134350I1299J1650D01*
G01X310601Y134800D02*
X310166D01*
X307400Y133300D02*
G03X310166Y134800I0J3300D01*
G01X307400Y133300D02*
X294600D01*
X293900Y133375D02*
G03X294600Y133300I700J3225D01*
G01X293900Y133375D02*
Y102500D01*
X388084*
G03X398736Y106971I-202J15404*
G01X452895Y161130*
X440653Y173372*
X439019Y177800D02*
G03X440653Y173372I5620J-442D01*
G01X439874Y188126D02*
G03X439019Y177800I-874J-5126D01*
G01X450189Y189333D02*
G03X439874Y188126I-5189J-333D01*
G01X455028Y187747D02*
G03X450189Y189333I-3986J-3986D01*
G01X455028Y187747D02*
X467320Y175455D01*
X473245Y181380*
X461053Y193572*
X459545Y198820D02*
G03X461053Y193572I5494J-1262D01*
G01X460874Y209126D02*
G03X459545Y198820I-874J-5126D01*
G01X471184Y209592D02*
G03X460874Y209126I-5184J408D01*
G01X475428Y207947D02*
G03X471184Y209592I-3986J-3986D01*
G01X475428Y207947D02*
X487532Y195843D01*
G03X491200Y205805I-11854J10022*
G01X433400Y234752D02*
G03X432151Y229121I3600J-3752D01*
G01X433400Y234752D02*
Y236724D01*
X432606Y236568D02*
G03X433400Y236724I0J2093D01*
G01X432606Y236568D02*
X430394D01*
X429000Y237099D02*
G03X430394Y236568I1394J1562D01*
G01X427606D02*
G03X429000Y237099I0J2093D01*
G01X427606Y236568D02*
X426886D01*
X426209Y235891*
X426200Y235882D02*
G03X426209Y235891I-1900J1918D01*
G01X426200Y235882D02*
Y231696D01*
X426700Y230339D02*
G03X426200Y231696I-2094J-0D01*
G01X426700Y230339D02*
Y227661D01*
X426348Y226500D02*
G03X426700Y227661I-1742J1161D01*
G01Y225339D02*
G03X426348Y226500I-2094J-0D01*
G01X426700Y225339D02*
Y222661D01*
X426628Y222116D02*
G03X426700Y222661I-2022J545D01*
G01X426628Y222116D02*
X428346D01*
X430300Y224070*
Y226400*
X430915Y227885D02*
G03X430300Y226400I1485J-1485D01*
G01X430915Y227885D02*
X432151Y229121D01*
X420800Y231696D02*
Y235100D01*
X417697*
X414559Y234742D02*
G03X417697Y235100I1241J3058D01*
G01X414085Y234015D02*
G03X414559Y234742I-1485J1485D01*
G01X414085Y234015D02*
X414021Y233951D01*
Y232456*
X414113Y231827D02*
G03X414021Y232456I-2192J-0D01*
G01X414113Y231827D02*
Y229465D01*
X410937Y227506D02*
G03X414113Y229465I984J1959D01*
G01X408969Y227506D02*
G03X410937I984J1959D01*
G01X407000D02*
G03X408969I984J1959D01*
G01X405031D02*
G03X407000I985J1959D01*
G01X403063D02*
G03X405031I984J1959D01*
G01X399887Y229465D02*
G03X403063Y227506I2192J-0D01*
G01X399887Y229465D02*
Y231544D01*
X396115Y235315*
X395500Y236800D02*
G03X396115Y235315I2100J0D01*
G01X395500Y236800D02*
Y238775D01*
X392903Y239300D02*
G03X395500Y238775I1897J2700D01*
G01X392903Y239300D02*
X390700D01*
Y238661*
X390200Y237304D02*
G03X390700Y238661I-1594J1357D01*
G01X390200Y237304D02*
Y230888D01*
X391250Y230111D02*
G03X390200Y230888I-2450J-2211D01*
G01X391609Y229809D02*
G03X391250Y230111I-1909J-1909D01*
G01X391609Y229809D02*
X393397Y228021D01*
X395544*
X396173Y228113D02*
G03X395544Y228021I0J-2192D01*
G01X396173Y228113D02*
X398535D01*
X399500Y223953D02*
G03X398535Y228113I-965J1968D01*
G01X400494Y221000D02*
G03X399500Y223953I-1959J984D01*
G01X400494Y219031D02*
G03Y221000I-1959J985D01*
G01Y217063D02*
G03Y219031I-1959J984D01*
G01X398535Y213887D02*
G03X400494Y217063I0J2192D01*
G01X398535Y213887D02*
X396173D01*
X395544Y213979D02*
G03X396173Y213887I629J2100D01*
G01X395544Y213979D02*
X391952D01*
X392095Y212823D02*
G03X391952Y213979I-3295J177D01*
G01X392095Y212823D02*
X396309Y208609D01*
X399980Y204938*
X401947Y204961D02*
G03X399980Y204938I-947J-3161D01*
G01X401947Y204961D02*
Y209544D01*
X401855Y210173D02*
G03X401947Y209544I2192J0D01*
G01X401855Y210173D02*
Y212535D01*
X405031Y214494D02*
G03X401855Y212535I-984J-1959D01*
G01X407000Y214494D02*
G03X405031I-984J-1959D01*
G01X408969D02*
G03X407000I-985J-1959D01*
G01X410937D02*
G03X408969I-984J-1959D01*
G01X412906D02*
G03X410937I-985J-1959D01*
G01X413742Y214723D02*
G03X412906Y214494I148J-2188D01*
G01X413506Y217063D02*
G03X413742Y214723I1959J-984D01*
G01X413506Y219031D02*
G03Y217063I1959J-984D01*
G01Y221000D02*
G03Y219031I1959J-984D01*
G01Y222969D02*
G03Y221000I1959J-985D01*
G01Y224937D02*
G03Y222969I1959J-984D01*
G01X415465Y228113D02*
G03X413506Y224937I-0J-2192D01*
G01X415465Y228113D02*
X417827D01*
X418456Y228021D02*
G03X417827Y228113I-629J-2100D01*
G01X418456Y228021D02*
X419784D01*
X420300Y228538*
Y230339*
X420800Y231696D02*
G03X420300Y230339I1594J-1357D01*
G01X414900Y246170D02*
Y246243D01*
X412000Y249572D02*
G03X414900Y246243I5000J1428D01*
G01X405121Y246151D02*
G03X412000Y249572I1879J4849D01*
G01X405121Y246151D02*
X404269Y245299D01*
X407425Y242700D02*
G03X404269Y245299I-3225J-700D01*
G01X407425Y242700D02*
X409339D01*
X410818Y242088D02*
G03X409339Y242700I-1479J-1482D01*
G01X410818Y242088D02*
X414900Y246170D01*
X386654Y222116D02*
X388372D01*
X388300Y222661D02*
G03X388372Y222116I2094J0D01*
G01X388300Y222661D02*
Y224638D01*
X385604Y227077D02*
G03X388300Y224638I3196J823D01*
G01X385604Y227077D02*
X385591Y227091D01*
X384800Y229000D02*
G03X385591Y227091I2700J0D01*
G01X384800Y229000D02*
Y236941D01*
X383606Y236568D02*
G03X384800Y236941I0J2093D01*
G01X383606Y236568D02*
X381394D01*
X380600Y236724D02*
G03X381394Y236568I794J1937D01*
G01X380600Y236724D02*
Y234752D01*
X381042Y227728D02*
G03X380600Y234752I-4042J3272D01*
G01X381042Y227728D02*
X386654Y222116D01*
X428572Y305000D02*
G03X426773Y304077I1428J-5000D01*
G01X425151Y311879D02*
G03X428572Y305000I4849J-1879D01*
G01X425151Y311879D02*
X420630Y316400D01*
X410374*
X408402Y315619D02*
G03X410374Y316400I-0J2881D01*
G01X408402Y315619D02*
X404858D01*
X402886Y316400D02*
G03X404858Y315619I1972J2100D01*
G01X402886Y316400D02*
X398500D01*
X397015Y317015D02*
G03X398500Y316400I1485J1485D01*
G01X397015Y317015D02*
X392630Y321400D01*
X389114*
X388574Y321000D02*
G03X389114Y321400I-1432J2500D01*
G01X388574Y316000D02*
G03Y321000I-1432J2500D01*
G01X387142Y310619D02*
G03X388574Y316000I-0J2881D01*
G01X387142Y310619D02*
X383687D01*
X382983Y309915*
X382555Y309585D02*
G03X382983Y309915I-1057J1815D01*
G01X382555Y309585D02*
X375070Y302100D01*
X378098*
X379583Y301485D02*
G03X378098Y302100I-1485J-1485D01*
G01X379583Y301485D02*
X380817Y300251D01*
X383598Y302381D02*
G03X380817Y300251I0J-2881D01*
G01X383598Y302381D02*
X387142D01*
X389114Y301600D02*
G03X387142Y302381I-1972J-2100D01*
G01X389114Y301600D02*
X393500D01*
X394985Y300985D02*
G03X393500Y301600I-1485J-1485D01*
G01X394985Y300985D02*
X399370Y296600D01*
X402886*
X403426Y297000D02*
G03X402886Y296600I1432J-2500D01*
G01X403426Y302000D02*
G03Y297000I1432J-2500D01*
G01X404858Y307381D02*
G03X403426Y302000I0J-2881D01*
G01X404858Y307381D02*
X408402D01*
X409407Y307200D02*
G03X408402Y307381I-1005J-2700D01*
G01X409407Y307200D02*
X411304D01*
X412661Y307700D02*
G03X411304Y307200I0J-2094D01*
G01X412661Y307700D02*
X415339D01*
X416500Y307348D02*
G03X415339Y307700I-1161J-1742D01*
G01X417661D02*
G03X416500Y307348I0J-2094D01*
G01X417661Y307700D02*
X420339D01*
X421654Y307235D02*
G03X420339Y307700I-1315J-1629D01*
G01X426773Y304077D02*
G03X421654Y307235I-3273J423D01*
G01X434100Y323198D02*
Y344565D01*
G03X425265Y353400I-9110J-275*
G01X293900*
Y304625*
X294600Y304700D02*
G03X293900Y304625I0J-3300D01*
G01X294600Y304700D02*
X307400D01*
X310483Y302577D02*
G03X307400Y304700I-3083J-1177D01*
G01X312394Y304500D02*
G03X310483Y302577I2606J-4500D01*
G01X317600Y313503D02*
G03X312394Y304500I-2600J-4503D01*
G01X317600Y313503D02*
Y316530D01*
X316230Y317900*
X314757*
Y322100D02*
G03Y317900I-4757J-2100D01*
G01Y322100D02*
X316230D01*
X317615Y323485*
X319100Y324100D02*
G03X317615Y323485I0J-2100D01*
G01X319100Y324100D02*
X319443D01*
X321394Y325432D02*
G03X319443Y324100I-0J-2093D01*
G01X321394Y325432D02*
X323606D01*
X325000Y324901D02*
G03X323606Y325432I-1394J-1562D01*
G01X326394D02*
G03X325000Y324901I-0J-2093D01*
G01X326394Y325432D02*
X328500D01*
Y328700*
X328840Y330135D02*
G03X328500Y328700I2860J-1435D01*
G01X331460Y332171D02*
G03X328840Y330135I440J-3271D01*
G01X331460Y332171D02*
X331330Y332300D01*
X325600*
X324115Y332915D02*
G03X325600Y332300I1485J1485D01*
G01X324115Y332915D02*
X321879Y335151D01*
X325000Y341428D02*
G03X321879Y335151I-5000J-1428D01*
G01X335000Y341428D02*
G03X325000I-5000J-1428D01*
G01X345000D02*
G03X335000I-5000J-1428D01*
G01X355000D02*
G03X345000I-5000J-1428D01*
G01X360636Y345161D02*
G03X355000Y341428I-636J-5161D01*
G01X360636Y345161D02*
X363537Y348063D01*
X365800Y349000D02*
G03X363537Y348063I0J-3200D01*
G01X365800Y349000D02*
X376400D01*
X378663Y348063D02*
G03X376400Y349000I-2263J-2263D01*
G01X378663Y348063D02*
X393393Y333333D01*
X388867Y328807D02*
G03X393393Y333333I2833J1693D01*
G01X388867Y328807D02*
X375075Y342600D01*
X367125*
X365161Y340636*
X365200Y340026D02*
G03X365161Y340636I-5200J-26D01*
G01X365200Y340026D02*
X366063Y339163D01*
X367000Y336900D02*
G03X366063Y339163I-3200J0D01*
G01X367000Y336900D02*
Y329900D01*
Y316700*
X366063Y314437D02*
G03X367000Y316700I-2263J2263D01*
G01X366063Y314437D02*
X361433Y309807D01*
X357700Y308325D02*
G03X361433Y309807I900J3175D01*
G01X357700Y308325D02*
Y305661D01*
X357669Y305300D02*
G03X357700Y305661I-2063J361D01*
G01X357669Y305300D02*
X361455D01*
X365015Y307985D02*
G03X361455Y305300I-315J-3285D01*
G01X365015Y307985D02*
X365151Y308121D01*
X374584Y312455D02*
G03X365151Y308121I-4584J-2455D01*
G01X374584Y312455D02*
X380719Y318590D01*
X382166Y321000D02*
G03X380719Y318590I1432J-2500D01*
G01X383598Y326381D02*
G03X382166Y321000I0J-2881D01*
G01X383598Y326381D02*
X387142D01*
X389114Y325600D02*
G03X387142Y326381I-1972J-2100D01*
G01X389114Y325600D02*
X393500D01*
X394985Y324985D02*
G03X393500Y325600I-1485J-1485D01*
G01X394985Y324985D02*
X399370Y320600D01*
X402886*
X403426Y321000D02*
G03X402886Y320600I1432J-2500D01*
G01X403426Y326000D02*
G03Y321000I1432J-2500D01*
G01X404858Y331381D02*
G03X403426Y326000I0J-2881D01*
G01X404858Y331381D02*
X408402D01*
X409407Y331200D02*
G03X408402Y331381I-1005J-2700D01*
G01X409407Y331200D02*
X411304D01*
X412661Y331700D02*
G03X411304Y331200I0J-2094D01*
G01X412661Y331700D02*
X415339D01*
X416498Y331350D02*
G03X415339Y331700I-1159J-1744D01*
G01X416498Y331350D02*
X416502D01*
X417661Y331700D02*
G03X416502Y331350I0J-2094D01*
G01X417661Y331700D02*
X420300D01*
Y334475*
X417975Y336800*
X413106*
Y343200D02*
G03Y336800I-806J-3200D01*
G01Y343200D02*
X419300D01*
X421563Y342263D02*
G03X419300Y343200I-2263J-2263D01*
G01X421563Y342263D02*
X425763Y338063D01*
X426700Y335800D02*
G03X425763Y338063I-3200J0D01*
G01X426700Y335800D02*
Y329306D01*
X425075Y325600D02*
G03X426700Y329306I-1575J2900D01*
G01X425075Y325600D02*
X426500D01*
X427985Y324985D02*
G03X426500Y325600I-1485J-1485D01*
G01X427985Y324985D02*
X428121Y324849D01*
X434100Y323198D02*
G03X428121Y324849I-4100J-3198D01*
G01X345433Y302953D02*
G03X344439Y300000I965J-1969D01*
G01X344296Y304296D02*
G03X345433Y302953I2102J625D01*
G01X343937Y304439D02*
G03X344296Y304296I984J1959D01*
G01X341969Y304439D02*
G03X343937I984J1959D01*
G01X340000D02*
G03X341969I984J1959D01*
G01X338031D02*
G03X340000I985J1959D01*
G01X336063D02*
G03X338031I984J1959D01*
G01X335704Y304296D02*
G03X336063Y304439I-625J2102D01*
G01X335561Y303937D02*
G03X335704Y304296I-1959J984D01*
G01X335561Y301969D02*
G03Y303937I-1959J984D01*
G01Y300000D02*
G03Y301969I-1959J984D01*
G01Y298031D02*
G03Y300000I-1959J985D01*
G01Y296063D02*
G03Y298031I-1959J984D01*
G01X335704Y295704D02*
G03X335561Y296063I-2102J-625D01*
G01X336063Y295561D02*
G03X335704Y295704I-984J-1959D01*
G01X338031Y295561D02*
G03X336063I-984J-1959D01*
G01X340000D02*
G03X338031I-984J-1959D01*
G01X341969D02*
G03X340000I-985J-1959D01*
G01X343937D02*
G03X341969I-984J-1959D01*
G01X344296Y295704D02*
G03X343937Y295561I625J-2102D01*
G01X344439Y296063D02*
G03X344296Y295704I1959J-984D01*
G01X344439Y298031D02*
G03Y296063I1959J-984D01*
G01Y300000D02*
G03Y298031I1959J-984D01*
G01X381800Y159099D02*
G03X379839Y154364I3200J-4099D01*
G01X381800Y159099D02*
Y165600D01*
Y168025*
X379475Y170350*
X378200*
X377000Y170846D02*
G03X378200Y170350I1200J1204D01*
G01X375800D02*
G03X377000Y170846I0J1700D01*
G01X375800Y170350D02*
X371500D01*
X369848Y171650D02*
G03X371500Y170350I1652J400D01*
G01X369848Y171650D02*
X369423D01*
X367550Y170500D02*
G03X369423Y171650I0J2100D01*
G01X367550Y170500D02*
X364450D01*
X362577Y171650D02*
G03X364450Y170500I1873J950D01*
G01X362577Y171650D02*
X362423D01*
X360550Y170500D02*
G03X362423Y171650I0J2100D01*
G01X360550Y170500D02*
X357450D01*
X355577Y171650D02*
G03X357450Y170500I1873J950D01*
G01X355577Y171650D02*
X355423D01*
X353550Y170500D02*
G03X355423Y171650I0J2100D01*
G01X353550Y170500D02*
X350450D01*
X348372Y172300D02*
G03X350450Y170500I2078J300D01*
G01X348372Y172300D02*
X347973D01*
X346300Y170900D02*
G03X347973Y172300I0J1700D01*
G01X346300Y170900D02*
X341500D01*
X340000Y171800D02*
G03X341500Y170900I1500J800D01*
G01X338500D02*
G03X340000Y171800I0J1700D01*
G01X338500Y170900D02*
X333700D01*
X332027Y172300D02*
G03X333700Y170900I1673J300D01*
G01X332027Y172300D02*
X330650D01*
Y170600*
X329910Y169000D02*
G03X330650Y170600I-1360J1600D01*
G01Y167400D02*
G03X329910Y169000I-2100J0D01*
G01X330650Y167400D02*
Y163900D01*
X330100Y162483D02*
G03X330650Y163900I-1550J1417D01*
G01X330100Y162483D02*
Y160238D01*
X331897Y158165D02*
G03X330100Y160238I-2094J0D01*
G01X331897Y158165D02*
Y156197D01*
X329803Y154103D02*
G03X331897Y156197I0J2094D01*
G01X329803Y154103D02*
X327416D01*
X326678D02*
G03X327416I369J3078D01*
G01X326678D02*
X324291D01*
X322198Y156197D02*
G03X324291Y154103I2093J-0D01*
G01X322198Y156197D02*
Y158165D01*
X323900Y160222D02*
G03X322198Y158165I391J-2057D01*
G01X323900Y160222D02*
Y162483D01*
X323350Y163900D02*
G03X323900Y162483I2100J0D01*
G01X323350Y163900D02*
Y167400D01*
X324090Y169000D02*
G03X323350Y167400I1360J-1600D01*
G01Y170600D02*
G03X324090Y169000I2100J0D01*
G01X323350Y170600D02*
Y174100D01*
X323800Y175399D02*
G03X323350Y174100I1650J-1299D01*
G01X323800Y175399D02*
Y176508D01*
X323000Y177090D02*
G03X323800Y176508I1600J1360D01*
G01X321400Y176350D02*
G03X323000Y177090I0J2100D01*
G01X321400Y176350D02*
X317900D01*
X317300Y176438D02*
G03X317900Y176350I600J2012D01*
G01X317300Y176438D02*
G03X316850Y175500I753J-938D01*
G01Y141069*
X317000Y140910D02*
G03X316850Y141069I-1600J-1360D01*
G01X318600Y141650D02*
G03X317000Y140910I0J-2100D01*
G01X318600Y141650D02*
X319616D01*
X321233Y143267*
X322198Y144232*
Y145803*
X324291Y147897D02*
G03X322198Y145803I0J-2094D01*
G01X324291Y147897D02*
X329803D01*
X331897Y145803D02*
G03X329803Y147897I-2094J0D01*
G01X331897Y145803D02*
Y143835D01*
X329803Y141741D02*
G03X331897Y143835I0J2094D01*
G01X329803Y141741D02*
X328475D01*
X327526Y140792*
X331009Y137309*
X331711Y136087D02*
G03X331009Y137309I-2611J-687D01*
G01X333000Y135200D02*
G03X331711Y136087I-1500J-800D01*
G01X334500Y136100D02*
G03X333000Y135200I0J-1700D01*
G01X334500Y136100D02*
X339300D01*
X340973Y134700D02*
G03X339300Y136100I-1673J-300D01*
G01X340973Y134700D02*
X342550D01*
X344459Y133909D02*
G03X342550Y134700I-1909J-1909D01*
G01X344459Y133909D02*
X346168Y132200D01*
X347550*
X349423Y131050D02*
G03X347550Y132200I-1873J-950D01*
G01X349423Y131050D02*
X349577D01*
X351450Y132200D02*
G03X349577Y131050I0J-2100D01*
G01X351450Y132200D02*
X354550D01*
X356423Y131050D02*
G03X354550Y132200I-1873J-950D01*
G01X356423Y131050D02*
X356577D01*
X358450Y132200D02*
G03X356577Y131050I0J-2100D01*
G01X358450Y132200D02*
X361550D01*
X363423Y131050D02*
G03X361550Y132200I-1873J-950D01*
G01X363423Y131050D02*
X364204D01*
X365500Y131650D02*
G03X364204Y131050I0J-1700D01*
G01X365500Y131650D02*
X369800D01*
X371000Y131154D02*
G03X369800Y131650I-1200J-1204D01*
G01X371150Y131287D02*
G03X371000Y131154I1050J-1337D01*
G01X371150Y131287D02*
Y144350D01*
X372087Y146613D02*
G03X371150Y144350I2263J-2263D01*
G01X372087Y146613D02*
X379839Y154364D01*
X360600Y329900D02*
Y334835D01*
X358018Y335193D02*
G03X360600Y334835I1982J4807D01*
G01X358018Y335193D02*
X349463Y326637D01*
X347200Y325700D02*
G03X349463Y326637I0J3200D01*
G01X347200Y325700D02*
X345206D01*
X343084Y325874D02*
G03X345206Y325700I1316J3026D01*
G01X343084Y325874D02*
Y323840D01*
X343648Y324404*
X346609D02*
G03X343648I-1481J-1481D01*
G01X346609D02*
X348836Y322176D01*
X349405Y321123D02*
G03X348836Y322176I-2050J-427D01*
G01X350165Y321265D02*
G03X349405Y321123I-0J-2100D01*
G01X350165Y321265D02*
X351645D01*
X353113Y322733*
X356074D02*
G03X353113I-1481J-1480D01*
G01X356074D02*
X358301Y320506D01*
Y317545D02*
G03Y320506I-1480J1481D01*
G01Y317545D02*
X356352Y315596D01*
X353391D02*
G03X356352I1481J1481D01*
G01X353391D02*
X351923Y317065D01*
X351035*
X347021Y313051*
Y309389*
X347113Y308760D02*
G03X347021Y309389I-2192J-0D01*
G01X347113Y308760D02*
Y307113D01*
X348124*
X348580Y307720D02*
G03X348124Y307113I1909J-1909D01*
G01X348580Y307720D02*
X349770Y308909D01*
X351679Y309700D02*
G03X349770Y308909I-0J-2700D01*
G01X351679Y309700D02*
X351803D01*
X351934Y309839D02*
G03X351803Y309700I1460J-1500D01*
G01X352591Y310909D02*
G03X351934Y309839I1909J-1909D01*
G01X352591Y310909D02*
X355091Y313409D01*
X356675Y314180D02*
G03X355091Y313409I325J-2680D01*
G01X356907Y314333D02*
G03X356675Y314180I1693J-2833D01*
G01X356907Y314333D02*
X360600Y318025D01*
Y329900*
X328500Y316432D02*
Y318568D01*
X326394*
X325000Y319099D02*
G03X326394Y318568I1394J1562D01*
G01X323606D02*
G03X325000Y319099I0J2093D01*
G01X323606Y318568D02*
X321445D01*
X321800Y317400D02*
G03X321445Y318568I-2100J0D01*
G01X321800Y317400D02*
Y311870D01*
X324700Y308970*
Y309400*
Y310431*
X324300Y311661D02*
G03X324700Y310431I2094J0D01*
G01X324300Y311661D02*
Y314339D01*
X326394Y316432D02*
G03X324300Y314339I-0J-2093D01*
G01X326394Y316432D02*
X328500D01*
X489096Y239764D02*
G03X489096I-7206J0D01*
G01X398220Y110468D02*
G03X398220I-7206J0D01*
G01X438428Y226000D02*
G03X437600Y236165I-1428J5000D01*
G01X438428Y216000D02*
G03Y226000I-1428J5000D01*
G01X432072Y212659D02*
G03X438428Y216000I4928J-1659D01*
G01X432072Y212659D02*
X430751Y213979D01*
X418456*
X417827Y213887D02*
G03X418456Y213979I-0J2192D01*
G01X417827Y213887D02*
X415616D01*
X416082Y212535D02*
G03X415616Y213887I-2192J0D01*
G01X416082Y212535D02*
Y210173D01*
X415990Y209544D02*
G03X416082Y210173I-2100J629D01*
G01X415990Y209544D02*
Y209432D01*
X416606*
X418700Y207339D02*
G03X416606Y209432I-2094J-0D01*
G01X418700Y207339D02*
Y204661D01*
X418338Y203484D02*
G03X418700Y204661I-1732J1177D01*
G01X416747Y198745D02*
G03X418338Y203484I-1247J3055D01*
G01X416747Y198745D02*
X417691Y197800D01*
X422300*
X423785Y197185D02*
G03X422300Y197800I-1485J-1485D01*
G01X423785Y197185D02*
X425121Y195849D01*
X422000Y189572D02*
G03X425121Y195849I5000J1428D01*
G01X412000Y189572D02*
G03X422000I5000J1428D01*
G01X402000D02*
G03X412000I5000J1428D01*
G01X392000D02*
G03X402000I5000J1428D01*
G01X388879Y195849D02*
G03X392000Y189572I-1879J-4849D01*
G01X388879Y195849D02*
X390215Y197185D01*
X391700Y197800D02*
G03X390215Y197185I0J-2100D01*
G01X391700Y197800D02*
X398530D01*
X399561Y198830*
X399091Y199108D02*
G03X399561Y198830I1909J2692D01*
G01X397391Y199891D02*
G03X399091Y199108I1909J1909D01*
G01X397391Y199891D02*
X392491Y204791D01*
X387125Y210157*
X385648Y213979D02*
G03X387125Y210157I3152J-979D01*
G01X385648Y213979D02*
X382949D01*
X381849Y212879*
X375572Y216000D02*
G03X381849Y212879I1428J-5000D01*
G01X375572Y226000D02*
G03Y216000I1428J-5000D01*
G01X376400Y236165D02*
G03X375572Y226000I600J-5165D01*
G01X376400Y236165D02*
Y236819D01*
X375300Y238661D02*
G03X376400Y236819I2094J0D01*
G01X375300Y238661D02*
Y241339D01*
X377394Y243432D02*
G03X375300Y241339I-0J-2093D01*
G01X377394Y243432D02*
X379606D01*
X380102Y243373D02*
G03X379606Y243432I-496J-2034D01*
G01X380102Y243373D02*
X377636Y245839D01*
X382000Y252428D02*
G03X377636Y245839I-5000J-1428D01*
G01X392000Y252428D02*
G03X382000I-5000J-1428D01*
G01X402000D02*
G03X392000I-5000J-1428D01*
G01X412000D02*
G03X402000I-5000J-1428D01*
G01X422000D02*
G03X412000I-5000J-1428D01*
G01X423840Y246870D02*
G03X422000Y252428I3160J4130D01*
G01X423840Y246870D02*
X417561Y240591D01*
X417697Y240500D02*
G03X417561Y240591I-1897J-2700D01*
G01X417697Y240500D02*
X423182D01*
X423300Y240618*
Y241339*
X425394Y243432D02*
G03X423300Y241339I-0J-2093D01*
G01X425394Y243432D02*
X427606D01*
X429000Y242901D02*
G03X427606Y243432I-1394J-1562D01*
G01X430394D02*
G03X429000Y242901I-0J-2093D01*
G01X430394Y243432D02*
X432606D01*
X433500Y243232D02*
G03X432606Y243432I-894J-1893D01*
G01X434394D02*
G03X433500Y243232I-0J-2093D01*
G01X434394Y243432D02*
X436606D01*
X438700Y241339D02*
G03X436606Y243432I-2094J-0D01*
G01X438700Y241339D02*
Y238661D01*
X437600Y236819D02*
G03X438700Y238661I-994J1842D01*
G01X437600Y236819D02*
Y236165D01*
X321642Y318199D02*
X328500D01*
X321800Y317299D02*
X328500D01*
X321800Y316399D02*
X326020D01*
X325000Y319099D02*
X325000D01*
X323571Y310099D02*
X324700D01*
X324471Y309199D02*
X324700D01*
X321800Y315499D02*
X324651D01*
X322671Y310999D02*
X324408D01*
X321800Y314599D02*
X324316D01*
X321800Y313699D02*
X324300D01*
X321800Y312799D02*
X324300D01*
X321800Y311899D02*
X324300D01*
X357224Y334399D02*
X360600D01*
X356324Y333499D02*
X360600D01*
X355424Y332599D02*
X360600D01*
X354524Y331699D02*
X360600D01*
X353624Y330799D02*
X360600D01*
X352724Y329899D02*
X360600D01*
X351824Y328999D02*
X360600D01*
X350924Y328099D02*
X360600D01*
X350024Y327199D02*
X360600D01*
X349064Y326299D02*
X360600D01*
X343084Y325399D02*
X360600D01*
X346507Y324499D02*
X360600D01*
X347414Y323599D02*
X360600D01*
X356108Y322699D02*
X360600D01*
X357008Y321799D02*
X360600D01*
X357908Y320899D02*
X360600D01*
X358674Y319999D02*
X360600D01*
X358913Y319099D02*
X360600D01*
X358744Y318199D02*
X360600D01*
X358055Y317299D02*
X359873D01*
X357155Y316399D02*
X358973D01*
X356248Y315499D02*
X358073D01*
X348569Y314599D02*
X357173D01*
X347669Y313699D02*
X355433D01*
X347021Y312799D02*
X354480D01*
X347021Y311899D02*
X353580D01*
X349469Y315499D02*
X353496D01*
X348314Y322699D02*
X353078D01*
X347021Y310999D02*
X352680D01*
X350369Y316399D02*
X352589D01*
X349135Y321799D02*
X352178D01*
X347021Y310099D02*
X352034D01*
X347069Y309199D02*
X350112D01*
X347113Y308299D02*
X349159D01*
X347113Y307399D02*
X348306D01*
X343084Y324499D02*
X343749D01*
X331113Y159799D02*
X381800D01*
X330100Y160699D02*
X381800D01*
X330100Y161599D02*
X381800D01*
X330590Y167899D02*
X381800D01*
X330650Y166999D02*
X381800D01*
X330650Y166099D02*
X381800D01*
X330114Y162499D02*
X381800D01*
X330589Y163399D02*
X381800D01*
X330650Y164299D02*
X381800D01*
X330650Y165199D02*
X381800D01*
X331764Y158899D02*
X381559D01*
X330116Y168799D02*
X381026D01*
X331897Y157999D02*
X380752D01*
X331897Y157099D02*
X380242D01*
X330447Y169699D02*
X380126D01*
X331897Y156199D02*
X379940D01*
X330876Y154399D02*
X379835D01*
X331694Y155299D02*
X379809D01*
X316850Y153499D02*
X378973D01*
X316850Y152599D02*
X378073D01*
X376685Y170599D02*
X377315D01*
X316850Y151699D02*
X377173D01*
X316850Y150799D02*
X376273D01*
X316850Y149899D02*
X375373D01*
X316850Y148999D02*
X374473D01*
X316850Y148099D02*
X373573D01*
X331364Y147199D02*
X372673D01*
X331837Y146299D02*
X371812D01*
X331897Y145399D02*
X371327D01*
X331897Y144499D02*
X371153D01*
X331884Y143599D02*
X371150D01*
X331562Y142699D02*
X371150D01*
X330292Y141799D02*
X371150D01*
X327633Y140899D02*
X371150D01*
X328320Y139999D02*
X371150D01*
X329220Y139099D02*
X371150D01*
X330120Y138199D02*
X371150D01*
X331020Y137299D02*
X371150D01*
X331609Y136399D02*
X371150D01*
X340597Y135499D02*
X371150D01*
X343283Y134599D02*
X371150D01*
X344670Y133699D02*
X371150D01*
X345570Y132799D02*
X371150D01*
X362634Y131899D02*
X371150D01*
X368186Y170599D02*
X370615D01*
X369338Y171499D02*
X369892D01*
X361186Y170599D02*
X363814D01*
X362338Y171499D02*
X362662D01*
X355634Y131899D02*
X357366D01*
X354186Y170599D02*
X356814D01*
X355338Y171499D02*
X355662D01*
X348634Y131899D02*
X350366D01*
X330650Y170599D02*
X349814D01*
X347595Y171499D02*
X348662D01*
X339795D02*
X340205D01*
X332797Y135499D02*
X333203D01*
X330650Y171499D02*
X332405D01*
X316850Y161599D02*
X323900D01*
X316850Y160699D02*
X323900D01*
X316850Y162499D02*
X323886D01*
X316850Y168799D02*
X323884D01*
X316958Y175999D02*
X323800D01*
X316850Y175099D02*
X323603D01*
X316850Y169699D02*
X323553D01*
X316850Y163399D02*
X323411D01*
X316850Y167899D02*
X323410D01*
X316850Y174199D02*
X323352D01*
X316850Y173299D02*
X323350D01*
X316850Y172399D02*
X323350D01*
X316850Y171499D02*
X323350D01*
X316850Y170599D02*
X323350D01*
X316850Y166999D02*
X323350D01*
X316850Y166099D02*
X323350D01*
X316850Y165199D02*
X323350D01*
X316850Y164299D02*
X323350D01*
X316850Y154399D02*
X323219D01*
X322815Y176899D02*
X323185D01*
X316850Y159799D02*
X322981D01*
X316850Y147199D02*
X322731D01*
X316850Y155299D02*
X322400D01*
X316850Y158899D02*
X322330D01*
X316850Y146299D02*
X322257D01*
X316850Y157999D02*
X322198D01*
X316850Y157099D02*
X322198D01*
X316850Y156199D02*
X322198D01*
X316850Y145399D02*
X322198D01*
X316850Y144499D02*
X322198D01*
X316850Y143599D02*
X321565D01*
X316850Y142699D02*
X320665D01*
X316850Y141799D02*
X319765D01*
X335794Y302899D02*
X345330D01*
X335625Y303799D02*
X344515D01*
X335576Y301999D02*
X344454D01*
X335649Y300199D02*
X344351D01*
X335706Y298399D02*
X344294D01*
X343594Y295699D02*
X344280D01*
X335748Y297499D02*
X344252D01*
X335748Y296599D02*
X344252D01*
X335776Y299299D02*
X344224D01*
X335792Y301099D02*
X344208D01*
X341625Y295699D02*
X342312D01*
X339657D02*
X340343D01*
X337688D02*
X338375D01*
X335720D02*
X336406D01*
X382427Y344299D02*
X434100D01*
X383327Y343399D02*
X434100D01*
X421299Y342499D02*
X434100D01*
X422227Y341599D02*
X434100D01*
X423127Y340699D02*
X434100D01*
X424027Y339799D02*
X434100D01*
X424927Y338899D02*
X434100D01*
X425825Y337999D02*
X434100D01*
X426425Y337099D02*
X434100D01*
X426675Y336199D02*
X434100D01*
X426700Y335299D02*
X434100D01*
X426700Y334399D02*
X434100D01*
X426700Y333499D02*
X434100D01*
X426700Y332599D02*
X434100D01*
X426700Y331699D02*
X434100D01*
X426700Y330799D02*
X434100D01*
X426700Y329899D02*
X434100D01*
X426762Y328999D02*
X434100D01*
X426776Y328099D02*
X434100D01*
X426533Y327199D02*
X434100D01*
X425959Y326299D02*
X434100D01*
X427397Y325399D02*
X434100D01*
X432608Y324499D02*
X434100D01*
X433754Y323599D02*
X434100D01*
X381527Y345199D02*
X434059D01*
X380627Y346099D02*
X433923D01*
X379727Y346999D02*
X433692D01*
X378827Y347899D02*
X433359D01*
X377517Y348799D02*
X432911D01*
X293900Y349699D02*
X432326D01*
X293900Y350599D02*
X431568D01*
X293900Y351499D02*
X430567D01*
X293900Y352399D02*
X429151D01*
X293900Y353299D02*
X426372D01*
X392327Y334399D02*
X420300D01*
X393227Y333499D02*
X420300D01*
X394247Y332599D02*
X420300D01*
X391427Y335299D02*
X419476D01*
X390527Y336199D02*
X418576D01*
X415413Y331699D02*
X417587D01*
X394775D02*
X412587D01*
X389627Y337099D02*
X410728D01*
X384227Y342499D02*
X410144D01*
X388727Y337999D02*
X409676D01*
X385127Y341599D02*
X409413D01*
X387827Y338899D02*
X409189D01*
X386027Y340699D02*
X409075D01*
X386927Y339799D02*
X409006D01*
X399071Y320899D02*
X403262D01*
X394986Y330799D02*
X403121D01*
X387826Y326299D02*
X402999D01*
X394397Y325399D02*
X402691D01*
X398171Y321799D02*
X402533D01*
X394945Y329899D02*
X402339D01*
X367000Y327199D02*
X402288D01*
X395471Y324499D02*
X402156D01*
X397271Y322699D02*
X402091D01*
X394639Y328999D02*
X402021D01*
X393964Y328099D02*
X402005D01*
X396371Y323599D02*
X401979D01*
X367000Y328099D02*
X389436D01*
X367000Y328999D02*
X388676D01*
X367000Y329899D02*
X387776D01*
X367000Y330799D02*
X386876D01*
X367000Y331699D02*
X385976D01*
X367000Y332599D02*
X385076D01*
X367000Y333499D02*
X384176D01*
X367000Y334399D02*
X383276D01*
X367000Y326299D02*
X382914D01*
X367000Y335299D02*
X382376D01*
X367000Y320899D02*
X382002D01*
X367000Y336199D02*
X381476D01*
X367000Y325399D02*
X381431D01*
X367000Y321799D02*
X381273D01*
X367000Y319999D02*
X381138D01*
X367000Y324499D02*
X380896D01*
X367000Y322699D02*
X380831D01*
X367000Y319099D02*
X380780D01*
X367000Y323599D02*
X380719D01*
X366994Y337099D02*
X380576D01*
X367000Y318199D02*
X380327D01*
X366805Y337999D02*
X379676D01*
X367000Y317299D02*
X379427D01*
X366299Y338899D02*
X378776D01*
X366986Y316399D02*
X378527D01*
X365427Y339799D02*
X377876D01*
X366766Y315499D02*
X377627D01*
X365224Y340699D02*
X376976D01*
X372427Y314599D02*
X376727D01*
X366124Y341599D02*
X376076D01*
X373655Y313699D02*
X375827D01*
X367024Y342499D02*
X375176D01*
X374383Y312799D02*
X374927D01*
X366213Y314599D02*
X367573D01*
X365324Y313699D02*
X366345D01*
X364424Y312799D02*
X365617D01*
X363524Y311899D02*
X365159D01*
X359401Y308299D02*
X365086D01*
X362624Y310999D02*
X364897D01*
X360965Y309199D02*
X364862D01*
X361724Y310099D02*
X364801D01*
X293900Y348799D02*
X364683D01*
X293900Y347899D02*
X363373D01*
X357700Y307399D02*
X362801D01*
X293900Y346999D02*
X362473D01*
X357700Y306499D02*
X361933D01*
X293900Y346099D02*
X361573D01*
X357699Y305599D02*
X361525D01*
X360118Y345199D02*
X360673D01*
X350118D02*
X359882D01*
X357700Y308299D02*
X357799D01*
X352926Y344299D02*
X357074D01*
X353936Y343399D02*
X356064D01*
X354560Y342499D02*
X355440D01*
X354948Y341599D02*
X355052D01*
X340118Y345199D02*
X349882D01*
X342926Y344299D02*
X347074D01*
X343936Y343399D02*
X346064D01*
X344560Y342499D02*
X345440D01*
X344948Y341599D02*
X345052D01*
X330118Y345199D02*
X339882D01*
X332926Y344299D02*
X337074D01*
X333936Y343399D02*
X336064D01*
X334560Y342499D02*
X335440D01*
X334948Y341599D02*
X335052D01*
X293900Y331699D02*
X330151D01*
X320118Y345199D02*
X329882D01*
X293900Y330799D02*
X329201D01*
X293900Y329899D02*
X328733D01*
X293900Y328999D02*
X328514D01*
X293900Y328099D02*
X328500D01*
X293900Y327199D02*
X328500D01*
X293900Y326299D02*
X328500D01*
X322926Y344299D02*
X327074D01*
X323936Y343399D02*
X326064D01*
X323980Y325399D02*
X326020D01*
X324560Y342499D02*
X325440D01*
X324948Y341599D02*
X325052D01*
X293900Y332599D02*
X324520D01*
X293900Y333499D02*
X323531D01*
X293900Y334399D02*
X322631D01*
X293900Y325399D02*
X321020D01*
X293900Y345199D02*
X319882D01*
X312608Y324499D02*
X319651D01*
X293900Y335299D02*
X317778D01*
X313754Y323599D02*
X317738D01*
X313751Y316399D02*
X317600D01*
X312604Y315499D02*
X317600D01*
X293900Y314599D02*
X317600D01*
X317228Y313699D02*
X317600D01*
X293900Y344299D02*
X317074D01*
X314443Y317299D02*
X316831D01*
X314445Y322699D02*
X316829D01*
X293900Y336199D02*
X316452D01*
X293900Y343399D02*
X316064D01*
X293900Y337099D02*
X315685D01*
X293900Y342499D02*
X315440D01*
X293900Y337999D02*
X315201D01*
X293900Y341599D02*
X315052D01*
X293900Y338899D02*
X314918D01*
X293900Y340699D02*
X314847D01*
X293900Y339799D02*
X314804D01*
X293900Y313699D02*
X312772D01*
X307494Y304699D02*
X312078D01*
X293900Y312799D02*
X311449D01*
X309666Y303799D02*
X311449D01*
X293900Y305599D02*
X311067D01*
X293900Y311899D02*
X310683D01*
X310340Y302899D02*
X310683D01*
X293900Y306499D02*
X310441D01*
X293900Y310999D02*
X310199D01*
X293900Y307399D02*
X310053D01*
X293900Y310099D02*
X309917D01*
X293900Y308299D02*
X309847D01*
X293900Y309199D02*
X309804D01*
X293900Y315499D02*
X307396D01*
X293900Y324499D02*
X307392D01*
X293900Y316399D02*
X306249D01*
X293900Y323599D02*
X306246D01*
X293900Y317299D02*
X305557D01*
X293900Y322699D02*
X305555D01*
X293900Y318199D02*
X305122D01*
X293900Y321799D02*
X305121D01*
X293900Y319099D02*
X304879D01*
X293900Y320899D02*
X304878D01*
X293900Y319999D02*
X304800D01*
X293900Y304699D02*
X294506D01*
X426794D02*
X427772D01*
X426612Y305599D02*
X427231D01*
X426126Y306499D02*
X426155D01*
X425077Y307399D02*
X425497D01*
X389537Y311899D02*
X425131D01*
X381269Y308299D02*
X425086D01*
X388572Y310999D02*
X424897D01*
X382169Y309199D02*
X424862D01*
X383167Y310099D02*
X424801D01*
X389936Y312799D02*
X424231D01*
X390016Y313699D02*
X423331D01*
X389805Y314599D02*
X422431D01*
X421421Y307399D02*
X421923D01*
X389217Y315499D02*
X421531D01*
X410373Y316399D02*
X420631D01*
X416421Y307399D02*
X416579D01*
X380369D02*
X411579D01*
X388576Y301999D02*
X403424D01*
X389113Y316399D02*
X402887D01*
X398471Y297499D02*
X402786D01*
X379469Y306499D02*
X402783D01*
X375869Y302899D02*
X402463D01*
X394862Y301099D02*
X402461D01*
X397571Y298399D02*
X402196D01*
X378569Y305599D02*
X402195D01*
X376769Y303799D02*
X402064D01*
X395771Y300199D02*
X402063D01*
X396671Y299299D02*
X401984D01*
X377669Y304699D02*
X401984D01*
X389760Y317299D02*
X396731D01*
X390007Y318199D02*
X395831D01*
X389960Y319099D02*
X394931D01*
X389602Y319999D02*
X394031D01*
X388738Y320899D02*
X393131D01*
X378743Y301999D02*
X382164D01*
X379970Y301099D02*
X381202D01*
X384171Y224599D02*
X388300D01*
X385071Y223699D02*
X388300D01*
X385971Y222799D02*
X388300D01*
X383271Y225499D02*
X386536D01*
X382371Y226399D02*
X385861D01*
X381471Y227299D02*
X385403D01*
X381381Y228199D02*
X384922D01*
X380600Y236299D02*
X384800D01*
X380600Y235399D02*
X384800D01*
X380847Y234499D02*
X384800D01*
X381504Y233599D02*
X384800D01*
X381915Y232699D02*
X384800D01*
X382138Y231799D02*
X384800D01*
X382199Y230899D02*
X384800D01*
X382103Y229999D02*
X384800D01*
X381840Y229099D02*
X384800D01*
X408997Y246199D02*
X414900D01*
X404294Y245299D02*
X414029D01*
X410438Y247099D02*
X413562D01*
X406466Y244399D02*
X413129D01*
X411246Y247999D02*
X412754D01*
X411757Y248899D02*
X412243D01*
X407140Y243499D02*
X412229D01*
X409982Y242599D02*
X411329D01*
X414446Y234499D02*
X420800D01*
X414021Y233599D02*
X420800D01*
X414021Y232699D02*
X420800D01*
X414113Y231799D02*
X420800D01*
X414113Y230899D02*
X420376D01*
X414113Y229999D02*
X420300D01*
X414083Y229099D02*
X420300D01*
X413711Y228199D02*
X419961D01*
X412260Y227299D02*
X413759D01*
X412276Y214699D02*
X413535D01*
X400495Y220999D02*
X413505D01*
X400570Y219199D02*
X413430D01*
X400571Y222799D02*
X413429D01*
X400629Y217399D02*
X413371D01*
X400284Y224599D02*
X413370D01*
X400674Y215599D02*
X413326D01*
X400675Y226399D02*
X413325D01*
X400686Y225499D02*
X413314D01*
X400687Y216499D02*
X413313D01*
X399902Y223699D02*
X413287D01*
X400713Y218299D02*
X413287D01*
X400726Y221899D02*
X413274D01*
X400726Y220099D02*
X413274D01*
X410291Y227299D02*
X411583D01*
X410307Y214699D02*
X411567D01*
X408323Y227299D02*
X409614D01*
X408339Y214699D02*
X409598D01*
X406354Y227299D02*
X407646D01*
X406370Y214699D02*
X407630D01*
X404386Y227299D02*
X405677D01*
X404402Y214699D02*
X405661D01*
X402417Y227299D02*
X403709D01*
X400239Y214699D02*
X403693D01*
X392002Y213799D02*
X402256D01*
X395620Y209299D02*
X401947D01*
X396520Y208399D02*
X401947D01*
X397420Y207499D02*
X401947D01*
X398320Y206599D02*
X401947D01*
X399220Y205699D02*
X401947D01*
X392098Y212899D02*
X401885D01*
X392920Y211999D02*
X401855D01*
X393820Y211099D02*
X401855D01*
X394720Y210199D02*
X401855D01*
X400241Y227299D02*
X401740D01*
X393220Y228199D02*
X400289D01*
X392320Y229099D02*
X399917D01*
X390200Y230899D02*
X399887D01*
X391399Y229999D02*
X399887D01*
X390200Y231799D02*
X399631D01*
X390200Y232699D02*
X398731D01*
X390200Y233599D02*
X397831D01*
X390200Y234499D02*
X396931D01*
X390200Y235399D02*
X396036D01*
X390200Y236299D02*
X395561D01*
X390623Y238099D02*
X395500D01*
X390200Y237199D02*
X395500D01*
X390700Y238999D02*
X393428D01*
X426200Y235399D02*
X433400D01*
X426617Y236299D02*
X433400D01*
X426200Y234499D02*
X433153D01*
X426200Y233599D02*
X432496D01*
X426700Y229099D02*
X432129D01*
X426200Y232699D02*
X432085D01*
X426700Y229999D02*
X431897D01*
X426200Y231799D02*
X431862D01*
X426624Y230899D02*
X431801D01*
X426700Y228199D02*
X431229D01*
X426668Y227299D02*
X430502D01*
X426412Y226399D02*
X430300D01*
X426694Y225499D02*
X430300D01*
X426700Y224599D02*
X430300D01*
X426700Y223699D02*
X429929D01*
X426700Y222799D02*
X429029D01*
X431246Y247999D02*
X491200D01*
X430438Y247099D02*
X491200D01*
X485133Y246199D02*
X491200D01*
X486504Y245299D02*
X491200D01*
X487407Y244399D02*
X491200D01*
X488052Y243499D02*
X491200D01*
X488515Y242599D02*
X491200D01*
X488831Y241699D02*
X491200D01*
X489021Y240799D02*
X491200D01*
X489094Y239899D02*
X491200D01*
X489055Y238999D02*
X491200D01*
X488900Y238099D02*
X491200D01*
X488623Y237199D02*
X491200D01*
X488208Y236299D02*
X491200D01*
X487623Y235399D02*
X491200D01*
X486809Y234499D02*
X491200D01*
X485619Y233599D02*
X491200D01*
X483305Y232699D02*
X491200D01*
X442138Y231799D02*
X491200D01*
X442199Y230899D02*
X491200D01*
X442103Y229999D02*
X491200D01*
X441840Y229099D02*
X491200D01*
X441381Y228199D02*
X491200D01*
X440652Y227299D02*
X491200D01*
X439422Y226399D02*
X491200D01*
X439608Y225499D02*
X491200D01*
X440754Y224599D02*
X491200D01*
X441445Y223699D02*
X491200D01*
X441879Y222799D02*
X491200D01*
X442122Y221899D02*
X491200D01*
X442200Y220999D02*
X491200D01*
X442121Y220099D02*
X491200D01*
X441878Y219199D02*
X491200D01*
X441443Y218299D02*
X491200D01*
X440751Y217399D02*
X491200D01*
X439604Y216499D02*
X491200D01*
X439427Y215599D02*
X491200D01*
X468228Y214699D02*
X491200D01*
X469551Y213799D02*
X491200D01*
X470317Y212899D02*
X491200D01*
X470801Y211999D02*
X491200D01*
X471083Y211099D02*
X491200D01*
X471196Y210199D02*
X491200D01*
X473255Y209299D02*
X491200D01*
X474918Y208399D02*
X491200D01*
X475876Y207499D02*
X491200D01*
X476776Y206599D02*
X491200D01*
X477676Y205699D02*
X491199D01*
X478576Y204799D02*
X491163D01*
X431757Y248899D02*
X491113D01*
X479476Y203899D02*
X491075D01*
X432059Y249799D02*
X490936D01*
X480376Y202999D02*
X490933D01*
X481276Y202099D02*
X490736D01*
X432191Y250699D02*
X490666D01*
X482176Y201199D02*
X490482D01*
X432165Y251599D02*
X490293D01*
X483076Y200299D02*
X490168D01*
X431979Y252499D02*
X489803D01*
X483976Y199399D02*
X489789D01*
X484876Y198499D02*
X489341D01*
X431614Y253399D02*
X489174D01*
X485776Y197599D02*
X488816D01*
X431020Y254299D02*
X488366D01*
X486676Y196699D02*
X488205D01*
X430068Y255199D02*
X487302D01*
X428022Y256099D02*
X485786D01*
X293900Y256999D02*
X482259D01*
X441915Y232699D02*
X480475D01*
X428997Y246199D02*
X478647D01*
X441504Y233599D02*
X478161D01*
X422269Y245299D02*
X477276D01*
X440847Y234499D02*
X476971D01*
X421369Y244399D02*
X476373D01*
X439773Y235399D02*
X476157D01*
X420469Y243499D02*
X475728D01*
X437600Y236299D02*
X475572D01*
X438278Y242599D02*
X475265D01*
X438104Y237199D02*
X475157D01*
X438669Y241699D02*
X474949D01*
X438623Y238099D02*
X474880D01*
X438700Y240799D02*
X474759D01*
X438700Y238999D02*
X474725D01*
X438700Y239899D02*
X474686D01*
X461376Y181399D02*
X473226D01*
X462276Y180499D02*
X472363D01*
X460476Y182299D02*
X472326D01*
X463176Y179599D02*
X471463D01*
X459576Y183199D02*
X471426D01*
X464076Y178699D02*
X470563D01*
X458676Y184099D02*
X470526D01*
X464976Y177799D02*
X469663D01*
X457776Y184999D02*
X469626D01*
X465876Y176899D02*
X468763D01*
X456876Y185899D02*
X468726D01*
X466776Y175999D02*
X467863D01*
X455976Y186799D02*
X467826D01*
X455076Y187699D02*
X466926D01*
X453936Y188599D02*
X466026D01*
X450176Y189499D02*
X465126D01*
X450008Y190399D02*
X464226D01*
X440655Y214699D02*
X463772D01*
X449664Y191299D02*
X463326D01*
X441383Y213799D02*
X462449D01*
X449100Y192199D02*
X462426D01*
X441841Y212899D02*
X461683D01*
X448200Y193099D02*
X461526D01*
X442103Y211999D02*
X461199D01*
X442199Y211099D02*
X460917D01*
X441914Y209299D02*
X460847D01*
X442138Y210199D02*
X460804D01*
X446433Y193999D02*
X460668D01*
X430441Y194899D02*
X460069D01*
X429003Y195799D02*
X459683D01*
X416992Y198499D02*
X459481D01*
X424271Y196699D02*
X459468D01*
X423197Y197599D02*
X459402D01*
X417764Y199399D02*
X457578D01*
X441503Y208399D02*
X457227D01*
X418439Y200299D02*
X456348D01*
X440845Y207499D02*
X456153D01*
X418745Y201199D02*
X455619D01*
X439769Y206599D02*
X455496D01*
X418786Y202099D02*
X455160D01*
X418700Y205699D02*
X455085D01*
X418575Y202999D02*
X454897D01*
X418700Y204799D02*
X454862D01*
X418556Y203899D02*
X454801D01*
X388200Y160699D02*
X452463D01*
X388200Y161599D02*
X452426D01*
X388200Y159799D02*
X451563D01*
X388200Y162499D02*
X451526D01*
X388441Y158899D02*
X450663D01*
X388200Y163399D02*
X450626D01*
X389248Y157999D02*
X449763D01*
X388200Y164299D02*
X449726D01*
X389758Y157099D02*
X448863D01*
X388200Y165199D02*
X448826D01*
X390060Y156199D02*
X447963D01*
X388200Y166099D02*
X447926D01*
X390191Y155299D02*
X447063D01*
X388200Y166999D02*
X447026D01*
X390165Y154399D02*
X446163D01*
X388200Y167899D02*
X446126D01*
X389979Y153499D02*
X445263D01*
X388200Y168799D02*
X445226D01*
X389612Y152599D02*
X444363D01*
X388181Y169699D02*
X444326D01*
X431248Y193999D02*
X443567D01*
X389018Y151699D02*
X443463D01*
X387946Y170599D02*
X443426D01*
X388064Y150799D02*
X442563D01*
X387371Y171499D02*
X442526D01*
X431758Y193099D02*
X441800D01*
X386008Y149899D02*
X441663D01*
X386477Y172399D02*
X441626D01*
X432060Y192199D02*
X440900D01*
X383524Y148999D02*
X440763D01*
X385577Y173299D02*
X440726D01*
X432191Y191299D02*
X440336D01*
X432165Y190399D02*
X439992D01*
X384677Y174199D02*
X439970D01*
X382624Y148099D02*
X439863D01*
X431979Y189499D02*
X439824D01*
X431612Y188599D02*
X439815D01*
X384200Y175099D02*
X439474D01*
X384199Y175999D02*
X439168D01*
X383911Y176899D02*
X439021D01*
X368785Y177799D02*
X439019D01*
X381724Y147199D02*
X438963D01*
X293900Y257899D02*
X438466D01*
X380824Y146299D02*
X438063D01*
X293900Y258799D02*
X437566D01*
X379924Y145399D02*
X437163D01*
X431018Y187699D02*
X436772D01*
X293900Y259699D02*
X436666D01*
X379024Y144499D02*
X436263D01*
X347397Y178699D02*
X436078D01*
X293900Y260599D02*
X435766D01*
X430064Y186799D02*
X435449D01*
X378124Y143599D02*
X435363D01*
X330200Y179599D02*
X435067D01*
X293900Y261499D02*
X434866D01*
X428008Y185899D02*
X434683D01*
X377550Y142699D02*
X434463D01*
X330200Y180499D02*
X434441D01*
X293900Y262399D02*
X434268D01*
X418700Y206599D02*
X434231D01*
X331723Y184999D02*
X434199D01*
X434018Y286699D02*
X434100D01*
X433064Y285799D02*
X434100D01*
X431008Y284899D02*
X434100D01*
X363324Y283999D02*
X434100D01*
X364176Y283099D02*
X434100D01*
X364712Y282199D02*
X434100D01*
X365035Y281299D02*
X434100D01*
X365185Y280399D02*
X434100D01*
X365176Y279499D02*
X434100D01*
X365008Y278599D02*
X434100D01*
X364663Y277699D02*
X434100D01*
X364098Y276799D02*
X434100D01*
X363197Y275899D02*
X434100D01*
X361433Y274999D02*
X434100D01*
X363200Y274099D02*
X434100D01*
X364100Y273199D02*
X434100D01*
X364664Y272299D02*
X434100D01*
X365008Y271399D02*
X434100D01*
X365176Y270499D02*
X434100D01*
X365185Y269599D02*
X434100D01*
X365035Y268699D02*
X434100D01*
X364711Y267799D02*
X434100D01*
X364174Y266899D02*
X434100D01*
X363321Y265999D02*
X434100D01*
X361737Y265099D02*
X434100D01*
X293900Y264199D02*
X434100D01*
X293900Y263299D02*
X434100D01*
X330200Y181399D02*
X434053D01*
X330974Y184099D02*
X433917D01*
X330062Y182299D02*
X433847D01*
X329450Y183199D02*
X433804D01*
X377550Y141799D02*
X433563D01*
X418694Y207499D02*
X433155D01*
X377550Y140899D02*
X432663D01*
X418412Y208399D02*
X432497D01*
X417342Y209299D02*
X432086D01*
X416082Y211999D02*
X431897D01*
X416082Y210199D02*
X431862D01*
X416052Y212899D02*
X431831D01*
X416082Y211099D02*
X431801D01*
X377550Y139999D02*
X431763D01*
X415681Y213799D02*
X430931D01*
X377550Y139099D02*
X430863D01*
X377550Y138199D02*
X429963D01*
X377550Y137299D02*
X429063D01*
X361744Y284899D02*
X428992D01*
X377550Y136399D02*
X428163D01*
X377550Y135499D02*
X427263D01*
X361600Y285799D02*
X426936D01*
X377550Y134599D02*
X426363D01*
X418008Y185899D02*
X425992D01*
X387815Y286699D02*
X425982D01*
X418022Y256099D02*
X425978D01*
X377550Y133699D02*
X425463D01*
X389306Y287599D02*
X425388D01*
X389843Y288499D02*
X425021D01*
X423169Y246199D02*
X425003D01*
X389469Y291199D02*
X424940D01*
X409994Y292099D02*
X424931D01*
X390021Y289399D02*
X424835D01*
X389910Y290299D02*
X424809D01*
X377550Y132799D02*
X424563D01*
X420064Y186799D02*
X423936D01*
X420068Y255199D02*
X423932D01*
X419569Y242599D02*
X423722D01*
X377550Y131899D02*
X423663D01*
X418669Y241699D02*
X423331D01*
X417769Y240799D02*
X423300D01*
X421018Y187699D02*
X422982D01*
X421020Y254299D02*
X422980D01*
X377838Y130999D02*
X422763D01*
X421612Y188599D02*
X422388D01*
X421614Y253399D02*
X422386D01*
X421979Y189499D02*
X422021D01*
X421979Y252499D02*
X422021D01*
X378194Y130099D02*
X421863D01*
X378200Y129199D02*
X420963D01*
X378200Y128299D02*
X420063D01*
X378200Y127399D02*
X419163D01*
X378200Y126499D02*
X418263D01*
X378139Y125599D02*
X417363D01*
X377532Y124699D02*
X416463D01*
X408008Y185899D02*
X415992D01*
X408022Y256099D02*
X415978D01*
X293900Y123799D02*
X415563D01*
X293900Y122899D02*
X414663D01*
X410064Y186799D02*
X413936D01*
X410068Y255199D02*
X413932D01*
X293900Y121999D02*
X413763D01*
X411018Y187699D02*
X412982D01*
X411020Y254299D02*
X412980D01*
X293900Y121099D02*
X412863D01*
X411612Y188599D02*
X412388D01*
X411614Y253399D02*
X412386D01*
X411979Y189499D02*
X412021D01*
X411979Y252499D02*
X412021D01*
X293900Y120199D02*
X411963D01*
X293900Y119299D02*
X411063D01*
X293900Y118399D02*
X410163D01*
X392592Y117499D02*
X409263D01*
X394800Y116599D02*
X408363D01*
X395970Y115699D02*
X407463D01*
X396773Y114799D02*
X406563D01*
X398008Y185899D02*
X405992D01*
X398022Y256099D02*
X405978D01*
X397350Y113899D02*
X405663D01*
X397761Y112999D02*
X404763D01*
X400064Y186799D02*
X403936D01*
X400068Y255199D02*
X403932D01*
X398033Y112099D02*
X403863D01*
X388734Y292099D02*
X403266D01*
X401018Y187699D02*
X402982D01*
X401020Y254299D02*
X402980D01*
X398182Y111199D02*
X402963D01*
X401612Y188599D02*
X402388D01*
X401614Y253399D02*
X402386D01*
X398218Y110299D02*
X402063D01*
X401979Y189499D02*
X402021D01*
X401979Y252499D02*
X402021D01*
X398140Y109399D02*
X401163D01*
X397945Y108499D02*
X400263D01*
X397624Y107599D02*
X399363D01*
X331897Y198499D02*
X399229D01*
X397155Y106699D02*
X398454D01*
X331897Y199399D02*
X398066D01*
X396502Y105799D02*
X397410D01*
X389601Y292999D02*
X397032D01*
X331893Y200299D02*
X396983D01*
X395586Y104899D02*
X396140D01*
X389959Y293899D02*
X396131D01*
X331624Y201199D02*
X396083D01*
X388008Y185899D02*
X395992D01*
X388022Y256099D02*
X395978D01*
X390007Y294799D02*
X395231D01*
X330607Y202099D02*
X395183D01*
X394187Y103999D02*
X394513D01*
X389762Y295699D02*
X394331D01*
X330110Y202999D02*
X394283D01*
X390064Y186799D02*
X393936D01*
X390068Y255199D02*
X393932D01*
X389116Y296599D02*
X393431D01*
X329909Y203899D02*
X393383D01*
X391018Y187699D02*
X392982D01*
X391020Y254299D02*
X392980D01*
X329617Y204799D02*
X392483D01*
X391612Y188599D02*
X392388D01*
X391614Y253399D02*
X392386D01*
X293900Y103099D02*
X392140D01*
X391979Y189499D02*
X392021D01*
X391979Y252499D02*
X392021D01*
X329225Y205699D02*
X391583D01*
X331810Y197599D02*
X390803D01*
X379769Y206599D02*
X390683D01*
X380845Y207499D02*
X389783D01*
X331266Y196699D02*
X389729D01*
X293900Y117499D02*
X389436D01*
X381503Y208399D02*
X388883D01*
X381914Y209299D02*
X387983D01*
X293900Y103999D02*
X387841D01*
X293900Y116599D02*
X387228D01*
X382138Y210199D02*
X387056D01*
X293900Y104899D02*
X386442D01*
X382199Y211099D02*
X386103D01*
X293900Y115699D02*
X386058D01*
X331897Y185899D02*
X385992D01*
X378022Y256099D02*
X385978D01*
X382103Y211999D02*
X385656D01*
X382769Y213799D02*
X385598D01*
X293900Y105799D02*
X385526D01*
X381869Y212899D02*
X385502D01*
X293900Y114799D02*
X385255D01*
X293900Y195799D02*
X384997D01*
X293900Y106699D02*
X384873D01*
X293900Y113899D02*
X384678D01*
X293900Y107599D02*
X384404D01*
X293900Y112999D02*
X384267D01*
X293900Y108499D02*
X384083D01*
X293900Y112099D02*
X383995D01*
X331897Y186799D02*
X383936D01*
X380068Y255199D02*
X383932D01*
X293900Y109399D02*
X383888D01*
X293900Y111199D02*
X383846D01*
X293900Y110299D02*
X383810D01*
X293900Y194899D02*
X383559D01*
X331897Y187699D02*
X382982D01*
X381020Y254299D02*
X382980D01*
X362466Y286699D02*
X382925D01*
X293900Y193999D02*
X382752D01*
X331740Y188599D02*
X382388D01*
X381614Y253399D02*
X382386D01*
X293900Y193099D02*
X382242D01*
X331031Y189499D02*
X382021D01*
X381979Y252499D02*
X382021D01*
X293900Y192199D02*
X381940D01*
X293900Y190399D02*
X381835D01*
X293900Y191299D02*
X381809D01*
X362699Y287599D02*
X381434D01*
X362700Y288499D02*
X380897D01*
X362700Y289399D02*
X380719D01*
X293900Y243499D02*
X379976D01*
X362700Y290299D02*
X379830D01*
X293900Y244399D02*
X379076D01*
X362515Y291199D02*
X378930D01*
X293900Y245299D02*
X378176D01*
X361740Y292099D02*
X378030D01*
X357700Y292999D02*
X377130D01*
X293900Y236299D02*
X376400D01*
X293900Y256099D02*
X375978D01*
X293900Y237199D02*
X375896D01*
X293900Y242599D02*
X375722D01*
X293900Y238099D02*
X375377D01*
X293900Y241699D02*
X375331D01*
X293900Y240799D02*
X375300D01*
X293900Y239899D02*
X375300D01*
X293900Y238999D02*
X375300D01*
X293900Y246199D02*
X375003D01*
X293900Y226399D02*
X374578D01*
X293900Y215599D02*
X374573D01*
X293900Y216499D02*
X374396D01*
X293900Y225499D02*
X374392D01*
X328717Y206599D02*
X374231D01*
X293900Y235399D02*
X374227D01*
X293900Y255199D02*
X373932D01*
X293900Y247099D02*
X373562D01*
X293900Y227299D02*
X373348D01*
X293900Y214699D02*
X373345D01*
X293900Y217399D02*
X373249D01*
X293900Y224599D02*
X373246D01*
X328073Y207499D02*
X373155D01*
X293900Y234499D02*
X373153D01*
X293900Y254299D02*
X372980D01*
X293900Y247999D02*
X372754D01*
X293900Y228199D02*
X372619D01*
X293900Y213799D02*
X372617D01*
X293900Y218299D02*
X372557D01*
X293900Y223699D02*
X372555D01*
X327254Y208399D02*
X372497D01*
X293900Y233599D02*
X372496D01*
X293900Y253399D02*
X372386D01*
X293900Y248899D02*
X372243D01*
X293900Y229099D02*
X372160D01*
X293900Y212899D02*
X372159D01*
X293900Y219199D02*
X372122D01*
X293900Y222799D02*
X372121D01*
X326186Y209299D02*
X372086D01*
X293900Y232699D02*
X372085D01*
X293900Y252499D02*
X372021D01*
X293900Y249799D02*
X371941D01*
X293900Y229999D02*
X371897D01*
X309434Y211999D02*
X371897D01*
X293900Y220099D02*
X371879D01*
X293900Y221899D02*
X371878D01*
X324691Y210199D02*
X371862D01*
X293900Y231799D02*
X371862D01*
X293900Y251599D02*
X371835D01*
X293900Y250699D02*
X371809D01*
X293900Y230899D02*
X371801D01*
X323518Y211099D02*
X371801D01*
X293900Y220999D02*
X371800D01*
X370832Y124699D02*
X371168D01*
X357700Y293899D02*
X365731D01*
X358517Y294799D02*
X364831D01*
X362442Y124699D02*
X364468D01*
X363396Y125599D02*
X363861D01*
X361785Y177799D02*
X363215D01*
X359972Y295699D02*
X362356D01*
X361145Y296599D02*
X361403D01*
X351737Y265099D02*
X358263D01*
X355442Y124699D02*
X357558D01*
X353321Y265999D02*
X356679D01*
X356396Y125599D02*
X356604D01*
X354785Y177799D02*
X356215D01*
X354174Y266899D02*
X355826D01*
X354711Y267799D02*
X355289D01*
X348442Y124699D02*
X350558D01*
X349396Y125599D02*
X349604D01*
X347953Y177799D02*
X349215D01*
X331737Y265099D02*
X348263D01*
X333900Y278599D02*
X348200D01*
X333900Y277699D02*
X348200D01*
X333900Y276799D02*
X348200D01*
X333900Y275899D02*
X348200D01*
X333900Y274999D02*
X348200D01*
X333900Y274099D02*
X346800D01*
X333321Y265999D02*
X346679D01*
X334100Y273199D02*
X345900D01*
X334174Y266899D02*
X345826D01*
X333900Y279499D02*
X345756D01*
X334664Y272299D02*
X345336D01*
X334711Y267799D02*
X345289D01*
X335008Y271399D02*
X344992D01*
X335035Y268699D02*
X344965D01*
X335176Y270499D02*
X344824D01*
X335185Y269599D02*
X344815D01*
X293900Y124699D02*
X343558D01*
X293900Y125599D02*
X342604D01*
X293900Y126499D02*
X342352D01*
X340394Y128299D02*
X342350D01*
X293900Y127399D02*
X342350D01*
X340952Y129199D02*
X341533D01*
X339974Y280399D02*
X341026D01*
X339597Y178699D02*
X340403D01*
X333900Y280399D02*
X336026D01*
X333900Y281299D02*
X334877D01*
X333900Y282199D02*
X334577D01*
X334069Y283099D02*
X334568D01*
X332594Y128299D02*
X333406D01*
X330200Y178699D02*
X332603D01*
X330200Y177799D02*
X332047D01*
X321737Y265099D02*
X328263D01*
X323321Y265999D02*
X326679D01*
X324174Y266899D02*
X325826D01*
X293900Y128299D02*
X325606D01*
X324711Y267799D02*
X325289D01*
X323972Y135499D02*
X325183D01*
X293900Y129199D02*
X325048D01*
X323091Y134599D02*
X325012D01*
X308972Y133699D02*
X325000D01*
X293900Y132799D02*
X325000D01*
X293900Y131899D02*
X325000D01*
X293900Y130999D02*
X325000D01*
X293900Y130099D02*
X325000D01*
X324199Y136399D02*
X324283D01*
X293900Y202099D02*
X323488D01*
X293900Y202999D02*
X323415D01*
X322701Y183199D02*
X323250D01*
X293900Y184099D02*
X323121D01*
X293900Y189499D02*
X323063D01*
X293900Y196699D02*
X322829D01*
X309296Y203899D02*
X322698D01*
X293900Y201199D02*
X322470D01*
X293900Y184999D02*
X322372D01*
X293900Y188599D02*
X322355D01*
X293900Y197599D02*
X322285D01*
X293900Y200299D02*
X322202D01*
X293900Y199399D02*
X322198D01*
X293900Y198499D02*
X322198D01*
X293900Y187699D02*
X322198D01*
X293900Y186799D02*
X322198D01*
X293900Y185899D02*
X322198D01*
X293900Y292999D02*
X321300D01*
X293900Y292099D02*
X321300D01*
X293900Y293899D02*
X320528D01*
X293900Y294799D02*
X319355D01*
X317922Y295699D02*
X318826D01*
X293900Y274999D02*
X318567D01*
X293900Y265099D02*
X318263D01*
X316391Y134599D02*
X317609D01*
X293900Y291199D02*
X317433D01*
X316697Y204799D02*
X317303D01*
X293900Y284899D02*
X317264D01*
X316818Y211099D02*
X317182D01*
X293900Y275899D02*
X316803D01*
X293900Y274099D02*
X316800D01*
X293900Y265999D02*
X316679D01*
X293900Y283999D02*
X316676D01*
X293900Y183199D02*
X316599D01*
X293900Y290299D02*
X316533D01*
X293900Y285799D02*
X316486D01*
X293900Y289399D02*
X316301D01*
X293900Y288499D02*
X316300D01*
X293900Y287599D02*
X316300D01*
X293900Y286699D02*
X316300D01*
X293900Y276799D02*
X315902D01*
X293900Y273199D02*
X315900D01*
X293900Y266899D02*
X315826D01*
X293900Y283099D02*
X315824D01*
X293900Y277699D02*
X315337D01*
X293900Y272299D02*
X315336D01*
X293900Y267799D02*
X315289D01*
X293900Y282199D02*
X315288D01*
X293900Y278599D02*
X314992D01*
X293900Y271399D02*
X314992D01*
X293900Y268699D02*
X314965D01*
X293900Y281299D02*
X314965D01*
X293900Y279499D02*
X314824D01*
X293900Y270499D02*
X314824D01*
X293900Y269599D02*
X314815D01*
X293900Y280399D02*
X314815D01*
X293900Y182299D02*
X314650D01*
X293900Y181399D02*
X313256D01*
X293900Y180499D02*
X312324D01*
X308972Y295699D02*
X312078D01*
X293900Y179599D02*
X311649D01*
X293900Y178699D02*
X311156D01*
X310024Y296599D02*
X311067D01*
X310024Y134599D02*
X310909D01*
X293900Y177799D02*
X310806D01*
X310165Y204799D02*
X310603D01*
X293900Y176899D02*
X310580D01*
X293900Y175999D02*
X310466D01*
X293900Y175099D02*
X310450D01*
X293900Y174199D02*
X310450D01*
X293900Y173299D02*
X310450D01*
X293900Y172399D02*
X310450D01*
X293900Y171499D02*
X310450D01*
X293900Y170599D02*
X310450D01*
X293900Y169699D02*
X310450D01*
X293900Y168799D02*
X310450D01*
X293900Y167899D02*
X310450D01*
X293900Y166999D02*
X310450D01*
X293900Y166099D02*
X310450D01*
X293900Y165199D02*
X310450D01*
X293900Y164299D02*
X310450D01*
X293900Y163399D02*
X310450D01*
X293900Y162499D02*
X310450D01*
X293900Y161599D02*
X310450D01*
X293900Y160699D02*
X310450D01*
X293900Y159799D02*
X310450D01*
X293900Y158899D02*
X310450D01*
X293900Y157999D02*
X310450D01*
X293900Y157099D02*
X310450D01*
X293900Y156199D02*
X310450D01*
X293900Y155299D02*
X310450D01*
X293900Y154399D02*
X310450D01*
X293900Y153499D02*
X310450D01*
X293900Y152599D02*
X310450D01*
X293900Y151699D02*
X310450D01*
X293900Y150799D02*
X310450D01*
X293900Y149899D02*
X310450D01*
X293900Y148999D02*
X310450D01*
X293900Y148099D02*
X310450D01*
X293900Y147199D02*
X310450D01*
X293900Y146299D02*
X310450D01*
X293900Y145399D02*
X310450D01*
X293900Y144499D02*
X310450D01*
X293900Y143599D02*
X310450D01*
X307494Y142699D02*
X310450D01*
X309666Y141799D02*
X310450D01*
X293900Y142699D02*
X294506D01*
G54D148*
X294600Y298600D02*
Y301400D01*
X307400*
Y298600*
X294600*
X295200D02*
Y301400D01*
X298400Y298600D02*
Y301400D01*
X301600Y298600D02*
Y301400D01*
X304800Y298600D02*
Y301400D01*
X294600Y308600D02*
Y311400D01*
X307400*
Y308600*
X294600*
Y311200D02*
X307400D01*
X295200Y308600D02*
Y311400D01*
X298400Y308600D02*
Y311400D01*
X301600Y308600D02*
Y311400D01*
X304800Y308600D02*
Y311400D01*
X294600Y288600D02*
Y291400D01*
X307400*
Y288600*
X294600*
Y288800D02*
X307400D01*
X295200Y288600D02*
Y291400D01*
X298400Y288600D02*
Y291400D01*
X301600Y288600D02*
Y291400D01*
X304800Y288600D02*
Y291400D01*
X294600Y136600D02*
Y139400D01*
X307400*
Y136600*
X294600*
Y138400D02*
X307400D01*
X295200Y136600D02*
Y139400D01*
X298400Y136600D02*
Y139400D01*
X301600Y136600D02*
Y139400D01*
X304800Y136600D02*
Y139400D01*
X294600Y146600D02*
Y149400D01*
X307400*
Y146600*
X294600*
Y148000D02*
X307400D01*
X295200Y146600D02*
Y149400D01*
X298400Y146600D02*
Y149400D01*
X301600Y146600D02*
Y149400D01*
X304800Y146600D02*
Y149400D01*
X294600Y126600D02*
Y129400D01*
X307400*
Y126600*
X294600*
Y128800D02*
X307400D01*
X295200Y126600D02*
Y129400D01*
X298400Y126600D02*
Y129400D01*
X301600Y126600D02*
Y129400D01*
X304800Y126600D02*
Y129400D01*
X294600Y206600D02*
Y209400D01*
X307400*
Y206600*
X294600*
Y208800D02*
X307400D01*
X295200Y206600D02*
Y209400D01*
X298400Y206600D02*
Y209400D01*
X301600Y206600D02*
Y209400D01*
X304800Y206600D02*
Y209400D01*
X294600Y216600D02*
Y219400D01*
X307400*
Y216600*
X294600*
Y218400D02*
X307400D01*
X295200Y216600D02*
Y219400D01*
X298400Y216600D02*
Y219400D01*
X301600Y216600D02*
Y219400D01*
X304800Y216600D02*
Y219400D01*
X294600Y196600D02*
Y199400D01*
X307400*
Y196600*
X294600*
Y199200D02*
X307400D01*
X295200Y196600D02*
Y199400D01*
X298400Y196600D02*
Y199400D01*
X301600Y196600D02*
Y199400D01*
X304800Y196600D02*
Y199400D01*
X336000Y106000D03*
X361000D03*
X352000Y114000D03*
X381000Y106000D03*
X323000Y118000D03*
X315000Y128000D03*
X335000Y124000D03*
X372000Y116000D03*
X405000Y128000D03*
X392000Y124000D03*
X417000Y131000D03*
X319100Y151000D03*
X347000Y146000D03*
Y152000D03*
X342000Y142000D03*
X334000Y141000D03*
X363000Y136000D03*
X358000Y149000D03*
X349000Y140000D03*
X370000Y148000D03*
X397000Y149000D03*
X395000Y138000D03*
X425000Y140000D03*
X408000Y143000D03*
X434000Y150000D03*
X307000Y162000D03*
X298000Y168000D03*
X301000Y154900D03*
X319000Y166000D03*
X334000Y162000D03*
X345000Y160000D03*
X339000Y164000D03*
X364000Y157000D03*
X351000Y159000D03*
X375000Y164000D03*
X407000Y155000D03*
X395000Y162000D03*
X404000Y168000D03*
X419000D03*
Y155000D03*
X445000Y159000D03*
X434000Y171000D03*
X298000Y183000D03*
X301000Y191600D03*
X308000Y184000D03*
X345000Y182000D03*
X333000D03*
X347000Y189000D03*
X338000Y182000D03*
X362000Y191000D03*
X351000Y183000D03*
X387000Y179000D03*
X374000Y182000D03*
X405000D03*
X422000Y181000D03*
X461000Y187000D03*
X346000Y202000D03*
X334000D03*
X347000Y195000D03*
X340000Y205000D03*
X351000Y198000D03*
X364000Y203000D03*
X353000Y212000D03*
X377000Y199000D03*
X388000Y203000D03*
X401200Y207200D03*
X393300Y212700D03*
X388800Y213000D03*
X401000Y201800D03*
X420500Y201700D03*
X420800Y212800D03*
X415500Y201800D03*
X445000Y203000D03*
X437000Y197000D03*
X428000Y204000D03*
X454000Y197000D03*
X487000Y204000D03*
X303000Y231000D03*
X301000Y223800D03*
X317000Y218000D03*
X331000Y215000D03*
X342000Y223000D03*
X328000Y228000D03*
X357000Y223000D03*
X366000Y233000D03*
X368000Y216000D03*
X383300Y227200D03*
X407000Y217000D03*
X403000D03*
X407000Y225000D03*
X403000D03*
X407000Y221000D03*
X396300Y233700D03*
X393100Y230100D03*
X388800Y227900D03*
X411000Y221000D03*
Y225000D03*
Y217000D03*
X420000Y232000D03*
X428500Y233300D03*
X451000Y231000D03*
X463000Y223000D03*
X449000Y217000D03*
X475000Y233000D03*
X487000Y229000D03*
X475000Y218000D03*
X297000Y242000D03*
X307000Y248000D03*
X315000Y236000D03*
X325000Y245000D03*
X340000Y235000D03*
X338000Y249000D03*
X350000Y237000D03*
X358000Y249000D03*
X373500Y244300D03*
X394800Y242000D03*
X404200D03*
X415800Y237800D03*
X412200Y244500D03*
X437000Y253000D03*
X440500Y244500D03*
X451000Y247000D03*
X463000Y237000D03*
X469000Y251000D03*
X307000Y266000D03*
X297000Y260000D03*
X318000Y256000D03*
X341000Y267000D03*
X333000Y260000D03*
X338000Y274400D03*
X349000Y258000D03*
X368000Y260000D03*
X376000Y267000D03*
X385000Y272000D03*
X392000Y260000D03*
X401000Y270000D03*
X411000Y259000D03*
X418000Y268000D03*
X430000Y264000D03*
X297000Y275000D03*
X301000Y283300D03*
X311000Y276000D03*
X315300Y293000D03*
X347500Y282300D03*
X367000Y288000D03*
X363400Y294000D03*
X370000Y276000D03*
X380000Y284000D03*
X397000Y279000D03*
X393000Y290000D03*
X401100Y289500D03*
X414000Y279000D03*
X417000Y289000D03*
X430000Y278000D03*
X321900Y296900D03*
X337000Y297000D03*
Y303000D03*
X343000D03*
Y297000D03*
X340000Y300000D03*
X331700Y312600D03*
X363600Y309400D03*
X364700Y304700D03*
X358600Y298700D03*
X364100Y298500D03*
X358600Y311500D03*
X347900Y312300D03*
X380000Y304500D03*
X398000Y302000D03*
X400900Y313500D03*
X409800Y309500D03*
X423500Y304500D03*
X297000Y333000D03*
X298000Y321000D03*
X301000Y316300D03*
X313000Y330000D03*
X324000Y329000D03*
X322500Y317300D03*
X331900Y328900D03*
X344400D03*
X352100Y327700D03*
X370000Y321000D03*
X379900Y328500D03*
X393000Y317000D03*
X391700Y330500D03*
X423500Y328500D03*
X307000Y339000D03*
X297000Y350000D03*
X313000D03*
X334000D03*
X356000Y351000D03*
X371000Y350000D03*
X412300Y340000D03*
X424000Y349000D03*
X431000Y336000D03*
G54D149*
X385370Y328500D03*
Y323500D03*
Y318500D03*
Y313500D03*
X406630D03*
Y318500D03*
Y323500D03*
Y328500D03*
X385370Y304500D03*
Y299500D03*
Y294500D03*
Y289500D03*
X406630D03*
Y294500D03*
Y299500D03*
Y304500D03*
G54D150*
X401094Y215094D02*
Y226906D01*
X412906*
Y215094*
X401094*
Y216142D02*
X412906D01*
X401094Y218110D02*
X412906D01*
X401094Y220079D02*
X412906D01*
X401094Y222047D02*
X412906D01*
X401094Y224016D02*
X412906D01*
X401094Y225984D02*
X412906D01*
X401181Y215094D02*
Y226906D01*
X403150Y215094D02*
Y226906D01*
X405118Y215094D02*
Y226906D01*
X407087Y215094D02*
Y226906D01*
X409055Y215094D02*
Y226906D01*
X411024Y215094D02*
Y226906D01*
G54D151*
X397244Y344094D03*
X304724Y111811D03*
G54D152*
X323425Y141075D02*
X326850Y144500D01*
X327047*
X320350Y138000D02*
X323425Y141075D01*
X327000Y165650D02*
Y157228D01*
X327047Y157181*
X326350Y180000D02*
Y186003D01*
X326683Y186336*
Y186455*
X327047Y186819*
Y199181D02*
Y200800D01*
G74*
X0Y0D02*
M02*
