*
*
G04 PADS9.1 Build Number: 384028 generated Gerber (RS-274-X) file*
G04 PC Version=2.1*
*
%IN "PSDR_00BB.pcb"*%
*
%MOIN*%
*
%FSLAX35Y35*%
*
*
*
*
G04 PC Standard Apertures*
*
*
G04 Thermal Relief Aperture macro.*
%AMTER*
1,1,$1,0,0*
1,0,$1-$2,0,0*
21,0,$3,$4,0,0,45*
21,0,$3,$4,0,0,135*
%
*
*
G04 Annular Aperture macro.*
%AMANN*
1,1,$1,0,0*
1,0,$2,0,0*
%
*
*
G04 Odd Aperture macro.*
%AMODD*
1,1,$1,0,0*
1,0,$1-0.005,0,0*
%
*
*
G04 PC Custom Aperture Macros*
*
*
*
*
*
*
G04 PC Aperture Table*
*
%ADD010C,0.01*%
%ADD011C,0.008*%
%ADD012C,0.00787*%
%ADD042C,0.001*%
%ADD053C,0.002*%
%ADD082C,0.006*%
*
*
*
*
G04 PC Circuitry*
G04 Layer Name PSDR_00BB.pcb - circuitry*
%LPD*%
*
*
G04 PC Custom Flashes*
G04 Layer Name PSDR_00BB.pcb - flashes*
%LPD*%
*
*
G04 PC Circuitry*
G04 Layer Name PSDR_00BB.pcb - circuitry*
%LPD*%
*
G54D10*
G01X128901Y269800D02*
G75*
G03X128901I-1000J0D01*
G01X126928Y336220D02*
G03X126928I-11180J0D01*
G01X489133D02*
G03X489133I-11180J0D01*
G01X205669Y115748D02*
G03X205669I-11181J0D01*
G01X374960D02*
G03X374960I-11180J0D01*
G01X331000Y164563D02*
Y158000D01*
Y164563D02*
X333045D01*
X333045D02*
X333727Y164250D01*
X333955Y163938*
X333955D02*
X334182Y163313D01*
X334182D02*
Y162375D01*
X333955Y161750*
X333727Y161438*
X333727D02*
X333045Y161125D01*
X331000*
X339409Y163625D02*
X338955Y164250D01*
X338273Y164563*
X338273D02*
X337364D01*
X337364D02*
X336682Y164250D01*
X336227Y163625*
Y163000*
X336455Y162375*
X336682Y162063*
X336682D02*
X337136Y161750D01*
X338500Y161125*
X338955Y160813*
X338955D02*
X339182Y160500D01*
X339409Y159875*
Y158938*
X339409D02*
X338955Y158313D01*
X338955D02*
X338273Y158000D01*
X337364*
X336682Y158313*
X336682D02*
X336227Y158938D01*
X341455Y164563D02*
Y158000D01*
Y164563D02*
X343045D01*
X343045D02*
X343727Y164250D01*
X344182Y163625*
X344409Y163000*
X344636Y162063*
X344636D02*
Y160500D01*
X344409Y159563*
X344409D02*
X344182Y158938D01*
X344182D02*
X343727Y158313D01*
X343727D02*
X343045Y158000D01*
X341455*
X346682Y164563D02*
Y158000D01*
Y164563D02*
X348727D01*
X348727D02*
X349409Y164250D01*
X349636Y163938*
X349636D02*
X349864Y163313D01*
X349864D02*
Y162688D01*
X349864D02*
X349636Y162063D01*
X349636D02*
X349409Y161750D01*
X348727Y161438*
X348727D02*
X346682D01*
X348273D02*
X349864Y158000D01*
X351909Y163313D02*
X352364Y163625D01*
X353045Y164563*
X353045D02*
Y158000D01*
X294000Y154563D02*
Y148000D01*
Y154563D02*
X296045D01*
X296045D02*
X296727Y154250D01*
X296955Y153938*
X296955D02*
X297182Y153313D01*
X297182D02*
Y152688D01*
X297182D02*
X296955Y152063D01*
X296955D02*
X296727Y151750D01*
X296045Y151438*
X294000D02*
X296045D01*
X296045D02*
X296727Y151125D01*
X296955Y150813*
X296955D02*
X297182Y150188D01*
X297182D02*
Y149250D01*
X296955Y148625*
X296727Y148313*
X296727D02*
X296045Y148000D01*
X294000*
X299455Y152375D02*
X300818Y148000D01*
X302182Y152375D02*
X300818Y148000D01*
X300364Y146750*
X299909Y146125*
X299455Y145812*
X299455D02*
X299227D01*
X309455Y154563D02*
Y148000D01*
Y154563D02*
X311273Y148000D01*
X313091Y154563D02*
X311273Y148000D01*
X313091Y154563D02*
Y148000D01*
X315136Y154563D02*
X315364Y154250D01*
X315591Y154563*
X315591D02*
X315364Y154875D01*
X315136Y154563*
X315364Y152375D02*
Y148000D01*
X320364Y151438D02*
X319909Y152063D01*
X319909D02*
X319455Y152375D01*
X318773*
X318318Y152063*
X318318D02*
X317864Y151438D01*
X317864D02*
X317636Y150500D01*
Y149875*
X317864Y148938*
X317864D02*
X318318Y148313D01*
X318318D02*
X318773Y148000D01*
X319455*
X319909Y148313*
X319909D02*
X320364Y148938D01*
X322409Y154563D02*
Y148000D01*
Y151125D02*
X323091Y152063D01*
X323091D02*
X323545Y152375D01*
X324227*
X324682Y152063*
X324682D02*
X324909Y151125D01*
Y148000*
X329682Y152375D02*
Y148000D01*
Y151438D02*
X329227Y152063D01*
X329227D02*
X328773Y152375D01*
X328091*
X327636Y152063*
X327636D02*
X327182Y151438D01*
X327182D02*
X326955Y150500D01*
Y149875*
X327182Y148938*
X327182D02*
X327636Y148313D01*
X327636D02*
X328091Y148000D01*
X328773*
X329227Y148313*
X329227D02*
X329682Y148938D01*
X331727Y150500D02*
X334455D01*
Y151125*
X334227Y151750*
X334000Y152063*
X334000D02*
X333545Y152375D01*
X332864*
X332409Y152063*
X332409D02*
X331955Y151438D01*
X331955D02*
X331727Y150500D01*
Y149875*
X331955Y148938*
X331955D02*
X332409Y148313D01*
X332409D02*
X332864Y148000D01*
X333545*
X334000Y148313*
X334000D02*
X334455Y148938D01*
X336500Y154563D02*
Y148000D01*
X347182Y153000D02*
X346955Y153625D01*
X346500Y154250*
X346045Y154563*
X346045D02*
X345136D01*
X345136D02*
X344682Y154250D01*
X344227Y153625*
X344000Y153000*
X343773Y152063*
X343773D02*
Y150500D01*
X344000Y149563*
X344000D02*
X344227Y148938D01*
X344227D02*
X344682Y148313D01*
X344682D02*
X345136Y148000D01*
X346045*
X346500Y148313*
X346500D02*
X346955Y148938D01*
X346955D02*
X347182Y149563D01*
X350364Y152375D02*
X349909Y152063D01*
X349909D02*
X349455Y151438D01*
X349455D02*
X349227Y150500D01*
Y149875*
X349455Y148938*
X349455D02*
X349909Y148313D01*
X349909D02*
X350364Y148000D01*
X351045*
X351500Y148313*
X351500D02*
X351955Y148938D01*
X351955D02*
X352182Y149875D01*
Y150500*
X351955Y151438*
X351955D02*
X351500Y152063D01*
X351500D02*
X351045Y152375D01*
X350364*
X354227Y154563D02*
Y148000D01*
X356955Y154563D02*
Y149250D01*
X357182Y148313*
X357182D02*
X357636Y148000D01*
X358091*
X356273Y152375D02*
X357864D01*
X361273D02*
X360818Y152063D01*
X360818D02*
X360364Y151438D01*
X360364D02*
X360136Y150500D01*
Y149875*
X360364Y148938*
X360364D02*
X360818Y148313D01*
X360818D02*
X361273Y148000D01*
X361955*
X362409Y148313*
X362409D02*
X362864Y148938D01*
X362864D02*
X363091Y149875D01*
Y150500*
X362864Y151438*
X362864D02*
X362409Y152063D01*
X362409D02*
X361955Y152375D01*
X361273*
X365136D02*
Y148000D01*
Y151125D02*
X365818Y152063D01*
X365818D02*
X366273Y152375D01*
X366955*
X367409Y152063*
X367409D02*
X367636Y151125D01*
Y148000*
X323000Y143563D02*
Y137000D01*
X326182Y143563D02*
X323000Y139188D01*
X324136Y140750D02*
X326182Y137000D01*
X328227Y143563D02*
Y137000D01*
Y143563D02*
X331182D01*
X328227Y140438D02*
X330045D01*
X328227Y137000D02*
X331182D01*
X336409Y143563D02*
X334136Y137000D01*
X333227Y143563D02*
X336409D01*
X338455D02*
Y137000D01*
X341636Y143563D02*
Y137000D01*
X338455Y140438D02*
X341636D01*
X343682Y143563D02*
Y137000D01*
X347545Y143563D02*
X345727Y137000D01*
X347545Y143563D02*
X349364Y137000D01*
X346409Y139188D02*
X348682D01*
X198000Y232000D02*
X230000D01*
X198000D02*
X194500Y235500D01*
Y259000*
X196750Y256750*
G54D11*
X206001Y182600D02*
Y175600D01*
X199601Y182600D02*
Y175600D01*
X213001Y184600D02*
Y177600D01*
X206601Y184600D02*
Y177600D01*
X181301Y329300D02*
X188301D01*
X181301Y322900D02*
X188301D01*
X210500Y317800D02*
X203500D01*
X210500Y324200D02*
X203500D01*
X181301Y267300D02*
X188301D01*
X181301Y260900D02*
X188301D01*
X202301D02*
X195301D01*
X202301Y267300D02*
X195301D01*
X229001Y305600D02*
Y298600D01*
X222601Y305600D02*
Y298600D01*
X247001Y305600D02*
Y298600D01*
X240601Y305600D02*
Y298600D01*
X265001Y305600D02*
Y298600D01*
X258601Y305600D02*
Y298600D01*
X283001Y305600D02*
Y298600D01*
X276601Y305600D02*
Y298600D01*
X231301Y309300D02*
X238301D01*
X231301Y302900D02*
X238301D01*
X249301Y309300D02*
X256301D01*
X249301Y302900D02*
X256301D01*
X267301Y309300D02*
X274301D01*
X267301Y302900D02*
X274301D01*
X276601Y328600D02*
Y335600D01*
X283001Y328600D02*
Y335600D01*
X240601Y328600D02*
Y335600D01*
X247001Y328600D02*
Y335600D01*
X346001Y255400D02*
Y262400D01*
X352401Y255400D02*
Y262400D01*
X456001Y231400D02*
Y238400D01*
X462401Y231400D02*
Y238400D01*
X176301Y287900D02*
X169301D01*
X176301Y294300D02*
X169301D01*
X168401Y233000D02*
X175401D01*
X168401Y226600D02*
X175401D01*
X159001Y319600D02*
Y312600D01*
X152601Y319600D02*
Y312600D01*
X272601Y171600D02*
Y178600D01*
X279001Y171600D02*
Y178600D01*
X152601Y298600D02*
Y305600D01*
X159001Y298600D02*
Y305600D01*
X418701Y175100D02*
X425701D01*
X418701Y168700D02*
X425701D01*
X418701Y181100D02*
X425701D01*
X418701Y174700D02*
X425701D01*
X467701Y174100D02*
X474701D01*
X467701Y167700D02*
X474701D01*
X467701Y180100D02*
X474701D01*
X467701Y173700D02*
X474701D01*
X173301Y322900D02*
X166301D01*
X173301Y329300D02*
X166301D01*
X163001Y333600D02*
Y326600D01*
X156601Y333600D02*
Y326600D01*
X176301Y279900D02*
X169301D01*
X176301Y286300D02*
X169301D01*
X159001Y258600D02*
Y251600D01*
X152601Y258600D02*
Y251600D01*
Y238600D02*
Y245600D01*
X159001Y238600D02*
Y245600D01*
X168401Y227000D02*
X175401D01*
X168401Y220600D02*
X175401D01*
X172301Y260900D02*
X165301D01*
X172301Y267300D02*
X165301D01*
X162001Y273600D02*
Y266600D01*
X155601Y273600D02*
Y266600D01*
X344301Y331900D02*
X337301D01*
X344301Y338300D02*
X337301D01*
X221301Y209300D02*
X228301D01*
X221301Y202900D02*
X228301D01*
X450001Y231400D02*
Y238400D01*
X456401Y231400D02*
Y238400D01*
X340001Y255400D02*
Y262400D01*
X346401Y255400D02*
Y262400D01*
X265401Y200000D02*
X272401D01*
X265401Y193600D02*
X272401D01*
X134001Y286600D02*
Y279600D01*
X127601Y286600D02*
Y279600D01*
X472701Y209700D02*
X465701D01*
X472701Y216100D02*
X465701D01*
X460701Y209700D02*
X453701D01*
X460701Y216100D02*
X453701D01*
X424701Y210700D02*
X417701D01*
X424701Y217100D02*
X417701D01*
X411701Y210700D02*
X404701D01*
X411701Y217100D02*
X404701D01*
X150601Y326600D02*
Y333600D01*
X157001Y326600D02*
Y333600D01*
X149601Y266600D02*
Y273600D01*
X156001Y266600D02*
Y273600D01*
X344301Y324900D02*
X337301D01*
X344301Y331300D02*
X337301D01*
X232801Y315600D02*
X227301D01*
Y308600*
X232801*
X236801D02*
X242301D01*
Y315600*
X236801*
X250801D02*
X245301D01*
Y308600*
X250801*
X254801D02*
X260301D01*
Y315600*
X254801*
X268801D02*
X263301D01*
Y308600*
X268801*
X272801D02*
X278301D01*
Y315600*
X272801*
X232801Y325600D02*
X227301D01*
Y318600*
X232801*
X236801D02*
X242301D01*
Y325600*
X236801*
X250801D02*
X245301D01*
Y318600*
X250801*
X254801D02*
X260301D01*
Y325600*
X254801*
X268801D02*
X263301D01*
Y318600*
X268801*
X272801D02*
X278301D01*
Y325600*
X272801*
X232801Y278600D02*
X227301D01*
Y271600*
X232801*
X236801D02*
X242301D01*
Y278600*
X236801*
X250801D02*
X245301D01*
Y271600*
X250801*
X254801D02*
X260301D01*
Y278600*
X254801*
X172401Y183800D02*
Y179800D01*
X179401*
Y183800*
X172401Y189800D02*
Y193800D01*
X179401*
Y189800*
X171901Y184800D02*
X168901D01*
X170401D02*
X171901Y187800D01*
X168901*
X170401Y184800*
Y181800*
Y187800D02*
Y191800D01*
X388401Y267800D02*
Y271800D01*
X381401*
Y267800*
X388401Y261800D02*
Y257800D01*
X381401*
Y261800*
X253901Y117300D02*
X257901D01*
Y124300*
X253901*
X247901Y117300D02*
X243901D01*
Y124300*
X247901*
X413901Y236300D02*
X409901D01*
Y229300*
X413901*
X419901Y236300D02*
X423901D01*
Y229300*
X419901*
X413901Y247300D02*
X409901D01*
Y240300*
X413901*
X419901Y247300D02*
X423901D01*
Y240300*
X419901*
X187801Y267600D02*
X191801D01*
Y274600*
X187801*
X181801Y267600D02*
X177801D01*
Y274600*
X181801*
X195801D02*
X191801D01*
Y267600*
X195801*
X201801Y274600D02*
X205801D01*
Y267600*
X201801*
X302301Y318100D02*
Y314100D01*
X309301*
Y318100*
X302301Y324100D02*
Y328100D01*
X309301*
Y324100*
X317301Y328100D02*
Y332100D01*
X310301*
Y328100*
X317301Y322100D02*
Y318100D01*
X310301*
Y322100*
X302301Y303100D02*
Y299100D01*
X309301*
Y303100*
X302301Y309100D02*
Y313100D01*
X309301*
Y309100*
X317301Y306100D02*
Y310100D01*
X310301*
Y306100*
X317301Y300100D02*
Y296100D01*
X310301*
Y300100*
X187801Y330600D02*
X191801D01*
Y337600*
X187801*
X181801Y330600D02*
X177801D01*
Y337600*
X181801*
X204000Y332500D02*
X200000D01*
Y325500*
X204000*
X210000Y332500D02*
X214000D01*
Y325500*
X210000*
X172401Y198800D02*
Y194800D01*
X179401*
Y198800*
X172401Y204800D02*
Y208800D01*
X179401*
Y204800*
X172801Y330600D02*
X176801D01*
Y337600*
X172801*
X166801Y330600D02*
X162801D01*
Y337600*
X166801*
X171801Y267600D02*
X175801D01*
Y274600*
X171801*
X165801Y267600D02*
X161801D01*
Y274600*
X165801*
X134801Y281400D02*
Y278900D01*
X137101*
X141179Y288037D02*
X138423D01*
Y280163D02*
X141179D01*
X319628Y320399D02*
Y323549D01*
X323171*
X389401Y266800D02*
Y274800D01*
X396401Y266800D02*
Y274800D01*
X396701Y267300D02*
Y274300D01*
X403101Y267300D02*
Y274300D01*
X388401Y282800D02*
Y286800D01*
X381401*
Y282800*
X388401Y276800D02*
Y272800D01*
X381401*
Y276800*
X259001Y147600D02*
Y140600D01*
X252601Y147600D02*
Y140600D01*
X221301Y215300D02*
X228301D01*
X221301Y208900D02*
X228301D01*
X206001Y168600D02*
Y161600D01*
X199601Y168600D02*
Y161600D01*
X269401Y193000D02*
X276401D01*
X269401Y186600D02*
X276401D01*
X253001Y147600D02*
Y140600D01*
X246601Y147600D02*
Y140600D01*
X230301Y143900D02*
X223301D01*
X230301Y150300D02*
X223301D01*
X213001Y171600D02*
Y164600D01*
X206601Y171600D02*
Y164600D01*
X302301Y126100D02*
Y122100D01*
X309301*
Y126100*
X302301Y132100D02*
Y136100D01*
X309301*
Y132100*
X222601Y328600D02*
Y335600D01*
X229001Y328600D02*
Y335600D01*
X258601Y328600D02*
Y335600D01*
X265001Y328600D02*
Y335600D01*
X231301Y331300D02*
X238301D01*
X231301Y324900D02*
X238301D01*
X249301Y331300D02*
X256301D01*
X249301Y324900D02*
X256301D01*
X267301Y331300D02*
X274301D01*
X267301Y324900D02*
X274301D01*
X222601Y281600D02*
Y288600D01*
X229001Y281600D02*
Y288600D01*
X240601Y281600D02*
Y288600D01*
X247001Y281600D02*
Y288600D01*
X258601Y281600D02*
Y288600D01*
X265001Y281600D02*
Y288600D01*
X276601Y281600D02*
Y288600D01*
X283001Y281600D02*
Y288600D01*
X231301Y284300D02*
X238301D01*
X231301Y277900D02*
X238301D01*
X249301Y284300D02*
X256301D01*
X249301Y277900D02*
X256301D01*
X267301Y284300D02*
X274301D01*
X267301Y277900D02*
X274301D01*
X229001Y258600D02*
Y251600D01*
X222601Y258600D02*
Y251600D01*
X247001Y258600D02*
Y251600D01*
X240601Y258600D02*
Y251600D01*
X265001Y258600D02*
Y251600D01*
X258601Y258600D02*
Y251600D01*
X283001Y258600D02*
Y251600D01*
X276601Y258600D02*
Y251600D01*
X231301Y262300D02*
X238301D01*
X231301Y255900D02*
X238301D01*
X249301Y262300D02*
X256301D01*
X249301Y255900D02*
X256301D01*
X267301Y262300D02*
X274301D01*
X267301Y255900D02*
X274301D01*
X268801Y278600D02*
X263301D01*
Y271600*
X268801*
X272801D02*
X278301D01*
Y278600*
X272801*
X232801Y268600D02*
X227301D01*
Y261600*
X232801*
X236801D02*
X242301D01*
Y268600*
X236801*
X250801D02*
X245301D01*
Y261600*
X250801*
X254801D02*
X260301D01*
Y268600*
X254801*
X268801D02*
X263301D01*
Y261600*
X268801*
X272801D02*
X278301D01*
Y268600*
X272801*
X294301Y126100D02*
Y122100D01*
X301301*
Y126100*
X294301Y132100D02*
Y136100D01*
X301301*
Y132100*
X286301Y126100D02*
Y122100D01*
X293301*
Y126100*
X286301Y132100D02*
Y136100D01*
X293301*
Y132100*
X487701Y204900D02*
Y208900D01*
X480701*
Y204900*
X487701Y198900D02*
Y194900D01*
X480701*
Y198900*
X439701Y205900D02*
Y209900D01*
X432701*
Y205900*
X439701Y199900D02*
Y195900D01*
X432701*
Y199900*
X480701Y204900D02*
Y208900D01*
X473701*
Y204900*
X480701Y198900D02*
Y194900D01*
X473701*
Y198900*
X445701Y188900D02*
Y184900D01*
X452701*
Y188900*
X445701Y194900D02*
Y198900D01*
X452701*
Y194900*
Y179900D02*
Y183900D01*
X445701*
Y179900*
X452701Y173900D02*
Y169900D01*
X445701*
Y173900*
X432701Y205900D02*
Y209900D01*
X425701*
Y205900*
X432701Y199900D02*
Y195900D01*
X425701*
Y199900*
X397701Y189900D02*
Y185900D01*
X404701*
Y189900*
X397701Y195900D02*
Y199900D01*
X404701*
Y195900*
Y180900D02*
Y184900D01*
X397701*
Y180900*
X404701Y174900D02*
Y170900D01*
X397701*
Y174900*
X309401Y222000D02*
X316401D01*
X309401Y215600D02*
X316401D01*
X333401Y222000D02*
X340401D01*
X333401Y215600D02*
X340401D01*
X323101Y241300D02*
Y234300D01*
X316701Y241300D02*
Y234300D01*
X329101Y241300D02*
Y234300D01*
X322701Y241300D02*
Y234300D01*
X317101Y241300D02*
Y234300D01*
X310701Y241300D02*
Y234300D01*
X335101Y241300D02*
Y234300D01*
X328701Y241300D02*
Y234300D01*
X333401Y216000D02*
X340401D01*
X333401Y209600D02*
X340401D01*
X309401Y216000D02*
X316401D01*
X309401Y209600D02*
X316401D01*
X348401Y184800D02*
Y188800D01*
X341401*
Y184800*
X348401Y178800D02*
Y174800D01*
X341401*
Y178800*
X317401Y193800D02*
Y189800D01*
X324401*
Y193800*
X317401Y199800D02*
Y203800D01*
X324401*
Y199800*
Y184800D02*
Y188800D01*
X317401*
Y184800*
X324401Y178800D02*
Y174800D01*
X317401*
Y178800*
X341401Y193800D02*
Y189800D01*
X348401*
Y193800*
X341401Y199800D02*
Y203800D01*
X348401*
Y199800*
X326401Y214800D02*
Y218800D01*
X319401*
Y214800*
X326401Y208800D02*
Y204800D01*
X319401*
Y208800*
X350401Y214800D02*
Y218800D01*
X343401*
Y214800*
X350401Y208800D02*
Y204800D01*
X343401*
Y208800*
X329901Y185300D02*
X325901D01*
Y178300*
X329901*
X335901Y185300D02*
X339901D01*
Y178300*
X335901*
X305901Y185300D02*
X301901D01*
Y178300*
X305901*
X311901Y185300D02*
X315901D01*
Y178300*
X311901*
X217901Y124300D02*
X213901D01*
Y117300*
X217901*
X223901Y124300D02*
X227901D01*
Y117300*
X223901*
X127401Y154800D02*
Y160300D01*
X120401*
Y154800*
Y150800D02*
Y145300D01*
X127401*
Y150800*
X375200Y168400D02*
Y170600D01*
X378200*
X383800D02*
X386800D01*
Y168400*
X279198Y103100D02*
Y112470D01*
X287702*
Y103100*
X297899*
Y112470*
X306403*
Y103100*
X276659D02*
Y100324D01*
X308943*
Y103100*
G54D12*
X169714Y321895D02*
X175915D01*
Y320296*
X177687*
Y321895*
X183887*
Y296305*
X169714*
Y321895*
Y259895D02*
X175915D01*
Y258296*
X177687*
Y259895*
X183887*
Y234305*
X169714*
Y259895*
X327502Y323746D02*
X333013D01*
Y322540*
X334588*
Y323746*
X340100*
Y304454*
X327502*
Y323746*
X434901Y306304D02*
Y279296D01*
X404901*
Y306304*
X434901*
X437666Y309729D02*
G03X437666I-1623J0D01*
G01X219116Y195785D02*
X258486D01*
Y156415*
X219116*
Y195785*
X213407Y190273D02*
Y191848D01*
X219116*
X315806Y201737D02*
Y198292D01*
X315068*
Y197308*
X315806*
Y193863*
X303995*
Y201737*
X315806*
X339806D02*
Y198292D01*
X339068*
Y197308*
X339806*
Y193863*
X327995*
Y201737*
X339806*
X448846Y248199D02*
Y242687D01*
X447641*
Y241113*
X448846*
Y235601*
X429555*
Y248199*
X448846*
X338846Y272199D02*
Y266687D01*
X337641*
Y265113*
X338846*
Y259601*
X319555*
Y272199*
X338846*
X472846Y188010D02*
X453555D01*
Y201790*
X472846*
Y188010*
X472611Y202060D02*
Y209140D01*
X469531*
X424846Y189010D02*
X405555D01*
Y202790*
X424846*
Y189010*
X424611Y203060D02*
Y210140D01*
X421531*
G54D42*
G54D53*
X452858Y100026D02*
X472543D01*
Y107900*
X475102*
Y155538*
G03X473134Y157506I-1968J-0*
G01X452268*
G03X450299Y155538I-0J-1968*
G01Y107900*
X452858*
Y100026*
X390158D02*
X409843D01*
Y107900*
X412402*
Y155538*
G03X410434Y157506I-1968J-0*
G01X389568*
G03X387599Y155538I-0J-1968*
G01Y107900*
X390158*
Y100026*
G54D82*
X482300Y180844D02*
Y177300D01*
Y180844D02*
X483527D01*
X483936Y180675*
X484073Y180506*
X484209Y180169*
Y179831*
X484073Y179494*
X483936Y179325*
X483527Y179156*
X482300*
X483255D02*
X484209Y177300D01*
X486118Y180844D02*
X485709Y180675D01*
X485573Y180338*
X485573D02*
Y180000D01*
X485709Y179663*
X485709D02*
X485982Y179494D01*
X486527Y179325*
X486936Y179156*
X487209Y178819*
X487345Y178481*
Y177975*
X487209Y177638*
X487209D02*
X487073Y177469D01*
X486664Y177300*
X486118*
X485709Y177469*
X485573Y177638*
X485573D02*
X485436Y177975D01*
Y178481*
X485573Y178819*
X485845Y179156*
X486255Y179325*
X486800Y179494*
X487073Y179663*
X487073D02*
X487209Y180000D01*
Y180338*
X487209D02*
X487073Y180675D01*
X486664Y180844*
X486118*
X195300Y208844D02*
X196391Y207156D01*
Y205300*
X197482Y208844D02*
X196391Y207156D01*
X198709Y208169D02*
X198982Y208338D01*
X198982D02*
X199391Y208844D01*
Y205300*
X188345Y180000D02*
X188209Y180338D01*
X188209D02*
X187936Y180675D01*
X187664Y180844*
X187118*
X186845Y180675*
X186573Y180338*
X186573D02*
X186436Y180000D01*
X186300Y179494*
Y178650*
X186436Y178144*
X186573Y177806*
X186845Y177469*
X187118Y177300*
X187664*
X187936Y177469*
X188209Y177806*
X188345Y178144*
X189573Y180169D02*
X189845Y180338D01*
X189845D02*
X190255Y180844D01*
Y177300*
X192300Y180844D02*
X191891Y180675D01*
X191618Y180169*
X191482Y179325*
Y178819*
X191618Y177975*
X191891Y177469*
X192300Y177300*
X192573*
X192982Y177469*
X193255Y177975*
X193391Y178819*
Y179325*
X193255Y180169*
X192982Y180675*
X192573Y180844*
X192300*
X194345Y185000D02*
X194209Y185337D01*
X194209D02*
X193936Y185675D01*
X193664Y185844*
X193118*
X192845Y185675*
X192573Y185337*
X192573D02*
X192436Y185000D01*
X192300Y184494*
Y183650*
X192436Y183144*
X192573Y182806*
X192845Y182469*
X193118Y182300*
X193664*
X193936Y182469*
X194209Y182806*
X194345Y183144*
X195573Y185169D02*
X195845Y185337D01*
X195845D02*
X196255Y185844D01*
Y182300*
X197482Y185169D02*
X197755Y185337D01*
X197755D02*
X198164Y185844D01*
Y182300*
X182345Y344000D02*
X182209Y344338D01*
X182209D02*
X181936Y344675D01*
X181664Y344844*
X181118*
X180845Y344675*
X180573Y344338*
X180573D02*
X180436Y344000D01*
X180300Y343494*
Y342650*
X180436Y342144*
X180573Y341806*
X180845Y341469*
X181118Y341300*
X181664*
X181936Y341469*
X182209Y341806*
X182345Y342144*
X183845Y344844D02*
X185345D01*
X184527Y343494*
X184936*
X185209Y343325*
X185345Y343156*
X185482Y342650*
Y342313*
X185482D02*
X185345Y341806D01*
X185073Y341469*
X184664Y341300*
X184255*
X183845Y341469*
X183709Y341638*
X183709D02*
X183573Y341975D01*
X186709Y344169D02*
X186982Y344338D01*
X186982D02*
X187391Y344844D01*
Y341300*
X194345Y322000D02*
X194209Y322338D01*
X194209D02*
X193936Y322675D01*
X193664Y322844*
X193118*
X192845Y322675*
X192573Y322338*
X192573D02*
X192436Y322000D01*
X192300Y321494*
Y320650*
X192436Y320144*
X192573Y319806*
X192845Y319469*
X193118Y319300*
X193664*
X193936Y319469*
X194209Y319806*
X194345Y320144*
X195845Y322844D02*
X197345D01*
X196527Y321494*
X196936*
X197209Y321325*
X197345Y321156*
X197482Y320650*
Y320313*
X197482D02*
X197345Y319806D01*
X197073Y319469*
X196664Y319300*
X196255*
X195845Y319469*
X195709Y319638*
X195709D02*
X195573Y319975D01*
X198845Y322000D02*
Y322169D01*
X198982Y322506*
X199118Y322675*
X199391Y322844*
X199936*
X200209Y322675*
X200345Y322506*
X200482Y322169*
Y321831*
X200345Y321494*
X200073Y320988*
X200073D02*
X198709Y319300D01*
X200618*
X211345Y224000D02*
X211209Y224337D01*
X211209D02*
X210936Y224675D01*
X210664Y224844*
X210118*
X209845Y224675*
X209573Y224337*
X209573D02*
X209436Y224000D01*
X209300Y223494*
Y222650*
X209436Y222144*
X209573Y221806*
X209845Y221469*
X210118Y221300*
X210664*
X210936Y221469*
X211209Y221806*
X211345Y222144*
X213936Y224844D02*
X212573Y222481D01*
X214618*
X213936Y224844D02*
Y221300D01*
X215982Y224000D02*
Y224169D01*
X216118Y224506*
X216255Y224675*
X216527Y224844*
X217073*
X217345Y224675*
X217482Y224506*
X217618Y224169*
Y223831*
X217482Y223494*
X217209Y222987*
X217209D02*
X215845Y221300D01*
X217755*
X223345Y224000D02*
X223209Y224338D01*
X222936Y224675*
X222664Y224844*
X222118*
X221845Y224675*
X221573Y224338*
X221436Y224000*
X221300Y223494*
Y222650*
X221436Y222144*
X221573Y221806*
X221845Y221469*
X222118Y221300*
X222664*
X222936Y221469*
X223209Y221806*
X223345Y222144*
X225936Y224844D02*
X224573Y222481D01*
X226618*
X225936Y224844D02*
Y221300D01*
X228118Y224844D02*
X229618D01*
X228800Y223494*
X229209*
X229482Y223325*
X229618Y223156*
X229755Y222650*
Y222313*
X229618Y221806*
X229345Y221469*
X228936Y221300*
X228527*
X228118Y221469*
X227982Y221638*
X227845Y221975*
X214345Y300000D02*
X214209Y300338D01*
X214209D02*
X213936Y300675D01*
X213664Y300844*
X213118*
X212845Y300675*
X212573Y300338*
X212573D02*
X212436Y300000D01*
X212300Y299494*
Y298650*
X212436Y298144*
X212573Y297806*
X212845Y297469*
X213118Y297300*
X213664*
X213936Y297469*
X214209Y297806*
X214345Y298144*
X216936Y300844D02*
X215573Y298481D01*
X217618*
X216936Y300844D02*
Y297300D01*
X220618Y300844D02*
X219255D01*
X219118Y299325*
X219255Y299494*
X219664Y299663*
X219664D02*
X220073D01*
X220073D02*
X220482Y299494D01*
X220755Y299156*
X220891Y298650*
X220755Y298313*
X220755D02*
X220618Y297806D01*
X220345Y297469*
X219936Y297300*
X219527*
X219118Y297469*
X218982Y297638*
X218982D02*
X218845Y297975D01*
X236345Y295000D02*
X236209Y295338D01*
X236209D02*
X235936Y295675D01*
X235664Y295844*
X235118*
X234845Y295675*
X234573Y295338*
X234573D02*
X234436Y295000D01*
X234300Y294494*
Y293650*
X234436Y293144*
X234573Y292806*
X234845Y292469*
X235118Y292300*
X235664*
X235936Y292469*
X236209Y292806*
X236345Y293144*
X238936Y295844D02*
X237573Y293481D01*
X239618*
X238936Y295844D02*
Y292300D01*
X242482Y295338D02*
X242345Y295675D01*
X241936Y295844*
X241664*
X241255Y295675*
X240982Y295169*
X240845Y294325*
Y293481*
X240982Y292806*
X241255Y292469*
X241664Y292300*
X241800*
X242209Y292469*
X242482Y292806*
X242618Y293313*
X242618D02*
Y293481D01*
X242482Y293988*
X242482D02*
X242209Y294325D01*
X241800Y294494*
X241664*
X241255Y294325*
X240982Y293988*
X240982D02*
X240845Y293481D01*
X255345Y295000D02*
X255209Y295338D01*
X255209D02*
X254936Y295675D01*
X254664Y295844*
X254118*
X253845Y295675*
X253573Y295338*
X253573D02*
X253436Y295000D01*
X253300Y294494*
Y293650*
X253436Y293144*
X253573Y292806*
X253845Y292469*
X254118Y292300*
X254664*
X254936Y292469*
X255209Y292806*
X255345Y293144*
X257936Y295844D02*
X256573Y293481D01*
X258618*
X257936Y295844D02*
Y292300D01*
X261755Y295844D02*
X260391Y292300D01*
X259845Y295844D02*
X261755D01*
X280345Y295000D02*
X280209Y295338D01*
X280209D02*
X279936Y295675D01*
X279664Y295844*
X279118*
X278845Y295675*
X278573Y295338*
X278573D02*
X278436Y295000D01*
X278300Y294494*
Y293650*
X278436Y293144*
X278573Y292806*
X278845Y292469*
X279118Y292300*
X279664*
X279936Y292469*
X280209Y292806*
X280345Y293144*
X282936Y295844D02*
X281573Y293481D01*
X283618*
X282936Y295844D02*
Y292300D01*
X285527Y295844D02*
X285118Y295675D01*
X284982Y295338*
X284982D02*
Y295000D01*
X285118Y294663*
X285118D02*
X285391Y294494D01*
X285936Y294325*
X286345Y294156*
X286618Y293819*
X286755Y293481*
Y292975*
X286618Y292638*
X286618D02*
X286482Y292469D01*
X286073Y292300*
X285527*
X285118Y292469*
X284982Y292638*
X284982D02*
X284845Y292975D01*
Y293481*
X284982Y293819*
X285255Y294156*
X285664Y294325*
X286209Y294494*
X286482Y294663*
X286482D02*
X286618Y295000D01*
Y295338*
X286618D02*
X286482Y295675D01*
X286073Y295844*
X285527*
X231345Y300000D02*
X231209Y300338D01*
X231209D02*
X230936Y300675D01*
X230664Y300844*
X230118*
X229845Y300675*
X229573Y300338*
X229573D02*
X229436Y300000D01*
X229300Y299494*
Y298650*
X229436Y298144*
X229573Y297806*
X229845Y297469*
X230118Y297300*
X230664*
X230936Y297469*
X231209Y297806*
X231345Y298144*
X233936Y300844D02*
X232573Y298481D01*
X234618*
X233936Y300844D02*
Y297300D01*
X237618Y299663D02*
X237482Y299156D01*
X237209Y298819*
X236800Y298650*
X236664*
X236255Y298819*
X235982Y299156*
X235845Y299663*
X235845D02*
Y299831D01*
X235982Y300338*
X235982D02*
X236255Y300675D01*
X236664Y300844*
X236800*
X237209Y300675*
X237482Y300338*
X237482D02*
X237618Y299663D01*
X237618D02*
Y298819D01*
X237482Y297975*
X237209Y297469*
X236800Y297300*
X236527*
X236118Y297469*
X235982Y297806*
X251345Y300000D02*
X251209Y300338D01*
X251209D02*
X250936Y300675D01*
X250664Y300844*
X250118*
X249845Y300675*
X249573Y300338*
X249573D02*
X249436Y300000D01*
X249300Y299494*
Y298650*
X249436Y298144*
X249573Y297806*
X249845Y297469*
X250118Y297300*
X250664*
X250936Y297469*
X251209Y297806*
X251345Y298144*
X254345Y300844D02*
X252982D01*
X252845Y299325*
X252982Y299494*
X253391Y299663*
X253391D02*
X253800D01*
X253800D02*
X254209Y299494D01*
X254482Y299156*
X254618Y298650*
X254482Y298313*
X254482D02*
X254345Y297806D01*
X254073Y297469*
X253664Y297300*
X253255*
X252845Y297469*
X252709Y297638*
X252709D02*
X252573Y297975D01*
X256664Y300844D02*
X256255Y300675D01*
X255982Y300169*
X255845Y299325*
Y298819*
X255982Y297975*
X256255Y297469*
X256664Y297300*
X256936*
X257345Y297469*
X257618Y297975*
X257755Y298819*
Y299325*
X257618Y300169*
X257345Y300675*
X256936Y300844*
X256664*
X269345Y300000D02*
X269209Y300338D01*
X269209D02*
X268936Y300675D01*
X268664Y300844*
X268118*
X267845Y300675*
X267573Y300338*
X267573D02*
X267436Y300000D01*
X267300Y299494*
Y298650*
X267436Y298144*
X267573Y297806*
X267845Y297469*
X268118Y297300*
X268664*
X268936Y297469*
X269209Y297806*
X269345Y298144*
X272345Y300844D02*
X270982D01*
X270845Y299325*
X270982Y299494*
X271391Y299663*
X271391D02*
X271800D01*
X271800D02*
X272209Y299494D01*
X272482Y299156*
X272618Y298650*
X272482Y298313*
X272482D02*
X272345Y297806D01*
X272073Y297469*
X271664Y297300*
X271255*
X270845Y297469*
X270709Y297638*
X270709D02*
X270573Y297975D01*
X273845Y300169D02*
X274118Y300338D01*
X274118D02*
X274527Y300844D01*
Y297300*
X277345Y342000D02*
X277209Y342338D01*
X277209D02*
X276936Y342675D01*
X276664Y342844*
X276118*
X275845Y342675*
X275573Y342338*
X275573D02*
X275436Y342000D01*
X275300Y341494*
Y340650*
X275436Y340144*
X275573Y339806*
X275845Y339469*
X276118Y339300*
X276664*
X276936Y339469*
X277209Y339806*
X277345Y340144*
X280345Y342844D02*
X278982D01*
X278845Y341325*
X278982Y341494*
X279391Y341663*
X279391D02*
X279800D01*
X279800D02*
X280209Y341494D01*
X280482Y341156*
X280618Y340650*
X280482Y340313*
X280482D02*
X280345Y339806D01*
X280073Y339469*
X279664Y339300*
X279255*
X278845Y339469*
X278709Y339638*
X278709D02*
X278573Y339975D01*
X282118Y342844D02*
X283618D01*
X282800Y341494*
X283209*
X283482Y341325*
X283618Y341156*
X283755Y340650*
Y340313*
X283755D02*
X283618Y339806D01*
X283345Y339469*
X282936Y339300*
X282527*
X282118Y339469*
X281982Y339638*
X281982D02*
X281845Y339975D01*
X241345Y342000D02*
X241209Y342338D01*
X241209D02*
X240936Y342675D01*
X240664Y342844*
X240118*
X239845Y342675*
X239573Y342338*
X239573D02*
X239436Y342000D01*
X239300Y341494*
Y340650*
X239436Y340144*
X239573Y339806*
X239845Y339469*
X240118Y339300*
X240664*
X240936Y339469*
X241209Y339806*
X241345Y340144*
X242709Y342000D02*
Y342169D01*
X242845Y342506*
X242982Y342675*
X243255Y342844*
X243800*
X244073Y342675*
X244209Y342506*
X244345Y342169*
Y341831*
X244209Y341494*
X243936Y340988*
X243936D02*
X242573Y339300D01*
X244482*
X245709Y342169D02*
X245982Y342338D01*
X245982D02*
X246391Y342844D01*
Y339300*
X125345Y114000D02*
X125209Y114338D01*
X125209D02*
X124936Y114675D01*
X124664Y114844*
X124118*
X123845Y114675*
X123573Y114338*
X123573D02*
X123436Y114000D01*
X123300Y113494*
Y112650*
X123436Y112144*
X123573Y111806*
X123845Y111469*
X124118Y111300*
X124664*
X124936Y111469*
X125209Y111806*
X125345Y112144*
X126573Y114169D02*
X126845Y114338D01*
X126845D02*
X127255Y114844D01*
Y111300*
X128755Y114844D02*
X130255D01*
X129436Y113494*
X129845*
X130118Y113325*
X130255Y113156*
X130391Y112650*
Y112313*
X130391D02*
X130255Y111806D01*
X129982Y111469*
X129573Y111300*
X129164*
X128755Y111469*
X128618Y111638*
X128618D02*
X128482Y111975D01*
X160345Y114000D02*
X160209Y114338D01*
X160209D02*
X159936Y114675D01*
X159664Y114844*
X159118*
X158845Y114675*
X158573Y114338*
X158573D02*
X158436Y114000D01*
X158300Y113494*
Y112650*
X158436Y112144*
X158573Y111806*
X158845Y111469*
X159118Y111300*
X159664*
X159936Y111469*
X160209Y111806*
X160345Y112144*
X161573Y114169D02*
X161845Y114338D01*
X161845D02*
X162255Y114844D01*
Y111300*
X164845Y114844D02*
X163482Y112481D01*
X165527*
X164845Y114844D02*
Y111300D01*
X135345Y256000D02*
X135209Y256338D01*
X135209D02*
X134936Y256675D01*
X134664Y256844*
X134118*
X133845Y256675*
X133573Y256338*
X133573D02*
X133436Y256000D01*
X133300Y255494*
Y254650*
X133436Y254144*
X133573Y253806*
X133845Y253469*
X134118Y253300*
X134664*
X134936Y253469*
X135209Y253806*
X135345Y254144*
X136845Y256844D02*
X138345D01*
X137527Y255494*
X137936*
X138209Y255325*
X138345Y255156*
X138482Y254650*
Y254313*
X138482D02*
X138345Y253806D01*
X138073Y253469*
X137664Y253300*
X137255*
X136845Y253469*
X136709Y253638*
X136709D02*
X136573Y253975D01*
X141618Y256844D02*
X140255Y253300D01*
X139709Y256844D02*
X141618D01*
X138345Y242000D02*
X138209Y242338D01*
X138209D02*
X137936Y242675D01*
X137664Y242844*
X137118*
X136845Y242675*
X136573Y242338*
X136573D02*
X136436Y242000D01*
X136300Y241494*
Y240650*
X136436Y240144*
X136573Y239806*
X136845Y239469*
X137118Y239300*
X137664*
X137936Y239469*
X138209Y239806*
X138345Y240144*
X139845Y242844D02*
X141345D01*
X140527Y241494*
X140936*
X141209Y241325*
X141345Y241156*
X141482Y240650*
Y240313*
X141482D02*
X141345Y239806D01*
X141073Y239469*
X140664Y239300*
X140255*
X139845Y239469*
X139709Y239638*
X139709D02*
X139573Y239975D01*
X143391Y242844D02*
X142982Y242675D01*
X142845Y242338*
X142845D02*
Y242000D01*
X142982Y241663*
X142982D02*
X143255Y241494D01*
X143800Y241325*
X144209Y241156*
X144482Y240819*
X144618Y240481*
Y239975*
X144482Y239638*
X144482D02*
X144345Y239469D01*
X143936Y239300*
X143391*
X142982Y239469*
X142845Y239638*
X142845D02*
X142709Y239975D01*
Y240481*
X142845Y240819*
X143118Y241156*
X143527Y241325*
X144073Y241494*
X144345Y241663*
X144345D02*
X144482Y242000D01*
Y242338*
X144482D02*
X144345Y242675D01*
X143936Y242844*
X143391*
X141345Y317000D02*
X141209Y317338D01*
X141209D02*
X140936Y317675D01*
X140664Y317844*
X140118*
X139845Y317675*
X139573Y317338*
X139573D02*
X139436Y317000D01*
X139300Y316494*
Y315650*
X139436Y315144*
X139573Y314806*
X139845Y314469*
X140118Y314300*
X140664*
X140936Y314469*
X141209Y314806*
X141345Y315144*
X143936Y317844D02*
X142573Y315481D01*
X144618*
X143936Y317844D02*
Y314300D01*
X141345Y307000D02*
X141209Y307337D01*
X141209D02*
X140936Y307675D01*
X140664Y307844*
X140118*
X139845Y307675*
X139573Y307337*
X139573D02*
X139436Y307000D01*
X139300Y306494*
Y305650*
X139436Y305144*
X139573Y304806*
X139845Y304469*
X140118Y304300*
X140664*
X140936Y304469*
X141209Y304806*
X141345Y305144*
X144345Y307844D02*
X142982D01*
X142845Y306325*
X142982Y306494*
X143391Y306662*
X143391D02*
X143800D01*
X143800D02*
X144209Y306494D01*
X144482Y306156*
X144618Y305650*
X144482Y305312*
X144482D02*
X144345Y304806D01*
X144073Y304469*
X143664Y304300*
X143255*
X142845Y304469*
X142709Y304637*
X142709D02*
X142573Y304975D01*
X356345Y253000D02*
X356209Y253338D01*
X356209D02*
X355936Y253675D01*
X355664Y253844*
X355118*
X354845Y253675*
X354573Y253338*
X354573D02*
X354436Y253000D01*
X354300Y252494*
Y251650*
X354436Y251144*
X354573Y250806*
X354845Y250469*
X355118Y250300*
X355664*
X355936Y250469*
X356209Y250806*
X356345Y251144*
X357573Y253169D02*
X357845Y253338D01*
X357845D02*
X358255Y253844D01*
Y250300*
X361118Y253338D02*
X360982Y253675D01*
X360573Y253844*
X360300*
X359891Y253675*
X359618Y253169*
X359482Y252325*
Y251481*
X359618Y250806*
X359891Y250469*
X360300Y250300*
X360436*
X360845Y250469*
X361118Y250806*
X361255Y251313*
X361255D02*
Y251481D01*
X361118Y251988*
X361118D02*
X360845Y252325D01*
X360436Y252494*
X360300*
X359891Y252325*
X359618Y251988*
X359618D02*
X359482Y251481D01*
X466345Y240000D02*
X466209Y240338D01*
X466209D02*
X465936Y240675D01*
X465664Y240844*
X465118*
X464845Y240675*
X464573Y240338*
X464573D02*
X464436Y240000D01*
X464300Y239494*
Y238650*
X464436Y238144*
X464573Y237806*
X464845Y237469*
X465118Y237300*
X465664*
X465936Y237469*
X466209Y237806*
X466345Y238144*
X467573Y240169D02*
X467845Y240338D01*
X467845D02*
X468255Y240844D01*
Y237300*
X471391Y240844D02*
X470027Y237300D01*
X469482Y240844D02*
X471391D01*
X181345Y292000D02*
X181209Y292338D01*
X180936Y292675*
X180664Y292844*
X180118*
X179845Y292675*
X179573Y292338*
X179436Y292000*
X179300Y291494*
Y290650*
X179436Y290144*
X179573Y289806*
X179845Y289469*
X180118Y289300*
X180664*
X180936Y289469*
X181209Y289806*
X181345Y290144*
X182845Y292844D02*
X184345D01*
X183527Y291494*
X183936*
X184209Y291325*
X184345Y291156*
X184482Y290650*
Y290313*
X184345Y289806*
X184073Y289469*
X183664Y289300*
X183255*
X182845Y289469*
X182709Y289638*
X182573Y289975*
X185982Y292844D02*
X187482D01*
X186664Y291494*
X187073*
X187345Y291325*
X187482Y291156*
X187618Y290650*
Y290313*
X187482Y289806*
X187209Y289469*
X186800Y289300*
X186391*
X185982Y289469*
X185845Y289638*
X185709Y289975*
X181345Y231000D02*
X181209Y231338D01*
X181209D02*
X180936Y231675D01*
X180664Y231844*
X180118*
X179845Y231675*
X179573Y231338*
X179573D02*
X179436Y231000D01*
X179300Y230494*
Y229650*
X179436Y229144*
X179573Y228806*
X179845Y228469*
X180118Y228300*
X180664*
X180936Y228469*
X181209Y228806*
X181345Y229144*
X183936Y231844D02*
X182573Y229481D01*
X184618*
X183936Y231844D02*
Y228300D01*
X187209Y231844D02*
X185845Y229481D01*
X187891*
X187209Y231844D02*
Y228300D01*
X146345Y327000D02*
X146209Y327337D01*
X146209D02*
X145936Y327675D01*
X145664Y327844*
X145118*
X144845Y327675*
X144573Y327337*
X144573D02*
X144436Y327000D01*
X144300Y326494*
Y325650*
X144436Y325144*
X144573Y324806*
X144845Y324469*
X145118Y324300*
X145664*
X145936Y324469*
X146209Y324806*
X146345Y325144*
X147573Y327169D02*
X147845Y327337D01*
X147845D02*
X148255Y327844D01*
Y324300*
X270345Y167000D02*
X270209Y167338D01*
X270209D02*
X269936Y167675D01*
X269664Y167844*
X269118*
X268845Y167675*
X268573Y167338*
X268573D02*
X268436Y167000D01*
X268300Y166494*
Y165650*
X268436Y165144*
X268573Y164806*
X268845Y164469*
X269118Y164300*
X269664*
X269936Y164469*
X270209Y164806*
X270345Y165144*
X271573Y167169D02*
X271845Y167338D01*
X271845D02*
X272255Y167844D01*
Y164300*
X273618Y167000D02*
Y167169D01*
X273755Y167506*
X273891Y167675*
X274164Y167844*
X274709*
X274982Y167675*
X275118Y167506*
X275255Y167169*
Y166831*
X275118Y166494*
X274845Y165988*
X274845D02*
X273482Y164300D01*
X275391*
X155345Y294000D02*
X155209Y294338D01*
X155209D02*
X154936Y294675D01*
X154664Y294844*
X154118*
X153845Y294675*
X153573Y294338*
X153573D02*
X153436Y294000D01*
X153300Y293494*
Y292650*
X153436Y292144*
X153573Y291806*
X153845Y291469*
X154118Y291300*
X154664*
X154936Y291469*
X155209Y291806*
X155345Y292144*
X156709Y294000D02*
Y294169D01*
X156845Y294506*
X156982Y294675*
X157255Y294844*
X157800*
X158073Y294675*
X158209Y294506*
X158345Y294169*
Y293831*
X158209Y293494*
X157936Y292988*
X157936D02*
X156573Y291300D01*
X158482*
X420345Y166000D02*
X420209Y166338D01*
X420209D02*
X419936Y166675D01*
X419664Y166844*
X419118*
X418845Y166675*
X418573Y166338*
X418573D02*
X418436Y166000D01*
X418300Y165494*
Y164650*
X418436Y164144*
X418573Y163806*
X418845Y163469*
X419118Y163300*
X419664*
X419936Y163469*
X420209Y163806*
X420345Y164144*
X421709Y166000D02*
Y166169D01*
X421845Y166506*
X421982Y166675*
X422255Y166844*
X422800*
X423073Y166675*
X423209Y166506*
X423345Y166169*
Y165831*
X423209Y165494*
X422936Y164988*
X422936D02*
X421573Y163300D01*
X423482*
X426073Y166844D02*
X424709Y164481D01*
X426755*
X426073Y166844D02*
Y163300D01*
X409345Y179000D02*
X409209Y179338D01*
X409209D02*
X408936Y179675D01*
X408664Y179844*
X408118*
X407845Y179675*
X407573Y179338*
X407573D02*
X407436Y179000D01*
X407300Y178494*
Y177650*
X407436Y177144*
X407573Y176806*
X407845Y176469*
X408118Y176300*
X408664*
X408936Y176469*
X409209Y176806*
X409345Y177144*
X410709Y179000D02*
Y179169D01*
X410845Y179506*
X410982Y179675*
X411255Y179844*
X411800*
X412073Y179675*
X412209Y179506*
X412345Y179169*
Y178831*
X412209Y178494*
X411936Y177988*
X411936D02*
X410573Y176300D01*
X412482*
X415482Y179844D02*
X414118D01*
X413982Y178325*
X414118Y178494*
X414527Y178663*
X414527D02*
X414936D01*
X414936D02*
X415345Y178494D01*
X415618Y178156*
X415755Y177650*
X415618Y177313*
X415618D02*
X415482Y176806D01*
X415209Y176469*
X414800Y176300*
X414391*
X413982Y176469*
X413845Y176638*
X413845D02*
X413709Y176975D01*
X469345Y165000D02*
X469209Y165338D01*
X469209D02*
X468936Y165675D01*
X468664Y165844*
X468118*
X467845Y165675*
X467573Y165338*
X467573D02*
X467436Y165000D01*
X467300Y164494*
Y163650*
X467436Y163144*
X467573Y162806*
X467845Y162469*
X468118Y162300*
X468664*
X468936Y162469*
X469209Y162806*
X469345Y163144*
X471255Y165844D02*
X470845Y165675D01*
X470709Y165338*
X470709D02*
Y165000D01*
X470845Y164663*
X470845D02*
X471118Y164494D01*
X471664Y164325*
X472073Y164156*
X472345Y163819*
X472482Y163481*
Y162975*
X472345Y162638*
X472345D02*
X472209Y162469D01*
X471800Y162300*
X471255*
X470845Y162469*
X470709Y162638*
X470709D02*
X470573Y162975D01*
Y163481*
X470709Y163819*
X470982Y164156*
X471391Y164325*
X471936Y164494*
X472209Y164663*
X472209D02*
X472345Y165000D01*
Y165338*
X472345D02*
X472209Y165675D01*
X471800Y165844*
X471255*
X473845Y165000D02*
Y165169D01*
X473982Y165506*
X474118Y165675*
X474391Y165844*
X474936*
X475209Y165675*
X475345Y165506*
X475482Y165169*
Y164831*
X475345Y164494*
X475073Y163988*
X475073D02*
X473709Y162300D01*
X475618*
X458345Y179000D02*
X458209Y179338D01*
X458209D02*
X457936Y179675D01*
X457664Y179844*
X457118*
X456845Y179675*
X456573Y179338*
X456573D02*
X456436Y179000D01*
X456300Y178494*
Y177650*
X456436Y177144*
X456573Y176806*
X456845Y176469*
X457118Y176300*
X457664*
X457936Y176469*
X458209Y176806*
X458345Y177144*
X460255Y179844D02*
X459845Y179675D01*
X459709Y179338*
X459709D02*
Y179000D01*
X459845Y178663*
X459845D02*
X460118Y178494D01*
X460664Y178325*
X461073Y178156*
X461345Y177819*
X461482Y177481*
Y176975*
X461345Y176638*
X461345D02*
X461209Y176469D01*
X460800Y176300*
X460255*
X459845Y176469*
X459709Y176638*
X459709D02*
X459573Y176975D01*
Y177481*
X459709Y177819*
X459982Y178156*
X460391Y178325*
X460936Y178494*
X461209Y178663*
X461209D02*
X461345Y179000D01*
Y179338*
X461345D02*
X461209Y179675D01*
X460800Y179844*
X460255*
X462982D02*
X464482D01*
X463664Y178494*
X464073*
X464345Y178325*
X464482Y178156*
X464618Y177650*
Y177313*
X464618D02*
X464482Y176806D01*
X464209Y176469*
X463800Y176300*
X463391*
X462982Y176469*
X462845Y176638*
X462845D02*
X462709Y176975D01*
X171345Y344000D02*
X171209Y344338D01*
X171209D02*
X170936Y344675D01*
X170664Y344844*
X170118*
X169845Y344675*
X169573Y344338*
X169573D02*
X169436Y344000D01*
X169300Y343494*
Y342650*
X169436Y342144*
X169573Y341806*
X169845Y341469*
X170118Y341300*
X170664*
X170936Y341469*
X171209Y341806*
X171345Y342144*
X172709Y344000D02*
Y344169D01*
X172845Y344506*
X172982Y344675*
X173255Y344844*
X173800*
X174073Y344675*
X174209Y344506*
X174345Y344169*
Y343831*
X174209Y343494*
X173936Y342988*
X173936D02*
X172573Y341300D01*
X174482*
X176391Y344844D02*
X175982Y344675D01*
X175845Y344338*
X175845D02*
Y344000D01*
X175982Y343663*
X175982D02*
X176255Y343494D01*
X176800Y343325*
X177209Y343156*
X177482Y342819*
X177618Y342481*
Y341975*
X177482Y341638*
X177482D02*
X177345Y341469D01*
X176936Y341300*
X176391*
X175982Y341469*
X175845Y341638*
X175845D02*
X175709Y341975D01*
Y342481*
X175845Y342819*
X176118Y343156*
X176527Y343325*
X177073Y343494*
X177345Y343663*
X177345D02*
X177482Y344000D01*
Y344338*
X177482D02*
X177345Y344675D01*
X176936Y344844*
X176391*
X155345Y344000D02*
X155209Y344337D01*
X155209D02*
X154936Y344675D01*
X154664Y344844*
X154118*
X153845Y344675*
X153573Y344337*
X153573D02*
X153436Y344000D01*
X153300Y343494*
Y342650*
X153436Y342144*
X153573Y341806*
X153845Y341469*
X154118Y341300*
X154664*
X154936Y341469*
X155209Y341806*
X155345Y342144*
X156709Y344000D02*
Y344169D01*
X156845Y344506*
X156982Y344675*
X157255Y344844*
X157800*
X158073Y344675*
X158209Y344506*
X158345Y344169*
Y343831*
X158209Y343494*
X157936Y342987*
X157936D02*
X156573Y341300D01*
X158482*
X161482Y343662D02*
X161345Y343156D01*
X161073Y342819*
X160664Y342650*
X160527*
X160118Y342819*
X159845Y343156*
X159709Y343662*
X159709D02*
Y343831D01*
X159845Y344337*
X159845D02*
X160118Y344675D01*
X160527Y344844*
X160664*
X161073Y344675*
X161345Y344337*
X161345D02*
X161482Y343662D01*
X161482D02*
Y342819D01*
X161345Y341975*
X161073Y341469*
X160664Y341300*
X160391*
X159982Y341469*
X159845Y341806*
X181345Y285000D02*
X181209Y285338D01*
X180936Y285675*
X180664Y285844*
X180118*
X179845Y285675*
X179573Y285338*
X179436Y285000*
X179300Y284494*
Y283650*
X179436Y283144*
X179573Y282806*
X179845Y282469*
X180118Y282300*
X180664*
X180936Y282469*
X181209Y282806*
X181345Y283144*
X182845Y285844D02*
X184345D01*
X183527Y284494*
X183936*
X184209Y284325*
X184345Y284156*
X184482Y283650*
Y283313*
X184345Y282806*
X184073Y282469*
X183664Y282300*
X183255*
X182845Y282469*
X182709Y282638*
X182573Y282975*
X139345Y251000D02*
X139209Y251338D01*
X139209D02*
X138936Y251675D01*
X138664Y251844*
X138118*
X137845Y251675*
X137573Y251338*
X137573D02*
X137436Y251000D01*
X137300Y250494*
Y249650*
X137436Y249144*
X137573Y248806*
X137845Y248469*
X138118Y248300*
X138664*
X138936Y248469*
X139209Y248806*
X139345Y249144*
X140845Y251844D02*
X142345D01*
X141527Y250494*
X141936*
X142209Y250325*
X142345Y250156*
X142482Y249650*
Y249313*
X142482D02*
X142345Y248806D01*
X142073Y248469*
X141664Y248300*
X141255*
X140845Y248469*
X140709Y248638*
X140709D02*
X140573Y248975D01*
X145073Y251844D02*
X143709Y249481D01*
X145755*
X145073Y251844D02*
Y248300D01*
X156345Y234000D02*
X156209Y234338D01*
X156209D02*
X155936Y234675D01*
X155664Y234844*
X155118*
X154845Y234675*
X154573Y234338*
X154573D02*
X154436Y234000D01*
X154300Y233494*
Y232650*
X154436Y232144*
X154573Y231806*
X154845Y231469*
X155118Y231300*
X155664*
X155936Y231469*
X156209Y231806*
X156345Y232144*
X157845Y234844D02*
X159345D01*
X158527Y233494*
X158936*
X159209Y233325*
X159345Y233156*
X159482Y232650*
Y232313*
X159482D02*
X159345Y231806D01*
X159073Y231469*
X158664Y231300*
X158255*
X157845Y231469*
X157709Y231638*
X157709D02*
X157573Y231975D01*
X162482Y234844D02*
X161118D01*
X160982Y233325*
X161118Y233494*
X161527Y233663*
X161527D02*
X161936D01*
X161936D02*
X162345Y233494D01*
X162618Y233156*
X162755Y232650*
X162618Y232313*
X162618D02*
X162482Y231806D01*
X162209Y231469*
X161800Y231300*
X161391*
X160982Y231469*
X160845Y231638*
X160845D02*
X160709Y231975D01*
X164345Y218000D02*
X164209Y218338D01*
X164209D02*
X163936Y218675D01*
X163664Y218844*
X163118*
X162845Y218675*
X162573Y218338*
X162573D02*
X162436Y218000D01*
X162300Y217494*
Y216650*
X162436Y216144*
X162573Y215806*
X162845Y215469*
X163118Y215300*
X163664*
X163936Y215469*
X164209Y215806*
X164345Y216144*
X165845Y218844D02*
X167345D01*
X166527Y217494*
X166936*
X167209Y217325*
X167345Y217156*
X167482Y216650*
Y216313*
X167482D02*
X167345Y215806D01*
X167073Y215469*
X166664Y215300*
X166255*
X165845Y215469*
X165709Y215638*
X165709D02*
X165573Y215975D01*
X170345Y218338D02*
X170209Y218675D01*
X169800Y218844*
X169527*
X169118Y218675*
X168845Y218169*
X168709Y217325*
Y216481*
X168845Y215806*
X169118Y215469*
X169527Y215300*
X169664*
X170073Y215469*
X170345Y215806*
X170482Y216313*
X170482D02*
Y216481D01*
X170345Y216988*
X170345D02*
X170073Y217325D01*
X169664Y217494*
X169527*
X169118Y217325*
X168845Y216988*
X168845D02*
X168709Y216481D01*
X200345Y224000D02*
X200209Y224338D01*
X199936Y224675*
X199664Y224844*
X199118*
X198845Y224675*
X198573Y224338*
X198436Y224000*
X198300Y223494*
Y222650*
X198436Y222144*
X198573Y221806*
X198845Y221469*
X199118Y221300*
X199664*
X199936Y221469*
X200209Y221806*
X200345Y222144*
X201845Y224844D02*
X203345D01*
X202527Y223494*
X202936*
X203209Y223325*
X203345Y223156*
X203482Y222650*
Y222313*
X203345Y221806*
X203073Y221469*
X202664Y221300*
X202255*
X201845Y221469*
X201709Y221638*
X201573Y221975*
X206482Y223663D02*
X206345Y223156D01*
X206073Y222819*
X205664Y222650*
X205527*
X205118Y222819*
X204845Y223156*
X204709Y223663*
Y223831*
X204845Y224338*
X205118Y224675*
X205527Y224844*
X205664*
X206073Y224675*
X206345Y224338*
X206482Y223663*
Y222819*
X206345Y221975*
X206073Y221469*
X205664Y221300*
X205391*
X204982Y221469*
X204845Y221806*
X149345Y279000D02*
X149209Y279337D01*
X149209D02*
X148936Y279675D01*
X148664Y279844*
X148118*
X147845Y279675*
X147573Y279337*
X147573D02*
X147436Y279000D01*
X147300Y278494*
Y277650*
X147436Y277144*
X147573Y276806*
X147845Y276469*
X148118Y276300*
X148664*
X148936Y276469*
X149209Y276806*
X149345Y277144*
X151936Y279844D02*
X150573Y277481D01*
X152618*
X151936Y279844D02*
Y276300D01*
X154664Y279844D02*
X154255Y279675D01*
X153982Y279169*
X153845Y278325*
Y277819*
X153982Y276975*
X154255Y276469*
X154664Y276300*
X154936*
X155345Y276469*
X155618Y276975*
X155755Y277819*
Y278325*
X155618Y279169*
X155345Y279675*
X154936Y279844*
X154664*
X350345Y336000D02*
X350209Y336338D01*
X349936Y336675*
X349664Y336844*
X349118*
X348845Y336675*
X348573Y336338*
X348436Y336000*
X348300Y335494*
Y334650*
X348436Y334144*
X348573Y333806*
X348845Y333469*
X349118Y333300*
X349664*
X349936Y333469*
X350209Y333806*
X350345Y334144*
X353345Y336844D02*
X351982D01*
X351845Y335325*
X351982Y335494*
X352391Y335663*
X352800*
X353209Y335494*
X353482Y335156*
X353618Y334650*
X353482Y334313*
X353345Y333806*
X353073Y333469*
X352664Y333300*
X352255*
X351845Y333469*
X351709Y333638*
X351573Y333975*
X356618Y335663D02*
X356482Y335156D01*
X356209Y334819*
X355800Y334650*
X355664*
X355255Y334819*
X354982Y335156*
X354845Y335663*
Y335831*
X354982Y336338*
X355255Y336675*
X355664Y336844*
X355800*
X356209Y336675*
X356482Y336338*
X356618Y335663*
Y334819*
X356482Y333975*
X356209Y333469*
X355800Y333300*
X355527*
X355118Y333469*
X354982Y333806*
X234345Y207000D02*
X234209Y207338D01*
X234209D02*
X233936Y207675D01*
X233664Y207844*
X233118*
X232845Y207675*
X232573Y207338*
X232573D02*
X232436Y207000D01*
X232300Y206494*
Y205650*
X232436Y205144*
X232573Y204806*
X232845Y204469*
X233118Y204300*
X233664*
X233936Y204469*
X234209Y204806*
X234345Y205144*
X237209Y207338D02*
X237073Y207675D01*
X236664Y207844*
X236391*
X235982Y207675*
X235709Y207169*
X235573Y206325*
Y205481*
X235709Y204806*
X235982Y204469*
X236391Y204300*
X236527*
X236936Y204469*
X237209Y204806*
X237345Y205313*
X237345D02*
Y205481D01*
X237209Y205988*
X237209D02*
X236936Y206325D01*
X236527Y206494*
X236391*
X235982Y206325*
X235709Y205988*
X235709D02*
X235573Y205481D01*
X459345Y227000D02*
X459209Y227338D01*
X459209D02*
X458936Y227675D01*
X458664Y227844*
X458118*
X457845Y227675*
X457573Y227338*
X457573D02*
X457436Y227000D01*
X457300Y226494*
Y225650*
X457436Y225144*
X457573Y224806*
X457845Y224469*
X458118Y224300*
X458664*
X458936Y224469*
X459209Y224806*
X459345Y225144*
X462209Y227338D02*
X462073Y227675D01*
X461664Y227844*
X461391*
X460982Y227675*
X460709Y227169*
X460573Y226325*
Y225481*
X460709Y224806*
X460982Y224469*
X461391Y224300*
X461527*
X461936Y224469*
X462209Y224806*
X462345Y225313*
X462345D02*
Y225481D01*
X462209Y225988*
X462209D02*
X461936Y226325D01*
X461527Y226494*
X461391*
X460982Y226325*
X460709Y225988*
X460709D02*
X460573Y225481D01*
X464391Y227844D02*
X463982Y227675D01*
X463709Y227169*
X463573Y226325*
Y225819*
X463709Y224975*
X463982Y224469*
X464391Y224300*
X464664*
X465073Y224469*
X465345Y224975*
X465482Y225819*
Y226325*
X465345Y227169*
X465073Y227675*
X464664Y227844*
X464391*
X343345Y272000D02*
X343209Y272338D01*
X343209D02*
X342936Y272675D01*
X342664Y272844*
X342118*
X341845Y272675*
X341573Y272338*
X341573D02*
X341436Y272000D01*
X341300Y271494*
Y270650*
X341436Y270144*
X341573Y269806*
X341845Y269469*
X342118Y269300*
X342664*
X342936Y269469*
X343209Y269806*
X343345Y270144*
X346209Y272338D02*
X346073Y272675D01*
X345664Y272844*
X345391*
X344982Y272675*
X344709Y272169*
X344573Y271325*
Y270481*
X344709Y269806*
X344982Y269469*
X345391Y269300*
X345527*
X345936Y269469*
X346209Y269806*
X346345Y270313*
X346345D02*
Y270481D01*
X346209Y270988*
X346209D02*
X345936Y271325D01*
X345527Y271494*
X345391*
X344982Y271325*
X344709Y270988*
X344709D02*
X344573Y270481D01*
X347573Y272169D02*
X347845Y272338D01*
X347845D02*
X348255Y272844D01*
Y269300*
X269345Y204000D02*
X269209Y204338D01*
X269209D02*
X268936Y204675D01*
X268664Y204844*
X268118*
X267845Y204675*
X267573Y204338*
X267573D02*
X267436Y204000D01*
X267300Y203494*
Y202650*
X267436Y202144*
X267573Y201806*
X267845Y201469*
X268118Y201300*
X268664*
X268936Y201469*
X269209Y201806*
X269345Y202144*
X271255Y204844D02*
X270845Y204675D01*
X270709Y204338*
X270709D02*
Y204000D01*
X270845Y203663*
X270845D02*
X271118Y203494D01*
X271664Y203325*
X272073Y203156*
X272345Y202819*
X272482Y202481*
Y201975*
X272345Y201638*
X272345D02*
X272209Y201469D01*
X271800Y201300*
X271255*
X270845Y201469*
X270709Y201638*
X270709D02*
X270573Y201975D01*
Y202481*
X270709Y202819*
X270982Y203156*
X271391Y203325*
X271936Y203494*
X272209Y203663*
X272209D02*
X272345Y204000D01*
Y204338*
X272345D02*
X272209Y204675D01*
X271800Y204844*
X271255*
X120345Y286000D02*
X120209Y286338D01*
X120209D02*
X119936Y286675D01*
X119664Y286844*
X119118*
X118845Y286675*
X118573Y286338*
X118573D02*
X118436Y286000D01*
X118300Y285494*
Y284650*
X118436Y284144*
X118573Y283806*
X118845Y283469*
X119118Y283300*
X119664*
X119936Y283469*
X120209Y283806*
X120345Y284144*
X121573Y286169D02*
X121845Y286338D01*
X121845D02*
X122255Y286844D01*
Y283300*
X125255Y286844D02*
X123891D01*
X123755Y285325*
X123891Y285494*
X124300Y285663*
X124300D02*
X124709D01*
X124709D02*
X125118Y285494D01*
X125391Y285156*
X125527Y284650*
X125391Y284313*
X125391D02*
X125255Y283806D01*
X124982Y283469*
X124573Y283300*
X124164*
X123755Y283469*
X123618Y283638*
X123618D02*
X123482Y283975D01*
X469345Y221000D02*
X469209Y221338D01*
X469209D02*
X468936Y221675D01*
X468664Y221844*
X468118*
X467845Y221675*
X467573Y221338*
X467573D02*
X467436Y221000D01*
X467300Y220494*
Y219650*
X467436Y219144*
X467573Y218806*
X467845Y218469*
X468118Y218300*
X468664*
X468936Y218469*
X469209Y218806*
X469345Y219144*
X470573Y221169D02*
X470845Y221338D01*
X470845D02*
X471255Y221844D01*
Y218300*
X473164Y221844D02*
X472755Y221675D01*
X472618Y221338*
X472618D02*
Y221000D01*
X472755Y220663*
X472755D02*
X473027Y220494D01*
X473573Y220325*
X473982Y220156*
X474255Y219819*
X474391Y219481*
Y218975*
X474255Y218638*
X474255D02*
X474118Y218469D01*
X473709Y218300*
X473164*
X472755Y218469*
X472618Y218638*
X472618D02*
X472482Y218975D01*
Y219481*
X472618Y219819*
X472891Y220156*
X473300Y220325*
X473845Y220494*
X474118Y220663*
X474118D02*
X474255Y221000D01*
Y221338*
X474255D02*
X474118Y221675D01*
X473709Y221844*
X473164*
X455345Y221000D02*
X455209Y221337D01*
X455209D02*
X454936Y221675D01*
X454664Y221844*
X454118*
X453845Y221675*
X453573Y221337*
X453573D02*
X453436Y221000D01*
X453300Y220494*
Y219650*
X453436Y219144*
X453573Y218806*
X453845Y218469*
X454118Y218300*
X454664*
X454936Y218469*
X455209Y218806*
X455345Y219144*
X456573Y221169D02*
X456845Y221337D01*
X456845D02*
X457255Y221844D01*
Y218300*
X460255Y220662D02*
X460118Y220156D01*
X459845Y219819*
X459436Y219650*
X459300*
X458891Y219819*
X458618Y220156*
X458482Y220662*
X458482D02*
Y220831D01*
X458618Y221337*
X458618D02*
X458891Y221675D01*
X459300Y221844*
X459436*
X459845Y221675*
X460118Y221337*
X460118D02*
X460255Y220662D01*
X460255D02*
Y219819D01*
X460118Y218975*
X459845Y218469*
X459436Y218300*
X459164*
X458755Y218469*
X458618Y218806*
X418345Y221000D02*
X418209Y221337D01*
X418209D02*
X417936Y221675D01*
X417664Y221844*
X417118*
X416845Y221675*
X416573Y221337*
X416573D02*
X416436Y221000D01*
X416300Y220494*
Y219650*
X416436Y219144*
X416573Y218806*
X416845Y218469*
X417118Y218300*
X417664*
X417936Y218469*
X418209Y218806*
X418345Y219144*
X419709Y221000D02*
Y221169D01*
X419845Y221506*
X419982Y221675*
X420255Y221844*
X420800*
X421073Y221675*
X421209Y221506*
X421345Y221169*
Y220831*
X421209Y220494*
X420936Y219987*
X420936D02*
X419573Y218300D01*
X421482*
X422845Y221000D02*
Y221169D01*
X422982Y221506*
X423118Y221675*
X423391Y221844*
X423936*
X424209Y221675*
X424345Y221506*
X424482Y221169*
Y220831*
X424345Y220494*
X424073Y219987*
X424073D02*
X422709Y218300D01*
X424618*
X395345Y213000D02*
X395209Y213338D01*
X395209D02*
X394936Y213675D01*
X394664Y213844*
X394118*
X393845Y213675*
X393573Y213338*
X393573D02*
X393436Y213000D01*
X393300Y212494*
Y211650*
X393436Y211144*
X393573Y210806*
X393845Y210469*
X394118Y210300*
X394664*
X394936Y210469*
X395209Y210806*
X395345Y211144*
X396709Y213000D02*
Y213169D01*
X396845Y213506*
X396982Y213675*
X397255Y213844*
X397800*
X398073Y213675*
X398209Y213506*
X398345Y213169*
Y212831*
X398209Y212494*
X397936Y211988*
X397936D02*
X396573Y210300D01*
X398482*
X399982Y213844D02*
X401482D01*
X400664Y212494*
X401073*
X401345Y212325*
X401482Y212156*
X401618Y211650*
Y211313*
X401618D02*
X401482Y210806D01*
X401209Y210469*
X400800Y210300*
X400391*
X399982Y210469*
X399845Y210638*
X399845D02*
X399709Y210975D01*
X142345Y335000D02*
X142209Y335337D01*
X142209D02*
X141936Y335675D01*
X141664Y335844*
X141118*
X140845Y335675*
X140573Y335337*
X140573D02*
X140436Y335000D01*
X140300Y334494*
Y333650*
X140436Y333144*
X140573Y332806*
X140845Y332469*
X141118Y332300*
X141664*
X141936Y332469*
X142209Y332806*
X142345Y333144*
X143845Y335844D02*
X145345D01*
X144527Y334494*
X144936*
X145209Y334325*
X145345Y334156*
X145482Y333650*
Y333312*
X145482D02*
X145345Y332806D01*
X145073Y332469*
X144664Y332300*
X144255*
X143845Y332469*
X143709Y332637*
X143709D02*
X143573Y332975D01*
X147527Y335844D02*
X147118Y335675D01*
X146845Y335169*
X146709Y334325*
Y333819*
X146845Y332975*
X147118Y332469*
X147527Y332300*
X147800*
X148209Y332469*
X148482Y332975*
X148618Y333819*
Y334325*
X148482Y335169*
X148209Y335675*
X147800Y335844*
X147527*
X143345Y266000D02*
X143209Y266338D01*
X143209D02*
X142936Y266675D01*
X142664Y266844*
X142118*
X141845Y266675*
X141573Y266338*
X141573D02*
X141436Y266000D01*
X141300Y265494*
Y264650*
X141436Y264144*
X141573Y263806*
X141845Y263469*
X142118Y263300*
X142664*
X142936Y263469*
X143209Y263806*
X143345Y264144*
X145936Y266844D02*
X144573Y264481D01*
X146618*
X145936Y266844D02*
Y263300D01*
X147845Y266169D02*
X148118Y266338D01*
X148118D02*
X148527Y266844D01*
Y263300*
X327345Y331000D02*
X327209Y331338D01*
X327209D02*
X326936Y331675D01*
X326664Y331844*
X326118*
X325845Y331675*
X325573Y331338*
X325573D02*
X325436Y331000D01*
X325300Y330494*
Y329650*
X325436Y329144*
X325573Y328806*
X325845Y328469*
X326118Y328300*
X326664*
X326936Y328469*
X327209Y328806*
X327345Y329144*
X330345Y331844D02*
X328982D01*
X328845Y330325*
X328982Y330494*
X329391Y330663*
X329391D02*
X329800D01*
X329800D02*
X330209Y330494D01*
X330482Y330156*
X330618Y329650*
X330482Y329313*
X330482D02*
X330345Y328806D01*
X330073Y328469*
X329664Y328300*
X329255*
X328845Y328469*
X328709Y328638*
X328709D02*
X328573Y328975D01*
X332527Y331844D02*
X332118Y331675D01*
X331982Y331338*
X331982D02*
Y331000D01*
X332118Y330663*
X332118D02*
X332391Y330494D01*
X332936Y330325*
X333345Y330156*
X333618Y329819*
X333755Y329481*
Y328975*
X333618Y328638*
X333618D02*
X333482Y328469D01*
X333073Y328300*
X332527*
X332118Y328469*
X331982Y328638*
X331982D02*
X331845Y328975D01*
Y329481*
X331982Y329819*
X332255Y330156*
X332664Y330325*
X333209Y330494*
X333482Y330663*
X333482D02*
X333618Y331000D01*
Y331338*
X333618D02*
X333482Y331675D01*
X333073Y331844*
X332527*
X212300Y307844D02*
Y304300D01*
X213936*
X215164Y307169D02*
X215436Y307338D01*
X215436D02*
X215845Y307844D01*
Y304300*
X253300Y347844D02*
Y344300D01*
X254936*
X256300Y347000D02*
Y347169D01*
X256436Y347506*
X256573Y347675*
X256845Y347844*
X257391*
X257664Y347675*
X257800Y347506*
X257936Y347169*
Y346831*
X257800Y346494*
X257527Y345988*
X257527D02*
X256164Y344300D01*
X258073*
X275300Y347844D02*
Y344300D01*
X276936*
X278436Y347844D02*
X279936D01*
X279118Y346494*
X279527*
X279800Y346325*
X279936Y346156*
X280073Y345650*
Y345313*
X280073D02*
X279936Y344806D01*
X279664Y344469*
X279255Y344300*
X278845*
X278436Y344469*
X278300Y344638*
X278300D02*
X278164Y344975D01*
X230300Y348844D02*
Y345300D01*
X231936*
X234527Y348844D02*
X233164Y346481D01*
X235209*
X234527Y348844D02*
Y345300D01*
X245300Y348844D02*
Y345300D01*
X246936*
X249936Y348844D02*
X248573D01*
X248436Y347325*
X248573Y347494*
X248982Y347663*
X248982D02*
X249391D01*
X249391D02*
X249800Y347494D01*
X250073Y347156*
X250209Y346650*
X250073Y346313*
X250073D02*
X249936Y345806D01*
X249664Y345469*
X249255Y345300*
X248845*
X248436Y345469*
X248300Y345638*
X248300D02*
X248164Y345975D01*
X267300Y348844D02*
Y345300D01*
X268936*
X271800Y348338D02*
X271664Y348675D01*
X271255Y348844*
X270982*
X270573Y348675*
X270300Y348169*
X270164Y347325*
Y346481*
X270300Y345806*
X270573Y345469*
X270982Y345300*
X271118*
X271527Y345469*
X271800Y345806*
X271936Y346313*
X271936D02*
Y346481D01*
X271800Y346988*
X271800D02*
X271527Y347325D01*
X271118Y347494*
X270982*
X270573Y347325*
X270300Y346988*
X270300D02*
X270164Y346481D01*
X211300Y276844D02*
Y273300D01*
X212936*
X216073Y276844D02*
X214709Y273300D01*
X214164Y276844D02*
X216073D01*
X249300Y242844D02*
Y239300D01*
X250936*
X252845Y242844D02*
X252436Y242675D01*
X252300Y242338*
X252300D02*
Y242000D01*
X252436Y241663*
X252436D02*
X252709Y241494D01*
X253255Y241325*
X253664Y241156*
X253936Y240819*
X254073Y240481*
Y239975*
X253936Y239638*
X253936D02*
X253800Y239469D01*
X253391Y239300*
X252845*
X252436Y239469*
X252300Y239638*
X252300D02*
X252164Y239975D01*
Y240481*
X252300Y240819*
X252573Y241156*
X252982Y241325*
X253527Y241494*
X253800Y241663*
X253800D02*
X253936Y242000D01*
Y242338*
X253936D02*
X253800Y242675D01*
X253391Y242844*
X252845*
X163300Y193844D02*
Y190300D01*
Y193844D02*
X164255D01*
X164664Y193675*
X164936Y193337*
X164936D02*
X165073Y193000D01*
X165209Y192494*
Y191650*
X165073Y191144*
X164936Y190806*
X164664Y190469*
X164255Y190300*
X163300*
X166709Y193844D02*
X168209D01*
X167391Y192494*
X167800*
X168073Y192325*
X168209Y192156*
X168345Y191650*
Y191312*
X168345D02*
X168209Y190806D01*
X167936Y190469*
X167527Y190300*
X167118*
X166709Y190469*
X166573Y190637*
X166573D02*
X166436Y190975D01*
X375300Y266844D02*
Y263300D01*
Y266844D02*
X376527D01*
X376936Y266675*
X377073Y266506*
X377209Y266169*
Y265831*
X377073Y265494*
X376936Y265325*
X376527Y265156*
X375300*
X376255D02*
X377209Y263300D01*
X379800Y266844D02*
X378436Y264481D01*
X380482*
X379800Y266844D02*
Y263300D01*
X248300Y129844D02*
Y126300D01*
Y129844D02*
X249527D01*
X249936Y129675*
X250073Y129506*
X250209Y129169*
Y128831*
X250073Y128494*
X249936Y128325*
X249527Y128156*
X248300*
X249255D02*
X250209Y126300D01*
X253209Y129844D02*
X251845D01*
X251709Y128325*
X251845Y128494*
X252255Y128662*
X252255D02*
X252664D01*
X252664D02*
X253073Y128494D01*
X253345Y128156*
X253482Y127650*
X253345Y127312*
X253345D02*
X253209Y126806D01*
X252936Y126469*
X252527Y126300*
X252118*
X251709Y126469*
X251573Y126637*
X251573D02*
X251436Y126975D01*
X401300Y233844D02*
Y230300D01*
Y233844D02*
X402527D01*
X402936Y233675*
X403073Y233506*
X403209Y233169*
Y232831*
X403073Y232494*
X402936Y232325*
X402527Y232156*
X401300*
X402255D02*
X403209Y230300D01*
X404436Y233169D02*
X404709Y233338D01*
X404709D02*
X405118Y233844D01*
Y230300*
X407164Y233844D02*
X406755Y233675D01*
X406482Y233169*
X406345Y232325*
Y231819*
X406482Y230975*
X406755Y230469*
X407164Y230300*
X407436*
X407845Y230469*
X408118Y230975*
X408255Y231819*
Y232325*
X408118Y233169*
X407845Y233675*
X407436Y233844*
X407164*
X402300Y245844D02*
Y242300D01*
Y245844D02*
X403527D01*
X403936Y245675*
X404073Y245506*
X404209Y245169*
Y244831*
X404073Y244494*
X403936Y244325*
X403527Y244156*
X402300*
X403255D02*
X404209Y242300D01*
X405436Y245169D02*
X405709Y245338D01*
X405709D02*
X406118Y245844D01*
Y242300*
X407345Y245169D02*
X407618Y245338D01*
X407618D02*
X408027Y245844D01*
Y242300*
X210300Y229844D02*
Y226300D01*
Y229844D02*
X211527D01*
X211936Y229675*
X212073Y229506*
X212209Y229169*
Y228831*
X212073Y228494*
X211936Y228325*
X211527Y228156*
X210300*
X211255D02*
X212209Y226300D01*
X213436Y229169D02*
X213709Y229338D01*
X213709D02*
X214118Y229844D01*
Y226300*
X215618Y229844D02*
X217118D01*
X216300Y228494*
X216709*
X216982Y228325*
X217118Y228156*
X217255Y227650*
Y227313*
X217255D02*
X217118Y226806D01*
X216845Y226469*
X216436Y226300*
X216027*
X215618Y226469*
X215482Y226638*
X215482D02*
X215345Y226975D01*
X222300Y229844D02*
Y226300D01*
Y229844D02*
X223527D01*
X223936Y229675*
X224073Y229506*
X224209Y229169*
Y228831*
X224073Y228494*
X223936Y228325*
X223527Y228156*
X222300*
X223255D02*
X224209Y226300D01*
X225436Y229169D02*
X225709Y229337D01*
X225709D02*
X226118Y229844D01*
Y226300*
X228709Y229844D02*
X227345Y227481D01*
X229391*
X228709Y229844D02*
Y226300D01*
X299300Y334844D02*
Y331300D01*
Y334844D02*
X300527D01*
X300936Y334675*
X301073Y334506*
X301209Y334169*
Y333831*
X301073Y333494*
X300936Y333325*
X300527Y333156*
X299300*
X300255D02*
X301209Y331300D01*
X302436Y334169D02*
X302709Y334338D01*
X302709D02*
X303118Y334844D01*
Y331300*
X305982Y334338D02*
X305845Y334675D01*
X305436Y334844*
X305164*
X304755Y334675*
X304482Y334169*
X304345Y333325*
Y332481*
X304482Y331806*
X304755Y331469*
X305164Y331300*
X305300*
X305709Y331469*
X305982Y331806*
X306118Y332313*
X306118D02*
Y332481D01*
X305982Y332988*
X305982D02*
X305709Y333325D01*
X305300Y333494*
X305164*
X304755Y333325*
X304482Y332988*
X304482D02*
X304345Y332481D01*
X310300Y339844D02*
Y336300D01*
Y339844D02*
X311527D01*
X311936Y339675*
X312073Y339506*
X312209Y339169*
Y338831*
X312073Y338494*
X311936Y338325*
X311527Y338156*
X310300*
X311255D02*
X312209Y336300D01*
X313436Y339169D02*
X313709Y339337D01*
X313709D02*
X314118Y339844D01*
Y336300*
X317255Y339844D02*
X315891Y336300D01*
X315345Y339844D02*
X317255D01*
X301300Y296844D02*
Y293300D01*
Y296844D02*
X302527D01*
X302936Y296675*
X303073Y296506*
X303209Y296169*
Y295831*
X303073Y295494*
X302936Y295325*
X302527Y295156*
X301300*
X302255D02*
X303209Y293300D01*
X304436Y296169D02*
X304709Y296338D01*
X304709D02*
X305118Y296844D01*
Y293300*
X307027Y296844D02*
X306618Y296675D01*
X306482Y296338*
X306482D02*
Y296000D01*
X306618Y295663*
X306618D02*
X306891Y295494D01*
X307436Y295325*
X307845Y295156*
X308118Y294819*
X308255Y294481*
Y293975*
X308118Y293638*
X308118D02*
X307982Y293469D01*
X307573Y293300*
X307027*
X306618Y293469*
X306482Y293638*
X306482D02*
X306345Y293975D01*
Y294481*
X306482Y294819*
X306755Y295156*
X307164Y295325*
X307709Y295494*
X307982Y295663*
X307982D02*
X308118Y296000D01*
Y296338*
X308118D02*
X307982Y296675D01*
X307573Y296844*
X307027*
X319300Y299844D02*
Y296300D01*
Y299844D02*
X320527D01*
X320936Y299675*
X321073Y299506*
X321209Y299169*
Y298831*
X321073Y298494*
X320936Y298325*
X320527Y298156*
X319300*
X320255D02*
X321209Y296300D01*
X322436Y299169D02*
X322709Y299338D01*
X323118Y299844*
Y296300*
X326118Y298663D02*
X325982Y298156D01*
X325709Y297819*
X325300Y297650*
X325164*
X324755Y297819*
X324482Y298156*
X324345Y298663*
Y298831*
X324482Y299338*
X324755Y299675*
X325164Y299844*
X325300*
X325709Y299675*
X325982Y299338*
X326118Y298663*
Y297819*
X325982Y296975*
X325709Y296469*
X325300Y296300*
X325027*
X324618Y296469*
X324482Y296806*
X181300Y349844D02*
Y346300D01*
Y349844D02*
X182527D01*
X182936Y349675*
X183073Y349506*
X183209Y349169*
Y348831*
X183073Y348494*
X182936Y348325*
X182527Y348156*
X181300*
X182255D02*
X183209Y346300D01*
X184573Y349000D02*
Y349169D01*
X184709Y349506*
X184845Y349675*
X185118Y349844*
X185664*
X185936Y349675*
X186073Y349506*
X186209Y349169*
Y348831*
X186073Y348494*
X185800Y347988*
X185800D02*
X184436Y346300D01*
X186345*
X193300Y329844D02*
Y326300D01*
Y329844D02*
X194527D01*
X194936Y329675*
X195073Y329506*
X195209Y329169*
Y328831*
X195073Y328494*
X194936Y328325*
X194527Y328156*
X193300*
X194255D02*
X195209Y326300D01*
X196709Y329844D02*
X198209D01*
X197391Y328494*
X197800*
X198073Y328325*
X198209Y328156*
X198345Y327650*
Y327313*
X198345D02*
X198209Y326806D01*
X197936Y326469*
X197527Y326300*
X197118*
X196709Y326469*
X196573Y326638*
X196573D02*
X196436Y326975D01*
X162300Y203844D02*
Y200300D01*
Y203844D02*
X163527D01*
X163936Y203675*
X164073Y203506*
X164209Y203169*
Y202831*
X164073Y202494*
X163936Y202325*
X163527Y202156*
X162300*
X163255D02*
X164209Y200300D01*
X165709Y203844D02*
X167209D01*
X166391Y202494*
X166800*
X167073Y202325*
X167209Y202156*
X167345Y201650*
Y201313*
X167345D02*
X167209Y200806D01*
X166936Y200469*
X166527Y200300*
X166118*
X165709Y200469*
X165573Y200638*
X165573D02*
X165436Y200975D01*
X168709Y203000D02*
Y203169D01*
X168845Y203506*
X168982Y203675*
X169255Y203844*
X169800*
X170073Y203675*
X170209Y203506*
X170345Y203169*
Y202831*
X170209Y202494*
X169936Y201988*
X169936D02*
X168573Y200300D01*
X170482*
X170300Y349844D02*
Y346300D01*
Y349844D02*
X171527D01*
X171936Y349675*
X172073Y349506*
X172209Y349169*
Y348831*
X172073Y348494*
X171936Y348325*
X171527Y348156*
X170300*
X171255D02*
X172209Y346300D01*
X173436Y349169D02*
X173709Y349338D01*
X173709D02*
X174118Y349844D01*
Y346300*
X198300Y229844D02*
Y226300D01*
Y229844D02*
X199527D01*
X199936Y229675*
X200073Y229506*
X200209Y229169*
Y228831*
X200073Y228494*
X199936Y228325*
X199527Y228156*
X198300*
X199255D02*
X200209Y226300D01*
X201436Y229169D02*
X201709Y229338D01*
X201709D02*
X202118Y229844D01*
Y226300*
X203482Y229000D02*
Y229169D01*
X203618Y229506*
X203755Y229675*
X204027Y229844*
X204573*
X204845Y229675*
X204982Y229506*
X205118Y229169*
Y228831*
X204982Y228494*
X204709Y227988*
X204709D02*
X203345Y226300D01*
X205255*
X138300Y293844D02*
X139391Y292156D01*
Y290300*
X140482Y293844D02*
X139391Y292156D01*
X141845Y293000D02*
Y293169D01*
X141982Y293506*
X142118Y293675*
X142391Y293844*
X142936*
X143209Y293675*
X143345Y293506*
X143482Y293169*
Y292831*
X143345Y292494*
X143073Y291988*
X143073D02*
X141709Y290300D01*
X143618*
X192300Y300844D02*
Y298313D01*
X192300D02*
X192436Y297806D01*
X192709Y297469*
X193118Y297300*
X193391*
X193800Y297469*
X194073Y297806*
X194209Y298313*
X194209D02*
Y300844D01*
X195436Y300169D02*
X195709Y300338D01*
X195709D02*
X196118Y300844D01*
Y297300*
X189300Y233844D02*
Y231313D01*
X189300D02*
X189436Y230806D01*
X189709Y230469*
X190118Y230300*
X190391*
X190800Y230469*
X191073Y230806*
X191209Y231313*
X191209D02*
Y233844D01*
X193118D02*
X192709Y233675D01*
X192573Y233338*
X192573D02*
Y233000D01*
X192709Y232663*
X192709D02*
X192982Y232494D01*
X193527Y232325*
X193936Y232156*
X194209Y231819*
X194345Y231481*
Y230975*
X194209Y230638*
X194209D02*
X194073Y230469D01*
X193664Y230300*
X193118*
X192709Y230469*
X192573Y230638*
X192573D02*
X192436Y230975D01*
Y231481*
X192573Y231819*
X192845Y232156*
X193255Y232325*
X193800Y232494*
X194073Y232663*
X194073D02*
X194209Y233000D01*
Y233338*
X194209D02*
X194073Y233675D01*
X193664Y233844*
X193118*
X331300Y302844D02*
Y300313D01*
X331300D02*
X331436Y299806D01*
X331709Y299469*
X332118Y299300*
X332391*
X332800Y299469*
X333073Y299806*
X333209Y300313*
X333209D02*
Y302844D01*
X336209Y301663D02*
X336073Y301156D01*
X335800Y300819*
X335391Y300650*
X335255*
X334845Y300819*
X334573Y301156*
X334436Y301663*
X334436D02*
Y301831D01*
X334573Y302338*
X334573D02*
X334845Y302675D01*
X335255Y302844*
X335391*
X335800Y302675*
X336073Y302338*
X336073D02*
X336209Y301663D01*
X336209D02*
Y300819D01*
X336073Y299975*
X335800Y299469*
X335391Y299300*
X335118*
X334709Y299469*
X334573Y299806*
X394345Y285000D02*
X394209Y285338D01*
X394209D02*
X393936Y285675D01*
X393664Y285844*
X393118*
X392845Y285675*
X392573Y285338*
X392573D02*
X392436Y285000D01*
X392300Y284494*
Y283650*
X392436Y283144*
X392573Y282806*
X392845Y282469*
X393118Y282300*
X393664*
X393936Y282469*
X394209Y282806*
X394345Y283144*
X397209Y285338D02*
X397073Y285675D01*
X396664Y285844*
X396391*
X395982Y285675*
X395709Y285169*
X395573Y284325*
Y283481*
X395709Y282806*
X395982Y282469*
X396391Y282300*
X396527*
X396936Y282469*
X397209Y282806*
X397345Y283313*
X397345D02*
Y283481D01*
X397209Y283988*
X397209D02*
X396936Y284325D01*
X396527Y284494*
X396391*
X395982Y284325*
X395709Y283988*
X395709D02*
X395573Y283481D01*
X398709Y285000D02*
Y285169D01*
X398845Y285506*
X398982Y285675*
X399255Y285844*
X399800*
X400073Y285675*
X400209Y285506*
X400345Y285169*
Y284831*
X400209Y284494*
X399936Y283988*
X399936D02*
X398573Y282300D01*
X400482*
X400345Y263000D02*
X400209Y263338D01*
X400209D02*
X399936Y263675D01*
X399664Y263844*
X399118*
X398845Y263675*
X398573Y263338*
X398573D02*
X398436Y263000D01*
X398300Y262494*
Y261650*
X398436Y261144*
X398573Y260806*
X398845Y260469*
X399118Y260300*
X399664*
X399936Y260469*
X400209Y260806*
X400345Y261144*
X403209Y263338D02*
X403073Y263675D01*
X402664Y263844*
X402391*
X401982Y263675*
X401709Y263169*
X401573Y262325*
Y261481*
X401709Y260806*
X401982Y260469*
X402391Y260300*
X402527*
X402936Y260469*
X403209Y260806*
X403345Y261313*
X403345D02*
Y261481D01*
X403209Y261988*
X403209D02*
X402936Y262325D01*
X402527Y262494*
X402391*
X401982Y262325*
X401709Y261988*
X401709D02*
X401573Y261481D01*
X404845Y263844D02*
X406345D01*
X405527Y262494*
X405936*
X406209Y262325*
X406345Y262156*
X406482Y261650*
Y261313*
X406482D02*
X406345Y260806D01*
X406073Y260469*
X405664Y260300*
X405255*
X404845Y260469*
X404709Y260638*
X404709D02*
X404573Y260975D01*
X159300Y157844D02*
Y155313D01*
X159300D02*
X159436Y154806D01*
X159709Y154469*
X160118Y154300*
X160391*
X160800Y154469*
X161073Y154806*
X161209Y155313*
X161209D02*
Y157844D01*
X162436Y157169D02*
X162709Y157338D01*
X162709D02*
X163118Y157844D01*
Y154300*
X165164Y157844D02*
X164755Y157675D01*
X164482Y157169*
X164345Y156325*
Y155819*
X164482Y154975*
X164755Y154469*
X165164Y154300*
X165436*
X165845Y154469*
X166118Y154975*
X166255Y155819*
Y156325*
X166118Y157169*
X165845Y157675*
X165436Y157844*
X165164*
X371300Y285844D02*
Y282300D01*
Y285844D02*
X372527D01*
X372936Y285675*
X373073Y285506*
X373209Y285169*
Y284831*
X373073Y284494*
X372936Y284325*
X372527Y284156*
X371300*
X372255D02*
X373209Y282300D01*
X374573Y285000D02*
Y285169D01*
X374709Y285506*
X374845Y285675*
X375118Y285844*
X375664*
X375936Y285675*
X376073Y285506*
X376209Y285169*
Y284831*
X376073Y284494*
X375800Y283987*
X375800D02*
X374436Y282300D01*
X376345*
X378391Y285844D02*
X377982Y285675D01*
X377709Y285169*
X377573Y284325*
Y283819*
X377709Y282975*
X377982Y282469*
X378391Y282300*
X378664*
X379073Y282469*
X379345Y282975*
X379482Y283819*
Y284325*
X379345Y285169*
X379073Y285675*
X378664Y285844*
X378391*
X440300Y295844D02*
Y292300D01*
X441936*
X444936Y294663D02*
X444800Y294156D01*
X444527Y293819*
X444118Y293650*
X443982*
X443573Y293819*
X443300Y294156*
X443164Y294663*
Y294831*
X443300Y295338*
X443573Y295675*
X443982Y295844*
X444118*
X444527Y295675*
X444800Y295338*
X444936Y294663*
Y293819*
X444800Y292975*
X444527Y292469*
X444118Y292300*
X443845*
X443436Y292469*
X443300Y292806*
X255345Y136000D02*
X255209Y136338D01*
X255209D02*
X254936Y136675D01*
X254664Y136844*
X254118*
X253845Y136675*
X253573Y136338*
X253573D02*
X253436Y136000D01*
X253300Y135494*
Y134650*
X253436Y134144*
X253573Y133806*
X253845Y133469*
X254118Y133300*
X254664*
X254936Y133469*
X255209Y133806*
X255345Y134144*
X258345Y135663D02*
X258209Y135156D01*
X257936Y134819*
X257527Y134650*
X257391*
X256982Y134819*
X256709Y135156*
X256573Y135663*
X256573D02*
Y135831D01*
X256709Y136338*
X256709D02*
X256982Y136675D01*
X257391Y136844*
X257527*
X257936Y136675*
X258209Y136338*
X258209D02*
X258345Y135663D01*
X258345D02*
Y134819D01*
X258209Y133975*
X257936Y133469*
X257527Y133300*
X257255*
X256845Y133469*
X256709Y133806*
X234345Y213000D02*
X234209Y213338D01*
X234209D02*
X233936Y213675D01*
X233664Y213844*
X233118*
X232845Y213675*
X232573Y213338*
X232573D02*
X232436Y213000D01*
X232300Y212494*
Y211650*
X232436Y211144*
X232573Y210806*
X232845Y210469*
X233118Y210300*
X233664*
X233936Y210469*
X234209Y210806*
X234345Y211144*
X237482Y213844D02*
X236118Y210300D01*
X235573Y213844D02*
X237482D01*
X191345Y166000D02*
X191209Y166338D01*
X191209D02*
X190936Y166675D01*
X190664Y166844*
X190118*
X189845Y166675*
X189573Y166338*
X189573D02*
X189436Y166000D01*
X189300Y165494*
Y164650*
X189436Y164144*
X189573Y163806*
X189845Y163469*
X190118Y163300*
X190664*
X190936Y163469*
X191209Y163806*
X191345Y164144*
X194209Y166338D02*
X194073Y166675D01*
X193664Y166844*
X193391*
X192982Y166675*
X192709Y166169*
X192573Y165325*
Y164481*
X192709Y163806*
X192982Y163469*
X193391Y163300*
X193527*
X193936Y163469*
X194209Y163806*
X194345Y164313*
X194345D02*
Y164481D01*
X194209Y164988*
X194209D02*
X193936Y165325D01*
X193527Y165494*
X193391*
X192982Y165325*
X192709Y164988*
X192709D02*
X192573Y164481D01*
X196255Y166844D02*
X195845Y166675D01*
X195709Y166338*
X195709D02*
Y166000D01*
X195845Y165663*
X195845D02*
X196118Y165494D01*
X196664Y165325*
X197073Y165156*
X197345Y164819*
X197482Y164481*
Y163975*
X197345Y163638*
X197345D02*
X197209Y163469D01*
X196800Y163300*
X196255*
X195845Y163469*
X195709Y163638*
X195709D02*
X195573Y163975D01*
Y164481*
X195709Y164819*
X195982Y165156*
X196391Y165325*
X196936Y165494*
X197209Y165663*
X197209D02*
X197345Y166000D01*
Y166338*
X197345D02*
X197209Y166675D01*
X196800Y166844*
X196255*
X266000Y179345D02*
X265662Y179209D01*
X265662D02*
X265325Y178936D01*
X265156Y178664*
Y178118*
X265325Y177845*
X265662Y177573*
X265662D02*
X266000Y177436D01*
X266506Y177300*
X267350*
X267856Y177436*
X268194Y177573*
X268531Y177845*
X268700Y178118*
Y178664*
X268531Y178936*
X268194Y179209*
X267856Y179345*
X265662Y182209D02*
X265325Y182073D01*
X265156Y181664*
Y181391*
X265325Y180982*
X265831Y180709*
X266675Y180573*
X267519*
X268194Y180709*
X268531Y180982*
X268700Y181391*
Y181527*
X268531Y181936*
X268194Y182209*
X267687Y182345*
X267687D02*
X267519D01*
X267012Y182209*
X267012D02*
X266675Y181936D01*
X266506Y181527*
Y181391*
X266675Y180982*
X267012Y180709*
X267012D02*
X267519Y180573D01*
X265156Y184936D02*
X267519Y183573D01*
Y185618*
X265156Y184936D02*
X268700D01*
X243345Y136000D02*
X243209Y136338D01*
X243209D02*
X242936Y136675D01*
X242664Y136844*
X242118*
X241845Y136675*
X241573Y136338*
X241573D02*
X241436Y136000D01*
X241300Y135494*
Y134650*
X241436Y134144*
X241573Y133806*
X241845Y133469*
X242118Y133300*
X242664*
X242936Y133469*
X243209Y133806*
X243345Y134144*
X246209Y136338D02*
X246073Y136675D01*
X245664Y136844*
X245391*
X244982Y136675*
X244709Y136169*
X244573Y135325*
Y134481*
X244709Y133806*
X244982Y133469*
X245391Y133300*
X245527*
X245936Y133469*
X246209Y133806*
X246345Y134313*
X246345D02*
Y134481D01*
X246209Y134988*
X246209D02*
X245936Y135325D01*
X245527Y135494*
X245391*
X244982Y135325*
X244709Y134988*
X244709D02*
X244573Y134481D01*
X249345Y136844D02*
X247982D01*
X247845Y135325*
X247982Y135494*
X248391Y135663*
X248391D02*
X248800D01*
X248800D02*
X249209Y135494D01*
X249482Y135156*
X249618Y134650*
X249482Y134313*
X249482D02*
X249345Y133806D01*
X249073Y133469*
X248664Y133300*
X248255*
X247845Y133469*
X247709Y133638*
X247709D02*
X247573Y133975D01*
X228345Y142000D02*
X228209Y142338D01*
X228209D02*
X227936Y142675D01*
X227664Y142844*
X227118*
X226845Y142675*
X226573Y142338*
X226573D02*
X226436Y142000D01*
X226300Y141494*
Y140650*
X226436Y140144*
X226573Y139806*
X226845Y139469*
X227118Y139300*
X227664*
X227936Y139469*
X228209Y139806*
X228345Y140144*
X231209Y142338D02*
X231073Y142675D01*
X230664Y142844*
X230391*
X229982Y142675*
X229709Y142169*
X229573Y141325*
Y140481*
X229709Y139806*
X229982Y139469*
X230391Y139300*
X230527*
X230936Y139469*
X231209Y139806*
X231345Y140313*
X231345D02*
Y140481D01*
X231209Y140988*
X231209D02*
X230936Y141325D01*
X230527Y141494*
X230391*
X229982Y141325*
X229709Y140988*
X229709D02*
X229573Y140481D01*
X234209Y142338D02*
X234073Y142675D01*
X233664Y142844*
X233391*
X232982Y142675*
X232709Y142169*
X232573Y141325*
Y140481*
X232709Y139806*
X232982Y139469*
X233391Y139300*
X233527*
X233936Y139469*
X234209Y139806*
X234345Y140313*
X234345D02*
Y140481D01*
X234209Y140988*
X234209D02*
X233936Y141325D01*
X233527Y141494*
X233391*
X232982Y141325*
X232709Y140988*
X232709D02*
X232573Y140481D01*
X210345Y158000D02*
X210209Y158338D01*
X210209D02*
X209936Y158675D01*
X209664Y158844*
X209118*
X208845Y158675*
X208573Y158338*
X208573D02*
X208436Y158000D01*
X208300Y157494*
Y156650*
X208436Y156144*
X208573Y155806*
X208845Y155469*
X209118Y155300*
X209664*
X209936Y155469*
X210209Y155806*
X210345Y156144*
X213209Y158338D02*
X213073Y158675D01*
X212664Y158844*
X212391*
X211982Y158675*
X211709Y158169*
X211573Y157325*
Y156481*
X211709Y155806*
X211982Y155469*
X212391Y155300*
X212527*
X212936Y155469*
X213209Y155806*
X213345Y156313*
X213345D02*
Y156481D01*
X213209Y156988*
X213209D02*
X212936Y157325D01*
X212527Y157494*
X212391*
X211982Y157325*
X211709Y156988*
X211709D02*
X211573Y156481D01*
X216482Y158844D02*
X215118Y155300D01*
X214573Y158844D02*
X216482D01*
X305300Y141844D02*
Y138300D01*
Y141844D02*
X306527D01*
X306936Y141675*
X307073Y141506*
X307209Y141169*
Y140831*
X307073Y140494*
X306936Y140325*
X306527Y140156*
X305300*
X306255D02*
X307209Y138300D01*
X308573Y141000D02*
Y141169D01*
X308709Y141506*
X308845Y141675*
X309118Y141844*
X309664*
X309936Y141675*
X310073Y141506*
X310209Y141169*
Y140831*
X310073Y140494*
X309800Y139988*
X309800D02*
X308436Y138300D01*
X310345*
X311573Y141169D02*
X311845Y141338D01*
X311845D02*
X312255Y141844D01*
Y138300*
X212300Y197844D02*
Y195313D01*
X212300D02*
X212436Y194806D01*
X212709Y194469*
X213118Y194300*
X213391*
X213800Y194469*
X214073Y194806*
X214209Y195313*
X214209D02*
Y197844D01*
X215436Y197169D02*
X215709Y197338D01*
X215709D02*
X216118Y197844D01*
Y194300*
X217345Y197169D02*
X217618Y197338D01*
X217618D02*
X218027Y197844D01*
Y194300*
X222345Y342000D02*
X222209Y342338D01*
X222209D02*
X221936Y342675D01*
X221664Y342844*
X221118*
X220845Y342675*
X220573Y342338*
X220573D02*
X220436Y342000D01*
X220300Y341494*
Y340650*
X220436Y340144*
X220573Y339806*
X220845Y339469*
X221118Y339300*
X221664*
X221936Y339469*
X222209Y339806*
X222345Y340144*
X223709Y342000D02*
Y342169D01*
X223845Y342506*
X223982Y342675*
X224255Y342844*
X224800*
X225073Y342675*
X225209Y342506*
X225345Y342169*
Y341831*
X225209Y341494*
X224936Y340988*
X224936D02*
X223573Y339300D01*
X225482*
X227527Y342844D02*
X227118Y342675D01*
X226845Y342169*
X226709Y341325*
Y340819*
X226845Y339975*
X227118Y339469*
X227527Y339300*
X227800*
X228209Y339469*
X228482Y339975*
X228618Y340819*
Y341325*
X228482Y342169*
X228209Y342675*
X227800Y342844*
X227527*
X259345Y342000D02*
X259209Y342338D01*
X259209D02*
X258936Y342675D01*
X258664Y342844*
X258118*
X257845Y342675*
X257573Y342338*
X257573D02*
X257436Y342000D01*
X257300Y341494*
Y340650*
X257436Y340144*
X257573Y339806*
X257845Y339469*
X258118Y339300*
X258664*
X258936Y339469*
X259209Y339806*
X259345Y340144*
X262345Y342844D02*
X260982D01*
X260845Y341325*
X260982Y341494*
X261391Y341663*
X261391D02*
X261800D01*
X261800D02*
X262209Y341494D01*
X262482Y341156*
X262618Y340650*
X262482Y340313*
X262482D02*
X262345Y339806D01*
X262073Y339469*
X261664Y339300*
X261255*
X260845Y339469*
X260709Y339638*
X260709D02*
X260573Y339975D01*
X263982Y342000D02*
Y342169D01*
X264118Y342506*
X264255Y342675*
X264527Y342844*
X265073*
X265345Y342675*
X265482Y342506*
X265618Y342169*
Y341831*
X265482Y341494*
X265209Y340988*
X265209D02*
X263845Y339300D01*
X265755*
X232345Y336000D02*
X232209Y336338D01*
X232209D02*
X231936Y336675D01*
X231664Y336844*
X231118*
X230845Y336675*
X230573Y336338*
X230573D02*
X230436Y336000D01*
X230300Y335494*
Y334650*
X230436Y334144*
X230573Y333806*
X230845Y333469*
X231118Y333300*
X231664*
X231936Y333469*
X232209Y333806*
X232345Y334144*
X235345Y336844D02*
X233982D01*
X233845Y335325*
X233982Y335494*
X234391Y335663*
X234391D02*
X234800D01*
X234800D02*
X235209Y335494D01*
X235482Y335156*
X235618Y334650*
X235482Y334313*
X235482D02*
X235345Y333806D01*
X235073Y333469*
X234664Y333300*
X234255*
X233845Y333469*
X233709Y333638*
X233709D02*
X233573Y333975D01*
X238209Y336844D02*
X236845Y334481D01*
X238891*
X238209Y336844D02*
Y333300D01*
X250345Y336000D02*
X250209Y336338D01*
X250209D02*
X249936Y336675D01*
X249664Y336844*
X249118*
X248845Y336675*
X248573Y336338*
X248573D02*
X248436Y336000D01*
X248300Y335494*
Y334650*
X248436Y334144*
X248573Y333806*
X248845Y333469*
X249118Y333300*
X249664*
X249936Y333469*
X250209Y333806*
X250345Y334144*
X253345Y336844D02*
X251982D01*
X251845Y335325*
X251982Y335494*
X252391Y335663*
X252391D02*
X252800D01*
X252800D02*
X253209Y335494D01*
X253482Y335156*
X253618Y334650*
X253482Y334313*
X253482D02*
X253345Y333806D01*
X253073Y333469*
X252664Y333300*
X252255*
X251845Y333469*
X251709Y333638*
X251709D02*
X251573Y333975D01*
X256618Y336844D02*
X255255D01*
X255118Y335325*
X255255Y335494*
X255664Y335663*
X255664D02*
X256073D01*
X256073D02*
X256482Y335494D01*
X256755Y335156*
X256891Y334650*
X256755Y334313*
X256755D02*
X256618Y333806D01*
X256345Y333469*
X255936Y333300*
X255527*
X255118Y333469*
X254982Y333638*
X254982D02*
X254845Y333975D01*
X268345Y336000D02*
X268209Y336338D01*
X268209D02*
X267936Y336675D01*
X267664Y336844*
X267118*
X266845Y336675*
X266573Y336338*
X266573D02*
X266436Y336000D01*
X266300Y335494*
Y334650*
X266436Y334144*
X266573Y333806*
X266845Y333469*
X267118Y333300*
X267664*
X267936Y333469*
X268209Y333806*
X268345Y334144*
X271345Y336844D02*
X269982D01*
X269845Y335325*
X269982Y335494*
X270391Y335663*
X270391D02*
X270800D01*
X270800D02*
X271209Y335494D01*
X271482Y335156*
X271618Y334650*
X271482Y334313*
X271482D02*
X271345Y333806D01*
X271073Y333469*
X270664Y333300*
X270255*
X269845Y333469*
X269709Y333638*
X269709D02*
X269573Y333975D01*
X274482Y336338D02*
X274345Y336675D01*
X273936Y336844*
X273664*
X273255Y336675*
X272982Y336169*
X272845Y335325*
Y334481*
X272982Y333806*
X273255Y333469*
X273664Y333300*
X273800*
X274209Y333469*
X274482Y333806*
X274618Y334313*
X274618D02*
Y334481D01*
X274482Y334988*
X274482D02*
X274209Y335325D01*
X273800Y335494*
X273664*
X273255Y335325*
X272982Y334988*
X272982D02*
X272845Y334481D01*
X214345Y287000D02*
X214209Y287338D01*
X214209D02*
X213936Y287675D01*
X213664Y287844*
X213118*
X212845Y287675*
X212573Y287338*
X212573D02*
X212436Y287000D01*
X212300Y286494*
Y285650*
X212436Y285144*
X212573Y284806*
X212845Y284469*
X213118Y284300*
X213664*
X213936Y284469*
X214209Y284806*
X214345Y285144*
X217345Y287844D02*
X215982D01*
X215845Y286325*
X215982Y286494*
X216391Y286663*
X216391D02*
X216800D01*
X216800D02*
X217209Y286494D01*
X217482Y286156*
X217618Y285650*
X217482Y285313*
X217482D02*
X217345Y284806D01*
X217073Y284469*
X216664Y284300*
X216255*
X215845Y284469*
X215709Y284638*
X215709D02*
X215573Y284975D01*
X220755Y287844D02*
X219391Y284300D01*
X218845Y287844D02*
X220755D01*
X245345Y294000D02*
X245209Y294338D01*
X245209D02*
X244936Y294675D01*
X244664Y294844*
X244118*
X243845Y294675*
X243573Y294338*
X243573D02*
X243436Y294000D01*
X243300Y293494*
Y292650*
X243436Y292144*
X243573Y291806*
X243845Y291469*
X244118Y291300*
X244664*
X244936Y291469*
X245209Y291806*
X245345Y292144*
X248209Y294338D02*
X248073Y294675D01*
X247664Y294844*
X247391*
X246982Y294675*
X246709Y294169*
X246573Y293325*
Y292481*
X246709Y291806*
X246982Y291469*
X247391Y291300*
X247527*
X247936Y291469*
X248209Y291806*
X248345Y292313*
X248345D02*
Y292481D01*
X248209Y292988*
X248209D02*
X247936Y293325D01*
X247527Y293494*
X247391*
X246982Y293325*
X246709Y292988*
X246709D02*
X246573Y292481D01*
X251345Y293663D02*
X251209Y293156D01*
X250936Y292819*
X250527Y292650*
X250391*
X249982Y292819*
X249709Y293156*
X249573Y293663*
X249573D02*
Y293831D01*
X249709Y294338*
X249709D02*
X249982Y294675D01*
X250391Y294844*
X250527*
X250936Y294675*
X251209Y294338*
X251209D02*
X251345Y293663D01*
X251345D02*
Y292819D01*
X251209Y291975*
X250936Y291469*
X250527Y291300*
X250255*
X249845Y291469*
X249709Y291806*
X264345Y294000D02*
X264209Y294338D01*
X264209D02*
X263936Y294675D01*
X263664Y294844*
X263118*
X262845Y294675*
X262573Y294338*
X262573D02*
X262436Y294000D01*
X262300Y293494*
Y292650*
X262436Y292144*
X262573Y291806*
X262845Y291469*
X263118Y291300*
X263664*
X263936Y291469*
X264209Y291806*
X264345Y292144*
X267482Y294844D02*
X266118Y291300D01*
X265573Y294844D02*
X267482D01*
X269527D02*
X269118Y294675D01*
X268845Y294169*
X268709Y293325*
Y292819*
X268845Y291975*
X269118Y291469*
X269527Y291300*
X269800*
X270209Y291469*
X270482Y291975*
X270618Y292819*
Y293325*
X270482Y294169*
X270209Y294675*
X269800Y294844*
X269527*
X287345Y290000D02*
X287209Y290338D01*
X287209D02*
X286936Y290675D01*
X286664Y290844*
X286118*
X285845Y290675*
X285573Y290338*
X285573D02*
X285436Y290000D01*
X285300Y289494*
Y288650*
X285436Y288144*
X285573Y287806*
X285845Y287469*
X286118Y287300*
X286664*
X286936Y287469*
X287209Y287806*
X287345Y288144*
X290482Y290844D02*
X289118Y287300D01*
X288573Y290844D02*
X290482D01*
X291709Y290169D02*
X291982Y290338D01*
X291982D02*
X292391Y290844D01*
Y287300*
X232345Y289000D02*
X232209Y289338D01*
X232209D02*
X231936Y289675D01*
X231664Y289844*
X231118*
X230845Y289675*
X230573Y289338*
X230573D02*
X230436Y289000D01*
X230300Y288494*
Y287650*
X230436Y287144*
X230573Y286806*
X230845Y286469*
X231118Y286300*
X231664*
X231936Y286469*
X232209Y286806*
X232345Y287144*
X235482Y289844D02*
X234118Y286300D01*
X233573Y289844D02*
X235482D01*
X236845Y289000D02*
Y289169D01*
X236982Y289506*
X237118Y289675*
X237391Y289844*
X237936*
X238209Y289675*
X238345Y289506*
X238482Y289169*
Y288831*
X238345Y288494*
X238073Y287988*
X238073D02*
X236709Y286300D01*
X238618*
X250345Y289000D02*
X250209Y289338D01*
X250209D02*
X249936Y289675D01*
X249664Y289844*
X249118*
X248845Y289675*
X248573Y289338*
X248573D02*
X248436Y289000D01*
X248300Y288494*
Y287650*
X248436Y287144*
X248573Y286806*
X248845Y286469*
X249118Y286300*
X249664*
X249936Y286469*
X250209Y286806*
X250345Y287144*
X253482Y289844D02*
X252118Y286300D01*
X251573Y289844D02*
X253482D01*
X254982D02*
X256482D01*
X255664Y288494*
X256073*
X256345Y288325*
X256482Y288156*
X256618Y287650*
Y287313*
X256618D02*
X256482Y286806D01*
X256209Y286469*
X255800Y286300*
X255391*
X254982Y286469*
X254845Y286638*
X254845D02*
X254709Y286975D01*
X268345Y289000D02*
X268209Y289338D01*
X268209D02*
X267936Y289675D01*
X267664Y289844*
X267118*
X266845Y289675*
X266573Y289338*
X266573D02*
X266436Y289000D01*
X266300Y288494*
Y287650*
X266436Y287144*
X266573Y286806*
X266845Y286469*
X267118Y286300*
X267664*
X267936Y286469*
X268209Y286806*
X268345Y287144*
X271482Y289844D02*
X270118Y286300D01*
X269573Y289844D02*
X271482D01*
X274073D02*
X272709Y287481D01*
X274755*
X274073Y289844D02*
Y286300D01*
X214345Y254000D02*
X214209Y254338D01*
X214209D02*
X213936Y254675D01*
X213664Y254844*
X213118*
X212845Y254675*
X212573Y254338*
X212573D02*
X212436Y254000D01*
X212300Y253494*
Y252650*
X212436Y252144*
X212573Y251806*
X212845Y251469*
X213118Y251300*
X213664*
X213936Y251469*
X214209Y251806*
X214345Y252144*
X217482Y254844D02*
X216118Y251300D01*
X215573Y254844D02*
X217482D01*
X220482D02*
X219118D01*
X218982Y253325*
X219118Y253494*
X219527Y253663*
X219527D02*
X219936D01*
X219936D02*
X220345Y253494D01*
X220618Y253156*
X220755Y252650*
X220618Y252313*
X220618D02*
X220482Y251806D01*
X220209Y251469*
X219800Y251300*
X219391*
X218982Y251469*
X218845Y251638*
X218845D02*
X218709Y251975D01*
X242345Y247000D02*
X242209Y247338D01*
X242209D02*
X241936Y247675D01*
X241664Y247844*
X241118*
X240845Y247675*
X240573Y247338*
X240573D02*
X240436Y247000D01*
X240300Y246494*
Y245650*
X240436Y245144*
X240573Y244806*
X240845Y244469*
X241118Y244300*
X241664*
X241936Y244469*
X242209Y244806*
X242345Y245144*
X245482Y247844D02*
X244118Y244300D01*
X243573Y247844D02*
X245482D01*
X248345Y247338D02*
X248209Y247675D01*
X247800Y247844*
X247527*
X247118Y247675*
X246845Y247169*
X246709Y246325*
Y245481*
X246845Y244806*
X247118Y244469*
X247527Y244300*
X247664*
X248073Y244469*
X248345Y244806*
X248482Y245313*
X248482D02*
Y245481D01*
X248345Y245988*
X248345D02*
X248073Y246325D01*
X247664Y246494*
X247527*
X247118Y246325*
X246845Y245988*
X246845D02*
X246709Y245481D01*
X263345Y247000D02*
X263209Y247338D01*
X263209D02*
X262936Y247675D01*
X262664Y247844*
X262118*
X261845Y247675*
X261573Y247338*
X261573D02*
X261436Y247000D01*
X261300Y246494*
Y245650*
X261436Y245144*
X261573Y244806*
X261845Y244469*
X262118Y244300*
X262664*
X262936Y244469*
X263209Y244806*
X263345Y245144*
X266482Y247844D02*
X265118Y244300D01*
X264573Y247844D02*
X266482D01*
X269618D02*
X268255Y244300D01*
X267709Y247844D02*
X269618D01*
X286345Y250000D02*
X286209Y250338D01*
X285936Y250675*
X285664Y250844*
X285118*
X284845Y250675*
X284573Y250338*
X284436Y250000*
X284300Y249494*
Y248650*
X284436Y248144*
X284573Y247806*
X284845Y247469*
X285118Y247300*
X285664*
X285936Y247469*
X286209Y247806*
X286345Y248144*
X289482Y250844D02*
X288118Y247300D01*
X287573Y250844D02*
X289482D01*
X291391D02*
X290982Y250675D01*
X290845Y250338*
Y250000*
X290982Y249663*
X291255Y249494*
X291800Y249325*
X292209Y249156*
X292482Y248819*
X292618Y248481*
Y247975*
X292482Y247638*
X292345Y247469*
X291936Y247300*
X291391*
X290982Y247469*
X290845Y247638*
X290709Y247975*
Y248481*
X290845Y248819*
X291118Y249156*
X291527Y249325*
X292073Y249494*
X292345Y249663*
X292482Y250000*
Y250338*
X292345Y250675*
X291936Y250844*
X291391*
X233345Y253000D02*
X233209Y253338D01*
X233209D02*
X232936Y253675D01*
X232664Y253844*
X232118*
X231845Y253675*
X231573Y253338*
X231573D02*
X231436Y253000D01*
X231300Y252494*
Y251650*
X231436Y251144*
X231573Y250806*
X231845Y250469*
X232118Y250300*
X232664*
X232936Y250469*
X233209Y250806*
X233345Y251144*
X236482Y253844D02*
X235118Y250300D01*
X234573Y253844D02*
X236482D01*
X239482Y252663D02*
X239345Y252156D01*
X239073Y251819*
X238664Y251650*
X238527*
X238118Y251819*
X237845Y252156*
X237709Y252663*
X237709D02*
Y252831D01*
X237845Y253338*
X237845D02*
X238118Y253675D01*
X238527Y253844*
X238664*
X239073Y253675*
X239345Y253338*
X239345D02*
X239482Y252663D01*
X239482D02*
Y251819D01*
X239345Y250975*
X239073Y250469*
X238664Y250300*
X238391*
X237982Y250469*
X237845Y250806*
X251345Y253000D02*
X251209Y253338D01*
X251209D02*
X250936Y253675D01*
X250664Y253844*
X250118*
X249845Y253675*
X249573Y253338*
X249573D02*
X249436Y253000D01*
X249300Y252494*
Y251650*
X249436Y251144*
X249573Y250806*
X249845Y250469*
X250118Y250300*
X250664*
X250936Y250469*
X251209Y250806*
X251345Y251144*
X253255Y253844D02*
X252845Y253675D01*
X252709Y253338*
X252709D02*
Y253000D01*
X252845Y252663*
X252845D02*
X253118Y252494D01*
X253664Y252325*
X254073Y252156*
X254345Y251819*
X254482Y251481*
Y250975*
X254345Y250638*
X254345D02*
X254209Y250469D01*
X253800Y250300*
X253255*
X252845Y250469*
X252709Y250638*
X252709D02*
X252573Y250975D01*
Y251481*
X252709Y251819*
X252982Y252156*
X253391Y252325*
X253936Y252494*
X254209Y252663*
X254209D02*
X254345Y253000D01*
Y253338*
X254345D02*
X254209Y253675D01*
X253800Y253844*
X253255*
X256527D02*
X256118Y253675D01*
X255845Y253169*
X255709Y252325*
Y251819*
X255845Y250975*
X256118Y250469*
X256527Y250300*
X256800*
X257209Y250469*
X257482Y250975*
X257618Y251819*
Y252325*
X257482Y253169*
X257209Y253675*
X256800Y253844*
X256527*
X269345Y253000D02*
X269209Y253338D01*
X269209D02*
X268936Y253675D01*
X268664Y253844*
X268118*
X267845Y253675*
X267573Y253338*
X267573D02*
X267436Y253000D01*
X267300Y252494*
Y251650*
X267436Y251144*
X267573Y250806*
X267845Y250469*
X268118Y250300*
X268664*
X268936Y250469*
X269209Y250806*
X269345Y251144*
X271255Y253844D02*
X270845Y253675D01*
X270709Y253338*
X270709D02*
Y253000D01*
X270845Y252663*
X270845D02*
X271118Y252494D01*
X271664Y252325*
X272073Y252156*
X272345Y251819*
X272482Y251481*
Y250975*
X272345Y250638*
X272345D02*
X272209Y250469D01*
X271800Y250300*
X271255*
X270845Y250469*
X270709Y250638*
X270709D02*
X270573Y250975D01*
Y251481*
X270709Y251819*
X270982Y252156*
X271391Y252325*
X271936Y252494*
X272209Y252663*
X272209D02*
X272345Y253000D01*
Y253338*
X272345D02*
X272209Y253675D01*
X271800Y253844*
X271255*
X273709Y253169D02*
X273982Y253338D01*
X273982D02*
X274391Y253844D01*
Y250300*
X289300Y277844D02*
Y274300D01*
X290936*
X292164Y277169D02*
X292436Y277338D01*
X292436D02*
X292845Y277844D01*
Y274300*
X294891Y277844D02*
X294482Y277675D01*
X294209Y277169*
X294073Y276325*
Y275819*
X294209Y274975*
X294482Y274469*
X294891Y274300*
X295164*
X295573Y274469*
X295845Y274975*
X295982Y275819*
Y276325*
X295845Y277169*
X295573Y277675*
X295164Y277844*
X294891*
X210300Y265844D02*
Y262300D01*
X211936*
X213164Y265169D02*
X213436Y265338D01*
X213436D02*
X213845Y265844D01*
Y262300*
X215073Y265169D02*
X215345Y265338D01*
X215345D02*
X215755Y265844D01*
Y262300*
X256300Y240844D02*
Y237300D01*
X257936*
X259164Y240169D02*
X259436Y240338D01*
X259436D02*
X259845Y240844D01*
Y237300*
X261209Y240000D02*
Y240169D01*
X261345Y240506*
X261482Y240675*
X261755Y240844*
X262300*
X262573Y240675*
X262709Y240506*
X262845Y240169*
Y239831*
X262709Y239494*
X262436Y238988*
X262436D02*
X261073Y237300D01*
X262982*
X289300Y264844D02*
Y261300D01*
X290936*
X292164Y264169D02*
X292436Y264338D01*
X292436D02*
X292845Y264844D01*
Y261300*
X294345Y264844D02*
X295845D01*
X295027Y263494*
X295436*
X295709Y263325*
X295845Y263156*
X295982Y262650*
Y262313*
X295982D02*
X295845Y261806D01*
X295573Y261469*
X295164Y261300*
X294755*
X294345Y261469*
X294209Y261638*
X294209D02*
X294073Y261975D01*
X292300Y141844D02*
Y138300D01*
Y141844D02*
X293527D01*
X293936Y141675*
X294073Y141506*
X294209Y141169*
Y140831*
X294073Y140494*
X293936Y140325*
X293527Y140156*
X292300*
X293255D02*
X294209Y138300D01*
X295436Y141169D02*
X295709Y141338D01*
X295709D02*
X296118Y141844D01*
Y138300*
X299118Y141844D02*
X297755D01*
X297618Y140325*
X297755Y140494*
X298164Y140663*
X298164D02*
X298573D01*
X298573D02*
X298982Y140494D01*
X299255Y140156*
X299391Y139650*
X299255Y139313*
X299255D02*
X299118Y138806D01*
X298845Y138469*
X298436Y138300*
X298027*
X297618Y138469*
X297482Y138638*
X297482D02*
X297345Y138975D01*
X277300Y129844D02*
Y126300D01*
Y129844D02*
X278527D01*
X278936Y129675*
X279073Y129506*
X279209Y129169*
Y128831*
X279073Y128494*
X278936Y128325*
X278527Y128156*
X277300*
X278255D02*
X279209Y126300D01*
X280573Y129000D02*
Y129169D01*
X280709Y129506*
X280845Y129675*
X281118Y129844*
X281664*
X281936Y129675*
X282073Y129506*
X282209Y129169*
Y128831*
X282073Y128494*
X281800Y127988*
X281800D02*
X280436Y126300D01*
X282345*
X283709Y129000D02*
Y129169D01*
X283845Y129506*
X283982Y129675*
X284255Y129844*
X284800*
X285073Y129675*
X285209Y129506*
X285345Y129169*
Y128831*
X285209Y128494*
X284936Y127988*
X284936D02*
X283573Y126300D01*
X285482*
X295300Y199844D02*
Y197313D01*
X295300D02*
X295436Y196806D01*
X295709Y196469*
X296118Y196300*
X296391*
X296800Y196469*
X297073Y196806*
X297209Y197313*
X297209D02*
Y199844D01*
X298436Y199169D02*
X298709Y199338D01*
X298709D02*
X299118Y199844D01*
Y196300*
X300482Y199000D02*
Y199169D01*
X300618Y199506*
X300755Y199675*
X301027Y199844*
X301573*
X301845Y199675*
X301982Y199506*
X302118Y199169*
Y198831*
X301982Y198494*
X301709Y197988*
X301709D02*
X300345Y196300D01*
X302255*
X350300Y190844D02*
Y188313D01*
X350436Y187806*
X350709Y187469*
X351118Y187300*
X351391*
X351800Y187469*
X352073Y187806*
X352209Y188313*
Y190844*
X353573Y190000D02*
Y190169D01*
X353709Y190506*
X353845Y190675*
X354118Y190844*
X354664*
X354936Y190675*
X355073Y190506*
X355209Y190169*
Y189831*
X355073Y189494*
X354800Y188988*
X353436Y187300*
X355345*
X450300Y250844D02*
Y248313D01*
X450300D02*
X450436Y247806D01*
X450709Y247469*
X451118Y247300*
X451391*
X451800Y247469*
X452073Y247806*
X452209Y248313*
X452209D02*
Y250844D01*
X453436Y250169D02*
X453709Y250338D01*
X453709D02*
X454118Y250844D01*
Y247300*
X457118Y250844D02*
X455755D01*
X455618Y249325*
X455755Y249494*
X456164Y249663*
X456164D02*
X456573D01*
X456573D02*
X456982Y249494D01*
X457255Y249156*
X457391Y248650*
X457255Y248313*
X457255D02*
X457118Y247806D01*
X456845Y247469*
X456436Y247300*
X456027*
X455618Y247469*
X455482Y247638*
X455482D02*
X455345Y247975D01*
X312300Y268844D02*
Y266313D01*
X312300D02*
X312436Y265806D01*
X312709Y265469*
X313118Y265300*
X313391*
X313800Y265469*
X314073Y265806*
X314209Y266313*
X314209D02*
Y268844D01*
X315436Y268169D02*
X315709Y268338D01*
X315709D02*
X316118Y268844D01*
Y265300*
X318982Y268338D02*
X318845Y268675D01*
X318436Y268844*
X318164*
X317755Y268675*
X317482Y268169*
X317345Y267325*
Y266481*
X317482Y265806*
X317755Y265469*
X318164Y265300*
X318300*
X318709Y265469*
X318982Y265806*
X319118Y266313*
X319118D02*
Y266481D01*
X318982Y266988*
X318982D02*
X318709Y267325D01*
X318300Y267494*
X318164*
X317755Y267325*
X317482Y266988*
X317482D02*
X317345Y266481D01*
X447300Y204844D02*
Y202312D01*
X447300D02*
X447436Y201806D01*
X447709Y201469*
X448118Y201300*
X448391*
X448800Y201469*
X449073Y201806*
X449209Y202312*
X449209D02*
Y204844D01*
X450436Y204169D02*
X450709Y204337D01*
X450709D02*
X451118Y204844D01*
Y201300*
X452618Y204844D02*
X454118D01*
X453300Y203494*
X453709*
X453982Y203325*
X454118Y203156*
X454255Y202650*
Y202312*
X454255D02*
X454118Y201806D01*
X453845Y201469*
X453436Y201300*
X453027*
X452618Y201469*
X452482Y201637*
X452482D02*
X452345Y201975D01*
X397300Y205844D02*
Y203312D01*
X397300D02*
X397436Y202806D01*
X397709Y202469*
X398118Y202300*
X398391*
X398800Y202469*
X399073Y202806*
X399209Y203312*
X399209D02*
Y205844D01*
X400436Y205169D02*
X400709Y205337D01*
X400709D02*
X401118Y205844D01*
Y202300*
X403709Y205844D02*
X402345Y203481D01*
X404391*
X403709Y205844D02*
Y202300D01*
X492844Y200700D02*
X489300D01*
X492844D02*
Y199473D01*
X492675Y199064*
X492506Y198927*
X492169Y198791*
X491831*
X491494Y198927*
X491325Y199064*
X491156Y199473*
Y200700*
Y199745D02*
X489300Y198791D01*
X492000Y197427D02*
X492169D01*
X492506Y197291*
X492675Y197155*
X492844Y196882*
Y196336*
X492675Y196064*
X492506Y195927*
X492169Y195791*
X491831*
X491494Y195927*
X490988Y196200*
X490988D02*
X489300Y197564D01*
Y195655*
X492844Y194155D02*
Y192655D01*
X491494Y193473*
Y193064*
X491325Y192791*
X491156Y192655*
X490650Y192518*
X490313*
X490313D02*
X489806Y192655D01*
X489469Y192927*
X489300Y193336*
Y193745*
X489469Y194155*
X489638Y194291*
X489638D02*
X489975Y194427D01*
X441300Y211844D02*
Y208300D01*
Y211844D02*
X442527D01*
X442936Y211675*
X443073Y211506*
X443209Y211169*
Y210831*
X443073Y210494*
X442936Y210325*
X442527Y210156*
X441300*
X442255D02*
X443209Y208300D01*
X446345Y211844D02*
X444982Y208300D01*
X444436Y211844D02*
X446345D01*
X433300Y181844D02*
Y178300D01*
Y181844D02*
X434527D01*
X434936Y181675*
X435073Y181506*
X435209Y181169*
Y180831*
X435073Y180494*
X434936Y180325*
X434527Y180156*
X433300*
X434255D02*
X435209Y178300D01*
X438209Y180663D02*
X438073Y180156D01*
X437800Y179819*
X437391Y179650*
X437255*
X436845Y179819*
X436573Y180156*
X436436Y180663*
X436436D02*
Y180831D01*
X436573Y181338*
X436573D02*
X436845Y181675D01*
X437255Y181844*
X437391*
X437800Y181675*
X438073Y181338*
X438073D02*
X438209Y180663D01*
X438209D02*
Y179819D01*
X438073Y178975*
X437800Y178469*
X437391Y178300*
X437118*
X436709Y178469*
X436573Y178806*
X478300Y214844D02*
Y211300D01*
Y214844D02*
X479527D01*
X479936Y214675*
X480073Y214506*
X480209Y214169*
Y213831*
X480073Y213494*
X479936Y213325*
X479527Y213156*
X478300*
X479255D02*
X480209Y211300D01*
X481573Y214000D02*
Y214169D01*
X481709Y214506*
X481845Y214675*
X482118Y214844*
X482664*
X482936Y214675*
X483073Y214506*
X483209Y214169*
Y213831*
X483073Y213494*
X482800Y212988*
X482800D02*
X481436Y211300D01*
X483345*
X485936Y214844D02*
X484573Y212481D01*
X486618*
X485936Y214844D02*
Y211300D01*
X441156Y193300D02*
X444700D01*
X441156D02*
Y194527D01*
X441325Y194936*
X441494Y195073*
X441831Y195209*
X442169*
X442506Y195073*
X442675Y194936*
X442844Y194527*
Y193300*
Y194255D02*
X444700Y195209D01*
X442000Y196573D02*
X441831D01*
X441494Y196709*
X441325Y196845*
X441156Y197118*
Y197664*
X441325Y197936*
X441494Y198073*
X441831Y198209*
X442169*
X442506Y198073*
X443012Y197800*
X443012D02*
X444700Y196436D01*
Y198345*
X441156Y201345D02*
Y199982D01*
X442675Y199845*
X442506Y199982*
X442337Y200391*
X442337D02*
Y200800D01*
X442337D02*
X442506Y201209D01*
X442844Y201482*
X443350Y201618*
X443687Y201482*
X443687D02*
X444194Y201345D01*
X444531Y201073*
X444700Y200664*
Y200255*
X444531Y199845*
X444362Y199709*
X444362D02*
X444025Y199573D01*
X443300Y167844D02*
Y164300D01*
Y167844D02*
X444527D01*
X444936Y167675*
X445073Y167506*
X445209Y167169*
Y166831*
X445073Y166494*
X444936Y166325*
X444527Y166156*
X443300*
X444255D02*
X445209Y164300D01*
X446573Y167000D02*
Y167169D01*
X446709Y167506*
X446845Y167675*
X447118Y167844*
X447664*
X447936Y167675*
X448073Y167506*
X448209Y167169*
Y166831*
X448073Y166494*
X447800Y165988*
X447800D02*
X446436Y164300D01*
X448345*
X451209Y167338D02*
X451073Y167675D01*
X450664Y167844*
X450391*
X449982Y167675*
X449709Y167169*
X449573Y166325*
Y165481*
X449709Y164806*
X449982Y164469*
X450391Y164300*
X450527*
X450936Y164469*
X451209Y164806*
X451345Y165313*
X451345D02*
Y165481D01*
X451209Y165988*
X451209D02*
X450936Y166325D01*
X450527Y166494*
X450391*
X449982Y166325*
X449709Y165988*
X449709D02*
X449573Y165481D01*
X429300Y215844D02*
Y212300D01*
Y215844D02*
X430527D01*
X430936Y215675*
X431073Y215506*
X431209Y215169*
Y214831*
X431073Y214494*
X430936Y214325*
X430527Y214156*
X429300*
X430255D02*
X431209Y212300D01*
X432573Y215000D02*
Y215169D01*
X432709Y215506*
X432845Y215675*
X433118Y215844*
X433664*
X433936Y215675*
X434073Y215506*
X434209Y215169*
Y214831*
X434073Y214494*
X433800Y213988*
X433800D02*
X432436Y212300D01*
X434345*
X437482Y215844D02*
X436118Y212300D01*
X435573Y215844D02*
X437482D01*
X388300Y196844D02*
Y193300D01*
Y196844D02*
X389527D01*
X389936Y196675*
X390073Y196506*
X390209Y196169*
Y195831*
X390073Y195494*
X389936Y195325*
X389527Y195156*
X388300*
X389255D02*
X390209Y193300D01*
X391573Y196000D02*
Y196169D01*
X391709Y196506*
X391845Y196675*
X392118Y196844*
X392664*
X392936Y196675*
X393073Y196506*
X393209Y196169*
Y195831*
X393073Y195494*
X392800Y194987*
X392800D02*
X391436Y193300D01*
X393345*
X395255Y196844D02*
X394845Y196675D01*
X394709Y196337*
X394709D02*
Y196000D01*
X394845Y195662*
X394845D02*
X395118Y195494D01*
X395664Y195325*
X396073Y195156*
X396345Y194819*
X396482Y194481*
Y193975*
X396345Y193637*
X396345D02*
X396209Y193469D01*
X395800Y193300*
X395255*
X394845Y193469*
X394709Y193637*
X394709D02*
X394573Y193975D01*
Y194481*
X394709Y194819*
X394982Y195156*
X395391Y195325*
X395936Y195494*
X396209Y195662*
X396209D02*
X396345Y196000D01*
Y196337*
X396345D02*
X396209Y196675D01*
X395800Y196844*
X395255*
X388300Y183844D02*
Y180300D01*
Y183844D02*
X389527D01*
X389936Y183675*
X390073Y183506*
X390209Y183169*
Y182831*
X390073Y182494*
X389936Y182325*
X389527Y182156*
X388300*
X389255D02*
X390209Y180300D01*
X391573Y183000D02*
Y183169D01*
X391709Y183506*
X391845Y183675*
X392118Y183844*
X392664*
X392936Y183675*
X393073Y183506*
X393209Y183169*
Y182831*
X393073Y182494*
X392800Y181987*
X392800D02*
X391436Y180300D01*
X393345*
X396345Y182662D02*
X396209Y182156D01*
X395936Y181819*
X395527Y181650*
X395391*
X394982Y181819*
X394709Y182156*
X394573Y182662*
X394573D02*
Y182831D01*
X394709Y183337*
X394709D02*
X394982Y183675D01*
X395391Y183844*
X395527*
X395936Y183675*
X396209Y183337*
X396209D02*
X396345Y182662D01*
X396345D02*
Y181819D01*
X396209Y180975*
X395936Y180469*
X395527Y180300*
X395255*
X394845Y180469*
X394709Y180806*
X299345Y219000D02*
X299209Y219338D01*
X299209D02*
X298936Y219675D01*
X298664Y219844*
X298118*
X297845Y219675*
X297573Y219338*
X297573D02*
X297436Y219000D01*
X297300Y218494*
Y217650*
X297436Y217144*
X297573Y216806*
X297845Y216469*
X298118Y216300*
X298664*
X298936Y216469*
X299209Y216806*
X299345Y217144*
X301255Y219844D02*
X300845Y219675D01*
X300709Y219338*
X300709D02*
Y219000D01*
X300845Y218663*
X300845D02*
X301118Y218494D01*
X301664Y218325*
X302073Y218156*
X302345Y217819*
X302482Y217481*
Y216975*
X302345Y216638*
X302345D02*
X302209Y216469D01*
X301800Y216300*
X301255*
X300845Y216469*
X300709Y216638*
X300709D02*
X300573Y216975D01*
Y217481*
X300709Y217819*
X300982Y218156*
X301391Y218325*
X301936Y218494*
X302209Y218663*
X302209D02*
X302345Y219000D01*
Y219338*
X302345D02*
X302209Y219675D01*
X301800Y219844*
X301255*
X305073D02*
X303709Y217481D01*
X305755*
X305073Y219844D02*
Y216300D01*
X337345Y231000D02*
X337209Y231338D01*
X337209D02*
X336936Y231675D01*
X336664Y231844*
X336118*
X335845Y231675*
X335573Y231338*
X335573D02*
X335436Y231000D01*
X335300Y230494*
Y229650*
X335436Y229144*
X335573Y228806*
X335845Y228469*
X336118Y228300*
X336664*
X336936Y228469*
X337209Y228806*
X337345Y229144*
X339255Y231844D02*
X338845Y231675D01*
X338709Y231338*
X338709D02*
Y231000D01*
X338845Y230663*
X338845D02*
X339118Y230494D01*
X339664Y230325*
X340073Y230156*
X340345Y229819*
X340482Y229481*
Y228975*
X340345Y228638*
X340345D02*
X340209Y228469D01*
X339800Y228300*
X339255*
X338845Y228469*
X338709Y228638*
X338709D02*
X338573Y228975D01*
Y229481*
X338709Y229819*
X338982Y230156*
X339391Y230325*
X339936Y230494*
X340209Y230663*
X340209D02*
X340345Y231000D01*
Y231338*
X340345D02*
X340209Y231675D01*
X339800Y231844*
X339255*
X343482D02*
X342118D01*
X341982Y230325*
X342118Y230494*
X342527Y230663*
X342527D02*
X342936D01*
X342936D02*
X343345Y230494D01*
X343618Y230156*
X343755Y229650*
X343618Y229313*
X343618D02*
X343482Y228806D01*
X343209Y228469*
X342800Y228300*
X342391*
X341982Y228469*
X341845Y228638*
X341845D02*
X341709Y228975D01*
X319345Y248000D02*
X319209Y248338D01*
X319209D02*
X318936Y248675D01*
X318664Y248844*
X318118*
X317845Y248675*
X317573Y248338*
X317573D02*
X317436Y248000D01*
X317300Y247494*
Y246650*
X317436Y246144*
X317573Y245806*
X317845Y245469*
X318118Y245300*
X318664*
X318936Y245469*
X319209Y245806*
X319345Y246144*
X321255Y248844D02*
X320845Y248675D01*
X320709Y248338*
X320709D02*
Y248000D01*
X320845Y247663*
X320845D02*
X321118Y247494D01*
X321664Y247325*
X322073Y247156*
X322345Y246819*
X322482Y246481*
Y245975*
X322345Y245638*
X322345D02*
X322209Y245469D01*
X321800Y245300*
X321255*
X320845Y245469*
X320709Y245638*
X320709D02*
X320573Y245975D01*
Y246481*
X320709Y246819*
X320982Y247156*
X321391Y247325*
X321936Y247494*
X322209Y247663*
X322209D02*
X322345Y248000D01*
Y248338*
X322345D02*
X322209Y248675D01*
X321800Y248844*
X321255*
X325345Y248338D02*
X325209Y248675D01*
X324800Y248844*
X324527*
X324118Y248675*
X323845Y248169*
X323709Y247325*
Y246481*
X323845Y245806*
X324118Y245469*
X324527Y245300*
X324664*
X325073Y245469*
X325345Y245806*
X325482Y246313*
X325482D02*
Y246481D01*
X325345Y246988*
X325345D02*
X325073Y247325D01*
X324664Y247494*
X324527*
X324118Y247325*
X323845Y246988*
X323845D02*
X323709Y246481D01*
X323345Y230000D02*
X323209Y230338D01*
X323209D02*
X322936Y230675D01*
X322664Y230844*
X322118*
X321845Y230675*
X321573Y230338*
X321573D02*
X321436Y230000D01*
X321300Y229494*
Y228650*
X321436Y228144*
X321573Y227806*
X321845Y227469*
X322118Y227300*
X322664*
X322936Y227469*
X323209Y227806*
X323345Y228144*
X325255Y230844D02*
X324845Y230675D01*
X324709Y230338*
X324709D02*
Y230000D01*
X324845Y229663*
X324845D02*
X325118Y229494D01*
X325664Y229325*
X326073Y229156*
X326345Y228819*
X326482Y228481*
Y227975*
X326345Y227638*
X326345D02*
X326209Y227469D01*
X325800Y227300*
X325255*
X324845Y227469*
X324709Y227638*
X324709D02*
X324573Y227975D01*
Y228481*
X324709Y228819*
X324982Y229156*
X325391Y229325*
X325936Y229494*
X326209Y229663*
X326209D02*
X326345Y230000D01*
Y230338*
X326345D02*
X326209Y230675D01*
X325800Y230844*
X325255*
X329618D02*
X328255Y227300D01*
X327709Y230844D02*
X329618D01*
X303345Y240000D02*
X303209Y240338D01*
X303209D02*
X302936Y240675D01*
X302664Y240844*
X302118*
X301845Y240675*
X301573Y240338*
X301573D02*
X301436Y240000D01*
X301300Y239494*
Y238650*
X301436Y238144*
X301573Y237806*
X301845Y237469*
X302118Y237300*
X302664*
X302936Y237469*
X303209Y237806*
X303345Y238144*
X305255Y240844D02*
X304845Y240675D01*
X304709Y240338*
X304709D02*
Y240000D01*
X304845Y239663*
X304845D02*
X305118Y239494D01*
X305664Y239325*
X306073Y239156*
X306345Y238819*
X306482Y238481*
Y237975*
X306345Y237638*
X306345D02*
X306209Y237469D01*
X305800Y237300*
X305255*
X304845Y237469*
X304709Y237638*
X304709D02*
X304573Y237975D01*
Y238481*
X304709Y238819*
X304982Y239156*
X305391Y239325*
X305936Y239494*
X306209Y239663*
X306209D02*
X306345Y240000D01*
Y240338*
X306345D02*
X306209Y240675D01*
X305800Y240844*
X305255*
X308391D02*
X307982Y240675D01*
X307845Y240338*
X307845D02*
Y240000D01*
X307982Y239663*
X307982D02*
X308255Y239494D01*
X308800Y239325*
X309209Y239156*
X309482Y238819*
X309618Y238481*
Y237975*
X309482Y237638*
X309482D02*
X309345Y237469D01*
X308936Y237300*
X308391*
X307982Y237469*
X307845Y237638*
X307845D02*
X307709Y237975D01*
Y238481*
X307845Y238819*
X308118Y239156*
X308527Y239325*
X309073Y239494*
X309345Y239663*
X309345D02*
X309482Y240000D01*
Y240338*
X309482D02*
X309345Y240675D01*
X308936Y240844*
X308391*
X339345Y238000D02*
X339209Y238338D01*
X338936Y238675*
X338664Y238844*
X338118*
X337845Y238675*
X337573Y238338*
X337436Y238000*
X337300Y237494*
Y236650*
X337436Y236144*
X337573Y235806*
X337845Y235469*
X338118Y235300*
X338664*
X338936Y235469*
X339209Y235806*
X339345Y236144*
X341255Y238844D02*
X340845Y238675D01*
X340709Y238338*
Y238000*
X340845Y237663*
X341118Y237494*
X341664Y237325*
X342073Y237156*
X342345Y236819*
X342482Y236481*
Y235975*
X342345Y235638*
X342209Y235469*
X341800Y235300*
X341255*
X340845Y235469*
X340709Y235638*
X340573Y235975*
Y236481*
X340709Y236819*
X340982Y237156*
X341391Y237325*
X341936Y237494*
X342209Y237663*
X342345Y238000*
Y238338*
X342209Y238675*
X341800Y238844*
X341255*
X345482Y237663D02*
X345345Y237156D01*
X345073Y236819*
X344664Y236650*
X344527*
X344118Y236819*
X343845Y237156*
X343709Y237663*
Y237831*
X343845Y238338*
X344118Y238675*
X344527Y238844*
X344664*
X345073Y238675*
X345345Y238338*
X345482Y237663*
Y236819*
X345345Y235975*
X345073Y235469*
X344664Y235300*
X344391*
X343982Y235469*
X343845Y235806*
X336345Y226000D02*
X336209Y226338D01*
X336209D02*
X335936Y226675D01*
X335664Y226844*
X335118*
X334845Y226675*
X334573Y226338*
X334573D02*
X334436Y226000D01*
X334300Y225494*
Y224650*
X334436Y224144*
X334573Y223806*
X334845Y223469*
X335118Y223300*
X335664*
X335936Y223469*
X336209Y223806*
X336345Y224144*
X337709Y226000D02*
Y226169D01*
X337845Y226506*
X337982Y226675*
X338255Y226844*
X338800*
X339073Y226675*
X339209Y226506*
X339345Y226169*
Y225831*
X339209Y225494*
X338936Y224988*
X338936D02*
X337573Y223300D01*
X339482*
X342345Y226338D02*
X342209Y226675D01*
X341800Y226844*
X341527*
X341118Y226675*
X340845Y226169*
X340709Y225325*
Y224481*
X340845Y223806*
X341118Y223469*
X341527Y223300*
X341664*
X342073Y223469*
X342345Y223806*
X342482Y224313*
X342482D02*
Y224481D01*
X342345Y224988*
X342345D02*
X342073Y225325D01*
X341664Y225494*
X341527*
X341118Y225325*
X340845Y224988*
X340845D02*
X340709Y224481D01*
X299345Y213000D02*
X299209Y213338D01*
X299209D02*
X298936Y213675D01*
X298664Y213844*
X298118*
X297845Y213675*
X297573Y213338*
X297573D02*
X297436Y213000D01*
X297300Y212494*
Y211650*
X297436Y211144*
X297573Y210806*
X297845Y210469*
X298118Y210300*
X298664*
X298936Y210469*
X299209Y210806*
X299345Y211144*
X300709Y213000D02*
Y213169D01*
X300845Y213506*
X300982Y213675*
X301255Y213844*
X301800*
X302073Y213675*
X302209Y213506*
X302345Y213169*
Y212831*
X302209Y212494*
X301936Y211988*
X301936D02*
X300573Y210300D01*
X302482*
X305618Y213844D02*
X304255Y210300D01*
X303709Y213844D02*
X305618D01*
X350300Y174844D02*
Y171300D01*
Y174844D02*
X351527D01*
X351936Y174675*
X352073Y174506*
X352209Y174169*
Y173831*
X352073Y173494*
X351936Y173325*
X351527Y173156*
X350300*
X351255D02*
X352209Y171300D01*
X353709Y174844D02*
X355209D01*
X354391Y173494*
X354800*
X355073Y173325*
X355209Y173156*
X355345Y172650*
Y172313*
X355209Y171806*
X354936Y171469*
X354527Y171300*
X354118*
X353709Y171469*
X353573Y171638*
X353436Y171975*
X357391Y174844D02*
X356982Y174675D01*
X356709Y174169*
X356573Y173325*
Y172819*
X356709Y171975*
X356982Y171469*
X357391Y171300*
X357664*
X358073Y171469*
X358345Y171975*
X358482Y172819*
Y173325*
X358345Y174169*
X358073Y174675*
X357664Y174844*
X357391*
X317300Y170844D02*
Y167300D01*
Y170844D02*
X318527D01*
X318936Y170675*
X319073Y170506*
X319209Y170169*
Y169831*
X319073Y169494*
X318936Y169325*
X318527Y169156*
X317300*
X318255D02*
X319209Y167300D01*
X320709Y170844D02*
X322209D01*
X321391Y169494*
X321800*
X322073Y169325*
X322209Y169156*
X322345Y168650*
Y168313*
X322345D02*
X322209Y167806D01*
X321936Y167469*
X321527Y167300*
X321118*
X320709Y167469*
X320573Y167638*
X320573D02*
X320436Y167975D01*
X323573Y170169D02*
X323845Y170338D01*
X323845D02*
X324255Y170844D01*
Y167300*
X317300Y164844D02*
Y161300D01*
Y164844D02*
X318527D01*
X318936Y164675*
X319073Y164506*
X319209Y164169*
Y163831*
X319073Y163494*
X318936Y163325*
X318527Y163156*
X317300*
X318255D02*
X319209Y161300D01*
X320709Y164844D02*
X322209D01*
X321391Y163494*
X321800*
X322073Y163325*
X322209Y163156*
X322345Y162650*
Y162313*
X322345D02*
X322209Y161806D01*
X321936Y161469*
X321527Y161300*
X321118*
X320709Y161469*
X320573Y161638*
X320573D02*
X320436Y161975D01*
X323845Y164844D02*
X325345D01*
X324527Y163494*
X324936*
X325209Y163325*
X325345Y163156*
X325482Y162650*
Y162313*
X325482D02*
X325345Y161806D01*
X325073Y161469*
X324664Y161300*
X324255*
X323845Y161469*
X323709Y161638*
X323709D02*
X323573Y161975D01*
X350300Y198844D02*
Y195300D01*
Y198844D02*
X351527D01*
X351936Y198675*
X352073Y198506*
X352209Y198169*
Y197831*
X352073Y197494*
X351936Y197325*
X351527Y197156*
X350300*
X351255D02*
X352209Y195300D01*
X355073Y198338D02*
X354936Y198675D01*
X354527Y198844*
X354255*
X353845Y198675*
X353573Y198169*
X353436Y197325*
Y196481*
X353573Y195806*
X353845Y195469*
X354255Y195300*
X354391*
X354800Y195469*
X355073Y195806*
X355209Y196313*
Y196481*
X355073Y196988*
X354800Y197325*
X354391Y197494*
X354255*
X353845Y197325*
X353573Y196988*
X353436Y196481*
X321300Y224844D02*
Y221300D01*
Y224844D02*
X322527D01*
X322936Y224675*
X323073Y224506*
X323209Y224169*
Y223831*
X323073Y223494*
X322936Y223325*
X322527Y223156*
X321300*
X322255D02*
X323209Y221300D01*
X324709Y224844D02*
X326209D01*
X325391Y223494*
X325800*
X326073Y223325*
X326209Y223156*
X326345Y222650*
Y222313*
X326345D02*
X326209Y221806D01*
X325936Y221469*
X325527Y221300*
X325118*
X324709Y221469*
X324573Y221638*
X324573D02*
X324436Y221975D01*
X328936Y224844D02*
X327573Y222481D01*
X329618*
X328936Y224844D02*
Y221300D01*
X352300Y208844D02*
Y205300D01*
Y208844D02*
X353527D01*
X353936Y208675*
X354073Y208506*
X354209Y208169*
Y207831*
X354073Y207494*
X353936Y207325*
X353527Y207156*
X352300*
X353255D02*
X354209Y205300D01*
X355709Y208844D02*
X357209D01*
X356391Y207494*
X356800*
X357073Y207325*
X357209Y207156*
X357345Y206650*
Y206313*
X357209Y205806*
X356936Y205469*
X356527Y205300*
X356118*
X355709Y205469*
X355573Y205638*
X355436Y205975*
X360345Y208844D02*
X358982D01*
X358845Y207325*
X358982Y207494*
X359391Y207663*
X359800*
X360209Y207494*
X360482Y207156*
X360618Y206650*
X360482Y206313*
X360345Y205806*
X360073Y205469*
X359664Y205300*
X359255*
X358845Y205469*
X358709Y205638*
X358573Y205975*
X331300Y176844D02*
Y173300D01*
Y176844D02*
X332527D01*
X332936Y176675*
X333073Y176506*
X333209Y176169*
Y175831*
X333073Y175494*
X332936Y175325*
X332527Y175156*
X331300*
X332255D02*
X333209Y173300D01*
X334709Y176844D02*
X336209D01*
X335391Y175494*
X335800*
X336073Y175325*
X336209Y175156*
X336345Y174650*
Y174313*
X336345D02*
X336209Y173806D01*
X335936Y173469*
X335527Y173300*
X335118*
X334709Y173469*
X334573Y173638*
X334573D02*
X334436Y173975D01*
X339209Y176338D02*
X339073Y176675D01*
X338664Y176844*
X338391*
X337982Y176675*
X337709Y176169*
X337573Y175325*
Y174481*
X337709Y173806*
X337982Y173469*
X338391Y173300*
X338527*
X338936Y173469*
X339209Y173806*
X339345Y174313*
X339345D02*
Y174481D01*
X339209Y174988*
X339209D02*
X338936Y175325D01*
X338527Y175494*
X338391*
X337982Y175325*
X337709Y174988*
X337709D02*
X337573Y174481D01*
X292300Y182844D02*
Y179300D01*
Y182844D02*
X293527D01*
X293936Y182675*
X294073Y182506*
X294209Y182169*
Y181831*
X294073Y181494*
X293936Y181325*
X293527Y181156*
X292300*
X293255D02*
X294209Y179300D01*
X295709Y182844D02*
X297209D01*
X296391Y181494*
X296800*
X297073Y181325*
X297209Y181156*
X297345Y180650*
Y180313*
X297345D02*
X297209Y179806D01*
X296936Y179469*
X296527Y179300*
X296118*
X295709Y179469*
X295573Y179638*
X295573D02*
X295436Y179975D01*
X300482Y182844D02*
X299118Y179300D01*
X298573Y182844D02*
X300482D01*
X217300Y129844D02*
Y126300D01*
Y129844D02*
X218527D01*
X218936Y129675*
X219073Y129506*
X219209Y129169*
Y128831*
X219073Y128494*
X218936Y128325*
X218527Y128156*
X217300*
X218255D02*
X219209Y126300D01*
X220709Y129844D02*
X222209D01*
X221391Y128494*
X221800*
X222073Y128325*
X222209Y128156*
X222345Y127650*
Y127313*
X222345D02*
X222209Y126806D01*
X221936Y126469*
X221527Y126300*
X221118*
X220709Y126469*
X220573Y126638*
X220573D02*
X220436Y126975D01*
X224255Y129844D02*
X223845Y129675D01*
X223709Y129338*
X223709D02*
Y129000D01*
X223845Y128663*
X223845D02*
X224118Y128494D01*
X224664Y128325*
X225073Y128156*
X225345Y127819*
X225482Y127481*
Y126975*
X225345Y126638*
X225345D02*
X225209Y126469D01*
X224800Y126300*
X224255*
X223845Y126469*
X223709Y126638*
X223709D02*
X223573Y126975D01*
Y127481*
X223709Y127819*
X223982Y128156*
X224391Y128325*
X224936Y128494*
X225209Y128663*
X225209D02*
X225345Y129000D01*
Y129338*
X225345D02*
X225209Y129675D01*
X224800Y129844*
X224255*
X117345Y173000D02*
X117209Y173338D01*
X117209D02*
X116936Y173675D01*
X116664Y173844*
X116118*
X115845Y173675*
X115573Y173338*
X115573D02*
X115436Y173000D01*
X115300Y172494*
Y171650*
X115436Y171144*
X115573Y170806*
X115845Y170469*
X116118Y170300*
X116664*
X116936Y170469*
X117209Y170806*
X117345Y171144*
X120345Y172663D02*
X120209Y172156D01*
X119936Y171819*
X119527Y171650*
X119391*
X118982Y171819*
X118709Y172156*
X118573Y172663*
X118573D02*
Y172831D01*
X118709Y173338*
X118709D02*
X118982Y173675D01*
X119391Y173844*
X119527*
X119936Y173675*
X120209Y173338*
X120209D02*
X120345Y172663D01*
X120345D02*
Y171819D01*
X120209Y170975*
X119936Y170469*
X119527Y170300*
X119255*
X118845Y170469*
X118709Y170806*
X122391Y173844D02*
X121982Y173675D01*
X121709Y173169*
X121573Y172325*
Y171819*
X121709Y170975*
X121982Y170469*
X122391Y170300*
X122664*
X123073Y170469*
X123345Y170975*
X123482Y171819*
Y172325*
X123345Y173169*
X123073Y173675*
X122664Y173844*
X122391*
X166345Y169000D02*
X166209Y169338D01*
X166209D02*
X165936Y169675D01*
X165664Y169844*
X165118*
X164845Y169675*
X164573Y169338*
X164573D02*
X164436Y169000D01*
X164300Y168494*
Y167650*
X164436Y167144*
X164573Y166806*
X164845Y166469*
X165118Y166300*
X165664*
X165936Y166469*
X166209Y166806*
X166345Y167144*
X169345Y168663D02*
X169209Y168156D01*
X168936Y167819*
X168527Y167650*
X168391*
X167982Y167819*
X167709Y168156*
X167573Y168663*
X167573D02*
Y168831D01*
X167709Y169338*
X167709D02*
X167982Y169675D01*
X168391Y169844*
X168527*
X168936Y169675*
X169209Y169338*
X169209D02*
X169345Y168663D01*
X169345D02*
Y167819D01*
X169209Y166975*
X168936Y166469*
X168527Y166300*
X168255*
X167845Y166469*
X167709Y166806*
X170573Y169169D02*
X170845Y169338D01*
X170845D02*
X171255Y169844D01*
Y166300*
X110300Y149844D02*
Y146300D01*
X111936*
X113164Y149169D02*
X113436Y149338D01*
X113436D02*
X113845Y149844D01*
Y146300*
X116436Y149844D02*
X115073Y147481D01*
X117118*
X116436Y149844D02*
Y146300D01*
X142300Y214844D02*
Y212313D01*
X142300D02*
X142436Y211806D01*
X142709Y211469*
X143118Y211300*
X143391*
X143800Y211469*
X144073Y211806*
X144209Y212313*
X144209D02*
Y214844D01*
X145709D02*
X147209D01*
X146391Y213494*
X146800*
X147073Y213325*
X147209Y213156*
X147345Y212650*
Y212313*
X147345D02*
X147209Y211806D01*
X146936Y211469*
X146527Y211300*
X146118*
X145709Y211469*
X145573Y211638*
X145573D02*
X145436Y211975D01*
X134209Y266338D02*
X133936Y266675D01*
X133527Y266844*
X132982*
X132573Y266675*
X132300Y266338*
X132300D02*
Y266000D01*
X132436Y265663*
X132436D02*
X132573Y265494D01*
X132845Y265325*
X133664Y264988*
X133664D02*
X133936Y264819D01*
X134073Y264650*
X134209Y264313*
X134209D02*
Y263806D01*
X133936Y263469*
X133527Y263300*
X132982*
X132573Y263469*
X132300Y263806*
X135436Y266169D02*
X135709Y266338D01*
X135709D02*
X136118Y266844D01*
Y263300*
X389118Y170434D02*
X388845Y170266D01*
X388573Y169928*
X388436Y169591*
X388300Y169084*
Y168241*
X388436Y167734*
X388573Y167397*
X388845Y167059*
X389118Y166891*
X389664*
X389936Y167059*
X390209Y167397*
X390345Y167734*
X390482Y168241*
Y169084*
X390345Y169591*
X390209Y169928*
X389936Y170266*
X389664Y170434*
X389118*
X389527Y167566D02*
X390345Y166553D01*
X392391Y170434D02*
X391982Y170266D01*
X391845Y169928*
Y169591*
X391982Y169253*
X392255Y169084*
X392800Y168916*
X393209Y168747*
X393482Y168409*
X393618Y168072*
Y167566*
X393482Y167228*
X393345Y167059*
X392936Y166891*
X392391*
X391982Y167059*
X391845Y167228*
X391709Y167566*
Y168072*
X391845Y168409*
X392118Y168747*
X392527Y168916*
X393073Y169084*
X393345Y169253*
X393482Y169591*
Y169928*
X393345Y170266*
X392936Y170434*
X392391*
G74*
X0Y0D02*
M02*
