*
*
G04 PADS9.1 Build Number: 384028 generated Gerber (RS-274-X) file*
G04 PC Version=2.1*
*
%IN "PSDR_Encoder.pcb"*%
*
%MOIN*%
*
%FSLAX35Y35*%
*
*
*
*
G04 PC Standard Apertures*
*
*
G04 Thermal Relief Aperture macro.*
%AMTER*
1,1,$1,0,0*
1,0,$1-$2,0,0*
21,0,$3,$4,0,0,45*
21,0,$3,$4,0,0,135*
%
*
*
G04 Annular Aperture macro.*
%AMANN*
1,1,$1,0,0*
1,0,$2,0,0*
%
*
*
G04 Odd Aperture macro.*
%AMODD*
1,1,$1,0,0*
1,0,$1-0.005,0,0*
%
*
*
G04 PC Custom Aperture Macros*
*
*
*
*
*
*
G04 PC Aperture Table*
*
%ADD010C,0.01*%
%ADD011C,0.008*%
%ADD037C,0.015*%
%ADD042C,0.001*%
%ADD048C,0.07*%
%ADD149C,0.032*%
%ADD152C,0.063*%
%ADD165C,0.2*%
*
*
*
*
G04 PC Circuitry*
G04 Layer Name PSDR_Encoder.pcb - circuitry*
%LPD*%
*
*
G04 PC Custom Flashes*
G04 Layer Name PSDR_Encoder.pcb - flashes*
%LPD*%
*
*
G04 PC Circuitry*
G04 Layer Name PSDR_Encoder.pcb - circuitry*
%LPD*%
*
G54D10*
G01X450322Y320472D02*
G75*
G03X450322I-4850J0D01*
G01X474929Y330315D02*
G03X474929I-4850J0D01*
G01X491801Y312598D02*
Y348031D01*
G03X485827Y354005I-5974J0*
G01X431021*
X430363Y333800D02*
G03X431021Y354005I-5560J10294D01*
G01X430363Y333800D02*
X435230D01*
X440704Y339274*
X443228Y335858D02*
G03X440704Y339274I2244J4299D01*
G01X443228Y335858D02*
X439470Y332100D01*
X459051*
X465502Y338551*
X468472Y335581D02*
G03X465502Y338551I1607J4576D01*
G01X468472Y335581D02*
X462231Y329339D01*
X467197Y324373*
X465229Y320401D02*
G03X467197Y324373I4850J71D01*
G01X465229Y320401D02*
X459330Y326300D01*
X417600*
X416115Y326915D02*
G03X417600Y326300I1485J1485D01*
G01X416115Y326915D02*
X403130Y339900D01*
X378175*
X371775Y341500D02*
G03X378175Y339900I3225J-700D01*
G01X371775Y341500D02*
X368262D01*
X361889Y343100D02*
G03X368262Y341500I3111J-1100D01*
G01X361889Y343100D02*
X359800D01*
X358315Y343715D02*
G03X359800Y343100I1485J1485D01*
G01X358315Y343715D02*
X356879Y345151D01*
X350000Y348572D02*
G03X356879Y345151I5000J1428D01*
G01X340730Y352968D02*
G03X350000Y348572I4270J-2968D01*
G01X340730Y352968D02*
G03X338120Y348031I3364J-4937D01*
G01Y340157*
G03X344094Y334183I5974J0*
G01X403825*
X410736Y331321D02*
G03X403825Y334183I-6911J-6912D01*
G01X410736Y331321D02*
X433683Y308374D01*
G03X437907Y306624I4224J4224*
G01X485827*
G03X491801Y312598I-0J5974*
G01X418585Y354005D02*
G03X413953Y339717I6218J-9911D01*
G01X418585Y354005D02*
X378316D01*
X379444Y347300D02*
G03X378316Y354005I-4444J2700D01*
G01X379444Y347300D02*
X405500D01*
X406985Y346685D02*
G03X405500Y347300I-1485J-1485D01*
G01X406985Y346685D02*
X413953Y339717D01*
X450322Y320472D02*
G03X450322I-4850J0D01*
G01X474929Y330315D02*
G03X474929I-4850J0D01*
G01X378956Y353375D02*
X417678D01*
X379573Y352475D02*
X416639D01*
X379956Y351575D02*
X415807D01*
X380156Y350675D02*
X415129D01*
X380195Y349775D02*
X414575D01*
X380077Y348875D02*
X414124D01*
X413795Y339875D02*
X413890D01*
X379790Y347975D02*
X413765D01*
X412895Y340775D02*
X413584D01*
X406446Y347075D02*
X413489D01*
X411995Y341675D02*
X413356D01*
X407495Y346175D02*
X413290D01*
X411095Y342575D02*
X413202D01*
X408395Y345275D02*
X413163D01*
X410195Y343475D02*
X413120D01*
X409295Y344375D02*
X413106D01*
X435841Y347975D02*
X491801D01*
X436117Y347075D02*
X491801D01*
X436317Y346175D02*
X491801D01*
X436443Y345275D02*
X491801D01*
X472473Y344375D02*
X491801D01*
X473617Y343475D02*
X491801D01*
X474283Y342575D02*
X491801D01*
X474685Y341675D02*
X491801D01*
X474889Y340775D02*
X491801D01*
X474921Y339875D02*
X491801D01*
X474782Y338975D02*
X491801D01*
X474459Y338075D02*
X491801D01*
X473903Y337175D02*
X491801D01*
X472986Y336275D02*
X491801D01*
X470886Y335375D02*
X491801D01*
X472572Y334475D02*
X491801D01*
X473670Y333575D02*
X491801D01*
X474316Y332675D02*
X491801D01*
X474704Y331775D02*
X491801D01*
X474896Y330875D02*
X491801D01*
X474917Y329975D02*
X491801D01*
X474768Y329075D02*
X491801D01*
X474431Y328175D02*
X491801D01*
X473858Y327275D02*
X491801D01*
X472907Y326375D02*
X491801D01*
X470392Y325475D02*
X491801D01*
X472665Y324575D02*
X491801D01*
X473721Y323675D02*
X491801D01*
X474347Y322775D02*
X491801D01*
X474722Y321875D02*
X491801D01*
X474903Y320975D02*
X491801D01*
X474912Y320075D02*
X491801D01*
X474752Y319175D02*
X491801D01*
X474402Y318275D02*
X491801D01*
X473811Y317375D02*
X491801D01*
X472825Y316475D02*
X491801D01*
X426482Y315575D02*
X491801D01*
X427382Y314675D02*
X491801D01*
X428282Y313775D02*
X491801D01*
X429182Y312875D02*
X491801D01*
X430082Y311975D02*
X491768D01*
X435482Y348875D02*
X491741D01*
X430982Y311075D02*
X491603D01*
X435032Y349775D02*
X491541D01*
X431882Y310175D02*
X491287D01*
X434477Y350675D02*
X491184D01*
X432782Y309275D02*
X490791D01*
X433799Y351575D02*
X490636D01*
X433682Y308375D02*
X490052D01*
X432967Y352475D02*
X489820D01*
X434835Y307475D02*
X488899D01*
X431928Y353375D02*
X488498D01*
X466095Y325475D02*
X469765D01*
X468266Y335375D02*
X469272D01*
X447867Y344375D02*
X467684D01*
X467366Y334475D02*
X467586D01*
X466995Y324575D02*
X467492D01*
X448219Y316475D02*
X467332D01*
X465195Y326375D02*
X467250D01*
X449010Y343475D02*
X466541D01*
X466466Y333575D02*
X466488D01*
X449205Y317375D02*
X466347D01*
X464295Y327275D02*
X466300D01*
X449677Y342575D02*
X465874D01*
X465566Y332675D02*
X465842D01*
X449796Y318275D02*
X465755D01*
X463395Y328175D02*
X465726D01*
X450079Y341675D02*
X465472D01*
X464666Y331775D02*
X465454D01*
X450146Y319175D02*
X465405D01*
X462495Y329075D02*
X465390D01*
X450176Y338975D02*
X465375D01*
X450283Y340775D02*
X465268D01*
X463766Y330875D02*
X465261D01*
X450306Y320075D02*
X465245D01*
X462866Y329975D02*
X465241D01*
X450314Y339875D02*
X465237D01*
X449853Y338075D02*
X465026D01*
X450296Y320975D02*
X464655D01*
X449297Y337175D02*
X464126D01*
X450115Y321875D02*
X463755D01*
X448379Y336275D02*
X463226D01*
X449741Y322775D02*
X462855D01*
X446279Y335375D02*
X462326D01*
X449115Y323675D02*
X461955D01*
X441845Y334475D02*
X461426D01*
X448059Y324575D02*
X461055D01*
X440945Y333575D02*
X460526D01*
X416582Y325475D02*
X460155D01*
X440045Y332675D02*
X459626D01*
X442745Y335375D02*
X444665D01*
X436500Y344375D02*
X443078D01*
X417482Y324575D02*
X442886D01*
X425582Y316475D02*
X442726D01*
X436487Y343475D02*
X441935D01*
X418382Y323675D02*
X441830D01*
X424682Y317375D02*
X441740D01*
X436404Y342575D02*
X441268D01*
X419282Y322775D02*
X441204D01*
X423782Y318275D02*
X441149D01*
X436250Y341675D02*
X440866D01*
X420182Y321875D02*
X440830D01*
X422882Y319175D02*
X440799D01*
X436022Y340775D02*
X440662D01*
X421082Y320975D02*
X440649D01*
X421982Y320075D02*
X440639D01*
X435716Y339875D02*
X440631D01*
X435324Y338975D02*
X440405D01*
X434836Y338075D02*
X439505D01*
X434238Y337175D02*
X438605D01*
X433506Y336275D02*
X437705D01*
X432605Y335375D02*
X436805D01*
X431463Y334475D02*
X435905D01*
X415682Y326375D02*
X417043D01*
X414782Y327275D02*
X415755D01*
X413882Y328175D02*
X414855D01*
X412982Y329075D02*
X413955D01*
X412082Y329975D02*
X413055D01*
X411182Y330875D02*
X412155D01*
X410250Y331775D02*
X411255D01*
X409042Y332675D02*
X410355D01*
X407220Y333575D02*
X409455D01*
X342251Y334475D02*
X408555D01*
X340514Y335375D02*
X407655D01*
X339554Y336275D02*
X406755D01*
X338918Y337175D02*
X405855D01*
X376861Y338075D02*
X404955D01*
X377750Y338975D02*
X404055D01*
X378168Y339875D02*
X403155D01*
X338495Y338075D02*
X373139D01*
X366319Y338975D02*
X372250D01*
X367525Y339875D02*
X371832D01*
X368064Y340775D02*
X371700D01*
X338239Y338975D02*
X363681D01*
X338127Y339875D02*
X362475D01*
X338120Y340775D02*
X361936D01*
X338120Y342575D02*
X361750D01*
X338120Y341675D02*
X361716D01*
X338120Y343475D02*
X358602D01*
X338120Y344375D02*
X357655D01*
X347171Y345275D02*
X352829D01*
X348523Y346175D02*
X351477D01*
X349299Y347075D02*
X350701D01*
X349790Y347975D02*
X350210D01*
X338120Y345275D02*
X342829D01*
X338120Y346175D02*
X341477D01*
X338120Y347075D02*
X340701D01*
X340102Y352475D02*
X340427D01*
X338120Y347975D02*
X340210D01*
X339285Y351575D02*
X340044D01*
X338180Y348875D02*
X339923D01*
X338737Y350675D02*
X339844D01*
X338381Y349775D02*
X339805D01*
G54D11*
X365000Y342000D02*
X366600Y343600D01*
X404800*
X418400Y330000*
X459921*
X470079Y340157*
X355000Y350000D02*
X359800Y345200D01*
X405500*
X419000Y331700*
X436100*
X444557Y340157*
X445472*
X375000Y340800D02*
X376200Y342000D01*
X404000*
X417600Y328400*
X460200*
X468000Y320600*
X469951*
X470079Y320472*
G54D37*
X433076Y352368D02*
X431874Y351166D01*
X433076Y335821D02*
X431874Y337023D01*
X416530Y352368D02*
X417732Y351166D01*
X341323Y346323D02*
X342525Y347525D01*
X348677Y346323D02*
X347475Y347525D01*
X473508Y326885D02*
X472306Y328088D01*
X466649Y326885D02*
X467851Y328088D01*
X466649Y333744D02*
X467851Y332542D01*
X473508Y333744D02*
X472306Y332542D01*
X448902Y317043D02*
X447700Y318245D01*
X442043Y317043D02*
X443245Y318245D01*
X442043Y323902D02*
X443245Y322700D01*
X448902Y323902D02*
X447700Y322700D01*
G54D42*
G54D48*
X365000Y350000D03*
X375000D03*
X355000D03*
X345000D03*
G54D149*
X365000Y342000D03*
X375000Y340800D03*
G54D152*
X470079Y340157D03*
Y320472D03*
Y330315D03*
X445472Y340157D03*
Y320472D03*
G54D165*
X424803Y344094D03*
G74*
X0Y0D02*
M02*
