*
*
G04 PADS9.1 Build Number: 384028 generated Gerber (RS-274-X) file*
G04 PC Version=2.1*
*
%IN "PSDR_Encoder.pcb"*%
*
%MOIN*%
*
%FSLAX35Y35*%
*
*
*
*
G04 PC Standard Apertures*
*
*
G04 Thermal Relief Aperture macro.*
%AMTER*
1,1,$1,0,0*
1,0,$1-$2,0,0*
21,0,$3,$4,0,0,45*
21,0,$3,$4,0,0,135*
%
*
*
G04 Annular Aperture macro.*
%AMANN*
1,1,$1,0,0*
1,0,$2,0,0*
%
*
*
G04 Odd Aperture macro.*
%AMODD*
1,1,$1,0,0*
1,0,$1-0.005,0,0*
%
*
*
G04 PC Custom Aperture Macros*
*
*
*
*
*
*
G04 PC Aperture Table*
*
%ADD010C,0.01*%
%ADD011C,0.008*%
%ADD037C,0.015*%
%ADD042C,0.001*%
%ADD048C,0.07*%
%ADD149C,0.032*%
%ADD152C,0.063*%
%ADD165C,0.2*%
*
*
*
*
G04 PC Circuitry*
G04 Layer Name PSDR_Encoder.pcb - circuitry*
%LPD*%
*
*
G04 PC Custom Flashes*
G04 Layer Name PSDR_Encoder.pcb - flashes*
%LPD*%
*
*
G04 PC Circuitry*
G04 Layer Name PSDR_Encoder.pcb - circuitry*
%LPD*%
*
G54D10*
G01X474929Y320472D02*
G75*
G03X474929I-4850J0D01*
G01Y330315D02*
G03X474929I-4850J0D01*
G01Y340157D02*
G03X474929I-4850J0D01*
G01X450322Y320472D02*
G03X450322I-4850J0D01*
G01Y340157D02*
G03X450322I-4850J0D01*
G01X491801Y312598D02*
Y348031D01*
G03X485827Y354005I-5974J0*
G01X431021*
X418585D02*
G03X431021I6218J-9911D01*
G01X418585D02*
X378316D01*
X377100Y345243D02*
G03X378316Y354005I-2100J4757D01*
G01X377100Y345243D02*
Y343346D01*
X372900D02*
G03X377100I2100J-2546D01*
G01X372900D02*
Y345243D01*
X370000Y348572D02*
G03X372900Y345243I5000J1428D01*
G01X367100D02*
G03X370000Y348572I-2100J4757D01*
G01X367100Y345243D02*
Y344546D01*
X362900D02*
G03X367100I2100J-2546D01*
G01X362900D02*
Y345243D01*
X360000Y348572D02*
G03X362900Y345243I5000J1428D01*
G01X350000Y348572D02*
G03X360000I5000J1428D01*
G01X340730Y352968D02*
G03X350000Y348572I4270J-2968D01*
G01X340730Y352968D02*
G03X338120Y348031I3364J-4937D01*
G01Y340157*
G03X344094Y334183I5974J0*
G01X403825*
X410736Y331321D02*
G03X403825Y334183I-6911J-6912D01*
G01X410736Y331321D02*
X433683Y308374D01*
G03X437907Y306624I4224J4224*
G01X485827*
G03X491801Y312598I-0J5974*
G01X474929Y320472D02*
G03X474929I-4850J0D01*
G01Y330315D02*
G03X474929I-4850J0D01*
G01Y340157D02*
G03X474929I-4850J0D01*
G01X450322Y320472D02*
G03X450322I-4850J0D01*
G01Y340157D02*
G03X450322I-4850J0D01*
G01X436055Y347301D02*
X491801D01*
X436274Y346401D02*
X491801D01*
X436418Y345501D02*
X491801D01*
X472022Y344601D02*
X491801D01*
X473390Y343701D02*
X491801D01*
X474145Y342801D02*
X491801D01*
X474605Y341901D02*
X491801D01*
X474855Y341001D02*
X491801D01*
X474928Y340101D02*
X491801D01*
X474834Y339201D02*
X491801D01*
X474559Y338301D02*
X491801D01*
X474069Y337401D02*
X491801D01*
X473265Y336501D02*
X491801D01*
X471741Y335601D02*
X491801D01*
X472149Y334701D02*
X491801D01*
X473451Y333801D02*
X491801D01*
X474182Y332901D02*
X491801D01*
X474626Y332001D02*
X491801D01*
X474865Y331101D02*
X491801D01*
X474927Y330201D02*
X491801D01*
X474822Y329301D02*
X491801D01*
X474535Y328401D02*
X491801D01*
X474029Y327501D02*
X491801D01*
X473198Y326601D02*
X491801D01*
X471574Y325701D02*
X491801D01*
X472266Y324801D02*
X491801D01*
X473509Y323901D02*
X491801D01*
X474217Y323001D02*
X491801D01*
X474647Y322101D02*
X491801D01*
X474874Y321201D02*
X491801D01*
X474926Y320301D02*
X491801D01*
X474809Y319401D02*
X491801D01*
X474510Y318501D02*
X491801D01*
X473987Y317601D02*
X491801D01*
X473128Y316701D02*
X491801D01*
X471383Y315801D02*
X491801D01*
X427156Y314901D02*
X491801D01*
X428056Y314001D02*
X491801D01*
X428956Y313101D02*
X491801D01*
X435759Y348201D02*
X491798D01*
X429856Y312201D02*
X491788D01*
X435378Y349101D02*
X491704D01*
X430756Y311301D02*
X491658D01*
X434903Y350001D02*
X491467D01*
X431656Y310401D02*
X491382D01*
X434320Y350901D02*
X491066D01*
X432556Y309501D02*
X490935D01*
X433607Y351801D02*
X490461D01*
X433456Y308601D02*
X490266D01*
X432729Y352701D02*
X489553D01*
X434486Y307701D02*
X489248D01*
X431623Y353601D02*
X487987D01*
X436465Y306801D02*
X487269D01*
X446777Y315801D02*
X468775D01*
X416356Y325701D02*
X468584D01*
X447134Y335601D02*
X468417D01*
X447416Y344601D02*
X468135D01*
X431778Y334701D02*
X468009D01*
X447660Y324801D02*
X467891D01*
X448522Y316701D02*
X467029D01*
X415456Y326601D02*
X466960D01*
X448659Y336501D02*
X466892D01*
X448784Y343701D02*
X466767D01*
X430365Y333801D02*
X466707D01*
X448903Y323901D02*
X466648D01*
X449381Y317601D02*
X466170D01*
X414556Y327501D02*
X466128D01*
X449463Y337401D02*
X466088D01*
X449539Y342801D02*
X466013D01*
X428209Y332901D02*
X465976D01*
X449611Y323001D02*
X465940D01*
X449904Y318501D02*
X465647D01*
X413656Y328401D02*
X465622D01*
X449953Y338301D02*
X465598D01*
X449998Y341901D02*
X465553D01*
X409981Y332001D02*
X465531D01*
X450041Y322101D02*
X465510D01*
X450203Y319401D02*
X465349D01*
X412756Y329301D02*
X465336D01*
X450227Y339201D02*
X465324D01*
X450249Y341001D02*
X465303D01*
X410956Y331101D02*
X465293D01*
X450267Y321201D02*
X465284D01*
X450319Y320301D02*
X465232D01*
X411856Y330201D02*
X465230D01*
X450322Y340101D02*
X465229D01*
X426256Y315801D02*
X444168D01*
X432850Y335601D02*
X443811D01*
X436492Y344601D02*
X443529D01*
X417256Y324801D02*
X443285D01*
X425356Y316701D02*
X442423D01*
X433704Y336501D02*
X442286D01*
X436497Y343701D02*
X442161D01*
X418156Y323901D02*
X442042D01*
X424456Y317601D02*
X441564D01*
X434399Y337401D02*
X441482D01*
X436431Y342801D02*
X441406D01*
X419056Y323001D02*
X441334D01*
X423556Y318501D02*
X441041D01*
X434968Y338301D02*
X440992D01*
X436296Y341901D02*
X440947D01*
X419956Y322101D02*
X440904D01*
X422656Y319401D02*
X440742D01*
X435431Y339201D02*
X440718D01*
X436087Y341001D02*
X440696D01*
X420856Y321201D02*
X440677D01*
X421756Y320301D02*
X440625D01*
X435801Y340101D02*
X440623D01*
X408665Y332901D02*
X421398D01*
X406532Y333801D02*
X419241D01*
X378751Y353601D02*
X417983D01*
X341662Y334701D02*
X417828D01*
X379443Y352701D02*
X416877D01*
X340231Y335601D02*
X416756D01*
X379878Y351801D02*
X416000D01*
X339370Y336501D02*
X415902D01*
X380121Y350901D02*
X415287D01*
X338794Y337401D02*
X415207D01*
X380200Y350001D02*
X414703D01*
X377155Y338301D02*
X414638D01*
X380122Y349101D02*
X414228D01*
X377887Y339201D02*
X414176D01*
X379879Y348201D02*
X413847D01*
X378225Y340101D02*
X413806D01*
X379445Y347301D02*
X413551D01*
X378294Y341001D02*
X413519D01*
X378753Y346401D02*
X413333D01*
X378111Y341901D02*
X413311D01*
X377608Y345501D02*
X413188D01*
X377624Y342801D02*
X413175D01*
X377100Y344601D02*
X413114D01*
X377100Y343701D02*
X413110D01*
X367100Y344601D02*
X372900D01*
X367828Y343701D02*
X372900D01*
X338416Y338301D02*
X372845D01*
X367608Y345501D02*
X372392D01*
X368201Y342801D02*
X372376D01*
X366748Y339201D02*
X372113D01*
X368299Y341901D02*
X371889D01*
X367699Y340101D02*
X371775D01*
X368145Y341001D02*
X371706D01*
X368753Y346401D02*
X371247D01*
X369445Y347301D02*
X370555D01*
X369879Y348201D02*
X370121D01*
X338198Y339201D02*
X363252D01*
X338120Y344601D02*
X362900D01*
X357608Y345501D02*
X362392D01*
X338121Y340101D02*
X362301D01*
X338120Y343701D02*
X362172D01*
X338120Y341001D02*
X361855D01*
X338120Y342801D02*
X361799D01*
X338120Y341901D02*
X361701D01*
X358753Y346401D02*
X361247D01*
X359445Y347301D02*
X360555D01*
X359879Y348201D02*
X360121D01*
X347608Y345501D02*
X352392D01*
X348753Y346401D02*
X351247D01*
X349445Y347301D02*
X350555D01*
X349879Y348201D02*
X350121D01*
X338120Y345501D02*
X342392D01*
X338120Y346401D02*
X341247D01*
X340368Y352701D02*
X340557D01*
X338120Y347301D02*
X340555D01*
X339460Y351801D02*
X340122D01*
X338123Y348201D02*
X340121D01*
X338855Y350901D02*
X339879D01*
X338217Y349101D02*
X339878D01*
X338454Y350001D02*
X339800D01*
G54D11*
X365000Y342000D02*
Y350000D01*
X375000Y340800D02*
Y350000D01*
X380400Y338000D02*
X357000D01*
X345000Y350000*
X380400Y338000D02*
X383800D01*
X389600Y343800*
X424509*
X424803Y344094*
X445472Y320472D02*
X435345Y330600D01*
Y333553*
X424803Y344094*
X424803*
X445472Y320472D02*
X448498Y323498D01*
X448498*
X455315Y330315*
X470079*
G54D37*
X433076Y352368D02*
X431874Y351166D01*
X416530Y352368D02*
X417732Y351166D01*
X416530Y335821D02*
X417732Y337023D01*
X433076Y335821D02*
X431874Y337023D01*
X341323Y346323D02*
X342525Y347525D01*
X348677Y346323D02*
X347475Y347525D01*
X473508Y326885D02*
X472306Y328088D01*
X466649Y326885D02*
X467851Y328088D01*
X466649Y333744D02*
X467851Y332542D01*
X473508Y333744D02*
X472306Y332542D01*
X448902Y317043D02*
X447700Y318245D01*
X442043Y317043D02*
X443245Y318245D01*
X442043Y323902D02*
X443245Y322700D01*
X448902Y323902D02*
X447700Y322700D01*
G54D42*
G54D48*
X365000Y350000D03*
X375000D03*
X355000D03*
X345000D03*
G54D149*
X365000Y342000D03*
X375000Y340800D03*
G54D152*
X470079Y340157D03*
Y320472D03*
Y330315D03*
X445472Y340157D03*
Y320472D03*
G54D165*
X424803Y344094D03*
G74*
X0Y0D02*
M02*
