% M48 INCH,LZ
T1C.014F095S300
X010660Y012530
X012000Y012000
X012200Y010600
X015600Y012000
X016000Y013000
X016400Y011600
X017400Y012600
X017600Y011800
X019000Y012000
X019000Y013000
X020000Y013000
X021000Y012200
X021800Y013000
X022000Y012200
X023200Y012400
X023600Y011800
X025500Y012500
X026000Y011600
X027000Y012000
X027000Y013000
X028000Y013000
X028990Y012520
X029570Y012520
X029800Y011800
X030800Y011800
X031620Y011760
X034200Y011800
X034200Y012600
X036000Y012800
X037000Y013000
X037000Y012000
X037000Y011000
X037800Y012200
X037800Y010800
X038000Y013000
X039000Y013000
X040000Y013000
X040000Y015000
X040000Y014000
X039000Y015000
X039000Y014000
X038000Y014000
X038000Y015000
X037000Y015000
X037000Y014000
X035060Y014050
X034340Y014040
X034340Y015060
X034240Y013550
X032500Y014300
X031900Y014900
X031228Y013403
X030280Y015550
X030270Y013750
X030240Y015040
X030240Y014250
X030000Y013200
X029540Y014180
X029540Y015460
X028800Y013800
X028000Y014000
X027000Y014000
X025500Y013500
X025500Y014500
X025000Y015410
X023040Y015410
X023000Y013200
X022800Y014000
X022000Y015000
X021000Y015000
X021000Y014000
X020000Y015000
X020000Y014000
X019000Y015000
X019000Y014000
X017000Y014000
X017000Y015000
X016800Y013200
X016000Y014000
X015200Y013600
X014000Y013800
X013800Y015000
X013300Y015000
X013000Y013800
X012800Y015000
X012110Y013660
X012110Y015010
X010600Y017200
X010620Y016080
X011900Y016590
X012200Y016200
X012400Y016600
X012600Y015700
X012600Y016200
X015400Y016600
X017200Y015800
X018300Y016270
X018880Y016270
X019000Y018000
X019400Y015800
X019600Y016600
X020000Y018000
X020600Y015800
X021000Y016600
X021000Y018000
X021600Y015800
X022000Y018000
X022200Y016600
X022760Y017070
X022780Y016270
X025040Y016290
X025160Y017070
X025360Y017810
X026000Y016000
X026000Y017000
X026800Y016200
X027110Y017000
X027150Y017610
X027510Y015880
X028700Y015880
X028850Y017610
X028990Y017000
X029380Y016560
X029380Y017330
X031690Y017100
X032170Y016740
X033230Y016860
X034300Y015650
X036000Y017000
X036200Y016200
X037000Y017000
X037000Y016000
X038000Y017000
X038000Y016000
X039000Y017000
X039000Y018000
X039000Y016000
X040000Y018000
X040000Y017000
X040000Y016000
X039000Y019800
X039000Y019000
X037000Y020400
X036800Y019200
X036800Y018200
X035600Y019400
X035600Y018200
X034000Y018200
X033020Y020200
X032940Y018280
X032940Y019160
X032210Y018310
X030720Y020300
X030620Y018640
X030620Y019260
X030200Y019800
X029360Y019840
X028680Y019840
X028660Y018960
X028000Y020000
X027150Y018960
X026500Y018500
X024400Y020200
X024400Y019200
X023020Y019140
X022000Y020000
X022000Y019000
X016950Y020350
X015860Y020350
X015200Y018400
X015200Y019200
X013600Y019400
X013600Y018400
X012500Y020300
X012000Y020000
X011800Y019200
X011600Y020300
X010600Y019600
X010600Y021400
X011600Y021000
X011900Y021330
X012000Y020600
X012500Y021300
X012500Y020800
X017800Y021600
X017800Y020600
X018000Y022290
X018610Y022290
X018800Y021600
X020370Y021850
X021200Y021600
X022000Y021000
X022210Y022280
X023110Y021650
X023390Y021360
X023670Y021650
X023950Y021360
X024230Y021650
X025650Y021900
X026480Y022290
X027000Y021000
X028000Y021800
X028500Y021000
X029000Y022000
X030510Y021240
X030510Y021810
X031050Y020910
X032850Y021710
X032860Y022600
X035470Y022600
X035520Y020600
X035550Y021710
X036200Y021200
X036990Y022390
X038370Y020670
X038800Y022790
X039210Y021850
X039210Y023440
X039210Y024810
X037360Y024140
X037100Y023500
X035340Y023880
X034200Y024340
X033190Y024090
X031620Y023910
X031620Y024700
X031460Y023410
X031000Y023380
X030680Y025390
X030680Y023670
X029140Y024430
X028480Y025490
X028420Y024340
X027850Y023450
X027480Y024240
X027480Y023110
X027050Y024450
X026480Y023330
X026480Y024130
X026000Y023400
X025970Y024800
X025150Y024820
X025110Y023940
X024230Y024260
X024100Y025500
X023980Y024580
X023670Y024270
X023410Y024580
X023110Y024270
X023100Y025500
X022210Y023950
X021710Y024350
X020370Y023990
X019560Y024400
X019240Y025510
X018840Y025500
X018740Y024220
X017800Y025000
X017800Y023400
X016400Y023350
X015600Y024200
X015000Y025000
X014800Y023200
X013600Y023600
X012700Y024500
X012000Y024000
X012000Y025000
X011000Y024000
X011000Y025000
X011000Y026000
X012000Y026000
X013000Y027000
X013000Y028000
X014000Y027000
X014000Y026000
X014000Y028000
X015000Y028000
X016440Y026060
X017300Y025900
X018000Y028000
X018190Y025770
X018410Y027620
X019900Y027640
X020190Y025850
X020190Y026420
X020370Y027960
X020940Y027060
X021400Y027600
X021500Y027020
X022000Y027390
X023100Y026500
X024100Y026500
X024720Y027020
X025020Y025620
X025420Y025620
X025420Y027810
X026120Y026830
X026840Y026010
X026840Y026570
X027850Y027590
X028180Y026500
X028510Y027700
X030000Y027000
X030000Y028000
X030800Y027000
X031000Y028000
X031080Y025800
X031800Y028000
X031800Y026200
X032400Y025800
X032850Y026270
X032890Y027740
X035550Y026270
X035650Y027740
X036600Y027800
X037410Y027110
X037910Y027480
X038600Y028000
X038700Y026690
X038800Y025710
X038000Y029000
X037600Y028200
X037000Y029000
X036000Y029000
X032000Y029000
X031000Y029000
X030000Y029000
X029000Y029000
X027350Y028720
X026850Y028710
X026000Y028600
X025440Y028210
X024450Y028240
X023950Y028260
X021000Y029000
X020000Y029000
X019000Y029000
X018000Y029000
X017400Y028600
X015000Y029000
X014000Y029000
X013000Y029000
X012390Y028600
T2C.037F197S550
X013000Y010750
X014000Y010750
X015000Y010750
X016000Y010750
X017000Y010750
X018000Y010750
X019000Y010750
X020000Y010750
X021000Y010750
X022000Y010750
X023000Y010750
X024000Y010750
X025000Y010750
X026000Y010750
X027000Y010750
X028000Y010750
X029000Y010750
X030000Y010750
X031000Y010750
X032000Y010750
X033000Y010750
X034000Y010750
X035000Y010750
X036000Y010750
X036000Y015000
X036000Y014000
X035000Y017000
X034000Y017000
X031000Y017000
X030000Y017000
X029000Y015000
X028000Y015000
X033700Y019900
X034700Y019900
X036400Y022700
X040000Y020500
X040000Y019500
X040000Y021500
X040000Y022500
X040000Y023500
X040000Y025500
X040000Y024500
X040000Y026500
X040000Y027500
X036400Y023700
X036400Y024700
X036400Y025700
X029000Y023100
X023300Y028000
X019000Y023100
X019000Y028100
X029000Y028100
X033700Y028900
X034700Y028900
T3C.11811F069S658
X011000Y011000
X039750Y029000
T4C.11811F069S658
X020000Y020000
X039250Y011500
M30
