*
*
G04 PADS 9.5 Build Number: 522968 generated Gerber (RS-274-X) file*
G04 PC Version=2.1*
*
%IN "PSDR_Encoder.pcb"*%
*
%MOIN*%
*
%FSLAX35Y35*%
*
*
*
*
G04 PC Standard Apertures*
*
*
G04 Thermal Relief Aperture macro.*
%AMTER*
1,1,$1,0,0*
1,0,$1-$2,0,0*
21,0,$3,$4,0,0,45*
21,0,$3,$4,0,0,135*
%
*
*
G04 Annular Aperture macro.*
%AMANN*
1,1,$1,0,0*
1,0,$2,0,0*
%
*
*
G04 Odd Aperture macro.*
%AMODD*
1,1,$1,0,0*
1,0,$1-0.005,0,0*
%
*
*
G04 PC Custom Aperture Macros*
*
*
*
*
*
*
G04 PC Aperture Table*
*
%ADD010C,0.001*%
%ADD016C,0.06*%
%ADD029C,0.1*%
%ADD035C,0.03*%
%ADD048C,0.07*%
%ADD094C,0.00394*%
%ADD147C,0.01*%
%ADD148O,0.05906X0.1063*%
%ADD149C,0.19*%
%ADD150C,0.063*%
%ADD151C,0.032*%
*
*
*
*
G04 PC Circuitry*
G04 Layer Name PSDR_Encoder.pcb - circuitry*
%LPD*%
*
*
G04 PC Custom Flashes*
G04 Layer Name PSDR_Encoder.pcb - flashes*
%LPD*%
*
*
G04 PC Circuitry*
G04 Layer Name PSDR_Encoder.pcb - circuitry*
%LPD*%
*
G54D10*
G54D16*
G01X125424Y130000D02*
X139000D01*
X143870Y134870*
X143937Y134937*
Y141000*
X143870Y134870D02*
X150870Y127870D01*
X106000Y140000D02*
X135063D01*
X136063Y141000*
X106000Y130000D02*
X124000D01*
X143937Y141000D02*
Y146000D01*
X147937Y150000*
X161000*
X168000Y157000*
Y169500*
X127868Y183868D02*
X132394Y179343D01*
X144051Y191000*
X160000*
X168000Y183000*
Y169500*
X157000*
G54D29*
X111811Y111811D02*
X124000Y124000D01*
X151000Y127740D02*
X166929Y111811D01*
X111811Y188583D02*
X113811D01*
X118394Y184000*
X127736*
G54D35*
X125424Y130000D02*
X124000D01*
Y124000*
X150870Y127870D02*
X151000Y127740D01*
X127736Y184000D02*
X127868Y183868D01*
X106000Y150000D02*
X122736D01*
X132394Y159657*
X106000Y170000D02*
X109200Y173200D01*
X150857*
X157000Y179343*
X106000Y160000D02*
X112329Y166329D01*
X150329*
X157000Y159657*
G54D48*
X106000Y160000D03*
Y170000D03*
Y150000D03*
Y130000D03*
Y140000D03*
G54D94*
X133971Y108096D03*
X128571Y193096D03*
X171271Y145396D03*
G54D147*
X135469Y108100D02*
X135440Y108386D01*
X135357Y108662*
X135221Y108916*
X135038Y109138*
X134816Y109321*
X134562Y109457*
X134286Y109540*
X134000Y109569*
X133714Y109540*
X133438Y109457*
X133184Y109321*
X132962Y109138*
X132779Y108916*
X132643Y108662*
X132560Y108386*
X132531Y108100*
X132560Y107814*
X132643Y107538*
X132779Y107284*
X132962Y107062*
X133184Y106879*
X133438Y106743*
X133714Y106660*
X134000Y106631*
X134286Y106660*
X134562Y106743*
X134816Y106879*
X135038Y107062*
X135221Y107284*
X135357Y107538*
X135440Y107814*
X135469Y108100*
X133000Y107030D02*
Y109170D01*
X133500Y106724D02*
Y109476D01*
X134000Y106631D02*
Y109569D01*
X134500Y106724D02*
Y109476D01*
X135000Y107030D02*
Y109170D01*
X130069Y193100D02*
X130040Y193386D01*
X129957Y193662*
X129821Y193916*
X129638Y194138*
X129416Y194321*
X129162Y194457*
X128886Y194540*
X128600Y194569*
X128314Y194540*
X128038Y194457*
X127784Y194321*
X127562Y194138*
X127379Y193916*
X127243Y193662*
X127160Y193386*
X127131Y193100*
X127160Y192814*
X127243Y192538*
X127379Y192284*
X127562Y192062*
X127784Y191879*
X128038Y191743*
X128314Y191660*
X128600Y191631*
X128886Y191660*
X129162Y191743*
X129416Y191879*
X129638Y192062*
X129821Y192284*
X129957Y192538*
X130040Y192814*
X130069Y193100*
X127600Y192030D02*
Y194170D01*
X128100Y191724D02*
Y194476D01*
X128600Y191631D02*
Y194569D01*
X129100Y191724D02*
Y194476D01*
X129600Y192030D02*
Y194170D01*
X172769Y145400D02*
X172740Y145686D01*
X172657Y145962*
X172521Y146216*
X172338Y146438*
X172116Y146621*
X171862Y146757*
X171586Y146840*
X171300Y146869*
X171014Y146840*
X170738Y146757*
X170484Y146621*
X170262Y146438*
X170079Y146216*
X169943Y145962*
X169860Y145686*
X169831Y145400*
X169860Y145114*
X169943Y144838*
X170079Y144584*
X170262Y144362*
X170484Y144179*
X170738Y144043*
X171014Y143960*
X171300Y143931*
X171586Y143960*
X171862Y144043*
X172116Y144179*
X172338Y144362*
X172521Y144584*
X172657Y144838*
X172740Y145114*
X172769Y145400*
X170300Y144330D02*
Y146470D01*
X170800Y144024D02*
Y146776D01*
X171300Y143931D02*
Y146869D01*
X171800Y144024D02*
Y146776D01*
X172300Y144330D02*
Y146470D01*
X175737Y145400D02*
G75*
G03X175737I-4437J0D01*
G01X138437Y108100D02*
G03X138437I-4437J0D01*
G01X133037Y193100D02*
G03X133037I-4437J0D01*
G01X176250Y118021D02*
Y182649D01*
G03X160999Y197900I-15258J-7*
G01X118027*
X102500Y182358D02*
G03X118027Y197900I9311J6225D01*
G01X102500Y182358D02*
Y173846D01*
X106636Y175161D02*
G03X102500Y173846I-636J-5161D01*
G01X106636Y175161D02*
X106937Y175463D01*
X109200Y176400D02*
G03X106937Y175463I0J-3200D01*
G01X109200Y176400D02*
X149532D01*
X152160Y179028*
X156686Y174503D02*
G03X152160Y179028I314J4840D01*
G01X156686Y174503D02*
X153120Y170937D01*
X150857Y170000D02*
G03X153120Y170937I0J3200D01*
G01X150857Y170000D02*
X111200D01*
X111153Y169305D02*
G03X111200Y170000I-5153J695D01*
G01X112329Y169529D02*
G03X111153Y169305I-0J-3200D01*
G01X112329Y169529D02*
X150329D01*
X152591Y168591D02*
G03X150329Y169529I-2262J-2262D01*
G01X152591Y168591D02*
X156686Y164497D01*
X152160Y159972D02*
G03X156686Y164497I4840J-315D01*
G01X152160Y159972D02*
X149003Y163129D01*
X135781*
X132079Y154818D02*
G03X135781Y163129I315J4839D01*
G01X132079Y154818D02*
X124999Y147737D01*
X122736Y146800D02*
G03X124999Y147737I0J3200D01*
G01X122736Y146800D02*
X110099D01*
X107428Y145000D02*
G03X110099Y146800I-1428J5000D01*
G01X108225Y144700D02*
G03X107428Y145000I-2225J-4700D01*
G01X108225Y144700D02*
X131607D01*
X140716Y143362D02*
G03X131607Y144700I-4653J0D01*
G01X140716Y143362D02*
Y141665D01*
Y140335D02*
G03Y141665I-4653J665D01*
G01Y140335D02*
Y138638D01*
X132821Y135300D02*
G03X140716Y138638I3242J3338D01*
G01X132821Y135300D02*
X108225D01*
X102500Y136154D02*
G03X108225Y135300I3500J3846D01*
G01X102500Y136154D02*
Y118036D01*
X118036Y102500D02*
G03X102500Y118036I-6225J9311D01*
G01X118036Y102500D02*
X160704D01*
X176250Y118021D02*
G03X160704Y102500I-9321J-6210D01*
G01X129006Y163129D02*
G03X127554Y159343I3388J-3472D01*
G01X129006Y163129D02*
X113654D01*
X111161Y160636*
X107428Y155000D02*
G03X111161Y160636I-1428J5000D01*
G01X110099Y153200D02*
G03X107428Y155000I-4099J-3200D01*
G01X110099Y153200D02*
X121411D01*
X127554Y159343*
X175737Y145400D02*
G03X175737I-4437J0D01*
G01X138437Y108100D02*
G03X138437I-4437J0D01*
G01X133037Y193100D02*
G03X133037I-4437J0D01*
G01X113624Y163099D02*
X128976D01*
X112724Y162199D02*
X128263D01*
X111824Y161299D02*
X127830D01*
X111185Y160399D02*
X127601D01*
X111176Y159499D02*
X127546D01*
X111008Y158599D02*
X126809D01*
X110663Y157699D02*
X125909D01*
X110098Y156799D02*
X125009D01*
X109197Y155899D02*
X124109D01*
X107433Y154999D02*
X123209D01*
X109200Y154099D02*
X122309D01*
X161058Y181999D02*
X176250D01*
X161521Y181099D02*
X176250D01*
X161774Y180199D02*
X176250D01*
X161850Y179299D02*
X176250D01*
X161757Y178399D02*
X176250D01*
X161486Y177499D02*
X176250D01*
X160999Y176599D02*
X176250D01*
X160201Y175699D02*
X176250D01*
X158696Y174799D02*
X176250D01*
X156082Y173899D02*
X176250D01*
X155182Y172999D02*
X176250D01*
X154282Y172099D02*
X176250D01*
X153382Y171199D02*
X176250D01*
X152207Y170299D02*
X176250D01*
X151232Y169399D02*
X176250D01*
X152684Y168499D02*
X176250D01*
X153584Y167599D02*
X176250D01*
X154484Y166699D02*
X176250D01*
X155384Y165799D02*
X176250D01*
X156284Y164899D02*
X176250D01*
X159163Y163999D02*
X176250D01*
X160418Y163099D02*
X176250D01*
X161131Y162199D02*
X176250D01*
X161564Y161299D02*
X176250D01*
X161793Y160399D02*
X176250D01*
X161847Y159499D02*
X176250D01*
X161733Y158599D02*
X176250D01*
X161437Y157699D02*
X176250D01*
X160918Y156799D02*
X176250D01*
X160065Y155899D02*
X176250D01*
X158348Y154999D02*
X176250D01*
X131360Y154099D02*
X176250D01*
X130460Y153199D02*
X176250D01*
X129560Y152299D02*
X176250D01*
X128660Y151399D02*
X176250D01*
X127760Y150499D02*
X176250D01*
X172735Y149599D02*
X176250D01*
X174267Y148699D02*
X176250D01*
X175033Y147799D02*
X176250D01*
X175476Y146899D02*
X176250D01*
X175696Y145999D02*
X176250D01*
X175727Y145099D02*
X176250D01*
X175571Y144199D02*
X176250D01*
X175208Y143299D02*
X176250D01*
X174568Y142399D02*
X176250D01*
X173414Y141499D02*
X176250D01*
X140746Y140599D02*
X176250D01*
X140716Y139699D02*
X176250D01*
X140716Y138799D02*
X176250D01*
X140657Y137899D02*
X176250D01*
X140417Y136999D02*
X176250D01*
X139962Y136099D02*
X176250D01*
X139197Y135199D02*
X176250D01*
X137742Y134299D02*
X176250D01*
X102500Y133399D02*
X176250D01*
X102500Y132499D02*
X176250D01*
X102500Y131599D02*
X176250D01*
X102500Y130699D02*
X176250D01*
X102500Y129799D02*
X176250D01*
X102500Y128899D02*
X176250D01*
X102500Y127999D02*
X176250D01*
X102500Y127099D02*
X176250D01*
X102500Y126199D02*
X176250D01*
X102500Y125299D02*
X176250D01*
X102500Y124399D02*
X176250D01*
X102500Y123499D02*
X176250D01*
X169940Y122599D02*
X176250D01*
X172190Y121699D02*
X176250D01*
X173612Y120799D02*
X176250D01*
X174677Y119899D02*
X176250D01*
X175518Y118999D02*
X176250D01*
X176198Y118099D02*
X176250D01*
X160298Y182899D02*
X176248D01*
X158914Y183799D02*
X176206D01*
X122316Y184699D02*
X176111D01*
X122606Y185599D02*
X175961D01*
X122815Y186499D02*
X175755D01*
X122948Y187399D02*
X175490D01*
X123007Y188299D02*
X175163D01*
X130714Y189199D02*
X174770D01*
X131868Y190099D02*
X174304D01*
X132508Y190999D02*
X173758D01*
X132871Y191899D02*
X173122D01*
X133027Y192799D02*
X172379D01*
X132996Y193699D02*
X171507D01*
X132776Y194599D02*
X170471D01*
X126860Y149599D02*
X169865D01*
X132333Y195499D02*
X169209D01*
X140736Y141499D02*
X169186D01*
X125960Y148699D02*
X168333D01*
X140716Y142399D02*
X168032D01*
X131567Y196399D02*
X167592D01*
X137465Y147799D02*
X167567D01*
X140716Y143299D02*
X167392D01*
X139087Y146899D02*
X167124D01*
X140640Y144199D02*
X167029D01*
X139897Y145999D02*
X166904D01*
X140380Y145099D02*
X166873D01*
X130035Y197299D02*
X165234D01*
X114822Y122599D02*
X163918D01*
X117072Y121699D02*
X161668D01*
X118461Y102799D02*
X160279D01*
X118494Y120799D02*
X160246D01*
X134562Y103699D02*
X159207D01*
X119559Y119899D02*
X159181D01*
X136725Y104599D02*
X158360D01*
X120400Y118999D02*
X158340D01*
X137594Y105499D02*
X157677D01*
X121080Y118099D02*
X157660D01*
X138098Y106399D02*
X157124D01*
X121630Y117199D02*
X157110D01*
X138364Y107299D02*
X156678D01*
X122073Y116299D02*
X156667D01*
X138436Y108199D02*
X156328D01*
X122421Y115399D02*
X156319D01*
X138323Y109099D02*
X156062D01*
X122684Y114499D02*
X156056D01*
X138010Y109999D02*
X155877D01*
X122867Y113599D02*
X155873D01*
X137443Y110899D02*
X155766D01*
X122976Y112699D02*
X155764D01*
X136451Y111799D02*
X155729D01*
X133742Y154999D02*
X155652D01*
X121938Y183799D02*
X155086D01*
X135459Y155899D02*
X153935D01*
X121461Y182899D02*
X153702D01*
X136312Y156799D02*
X153082D01*
X120871Y181999D02*
X152942D01*
X136831Y157699D02*
X152563D01*
X120143Y181099D02*
X152479D01*
X137127Y158599D02*
X152267D01*
X119237Y180199D02*
X152226D01*
X137241Y159499D02*
X152153D01*
X118075Y179299D02*
X152150D01*
X137187Y160399D02*
X151733D01*
X116471Y178399D02*
X151531D01*
X136958Y161299D02*
X150833D01*
X113417Y177499D02*
X150631D01*
X136525Y162199D02*
X149933D01*
X102500Y176599D02*
X149731D01*
X135811Y163099D02*
X149033D01*
X125060Y147799D02*
X134661D01*
X102500Y134299D02*
X134384D01*
X119533Y103699D02*
X133438D01*
X123525Y146899D02*
X133039D01*
X107997Y135199D02*
X132929D01*
X109321Y145999D02*
X132229D01*
X107737Y145099D02*
X131746D01*
X123011Y111799D02*
X131549D01*
X120380Y104599D02*
X131275D01*
X122974Y110899D02*
X130557D01*
X121063Y105499D02*
X130406D01*
X122863Y109999D02*
X129990D01*
X121616Y106399D02*
X129902D01*
X122678Y109099D02*
X129677D01*
X122062Y107299D02*
X129636D01*
X122412Y108199D02*
X129564D01*
X118845Y197299D02*
X127165D01*
X122994Y189199D02*
X126486D01*
X119833Y196399D02*
X125633D01*
X122908Y190099D02*
X125332D01*
X120621Y195499D02*
X124867D01*
X122747Y190999D02*
X124692D01*
X121258Y194599D02*
X124424D01*
X122509Y191899D02*
X124329D01*
X121774Y193699D02*
X124204D01*
X122187Y192799D02*
X124173D01*
X111165Y169399D02*
X111426D01*
X102500Y177499D02*
X110205D01*
X102500Y122599D02*
X108800D01*
X102500Y175699D02*
X107201D01*
X102500Y178399D02*
X107151D01*
X102500Y121699D02*
X106550D01*
X102500Y179299D02*
X105547D01*
X102500Y120799D02*
X105128D01*
X102500Y180199D02*
X104385D01*
X102500Y119899D02*
X104063D01*
X102500Y135199D02*
X104003D01*
X102500Y174799D02*
X103997D01*
X102500Y181099D02*
X103479D01*
X102500Y118999D02*
X103222D01*
X102500Y181999D02*
X102751D01*
X102500Y136099D02*
X102562D01*
X102500Y173899D02*
X102559D01*
X102500Y118099D02*
X102542D01*
G54D148*
X136063Y141000D03*
X143937D03*
G54D149*
X111811Y188583D03*
Y111811D03*
X166929D03*
G54D150*
X157000Y159657D03*
Y179343D03*
Y169500D03*
X132394Y159657D03*
Y179343D03*
G54D151*
X145000Y112000D03*
X137000Y125000D03*
X129000Y118000D03*
X123000Y127000D03*
X169000Y130000D03*
X154000Y138000D03*
Y125000D03*
X160000Y147000D03*
X140000Y192000D03*
X143000Y155000D03*
X144000Y181000D03*
X119000Y158000D03*
X170000Y161000D03*
X169000Y183000D03*
X154000Y193000D03*
G74*
X0Y0D02*
M02*
