*
*
G04 PADS 9.5 Build Number: 522968 generated Gerber (RS-274-X) file*
G04 PC Version=2.1*
*
%IN "PSDR_Encoder.pcb"*%
*
%MOIN*%
*
%FSLAX35Y35*%
*
*
*
*
G04 PC Standard Apertures*
*
*
G04 Thermal Relief Aperture macro.*
%AMTER*
1,1,$1,0,0*
1,0,$1-$2,0,0*
21,0,$3,$4,0,0,45*
21,0,$3,$4,0,0,135*
%
*
*
G04 Annular Aperture macro.*
%AMANN*
1,1,$1,0,0*
1,0,$2,0,0*
%
*
*
G04 Odd Aperture macro.*
%AMODD*
1,1,$1,0,0*
1,0,$1-0.005,0,0*
%
*
*
G04 PC Custom Aperture Macros*
*
*
*
*
*
*
G04 PC Aperture Table*
*
%ADD010C,0.001*%
%ADD048C,0.07*%
%ADD147C,0.01*%
%ADD148O,0.05906X0.1063*%
%ADD149C,0.19*%
%ADD150C,0.063*%
%ADD151C,0.032*%
*
*
*
*
G04 PC Circuitry*
G04 Layer Name PSDR_Encoder.pcb - circuitry*
%LPD*%
*
*
G04 PC Custom Flashes*
G04 Layer Name PSDR_Encoder.pcb - flashes*
%LPD*%
*
*
G04 PC Circuitry*
G04 Layer Name PSDR_Encoder.pcb - circuitry*
%LPD*%
*
G54D10*
G54D48*
G01X106000Y160000D03*
Y170000D03*
Y150000D03*
Y130000D03*
Y140000D03*
G54D147*
X161850Y159657D02*
G75*
G03X161850I-4850J0D01*
G01Y179343D02*
G03X161850I-4850J0D01*
G01X137244Y159657D02*
G03X137244I-4850J0D01*
G01X176250Y118021D02*
Y182649D01*
G03X160999Y197900I-15258J-7*
G01X118027*
X102500Y182358D02*
G03X118027Y197900I9311J6225D01*
G01X102500Y182358D02*
Y173846D01*
X107428Y165000D02*
G03X102500Y173846I-1428J5000D01*
G01X107428Y155000D02*
G03Y165000I-1428J5000D01*
G01Y145000D02*
G03Y155000I-1428J5000D01*
G01X102500Y136154D02*
G03X107428Y145000I3500J3846D01*
G01X102500Y136154D02*
Y118036D01*
X118036Y102500D02*
G03X102500Y118036I-6225J9311D01*
G01X118036Y102500D02*
X160704D01*
X176250Y118021D02*
G03X160704Y102500I-9321J-6210D01*
G01X161850Y159657D02*
G03X161850I-4850J0D01*
G01Y179343D02*
G03X161850I-4850J0D01*
G01X140716Y143362D02*
Y138638D01*
X131410D02*
G03X140716I4653J-0D01*
G01X131410D02*
Y143362D01*
X140716D02*
G03X131410I-4653J0D01*
G01X137244Y159657D02*
G03X137244I-4850J0D01*
G01X161182Y181799D02*
X176250D01*
X161594Y180899D02*
X176250D01*
X161805Y179999D02*
X176250D01*
X161844Y179099D02*
X176250D01*
X161713Y178199D02*
X176250D01*
X161398Y177299D02*
X176250D01*
X160854Y176399D02*
X176250D01*
X159958Y175499D02*
X176250D01*
X158009Y174599D02*
X176250D01*
X109655Y173699D02*
X176250D01*
X110383Y172799D02*
X176250D01*
X110841Y171899D02*
X176250D01*
X111103Y170999D02*
X176250D01*
X111199Y170099D02*
X176250D01*
X111138Y169199D02*
X176250D01*
X110914Y168299D02*
X176250D01*
X110503Y167399D02*
X176250D01*
X109845Y166499D02*
X176250D01*
X108769Y165599D02*
X176250D01*
X108228Y164699D02*
X176250D01*
X159525Y163799D02*
X176250D01*
X160608Y162899D02*
X176250D01*
X161248Y161999D02*
X176250D01*
X161631Y161099D02*
X176250D01*
X161820Y160199D02*
X176250D01*
X161837Y159299D02*
X176250D01*
X161684Y158399D02*
X176250D01*
X161343Y157499D02*
X176250D01*
X160764Y156599D02*
X176250D01*
X159802Y155699D02*
X176250D01*
X108003Y154799D02*
X176250D01*
X109441Y153899D02*
X176250D01*
X110248Y152999D02*
X176250D01*
X110758Y152099D02*
X176250D01*
X111060Y151199D02*
X176250D01*
X111191Y150299D02*
X176250D01*
X111165Y149399D02*
X176250D01*
X110979Y148499D02*
X176250D01*
X137987Y147599D02*
X176250D01*
X139306Y146699D02*
X176250D01*
X140027Y145799D02*
X176250D01*
X140455Y144899D02*
X176250D01*
X140672Y143999D02*
X176250D01*
X140716Y143099D02*
X176250D01*
X140716Y142199D02*
X176250D01*
X140716Y141299D02*
X176250D01*
X140716Y140399D02*
X176250D01*
X140716Y139499D02*
X176250D01*
X140716Y138599D02*
X176250D01*
X140620Y137699D02*
X176250D01*
X140337Y136799D02*
X176250D01*
X139824Y135899D02*
X176250D01*
X138962Y134999D02*
X176250D01*
X137085Y134099D02*
X176250D01*
X102500Y133199D02*
X176250D01*
X102500Y132299D02*
X176250D01*
X102500Y131399D02*
X176250D01*
X102500Y130499D02*
X176250D01*
X102500Y129599D02*
X176250D01*
X102500Y128699D02*
X176250D01*
X102500Y127799D02*
X176250D01*
X102500Y126899D02*
X176250D01*
X102500Y125999D02*
X176250D01*
X102500Y125099D02*
X176250D01*
X102500Y124199D02*
X176250D01*
X102500Y123299D02*
X176250D01*
X170582Y122399D02*
X176250D01*
X172549Y121499D02*
X176250D01*
X173873Y120599D02*
X176250D01*
X174880Y119699D02*
X176250D01*
X175682Y118799D02*
X176250D01*
X160501Y182699D02*
X176250D01*
X159325Y183599D02*
X176220D01*
X122240Y184499D02*
X176137D01*
X122549Y185399D02*
X175999D01*
X122776Y186299D02*
X175805D01*
X122925Y187199D02*
X175554D01*
X123001Y188099D02*
X175241D01*
X123003Y188999D02*
X174863D01*
X122933Y189899D02*
X174414D01*
X122790Y190799D02*
X173887D01*
X122569Y191699D02*
X173272D01*
X122266Y192599D02*
X172554D01*
X121875Y193499D02*
X171713D01*
X121383Y194399D02*
X170718D01*
X120774Y195299D02*
X169514D01*
X120023Y196199D02*
X167994D01*
X119086Y197099D02*
X165872D01*
X115464Y122399D02*
X163276D01*
X117431Y121499D02*
X161309D01*
X118181Y102599D02*
X160559D01*
X118755Y120599D02*
X159985D01*
X119317Y103499D02*
X159423D01*
X119762Y119699D02*
X158978D01*
X120207Y104399D02*
X158533D01*
X120564Y118799D02*
X158176D01*
X120923Y105299D02*
X157817D01*
X121212Y117899D02*
X157528D01*
X121503Y106199D02*
X157237D01*
X121737Y116999D02*
X157003D01*
X121971Y107099D02*
X156769D01*
X122158Y116099D02*
X156582D01*
X122342Y107999D02*
X156398D01*
X122486Y115199D02*
X156254D01*
X122626Y108899D02*
X156114D01*
X122731Y114299D02*
X156009D01*
X108427Y174599D02*
X155991D01*
X122829Y109799D02*
X155911D01*
X122898Y113399D02*
X155842D01*
X122956Y110699D02*
X155784D01*
X122990Y112499D02*
X155750D01*
X123009Y111599D02*
X155731D01*
X121841Y183599D02*
X154675D01*
X134918Y163799D02*
X154475D01*
X135196Y155699D02*
X154198D01*
X102500Y175499D02*
X154042D01*
X121341Y182699D02*
X153499D01*
X136002Y162899D02*
X153392D01*
X136158Y156599D02*
X153236D01*
X102500Y176399D02*
X153146D01*
X120722Y181799D02*
X152818D01*
X136641Y161999D02*
X152752D01*
X136737Y157499D02*
X152657D01*
X102500Y177299D02*
X152602D01*
X119959Y180899D02*
X152406D01*
X137025Y161099D02*
X152369D01*
X137078Y158399D02*
X152316D01*
X116007Y178199D02*
X152287D01*
X119005Y179999D02*
X152195D01*
X137213Y160199D02*
X152180D01*
X137230Y159299D02*
X152163D01*
X117768Y179099D02*
X152156D01*
X102500Y134099D02*
X135041D01*
X110612Y147599D02*
X134139D01*
X107424Y134999D02*
X133164D01*
X110018Y146699D02*
X132820D01*
X109197Y135899D02*
X132302D01*
X109064Y145799D02*
X132099D01*
X110098Y136799D02*
X131789D01*
X107744Y144899D02*
X131671D01*
X110663Y137699D02*
X131506D01*
X109324Y143999D02*
X131454D01*
X111008Y138599D02*
X131410D01*
X110176Y143099D02*
X131410D01*
X110712Y142199D02*
X131410D01*
X111035Y141299D02*
X131410D01*
X111185Y140399D02*
X131410D01*
X111176Y139499D02*
X131410D01*
X109551Y163799D02*
X129869D01*
X108922Y155699D02*
X129592D01*
X110317Y162899D02*
X128786D01*
X109933Y156599D02*
X128630D01*
X110801Y161999D02*
X128146D01*
X110559Y157499D02*
X128051D01*
X111083Y161099D02*
X127763D01*
X110947Y158399D02*
X127710D01*
X111196Y160199D02*
X127574D01*
X111153Y159299D02*
X127557D01*
X102500Y122399D02*
X108158D01*
X102500Y178199D02*
X107615D01*
X102500Y121499D02*
X106191D01*
X102500Y179099D02*
X105854D01*
X102500Y120599D02*
X104867D01*
X102500Y179999D02*
X104617D01*
X102500Y134999D02*
X104576D01*
X102500Y119699D02*
X103860D01*
X102500Y180899D02*
X103663D01*
X102500Y174599D02*
X103573D01*
X102500Y118799D02*
X103058D01*
X102500Y181799D02*
X102900D01*
X102500Y135899D02*
X102803D01*
G54D148*
X136063Y141000D03*
X143937D03*
G54D149*
X111811Y188583D03*
Y111811D03*
X166929D03*
G54D150*
X157000Y159657D03*
Y179343D03*
Y169500D03*
X132394Y159657D03*
Y179343D03*
G54D151*
X145000Y112000D03*
X137000Y125000D03*
X129000Y118000D03*
X123000Y127000D03*
X169000Y130000D03*
X154000Y138000D03*
Y125000D03*
X160000Y147000D03*
X140000Y192000D03*
X143000Y155000D03*
X144000Y181000D03*
X119000Y158000D03*
X170000Y161000D03*
X169000Y183000D03*
X154000Y193000D03*
G74*
X0Y0D02*
M02*
