% M48 INCH,LZ
T1C.014F095S300
X012300Y012700
X012900Y011800
X013700Y012500
X014500Y011200
X015400Y012500
X016900Y013000
X017000Y016100
X016000Y014700
X015400Y013800
X014300Y015500
X011900Y015800
X014000Y019200
X014400Y018100
X015400Y019300
X016900Y018300
T2C.02756F197S550
X013606Y014100
X014394Y014100
T3C.037F197S550
X010600Y013000
X010600Y015000
X010600Y016000
X010600Y014000
X010600Y017000
T4C.039F197S550
X013239Y015966
X015700Y015966
X015700Y016950
X015700Y017934
X013239Y017934
T5C.11811F069S658
X011181Y011181
X016693Y011181
X011181Y018858
M30
