*
*
G04 PADS9.1 Build Number: 384028 generated Gerber (RS-274-X) file*
G04 PC Version=2.1*
*
%IN "PSDR.pcb"*%
*
%MOIN*%
*
%FSLAX35Y35*%
*
*
*
*
G04 PC Standard Apertures*
*
*
G04 Thermal Relief Aperture macro.*
%AMTER*
1,1,$1,0,0*
1,0,$1-$2,0,0*
21,0,$3,$4,0,0,45*
21,0,$3,$4,0,0,135*
%
*
*
G04 Annular Aperture macro.*
%AMANN*
1,1,$1,0,0*
1,0,$2,0,0*
%
*
*
G04 Odd Aperture macro.*
%AMODD*
1,1,$1,0,0*
1,0,$1-0.005,0,0*
%
*
*
G04 PC Custom Aperture Macros*
*
*
*
*
*
*
G04 PC Aperture Table*
*
%ADD010C,0.01*%
%ADD011C,0.008*%
%ADD012C,0.00787*%
%ADD042C,0.001*%
%ADD053C,0.002*%
%ADD082C,0.006*%
*
*
*
*
G04 PC Circuitry*
G04 Layer Name PSDR.pcb - circuitry*
%LPD*%
*
*
G04 PC Custom Flashes*
G04 Layer Name PSDR.pcb - flashes*
%LPD*%
*
*
G04 PC Circuitry*
G04 Layer Name PSDR.pcb - circuitry*
%LPD*%
*
G54D10*
G01X435983Y344094D02*
G75*
G03X435983I-11180J0D01*
G01X122991Y277165D02*
G03X122991I-11180J0D01*
G01Y344094D02*
G03X122991I-11180J0D01*
G01X178109Y127559D02*
G03X178109I-11180J0D01*
G01X402519Y111811D02*
G03X402519I-11180J0D01*
G01X481259Y190551D02*
G03X481259I-11180J0D01*
G01X186000Y351000D02*
X176000D01*
Y311200*
X253000*
Y351000*
X239800*
X260000Y256000D02*
X222000D01*
Y307000*
X363000*
Y256000*
X328000*
X282000Y235000D02*
X277000D01*
Y161000*
X350000*
Y235000*
X347000*
X168000Y303000D02*
Y344400D01*
X126600*
Y233000*
X139000*
X145000Y210000D02*
X121000D01*
Y172000*
X172000*
Y210000*
X201000Y351000D02*
X210400D01*
X211000Y226000D02*
X214000D01*
Y302000*
X173000*
X178000Y226000D02*
X173000D01*
Y302000*
X354000Y338000D02*
Y309000D01*
X429000*
Y334000*
X415000Y350000D02*
X381000D01*
X182000Y160000D02*
X174000D01*
Y211000*
X222000*
Y160000*
X214000*
X168000Y287000D02*
Y238000D01*
X262000Y175000D02*
Y156000D01*
X227000*
Y175000*
X257000Y141000D02*
X254000D01*
Y105000*
X306000*
Y141000*
X294000*
X382000Y142000D02*
Y168000D01*
X417000*
Y157000*
Y129000D02*
Y127000D01*
X382000*
Y132000*
X434000Y202000D02*
Y166000D01*
X437000*
X434000Y202000D02*
X457000D01*
Y166000*
X452000*
X396000Y182000D02*
Y186000D01*
X422000*
Y170000*
X396000*
Y173000*
G54D11*
X303200Y302500D02*
Y295500D01*
X296800Y302500D02*
Y295500D01*
X305500Y286800D02*
X298500D01*
X305500Y293200D02*
X298500D01*
X296800Y277500D02*
Y284500D01*
X303200Y277500D02*
Y284500D01*
X313500Y262800D02*
X306500D01*
X313500Y269200D02*
X306500D01*
X309200Y302500D02*
Y295500D01*
X302800Y302500D02*
Y295500D01*
X309200Y284500D02*
Y277500D01*
X302800Y284500D02*
Y277500D01*
X306500Y275200D02*
X313500D01*
X306500Y268800D02*
X313500D01*
X343500Y269200D02*
X350500D01*
X343500Y262800D02*
X350500D01*
X351500Y293200D02*
X358500D01*
X351500Y286800D02*
X358500D01*
X126500Y181200D02*
X133500D01*
X126500Y174800D02*
X133500D01*
X236500Y344800D02*
X229500D01*
X236500Y351200D02*
X229500D01*
X198500Y264200D02*
X205500D01*
X198500Y257800D02*
X205500D01*
X198500Y258200D02*
X205500D01*
X198500Y251800D02*
X205500D01*
X198500Y300200D02*
X205500D01*
X198500Y293800D02*
X205500D01*
X198500Y294200D02*
X205500D01*
X198500Y287800D02*
X205500D01*
X126500Y187200D02*
X133500D01*
X126500Y180800D02*
X133500D01*
X181200Y291500D02*
Y284500D01*
X174800Y291500D02*
Y284500D01*
X181200Y278500D02*
Y271500D01*
X174800Y278500D02*
Y271500D01*
X181200Y255500D02*
Y248500D01*
X174800Y255500D02*
Y248500D01*
X181200Y242500D02*
Y235500D01*
X174800Y242500D02*
Y235500D01*
X315500Y300000D02*
Y305500D01*
X308500*
Y300000*
Y296000D02*
Y290500D01*
X315500*
Y296000*
X314000Y290500D02*
X308500D01*
Y283500*
X314000*
X318000D02*
X323500D01*
Y290500*
X318000*
X314000Y283500D02*
X308500D01*
Y276500*
X314000*
X318000D02*
X323500D01*
Y283500*
X318000*
X348500Y300000D02*
Y305500D01*
X341500*
Y300000*
Y296000D02*
Y290500D01*
X348500*
Y296000*
X343000Y283500D02*
X348500D01*
Y290500*
X343000*
X339000D02*
X333500D01*
Y283500*
X339000*
X343000Y276500D02*
X348500D01*
Y283500*
X343000*
X339000D02*
X333500D01*
Y276500*
X339000*
X276500Y300000D02*
Y305500D01*
X269500*
Y300000*
Y296000D02*
Y290500D01*
X276500*
Y296000*
X271000Y283500D02*
X276500D01*
Y290500*
X271000*
X267000D02*
X261500D01*
Y283500*
X267000*
X418000Y191500D02*
X422000D01*
Y198500*
X418000*
X412000Y191500D02*
X408000D01*
Y198500*
X412000*
X417000Y191000D02*
Y188000D01*
Y189500D02*
X414000Y191000D01*
Y188000*
X417000Y189500*
X420000*
X414000D02*
X410000D01*
X141000Y211500D02*
X145000D01*
Y218500*
X141000*
X135000Y211500D02*
X131000D01*
Y218500*
X135000*
X141000D02*
X145000D01*
Y225500*
X141000*
X135000Y218500D02*
X131000D01*
Y225500*
X135000*
X403000Y191500D02*
X407000D01*
Y198500*
X403000*
X397000Y191500D02*
X393000D01*
Y198500*
X397000*
X447500Y171800D02*
X440500D01*
X447500Y178200D02*
X440500D01*
X360200Y302500D02*
Y295500D01*
X353800Y302500D02*
Y295500D01*
Y277500D02*
Y284500D01*
X360200Y277500D02*
Y284500D01*
X354200Y302500D02*
Y295500D01*
X347800Y302500D02*
Y295500D01*
X354200Y284500D02*
Y277500D01*
X347800Y284500D02*
Y277500D01*
X350500Y268800D02*
X343500D01*
X350500Y275200D02*
X343500D01*
X288200Y302500D02*
Y295500D01*
X281800Y302500D02*
Y295500D01*
X279500Y293200D02*
X286500D01*
X279500Y286800D02*
X286500D01*
X281800Y277500D02*
Y284500D01*
X288200Y277500D02*
Y284500D01*
X271500Y269200D02*
X278500D01*
X271500Y262800D02*
X278500D01*
X282200Y302500D02*
Y295500D01*
X275800Y302500D02*
Y295500D01*
X282200Y284500D02*
Y277500D01*
X275800Y284500D02*
Y277500D01*
X278500Y268800D02*
X271500D01*
X278500Y275200D02*
X271500D01*
X231200Y302500D02*
Y295500D01*
X224800Y302500D02*
Y295500D01*
X233500Y286800D02*
X226500D01*
X233500Y293200D02*
X226500D01*
X224800Y277500D02*
Y284500D01*
X231200Y277500D02*
Y284500D01*
X241500Y262800D02*
X234500D01*
X241500Y269200D02*
X234500D01*
X237200Y302500D02*
Y295500D01*
X230800Y302500D02*
Y295500D01*
X237200Y284500D02*
Y277500D01*
X230800Y284500D02*
Y277500D01*
X234500Y275200D02*
X241500D01*
X234500Y268800D02*
X241500D01*
X271000Y276500D02*
X276500D01*
Y283500*
X271000*
X267000D02*
X261500D01*
Y276500*
X267000*
X243500Y300000D02*
Y305500D01*
X236500*
Y300000*
Y296000D02*
Y290500D01*
X243500*
Y296000*
X242000Y290500D02*
X236500D01*
Y283500*
X242000*
X246000D02*
X251500D01*
Y290500*
X246000*
X242000Y283500D02*
X236500D01*
Y276500*
X242000*
X246000D02*
X251500D01*
Y283500*
X246000*
X185000Y294500D02*
X181000D01*
Y287500*
X185000*
X191000Y294500D02*
X195000D01*
Y287500*
X191000*
X399000Y143500D02*
X403000D01*
Y150500*
X399000*
X393000Y143500D02*
X389000D01*
Y150500*
X393000*
X185000Y258500D02*
X181000D01*
Y251500*
X185000*
X191000Y258500D02*
X195000D01*
Y251500*
X191000*
X175800Y168500D02*
Y175500D01*
X182200Y168500D02*
Y175500D01*
X175800Y192500D02*
Y199500D01*
X182200Y192500D02*
Y199500D01*
X160500Y191200D02*
X167500D01*
X160500Y184800D02*
X167500D01*
X160500Y197200D02*
X167500D01*
X160500Y190800D02*
X167500D01*
X160500Y185200D02*
X167500D01*
X160500Y178800D02*
X167500D01*
X160500Y203200D02*
X167500D01*
X160500Y196800D02*
X167500D01*
X181800Y192500D02*
Y199500D01*
X188200Y192500D02*
Y199500D01*
X181800Y168500D02*
Y175500D01*
X188200Y168500D02*
Y175500D01*
X185000Y184500D02*
X181000D01*
Y177500*
X185000*
X191000Y184500D02*
X195000D01*
Y177500*
X191000*
X185000Y208500D02*
X181000D01*
Y201500*
X185000*
X191000Y208500D02*
X195000D01*
Y201500*
X191000*
X212500Y193000D02*
Y189000D01*
X219500*
Y193000*
X212500Y199000D02*
Y203000D01*
X219500*
Y199000*
X212500Y169000D02*
Y165000D01*
X219500*
Y169000*
X212500Y175000D02*
Y179000D01*
X219500*
Y175000*
X232500Y312800D02*
X225500D01*
X232500Y319200D02*
X225500D01*
X217000Y351500D02*
X213000D01*
Y344500*
X217000*
X223000Y351500D02*
X227000D01*
Y344500*
X223000*
X377126Y332906D02*
Y334874D01*
X379094*
X390906D02*
X392874D01*
Y332906*
Y321094D02*
Y319126D01*
X390906*
X379094D02*
X377126D01*
Y321094*
X377034Y336300D02*
G03X377034I-1334J0D01*
G01X225500Y344200D02*
X232500D01*
X225500Y337800D02*
X232500D01*
X209500Y344200D02*
X216500D01*
X209500Y337800D02*
X216500D01*
X149500Y270800D02*
X142500D01*
X149500Y277200D02*
X142500D01*
X164800Y291500D02*
Y298500D01*
X171200Y291500D02*
Y298500D01*
X143500Y301200D02*
X150500D01*
X143500Y294800D02*
X150500D01*
X157800Y291500D02*
Y298500D01*
X164200Y291500D02*
Y298500D01*
X150500Y318800D02*
X143500D01*
X150500Y325200D02*
X143500D01*
X157800Y334500D02*
Y341500D01*
X164200Y334500D02*
Y341500D01*
X136500Y333800D02*
X129500D01*
X136500Y340200D02*
X129500D01*
X133800Y324500D02*
Y331500D01*
X140200Y324500D02*
Y331500D01*
X132800Y236500D02*
Y243500D01*
X139200Y236500D02*
Y243500D01*
X154500Y277200D02*
X161500D01*
X154500Y270800D02*
X161500D01*
X139200Y257500D02*
Y250500D01*
X132800Y257500D02*
Y250500D01*
X397500Y329000D02*
Y337000D01*
X404500Y329000D02*
Y337000D01*
X368000Y331500D02*
X360000D01*
X368000Y338500D02*
X360000D01*
X278500Y130800D02*
X271500D01*
X278500Y137200D02*
X271500D01*
X368500Y124200D02*
X375500D01*
X368500Y117800D02*
X375500D01*
X413800Y174500D02*
Y181500D01*
X420200Y174500D02*
Y181500D01*
X245500Y168800D02*
X238500D01*
X245500Y175200D02*
X238500D01*
X402200Y163500D02*
Y156500D01*
X395800Y163500D02*
Y156500D01*
X268200Y126500D02*
Y119500D01*
X261800Y126500D02*
Y119500D01*
X300500Y121800D02*
X293500D01*
X300500Y128200D02*
X293500D01*
X282800Y124500D02*
Y131500D01*
X289200Y124500D02*
Y131500D01*
X195500Y341200D02*
X202500D01*
X195500Y334800D02*
X202500D01*
X195500Y323200D02*
X202500D01*
X195500Y316800D02*
X202500D01*
X195500Y329200D02*
X202500D01*
X195500Y322800D02*
X202500D01*
X195500Y335200D02*
X202500D01*
X195500Y328800D02*
X202500D01*
X262200Y126500D02*
Y119500D01*
X255800Y126500D02*
Y119500D01*
X409055Y302756D02*
G03X393307Y287008I0J-15748D01*
G01X409055Y302756D02*
X475984D01*
X491732Y287008D02*
G03X475984Y302756I-15748J-0D01*
G01X491732Y287008D02*
Y220079D01*
X475984Y204331D02*
G03X491732Y220079I0J15748D01*
G01X475984Y204331D02*
X409055D01*
X393307Y220079D02*
G03X409055Y204331I15748J-0D01*
G01X393307Y220079D02*
Y287008D01*
X241000Y336500D02*
X237000D01*
Y329500*
X241000*
X247000Y336500D02*
X251000D01*
Y329500*
X247000*
X241000D02*
X237000D01*
Y322500*
X241000*
X247000Y329500D02*
X251000D01*
Y322500*
X247000*
X241000Y342500D02*
X237000D01*
Y335500*
X241000*
X247000Y342500D02*
X251000D01*
Y335500*
X247000*
X241000Y323500D02*
X237000D01*
Y316500*
X241000*
X247000Y323500D02*
X251000D01*
Y316500*
X247000*
X272000Y114500D02*
X268000D01*
Y107500*
X272000*
X278000Y114500D02*
X282000D01*
Y107500*
X278000*
X296500Y112000D02*
Y108000D01*
X303500*
Y112000*
X296500Y118000D02*
Y122000D01*
X303500*
Y118000*
X395500Y314000D02*
Y310000D01*
X402500*
Y314000*
X395500Y320000D02*
Y324000D01*
X402500*
Y320000*
X292000Y114500D02*
X296000D01*
Y121500*
X292000*
X286000Y114500D02*
X282000D01*
Y121500*
X286000*
Y114500D02*
X282000D01*
Y107500*
X286000*
X292000Y114500D02*
X296000D01*
Y107500*
X292000*
X361000Y324500D02*
X357000D01*
Y317500*
X361000*
X367000Y324500D02*
X371000D01*
Y317500*
X367000*
X399000Y129500D02*
X403000D01*
Y136500*
X399000*
X393000Y129500D02*
X389000D01*
Y136500*
X393000*
X178500Y319000D02*
Y315000D01*
X185500*
Y319000*
X178500Y325000D02*
Y329000D01*
X185500*
Y325000*
Y339000D02*
Y343000D01*
X178500*
Y339000*
X185500Y333000D02*
Y329000D01*
X178500*
Y333000*
X403500Y314000D02*
Y310000D01*
X410500*
Y314000*
X403500Y320000D02*
Y324000D01*
X410500*
Y320000*
X367000Y324500D02*
X371000D01*
Y331500*
X367000*
X361000Y324500D02*
X357000D01*
Y331500*
X361000*
X192500Y325000D02*
Y329000D01*
X185500*
Y325000*
X192500Y319000D02*
Y315000D01*
X185500*
Y319000*
Y333000D02*
Y329000D01*
X192500*
Y333000*
X185500Y339000D02*
Y343000D01*
X192500*
Y339000*
X241732Y227953D02*
X249606D01*
X241732Y235827*
Y227953*
X322500Y301000D02*
Y305000D01*
X315500*
Y301000*
X322500Y295000D02*
Y291000D01*
X315500*
Y295000*
X341500Y301000D02*
Y305000D01*
X334500*
Y301000*
X341500Y295000D02*
Y291000D01*
X334500*
Y295000*
X250500Y301000D02*
Y305000D01*
X243500*
Y301000*
X250500Y295000D02*
Y291000D01*
X243500*
Y295000*
X269500Y301000D02*
Y305000D01*
X262500*
Y301000*
X269500Y295000D02*
Y291000D01*
X262500*
Y295000*
X251500Y272000D02*
Y276000D01*
X244500*
Y272000*
X251500Y266000D02*
Y262000D01*
X244500*
Y266000*
X268500Y272000D02*
Y276000D01*
X261500*
Y272000*
X268500Y266000D02*
Y262000D01*
X261500*
Y266000*
X323500Y272000D02*
Y276000D01*
X316500*
Y272000*
X323500Y266000D02*
Y262000D01*
X316500*
Y266000*
X340500Y272000D02*
Y276000D01*
X333500*
Y272000*
X340500Y266000D02*
Y262000D01*
X333500*
Y266000*
X252000Y222500D02*
X248000D01*
Y215500*
X252000*
X258000Y222500D02*
X262000D01*
Y215500*
X258000*
Y221500D02*
X262000D01*
Y228500*
X258000*
X252000Y221500D02*
X248000D01*
Y228500*
X252000*
X340200Y131500D02*
Y124500D01*
X333800Y131500D02*
Y124500D01*
X334500Y131000D02*
Y135000D01*
X327500*
Y131000*
X334500Y125000D02*
Y121000D01*
X327500*
Y125000*
X328500Y131000D02*
Y135000D01*
X321500*
Y131000*
X328500Y125000D02*
Y121000D01*
X321500*
Y125000*
X188000Y353250D02*
X189455Y348000D01*
X190909Y353250D02*
X189455Y348000D01*
X192545Y353250D02*
Y348000D01*
Y353250D02*
X195091Y348000D01*
Y353250D02*
Y348000D01*
X198182Y353250D02*
X196727Y348000D01*
X198182Y353250D02*
X199636Y348000D01*
X197273Y349750D02*
X199091D01*
X180000Y229250D02*
Y224000D01*
Y229250D02*
X181636D01*
X182182Y229000*
X182364Y228750*
X182545Y228250*
Y227750*
X182364Y227250*
X182182Y227000*
X181636Y226750*
X180000*
X181273D02*
X182545Y224000D01*
X184182Y229250D02*
X186727Y224000D01*
Y229250D02*
X184182Y224000D01*
X194000Y229250D02*
X192545Y224000D01*
X194000Y229250D02*
X195455Y224000D01*
X193091Y225750D02*
X194909D01*
X197091Y227500D02*
Y224000D01*
Y226500D02*
X197636Y227250D01*
X198000Y227500*
X198545*
X198909Y227250*
X199091Y226500*
Y224000*
Y226500D02*
X199636Y227250D01*
X200000Y227500*
X200545*
X200909Y227250*
X201091Y226500*
Y224000*
X202727Y227500D02*
Y222250D01*
Y226750D02*
X203091Y227250D01*
X203455Y227500*
X204000*
X204364Y227250*
X204727Y226750*
X204909Y226000*
Y225500*
X204727Y224750*
X204364Y224250*
X204000Y224000*
X203455*
X203091Y224250*
X202727Y224750*
X208545Y226750D02*
X208364Y227250D01*
X207818Y227500*
X207273*
X206727Y227250*
X206545Y226750*
X206727Y226250*
X207091Y226000*
X208000Y225750*
X208364Y225500*
X208545Y225000*
Y224750*
X208364Y224250*
X207818Y224000*
X207273*
X206727Y224250*
X206545Y224750*
X284000Y237250D02*
Y232000D01*
Y237250D02*
X285455Y232000D01*
X286909Y237250D02*
X285455Y232000D01*
X286909Y237250D02*
Y232000D01*
X288545Y237250D02*
X288727Y237000D01*
X288909Y237250*
X288727Y237500*
X288545Y237250*
X288727Y235500D02*
Y232000D01*
X292727Y234750D02*
X292364Y235250D01*
X292000Y235500*
X291455*
X291091Y235250*
X290727Y234750*
X290545Y234000*
Y233500*
X290727Y232750*
X291091Y232250*
X291455Y232000*
X292000*
X292364Y232250*
X292727Y232750*
X294364Y235500D02*
Y232000D01*
Y234000D02*
X294545Y234750D01*
X294909Y235250*
X295273Y235500*
X295818*
X298364D02*
X298000Y235250D01*
X297636Y234750*
X297455Y234000*
Y233500*
X297636Y232750*
X298000Y232250*
X298364Y232000*
X298909*
X299273Y232250*
X299636Y232750*
X299818Y233500*
Y234000*
X299636Y234750*
X299273Y235250*
X298909Y235500*
X298364*
X303636Y234750D02*
X303273Y235250D01*
X302909Y235500*
X302364*
X302000Y235250*
X301636Y234750*
X301455Y234000*
Y233500*
X301636Y232750*
X302000Y232250*
X302364Y232000*
X302909*
X303273Y232250*
X303636Y232750*
X306182Y235500D02*
X305818Y235250D01*
X305455Y234750*
X305273Y234000*
Y233500*
X305455Y232750*
X305818Y232250*
X306182Y232000*
X306727*
X307091Y232250*
X307455Y232750*
X307636Y233500*
Y234000*
X307455Y234750*
X307091Y235250*
X306727Y235500*
X306182*
X309273D02*
Y232000D01*
Y234500D02*
X309818Y235250D01*
X310182Y235500*
X310727*
X311091Y235250*
X311273Y234500*
Y232000*
X313455Y237250D02*
Y233000D01*
X313636Y232250*
X314000Y232000*
X314364*
X312909Y235500D02*
X314182D01*
X316000D02*
Y232000D01*
Y234000D02*
X316182Y234750D01*
X316545Y235250*
X316909Y235500*
X317455*
X320000D02*
X319636Y235250D01*
X319273Y234750*
X319091Y234000*
Y233500*
X319273Y232750*
X319636Y232250*
X320000Y232000*
X320545*
X320909Y232250*
X321273Y232750*
X321455Y233500*
Y234000*
X321273Y234750*
X320909Y235250*
X320545Y235500*
X320000*
X323091Y237250D02*
Y232000D01*
X324727Y237250D02*
Y232000D01*
X326364Y234000D02*
X328545D01*
Y234500*
X328364Y235000*
X328182Y235250*
X327818Y235500*
X327273*
X326909Y235250*
X326545Y234750*
X326364Y234000*
Y233500*
X326545Y232750*
X326909Y232250*
X327273Y232000*
X327818*
X328182Y232250*
X328545Y232750*
X330182Y235500D02*
Y232000D01*
Y234000D02*
X330364Y234750D01*
X330727Y235250*
X331091Y235500*
X331636*
X262000Y260250D02*
Y255000D01*
Y260250D02*
X264364D01*
X262000Y257750D02*
X263455D01*
X266000Y258500D02*
Y255000D01*
Y257000D02*
X266182Y257750D01*
X266545Y258250*
X266909Y258500*
X267455*
X269091Y257000D02*
X271273D01*
Y257500*
X271091Y258000*
X270909Y258250*
X270545Y258500*
X270000*
X269636Y258250*
X269273Y257750*
X269091Y257000*
Y256500*
X269273Y255750*
X269636Y255250*
X270000Y255000*
X270545*
X270909Y255250*
X271273Y255750*
X275091Y258500D02*
Y253250D01*
Y257750D02*
X274727Y258250D01*
X274364Y258500*
X273818*
X273455Y258250*
X273091Y257750*
X272909Y257000*
Y256500*
X273091Y255750*
X273455Y255250*
X273818Y255000*
X274364*
X274727Y255250*
X275091Y255750*
X276909Y255500D02*
X276727Y255250D01*
X276909Y255000*
X277091Y255250*
X276909Y255500*
X285455Y259500D02*
X285091Y260000D01*
X284545Y260250*
X283818*
X283273Y260000*
X282909Y259500*
Y259000*
X283091Y258500*
X283273Y258250*
X283636Y258000*
X284727Y257500*
X285091Y257250*
X285273Y257000*
X285455Y256500*
Y255750*
X285091Y255250*
X284545Y255000*
X283818*
X283273Y255250*
X282909Y255750*
X287273Y258500D02*
X288364Y255000D01*
X289455Y258500D02*
X288364Y255000D01*
X288000Y254000*
X287636Y253500*
X287273Y253250*
X287091*
X291091Y258500D02*
Y255000D01*
Y257500D02*
X291636Y258250D01*
X292000Y258500*
X292545*
X292909Y258250*
X293091Y257500*
Y255000*
X295273Y260250D02*
Y256000D01*
X295455Y255250*
X295818Y255000*
X296182*
X294727Y258500D02*
X296000D01*
X297818Y260250D02*
Y255000D01*
Y257500D02*
X298364Y258250D01*
X298727Y258500*
X299273*
X299636Y258250*
X299818Y257500*
Y255000*
X305636Y260250D02*
Y255000D01*
Y260250D02*
X308000D01*
X305636Y257750D02*
X307091D01*
X309636Y260250D02*
X309818Y260000D01*
X310000Y260250*
X309818Y260500*
X309636Y260250*
X309818Y258500D02*
Y255000D01*
X311636Y260250D02*
Y255000D01*
X313818Y260250D02*
Y256000D01*
X314000Y255250*
X314364Y255000*
X314727*
X313273Y258500D02*
X314545D01*
X316364Y257000D02*
X318545D01*
Y257500*
X318364Y258000*
X318182Y258250*
X317818Y258500*
X317273*
X316909Y258250*
X316545Y257750*
X316364Y257000*
Y256500*
X316545Y255750*
X316909Y255250*
X317273Y255000*
X317818*
X318182Y255250*
X318545Y255750*
X320182Y258500D02*
Y255000D01*
Y257000D02*
X320364Y257750D01*
X320727Y258250*
X321091Y258500*
X321636*
X325273Y257750D02*
X325091Y258250D01*
X324545Y258500*
X324000*
X323455Y258250*
X323273Y257750*
X323455Y257250*
X323818Y257000*
X324727Y256750*
X325091Y256500*
X325273Y256000*
Y255750*
X325091Y255250*
X324545Y255000*
X324000*
X323455Y255250*
X323273Y255750*
X184273Y162250D02*
Y157000D01*
X183000Y162250D02*
X185545D01*
X187182D02*
X189727Y157000D01*
Y162250D02*
X187182Y157000D01*
X195545Y162250D02*
Y157000D01*
Y162250D02*
X196818D01*
X197364Y162000*
X197727Y161500*
X197909Y161000*
X198091Y160250*
Y159000*
X197909Y158250*
X197727Y157750*
X197364Y157250*
X196818Y157000*
X195545*
X199727Y160500D02*
Y157000D01*
Y159000D02*
X199909Y159750D01*
X200273Y160250*
X200636Y160500*
X201182*
X202818D02*
X203909Y157000D01*
X205000Y160500D02*
X203909Y157000D01*
X206636Y160500D02*
Y157000D01*
Y159000D02*
X206818Y159750D01*
X207182Y160250*
X207545Y160500*
X208091*
X211727Y159750D02*
X211545Y160250D01*
X211000Y160500*
X210455*
X209909Y160250*
X209727Y159750*
X209909Y159250*
X210273Y159000*
X211182Y158750*
X211545Y158500*
X211727Y158000*
Y157750*
X211545Y157250*
X211000Y157000*
X210455*
X209909Y157250*
X209727Y157750*
X149273Y214250D02*
Y209000D01*
X148000Y214250D02*
X150545D01*
X152182D02*
X154727Y209000D01*
Y214250D02*
X152182Y209000D01*
X160545Y214250D02*
Y209000D01*
Y214250D02*
X162000Y209000D01*
X163455Y214250D02*
X162000Y209000D01*
X163455Y214250D02*
Y209000D01*
X165091Y214250D02*
X165273Y214000D01*
X165455Y214250*
X165273Y214500*
X165091Y214250*
X165273Y212500D02*
Y209000D01*
X167091Y212500D02*
X169091Y209000D01*
Y212500D02*
X167091Y209000D01*
X260000Y144250D02*
Y139000D01*
Y144250D02*
X261455Y139000D01*
X262909Y144250D02*
X261455Y139000D01*
X262909Y144250D02*
Y139000D01*
X264545Y144250D02*
X264727Y144000D01*
X264909Y144250*
X264727Y144500*
X264545Y144250*
X264727Y142500D02*
Y139000D01*
X268727Y141750D02*
X268364Y142250D01*
X268000Y142500*
X267455*
X267091Y142250*
X266727Y141750*
X266545Y141000*
Y140500*
X266727Y139750*
X267091Y139250*
X267455Y139000*
X268000*
X268364Y139250*
X268727Y139750*
X274545Y144250D02*
Y139000D01*
Y144250D02*
X276909D01*
X274545Y141750D02*
X276000D01*
X278545Y144250D02*
X278727Y144000D01*
X278909Y144250*
X278727Y144500*
X278545Y144250*
X278727Y142500D02*
Y139000D01*
X280545Y144250D02*
Y139000D01*
X282727Y144250D02*
Y140000D01*
X282909Y139250*
X283273Y139000*
X283636*
X282182Y142500D02*
X283455D01*
X285273Y141000D02*
X287455D01*
Y141500*
X287273Y142000*
X287091Y142250*
X286727Y142500*
X286182*
X285818Y142250*
X285455Y141750*
X285273Y141000*
Y140500*
X285455Y139750*
X285818Y139250*
X286182Y139000*
X286727*
X287091Y139250*
X287455Y139750*
X289091Y142500D02*
Y139000D01*
Y141000D02*
X289273Y141750D01*
X289636Y142250*
X290000Y142500*
X290545*
X348000Y140250D02*
Y135000D01*
Y140250D02*
X349455Y135000D01*
X350909Y140250D02*
X349455Y135000D01*
X350909Y140250D02*
Y135000D01*
X352545Y140250D02*
X352727Y140000D01*
X352909Y140250*
X352727Y140500*
X352545Y140250*
X352727Y138500D02*
Y135000D01*
X356727Y137750D02*
X356364Y138250D01*
X356000Y138500*
X355455*
X355091Y138250*
X354727Y137750*
X354545Y137000*
Y136500*
X354727Y135750*
X355091Y135250*
X355455Y135000*
X356000*
X356364Y135250*
X356727Y135750*
X362545Y140250D02*
Y135000D01*
Y140250D02*
X364182D01*
X364727Y140000*
X364909Y139750*
X365091Y139250*
Y138500*
X364909Y138000*
X364727Y137750*
X364182Y137500*
X362545*
X366727Y138500D02*
Y135000D01*
Y137000D02*
X366909Y137750D01*
X367273Y138250*
X367636Y138500*
X368182*
X369818Y137000D02*
X372000D01*
Y137500*
X371818Y138000*
X371636Y138250*
X371273Y138500*
X370727*
X370364Y138250*
X370000Y137750*
X369818Y137000*
Y136500*
X370000Y135750*
X370364Y135250*
X370727Y135000*
X371273*
X371636Y135250*
X372000Y135750*
X375091Y140250D02*
X373636Y135000D01*
X375091Y140250D02*
X376545Y135000D01*
X374182Y136750D02*
X376000D01*
X378182Y138500D02*
Y135000D01*
Y137500D02*
X378727Y138250D01*
X379091Y138500*
X379636*
X380000Y138250*
X380182Y137500*
Y135000*
Y137500D02*
X380727Y138250D01*
X381091Y138500*
X381636*
X382000Y138250*
X382182Y137500*
Y135000*
X383818Y138500D02*
Y133250D01*
Y137750D02*
X384182Y138250D01*
X384545Y138500*
X385091*
X385455Y138250*
X385818Y137750*
X386000Y137000*
Y136500*
X385818Y135750*
X385455Y135250*
X385091Y135000*
X384545*
X384182Y135250*
X383818Y135750*
X366000Y180250D02*
Y175000D01*
Y180250D02*
X367455Y175000D01*
X368909Y180250D02*
X367455Y175000D01*
X368909Y180250D02*
Y175000D01*
X370545Y180250D02*
X370727Y180000D01*
X370909Y180250*
X370727Y180500*
X370545Y180250*
X370727Y178500D02*
Y175000D01*
X374727Y177750D02*
X374364Y178250D01*
X374000Y178500*
X373455*
X373091Y178250*
X372727Y177750*
X372545Y177000*
Y176500*
X372727Y175750*
X373091Y175250*
X373455Y175000*
X374000*
X374364Y175250*
X374727Y175750*
X383091Y179500D02*
X382727Y180000D01*
X382182Y180250*
X381455*
X380909Y180000*
X380545Y179500*
Y179000*
X380727Y178500*
X380909Y178250*
X381273Y178000*
X382364Y177500*
X382727Y177250*
X382909Y177000*
X383091Y176500*
Y175750*
X382727Y175250*
X382182Y175000*
X381455*
X380909Y175250*
X380545Y175750*
X384727Y178500D02*
X385455Y175000D01*
X386182Y178500D02*
X385455Y175000D01*
X386182Y178500D02*
X386909Y175000D01*
X387636Y178500D02*
X386909Y175000D01*
X389273Y180250D02*
X389455Y180000D01*
X389636Y180250*
X389455Y180500*
X389273Y180250*
X389455Y178500D02*
Y175000D01*
X391818Y180250D02*
Y176000D01*
X392000Y175250*
X392364Y175000*
X392727*
X391273Y178500D02*
X392545D01*
X396545Y177750D02*
X396182Y178250D01*
X395818Y178500*
X395273*
X394909Y178250*
X394545Y177750*
X394364Y177000*
Y176500*
X394545Y175750*
X394909Y175250*
X395273Y175000*
X395818*
X396182Y175250*
X396545Y175750*
X398182Y180250D02*
Y175000D01*
Y177500D02*
X398727Y178250D01*
X399091Y178500*
X399636*
X400000Y178250*
X400182Y177500*
Y175000*
X440000Y168250D02*
Y163000D01*
Y168250D02*
X441455Y163000D01*
X442909Y168250D02*
X441455Y163000D01*
X442909Y168250D02*
Y163000D01*
X444545Y168250D02*
X444727Y168000D01*
X444909Y168250*
X444727Y168500*
X444545Y168250*
X444727Y166500D02*
Y163000D01*
X448727Y165750D02*
X448364Y166250D01*
X448000Y166500*
X447455*
X447091Y166250*
X446727Y165750*
X446545Y165000*
Y164500*
X446727Y163750*
X447091Y163250*
X447455Y163000*
X448000*
X448364Y163250*
X448727Y163750*
X142000Y244250D02*
Y239000D01*
Y244250D02*
X143636D01*
X144182Y244000*
X144364Y243750*
X144545Y243250*
Y242750*
X144364Y242250*
X144182Y242000*
X143636Y241750*
X142000*
X143273D02*
X144545Y239000D01*
X146182Y244250D02*
Y239000D01*
Y244250D02*
X148545D01*
X146182Y241750D02*
X147636D01*
X144545Y236500D02*
X144182Y237000D01*
X143636Y237250*
X142909*
X142364Y237000*
X142000Y236500*
Y236000*
X142182Y235500*
X142364Y235250*
X142727Y235000*
X143818Y234500*
X144182Y234250*
X144364Y234000*
X144545Y233500*
Y232750*
X144182Y232250*
X143636Y232000*
X142909*
X142364Y232250*
X142000Y232750*
X146182Y235500D02*
X146909Y232000D01*
X147636Y235500D02*
X146909Y232000D01*
X147636Y235500D02*
X148364Y232000D01*
X149091Y235500D02*
X148364Y232000D01*
X150727Y237250D02*
X150909Y237000D01*
X151091Y237250*
X150909Y237500*
X150727Y237250*
X150909Y235500D02*
Y232000D01*
X153273Y237250D02*
Y233000D01*
X153455Y232250*
X153818Y232000*
X154182*
X152727Y235500D02*
X154000D01*
X158000Y234750D02*
X157636Y235250D01*
X157273Y235500*
X156727*
X156364Y235250*
X156000Y234750*
X155818Y234000*
Y233500*
X156000Y232750*
X156364Y232250*
X156727Y232000*
X157273*
X157636Y232250*
X158000Y232750*
X159636Y237250D02*
Y232000D01*
Y234500D02*
X160182Y235250D01*
X160545Y235500*
X161091*
X161455Y235250*
X161636Y234500*
Y232000*
X163273Y234000D02*
X165455D01*
Y234500*
X165273Y235000*
X165091Y235250*
X164727Y235500*
X164182*
X163818Y235250*
X163455Y234750*
X163273Y234000*
Y233500*
X163455Y232750*
X163818Y232250*
X164182Y232000*
X164727*
X165091Y232250*
X165455Y232750*
X169091Y234750D02*
X168909Y235250D01*
X168364Y235500*
X167818*
X167273Y235250*
X167091Y234750*
X167273Y234250*
X167636Y234000*
X168545Y233750*
X168909Y233500*
X169091Y233000*
Y232750*
X168909Y232250*
X168364Y232000*
X167818*
X167273Y232250*
X167091Y232750*
X354727Y345000D02*
X354545Y345500D01*
X354182Y346000*
X353818Y346250*
X353091*
X352727Y346000*
X352364Y345500*
X352182Y345000*
X352000Y344250*
Y343000*
X352182Y342250*
X352364Y341750*
X352727Y341250*
X353091Y341000*
X353818*
X354182Y341250*
X354545Y341750*
X354727Y342250*
X356364Y346250D02*
Y341000D01*
Y343500D02*
X356909Y344250D01*
X357273Y344500*
X357818*
X358182Y344250*
X358364Y343500*
Y341000*
X360000Y344500D02*
Y341000D01*
Y343000D02*
X360182Y343750D01*
X360545Y344250*
X360909Y344500*
X361455*
X365273D02*
Y340500D01*
X365091Y339750*
X364909Y339500*
X364545Y339250*
X364000*
X363636Y339500*
X365273Y343750D02*
X364909Y344250D01*
X364545Y344500*
X364000*
X363636Y344250*
X363273Y343750*
X363091Y343000*
Y342500*
X363273Y341750*
X363636Y341250*
X364000Y341000*
X364545*
X364909Y341250*
X365273Y341750*
X369636Y345000D02*
X369455Y345500D01*
X369091Y346000*
X368727Y346250*
X368000*
X367636Y346000*
X367273Y345500*
X367091Y345000*
X366909Y344250*
Y343000*
X367091Y342250*
X367273Y341750*
X367636Y341250*
X368000Y341000*
X368727*
X369091Y341250*
X369455Y341750*
X369636Y342250*
X371818Y346250D02*
Y342000D01*
X372000Y341250*
X372364Y341000*
X372727*
X371273Y344500D02*
X372545D01*
X374364Y346250D02*
Y341000D01*
X376000Y344500D02*
Y341000D01*
Y343000D02*
X376182Y343750D01*
X376545Y344250*
X376909Y344500*
X377455*
X241000Y183250D02*
Y178000D01*
Y183250D02*
X242273D01*
X242818Y183000*
X243182Y182500*
X243364Y182000*
X243545Y181250*
Y180000*
X243364Y179250*
X243182Y178750*
X242818Y178250*
X242273Y178000*
X241000*
X246636Y183250D02*
X245182Y178000D01*
X246636Y183250D02*
X248091Y178000D01*
X245727Y179750D02*
X247545D01*
X252455Y182000D02*
X252273Y182500D01*
X251909Y183000*
X251545Y183250*
X250818*
X250455Y183000*
X250091Y182500*
X249909Y182000*
X249727Y181250*
Y180000*
X249909Y179250*
X250091Y178750*
X250455Y178250*
X250818Y178000*
X251545*
X251909Y178250*
X252273Y178750*
X252455Y179250*
X258273Y183250D02*
Y178000D01*
Y183250D02*
X259727Y178000D01*
X261182Y183250D02*
X259727Y178000D01*
X261182Y183250D02*
Y178000D01*
X262818Y181500D02*
Y179000D01*
X263000Y178250*
X263364Y178000*
X263909*
X264273Y178250*
X264818Y179000*
Y181500D02*
Y178000D01*
X266455Y181500D02*
X268455Y178000D01*
Y181500D02*
X266455Y178000D01*
X139000Y150250D02*
Y145000D01*
Y150250D02*
X141364D01*
X139000Y147750D02*
X140455D01*
X139000Y145000D02*
X141364D01*
X145182Y148500D02*
Y145000D01*
Y147750D02*
X144818Y148250D01*
X144455Y148500*
X143909*
X143545Y148250*
X143182Y147750*
X143000Y147000*
Y146500*
X143182Y145750*
X143545Y145250*
X143909Y145000*
X144455*
X144818Y145250*
X145182Y145750*
X146818Y148500D02*
Y145000D01*
Y147000D02*
X147000Y147750D01*
X147364Y148250*
X147727Y148500*
X148273*
X149909D02*
Y143250D01*
Y147750D02*
X150273Y148250D01*
X150636Y148500*
X151182*
X151545Y148250*
X151909Y147750*
X152091Y147000*
Y146500*
X151909Y145750*
X151545Y145250*
X151182Y145000*
X150636*
X150273Y145250*
X149909Y145750*
X153727Y150250D02*
Y145000D01*
Y147500D02*
X154273Y148250D01*
X154636Y148500*
X155182*
X155545Y148250*
X155727Y147500*
Y145000*
X158273Y148500D02*
X157909Y148250D01*
X157545Y147750*
X157364Y147000*
Y146500*
X157545Y145750*
X157909Y145250*
X158273Y145000*
X158818*
X159182Y145250*
X159545Y145750*
X159727Y146500*
Y147000*
X159545Y147750*
X159182Y148250*
X158818Y148500*
X158273*
X161364D02*
Y145000D01*
Y147500D02*
X161909Y148250D01*
X162273Y148500*
X162818*
X163182Y148250*
X163364Y147500*
Y145000*
X165000Y147000D02*
X167182D01*
Y147500*
X167000Y148000*
X166818Y148250*
X166455Y148500*
X165909*
X165545Y148250*
X165182Y147750*
X165000Y147000*
Y146500*
X165182Y145750*
X165545Y145250*
X165909Y145000*
X166455*
X166818Y145250*
X167182Y145750*
X154545Y108500D02*
X154182Y109000D01*
X153636Y109250*
X152909*
X152364Y109000*
X152000Y108500*
Y108000*
X152182Y107500*
X152364Y107250*
X152727Y107000*
X153818Y106500*
X154182Y106250*
X154364Y106000*
X154545Y105500*
Y104750*
X154182Y104250*
X153636Y104000*
X152909*
X152364Y104250*
X152000Y104750*
X156182Y107500D02*
Y102250D01*
Y106750D02*
X156545Y107250D01*
X156909Y107500*
X157455*
X157818Y107250*
X158182Y106750*
X158364Y106000*
Y105500*
X158182Y104750*
X157818Y104250*
X157455Y104000*
X156909*
X156545Y104250*
X156182Y104750*
X160000Y106000D02*
X162182D01*
Y106500*
X162000Y107000*
X161818Y107250*
X161455Y107500*
X160909*
X160545Y107250*
X160182Y106750*
X160000Y106000*
Y105500*
X160182Y104750*
X160545Y104250*
X160909Y104000*
X161455*
X161818Y104250*
X162182Y104750*
X166000Y107500D02*
Y104000D01*
Y106750D02*
X165636Y107250D01*
X165273Y107500*
X164727*
X164364Y107250*
X164000Y106750*
X163818Y106000*
Y105500*
X164000Y104750*
X164364Y104250*
X164727Y104000*
X165273*
X165636Y104250*
X166000Y104750*
X167636Y109250D02*
Y104000D01*
X169455Y107500D02*
X167636Y105000D01*
X168364Y106000D02*
X169636Y104000D01*
X171273Y106000D02*
X173455D01*
Y106500*
X173273Y107000*
X173091Y107250*
X172727Y107500*
X172182*
X171818Y107250*
X171455Y106750*
X171273Y106000*
Y105500*
X171455Y104750*
X171818Y104250*
X172182Y104000*
X172727*
X173091Y104250*
X173455Y104750*
X175091Y107500D02*
Y104000D01*
Y106000D02*
X175273Y106750D01*
X175636Y107250*
X176000Y107500*
X176545*
X103000Y204250D02*
Y200500D01*
X103182Y199750*
X103545Y199250*
X104091Y199000*
X104455*
X105000Y199250*
X105364Y199750*
X105545Y200500*
Y204250*
X109727Y203500D02*
X109364Y204000D01*
X108818Y204250*
X108091*
X107545Y204000*
X107182Y203500*
Y203000*
X107364Y202500*
X107545Y202250*
X107909Y202000*
X109000Y201500*
X109364Y201250*
X109545Y201000*
X109727Y200500*
Y199750*
X109364Y199250*
X108818Y199000*
X108091*
X107545Y199250*
X107182Y199750*
X111364Y204250D02*
Y199000D01*
Y204250D02*
X113000D01*
X113545Y204000*
X113727Y203750*
X113909Y203250*
Y202750*
X113727Y202250*
X113545Y202000*
X113000Y201750*
X111364D02*
X113000D01*
X113545Y201500*
X113727Y201250*
X113909Y200750*
Y200000*
X113727Y199500*
X113545Y199250*
X113000Y199000*
X111364*
X104091Y221250D02*
X103727Y221000D01*
X103364Y220500*
X103182Y220000*
X103000Y219250*
Y218000*
X103182Y217250*
X103364Y216750*
X103727Y216250*
X104091Y216000*
X104818*
X105182Y216250*
X105545Y216750*
X105727Y217250*
X105909Y218000*
Y219250*
X105727Y220000*
X105545Y220500*
X105182Y221000*
X104818Y221250*
X104091*
X107545D02*
Y217500D01*
X107727Y216750*
X108091Y216250*
X108636Y216000*
X109000*
X109545Y216250*
X109909Y216750*
X110091Y217500*
Y221250*
X113000D02*
Y216000D01*
X111727Y221250D02*
X114273D01*
X104455Y296250D02*
X103000Y291000D01*
X104455Y296250D02*
X105909Y291000D01*
X103545Y292750D02*
X105364D01*
X107545Y296250D02*
Y291000D01*
Y296250D02*
X110091Y291000D01*
Y296250D02*
Y291000D01*
X113000Y296250D02*
Y291000D01*
X111727Y296250D02*
X114273D01*
X438727Y309000D02*
X438545Y309500D01*
X438182Y310000*
X437818Y310250*
X437091*
X436727Y310000*
X436364Y309500*
X436182Y309000*
X436000Y308250*
Y307000*
X436182Y306250*
X436364Y305750*
X436727Y305250*
X437091Y305000*
X437818*
X438182Y305250*
X438545Y305750*
X438727Y306250*
Y307000*
X437818D02*
X438727D01*
X440364Y310250D02*
Y305000D01*
Y310250D02*
X442000D01*
X442545Y310000*
X442727Y309750*
X442909Y309250*
Y308500*
X442727Y308000*
X442545Y307750*
X442000Y307500*
X440364*
X447091Y309500D02*
X446727Y310000D01*
X446182Y310250*
X445455*
X444909Y310000*
X444545Y309500*
Y309000*
X444727Y308500*
X444909Y308250*
X445273Y308000*
X446364Y307500*
X446727Y307250*
X446909Y307000*
X447091Y306500*
Y305750*
X446727Y305250*
X446182Y305000*
X445455*
X444909Y305250*
X444545Y305750*
X454364Y310250D02*
X452909Y305000D01*
X454364Y310250D02*
X455818Y305000D01*
X453455Y306750D02*
X455273D01*
X457455Y308500D02*
Y305000D01*
Y307500D02*
X458000Y308250D01*
X458364Y308500*
X458909*
X459273Y308250*
X459455Y307500*
Y305000*
X461636Y310250D02*
Y306000D01*
X461818Y305250*
X462182Y305000*
X462545*
X461091Y308500D02*
X462364D01*
X344000Y125250D02*
Y120000D01*
Y125250D02*
X345273D01*
X345818Y125000*
X346182Y124500*
X346364Y124000*
X346545Y123250*
Y122000*
X346364Y121250*
X346182Y120750*
X345818Y120250*
X345273Y120000*
X344000*
X348182Y122000D02*
X350364D01*
Y122500*
X350182Y123000*
X350000Y123250*
X349636Y123500*
X349091*
X348727Y123250*
X348364Y122750*
X348182Y122000*
Y121500*
X348364Y120750*
X348727Y120250*
X349091Y120000*
X349636*
X350000Y120250*
X350364Y120750*
X352000Y125250D02*
Y120000D01*
Y122750D02*
X352364Y123250D01*
X352727Y123500*
X353273*
X353636Y123250*
X354000Y122750*
X354182Y122000*
Y121500*
X354000Y120750*
X353636Y120250*
X353273Y120000*
X352727*
X352364Y120250*
X352000Y120750*
X355818Y123500D02*
Y121000D01*
X356000Y120250*
X356364Y120000*
X356909*
X357273Y120250*
X357818Y121000*
Y123500D02*
Y120000D01*
X361636Y123500D02*
Y119500D01*
X361455Y118750*
X361273Y118500*
X360909Y118250*
X360364*
X360000Y118500*
X361636Y122750D02*
X361273Y123250D01*
X360909Y123500*
X360364*
X360000Y123250*
X359636Y122750*
X359455Y122000*
Y121500*
X359636Y120750*
X360000Y120250*
X360364Y120000*
X360909*
X361273Y120250*
X361636Y120750*
G54D12*
X196063Y177906D02*
X199508D01*
Y177167*
X200492*
Y177906*
X203937*
Y166094*
X196063*
Y177906*
Y201906D02*
X199508D01*
Y201167*
X200492*
Y201906*
X203937*
Y190094*
X196063*
Y201906*
X144299Y187354D02*
X138787D01*
Y188560*
X137213*
Y187354*
X131701*
Y206646*
X144299*
Y187354*
X201890Y287646D02*
Y268354D01*
X188110*
Y287646*
X201890*
X187840Y287410D02*
X180760D01*
Y284330*
X201890Y251646D02*
Y232354D01*
X188110*
Y251646*
X201890*
X187840Y251410D02*
X180760D01*
Y248330*
X237571Y168921D02*
X241446D01*
Y168306*
X242554*
Y168921*
X246429*
Y159079*
X237571*
Y168921*
X233339Y169512D02*
X231764Y171087D01*
X234913*
X233339Y169512*
X213717Y337957D02*
X220090D01*
Y336837*
X221910*
Y337957*
X228283*
Y320043*
X213717*
Y337957*
X206433Y336087D02*
Y338055D01*
X210764*
X455088Y188000D02*
G03X455088I-1245J0D01*
G01X451087Y193807D02*
X451402D01*
Y182193*
X451087*
X436913Y193807D02*
X436598D01*
Y182193*
X436913*
X441244Y193807D02*
X446756D01*
Y182193D02*
X441244D01*
X414906Y153035D02*
Y149504D01*
X414167*
Y148496*
X414906*
Y144965*
X403094*
Y153035*
X414906*
X269094Y126346D02*
Y119654D01*
X280906Y126346D02*
Y119654D01*
X269094Y117882D02*
X267520Y119457D01*
Y116307*
X269094Y117882*
X147031Y284031D02*
X150969D01*
Y287969*
X147031*
Y284031*
X145063Y293087D02*
X141913D01*
Y289937*
X147031Y308031D02*
X150969D01*
Y311969*
X147031*
Y308031*
X145063Y317087D02*
X141913D01*
Y313937*
X150969Y332031D02*
Y335969D01*
X147031*
Y332031*
X150969*
X141913Y330063D02*
Y326913D01*
X145063*
X150969Y260031D02*
Y263969D01*
X147031*
Y260031*
X150969*
X141913Y258063D02*
Y254913D01*
X145063*
X413232Y175244D02*
Y180756D01*
X404768Y175244D02*
Y180756D01*
X412937Y182724D02*
X414512Y184299D01*
Y181150*
X412937Y182724*
X287819Y222181D02*
Y169819D01*
X340181*
Y222181*
X338213*
X337622Y221000*
X337031Y222181*
X287819*
X339197Y226709D02*
X340772Y228283D01*
Y225134*
X339197Y226709*
X414675Y157661D02*
X415299Y158286D01*
Y157037*
X414675Y157661*
X415049Y158036D02*
X415299D01*
G54D42*
G54D53*
X256000Y313000D02*
X257100D01*
X258000D02*
X258900D01*
X259800D02*
X260900D01*
X262000D02*
X263100D01*
X265000D02*
X266500D01*
X268400D02*
X269500D01*
X270400D02*
X271500D01*
X273000D02*
X274100D01*
X274800D02*
X275900D01*
X277600D02*
X279100D01*
X281000D02*
X282100D01*
X285400D02*
X286700D01*
X288400D02*
X289900D01*
X293800D02*
X295500D01*
X298600D02*
X299900D01*
X301800D02*
X302900D01*
X304800D02*
X306100D01*
X307800D02*
X309100D01*
X311000D02*
X312100D01*
X313000D02*
X314100D01*
X317400D02*
X318700D01*
X320800D02*
X322300D01*
X322800D02*
X326500D01*
X328000D02*
X329100D01*
X331600D02*
X332900D01*
X334600D02*
X335900D01*
X337000D02*
X338300D01*
X339000D02*
X340500D01*
X342600D02*
X343900D01*
X256200Y313200D02*
X257300D01*
X258000D02*
X259100D01*
X260000D02*
X261100D01*
X262200D02*
X263300D01*
X264800D02*
X267100D01*
X268600D02*
X269700D01*
X270600D02*
X271700D01*
X272800D02*
X274500D01*
X274800D02*
X275900D01*
X277400D02*
X279700D01*
X281200D02*
X282300D01*
X285600D02*
X286900D01*
X288400D02*
X289900D01*
X293400D02*
X295900D01*
X298200D02*
X300300D01*
X302000D02*
X303100D01*
X304600D02*
X306100D01*
X307400D02*
X309500D01*
X311200D02*
X312300D01*
X313200D02*
X314300D01*
X317600D02*
X318900D01*
X320800D02*
X322100D01*
X323000D02*
X326700D01*
X328200D02*
X329300D01*
X331800D02*
X333100D01*
X334800D02*
X336100D01*
X337200D02*
X338500D01*
X339200D02*
X340500D01*
X342600D02*
X343900D01*
X256200Y313400D02*
X257300D01*
X258000D02*
X259100D01*
X260000D02*
X261100D01*
X262200D02*
X263300D01*
X264600D02*
X267300D01*
X268600D02*
X269700D01*
X270600D02*
X271700D01*
X272600D02*
X275900D01*
X277200D02*
X279900D01*
X281200D02*
X282300D01*
X285600D02*
X286900D01*
X288400D02*
X289700D01*
X293200D02*
X296300D01*
X298000D02*
X300700D01*
X302000D02*
X303100D01*
X304400D02*
X306300D01*
X307200D02*
X309900D01*
X311200D02*
X312300D01*
X313200D02*
X314300D01*
X317600D02*
X318900D01*
X320800D02*
X322100D01*
X323000D02*
X326700D01*
X328200D02*
X329300D01*
X331800D02*
X333100D01*
X334800D02*
X336100D01*
X337200D02*
X338500D01*
X339400D02*
X340700D01*
X342600D02*
X343900D01*
X256200Y313600D02*
X257300D01*
X258000D02*
X259300D01*
X260000D02*
X261100D01*
X262200D02*
X263300D01*
X264400D02*
X267500D01*
X268600D02*
X269700D01*
X270600D02*
X271700D01*
X272600D02*
X275900D01*
X277200D02*
X280100D01*
X281200D02*
X282300D01*
X285600D02*
X286900D01*
X288400D02*
X289700D01*
X293200D02*
X296500D01*
X298000D02*
X300900D01*
X302000D02*
X303100D01*
X304400D02*
X306300D01*
X307200D02*
X310100D01*
X311200D02*
X312300D01*
X313200D02*
X314300D01*
X317600D02*
X318900D01*
X320600D02*
X322100D01*
X323000D02*
X326700D01*
X328400D02*
X329500D01*
X331800D02*
X333100D01*
X334800D02*
X336100D01*
X337200D02*
X338500D01*
X339400D02*
X340900D01*
X342600D02*
X343900D01*
X256400Y313800D02*
X257500D01*
X258200D02*
X259500D01*
X260200D02*
X261300D01*
X262400D02*
X263500D01*
X264400D02*
X265700D01*
X266400D02*
X267700D01*
X268800D02*
X269900D01*
X270800D02*
X271900D01*
X272800D02*
X273900D01*
X274600D02*
X276100D01*
X277000D02*
X278300D01*
X279200D02*
X280300D01*
X281400D02*
X282500D01*
X285800D02*
X287100D01*
X288200D02*
X289700D01*
X293000D02*
X296700D01*
X297800D02*
X299100D01*
X299800D02*
X301100D01*
X302200D02*
X303300D01*
X304600D02*
X305700D01*
X307000D02*
X308300D01*
X309000D02*
X310300D01*
X311400D02*
X312500D01*
X313400D02*
X314500D01*
X317800D02*
X319100D01*
X320600D02*
X321900D01*
X323200D02*
X326900D01*
X328400D02*
X329500D01*
X332000D02*
X333300D01*
X335000D02*
X336300D01*
X337400D02*
X338700D01*
X339600D02*
X343900D01*
X256400Y314000D02*
X257500D01*
X258200D02*
X259500D01*
X260200D02*
X261300D01*
X262400D02*
X263500D01*
X264400D02*
X265500D01*
X266600D02*
X267900D01*
X268800D02*
X269900D01*
X270800D02*
X271900D01*
X272800D02*
X273900D01*
X275000D02*
X276100D01*
X277000D02*
X278100D01*
X281400D02*
X282500D01*
X285800D02*
X287100D01*
X288200D02*
X289700D01*
X293000D02*
X294500D01*
X295400D02*
X296900D01*
X297800D02*
X298900D01*
X300000D02*
X301100D01*
X302200D02*
X303300D01*
X304600D02*
X305700D01*
X307000D02*
X308100D01*
X309200D02*
X310300D01*
X311400D02*
X312500D01*
X313400D02*
X314500D01*
X317800D02*
X319100D01*
X320600D02*
X321900D01*
X323200D02*
X324500D01*
X328600D02*
X329700D01*
X332000D02*
X333300D01*
X335000D02*
X336300D01*
X337400D02*
X338700D01*
X339800D02*
X343900D01*
X256400Y314200D02*
X257500D01*
X258200D02*
X259700D01*
X260200D02*
X261300D01*
X262400D02*
X263500D01*
X264400D02*
X265500D01*
X266800D02*
X267300D01*
X268800D02*
X269900D01*
X270800D02*
X271900D01*
X273000D02*
X274100D01*
X275000D02*
X276100D01*
X277000D02*
X278100D01*
X281400D02*
X282500D01*
X285800D02*
X287100D01*
X288200D02*
X289500D01*
X293000D02*
X294300D01*
X295600D02*
X297100D01*
X297800D02*
X298900D01*
X300200D02*
X301300D01*
X302200D02*
X303300D01*
X304600D02*
X305700D01*
X307000D02*
X308100D01*
X309400D02*
X310500D01*
X311400D02*
X312500D01*
X313400D02*
X314500D01*
X317800D02*
X319300D01*
X320600D02*
X321900D01*
X323200D02*
X324500D01*
X328600D02*
X329700D01*
X332000D02*
X333300D01*
X335000D02*
X336300D01*
X337400D02*
X338700D01*
X339800D02*
X343900D01*
X256600Y314400D02*
X257700D01*
X258200D02*
X259700D01*
X260400D02*
X261500D01*
X262600D02*
X263700D01*
X264600D02*
X265700D01*
X269000D02*
X270100D01*
X271000D02*
X272100D01*
X273200D02*
X274700D01*
X275200D02*
X276300D01*
X277200D02*
X280700D01*
X281600D02*
X282700D01*
X286000D02*
X287300D01*
X288000D02*
X289500D01*
X293000D02*
X294300D01*
X295800D02*
X297100D01*
X298000D02*
X299100D01*
X300400D02*
X301300D01*
X302400D02*
X303500D01*
X304800D02*
X305900D01*
X307200D02*
X308300D01*
X309600D02*
X310500D01*
X311600D02*
X312700D01*
X313600D02*
X314700D01*
X318000D02*
X319500D01*
X320400D02*
X321700D01*
X323400D02*
X324700D01*
X328800D02*
X329900D01*
X332200D02*
X333500D01*
X335200D02*
X336500D01*
X337600D02*
X338900D01*
X340000D02*
X343900D01*
X256600Y314600D02*
X257700D01*
X258200D02*
X259900D01*
X260400D02*
X261500D01*
X262600D02*
X263700D01*
X264600D02*
X265700D01*
X269000D02*
X270100D01*
X271000D02*
X272100D01*
X273400D02*
X276300D01*
X277200D02*
X280700D01*
X281600D02*
X282700D01*
X286000D02*
X287300D01*
X288000D02*
X289500D01*
X293000D02*
X294300D01*
X296000D02*
X296900D01*
X298000D02*
X299100D01*
X300400D02*
X301500D01*
X302400D02*
X303500D01*
X304800D02*
X305900D01*
X307200D02*
X308300D01*
X309600D02*
X310700D01*
X311600D02*
X312700D01*
X313600D02*
X314700D01*
X318000D02*
X319900D01*
X320400D02*
X321700D01*
X323400D02*
X324700D01*
X329000D02*
X329900D01*
X332200D02*
X333500D01*
X335200D02*
X336500D01*
X337600D02*
X338900D01*
X340200D02*
X343900D01*
X256600Y314800D02*
X257700D01*
X258200D02*
X259900D01*
X260400D02*
X261500D01*
X262600D02*
X263700D01*
X264600D02*
X265700D01*
X269000D02*
X270100D01*
X271000D02*
X272100D01*
X274200D02*
X276300D01*
X277200D02*
X280700D01*
X281600D02*
X282700D01*
X286000D02*
X289300D01*
X293000D02*
X294300D01*
X296000D02*
X296300D01*
X298000D02*
X299100D01*
X300400D02*
X301500D01*
X302400D02*
X303500D01*
X304800D02*
X305900D01*
X307200D02*
X308300D01*
X309600D02*
X310700D01*
X311600D02*
X312700D01*
X313600D02*
X314700D01*
X318000D02*
X320100D01*
X320400D02*
X321700D01*
X323400D02*
X324700D01*
X329000D02*
X330100D01*
X332200D02*
X336500D01*
X337600D02*
X338900D01*
X340200D02*
X343900D01*
X256800Y315000D02*
X257900D01*
X258200D02*
X260100D01*
X260600D02*
X261700D01*
X262800D02*
X263900D01*
X264800D02*
X265900D01*
X269200D02*
X270300D01*
X271000D02*
X272300D01*
X275000D02*
X276500D01*
X277400D02*
X278500D01*
X279800D02*
X280700D01*
X281800D02*
X282900D01*
X286200D02*
X289500D01*
X293200D02*
X294500D01*
X298200D02*
X299300D01*
X300400D02*
X301500D01*
X302600D02*
X303700D01*
X305000D02*
X306100D01*
X307400D02*
X308500D01*
X309600D02*
X310700D01*
X311800D02*
X312900D01*
X313600D02*
X314900D01*
X318200D02*
X321500D01*
X323600D02*
X327100D01*
X329200D02*
X330300D01*
X332400D02*
X336700D01*
X337800D02*
X339100D01*
X340400D02*
X341700D01*
X342600D02*
X343900D01*
X256800Y315200D02*
X257900D01*
X258200D02*
X259100D01*
X259400D02*
X260300D01*
X260600D02*
X261700D01*
X262800D02*
X263900D01*
X264800D02*
X266100D01*
X267200D02*
X267700D01*
X269200D02*
X270500D01*
X271000D02*
X272300D01*
X274000D02*
X274500D01*
X275400D02*
X276500D01*
X277400D02*
X278500D01*
X279800D02*
X280700D01*
X281800D02*
X282900D01*
X286200D02*
X289900D01*
X293200D02*
X294500D01*
X298200D02*
X299500D01*
X300400D02*
X301500D01*
X302600D02*
X303700D01*
X305000D02*
X306100D01*
X307400D02*
X308700D01*
X309600D02*
X310700D01*
X311800D02*
X313100D01*
X313600D02*
X314900D01*
X318200D02*
X321500D01*
X323600D02*
X327100D01*
X329400D02*
X330500D01*
X332400D02*
X336700D01*
X337800D02*
X339100D01*
X340600D02*
X341900D01*
X342600D02*
X343900D01*
X256800Y315400D02*
X257900D01*
X258200D02*
X259100D01*
X259400D02*
X260300D01*
X260600D02*
X261700D01*
X262800D02*
X263900D01*
X265000D02*
X266300D01*
X267000D02*
X268300D01*
X269200D02*
X272300D01*
X273400D02*
X274700D01*
X275400D02*
X276500D01*
X277600D02*
X278900D01*
X279600D02*
X280700D01*
X281800D02*
X282900D01*
X286200D02*
X290100D01*
X293200D02*
X294500D01*
X298400D02*
X299700D01*
X300400D02*
X301500D01*
X302600D02*
X303700D01*
X304600D02*
X306900D01*
X307600D02*
X308900D01*
X309600D02*
X310700D01*
X311800D02*
X314900D01*
X318200D02*
X321500D01*
X323600D02*
X327100D01*
X329600D02*
X330500D01*
X332400D02*
X336700D01*
X337800D02*
X339100D01*
X340600D02*
X341900D01*
X342600D02*
X343900D01*
X257000Y315600D02*
X258100D01*
X258400D02*
X259100D01*
X259600D02*
X260500D01*
X260800D02*
X261900D01*
X263000D02*
X264100D01*
X265200D02*
X268300D01*
X269400D02*
X272300D01*
X273600D02*
X276500D01*
X277800D02*
X280700D01*
X282000D02*
X283100D01*
X286400D02*
X290300D01*
X293400D02*
X294700D01*
X298600D02*
X301500D01*
X302800D02*
X303900D01*
X304800D02*
X307100D01*
X307800D02*
X310700D01*
X312000D02*
X314900D01*
X318400D02*
X321300D01*
X323800D02*
X327300D01*
X329800D02*
X330700D01*
X332600D02*
X336900D01*
X338000D02*
X339300D01*
X340800D02*
X342100D01*
X342600D02*
X343900D01*
X257000Y315800D02*
X258100D01*
X258400D02*
X259100D01*
X259800D02*
X260500D01*
X260800D02*
X261900D01*
X263000D02*
X264100D01*
X265400D02*
X268300D01*
X269400D02*
X272300D01*
X273800D02*
X276500D01*
X278000D02*
X280700D01*
X282000D02*
X283100D01*
X286400D02*
X287700D01*
X289000D02*
X290500D01*
X293400D02*
X294700D01*
X296400D02*
X296700D01*
X298800D02*
X301500D01*
X302800D02*
X303900D01*
X304800D02*
X307100D01*
X308000D02*
X310700D01*
X312000D02*
X314900D01*
X318400D02*
X321500D01*
X323800D02*
X327300D01*
X330000D02*
X330900D01*
X332600D02*
X336900D01*
X338000D02*
X339300D01*
X341000D02*
X342300D01*
X342600D02*
X343900D01*
X257000Y316000D02*
X258100D01*
X258400D02*
X259100D01*
X259800D02*
X261900D01*
X263000D02*
X264100D01*
X265800D02*
X268100D01*
X269400D02*
X270500D01*
X270800D02*
X272300D01*
X274000D02*
X276500D01*
X278400D02*
X280500D01*
X282000D02*
X283100D01*
X286400D02*
X287700D01*
X289200D02*
X290500D01*
X293600D02*
X294900D01*
X296400D02*
X297500D01*
X299200D02*
X301300D01*
X302800D02*
X303900D01*
X304800D02*
X307100D01*
X308400D02*
X310500D01*
X312000D02*
X313100D01*
X313400D02*
X314900D01*
X318400D02*
X319700D01*
X320000D02*
X321700D01*
X323800D02*
X325100D01*
X330200D02*
X331100D01*
X332600D02*
X333900D01*
X335600D02*
X336900D01*
X338000D02*
X339300D01*
X341000D02*
X342300D01*
X342600D02*
X343900D01*
X257200Y316200D02*
X259300D01*
X260000D02*
X260700D01*
X261000D02*
X262100D01*
X263200D02*
X264300D01*
X266200D02*
X267700D01*
X269600D02*
X270700D01*
X271200D02*
X272100D01*
X274400D02*
X276100D01*
X278800D02*
X280100D01*
X282200D02*
X283300D01*
X286600D02*
X287900D01*
X289400D02*
X290700D01*
X293600D02*
X295100D01*
X296400D02*
X297700D01*
X299600D02*
X300900D01*
X303000D02*
X304100D01*
X305000D02*
X307300D01*
X308800D02*
X310100D01*
X312200D02*
X313100D01*
X313800D02*
X314700D01*
X318600D02*
X319900D01*
X320400D02*
X322100D01*
X324000D02*
X325300D01*
X330400D02*
X331300D01*
X332800D02*
X334100D01*
X335800D02*
X337100D01*
X338200D02*
X339500D01*
X341200D02*
X343900D01*
X257200Y316400D02*
X259300D01*
X260000D02*
X262100D01*
X269600D02*
X270700D01*
X282200D02*
X283300D01*
X286600D02*
X287900D01*
X289200D02*
X290700D01*
X293800D02*
X295300D01*
X296200D02*
X297700D01*
X303000D02*
X304100D01*
X305400D02*
X306500D01*
X318600D02*
X319900D01*
X320600D02*
X322300D01*
X324000D02*
X325300D01*
X330600D02*
X331700D01*
X332800D02*
X334100D01*
X335800D02*
X337100D01*
X338200D02*
X339500D01*
X341400D02*
X343900D01*
X257200Y316600D02*
X259300D01*
X260200D02*
X262100D01*
X269600D02*
X270700D01*
X282200D02*
X283300D01*
X286600D02*
X290700D01*
X294000D02*
X297700D01*
X303000D02*
X304100D01*
X305400D02*
X306500D01*
X318600D02*
X319900D01*
X320800D02*
X322700D01*
X324000D02*
X327700D01*
X328400D02*
X331900D01*
X332800D02*
X334100D01*
X335800D02*
X337100D01*
X338200D02*
X339500D01*
X341600D02*
X343900D01*
X257400Y316800D02*
X259300D01*
X260200D02*
X262300D01*
X263400D02*
X264500D01*
X269800D02*
X270900D01*
X282400D02*
X283500D01*
X286800D02*
X290700D01*
X294200D02*
X297700D01*
X303200D02*
X304300D01*
X305600D02*
X306700D01*
X318800D02*
X320100D01*
X321200D02*
X322900D01*
X324200D02*
X327900D01*
X328600D02*
X332100D01*
X333000D02*
X334300D01*
X336000D02*
X337300D01*
X338400D02*
X339700D01*
X341600D02*
X343900D01*
X257400Y317000D02*
X259300D01*
X260400D02*
X262300D01*
X263400D02*
X264500D01*
X269800D02*
X270900D01*
X282400D02*
X283500D01*
X286800D02*
X290700D01*
X294400D02*
X297500D01*
X303200D02*
X304300D01*
X305800D02*
X306700D01*
X318800D02*
X320100D01*
X321400D02*
X323100D01*
X324200D02*
X327900D01*
X328600D02*
X332100D01*
X333000D02*
X334300D01*
X336000D02*
X337300D01*
X338400D02*
X339700D01*
X341800D02*
X343900D01*
X257400Y317200D02*
X259300D01*
X260400D02*
X262300D01*
X263400D02*
X264500D01*
X269800D02*
X270900D01*
X282400D02*
X283500D01*
X286800D02*
X290500D01*
X294800D02*
X297300D01*
X303200D02*
X304300D01*
X306200D02*
X306700D01*
X318800D02*
X320100D01*
X321600D02*
X323500D01*
X324200D02*
X327900D01*
X328600D02*
X332100D01*
X333000D02*
X334300D01*
X336000D02*
X337300D01*
X338400D02*
X339700D01*
X342000D02*
X343900D01*
X257600Y317400D02*
X259300D01*
X260600D02*
X262500D01*
X263600D02*
X264700D01*
X270000D02*
X271100D01*
X282600D02*
X283700D01*
X287000D02*
X290300D01*
X295400D02*
X296900D01*
X303400D02*
X304500D01*
X306800D02*
X306900D01*
X319000D02*
X320300D01*
X321800D02*
X323700D01*
X324400D02*
X328100D01*
X328800D02*
X332300D01*
X333200D02*
X334500D01*
X336200D02*
X337500D01*
X338600D02*
X339900D01*
X342000D02*
X343900D01*
X337000Y320000D02*
X347900D01*
X337200Y320200D02*
X348100D01*
X337200Y320400D02*
X348100D01*
X337400Y320600D02*
X348100D01*
X337400Y320800D02*
X348300D01*
X337600Y321000D02*
X348300D01*
X337800Y321200D02*
X348300D01*
X337800Y321400D02*
X348500D01*
X338000Y321600D02*
X348500D01*
X338200Y321800D02*
X348500D01*
X338400Y322000D02*
X348700D01*
X338400Y322200D02*
X348700D01*
X338600Y322400D02*
X348700D01*
X338800Y322600D02*
X348900D01*
X339000Y322800D02*
X348900D01*
X339200Y323000D02*
X343300D01*
X339400Y323200D02*
X343700D01*
X339600Y323400D02*
X343900D01*
X339800Y323600D02*
X344300D01*
X340000Y323800D02*
X344500D01*
X340400Y324000D02*
X344900D01*
X340600Y324200D02*
X345100D01*
X340800Y324400D02*
X345500D01*
X341200Y324600D02*
X345900D01*
X341400Y324800D02*
X346300D01*
X341800Y325000D02*
X346500D01*
X342000Y325200D02*
X346900D01*
X285200Y325400D02*
X288900D01*
X342200D02*
X347300D01*
X283800Y325600D02*
X290300D01*
X342600D02*
X347500D01*
X260400Y325800D02*
X266100D01*
X283000D02*
X291100D01*
X298800D02*
X308900D01*
X319400D02*
X325100D01*
X331600D02*
X338100D01*
X343000D02*
X347900D01*
X260600Y326000D02*
X266300D01*
X282600D02*
X291700D01*
X299000D02*
X310100D01*
X319600D02*
X325300D01*
X331600D02*
X338100D01*
X343200D02*
X348100D01*
X260600Y326200D02*
X266300D01*
X282200D02*
X292300D01*
X299000D02*
X310900D01*
X319600D02*
X325300D01*
X331400D02*
X337900D01*
X343600D02*
X348300D01*
X260600Y326400D02*
X266300D01*
X281800D02*
X292700D01*
X299000D02*
X311700D01*
X319600D02*
X325300D01*
X331400D02*
X337900D01*
X343800D02*
X348700D01*
X260800Y326600D02*
X266500D01*
X281600D02*
X293100D01*
X299200D02*
X312100D01*
X319800D02*
X325500D01*
X331400D02*
X337900D01*
X344200D02*
X348900D01*
X260800Y326800D02*
X266500D01*
X281400D02*
X293500D01*
X299200D02*
X312700D01*
X319800D02*
X325500D01*
X331400D02*
X337900D01*
X344600D02*
X349100D01*
X260800Y327000D02*
X266500D01*
X281200D02*
X293700D01*
X299200D02*
X313100D01*
X319800D02*
X325500D01*
X331400D02*
X337900D01*
X344800D02*
X349300D01*
X261000Y327200D02*
X266700D01*
X281000D02*
X294100D01*
X299400D02*
X313300D01*
X320000D02*
X325700D01*
X331200D02*
X337700D01*
X345200D02*
X349500D01*
X261000Y327400D02*
X266700D01*
X280800D02*
X294300D01*
X299400D02*
X313700D01*
X320000D02*
X325700D01*
X331200D02*
X337700D01*
X345400D02*
X349700D01*
X261000Y327600D02*
X266700D01*
X280800D02*
X294700D01*
X299400D02*
X313900D01*
X320000D02*
X325700D01*
X331200D02*
X337700D01*
X345800D02*
X349900D01*
X261200Y327800D02*
X266900D01*
X280600D02*
X294900D01*
X299600D02*
X314300D01*
X320200D02*
X325900D01*
X331200D02*
X337700D01*
X346000D02*
X350100D01*
X261200Y328000D02*
X266900D01*
X280600D02*
X295100D01*
X299600D02*
X314500D01*
X320200D02*
X325900D01*
X331000D02*
X337700D01*
X346400D02*
X350300D01*
X261200Y328200D02*
X266900D01*
X280600D02*
X295300D01*
X299600D02*
X314900D01*
X320200D02*
X325900D01*
X331000D02*
X337500D01*
X346600D02*
X350500D01*
X261400Y328400D02*
X267100D01*
X280400D02*
X295500D01*
X299800D02*
X315100D01*
X320400D02*
X326100D01*
X331000D02*
X337500D01*
X346800D02*
X350500D01*
X261400Y328600D02*
X267100D01*
X280400D02*
X295700D01*
X299800D02*
X315300D01*
X320400D02*
X326100D01*
X331000D02*
X337500D01*
X347000D02*
X350700D01*
X261400Y328800D02*
X267100D01*
X280400D02*
X295900D01*
X299800D02*
X315500D01*
X320400D02*
X326100D01*
X331000D02*
X337500D01*
X347200D02*
X350900D01*
X261600Y329000D02*
X267300D01*
X280400D02*
X296100D01*
X300000D02*
X315700D01*
X320600D02*
X326300D01*
X330800D02*
X337500D01*
X342800D02*
X343900D01*
X347400D02*
X350900D01*
X261600Y329200D02*
X267300D01*
X280200D02*
X287500D01*
X289400D02*
X296300D01*
X300000D02*
X315900D01*
X320600D02*
X326300D01*
X330800D02*
X337300D01*
X340600D02*
X343900D01*
X347600D02*
X351100D01*
X261600Y329400D02*
X267300D01*
X280200D02*
X286900D01*
X290200D02*
X296500D01*
X300000D02*
X316100D01*
X320600D02*
X326300D01*
X330800D02*
X337300D01*
X340400D02*
X344100D01*
X347600D02*
X351100D01*
X261800Y329600D02*
X267500D01*
X280200D02*
X286700D01*
X290600D02*
X296700D01*
X300200D02*
X316300D01*
X320800D02*
X326500D01*
X330800D02*
X337300D01*
X340600D02*
X344100D01*
X347600D02*
X351100D01*
X261800Y329800D02*
X267500D01*
X280200D02*
X286500D01*
X290800D02*
X296700D01*
X300200D02*
X316500D01*
X320800D02*
X326500D01*
X330800D02*
X337300D01*
X340600D02*
X344300D01*
X347800D02*
X351300D01*
X261800Y330000D02*
X267500D01*
X280200D02*
X286300D01*
X291000D02*
X296900D01*
X300200D02*
X316700D01*
X320800D02*
X326500D01*
X330600D02*
X337100D01*
X340800D02*
X344300D01*
X347800D02*
X351300D01*
X262000Y330200D02*
X267700D01*
X280200D02*
X286300D01*
X291200D02*
X297100D01*
X300400D02*
X306100D01*
X309200D02*
X316700D01*
X321000D02*
X326700D01*
X330600D02*
X337100D01*
X340800D02*
X344500D01*
X347800D02*
X351300D01*
X262000Y330400D02*
X267700D01*
X280200D02*
X286100D01*
X291400D02*
X297100D01*
X300400D02*
X306100D01*
X310000D02*
X316900D01*
X321000D02*
X326700D01*
X330600D02*
X337100D01*
X341000D02*
X344700D01*
X347800D02*
X351300D01*
X262000Y330600D02*
X267700D01*
X280200D02*
X286100D01*
X291600D02*
X297300D01*
X300400D02*
X306100D01*
X310600D02*
X317100D01*
X321000D02*
X326700D01*
X330600D02*
X337100D01*
X341200D02*
X344900D01*
X347600D02*
X351500D01*
X262200Y330800D02*
X267900D01*
X280400D02*
X286100D01*
X291800D02*
X297300D01*
X300600D02*
X306300D01*
X310800D02*
X317300D01*
X321200D02*
X326900D01*
X330600D02*
X337100D01*
X341200D02*
X345300D01*
X347400D02*
X351500D01*
X262200Y331000D02*
X267900D01*
X280400D02*
X286100D01*
X291800D02*
X297500D01*
X300600D02*
X306300D01*
X311200D02*
X317300D01*
X321200D02*
X326900D01*
X330400D02*
X336900D01*
X341400D02*
X345700D01*
X347200D02*
X351500D01*
X262200Y331200D02*
X267900D01*
X280400D02*
X286100D01*
X291800D02*
X297500D01*
X300600D02*
X306300D01*
X311400D02*
X317500D01*
X321200D02*
X326900D01*
X330400D02*
X336900D01*
X341600D02*
X351300D01*
X262400Y331400D02*
X268100D01*
X280400D02*
X286100D01*
X292000D02*
X297700D01*
X300800D02*
X306500D01*
X311600D02*
X317700D01*
X321400D02*
X327100D01*
X330400D02*
X336900D01*
X341800D02*
X351300D01*
X262400Y331600D02*
X268100D01*
X280400D02*
X286100D01*
X292000D02*
X297700D01*
X300800D02*
X306500D01*
X311800D02*
X317700D01*
X321400D02*
X327100D01*
X330400D02*
X336900D01*
X342000D02*
X351300D01*
X262400Y331800D02*
X268100D01*
X280400D02*
X286100D01*
X291800D02*
X297700D01*
X300800D02*
X306500D01*
X312000D02*
X317900D01*
X321400D02*
X327100D01*
X330200D02*
X336700D01*
X342200D02*
X351300D01*
X262600Y332000D02*
X268300D01*
X281200D02*
X286100D01*
X291800D02*
X297900D01*
X301000D02*
X306700D01*
X312200D02*
X317900D01*
X321600D02*
X327300D01*
X330200D02*
X336700D01*
X342400D02*
X351100D01*
X262600Y332200D02*
X268300D01*
X284600D02*
X286100D01*
X291800D02*
X297900D01*
X301000D02*
X306700D01*
X312200D02*
X318100D01*
X321600D02*
X327300D01*
X330200D02*
X336700D01*
X342600D02*
X351100D01*
X262600Y332400D02*
X268300D01*
X291600D02*
X297900D01*
X301000D02*
X306700D01*
X312400D02*
X318100D01*
X321600D02*
X327300D01*
X330200D02*
X336500D01*
X342800D02*
X350900D01*
X262800Y332600D02*
X268500D01*
X291400D02*
X297900D01*
X301200D02*
X306900D01*
X312600D02*
X318300D01*
X321800D02*
X327500D01*
X330000D02*
X336500D01*
X343200D02*
X350700D01*
X262800Y332800D02*
X268500D01*
X291200D02*
X298100D01*
X301200D02*
X306900D01*
X312600D02*
X318300D01*
X321800D02*
X327500D01*
X330000D02*
X336300D01*
X343600D02*
X350500D01*
X262800Y333000D02*
X273500D01*
X290600D02*
X298100D01*
X301200D02*
X306900D01*
X312800D02*
X318500D01*
X321800D02*
X327500D01*
X329800D02*
X336300D01*
X344000D02*
X350100D01*
X263000Y333200D02*
X274500D01*
X290200D02*
X298100D01*
X301400D02*
X307100D01*
X312800D02*
X318500D01*
X322000D02*
X327700D01*
X329600D02*
X336100D01*
X344600D02*
X349700D01*
X263000Y333400D02*
X275300D01*
X289400D02*
X298100D01*
X301400D02*
X307100D01*
X313000D02*
X318700D01*
X322000D02*
X327700D01*
X329200D02*
X336100D01*
X345600D02*
X348700D01*
X263000Y333600D02*
X275900D01*
X288600D02*
X298100D01*
X301400D02*
X307100D01*
X313000D02*
X318700D01*
X322000D02*
X335900D01*
X263200Y333800D02*
X276300D01*
X288000D02*
X298100D01*
X301600D02*
X307300D01*
X313200D02*
X318900D01*
X322200D02*
X335500D01*
X263200Y334000D02*
X276700D01*
X287200D02*
X298100D01*
X301600D02*
X307300D01*
X313200D02*
X318900D01*
X322200D02*
X335100D01*
X263200Y334200D02*
X277100D01*
X286800D02*
X298100D01*
X301600D02*
X307300D01*
X313200D02*
X318900D01*
X322200D02*
X334900D01*
X263400Y334400D02*
X277500D01*
X286200D02*
X298100D01*
X301800D02*
X307500D01*
X313400D02*
X319100D01*
X322400D02*
X335700D01*
X263400Y334600D02*
X277700D01*
X285800D02*
X298100D01*
X301800D02*
X307500D01*
X313400D02*
X319100D01*
X322400D02*
X336300D01*
X263400Y334800D02*
X277900D01*
X285600D02*
X297900D01*
X301800D02*
X307500D01*
X313400D02*
X319100D01*
X322400D02*
X336900D01*
X263600Y335000D02*
X278300D01*
X285200D02*
X297900D01*
X302000D02*
X307700D01*
X313600D02*
X319300D01*
X322600D02*
X337300D01*
X263600Y335200D02*
X278500D01*
X285000D02*
X297900D01*
X302000D02*
X307700D01*
X313600D02*
X319300D01*
X322600D02*
X337500D01*
X263600Y335400D02*
X278700D01*
X284600D02*
X297700D01*
X302000D02*
X307700D01*
X313600D02*
X319300D01*
X322600D02*
X337900D01*
X263800Y335600D02*
X278900D01*
X284400D02*
X297500D01*
X302200D02*
X307900D01*
X313800D02*
X319500D01*
X322800D02*
X338300D01*
X263800Y335800D02*
X279100D01*
X284400D02*
X297500D01*
X302200D02*
X307900D01*
X313800D02*
X319500D01*
X322800D02*
X338500D01*
X263800Y336000D02*
X279100D01*
X284200D02*
X297300D01*
X302200D02*
X308100D01*
X313800D02*
X319500D01*
X322800D02*
X338700D01*
X264000Y336200D02*
X279300D01*
X284000D02*
X297100D01*
X302400D02*
X308100D01*
X314000D02*
X319700D01*
X323000D02*
X338900D01*
X264000Y336400D02*
X279500D01*
X284000D02*
X296900D01*
X302400D02*
X308100D01*
X314000D02*
X319700D01*
X323000D02*
X339300D01*
X264200Y336600D02*
X279700D01*
X283800D02*
X296500D01*
X302600D02*
X308300D01*
X314000D02*
X319700D01*
X323200D02*
X339500D01*
X264200Y336800D02*
X269900D01*
X272600D02*
X279700D01*
X283800D02*
X296300D01*
X302600D02*
X308300D01*
X314000D02*
X319700D01*
X323200D02*
X339700D01*
X264200Y337000D02*
X269900D01*
X273400D02*
X279900D01*
X283600D02*
X295900D01*
X302600D02*
X308300D01*
X314200D02*
X319900D01*
X323200D02*
X339700D01*
X264400Y337200D02*
X270100D01*
X273800D02*
X280100D01*
X283600D02*
X295500D01*
X302800D02*
X308500D01*
X314200D02*
X319900D01*
X323400D02*
X329100D01*
X332600D02*
X339900D01*
X264400Y337400D02*
X270100D01*
X274000D02*
X280100D01*
X283600D02*
X295100D01*
X302800D02*
X308500D01*
X314200D02*
X319900D01*
X323400D02*
X329100D01*
X333600D02*
X340100D01*
X264400Y337600D02*
X270100D01*
X274200D02*
X280300D01*
X283600D02*
X294500D01*
X302800D02*
X308500D01*
X314200D02*
X319900D01*
X323400D02*
X329100D01*
X334000D02*
X340300D01*
X264600Y337800D02*
X270300D01*
X274400D02*
X280300D01*
X283600D02*
X293900D01*
X303000D02*
X308700D01*
X314200D02*
X320100D01*
X323600D02*
X329300D01*
X334400D02*
X340300D01*
X264600Y338000D02*
X270300D01*
X274600D02*
X280500D01*
X283600D02*
X293300D01*
X303000D02*
X308700D01*
X314200D02*
X320100D01*
X323600D02*
X329300D01*
X334600D02*
X340500D01*
X264600Y338200D02*
X270300D01*
X274800D02*
X280500D01*
X283600D02*
X292500D01*
X303000D02*
X308700D01*
X314200D02*
X320100D01*
X323600D02*
X329300D01*
X334800D02*
X340700D01*
X264800Y338400D02*
X270500D01*
X274800D02*
X280500D01*
X283600D02*
X291700D01*
X303200D02*
X308900D01*
X314200D02*
X320100D01*
X323800D02*
X329500D01*
X335000D02*
X340700D01*
X264800Y338600D02*
X270500D01*
X275000D02*
X280700D01*
X283600D02*
X290900D01*
X303200D02*
X308900D01*
X314200D02*
X320100D01*
X323800D02*
X329500D01*
X335200D02*
X340900D01*
X264800Y338800D02*
X270500D01*
X275000D02*
X280700D01*
X283600D02*
X290300D01*
X303200D02*
X308900D01*
X314200D02*
X320100D01*
X323800D02*
X329500D01*
X335200D02*
X340900D01*
X265000Y339000D02*
X270700D01*
X275200D02*
X280900D01*
X283800D02*
X289700D01*
X303400D02*
X309100D01*
X314000D02*
X320100D01*
X324000D02*
X329700D01*
X335400D02*
X341100D01*
X265000Y339200D02*
X270700D01*
X275200D02*
X280900D01*
X283800D02*
X289500D01*
X294200D02*
X295900D01*
X303400D02*
X309100D01*
X314000D02*
X320100D01*
X324000D02*
X329700D01*
X335400D02*
X341100D01*
X265000Y339400D02*
X270700D01*
X275200D02*
X280900D01*
X283800D02*
X289300D01*
X294200D02*
X299500D01*
X313800D02*
X320100D01*
X324000D02*
X329700D01*
X335400D02*
X341100D01*
X265200Y339600D02*
X270900D01*
X275200D02*
X281100D01*
X284000D02*
X289300D01*
X294200D02*
X299900D01*
X313600D02*
X320100D01*
X324200D02*
X329900D01*
X335400D02*
X341300D01*
X265200Y339800D02*
X270900D01*
X275200D02*
X281100D01*
X284000D02*
X289300D01*
X294200D02*
X299900D01*
X313400D02*
X320100D01*
X324200D02*
X329900D01*
X335400D02*
X341300D01*
X275200Y340000D02*
X281100D01*
X284000D02*
X289300D01*
X294200D02*
X299900D01*
X313000D02*
X320100D01*
X335400D02*
X341300D01*
X275000Y340200D02*
X281100D01*
X284200D02*
X289500D01*
X294200D02*
X299900D01*
X312200D02*
X320100D01*
X335400D02*
X341300D01*
X274800Y340400D02*
X281100D01*
X284200D02*
X289500D01*
X294200D02*
X299900D01*
X303800D02*
X320100D01*
X335200D02*
X341500D01*
X274600Y340600D02*
X281100D01*
X284400D02*
X289700D01*
X294000D02*
X299900D01*
X303800D02*
X320100D01*
X335000D02*
X341500D01*
X274000Y340800D02*
X281300D01*
X284600D02*
X289900D01*
X294000D02*
X299900D01*
X304000D02*
X320100D01*
X334400D02*
X341500D01*
X265600Y341000D02*
X281300D01*
X284600D02*
X290100D01*
X293800D02*
X299900D01*
X304000D02*
X320100D01*
X324600D02*
X341500D01*
X265600Y341200D02*
X281300D01*
X284800D02*
X290500D01*
X293400D02*
X299900D01*
X304000D02*
X319900D01*
X324600D02*
X341500D01*
X265800Y341400D02*
X281300D01*
X285000D02*
X291100D01*
X293000D02*
X299900D01*
X304200D02*
X319900D01*
X324800D02*
X341500D01*
X265800Y341600D02*
X281300D01*
X285000D02*
X299900D01*
X304200D02*
X319900D01*
X324800D02*
X341500D01*
X265800Y341800D02*
X281300D01*
X285200D02*
X299900D01*
X304200D02*
X319700D01*
X324800D02*
X341500D01*
X266000Y342000D02*
X281100D01*
X285400D02*
X299900D01*
X304400D02*
X319700D01*
X325000D02*
X341500D01*
X266000Y342200D02*
X281100D01*
X285600D02*
X299900D01*
X304400D02*
X319500D01*
X325000D02*
X341500D01*
X266000Y342400D02*
X281100D01*
X285800D02*
X299700D01*
X304400D02*
X319500D01*
X325000D02*
X341300D01*
X266200Y342600D02*
X281100D01*
X286000D02*
X299700D01*
X304600D02*
X319300D01*
X325200D02*
X341300D01*
X266200Y342800D02*
X280900D01*
X286200D02*
X299700D01*
X304600D02*
X319100D01*
X325200D02*
X341300D01*
X266200Y343000D02*
X280900D01*
X286600D02*
X299500D01*
X304600D02*
X319100D01*
X325200D02*
X341100D01*
X266400Y343200D02*
X280700D01*
X286800D02*
X299500D01*
X304800D02*
X318900D01*
X325400D02*
X340900D01*
X266400Y343400D02*
X280500D01*
X287000D02*
X299300D01*
X304800D02*
X318700D01*
X325400D02*
X340900D01*
X266400Y343600D02*
X280300D01*
X287400D02*
X299100D01*
X304800D02*
X318300D01*
X325400D02*
X340700D01*
X266600Y343800D02*
X280100D01*
X287800D02*
X298900D01*
X305000D02*
X318100D01*
X325600D02*
X340500D01*
X266600Y344000D02*
X279700D01*
X288200D02*
X298700D01*
X305000D02*
X317700D01*
X325600D02*
X340100D01*
X266600Y344200D02*
X279300D01*
X288600D02*
X298300D01*
X305000D02*
X317300D01*
X325600D02*
X339700D01*
X266800Y344400D02*
X278900D01*
X289000D02*
X297900D01*
X305200D02*
X316700D01*
X325800D02*
X339100D01*
X266800Y344600D02*
X277900D01*
X289800D02*
X297500D01*
X305200D02*
X315700D01*
X325800D02*
X337700D01*
X290600Y344800D02*
X296700D01*
X291800Y345000D02*
X295700D01*
G54D82*
X181072Y111220D02*
Y138780D01*
X190915Y103346D02*
X238159D01*
G03X240128Y105315I0J1969*
G01Y144685*
G03X238159Y146654I-1969J0*
G01X190915*
X254000Y150938D02*
Y147000D01*
Y148875D02*
X254409Y149438D01*
X254409D02*
X254682Y149625D01*
X255091*
X255364Y149438*
X255364D02*
X255500Y148875D01*
Y147000*
X257136Y150938D02*
Y147750D01*
X257273Y147188*
X257273D02*
X257545Y147000D01*
X257818*
X256727Y149625D02*
X257682D01*
X259455Y150938D02*
Y147750D01*
X259591Y147188*
X259591D02*
X259864Y147000D01*
X260136*
X259045Y149625D02*
X260000D01*
X261364D02*
Y145687D01*
Y149063D02*
X261636Y149438D01*
X261636D02*
X261909Y149625D01*
X262318*
X262591Y149438*
X262591D02*
X262864Y149063D01*
X262864D02*
X263000Y148500D01*
Y148125*
X262864Y147563*
X262864D02*
X262591Y147188D01*
X262591D02*
X262318Y147000D01*
X261909*
X261636Y147188*
X261636D02*
X261364Y147563D01*
X264364Y149625D02*
X264227Y149438D01*
X264227D02*
X264364Y149250D01*
X264500Y149438*
X264500D02*
X264364Y149625D01*
Y147375D02*
X264227Y147188D01*
X264227D02*
X264364Y147000D01*
X264500Y147188*
X264500D02*
X264364Y147375D01*
X268182Y151688D02*
X265727Y145687D01*
X271864Y151688D02*
X269409Y145687D01*
X273091Y150938D02*
Y147000D01*
Y148875D02*
X273500Y149438D01*
X273500D02*
X273773Y149625D01*
X274182*
X274455Y149438*
X274455D02*
X274591Y148875D01*
Y147000*
X277455Y149625D02*
Y147000D01*
Y149063D02*
X277182Y149438D01*
X277182D02*
X276909Y149625D01*
X276500*
X276227Y149438*
X276227D02*
X275955Y149063D01*
X275955D02*
X275818Y148500D01*
Y148125*
X275955Y147563*
X275955D02*
X276227Y147188D01*
X276227D02*
X276500Y147000D01*
X276909*
X277182Y147188*
X277182D02*
X277455Y147563D01*
X280318Y149063D02*
X280045Y149438D01*
X280045D02*
X279773Y149625D01*
X279364*
X279091Y149438*
X279091D02*
X278818Y149063D01*
X278818D02*
X278682Y148500D01*
Y148125*
X278818Y147563*
X278818D02*
X279091Y147188D01*
X279091D02*
X279364Y147000D01*
X279773*
X280045Y147188*
X280045D02*
X280318Y147563D01*
X281545Y150938D02*
Y147000D01*
X282909Y149625D02*
X281545Y147750D01*
X282091Y148500D02*
X283045Y147000D01*
X285909Y149625D02*
Y147000D01*
Y149063D02*
X285636Y149438D01*
X285636D02*
X285364Y149625D01*
X284955*
X284682Y149438*
X284682D02*
X284409Y149063D01*
X284409D02*
X284273Y148500D01*
Y148125*
X284409Y147563*
X284409D02*
X284682Y147188D01*
X284682D02*
X284955Y147000D01*
X285364*
X285636Y147188*
X285636D02*
X285909Y147563D01*
X288773Y150938D02*
Y147000D01*
Y149063D02*
X288500Y149438D01*
X288500D02*
X288227Y149625D01*
X287818*
X287545Y149438*
X287545D02*
X287273Y149063D01*
X287273D02*
X287136Y148500D01*
Y148125*
X287273Y147563*
X287273D02*
X287545Y147188D01*
X287545D02*
X287818Y147000D01*
X288227*
X288500Y147188*
X288500D02*
X288773Y147563D01*
X291636Y149625D02*
Y147000D01*
Y149063D02*
X291364Y149438D01*
X291364D02*
X291091Y149625D01*
X290682*
X290409Y149438*
X290409D02*
X290136Y149063D01*
X290136D02*
X290000Y148500D01*
Y148125*
X290136Y147563*
X290136D02*
X290409Y147188D01*
X290409D02*
X290682Y147000D01*
X291091*
X291364Y147188*
X291364D02*
X291636Y147563D01*
X293000Y149625D02*
X293818Y147000D01*
X294636Y149625D02*
X293818Y147000D01*
X293545Y146250*
X293273Y145875*
X293000Y145687*
X293000D02*
X292864D01*
X296000Y147375D02*
X295864Y147188D01*
X295864D02*
X296000Y147000D01*
X296136Y147188*
X296136D02*
X296000Y147375D01*
X297364Y150938D02*
X297500Y150750D01*
X297636Y150938*
X297636D02*
X297500Y151125D01*
X297364Y150938*
X297500Y149625D02*
Y147000D01*
X299545Y149625D02*
X299273Y149438D01*
X299273D02*
X299000Y149063D01*
X299000D02*
X298864Y148500D01*
Y148125*
X299000Y147563*
X299000D02*
X299273Y147188D01*
X299273D02*
X299545Y147000D01*
X299955*
X300227Y147188*
X300227D02*
X300500Y147563D01*
X300500D02*
X300636Y148125D01*
Y148500*
X300500Y149063*
X300500D02*
X300227Y149438D01*
X300227D02*
X299955Y149625D01*
X299545*
X304318Y151688D02*
X301864Y145687D01*
X305545Y149625D02*
Y145687D01*
Y149063D02*
X305818Y149438D01*
X305818D02*
X306091Y149625D01*
X306500*
X306773Y149438*
X306773D02*
X307045Y149063D01*
X307045D02*
X307182Y148500D01*
Y148125*
X307045Y147563*
X307045D02*
X306773Y147188D01*
X306773D02*
X306500Y147000D01*
X306091*
X305818Y147188*
X305818D02*
X305545Y147563D01*
X308409Y149625D02*
Y147000D01*
Y148500D02*
X308545Y149063D01*
X308545D02*
X308818Y149438D01*
X308818D02*
X309091Y149625D01*
X309500*
X311409D02*
X311136Y149438D01*
X311136D02*
X310864Y149063D01*
X310864D02*
X310727Y148500D01*
Y148125*
X310864Y147563*
X310864D02*
X311136Y147188D01*
X311136D02*
X311409Y147000D01*
X311818*
X312091Y147188*
X312091D02*
X312364Y147563D01*
X312364D02*
X312500Y148125D01*
Y148500*
X312364Y149063*
X312364D02*
X312091Y149438D01*
X312091D02*
X311818Y149625D01*
X311409*
X314273Y150938D02*
X314409Y150750D01*
X314545Y150938*
X314545D02*
X314409Y151125D01*
X314273Y150938*
X314409Y149625D02*
Y146437D01*
X314409D02*
X314273Y145875D01*
X314000Y145687*
X314000D02*
X313727D01*
X315773Y148500D02*
X317409D01*
Y148875*
X317273Y149250*
X317136Y149438*
X317136D02*
X316864Y149625D01*
X316455*
X316182Y149438*
X316182D02*
X315909Y149063D01*
X315909D02*
X315773Y148500D01*
Y148125*
X315909Y147563*
X315909D02*
X316182Y147188D01*
X316182D02*
X316455Y147000D01*
X316864*
X317136Y147188*
X317136D02*
X317409Y147563D01*
X320273Y149063D02*
X320000Y149438D01*
X320000D02*
X319727Y149625D01*
X319318*
X319045Y149438*
X319045D02*
X318773Y149063D01*
X318773D02*
X318636Y148500D01*
Y148125*
X318773Y147563*
X318773D02*
X319045Y147188D01*
X319045D02*
X319318Y147000D01*
X319727*
X320000Y147188*
X320000D02*
X320273Y147563D01*
X321909Y150938D02*
Y147750D01*
X322045Y147188*
X322045D02*
X322318Y147000D01*
X322591*
X321500Y149625D02*
X322455D01*
X326273Y151688D02*
X323818Y145687D01*
X327500Y150188D02*
X327773Y150375D01*
X328182Y150938*
X328182D02*
Y147000D01*
X331182Y150938D02*
X329818D01*
X329818D02*
X329682Y149250D01*
X329818Y149438*
X329818D02*
X330227Y149625D01*
X330636*
X331045Y149438*
X331045D02*
X331318Y149063D01*
X331318D02*
X331455Y148500D01*
X331318Y148125*
X331182Y147563*
X331182D02*
X330909Y147188D01*
X330909D02*
X330500Y147000D01*
X330091*
X329682Y147188*
X329682D02*
X329545Y147375D01*
X329409Y147750*
X332955Y150938D02*
X334455D01*
X334455D02*
X333636Y149438D01*
X333636D02*
X334045D01*
X334045D02*
X334318Y149250D01*
X334455Y149063*
X334455D02*
X334591Y148500D01*
Y148125*
X334455Y147563*
X334455D02*
X334182Y147188D01*
X334182D02*
X333773Y147000D01*
X333364*
X332955Y147188*
X332955D02*
X332818Y147375D01*
X332682Y147750*
X336500Y150938D02*
X336091Y150750D01*
X335955Y150375*
Y150000*
X336091Y149625*
X336364Y149438*
X336364D02*
X336909Y149250D01*
X337318Y149063*
X337318D02*
X337591Y148688D01*
X337591D02*
X337727Y148313D01*
X337727D02*
Y147750D01*
X337591Y147375*
X337455Y147188*
X337455D02*
X337045Y147000D01*
X336500*
X336091Y147188*
X336091D02*
X335955Y147375D01*
X335818Y147750*
Y148313*
X335818D02*
X335955Y148688D01*
X335955D02*
X336227Y149063D01*
X336227D02*
X336636Y149250D01*
X337182Y149438*
X337182D02*
X337455Y149625D01*
X337591Y150000*
Y150375*
X337455Y150750*
X337045Y150938*
X337045D02*
X336500D01*
X338955Y148688D02*
X341409D01*
X342636Y150938D02*
Y147000D01*
Y150938D02*
X343864D01*
X343864D02*
X344273Y150750D01*
X344409Y150563*
X344409D02*
X344545Y150188D01*
X344545D02*
Y149625D01*
X344409Y149250*
X344273Y149063*
X344273D02*
X343864Y148875D01*
X342636*
X346455Y149625D02*
X346182Y149438D01*
X346182D02*
X345909Y149063D01*
X345909D02*
X345773Y148500D01*
Y148125*
X345909Y147563*
X345909D02*
X346182Y147188D01*
X346182D02*
X346455Y147000D01*
X346864*
X347136Y147188*
X347136D02*
X347409Y147563D01*
X347409D02*
X347545Y148125D01*
Y148500*
X347409Y149063*
X347409D02*
X347136Y149438D01*
X347136D02*
X346864Y149625D01*
X346455*
X348773D02*
Y147000D01*
Y148500D02*
X348909Y149063D01*
X348909D02*
X349182Y149438D01*
X349182D02*
X349455Y149625D01*
X349864*
X351500Y150938D02*
Y147750D01*
X351636Y147188*
X351636D02*
X351909Y147000D01*
X352182*
X351091Y149625D02*
X352045D01*
X355045D02*
Y147000D01*
Y149063D02*
X354773Y149438D01*
X354773D02*
X354500Y149625D01*
X354091*
X353818Y149438*
X353818D02*
X353545Y149063D01*
X353545D02*
X353409Y148500D01*
Y148125*
X353545Y147563*
X353545D02*
X353818Y147188D01*
X353818D02*
X354091Y147000D01*
X354500*
X354773Y147188*
X354773D02*
X355045Y147563D01*
X356273Y150938D02*
Y147000D01*
Y149063D02*
X356545Y149438D01*
X356545D02*
X356818Y149625D01*
X357227*
X357500Y149438*
X357500D02*
X357773Y149063D01*
X357773D02*
X357909Y148500D01*
Y148125*
X357773Y147563*
X357773D02*
X357500Y147188D01*
X357500D02*
X357227Y147000D01*
X356818*
X356545Y147188*
X356545D02*
X356273Y147563D01*
X359136Y150938D02*
Y147000D01*
X360364Y148500D02*
X362000D01*
Y148875*
X361864Y149250*
X361727Y149438*
X361727D02*
X361455Y149625D01*
X361045*
X360773Y149438*
X360773D02*
X360500Y149063D01*
X360500D02*
X360364Y148500D01*
Y148125*
X360500Y147563*
X360500D02*
X360773Y147188D01*
X360773D02*
X361045Y147000D01*
X361455*
X361727Y147188*
X361727D02*
X362000Y147563D01*
X365136Y150375D02*
X364864Y150750D01*
X364455Y150938*
X364455D02*
X363909D01*
X363909D02*
X363500Y150750D01*
X363227Y150375*
Y150000*
X363364Y149625*
X363500Y149438*
X363500D02*
X363773Y149250D01*
X364591Y148875*
X364864Y148688*
X364864D02*
X365000Y148500D01*
X365136Y148125*
Y147563*
X365136D02*
X364864Y147188D01*
X364864D02*
X364455Y147000D01*
X363909*
X363500Y147188*
X363500D02*
X363227Y147563D01*
X366364Y150938D02*
Y147000D01*
Y150938D02*
X367318D01*
X367318D02*
X367727Y150750D01*
X368000Y150375*
X368136Y150000*
X368273Y149438*
X368273D02*
Y148500D01*
X368136Y147938*
X368136D02*
X368000Y147563D01*
X368000D02*
X367727Y147188D01*
X367727D02*
X367318Y147000D01*
X366364*
X369500Y150938D02*
Y147000D01*
Y150938D02*
X370727D01*
X370727D02*
X371136Y150750D01*
X371273Y150563*
X371273D02*
X371409Y150188D01*
X371409D02*
Y149813D01*
X371409D02*
X371273Y149438D01*
X371273D02*
X371136Y149250D01*
X370727Y149063*
X370727D02*
X369500D01*
X370455D02*
X371409Y147000D01*
X266000Y157938D02*
Y154000D01*
X267227Y156625D02*
Y154000D01*
Y155875D02*
X267636Y156438D01*
X267636D02*
X267909Y156625D01*
X268318*
X268591Y156438*
X268591D02*
X268727Y155875D01*
Y154000*
X271045Y157938D02*
X270773D01*
X270773D02*
X270500Y157750D01*
X270364Y157188*
X270364D02*
Y154000D01*
X269955Y156625D02*
X270909D01*
X272955D02*
X272682Y156438D01*
X272682D02*
X272409Y156063D01*
X272409D02*
X272273Y155500D01*
Y155125*
X272409Y154563*
X272409D02*
X272682Y154188D01*
X272682D02*
X272955Y154000D01*
X273364*
X273636Y154188*
X273636D02*
X273909Y154563D01*
X273909D02*
X274045Y155125D01*
Y155500*
X273909Y156063*
X273909D02*
X273636Y156438D01*
X273636D02*
X273364Y156625D01*
X272955*
X280045D02*
Y154000D01*
Y156063D02*
X279773Y156438D01*
X279773D02*
X279500Y156625D01*
X279091*
X278818Y156438*
X278818D02*
X278545Y156063D01*
X278545D02*
X278409Y155500D01*
Y155125*
X278545Y154563*
X278545D02*
X278818Y154188D01*
X278818D02*
X279091Y154000D01*
X279500*
X279773Y154188*
X279773D02*
X280045Y154563D01*
X281682Y157938D02*
Y154750D01*
X281818Y154188*
X281818D02*
X282091Y154000D01*
X282364*
X281273Y156625D02*
X282227D01*
G74*
X0Y0D02*
M02*
