*
*
G04 PADS 9.5 Build Number: 522968 generated Gerber (RS-274-X) file*
G04 PC Version=2.1*
*
%IN "PSDR.pcb"*%
*
%MOIN*%
*
%FSLAX35Y35*%
*
*
*
*
G04 PC Standard Apertures*
*
*
G04 Thermal Relief Aperture macro.*
%AMTER*
1,1,$1,0,0*
1,0,$1-$2,0,0*
21,0,$3,$4,0,0,45*
21,0,$3,$4,0,0,135*
%
*
*
G04 Annular Aperture macro.*
%AMANN*
1,1,$1,0,0*
1,0,$2,0,0*
%
*
*
G04 Odd Aperture macro.*
%AMODD*
1,1,$1,0,0*
1,0,$1-0.005,0,0*
%
*
*
G04 PC Custom Aperture Macros*
*
*
*
*
*
*
G04 PC Aperture Table*
*
%ADD010C,0.001*%
%ADD011C,0.008*%
%ADD012C,0.00787*%
%ADD013C,0.01575*%
%ADD035C,0.03*%
%ADD038C,0.024*%
%ADD048C,0.07*%
%ADD072C,0.062*%
%ADD094C,0.00394*%
%ADD104C,0.01181*%
%ADD110C,0.016*%
%ADD146C,0.01*%
%ADD148C,0.076*%
%ADD149C,0.01969*%
%ADD150C,0.032*%
%ADD151C,0.22441*%
%ADD153C,0.014*%
%ADD154O,0.01142X0.05512*%
%ADD155O,0.05512X0.01142*%
%ADD158O,0.03937X0.00984*%
%ADD159O,0.00984X0.03937*%
%ADD160O,0.017X0.056*%
%ADD161O,0.01142X0.05709*%
%ADD162O,0.05709X0.01142*%
%ADD171C,0.0315*%
%ADD172C,0.03937*%
*
*
*
*
G04 PC Circuitry*
G04 Layer Name PSDR.pcb - circuitry*
%LPD*%
*
*
G04 PC Custom Flashes*
G04 Layer Name PSDR.pcb - flashes*
%LPD*%
*
*
G04 PC Circuitry*
G04 Layer Name PSDR.pcb - circuitry*
%LPD*%
*
G54D10*
G54D11*
G01X352900Y325850D02*
X355100D01*
Y323150*
X352900*
Y325850*
Y323200D02*
X355100D01*
X352900Y324000D02*
X355100D01*
X352900Y324800D02*
X355100D01*
X352900Y325600D02*
X355100D01*
X353600Y323150D02*
Y325850D01*
X354400Y323150D02*
Y325850D01*
X352900Y320850D02*
X355100D01*
Y318150*
X352900*
Y320850*
Y318400D02*
X355100D01*
X352900Y319200D02*
X355100D01*
X352900Y320000D02*
X355100D01*
X352900Y320800D02*
X355100D01*
X353600Y318150D02*
Y320850D01*
X354400Y318150D02*
Y320850D01*
X321150Y299900D02*
Y302100D01*
X323850*
Y299900*
X321150*
Y300000D02*
X323850D01*
X321150Y300800D02*
X323850D01*
X321150Y301600D02*
X323850D01*
X321600Y299900D02*
Y302100D01*
X322400Y299900D02*
Y302100D01*
X323200Y299900D02*
Y302100D01*
X326150Y299900D02*
Y302100D01*
X328850*
Y299900*
X326150*
Y300000D02*
X328850D01*
X326150Y300800D02*
X328850D01*
X326150Y301600D02*
X328850D01*
X326400Y299900D02*
Y302100D01*
X327200Y299900D02*
Y302100D01*
X328000Y299900D02*
Y302100D01*
X328800Y299900D02*
Y302100D01*
X379100Y315150D02*
X376900D01*
Y317850*
X379100*
Y315150*
X376900Y315200D02*
X379100D01*
X376900Y316000D02*
X379100D01*
X376900Y316800D02*
X379100D01*
X376900Y317600D02*
X379100D01*
X377600Y315150D02*
Y317850D01*
X378400Y315150D02*
Y317850D01*
X379100Y320150D02*
X376900D01*
Y322850*
X379100*
Y320150*
X376900Y320800D02*
X379100D01*
X376900Y321600D02*
X379100D01*
X376900Y322400D02*
X379100D01*
X377600Y320150D02*
Y322850D01*
X378400Y320150D02*
Y322850D01*
X123900Y172850D02*
X126100D01*
Y170150*
X123900*
Y172850*
Y170400D02*
X126100D01*
X123900Y171200D02*
X126100D01*
X123900Y172000D02*
X126100D01*
X123900Y172800D02*
X126100D01*
X124000Y170150D02*
Y172850D01*
X124800Y170150D02*
Y172850D01*
X125600Y170150D02*
Y172850D01*
X123900Y167850D02*
X126100D01*
Y165150*
X123900*
Y167850*
Y165600D02*
X126100D01*
X123900Y166400D02*
X126100D01*
X123900Y167200D02*
X126100D01*
X124000Y165150D02*
Y167850D01*
X124800Y165150D02*
Y167850D01*
X125600Y165150D02*
Y167850D01*
X317850Y302100D02*
Y299900D01*
X315150*
Y302100*
X317850*
X315150Y300000D02*
X317850D01*
X315150Y300800D02*
X317850D01*
X315150Y301600D02*
X317850D01*
X315200Y299900D02*
Y302100D01*
X316000Y299900D02*
Y302100D01*
X316800Y299900D02*
Y302100D01*
X317600Y299900D02*
Y302100D01*
X312850D02*
Y299900D01*
X310150*
Y302100*
X312850*
X310150Y300000D02*
X312850D01*
X310150Y300800D02*
X312850D01*
X310150Y301600D02*
X312850D01*
X310400Y299900D02*
Y302100D01*
X311200Y299900D02*
Y302100D01*
X312000Y299900D02*
Y302100D01*
X312800Y299900D02*
Y302100D01*
X204850Y307100D02*
Y304900D01*
X202150*
Y307100*
X204850*
X202150Y305600D02*
X204850D01*
X202150Y306400D02*
X204850D01*
X202400Y304900D02*
Y307100D01*
X203200Y304900D02*
Y307100D01*
X204000Y304900D02*
Y307100D01*
X204800Y304900D02*
Y307100D01*
X199850D02*
Y304900D01*
X197150*
Y307100*
X199850*
X197150Y305600D02*
X199850D01*
X197150Y306400D02*
X199850D01*
X197600Y304900D02*
Y307100D01*
X198400Y304900D02*
Y307100D01*
X199200Y304900D02*
Y307100D01*
X216150Y302900D02*
Y305100D01*
X218850*
Y302900*
X216150*
Y303200D02*
X218850D01*
X216150Y304000D02*
X218850D01*
X216150Y304800D02*
X218850D01*
X216800Y302900D02*
Y305100D01*
X217600Y302900D02*
Y305100D01*
X218400Y302900D02*
Y305100D01*
X221150Y302900D02*
Y305100D01*
X223850*
Y302900*
X221150*
Y303200D02*
X223850D01*
X221150Y304000D02*
X223850D01*
X221150Y304800D02*
X223850D01*
X221600Y302900D02*
Y305100D01*
X222400Y302900D02*
Y305100D01*
X223200Y302900D02*
Y305100D01*
X170100Y162150D02*
X167900D01*
Y164850*
X170100*
Y162150*
X167900Y162400D02*
X170100D01*
X167900Y163200D02*
X170100D01*
X167900Y164000D02*
X170100D01*
X167900Y164800D02*
X170100D01*
X168000Y162150D02*
Y164850D01*
X168800Y162150D02*
Y164850D01*
X169600Y162150D02*
Y164850D01*
X170100Y167150D02*
X167900D01*
Y169850*
X170100*
Y167150*
X167900Y167200D02*
X170100D01*
X167900Y168000D02*
X170100D01*
X167900Y168800D02*
X170100D01*
X167900Y169600D02*
X170100D01*
X168000Y167150D02*
Y169850D01*
X168800Y167150D02*
Y169850D01*
X169600Y167150D02*
Y169850D01*
X170100Y149150D02*
X167900D01*
Y151850*
X170100*
Y149150*
X167900Y149600D02*
X170100D01*
X167900Y150400D02*
X170100D01*
X167900Y151200D02*
X170100D01*
X168000Y149150D02*
Y151850D01*
X168800Y149150D02*
Y151850D01*
X169600Y149150D02*
Y151850D01*
X170100Y154150D02*
X167900D01*
Y156850*
X170100*
Y154150*
X167900Y154400D02*
X170100D01*
X167900Y155200D02*
X170100D01*
X167900Y156000D02*
X170100D01*
X167900Y156800D02*
X170100D01*
X168000Y154150D02*
Y156850D01*
X168800Y154150D02*
Y156850D01*
X169600Y154150D02*
Y156850D01*
X126100Y292150D02*
X123900D01*
Y294850*
X126100*
Y292150*
X123900Y292800D02*
X126100D01*
X123900Y293600D02*
X126100D01*
X123900Y294400D02*
X126100D01*
X124000Y292150D02*
Y294850D01*
X124800Y292150D02*
Y294850D01*
X125600Y292150D02*
Y294850D01*
X126100Y297150D02*
X123900D01*
Y299850*
X126100*
Y297150*
X123900Y297600D02*
X126100D01*
X123900Y298400D02*
X126100D01*
X123900Y299200D02*
X126100D01*
X124000Y297150D02*
Y299850D01*
X124800Y297150D02*
Y299850D01*
X125600Y297150D02*
Y299850D01*
X277100Y318150D02*
X274900D01*
Y320850*
X277100*
Y318150*
X274900Y318400D02*
X277100D01*
X274900Y319200D02*
X277100D01*
X274900Y320000D02*
X277100D01*
X274900Y320800D02*
X277100D01*
X275200Y318150D02*
Y320850D01*
X276000Y318150D02*
Y320850D01*
X276800Y318150D02*
Y320850D01*
X277100Y323150D02*
X274900D01*
Y325850*
X277100*
Y323150*
X274900Y323200D02*
X277100D01*
X274900Y324000D02*
X277100D01*
X274900Y324800D02*
X277100D01*
X274900Y325600D02*
X277100D01*
X275200Y323150D02*
Y325850D01*
X276000Y323150D02*
Y325850D01*
X276800Y323150D02*
Y325850D01*
X282850Y314100D02*
Y311900D01*
X280150*
Y314100*
X282850*
X280150Y312000D02*
X282850D01*
X280150Y312800D02*
X282850D01*
X280150Y313600D02*
X282850D01*
X280800Y311900D02*
Y314100D01*
X281600Y311900D02*
Y314100D01*
X282400Y311900D02*
Y314100D01*
X277850D02*
Y311900D01*
X275150*
Y314100*
X277850*
X275150Y312000D02*
X277850D01*
X275150Y312800D02*
X277850D01*
X275150Y313600D02*
X277850D01*
X275200Y311900D02*
Y314100D01*
X276000Y311900D02*
Y314100D01*
X276800Y311900D02*
Y314100D01*
X277600Y311900D02*
Y314100D01*
X386850Y220100D02*
Y217900D01*
X384150*
Y220100*
X386850*
X384150Y218400D02*
X386850D01*
X384150Y219200D02*
X386850D01*
X384150Y220000D02*
X386850D01*
X384800Y217900D02*
Y220100D01*
X385600Y217900D02*
Y220100D01*
X386400Y217900D02*
Y220100D01*
X381850D02*
Y217900D01*
X379150*
Y220100*
X381850*
X379150Y218400D02*
X381850D01*
X379150Y219200D02*
X381850D01*
X379150Y220000D02*
X381850D01*
X379200Y217900D02*
Y220100D01*
X380000Y217900D02*
Y220100D01*
X380800Y217900D02*
Y220100D01*
X381600Y217900D02*
Y220100D01*
X275150Y305900D02*
Y308100D01*
X277850*
Y305900*
X275150*
Y306400D02*
X277850D01*
X275150Y307200D02*
X277850D01*
X275150Y308000D02*
X277850D01*
X275200Y305900D02*
Y308100D01*
X276000Y305900D02*
Y308100D01*
X276800Y305900D02*
Y308100D01*
X277600Y305900D02*
Y308100D01*
X280150Y305900D02*
Y308100D01*
X282850*
Y305900*
X280150*
Y306400D02*
X282850D01*
X280150Y307200D02*
X282850D01*
X280150Y308000D02*
X282850D01*
X280800Y305900D02*
Y308100D01*
X281600Y305900D02*
Y308100D01*
X282400Y305900D02*
Y308100D01*
X280900Y325850D02*
X283100D01*
Y323150*
X280900*
Y325850*
Y323200D02*
X283100D01*
X280900Y324000D02*
X283100D01*
X280900Y324800D02*
X283100D01*
X280900Y325600D02*
X283100D01*
X281600Y323150D02*
Y325850D01*
X282400Y323150D02*
Y325850D01*
X280900Y320850D02*
X283100D01*
Y318150*
X280900*
Y320850*
Y318400D02*
X283100D01*
X280900Y319200D02*
X283100D01*
X280900Y320000D02*
X283100D01*
X280900Y320800D02*
X283100D01*
X281600Y318150D02*
Y320850D01*
X282400Y318150D02*
Y320850D01*
X270850Y308100D02*
Y305900D01*
X268150*
Y308100*
X270850*
X268150Y306400D02*
X270850D01*
X268150Y307200D02*
X270850D01*
X268150Y308000D02*
X270850D01*
X268800Y305900D02*
Y308100D01*
X269600Y305900D02*
Y308100D01*
X270400Y305900D02*
Y308100D01*
X265850D02*
Y305900D01*
X263150*
Y308100*
X265850*
X263150Y306400D02*
X265850D01*
X263150Y307200D02*
X265850D01*
X263150Y308000D02*
X265850D01*
X263200Y305900D02*
Y308100D01*
X264000Y305900D02*
Y308100D01*
X264800Y305900D02*
Y308100D01*
X265600Y305900D02*
Y308100D01*
X154850Y292100D02*
Y289900D01*
X152150*
Y292100*
X154850*
X152150Y290400D02*
X154850D01*
X152150Y291200D02*
X154850D01*
X152150Y292000D02*
X154850D01*
X152800Y289900D02*
Y292100D01*
X153600Y289900D02*
Y292100D01*
X154400Y289900D02*
Y292100D01*
X149850D02*
Y289900D01*
X147150*
Y292100*
X149850*
X147150Y290400D02*
X149850D01*
X147150Y291200D02*
X149850D01*
X147150Y292000D02*
X149850D01*
X147200Y289900D02*
Y292100D01*
X148000Y289900D02*
Y292100D01*
X148800Y289900D02*
Y292100D01*
X149600Y289900D02*
Y292100D01*
X386850Y226100D02*
Y223900D01*
X384150*
Y226100*
X386850*
X384150Y224000D02*
X386850D01*
X384150Y224800D02*
X386850D01*
X384150Y225600D02*
X386850D01*
X384800Y223900D02*
Y226100D01*
X385600Y223900D02*
Y226100D01*
X386400Y223900D02*
Y226100D01*
X381850D02*
Y223900D01*
X379150*
Y226100*
X381850*
X379150Y224000D02*
X381850D01*
X379150Y224800D02*
X381850D01*
X379150Y225600D02*
X381850D01*
X379200Y223900D02*
Y226100D01*
X380000Y223900D02*
Y226100D01*
X380800Y223900D02*
Y226100D01*
X381600Y223900D02*
Y226100D01*
X315850Y204100D02*
Y201900D01*
X313150*
Y204100*
X315850*
X313150Y202400D02*
X315850D01*
X313150Y203200D02*
X315850D01*
X313150Y204000D02*
X315850D01*
X313600Y201900D02*
Y204100D01*
X314400Y201900D02*
Y204100D01*
X315200Y201900D02*
Y204100D01*
X310850D02*
Y201900D01*
X308150*
Y204100*
X310850*
X308150Y202400D02*
X310850D01*
X308150Y203200D02*
X310850D01*
X308150Y204000D02*
X310850D01*
X308800Y201900D02*
Y204100D01*
X309600Y201900D02*
Y204100D01*
X310400Y201900D02*
Y204100D01*
X308150Y194900D02*
Y197100D01*
X310850*
Y194900*
X308150*
Y195200D02*
X310850D01*
X308150Y196000D02*
X310850D01*
X308150Y196800D02*
X310850D01*
X308800Y194900D02*
Y197100D01*
X309600Y194900D02*
Y197100D01*
X310400Y194900D02*
Y197100D01*
X313150Y194900D02*
Y197100D01*
X315850*
Y194900*
X313150*
Y195200D02*
X315850D01*
X313150Y196000D02*
X315850D01*
X313150Y196800D02*
X315850D01*
X313600Y194900D02*
Y197100D01*
X314400Y194900D02*
Y197100D01*
X315200Y194900D02*
Y197100D01*
X378100Y168150D02*
X375900D01*
Y170850*
X378100*
Y168150*
X375900Y168800D02*
X378100D01*
X375900Y169600D02*
X378100D01*
X375900Y170400D02*
X378100D01*
X376000Y168150D02*
Y170850D01*
X376800Y168150D02*
Y170850D01*
X377600Y168150D02*
Y170850D01*
X378100Y173150D02*
X375900D01*
Y175850*
X378100*
Y173150*
X375900Y173600D02*
X378100D01*
X375900Y174400D02*
X378100D01*
X375900Y175200D02*
X378100D01*
X376000Y173150D02*
Y175850D01*
X376800Y173150D02*
Y175850D01*
X377600Y173150D02*
Y175850D01*
X216150Y253900D02*
Y256100D01*
X218850*
Y253900*
X216150*
Y254400D02*
X218850D01*
X216150Y255200D02*
X218850D01*
X216150Y256000D02*
X218850D01*
X216800Y253900D02*
Y256100D01*
X217600Y253900D02*
Y256100D01*
X218400Y253900D02*
Y256100D01*
X221150Y253900D02*
Y256100D01*
X223850*
Y253900*
X221150*
Y254400D02*
X223850D01*
X221150Y255200D02*
X223850D01*
X221150Y256000D02*
X223850D01*
X221600Y253900D02*
Y256100D01*
X222400Y253900D02*
Y256100D01*
X223200Y253900D02*
Y256100D01*
X221900Y266850D02*
X224100D01*
Y264150*
X221900*
Y266850*
Y264800D02*
X224100D01*
X221900Y265600D02*
X224100D01*
X221900Y266400D02*
X224100D01*
X222400Y264150D02*
Y266850D01*
X223200Y264150D02*
Y266850D01*
X224000Y264150D02*
Y266850D01*
X221900Y261850D02*
X224100D01*
Y259150*
X221900*
Y261850*
Y259200D02*
X224100D01*
X221900Y260000D02*
X224100D01*
X221900Y260800D02*
X224100D01*
X221900Y261600D02*
X224100D01*
X222400Y259150D02*
Y261850D01*
X223200Y259150D02*
Y261850D01*
X224000Y259150D02*
Y261850D01*
X233150Y253900D02*
Y256100D01*
X235850*
Y253900*
X233150*
Y254400D02*
X235850D01*
X233150Y255200D02*
X235850D01*
X233150Y256000D02*
X235850D01*
X233600Y253900D02*
Y256100D01*
X234400Y253900D02*
Y256100D01*
X235200Y253900D02*
Y256100D01*
X238150Y253900D02*
Y256100D01*
X240850*
Y253900*
X238150*
Y254400D02*
X240850D01*
X238150Y255200D02*
X240850D01*
X238150Y256000D02*
X240850D01*
X238400Y253900D02*
Y256100D01*
X239200Y253900D02*
Y256100D01*
X240000Y253900D02*
Y256100D01*
X240800Y253900D02*
Y256100D01*
X243900Y266850D02*
X246100D01*
Y264150*
X243900*
Y266850*
Y264800D02*
X246100D01*
X243900Y265600D02*
X246100D01*
X243900Y266400D02*
X246100D01*
X244000Y264150D02*
Y266850D01*
X244800Y264150D02*
Y266850D01*
X245600Y264150D02*
Y266850D01*
X243900Y261850D02*
X246100D01*
Y259150*
X243900*
Y261850*
Y259200D02*
X246100D01*
X243900Y260000D02*
X246100D01*
X243900Y260800D02*
X246100D01*
X243900Y261600D02*
X246100D01*
X244000Y259150D02*
Y261850D01*
X244800Y259150D02*
Y261850D01*
X245600Y259150D02*
Y261850D01*
X221900Y315850D02*
X224100D01*
Y313150*
X221900*
Y315850*
Y313600D02*
X224100D01*
X221900Y314400D02*
X224100D01*
X221900Y315200D02*
X224100D01*
X222400Y313150D02*
Y315850D01*
X223200Y313150D02*
Y315850D01*
X224000Y313150D02*
Y315850D01*
X221900Y310850D02*
X224100D01*
Y308150*
X221900*
Y310850*
Y308800D02*
X224100D01*
X221900Y309600D02*
X224100D01*
X221900Y310400D02*
X224100D01*
X222400Y308150D02*
Y310850D01*
X223200Y308150D02*
Y310850D01*
X224000Y308150D02*
Y310850D01*
X233150Y302900D02*
Y305100D01*
X235850*
Y302900*
X233150*
Y303200D02*
X235850D01*
X233150Y304000D02*
X235850D01*
X233150Y304800D02*
X235850D01*
X233600Y302900D02*
Y305100D01*
X234400Y302900D02*
Y305100D01*
X235200Y302900D02*
Y305100D01*
X238150Y302900D02*
Y305100D01*
X240850*
Y302900*
X238150*
Y303200D02*
X240850D01*
X238150Y304000D02*
X240850D01*
X238150Y304800D02*
X240850D01*
X238400Y302900D02*
Y305100D01*
X239200Y302900D02*
Y305100D01*
X240000Y302900D02*
Y305100D01*
X240800Y302900D02*
Y305100D01*
X243900Y315850D02*
X246100D01*
Y313150*
X243900*
Y315850*
Y313600D02*
X246100D01*
X243900Y314400D02*
X246100D01*
X243900Y315200D02*
X246100D01*
X244000Y313150D02*
Y315850D01*
X244800Y313150D02*
Y315850D01*
X245600Y313150D02*
Y315850D01*
X243900Y310850D02*
X246100D01*
Y308150*
X243900*
Y310850*
Y308800D02*
X246100D01*
X243900Y309600D02*
X246100D01*
X243900Y310400D02*
X246100D01*
X244000Y308150D02*
Y310850D01*
X244800Y308150D02*
Y310850D01*
X245600Y308150D02*
Y310850D01*
X129900Y286850D02*
X132100D01*
Y284150*
X129900*
Y286850*
Y284800D02*
X132100D01*
X129900Y285600D02*
X132100D01*
X129900Y286400D02*
X132100D01*
X130400Y284150D02*
Y286850D01*
X131200Y284150D02*
Y286850D01*
X132000Y284150D02*
Y286850D01*
X129900Y281850D02*
X132100D01*
Y279150*
X129900*
Y281850*
Y279200D02*
X132100D01*
X129900Y280000D02*
X132100D01*
X129900Y280800D02*
X132100D01*
X129900Y281600D02*
X132100D01*
X130400Y279150D02*
Y281850D01*
X131200Y279150D02*
Y281850D01*
X132000Y279150D02*
Y281850D01*
X270100Y158150D02*
X267900D01*
Y160850*
X270100*
Y158150*
X267900Y158400D02*
X270100D01*
X267900Y159200D02*
X270100D01*
X267900Y160000D02*
X270100D01*
X267900Y160800D02*
X270100D01*
X268000Y158150D02*
Y160850D01*
X268800Y158150D02*
Y160850D01*
X269600Y158150D02*
Y160850D01*
X270100Y163150D02*
X267900D01*
Y165850*
X270100*
Y163150*
X267900Y163200D02*
X270100D01*
X267900Y164000D02*
X270100D01*
X267900Y164800D02*
X270100D01*
X267900Y165600D02*
X270100D01*
X268000Y163150D02*
Y165850D01*
X268800Y163150D02*
Y165850D01*
X269600Y163150D02*
Y165850D01*
X347850Y318100D02*
Y315900D01*
X345150*
Y318100*
X347850*
X345150Y316000D02*
X347850D01*
X345150Y316800D02*
X347850D01*
X345150Y317600D02*
X347850D01*
X345600Y315900D02*
Y318100D01*
X346400Y315900D02*
Y318100D01*
X347200Y315900D02*
Y318100D01*
X342850D02*
Y315900D01*
X340150*
Y318100*
X342850*
X340150Y316000D02*
X342850D01*
X340150Y316800D02*
X342850D01*
X340150Y317600D02*
X342850D01*
X340800Y315900D02*
Y318100D01*
X341600Y315900D02*
Y318100D01*
X342400Y315900D02*
Y318100D01*
X365150Y173900D02*
Y176100D01*
X367850*
Y173900*
X365150*
Y174400D02*
X367850D01*
X365150Y175200D02*
X367850D01*
X365150Y176000D02*
X367850D01*
X365600Y173900D02*
Y176100D01*
X366400Y173900D02*
Y176100D01*
X367200Y173900D02*
Y176100D01*
X370150Y173900D02*
Y176100D01*
X372850*
Y173900*
X370150*
Y174400D02*
X372850D01*
X370150Y175200D02*
X372850D01*
X370150Y176000D02*
X372850D01*
X370400Y173900D02*
Y176100D01*
X371200Y173900D02*
Y176100D01*
X372000Y173900D02*
Y176100D01*
X372800Y173900D02*
Y176100D01*
X378100Y185150D02*
X375900D01*
Y187850*
X378100*
Y185150*
X375900Y185600D02*
X378100D01*
X375900Y186400D02*
X378100D01*
X375900Y187200D02*
X378100D01*
X376000Y185150D02*
Y187850D01*
X376800Y185150D02*
Y187850D01*
X377600Y185150D02*
Y187850D01*
X378100Y190150D02*
X375900D01*
Y192850*
X378100*
Y190150*
X375900Y190400D02*
X378100D01*
X375900Y191200D02*
X378100D01*
X375900Y192000D02*
X378100D01*
X375900Y192800D02*
X378100D01*
X376000Y190150D02*
Y192850D01*
X376800Y190150D02*
Y192850D01*
X377600Y190150D02*
Y192850D01*
X125150Y195900D02*
Y198100D01*
X127850*
Y195900*
X125150*
Y196000D02*
X127850D01*
X125150Y196800D02*
X127850D01*
X125150Y197600D02*
X127850D01*
X125600Y195900D02*
Y198100D01*
X126400Y195900D02*
Y198100D01*
X127200Y195900D02*
Y198100D01*
X130150Y195900D02*
Y198100D01*
X132850*
Y195900*
X130150*
Y196000D02*
X132850D01*
X130150Y196800D02*
X132850D01*
X130150Y197600D02*
X132850D01*
X130400Y195900D02*
Y198100D01*
X131200Y195900D02*
Y198100D01*
X132000Y195900D02*
Y198100D01*
X132800Y195900D02*
Y198100D01*
X365150Y195900D02*
Y198100D01*
X367850*
Y195900*
X365150*
Y196000D02*
X367850D01*
X365150Y196800D02*
X367850D01*
X365150Y197600D02*
X367850D01*
X365600Y195900D02*
Y198100D01*
X366400Y195900D02*
Y198100D01*
X367200Y195900D02*
Y198100D01*
X370150Y195900D02*
Y198100D01*
X372850*
Y195900*
X370150*
Y196000D02*
X372850D01*
X370150Y196800D02*
X372850D01*
X370150Y197600D02*
X372850D01*
X370400Y195900D02*
Y198100D01*
X371200Y195900D02*
Y198100D01*
X372000Y195900D02*
Y198100D01*
X372800Y195900D02*
Y198100D01*
X229100Y253150D02*
X226900D01*
Y255850*
X229100*
Y253150*
X226900Y253600D02*
X229100D01*
X226900Y254400D02*
X229100D01*
X226900Y255200D02*
X229100D01*
X227200Y253150D02*
Y255850D01*
X228000Y253150D02*
Y255850D01*
X228800Y253150D02*
Y255850D01*
X229100Y258150D02*
X226900D01*
Y260850*
X229100*
Y258150*
X226900Y258400D02*
X229100D01*
X226900Y259200D02*
X229100D01*
X226900Y260000D02*
X229100D01*
X226900Y260800D02*
X229100D01*
X227200Y258150D02*
Y260850D01*
X228000Y258150D02*
Y260850D01*
X228800Y258150D02*
Y260850D01*
X371150Y178900D02*
Y181100D01*
X373850*
Y178900*
X371150*
Y179200D02*
X373850D01*
X371150Y180000D02*
X373850D01*
X371150Y180800D02*
X373850D01*
X371200Y178900D02*
Y181100D01*
X372000Y178900D02*
Y181100D01*
X372800Y178900D02*
Y181100D01*
X373600Y178900D02*
Y181100D01*
X376150Y178900D02*
Y181100D01*
X378850*
Y178900*
X376150*
Y179200D02*
X378850D01*
X376150Y180000D02*
X378850D01*
X376150Y180800D02*
X378850D01*
X376800Y178900D02*
Y181100D01*
X377600Y178900D02*
Y181100D01*
X378400Y178900D02*
Y181100D01*
X125150Y218900D02*
Y221100D01*
X127850*
Y218900*
X125150*
Y219200D02*
X127850D01*
X125150Y220000D02*
X127850D01*
X125150Y220800D02*
X127850D01*
X125600Y218900D02*
Y221100D01*
X126400Y218900D02*
Y221100D01*
X127200Y218900D02*
Y221100D01*
X130150Y218900D02*
Y221100D01*
X132850*
Y218900*
X130150*
Y219200D02*
X132850D01*
X130150Y220000D02*
X132850D01*
X130150Y220800D02*
X132850D01*
X130400Y218900D02*
Y221100D01*
X131200Y218900D02*
Y221100D01*
X132000Y218900D02*
Y221100D01*
X132800Y218900D02*
Y221100D01*
X138150Y218900D02*
Y221100D01*
X140850*
Y218900*
X138150*
Y219200D02*
X140850D01*
X138150Y220000D02*
X140850D01*
X138150Y220800D02*
X140850D01*
X138400Y218900D02*
Y221100D01*
X139200Y218900D02*
Y221100D01*
X140000Y218900D02*
Y221100D01*
X140800Y218900D02*
Y221100D01*
X143150Y218900D02*
Y221100D01*
X145850*
Y218900*
X143150*
Y219200D02*
X145850D01*
X143150Y220000D02*
X145850D01*
X143150Y220800D02*
X145850D01*
X143200Y218900D02*
Y221100D01*
X144000Y218900D02*
Y221100D01*
X144800Y218900D02*
Y221100D01*
X145600Y218900D02*
Y221100D01*
X346900Y166850D02*
X349100D01*
Y164150*
X346900*
Y166850*
Y164800D02*
X349100D01*
X346900Y165600D02*
X349100D01*
X346900Y166400D02*
X349100D01*
X347200Y164150D02*
Y166850D01*
X348000Y164150D02*
Y166850D01*
X348800Y164150D02*
Y166850D01*
X346900Y161850D02*
X349100D01*
Y159150*
X346900*
Y161850*
Y159200D02*
X349100D01*
X346900Y160000D02*
X349100D01*
X346900Y160800D02*
X349100D01*
X346900Y161600D02*
X349100D01*
X347200Y159150D02*
Y161850D01*
X348000Y159150D02*
Y161850D01*
X348800Y159150D02*
Y161850D01*
X343100Y159150D02*
X340900D01*
Y161850*
X343100*
Y159150*
X340900Y159200D02*
X343100D01*
X340900Y160000D02*
X343100D01*
X340900Y160800D02*
X343100D01*
X340900Y161600D02*
X343100D01*
X341600Y159150D02*
Y161850D01*
X342400Y159150D02*
Y161850D01*
X343100Y164150D02*
X340900D01*
Y166850*
X343100*
Y164150*
X340900Y164800D02*
X343100D01*
X340900Y165600D02*
X343100D01*
X340900Y166400D02*
X343100D01*
X341600Y164150D02*
Y166850D01*
X342400Y164150D02*
Y166850D01*
X354150Y167900D02*
Y170100D01*
X356850*
Y167900*
X354150*
Y168000D02*
X356850D01*
X354150Y168800D02*
X356850D01*
X354150Y169600D02*
X356850D01*
X354400Y167900D02*
Y170100D01*
X355200Y167900D02*
Y170100D01*
X356000Y167900D02*
Y170100D01*
X356800Y167900D02*
Y170100D01*
X359150Y167900D02*
Y170100D01*
X361850*
Y167900*
X359150*
Y168000D02*
X361850D01*
X359150Y168800D02*
X361850D01*
X359150Y169600D02*
X361850D01*
X359200Y167900D02*
Y170100D01*
X360000Y167900D02*
Y170100D01*
X360800Y167900D02*
Y170100D01*
X361600Y167900D02*
Y170100D01*
X329900Y147850D02*
X332100D01*
Y145150*
X329900*
Y147850*
Y145600D02*
X332100D01*
X329900Y146400D02*
X332100D01*
X329900Y147200D02*
X332100D01*
X330400Y145150D02*
Y147850D01*
X331200Y145150D02*
Y147850D01*
X332000Y145150D02*
Y147850D01*
X329900Y142850D02*
X332100D01*
Y140150*
X329900*
Y142850*
Y140800D02*
X332100D01*
X329900Y141600D02*
X332100D01*
X329900Y142400D02*
X332100D01*
X330400Y140150D02*
Y142850D01*
X331200Y140150D02*
Y142850D01*
X332000Y140150D02*
Y142850D01*
X147900Y286850D02*
X150100D01*
Y284150*
X147900*
Y286850*
Y284800D02*
X150100D01*
X147900Y285600D02*
X150100D01*
X147900Y286400D02*
X150100D01*
X148000Y284150D02*
Y286850D01*
X148800Y284150D02*
Y286850D01*
X149600Y284150D02*
Y286850D01*
X147900Y281850D02*
X150100D01*
Y279150*
X147900*
Y281850*
Y279200D02*
X150100D01*
X147900Y280000D02*
X150100D01*
X147900Y280800D02*
X150100D01*
X147900Y281600D02*
X150100D01*
X148000Y279150D02*
Y281850D01*
X148800Y279150D02*
Y281850D01*
X149600Y279150D02*
Y281850D01*
X163900Y232850D02*
X166100D01*
Y230150*
X163900*
Y232850*
Y230400D02*
X166100D01*
X163900Y231200D02*
X166100D01*
X163900Y232000D02*
X166100D01*
X163900Y232800D02*
X166100D01*
X164000Y230150D02*
Y232850D01*
X164800Y230150D02*
Y232850D01*
X165600Y230150D02*
Y232850D01*
X163900Y227850D02*
X166100D01*
Y225150*
X163900*
Y227850*
Y225600D02*
X166100D01*
X163900Y226400D02*
X166100D01*
X163900Y227200D02*
X166100D01*
X164000Y225150D02*
Y227850D01*
X164800Y225150D02*
Y227850D01*
X165600Y225150D02*
Y227850D01*
X303150Y130900D02*
Y133100D01*
X305850*
Y130900*
X303150*
Y131200D02*
X305850D01*
X303150Y132000D02*
X305850D01*
X303150Y132800D02*
X305850D01*
X303200Y130900D02*
Y133100D01*
X304000Y130900D02*
Y133100D01*
X304800Y130900D02*
Y133100D01*
X305600Y130900D02*
Y133100D01*
X308150Y130900D02*
Y133100D01*
X310850*
Y130900*
X308150*
Y131200D02*
X310850D01*
X308150Y132000D02*
X310850D01*
X308150Y132800D02*
X310850D01*
X308800Y130900D02*
Y133100D01*
X309600Y130900D02*
Y133100D01*
X310400Y130900D02*
Y133100D01*
X370900Y192850D02*
X373100D01*
Y190150*
X370900*
Y192850*
Y190400D02*
X373100D01*
X370900Y191200D02*
X373100D01*
X370900Y192000D02*
X373100D01*
X370900Y192800D02*
X373100D01*
X371200Y190150D02*
Y192850D01*
X372000Y190150D02*
Y192850D01*
X372800Y190150D02*
Y192850D01*
X370900Y187850D02*
X373100D01*
Y185150*
X370900*
Y187850*
Y185600D02*
X373100D01*
X370900Y186400D02*
X373100D01*
X370900Y187200D02*
X373100D01*
X371200Y185150D02*
Y187850D01*
X372000Y185150D02*
Y187850D01*
X372800Y185150D02*
Y187850D01*
X229100Y302150D02*
X226900D01*
Y304850*
X229100*
Y302150*
X226900Y302400D02*
X229100D01*
X226900Y303200D02*
X229100D01*
X226900Y304000D02*
X229100D01*
X226900Y304800D02*
X229100D01*
X227200Y302150D02*
Y304850D01*
X228000Y302150D02*
Y304850D01*
X228800Y302150D02*
Y304850D01*
X229100Y307150D02*
X226900D01*
Y309850*
X229100*
Y307150*
X226900Y307200D02*
X229100D01*
X226900Y308000D02*
X229100D01*
X226900Y308800D02*
X229100D01*
X226900Y309600D02*
X229100D01*
X227200Y307150D02*
Y309850D01*
X228000Y307150D02*
Y309850D01*
X228800Y307150D02*
Y309850D01*
X354150Y173900D02*
Y176100D01*
X356850*
Y173900*
X354150*
Y174400D02*
X356850D01*
X354150Y175200D02*
X356850D01*
X354150Y176000D02*
X356850D01*
X354400Y173900D02*
Y176100D01*
X355200Y173900D02*
Y176100D01*
X356000Y173900D02*
Y176100D01*
X356800Y173900D02*
Y176100D01*
X359150Y173900D02*
Y176100D01*
X361850*
Y173900*
X359150*
Y174400D02*
X361850D01*
X359150Y175200D02*
X361850D01*
X359150Y176000D02*
X361850D01*
X359200Y173900D02*
Y176100D01*
X360000Y173900D02*
Y176100D01*
X360800Y173900D02*
Y176100D01*
X361600Y173900D02*
Y176100D01*
X303150Y136900D02*
Y139100D01*
X305850*
Y136900*
X303150*
Y137600D02*
X305850D01*
X303150Y138400D02*
X305850D01*
X303200Y136900D02*
Y139100D01*
X304000Y136900D02*
Y139100D01*
X304800Y136900D02*
Y139100D01*
X305600Y136900D02*
Y139100D01*
X308150Y136900D02*
Y139100D01*
X310850*
Y136900*
X308150*
Y137600D02*
X310850D01*
X308150Y138400D02*
X310850D01*
X308800Y136900D02*
Y139100D01*
X309600Y136900D02*
Y139100D01*
X310400Y136900D02*
Y139100D01*
X354150Y195900D02*
Y198100D01*
X356850*
Y195900*
X354150*
Y196000D02*
X356850D01*
X354150Y196800D02*
X356850D01*
X354150Y197600D02*
X356850D01*
X354400Y195900D02*
Y198100D01*
X355200Y195900D02*
Y198100D01*
X356000Y195900D02*
Y198100D01*
X356800Y195900D02*
Y198100D01*
X359150Y195900D02*
Y198100D01*
X361850*
Y195900*
X359150*
Y196000D02*
X361850D01*
X359150Y196800D02*
X361850D01*
X359150Y197600D02*
X361850D01*
X359200Y195900D02*
Y198100D01*
X360000Y195900D02*
Y198100D01*
X360800Y195900D02*
Y198100D01*
X361600Y195900D02*
Y198100D01*
X380900Y288850D02*
X383100D01*
Y286150*
X380900*
Y288850*
Y286400D02*
X383100D01*
X380900Y287200D02*
X383100D01*
X380900Y288000D02*
X383100D01*
X380900Y288800D02*
X383100D01*
X381600Y286150D02*
Y288850D01*
X382400Y286150D02*
Y288850D01*
X380900Y283850D02*
X383100D01*
Y281150*
X380900*
Y283850*
Y281600D02*
X383100D01*
X380900Y282400D02*
X383100D01*
X380900Y283200D02*
X383100D01*
X381600Y281150D02*
Y283850D01*
X382400Y281150D02*
Y283850D01*
X314900Y143850D02*
X317100D01*
Y141150*
X314900*
Y143850*
Y141600D02*
X317100D01*
X314900Y142400D02*
X317100D01*
X314900Y143200D02*
X317100D01*
X315200Y141150D02*
Y143850D01*
X316000Y141150D02*
Y143850D01*
X316800Y141150D02*
Y143850D01*
X314900Y138850D02*
X317100D01*
Y136150*
X314900*
Y138850*
Y136800D02*
X317100D01*
X314900Y137600D02*
X317100D01*
X314900Y138400D02*
X317100D01*
X315200Y136150D02*
Y138850D01*
X316000Y136150D02*
Y138850D01*
X316800Y136150D02*
Y138850D01*
X317850Y308100D02*
Y305900D01*
X315150*
Y308100*
X317850*
X315150Y306400D02*
X317850D01*
X315150Y307200D02*
X317850D01*
X315150Y308000D02*
X317850D01*
X315200Y305900D02*
Y308100D01*
X316000Y305900D02*
Y308100D01*
X316800Y305900D02*
Y308100D01*
X317600Y305900D02*
Y308100D01*
X312850D02*
Y305900D01*
X310150*
Y308100*
X312850*
X310150Y306400D02*
X312850D01*
X310150Y307200D02*
X312850D01*
X310150Y308000D02*
X312850D01*
X310400Y305900D02*
Y308100D01*
X311200Y305900D02*
Y308100D01*
X312000Y305900D02*
Y308100D01*
X312800Y305900D02*
Y308100D01*
X359150Y214900D02*
Y217100D01*
X361850*
Y214900*
X359150*
Y215200D02*
X361850D01*
X359150Y216000D02*
X361850D01*
X359150Y216800D02*
X361850D01*
X359200Y214900D02*
Y217100D01*
X360000Y214900D02*
Y217100D01*
X360800Y214900D02*
Y217100D01*
X361600Y214900D02*
Y217100D01*
X364150Y214900D02*
Y217100D01*
X366850*
Y214900*
X364150*
Y215200D02*
X366850D01*
X364150Y216000D02*
X366850D01*
X364150Y216800D02*
X366850D01*
X364800Y214900D02*
Y217100D01*
X365600Y214900D02*
Y217100D01*
X366400Y214900D02*
Y217100D01*
X295900Y240850D02*
X298100D01*
Y238150*
X295900*
Y240850*
Y238400D02*
X298100D01*
X295900Y239200D02*
X298100D01*
X295900Y240000D02*
X298100D01*
X295900Y240800D02*
X298100D01*
X296000Y238150D02*
Y240850D01*
X296800Y238150D02*
Y240850D01*
X297600Y238150D02*
Y240850D01*
X295900Y235850D02*
X298100D01*
Y233150*
X295900*
Y235850*
Y233600D02*
X298100D01*
X295900Y234400D02*
X298100D01*
X295900Y235200D02*
X298100D01*
X296000Y233150D02*
Y235850D01*
X296800Y233150D02*
Y235850D01*
X297600Y233150D02*
Y235850D01*
X135900Y286850D02*
X138100D01*
Y284150*
X135900*
Y286850*
Y284800D02*
X138100D01*
X135900Y285600D02*
X138100D01*
X135900Y286400D02*
X138100D01*
X136000Y284150D02*
Y286850D01*
X136800Y284150D02*
Y286850D01*
X137600Y284150D02*
Y286850D01*
X135900Y281850D02*
X138100D01*
Y279150*
X135900*
Y281850*
Y279200D02*
X138100D01*
X135900Y280000D02*
X138100D01*
X135900Y280800D02*
X138100D01*
X135900Y281600D02*
X138100D01*
X136000Y279150D02*
Y281850D01*
X136800Y279150D02*
Y281850D01*
X137600Y279150D02*
Y281850D01*
X156850Y232100D02*
Y229900D01*
X154150*
Y232100*
X156850*
X154150Y230400D02*
X156850D01*
X154150Y231200D02*
X156850D01*
X154150Y232000D02*
X156850D01*
X154400Y229900D02*
Y232100D01*
X155200Y229900D02*
Y232100D01*
X156000Y229900D02*
Y232100D01*
X156800Y229900D02*
Y232100D01*
X151850D02*
Y229900D01*
X149150*
Y232100*
X151850*
X149150Y230400D02*
X151850D01*
X149150Y231200D02*
X151850D01*
X149150Y232000D02*
X151850D01*
X149600Y229900D02*
Y232100D01*
X150400Y229900D02*
Y232100D01*
X151200Y229900D02*
Y232100D01*
X156850Y260100D02*
Y257900D01*
X154150*
Y260100*
X156850*
X154150Y258400D02*
X156850D01*
X154150Y259200D02*
X156850D01*
X154150Y260000D02*
X156850D01*
X154400Y257900D02*
Y260100D01*
X155200Y257900D02*
Y260100D01*
X156000Y257900D02*
Y260100D01*
X156800Y257900D02*
Y260100D01*
X151850D02*
Y257900D01*
X149150*
Y260100*
X151850*
X149150Y258400D02*
X151850D01*
X149150Y259200D02*
X151850D01*
X149150Y260000D02*
X151850D01*
X149600Y257900D02*
Y260100D01*
X150400Y257900D02*
Y260100D01*
X151200Y257900D02*
Y260100D01*
X163900Y264850D02*
X166100D01*
Y262150*
X163900*
Y264850*
Y262400D02*
X166100D01*
X163900Y263200D02*
X166100D01*
X163900Y264000D02*
X166100D01*
X163900Y264800D02*
X166100D01*
X164000Y262150D02*
Y264850D01*
X164800Y262150D02*
Y264850D01*
X165600Y262150D02*
Y264850D01*
X163900Y259850D02*
X166100D01*
Y257150*
X163900*
Y259850*
Y257600D02*
X166100D01*
X163900Y258400D02*
X166100D01*
X163900Y259200D02*
X166100D01*
X164000Y257150D02*
Y259850D01*
X164800Y257150D02*
Y259850D01*
X165600Y257150D02*
Y259850D01*
X155500Y297055D02*
X153945Y295500D01*
X152035Y297409*
X153591Y298965*
X155500Y297055*
X153444Y296000D02*
X154445D01*
X152644Y296800D02*
X155245D01*
X152226Y297600D02*
X154956D01*
X153026Y298400D02*
X154156D01*
X152800Y296644D02*
Y298174D01*
X153600Y295844D02*
Y298956D01*
X154400Y295955D02*
Y298156D01*
X155200Y296755D02*
Y297356D01*
X151965Y300591D02*
X150409Y299035D01*
X148500Y300945*
X150055Y302500*
X151965Y300591*
X150244Y299200D02*
X150574D01*
X149444Y300000D02*
X151374D01*
X148644Y300800D02*
X151756D01*
X149155Y301600D02*
X150956D01*
X149955Y302400D02*
X150156D01*
X148800Y300644D02*
Y301245D01*
X149600Y299844D02*
Y302045D01*
X150400Y299044D02*
Y302156D01*
X151200Y299826D02*
Y301356D01*
X143100Y168150D02*
X140900D01*
Y170850*
X143100*
Y168150*
X140900Y168800D02*
X143100D01*
X140900Y169600D02*
X143100D01*
X140900Y170400D02*
X143100D01*
X141600Y168150D02*
Y170850D01*
X142400Y168150D02*
Y170850D01*
X143100Y173150D02*
X140900D01*
Y175850*
X143100*
Y173150*
X140900Y173600D02*
X143100D01*
X140900Y174400D02*
X143100D01*
X140900Y175200D02*
X143100D01*
X141600Y173150D02*
Y175850D01*
X142400Y173150D02*
Y175850D01*
X141900Y286850D02*
X144100D01*
Y284150*
X141900*
Y286850*
Y284800D02*
X144100D01*
X141900Y285600D02*
X144100D01*
X141900Y286400D02*
X144100D01*
X142400Y284150D02*
Y286850D01*
X143200Y284150D02*
Y286850D01*
X144000Y284150D02*
Y286850D01*
X141900Y281850D02*
X144100D01*
Y279150*
X141900*
Y281850*
Y279200D02*
X144100D01*
X141900Y280000D02*
X144100D01*
X141900Y280800D02*
X144100D01*
X141900Y281600D02*
X144100D01*
X142400Y279150D02*
Y281850D01*
X143200Y279150D02*
Y281850D01*
X144000Y279150D02*
Y281850D01*
X371850Y223100D02*
Y220900D01*
X369150*
Y223100*
X371850*
X369150Y221600D02*
X371850D01*
X369150Y222400D02*
X371850D01*
X369600Y220900D02*
Y223100D01*
X370400Y220900D02*
Y223100D01*
X371200Y220900D02*
Y223100D01*
X366850D02*
Y220900D01*
X364150*
Y223100*
X366850*
X364150Y221600D02*
X366850D01*
X364150Y222400D02*
X366850D01*
X364800Y220900D02*
Y223100D01*
X365600Y220900D02*
Y223100D01*
X366400Y220900D02*
Y223100D01*
X386900Y288850D02*
X389100D01*
Y286150*
X386900*
Y288850*
Y286400D02*
X389100D01*
X386900Y287200D02*
X389100D01*
X386900Y288000D02*
X389100D01*
X386900Y288800D02*
X389100D01*
X387200Y286150D02*
Y288850D01*
X388000Y286150D02*
Y288850D01*
X388800Y286150D02*
Y288850D01*
X386900Y283850D02*
X389100D01*
Y281150*
X386900*
Y283850*
Y281600D02*
X389100D01*
X386900Y282400D02*
X389100D01*
X386900Y283200D02*
X389100D01*
X387200Y281150D02*
Y283850D01*
X388000Y281150D02*
Y283850D01*
X388800Y281150D02*
Y283850D01*
X304100Y231150D02*
X301900D01*
Y233850*
X304100*
Y231150*
X301900Y231200D02*
X304100D01*
X301900Y232000D02*
X304100D01*
X301900Y232800D02*
X304100D01*
X301900Y233600D02*
X304100D01*
X302400Y231150D02*
Y233850D01*
X303200Y231150D02*
Y233850D01*
X304000Y231150D02*
Y233850D01*
X304100Y236150D02*
X301900D01*
Y238850*
X304100*
Y236150*
X301900Y236800D02*
X304100D01*
X301900Y237600D02*
X304100D01*
X301900Y238400D02*
X304100D01*
X302400Y236150D02*
Y238850D01*
X303200Y236150D02*
Y238850D01*
X304000Y236150D02*
Y238850D01*
X240850Y261100D02*
Y258900D01*
X238150*
Y261100*
X240850*
X238150Y259200D02*
X240850D01*
X238150Y260000D02*
X240850D01*
X238150Y260800D02*
X240850D01*
X238400Y258900D02*
Y261100D01*
X239200Y258900D02*
Y261100D01*
X240000Y258900D02*
Y261100D01*
X240800Y258900D02*
Y261100D01*
X235850D02*
Y258900D01*
X233150*
Y261100*
X235850*
X233150Y259200D02*
X235850D01*
X233150Y260000D02*
X235850D01*
X233150Y260800D02*
X235850D01*
X233600Y258900D02*
Y261100D01*
X234400Y258900D02*
Y261100D01*
X235200Y258900D02*
Y261100D01*
X240850Y310100D02*
Y307900D01*
X238150*
Y310100*
X240850*
X238150Y308000D02*
X240850D01*
X238150Y308800D02*
X240850D01*
X238150Y309600D02*
X240850D01*
X238400Y307900D02*
Y310100D01*
X239200Y307900D02*
Y310100D01*
X240000Y307900D02*
Y310100D01*
X240800Y307900D02*
Y310100D01*
X235850D02*
Y307900D01*
X233150*
Y310100*
X235850*
X233150Y308000D02*
X235850D01*
X233150Y308800D02*
X235850D01*
X233150Y309600D02*
X235850D01*
X233600Y307900D02*
Y310100D01*
X234400Y307900D02*
Y310100D01*
X235200Y307900D02*
Y310100D01*
X344150Y298900D02*
Y301100D01*
X346850*
Y298900*
X344150*
Y299200D02*
X346850D01*
X344150Y300000D02*
X346850D01*
X344150Y300800D02*
X346850D01*
X344800Y298900D02*
Y301100D01*
X345600Y298900D02*
Y301100D01*
X346400Y298900D02*
Y301100D01*
X349150Y298900D02*
Y301100D01*
X351850*
Y298900*
X349150*
Y299200D02*
X351850D01*
X349150Y300000D02*
X351850D01*
X349150Y300800D02*
X351850D01*
X349600Y298900D02*
Y301100D01*
X350400Y298900D02*
Y301100D01*
X351200Y298900D02*
Y301100D01*
X305100Y280150D02*
X302900D01*
Y282850*
X305100*
Y280150*
X302900Y280800D02*
X305100D01*
X302900Y281600D02*
X305100D01*
X302900Y282400D02*
X305100D01*
X303200Y280150D02*
Y282850D01*
X304000Y280150D02*
Y282850D01*
X304800Y280150D02*
Y282850D01*
X305100Y285150D02*
X302900D01*
Y287850*
X305100*
Y285150*
X302900Y285600D02*
X305100D01*
X302900Y286400D02*
X305100D01*
X302900Y287200D02*
X305100D01*
X303200Y285150D02*
Y287850D01*
X304000Y285150D02*
Y287850D01*
X304800Y285150D02*
Y287850D01*
X321150Y305900D02*
Y308100D01*
X323850*
Y305900*
X321150*
Y306400D02*
X323850D01*
X321150Y307200D02*
X323850D01*
X321150Y308000D02*
X323850D01*
X321600Y305900D02*
Y308100D01*
X322400Y305900D02*
Y308100D01*
X323200Y305900D02*
Y308100D01*
X326150Y305900D02*
Y308100D01*
X328850*
Y305900*
X326150*
Y306400D02*
X328850D01*
X326150Y307200D02*
X328850D01*
X326150Y308000D02*
X328850D01*
X326400Y305900D02*
Y308100D01*
X327200Y305900D02*
Y308100D01*
X328000Y305900D02*
Y308100D01*
X328800Y305900D02*
Y308100D01*
X138900Y160850D02*
X141100D01*
Y158150*
X138900*
Y160850*
Y158400D02*
X141100D01*
X138900Y159200D02*
X141100D01*
X138900Y160000D02*
X141100D01*
X138900Y160800D02*
X141100D01*
X139200Y158150D02*
Y160850D01*
X140000Y158150D02*
Y160850D01*
X140800Y158150D02*
Y160850D01*
X138900Y155850D02*
X141100D01*
Y153150*
X138900*
Y155850*
Y153600D02*
X141100D01*
X138900Y154400D02*
X141100D01*
X138900Y155200D02*
X141100D01*
X139200Y153150D02*
Y155850D01*
X140000Y153150D02*
Y155850D01*
X140800Y153150D02*
Y155850D01*
X215900Y277850D02*
X218100D01*
Y275150*
X215900*
Y277850*
Y275200D02*
X218100D01*
X215900Y276000D02*
X218100D01*
X215900Y276800D02*
X218100D01*
X215900Y277600D02*
X218100D01*
X216000Y275150D02*
Y277850D01*
X216800Y275150D02*
Y277850D01*
X217600Y275150D02*
Y277850D01*
X215900Y272850D02*
X218100D01*
Y270150*
X215900*
Y272850*
Y270400D02*
X218100D01*
X215900Y271200D02*
X218100D01*
X215900Y272000D02*
X218100D01*
X215900Y272800D02*
X218100D01*
X216000Y270150D02*
Y272850D01*
X216800Y270150D02*
Y272850D01*
X217600Y270150D02*
Y272850D01*
X215900Y326850D02*
X218100D01*
Y324150*
X215900*
Y326850*
Y324800D02*
X218100D01*
X215900Y325600D02*
X218100D01*
X215900Y326400D02*
X218100D01*
X216000Y324150D02*
Y326850D01*
X216800Y324150D02*
Y326850D01*
X217600Y324150D02*
Y326850D01*
X215900Y321850D02*
X218100D01*
Y319150*
X215900*
Y321850*
Y319200D02*
X218100D01*
X215900Y320000D02*
X218100D01*
X215900Y320800D02*
X218100D01*
X215900Y321600D02*
X218100D01*
X216000Y319150D02*
Y321850D01*
X216800Y319150D02*
Y321850D01*
X217600Y319150D02*
Y321850D01*
X221900Y277850D02*
X224100D01*
Y275150*
X221900*
Y277850*
Y275200D02*
X224100D01*
X221900Y276000D02*
X224100D01*
X221900Y276800D02*
X224100D01*
X221900Y277600D02*
X224100D01*
X222400Y275150D02*
Y277850D01*
X223200Y275150D02*
Y277850D01*
X224000Y275150D02*
Y277850D01*
X221900Y272850D02*
X224100D01*
Y270150*
X221900*
Y272850*
Y270400D02*
X224100D01*
X221900Y271200D02*
X224100D01*
X221900Y272000D02*
X224100D01*
X221900Y272800D02*
X224100D01*
X222400Y270150D02*
Y272850D01*
X223200Y270150D02*
Y272850D01*
X224000Y270150D02*
Y272850D01*
X221900Y326850D02*
X224100D01*
Y324150*
X221900*
Y326850*
Y324800D02*
X224100D01*
X221900Y325600D02*
X224100D01*
X221900Y326400D02*
X224100D01*
X222400Y324150D02*
Y326850D01*
X223200Y324150D02*
Y326850D01*
X224000Y324150D02*
Y326850D01*
X221900Y321850D02*
X224100D01*
Y319150*
X221900*
Y321850*
Y319200D02*
X224100D01*
X221900Y320000D02*
X224100D01*
X221900Y320800D02*
X224100D01*
X221900Y321600D02*
X224100D01*
X222400Y319150D02*
Y321850D01*
X223200Y319150D02*
Y321850D01*
X224000Y319150D02*
Y321850D01*
X292100Y277150D02*
X289900D01*
Y279850*
X292100*
Y277150*
X289900Y277600D02*
X292100D01*
X289900Y278400D02*
X292100D01*
X289900Y279200D02*
X292100D01*
X290400Y277150D02*
Y279850D01*
X291200Y277150D02*
Y279850D01*
X292000Y277150D02*
Y279850D01*
X292100Y282150D02*
X289900D01*
Y284850*
X292100*
Y282150*
X289900Y282400D02*
X292100D01*
X289900Y283200D02*
X292100D01*
X289900Y284000D02*
X292100D01*
X289900Y284800D02*
X292100D01*
X290400Y282150D02*
Y284850D01*
X291200Y282150D02*
Y284850D01*
X292000Y282150D02*
Y284850D01*
X243900Y277850D02*
X246100D01*
Y275150*
X243900*
Y277850*
Y275200D02*
X246100D01*
X243900Y276000D02*
X246100D01*
X243900Y276800D02*
X246100D01*
X243900Y277600D02*
X246100D01*
X244000Y275150D02*
Y277850D01*
X244800Y275150D02*
Y277850D01*
X245600Y275150D02*
Y277850D01*
X243900Y272850D02*
X246100D01*
Y270150*
X243900*
Y272850*
Y270400D02*
X246100D01*
X243900Y271200D02*
X246100D01*
X243900Y272000D02*
X246100D01*
X243900Y272800D02*
X246100D01*
X244000Y270150D02*
Y272850D01*
X244800Y270150D02*
Y272850D01*
X245600Y270150D02*
Y272850D01*
X215900Y266850D02*
X218100D01*
Y264150*
X215900*
Y266850*
Y264800D02*
X218100D01*
X215900Y265600D02*
X218100D01*
X215900Y266400D02*
X218100D01*
X216000Y264150D02*
Y266850D01*
X216800Y264150D02*
Y266850D01*
X217600Y264150D02*
Y266850D01*
X215900Y261850D02*
X218100D01*
Y259150*
X215900*
Y261850*
Y259200D02*
X218100D01*
X215900Y260000D02*
X218100D01*
X215900Y260800D02*
X218100D01*
X215900Y261600D02*
X218100D01*
X216000Y259150D02*
Y261850D01*
X216800Y259150D02*
Y261850D01*
X217600Y259150D02*
Y261850D01*
X243900Y326850D02*
X246100D01*
Y324150*
X243900*
Y326850*
Y324800D02*
X246100D01*
X243900Y325600D02*
X246100D01*
X243900Y326400D02*
X246100D01*
X244000Y324150D02*
Y326850D01*
X244800Y324150D02*
Y326850D01*
X245600Y324150D02*
Y326850D01*
X243900Y321850D02*
X246100D01*
Y319150*
X243900*
Y321850*
Y319200D02*
X246100D01*
X243900Y320000D02*
X246100D01*
X243900Y320800D02*
X246100D01*
X243900Y321600D02*
X246100D01*
X244000Y319150D02*
Y321850D01*
X244800Y319150D02*
Y321850D01*
X245600Y319150D02*
Y321850D01*
X215900Y315850D02*
X218100D01*
Y313150*
X215900*
Y315850*
Y313600D02*
X218100D01*
X215900Y314400D02*
X218100D01*
X215900Y315200D02*
X218100D01*
X216000Y313150D02*
Y315850D01*
X216800Y313150D02*
Y315850D01*
X217600Y313150D02*
Y315850D01*
X215900Y310850D02*
X218100D01*
Y308150*
X215900*
Y310850*
Y308800D02*
X218100D01*
X215900Y309600D02*
X218100D01*
X215900Y310400D02*
X218100D01*
X216000Y308150D02*
Y310850D01*
X216800Y308150D02*
Y310850D01*
X217600Y308150D02*
Y310850D01*
X134900Y333850D02*
X137100D01*
Y331150*
X134900*
Y333850*
Y331200D02*
X137100D01*
X134900Y332000D02*
X137100D01*
X134900Y332800D02*
X137100D01*
X134900Y333600D02*
X137100D01*
X135200Y331150D02*
Y333850D01*
X136000Y331150D02*
Y333850D01*
X136800Y331150D02*
Y333850D01*
X134900Y328850D02*
X137100D01*
Y326150*
X134900*
Y328850*
Y326400D02*
X137100D01*
X134900Y327200D02*
X137100D01*
X134900Y328000D02*
X137100D01*
X134900Y328800D02*
X137100D01*
X135200Y326150D02*
Y328850D01*
X136000Y326150D02*
Y328850D01*
X136800Y326150D02*
Y328850D01*
X140900Y333850D02*
X143100D01*
Y331150*
X140900*
Y333850*
Y331200D02*
X143100D01*
X140900Y332000D02*
X143100D01*
X140900Y332800D02*
X143100D01*
X140900Y333600D02*
X143100D01*
X141600Y331150D02*
Y333850D01*
X142400Y331150D02*
Y333850D01*
X140900Y328850D02*
X143100D01*
Y326150*
X140900*
Y328850*
Y326400D02*
X143100D01*
X140900Y327200D02*
X143100D01*
X140900Y328000D02*
X143100D01*
X140900Y328800D02*
X143100D01*
X141600Y326150D02*
Y328850D01*
X142400Y326150D02*
Y328850D01*
X258900Y159850D02*
X261100D01*
Y157150*
X258900*
Y159850*
Y157600D02*
X261100D01*
X258900Y158400D02*
X261100D01*
X258900Y159200D02*
X261100D01*
X259200Y157150D02*
Y159850D01*
X260000Y157150D02*
Y159850D01*
X260800Y157150D02*
Y159850D01*
X258900Y154850D02*
X261100D01*
Y152150*
X258900*
Y154850*
Y152800D02*
X261100D01*
X258900Y153600D02*
X261100D01*
X258900Y154400D02*
X261100D01*
X259200Y152150D02*
Y154850D01*
X260000Y152150D02*
Y154850D01*
X260800Y152150D02*
Y154850D01*
X240900Y159850D02*
X243100D01*
Y157150*
X240900*
Y159850*
Y157600D02*
X243100D01*
X240900Y158400D02*
X243100D01*
X240900Y159200D02*
X243100D01*
X241600Y157150D02*
Y159850D01*
X242400Y157150D02*
Y159850D01*
X240900Y154850D02*
X243100D01*
Y152150*
X240900*
Y154850*
Y152800D02*
X243100D01*
X240900Y153600D02*
X243100D01*
X240900Y154400D02*
X243100D01*
X241600Y152150D02*
Y154850D01*
X242400Y152150D02*
Y154850D01*
X202900Y159850D02*
X205100D01*
Y157150*
X202900*
Y159850*
Y157600D02*
X205100D01*
X202900Y158400D02*
X205100D01*
X202900Y159200D02*
X205100D01*
X203200Y157150D02*
Y159850D01*
X204000Y157150D02*
Y159850D01*
X204800Y157150D02*
Y159850D01*
X202900Y154850D02*
X205100D01*
Y152150*
X202900*
Y154850*
Y152800D02*
X205100D01*
X202900Y153600D02*
X205100D01*
X202900Y154400D02*
X205100D01*
X203200Y152150D02*
Y154850D01*
X204000Y152150D02*
Y154850D01*
X204800Y152150D02*
Y154850D01*
X184900Y159850D02*
X187100D01*
Y157150*
X184900*
Y159850*
Y157600D02*
X187100D01*
X184900Y158400D02*
X187100D01*
X184900Y159200D02*
X187100D01*
X185600Y157150D02*
Y159850D01*
X186400Y157150D02*
Y159850D01*
X184900Y154850D02*
X187100D01*
Y152150*
X184900*
Y154850*
Y152800D02*
X187100D01*
X184900Y153600D02*
X187100D01*
X184900Y154400D02*
X187100D01*
X185600Y152150D02*
Y154850D01*
X186400Y152150D02*
Y154850D01*
X255100Y147150D02*
X252900D01*
Y149850*
X255100*
Y147150*
X252900Y147200D02*
X255100D01*
X252900Y148000D02*
X255100D01*
X252900Y148800D02*
X255100D01*
X252900Y149600D02*
X255100D01*
X253600Y147150D02*
Y149850D01*
X254400Y147150D02*
Y149850D01*
X255100Y152150D02*
X252900D01*
Y154850*
X255100*
Y152150*
X252900Y152800D02*
X255100D01*
X252900Y153600D02*
X255100D01*
X252900Y154400D02*
X255100D01*
X253600Y152150D02*
Y154850D01*
X254400Y152150D02*
Y154850D01*
X249100Y147150D02*
X246900D01*
Y149850*
X249100*
Y147150*
X246900Y147200D02*
X249100D01*
X246900Y148000D02*
X249100D01*
X246900Y148800D02*
X249100D01*
X246900Y149600D02*
X249100D01*
X247200Y147150D02*
Y149850D01*
X248000Y147150D02*
Y149850D01*
X248800Y147150D02*
Y149850D01*
X249100Y152150D02*
X246900D01*
Y154850*
X249100*
Y152150*
X246900Y152800D02*
X249100D01*
X246900Y153600D02*
X249100D01*
X246900Y154400D02*
X249100D01*
X247200Y152150D02*
Y154850D01*
X248000Y152150D02*
Y154850D01*
X248800Y152150D02*
Y154850D01*
X199100Y147150D02*
X196900D01*
Y149850*
X199100*
Y147150*
X196900Y147200D02*
X199100D01*
X196900Y148000D02*
X199100D01*
X196900Y148800D02*
X199100D01*
X196900Y149600D02*
X199100D01*
X197600Y147150D02*
Y149850D01*
X198400Y147150D02*
Y149850D01*
X199100Y152150D02*
X196900D01*
Y154850*
X199100*
Y152150*
X196900Y152800D02*
X199100D01*
X196900Y153600D02*
X199100D01*
X196900Y154400D02*
X199100D01*
X197600Y152150D02*
Y154850D01*
X198400Y152150D02*
Y154850D01*
X193100Y147150D02*
X190900D01*
Y149850*
X193100*
Y147150*
X190900Y147200D02*
X193100D01*
X190900Y148000D02*
X193100D01*
X190900Y148800D02*
X193100D01*
X190900Y149600D02*
X193100D01*
X191200Y147150D02*
Y149850D01*
X192000Y147150D02*
Y149850D01*
X192800Y147150D02*
Y149850D01*
X193100Y152150D02*
X190900D01*
Y154850*
X193100*
Y152150*
X190900Y152800D02*
X193100D01*
X190900Y153600D02*
X193100D01*
X190900Y154400D02*
X193100D01*
X191200Y152150D02*
Y154850D01*
X192000Y152150D02*
Y154850D01*
X192800Y152150D02*
Y154850D01*
X258900Y148850D02*
X261100D01*
Y146150*
X258900*
Y148850*
Y146400D02*
X261100D01*
X258900Y147200D02*
X261100D01*
X258900Y148000D02*
X261100D01*
X258900Y148800D02*
X261100D01*
X259200Y146150D02*
Y148850D01*
X260000Y146150D02*
Y148850D01*
X260800Y146150D02*
Y148850D01*
X258900Y143850D02*
X261100D01*
Y141150*
X258900*
Y143850*
Y141600D02*
X261100D01*
X258900Y142400D02*
X261100D01*
X258900Y143200D02*
X261100D01*
X259200Y141150D02*
Y143850D01*
X260000Y141150D02*
Y143850D01*
X260800Y141150D02*
Y143850D01*
X240900Y148850D02*
X243100D01*
Y146150*
X240900*
Y148850*
Y146400D02*
X243100D01*
X240900Y147200D02*
X243100D01*
X240900Y148000D02*
X243100D01*
X240900Y148800D02*
X243100D01*
X241600Y146150D02*
Y148850D01*
X242400Y146150D02*
Y148850D01*
X240900Y143850D02*
X243100D01*
Y141150*
X240900*
Y143850*
Y141600D02*
X243100D01*
X240900Y142400D02*
X243100D01*
X240900Y143200D02*
X243100D01*
X241600Y141150D02*
Y143850D01*
X242400Y141150D02*
Y143850D01*
X202900Y148850D02*
X205100D01*
Y146150*
X202900*
Y148850*
Y146400D02*
X205100D01*
X202900Y147200D02*
X205100D01*
X202900Y148000D02*
X205100D01*
X202900Y148800D02*
X205100D01*
X203200Y146150D02*
Y148850D01*
X204000Y146150D02*
Y148850D01*
X204800Y146150D02*
Y148850D01*
X202900Y143850D02*
X205100D01*
Y141150*
X202900*
Y143850*
Y141600D02*
X205100D01*
X202900Y142400D02*
X205100D01*
X202900Y143200D02*
X205100D01*
X203200Y141150D02*
Y143850D01*
X204000Y141150D02*
Y143850D01*
X204800Y141150D02*
Y143850D01*
X184900Y148850D02*
X187100D01*
Y146150*
X184900*
Y148850*
Y146400D02*
X187100D01*
X184900Y147200D02*
X187100D01*
X184900Y148000D02*
X187100D01*
X184900Y148800D02*
X187100D01*
X185600Y146150D02*
Y148850D01*
X186400Y146150D02*
Y148850D01*
X184900Y143850D02*
X187100D01*
Y141150*
X184900*
Y143850*
Y141600D02*
X187100D01*
X184900Y142400D02*
X187100D01*
X184900Y143200D02*
X187100D01*
X185600Y141150D02*
Y143850D01*
X186400Y141150D02*
Y143850D01*
X247150Y140900D02*
Y143100D01*
X249850*
Y140900*
X247150*
Y141600D02*
X249850D01*
X247150Y142400D02*
X249850D01*
X247200Y140900D02*
Y143100D01*
X248000Y140900D02*
Y143100D01*
X248800Y140900D02*
Y143100D01*
X249600Y140900D02*
Y143100D01*
X252150Y140900D02*
Y143100D01*
X254850*
Y140900*
X252150*
Y141600D02*
X254850D01*
X252150Y142400D02*
X254850D01*
X252800Y140900D02*
Y143100D01*
X253600Y140900D02*
Y143100D01*
X254400Y140900D02*
Y143100D01*
X191150Y140900D02*
Y143100D01*
X193850*
Y140900*
X191150*
Y141600D02*
X193850D01*
X191150Y142400D02*
X193850D01*
X191200Y140900D02*
Y143100D01*
X192000Y140900D02*
Y143100D01*
X192800Y140900D02*
Y143100D01*
X193600Y140900D02*
Y143100D01*
X196150Y140900D02*
Y143100D01*
X198850*
Y140900*
X196150*
Y141600D02*
X198850D01*
X196150Y142400D02*
X198850D01*
X196800Y140900D02*
Y143100D01*
X197600Y140900D02*
Y143100D01*
X198400Y140900D02*
Y143100D01*
X192850Y284100D02*
Y281900D01*
X190150*
Y284100*
X192850*
X190150Y282400D02*
X192850D01*
X190150Y283200D02*
X192850D01*
X190150Y284000D02*
X192850D01*
X190400Y281900D02*
Y284100D01*
X191200Y281900D02*
Y284100D01*
X192000Y281900D02*
Y284100D01*
X192800Y281900D02*
Y284100D01*
X187850D02*
Y281900D01*
X185150*
Y284100*
X187850*
X185150Y282400D02*
X187850D01*
X185150Y283200D02*
X187850D01*
X185150Y284000D02*
X187850D01*
X185600Y281900D02*
Y284100D01*
X186400Y281900D02*
Y284100D01*
X187200Y281900D02*
Y284100D01*
X192850Y344100D02*
Y341900D01*
X190150*
Y344100*
X192850*
X190150Y342400D02*
X192850D01*
X190150Y343200D02*
X192850D01*
X190150Y344000D02*
X192850D01*
X190400Y341900D02*
Y344100D01*
X191200Y341900D02*
Y344100D01*
X192000Y341900D02*
Y344100D01*
X192800Y341900D02*
Y344100D01*
X187850D02*
Y341900D01*
X185150*
Y344100*
X187850*
X185150Y342400D02*
X187850D01*
X185150Y343200D02*
X187850D01*
X185150Y344000D02*
X187850D01*
X185600Y341900D02*
Y344100D01*
X186400Y341900D02*
Y344100D01*
X187200Y341900D02*
Y344100D01*
X365150Y167900D02*
Y170100D01*
X367850*
Y167900*
X365150*
Y168000D02*
X367850D01*
X365150Y168800D02*
X367850D01*
X365150Y169600D02*
X367850D01*
X365600Y167900D02*
Y170100D01*
X366400Y167900D02*
Y170100D01*
X367200Y167900D02*
Y170100D01*
X370150Y167900D02*
Y170100D01*
X372850*
Y167900*
X370150*
Y168000D02*
X372850D01*
X370150Y168800D02*
X372850D01*
X370150Y169600D02*
X372850D01*
X370400Y167900D02*
Y170100D01*
X371200Y167900D02*
Y170100D01*
X372000Y167900D02*
Y170100D01*
X372800Y167900D02*
Y170100D01*
X281100Y156150D02*
X278900D01*
Y158850*
X281100*
Y156150*
X278900Y156800D02*
X281100D01*
X278900Y157600D02*
X281100D01*
X278900Y158400D02*
X281100D01*
X279200Y156150D02*
Y158850D01*
X280000Y156150D02*
Y158850D01*
X280800Y156150D02*
Y158850D01*
X281100Y161150D02*
X278900D01*
Y163850*
X281100*
Y161150*
X278900Y161600D02*
X281100D01*
X278900Y162400D02*
X281100D01*
X278900Y163200D02*
X281100D01*
X279200Y161150D02*
Y163850D01*
X280000Y161150D02*
Y163850D01*
X280800Y161150D02*
Y163850D01*
X292100Y156150D02*
X289900D01*
Y158850*
X292100*
Y156150*
X289900Y156800D02*
X292100D01*
X289900Y157600D02*
X292100D01*
X289900Y158400D02*
X292100D01*
X290400Y156150D02*
Y158850D01*
X291200Y156150D02*
Y158850D01*
X292000Y156150D02*
Y158850D01*
X292100Y161150D02*
X289900D01*
Y163850*
X292100*
Y161150*
X289900Y161600D02*
X292100D01*
X289900Y162400D02*
X292100D01*
X289900Y163200D02*
X292100D01*
X290400Y161150D02*
Y163850D01*
X291200Y161150D02*
Y163850D01*
X292000Y161150D02*
Y163850D01*
G54D12*
X372693Y318244D02*
Y316276D01*
X369543*
Y318244*
X372693*
X369543Y316535D02*
X372693D01*
X369543Y317323D02*
X372693D01*
X369543Y318110D02*
X372693D01*
X370079Y316276D02*
Y318244D01*
X370866Y316276D02*
Y318244D01*
X371654Y316276D02*
Y318244D01*
X372441Y316276D02*
Y318244D01*
X372693Y321984D02*
Y320016D01*
X369543*
Y321984*
X372693*
X369543Y320472D02*
X372693D01*
X369543Y321260D02*
X372693D01*
X370079Y320016D02*
Y321984D01*
X370866Y320016D02*
Y321984D01*
X371654Y320016D02*
Y321984D01*
X372441Y320016D02*
Y321984D01*
X372693Y325724D02*
Y323756D01*
X369543*
Y325724*
X372693*
X369543Y324409D02*
X372693D01*
X369543Y325197D02*
X372693D01*
X370079Y323756D02*
Y325724D01*
X370866Y323756D02*
Y325724D01*
X371654Y323756D02*
Y325724D01*
X372441Y323756D02*
Y325724D01*
X362457D02*
Y323756D01*
X359307*
Y325724*
X362457*
X359307Y324409D02*
X362457D01*
X359307Y325197D02*
X362457D01*
X359843Y323756D02*
Y325724D01*
X360630Y323756D02*
Y325724D01*
X361417Y323756D02*
Y325724D01*
X362205Y323756D02*
Y325724D01*
X362457Y318244D02*
Y316276D01*
X359307*
Y318244*
X362457*
X359307Y316535D02*
X362457D01*
X359307Y317323D02*
X362457D01*
X359307Y318110D02*
X362457D01*
X359843Y316276D02*
Y318244D01*
X360630Y316276D02*
Y318244D01*
X361417Y316276D02*
Y318244D01*
X362205Y316276D02*
Y318244D01*
X266394Y148360D02*
Y151573D01*
X269606*
Y148360*
X266394*
Y148819D02*
X269606D01*
X266394Y149606D02*
X269606D01*
X266394Y150394D02*
X269606D01*
X266394Y151181D02*
X269606D01*
X266929Y148360D02*
Y151573D01*
X267717Y148360D02*
Y151573D01*
X268504Y148360D02*
Y151573D01*
X269291Y148360D02*
Y151573D01*
X266394Y142427D02*
Y145640D01*
X269606*
Y142427*
X266394*
Y142520D02*
X269606D01*
X266394Y143307D02*
X269606D01*
X266394Y144094D02*
X269606D01*
X266394Y144882D02*
X269606D01*
X266929Y142427D02*
Y145640D01*
X267717Y142427D02*
Y145640D01*
X268504Y142427D02*
Y145640D01*
X269291Y142427D02*
Y145640D01*
X282512Y126953D02*
X284874D01*
Y121047*
X282512*
Y126953*
Y121260D02*
X284874D01*
X282512Y122047D02*
X284874D01*
X282512Y122835D02*
X284874D01*
X282512Y123622D02*
X284874D01*
X282512Y124409D02*
X284874D01*
X282512Y125197D02*
X284874D01*
X282512Y125984D02*
X284874D01*
X282512Y126772D02*
X284874D01*
X282677Y121047D02*
Y126953D01*
X283465Y121047D02*
Y126953D01*
X284252Y121047D02*
Y126953D01*
X269126D02*
X271488D01*
Y121047*
X269126*
Y126953*
Y121260D02*
X271488D01*
X269126Y122047D02*
X271488D01*
X269126Y122835D02*
X271488D01*
X269126Y123622D02*
X271488D01*
X269126Y124409D02*
X271488D01*
X269126Y125197D02*
X271488D01*
X269126Y125984D02*
X271488D01*
X269126Y126772D02*
X271488D01*
X269291Y121047D02*
Y126953D01*
X270079Y121047D02*
Y126953D01*
X270866Y121047D02*
Y126953D01*
X282512Y112953D02*
X284874D01*
Y107047*
X282512*
Y112953*
Y107087D02*
X284874D01*
X282512Y107874D02*
X284874D01*
X282512Y108661D02*
X284874D01*
X282512Y109449D02*
X284874D01*
X282512Y110236D02*
X284874D01*
X282512Y111024D02*
X284874D01*
X282512Y111811D02*
X284874D01*
X282512Y112598D02*
X284874D01*
X282677Y107047D02*
Y112953D01*
X283465Y107047D02*
Y112953D01*
X284252Y107047D02*
Y112953D01*
X269126D02*
X271488D01*
Y107047*
X269126*
Y112953*
Y107087D02*
X271488D01*
X269126Y107874D02*
X271488D01*
X269126Y108661D02*
X271488D01*
X269126Y109449D02*
X271488D01*
X269126Y110236D02*
X271488D01*
X269126Y111024D02*
X271488D01*
X269126Y111811D02*
X271488D01*
X269126Y112598D02*
X271488D01*
X269291Y107047D02*
Y112953D01*
X270079Y107047D02*
Y112953D01*
X270866Y107047D02*
Y112953D01*
X123291Y156165D02*
Y156953D01*
X126047*
Y156165*
X123291*
Y156693D02*
X126047D01*
X123622Y156165D02*
Y156953D01*
X124409Y156165D02*
Y156953D01*
X125197Y156165D02*
Y156953D01*
X125984Y156165D02*
Y156953D01*
X123291Y153606D02*
Y154394D01*
X126047*
Y153606*
X123291*
Y154331D02*
X126047D01*
X123622Y153606D02*
Y154394D01*
X124409Y153606D02*
Y154394D01*
X125197Y153606D02*
Y154394D01*
X125984Y153606D02*
Y154394D01*
X123291Y151047D02*
Y151835D01*
X126047*
Y151047*
X123291*
Y151181D02*
X126047D01*
X123622Y151047D02*
Y151835D01*
X124409Y151047D02*
Y151835D01*
X125197Y151047D02*
Y151835D01*
X125984Y151047D02*
Y151835D01*
X131953Y151047D02*
Y151835D01*
X134709*
Y151047*
X131953*
Y151181D02*
X134709D01*
X132283Y151047D02*
Y151835D01*
X133071Y151047D02*
Y151835D01*
X133858Y151047D02*
Y151835D01*
X134646Y151047D02*
Y151835D01*
X131953Y153606D02*
Y154394D01*
X134709*
Y153606*
X131953*
Y154331D02*
X134709D01*
X132283Y153606D02*
Y154394D01*
X133071Y153606D02*
Y154394D01*
X133858Y153606D02*
Y154394D01*
X134646Y153606D02*
Y154394D01*
X131953Y156165D02*
Y156953D01*
X134709*
Y156165*
X131953*
Y156693D02*
X134709D01*
X132283Y156165D02*
Y156953D01*
X133071Y156165D02*
Y156953D01*
X133858Y156165D02*
Y156953D01*
X134646Y156165D02*
Y156953D01*
X161130Y243130D02*
Y246870D01*
X164870*
Y243130*
X161130*
Y243307D02*
X164870D01*
X161130Y244094D02*
X164870D01*
X161130Y244882D02*
X164870D01*
X161130Y245669D02*
X164870D01*
X161130Y246457D02*
X164870D01*
X161417Y243130D02*
Y246870D01*
X162205Y243130D02*
Y246870D01*
X162992Y243130D02*
Y246870D01*
X163780Y243130D02*
Y246870D01*
X164567Y243130D02*
Y246870D01*
X161130Y275130D02*
Y278870D01*
X164870*
Y275130*
X161130*
Y275591D02*
X164870D01*
X161130Y276378D02*
X164870D01*
X161130Y277165D02*
X164870D01*
X161130Y277953D02*
X164870D01*
X161130Y278740D02*
X164870D01*
X161417Y275130D02*
Y278870D01*
X162205Y275130D02*
Y278870D01*
X162992Y275130D02*
Y278870D01*
X163780Y275130D02*
Y278870D01*
X164567Y275130D02*
Y278870D01*
X161130Y211130D02*
Y214870D01*
X164870*
Y211130*
X161130*
Y211811D02*
X164870D01*
X161130Y212598D02*
X164870D01*
X161130Y213386D02*
X164870D01*
X161130Y214173D02*
X164870D01*
X161417Y211130D02*
Y214870D01*
X162205Y211130D02*
Y214870D01*
X162992Y211130D02*
Y214870D01*
X163780Y211130D02*
Y214870D01*
X164567Y211130D02*
Y214870D01*
X278394Y148360D02*
Y151573D01*
X281606*
Y148360*
X278394*
Y148819D02*
X281606D01*
X278394Y149606D02*
X281606D01*
X278394Y150394D02*
X281606D01*
X278394Y151181D02*
X281606D01*
X278740Y148360D02*
Y151573D01*
X279528Y148360D02*
Y151573D01*
X280315Y148360D02*
Y151573D01*
X281102Y148360D02*
Y151573D01*
X278394Y142427D02*
Y145640D01*
X281606*
Y142427*
X278394*
Y142520D02*
X281606D01*
X278394Y143307D02*
X281606D01*
X278394Y144094D02*
X281606D01*
X278394Y144882D02*
X281606D01*
X278740Y142427D02*
Y145640D01*
X279528Y142427D02*
Y145640D01*
X280315Y142427D02*
Y145640D01*
X281102Y142427D02*
Y145640D01*
X290394Y148360D02*
Y151573D01*
X293606*
Y148360*
X290394*
Y148819D02*
X293606D01*
X290394Y149606D02*
X293606D01*
X290394Y150394D02*
X293606D01*
X290394Y151181D02*
X293606D01*
X290551Y148360D02*
Y151573D01*
X291339Y148360D02*
Y151573D01*
X292126Y148360D02*
Y151573D01*
X292913Y148360D02*
Y151573D01*
X290394Y142427D02*
Y145640D01*
X293606*
Y142427*
X290394*
Y142520D02*
X293606D01*
X290394Y143307D02*
X293606D01*
X290394Y144094D02*
X293606D01*
X290394Y144882D02*
X293606D01*
X290551Y142427D02*
Y145640D01*
X291339Y142427D02*
Y145640D01*
X292126Y142427D02*
Y145640D01*
X292913Y142427D02*
Y145640D01*
G54D13*
X303866Y157669D02*
X300717D01*
Y166331*
X303866*
Y157669*
X300717Y158268D02*
X303866D01*
X300717Y159843D02*
X303866D01*
X300717Y161417D02*
X303866D01*
X300717Y162992D02*
X303866D01*
X300717Y164567D02*
X303866D01*
X300717Y166142D02*
X303866D01*
X301575Y157669D02*
Y166331D01*
X303150Y157669D02*
Y166331D01*
X315283Y157669D02*
X312134D01*
Y166331*
X315283*
Y157669*
X312134Y158268D02*
X315283D01*
X312134Y159843D02*
X315283D01*
X312134Y161417D02*
X315283D01*
X312134Y162992D02*
X315283D01*
X312134Y164567D02*
X315283D01*
X312134Y166142D02*
X315283D01*
X312598Y157669D02*
Y166331D01*
X314173Y157669D02*
Y166331D01*
X271559Y335291D02*
Y330961D01*
X266441*
Y335291*
X271559*
X266441Y331496D02*
X271559D01*
X266441Y333071D02*
X271559D01*
X266441Y334646D02*
X271559D01*
X266929Y330961D02*
Y335291D01*
X268504Y330961D02*
Y335291D01*
X270079Y330961D02*
Y335291D01*
X271559Y351039D02*
Y346709D01*
X266441*
Y351039*
X271559*
X266441Y347244D02*
X271559D01*
X266441Y348819D02*
X271559D01*
X266441Y350394D02*
X271559D01*
X266929Y346709D02*
Y351039D01*
X268504Y346709D02*
Y351039D01*
X270079Y346709D02*
Y351039D01*
X134559Y240866D02*
Y237717D01*
X129441*
Y240866*
X134559*
X129441Y238583D02*
X134559D01*
X129441Y240157D02*
X134559D01*
X129921Y237717D02*
Y240866D01*
X131496Y237717D02*
Y240866D01*
X133071Y237717D02*
Y240866D01*
X134559Y252283D02*
Y249134D01*
X129441*
Y252283*
X134559*
X129441Y249606D02*
X134559D01*
X129441Y251181D02*
X134559D01*
X129921Y249134D02*
Y252283D01*
X131496Y249134D02*
Y252283D01*
X133071Y249134D02*
Y252283D01*
X143299Y263161D02*
Y258831D01*
X130701*
Y263161*
X143299*
X130701Y259055D02*
X143299D01*
X130701Y260630D02*
X143299D01*
X130701Y262205D02*
X143299D01*
X131496Y258831D02*
Y263161D01*
X133071Y258831D02*
Y263161D01*
X134646Y258831D02*
Y263161D01*
X136220Y258831D02*
Y263161D01*
X137795Y258831D02*
Y263161D01*
X139370Y258831D02*
Y263161D01*
X140945Y258831D02*
Y263161D01*
X142520Y258831D02*
Y263161D01*
X143299Y275169D02*
Y270839D01*
X130701*
Y275169*
X143299*
X130701Y271654D02*
X143299D01*
X130701Y273228D02*
X143299D01*
X130701Y274803D02*
X143299D01*
X131496Y270839D02*
Y275169D01*
X133071Y270839D02*
Y275169D01*
X134646Y270839D02*
Y275169D01*
X136220Y270839D02*
Y275169D01*
X137795Y270839D02*
Y275169D01*
X139370Y270839D02*
Y275169D01*
X140945Y270839D02*
Y275169D01*
X142520Y270839D02*
Y275169D01*
X130701Y302839D02*
Y307169D01*
X143299*
Y302839*
X130701*
Y303150D02*
X143299D01*
X130701Y304724D02*
X143299D01*
X130701Y306299D02*
X143299D01*
X131496Y302839D02*
Y307169D01*
X133071Y302839D02*
Y307169D01*
X134646Y302839D02*
Y307169D01*
X136220Y302839D02*
Y307169D01*
X137795Y302839D02*
Y307169D01*
X139370Y302839D02*
Y307169D01*
X140945Y302839D02*
Y307169D01*
X142520Y302839D02*
Y307169D01*
X130701Y290831D02*
Y295161D01*
X143299*
Y290831*
X130701*
Y292126D02*
X143299D01*
X130701Y293701D02*
X143299D01*
X131496Y290831D02*
Y295161D01*
X133071Y290831D02*
Y295161D01*
X134646Y290831D02*
Y295161D01*
X136220Y290831D02*
Y295161D01*
X137795Y290831D02*
Y295161D01*
X139370Y290831D02*
Y295161D01*
X140945Y290831D02*
Y295161D01*
X142520Y290831D02*
Y295161D01*
X332134Y166331D02*
X335283D01*
Y157669*
X332134*
Y166331*
Y158268D02*
X335283D01*
X332134Y159843D02*
X335283D01*
X332134Y161417D02*
X335283D01*
X332134Y162992D02*
X335283D01*
X332134Y164567D02*
X335283D01*
X332134Y166142D02*
X335283D01*
X333071Y157669D02*
Y166331D01*
X334646Y157669D02*
Y166331D01*
X320717D02*
X323866D01*
Y157669*
X320717*
Y166331*
Y158268D02*
X323866D01*
X320717Y159843D02*
X323866D01*
X320717Y161417D02*
X323866D01*
X320717Y162992D02*
X323866D01*
X320717Y164567D02*
X323866D01*
X320717Y166142D02*
X323866D01*
X322047Y157669D02*
Y166331D01*
X323622Y157669D02*
Y166331D01*
X145559Y240866D02*
Y237717D01*
X140441*
Y240866*
X145559*
X140441Y238583D02*
X145559D01*
X140441Y240157D02*
X145559D01*
X140945Y237717D02*
Y240866D01*
X142520Y237717D02*
Y240866D01*
X144094Y237717D02*
Y240866D01*
X145559Y252283D02*
Y249134D01*
X140441*
Y252283*
X145559*
X140441Y249606D02*
X145559D01*
X140441Y251181D02*
X145559D01*
X140945Y249134D02*
Y252283D01*
X142520Y249134D02*
Y252283D01*
X144094Y249134D02*
Y252283D01*
X141134Y231559D02*
X144283D01*
Y226441*
X141134*
Y231559*
Y227559D02*
X144283D01*
X141134Y229134D02*
X144283D01*
X141134Y230709D02*
X144283D01*
X142520Y226441D02*
Y231559D01*
X144094Y226441D02*
Y231559D01*
X129717D02*
X132866D01*
Y226441*
X129717*
Y231559*
Y227559D02*
X132866D01*
X129717Y229134D02*
X132866D01*
X129717Y230709D02*
X132866D01*
X129921Y226441D02*
Y231559D01*
X131496Y226441D02*
Y231559D01*
X326134Y132331D02*
X329283D01*
Y123669*
X326134*
Y132331*
Y125197D02*
X329283D01*
X326134Y126772D02*
X329283D01*
X326134Y128346D02*
X329283D01*
X326134Y129921D02*
X329283D01*
X326134Y131496D02*
X329283D01*
X326772Y123669D02*
Y132331D01*
X328346Y123669D02*
Y132331D01*
X314717D02*
X317866D01*
Y123669*
X314717*
Y132331*
Y125197D02*
X317866D01*
X314717Y126772D02*
X317866D01*
X314717Y128346D02*
X317866D01*
X314717Y129921D02*
X317866D01*
X314717Y131496D02*
X317866D01*
X315748Y123669D02*
Y132331D01*
X317323Y123669D02*
Y132331D01*
X346134D02*
X349283D01*
Y123669*
X346134*
Y132331*
Y125197D02*
X349283D01*
X346134Y126772D02*
X349283D01*
X346134Y128346D02*
X349283D01*
X346134Y129921D02*
X349283D01*
X346134Y131496D02*
X349283D01*
X347244Y123669D02*
Y132331D01*
X348819Y123669D02*
Y132331D01*
X334717D02*
X337866D01*
Y123669*
X334717*
Y132331*
Y125197D02*
X337866D01*
X334717Y126772D02*
X337866D01*
X334717Y128346D02*
X337866D01*
X334717Y129921D02*
X337866D01*
X334717Y131496D02*
X337866D01*
X336220Y123669D02*
Y132331D01*
X337795Y123669D02*
Y132331D01*
X405047Y159496D02*
Y165008D01*
X413709*
Y159496*
X405047*
Y159843D02*
X413709D01*
X405047Y161417D02*
X413709D01*
X405047Y162992D02*
X413709D01*
X405047Y164567D02*
X413709D01*
X405512Y159496D02*
Y165008D01*
X407087Y159496D02*
Y165008D01*
X408661Y159496D02*
Y165008D01*
X410236Y159496D02*
Y165008D01*
X411811Y159496D02*
Y165008D01*
X413386Y159496D02*
Y165008D01*
X405047Y120992D02*
Y126504D01*
X413709*
Y120992*
X405047*
Y122047D02*
X413709D01*
X405047Y123622D02*
X413709D01*
X405047Y125197D02*
X413709D01*
X405512Y120992D02*
Y126504D01*
X407087Y120992D02*
Y126504D01*
X408661Y120992D02*
Y126504D01*
X410236Y120992D02*
Y126504D01*
X411811Y120992D02*
Y126504D01*
X413386Y120992D02*
Y126504D01*
X249669Y347134D02*
Y350283D01*
X258331*
Y347134*
X249669*
Y347244D02*
X258331D01*
X249669Y348819D02*
X258331D01*
X251181Y347134D02*
Y350283D01*
X252756Y347134D02*
Y350283D01*
X254331Y347134D02*
Y350283D01*
X255906Y347134D02*
Y350283D01*
X257480Y347134D02*
Y350283D01*
X249669Y335717D02*
Y338866D01*
X258331*
Y335717*
X249669*
Y336220D02*
X258331D01*
X249669Y337795D02*
X258331D01*
X251181Y335717D02*
Y338866D01*
X252756Y335717D02*
Y338866D01*
X254331Y335717D02*
Y338866D01*
X255906Y335717D02*
Y338866D01*
X257480Y335717D02*
Y338866D01*
X232669Y347134D02*
Y350283D01*
X241331*
Y347134*
X232669*
Y347244D02*
X241331D01*
X232669Y348819D02*
X241331D01*
X233858Y347134D02*
Y350283D01*
X235433Y347134D02*
Y350283D01*
X237008Y347134D02*
Y350283D01*
X238583Y347134D02*
Y350283D01*
X240157Y347134D02*
Y350283D01*
X232669Y335717D02*
Y338866D01*
X241331*
Y335717*
X232669*
Y336220D02*
X241331D01*
X232669Y337795D02*
X241331D01*
X233858Y335717D02*
Y338866D01*
X235433Y335717D02*
Y338866D01*
X237008Y335717D02*
Y338866D01*
X238583Y335717D02*
Y338866D01*
X240157Y335717D02*
Y338866D01*
G54D35*
X424823Y324059D02*
Y326965D01*
X430879*
Y324059*
X424823*
Y325000D02*
X430879D01*
X427000Y324059D02*
Y326965D01*
X430000Y324059D02*
Y326965D01*
X411043Y314059D02*
Y316965D01*
X417099*
Y314059*
X411043*
Y316000D02*
X417099D01*
X412000Y314059D02*
Y316965D01*
X415000Y314059D02*
Y316965D01*
X424823Y304059D02*
Y306965D01*
X430879*
Y304059*
X424823*
X427000D02*
Y306965D01*
X430000Y304059D02*
Y306965D01*
X411043Y294059D02*
Y296965D01*
X417099*
Y294059*
X411043*
Y295000D02*
X417099D01*
X412000Y294059D02*
Y296965D01*
X415000Y294059D02*
Y296965D01*
X424823Y284059D02*
Y286965D01*
X430879*
Y284059*
X424823*
Y286000D02*
X430879D01*
X427000Y284059D02*
Y286965D01*
X430000Y284059D02*
Y286965D01*
X411043Y274059D02*
Y276965D01*
X417099*
Y274059*
X411043*
X412000D02*
Y276965D01*
X415000Y274059D02*
Y276965D01*
G54D38*
X181200Y127950D02*
Y132050D01*
X188800*
Y127950*
X181200*
Y128800D02*
X188800D01*
X181200Y131200D02*
X188800D01*
X181600Y127950D02*
Y132050D01*
X184000Y127950D02*
Y132050D01*
X186400Y127950D02*
Y132050D01*
X188800Y127950D02*
Y132050D01*
X181200Y117950D02*
Y122050D01*
X188800*
Y117950*
X181200*
Y119200D02*
X188800D01*
X181200Y121600D02*
X188800D01*
X181600Y117950D02*
Y122050D01*
X184000Y117950D02*
Y122050D01*
X186400Y117950D02*
Y122050D01*
X188800Y117950D02*
Y122050D01*
X181200Y107950D02*
Y112050D01*
X188800*
Y107950*
X181200*
Y109600D02*
X188800D01*
X181200Y112000D02*
X188800D01*
X181600Y107950D02*
Y112050D01*
X184000Y107950D02*
Y112050D01*
X186400Y107950D02*
Y112050D01*
X188800Y107950D02*
Y112050D01*
X201200Y107950D02*
Y112050D01*
X208800*
Y107950*
X201200*
Y109600D02*
X208800D01*
X201200Y112000D02*
X208800D01*
X203200Y107950D02*
Y112050D01*
X205600Y107950D02*
Y112050D01*
X208000Y107950D02*
Y112050D01*
X201200Y117950D02*
Y122050D01*
X208800*
Y117950*
X201200*
Y119200D02*
X208800D01*
X201200Y121600D02*
X208800D01*
X203200Y117950D02*
Y122050D01*
X205600Y117950D02*
Y122050D01*
X208000Y117950D02*
Y122050D01*
X201200Y127950D02*
Y132050D01*
X208800*
Y127950*
X201200*
Y128800D02*
X208800D01*
X201200Y131200D02*
X208800D01*
X203200Y127950D02*
Y132050D01*
X205600Y127950D02*
Y132050D01*
X208000Y127950D02*
Y132050D01*
X237200Y127950D02*
Y132050D01*
X244800*
Y127950*
X237200*
Y128800D02*
X244800D01*
X237200Y131200D02*
X244800D01*
X239200Y127950D02*
Y132050D01*
X241600Y127950D02*
Y132050D01*
X244000Y127950D02*
Y132050D01*
X237200Y117950D02*
Y122050D01*
X244800*
Y117950*
X237200*
Y119200D02*
X244800D01*
X237200Y121600D02*
X244800D01*
X239200Y117950D02*
Y122050D01*
X241600Y117950D02*
Y122050D01*
X244000Y117950D02*
Y122050D01*
X237200Y107950D02*
Y112050D01*
X244800*
Y107950*
X237200*
Y109600D02*
X244800D01*
X237200Y112000D02*
X244800D01*
X239200Y107950D02*
Y112050D01*
X241600Y107950D02*
Y112050D01*
X244000Y107950D02*
Y112050D01*
X257200Y107950D02*
Y112050D01*
X264800*
Y107950*
X257200*
Y109600D02*
X264800D01*
X257200Y112000D02*
X264800D01*
X258400Y107950D02*
Y112050D01*
X260800Y107950D02*
Y112050D01*
X263200Y107950D02*
Y112050D01*
X257200Y117950D02*
Y122050D01*
X264800*
Y117950*
X257200*
Y119200D02*
X264800D01*
X257200Y121600D02*
X264800D01*
X258400Y117950D02*
Y122050D01*
X260800Y117950D02*
Y122050D01*
X263200Y117950D02*
Y122050D01*
X257200Y127950D02*
Y132050D01*
X264800*
Y127950*
X257200*
Y128800D02*
X264800D01*
X257200Y131200D02*
X264800D01*
X258400Y127950D02*
Y132050D01*
X260800Y127950D02*
Y132050D01*
X263200Y127950D02*
Y132050D01*
G54D48*
X329000Y112000D03*
X339000D03*
X349000D03*
X289000Y175000D03*
X174000D03*
Y135000D03*
X289000D03*
X359000Y112000D03*
X369000D03*
G54D72*
X108071Y193110D03*
X116929D03*
Y156496D03*
X108071D03*
X116929Y193110D03*
Y156496D03*
G54D94*
X377971Y105996D03*
X414971Y349996D03*
X107971Y146996D03*
G54D104*
X428449Y255102D02*
X430024D01*
Y248409*
X428449*
Y255102*
Y248819D02*
X430024D01*
X428449Y250000D02*
X430024D01*
X428449Y251181D02*
X430024D01*
X428449Y252362D02*
X430024D01*
X428449Y253543D02*
X430024D01*
X428449Y254724D02*
X430024D01*
X429528Y248409D02*
Y255102D01*
X432780D02*
X434354D01*
Y248409*
X432780*
Y255102*
Y248819D02*
X434354D01*
X432780Y250000D02*
X434354D01*
X432780Y251181D02*
X434354D01*
X432780Y252362D02*
X434354D01*
X432780Y253543D02*
X434354D01*
X432780Y254724D02*
X434354D01*
X433071Y248409D02*
Y255102D01*
X434252Y248409D02*
Y255102D01*
X437110D02*
X438685D01*
Y248409*
X437110*
Y255102*
Y248819D02*
X438685D01*
X437110Y250000D02*
X438685D01*
X437110Y251181D02*
X438685D01*
X437110Y252362D02*
X438685D01*
X437110Y253543D02*
X438685D01*
X437110Y254724D02*
X438685D01*
X437795Y248409D02*
Y255102D01*
X441441D02*
X443016D01*
Y248409*
X441441*
Y255102*
Y248819D02*
X443016D01*
X441441Y250000D02*
X443016D01*
X441441Y251181D02*
X443016D01*
X441441Y252362D02*
X443016D01*
X441441Y253543D02*
X443016D01*
X441441Y254724D02*
X443016D01*
X442520Y248409D02*
Y255102D01*
X445772D02*
X447346D01*
Y248409*
X445772*
Y255102*
Y248819D02*
X447346D01*
X445772Y250000D02*
X447346D01*
X445772Y251181D02*
X447346D01*
X445772Y252362D02*
X447346D01*
X445772Y253543D02*
X447346D01*
X445772Y254724D02*
X447346D01*
X446063Y248409D02*
Y255102D01*
X447244Y248409D02*
Y255102D01*
X450102D02*
X451677D01*
Y248409*
X450102*
Y255102*
Y248819D02*
X451677D01*
X450102Y250000D02*
X451677D01*
X450102Y251181D02*
X451677D01*
X450102Y252362D02*
X451677D01*
X450102Y253543D02*
X451677D01*
X450102Y254724D02*
X451677D01*
X450787Y248409D02*
Y255102D01*
X454433D02*
X456008D01*
Y248409*
X454433*
Y255102*
Y248819D02*
X456008D01*
X454433Y250000D02*
X456008D01*
X454433Y251181D02*
X456008D01*
X454433Y252362D02*
X456008D01*
X454433Y253543D02*
X456008D01*
X454433Y254724D02*
X456008D01*
X455512Y248409D02*
Y255102D01*
X458764D02*
X460339D01*
Y248409*
X458764*
Y255102*
Y248819D02*
X460339D01*
X458764Y250000D02*
X460339D01*
X458764Y251181D02*
X460339D01*
X458764Y252362D02*
X460339D01*
X458764Y253543D02*
X460339D01*
X458764Y254724D02*
X460339D01*
X459055Y248409D02*
Y255102D01*
X460236Y248409D02*
Y255102D01*
X412898Y253921D02*
X417622D01*
Y244866*
X412898*
Y253921*
Y245276D02*
X417622D01*
X412898Y246457D02*
X417622D01*
X412898Y247638D02*
X417622D01*
X412898Y248819D02*
X417622D01*
X412898Y250000D02*
X417622D01*
X412898Y251181D02*
X417622D01*
X412898Y252362D02*
X417622D01*
X412898Y253543D02*
X417622D01*
X412992Y244866D02*
Y253921D01*
X414173Y244866D02*
Y253921D01*
X415354Y244866D02*
Y253921D01*
X416535Y244866D02*
Y253921D01*
X466441D02*
X469197D01*
Y244866*
X466441*
Y253921*
Y245276D02*
X469197D01*
X466441Y246457D02*
X469197D01*
X466441Y247638D02*
X469197D01*
X466441Y248819D02*
X469197D01*
X466441Y250000D02*
X469197D01*
X466441Y251181D02*
X469197D01*
X466441Y252362D02*
X469197D01*
X466441Y253543D02*
X469197D01*
X467323Y244866D02*
Y253921D01*
X468504Y244866D02*
Y253921D01*
X424512Y203134D02*
Y199591D01*
X420969*
Y203134*
X424512*
X420969Y200394D02*
X424512D01*
X420969Y201575D02*
X424512D01*
X420969Y202756D02*
X424512D01*
X421260Y199591D02*
Y203134D01*
X422441Y199591D02*
Y203134D01*
X423622Y199591D02*
Y203134D01*
X439472Y203921D02*
Y199591D01*
X430024*
Y203921*
X439472*
X430024Y200394D02*
X439472D01*
X430024Y201575D02*
X439472D01*
X430024Y202756D02*
X439472D01*
X430709Y199591D02*
Y203921D01*
X431890Y199591D02*
Y203921D01*
X433071Y199591D02*
Y203921D01*
X434252Y199591D02*
Y203921D01*
X435433Y199591D02*
Y203921D01*
X436614Y199591D02*
Y203921D01*
X437795Y199591D02*
Y203921D01*
X438976Y199591D02*
Y203921D01*
X458764D02*
Y199591D01*
X449315*
Y203921*
X458764*
X449315Y200394D02*
X458764D01*
X449315Y201575D02*
X458764D01*
X449315Y202756D02*
X458764D01*
X449606Y199591D02*
Y203921D01*
X450787Y199591D02*
Y203921D01*
X451969Y199591D02*
Y203921D01*
X453150Y199591D02*
Y203921D01*
X454331Y199591D02*
Y203921D01*
X455512Y199591D02*
Y203921D01*
X456693Y199591D02*
Y203921D01*
X457874Y199591D02*
Y203921D01*
X430165Y161874D02*
X425835D01*
Y168567*
X430165*
Y161874*
X425835Y162598D02*
X430165D01*
X425835Y163780D02*
X430165D01*
X425835Y164961D02*
X430165D01*
X425835Y166142D02*
X430165D01*
X425835Y167323D02*
X430165D01*
X425835Y168504D02*
X430165D01*
X425984Y161874D02*
Y168567D01*
X427165Y161874D02*
Y168567D01*
X428346Y161874D02*
Y168567D01*
X429528Y161874D02*
Y168567D01*
X430165Y189433D02*
X425835D01*
Y196126*
X430165*
Y189433*
X425835Y189764D02*
X430165D01*
X425835Y190945D02*
X430165D01*
X425835Y192126D02*
X430165D01*
X425835Y193307D02*
X430165D01*
X425835Y194488D02*
X430165D01*
X425835Y195669D02*
X430165D01*
X425984Y189433D02*
Y196126D01*
X427165Y189433D02*
Y196126D01*
X428346Y189433D02*
Y196126D01*
X429528Y189433D02*
Y196126D01*
X367496Y183047D02*
Y181472D01*
X364740*
Y183047*
X367496*
X364740Y181496D02*
X367496D01*
X364740Y182677D02*
X367496D01*
X365748Y181472D02*
Y183047D01*
X366929Y181472D02*
Y183047D01*
X367496Y186787D02*
Y185213D01*
X364740*
Y186787*
X367496*
X364740Y186220D02*
X367496D01*
X365748Y185213D02*
Y186787D01*
X366929Y185213D02*
Y186787D01*
X367496Y190528D02*
Y188953D01*
X364740*
Y190528*
X367496*
X364740Y189764D02*
X367496D01*
X365748Y188953D02*
Y190528D01*
X366929Y188953D02*
Y190528D01*
X357260D02*
Y188953D01*
X354504*
Y190528*
X357260*
X354504Y189764D02*
X357260D01*
X355118Y188953D02*
Y190528D01*
X356299Y188953D02*
Y190528D01*
X357260Y183047D02*
Y181472D01*
X354504*
Y183047*
X357260*
X354504Y181496D02*
X357260D01*
X354504Y182677D02*
X357260D01*
X355118Y181472D02*
Y183047D01*
X356299Y181472D02*
Y183047D01*
X231047Y264504D02*
X229472D01*
Y267260*
X231047*
Y264504*
X229472Y265354D02*
X231047D01*
X229472Y266535D02*
X231047D01*
X229921Y264504D02*
Y267260D01*
X234787Y264504D02*
X233213D01*
Y267260*
X234787*
Y264504*
X233213Y265354D02*
X234787D01*
X233213Y266535D02*
X234787D01*
X233465Y264504D02*
Y267260D01*
X234646Y264504D02*
Y267260D01*
X238528Y264504D02*
X236953D01*
Y267260*
X238528*
Y264504*
X236953Y265354D02*
X238528D01*
X236953Y266535D02*
X238528D01*
X237008Y264504D02*
Y267260D01*
X238189Y264504D02*
Y267260D01*
X238528Y274740D02*
X236953D01*
Y277496*
X238528*
Y274740*
X236953Y274803D02*
X238528D01*
X236953Y275984D02*
X238528D01*
X236953Y277165D02*
X238528D01*
X237008Y274740D02*
Y277496D01*
X238189Y274740D02*
Y277496D01*
X231047Y274740D02*
X229472D01*
Y277496*
X231047*
Y274740*
X229472Y274803D02*
X231047D01*
X229472Y275984D02*
X231047D01*
X229472Y277165D02*
X231047D01*
X229921Y274740D02*
Y277496D01*
X231047Y313504D02*
X229472D01*
Y316260*
X231047*
Y313504*
X229472Y313780D02*
X231047D01*
X229472Y314961D02*
X231047D01*
X229472Y316142D02*
X231047D01*
X229921Y313504D02*
Y316260D01*
X234787Y313504D02*
X233213D01*
Y316260*
X234787*
Y313504*
X233213Y313780D02*
X234787D01*
X233213Y314961D02*
X234787D01*
X233213Y316142D02*
X234787D01*
X233465Y313504D02*
Y316260D01*
X234646Y313504D02*
Y316260D01*
X238528Y313504D02*
X236953D01*
Y316260*
X238528*
Y313504*
X236953Y313780D02*
X238528D01*
X236953Y314961D02*
X238528D01*
X236953Y316142D02*
X238528D01*
X237008Y313504D02*
Y316260D01*
X238189Y313504D02*
Y316260D01*
X238528Y323740D02*
X236953D01*
Y326496*
X238528*
Y323740*
X236953Y324409D02*
X238528D01*
X236953Y325591D02*
X238528D01*
X237008Y323740D02*
Y326496D01*
X238189Y323740D02*
Y326496D01*
X231047Y323740D02*
X229472D01*
Y326496*
X231047*
Y323740*
X229472Y324409D02*
X231047D01*
X229472Y325591D02*
X231047D01*
X229921Y323740D02*
Y326496D01*
X217921Y118839D02*
X216110D01*
Y123169*
X217921*
Y118839*
X216110Y118898D02*
X217921D01*
X216110Y120079D02*
X217921D01*
X216110Y121260D02*
X217921D01*
X216110Y122441D02*
X217921D01*
X216929Y118839D02*
Y123169D01*
X223906Y118839D02*
X222094D01*
Y123169*
X223906*
Y118839*
X222094Y118898D02*
X223906D01*
X222094Y120079D02*
X223906D01*
X222094Y121260D02*
X223906D01*
X222094Y122441D02*
X223906D01*
X222835Y118839D02*
Y123169D01*
X229890Y118839D02*
X228079D01*
Y123169*
X229890*
Y118839*
X228079Y118898D02*
X229890D01*
X228079Y120079D02*
X229890D01*
X228079Y121260D02*
X229890D01*
X228079Y122441D02*
X229890D01*
X228740Y118839D02*
Y123169D01*
X229890Y106831D02*
X228079D01*
Y111161*
X229890*
Y106831*
X228079Y107087D02*
X229890D01*
X228079Y108268D02*
X229890D01*
X228079Y109449D02*
X229890D01*
X228079Y110630D02*
X229890D01*
X228740Y106831D02*
Y111161D01*
X223906Y106831D02*
X222094D01*
Y111161*
X223906*
Y106831*
X222094Y107087D02*
X223906D01*
X222094Y108268D02*
X223906D01*
X222094Y109449D02*
X223906D01*
X222094Y110630D02*
X223906D01*
X222835Y106831D02*
Y111161D01*
X217921Y106831D02*
X216110D01*
Y111161*
X217921*
Y106831*
X216110Y107087D02*
X217921D01*
X216110Y108268D02*
X217921D01*
X216110Y109449D02*
X217921D01*
X216110Y110630D02*
X217921D01*
X216929Y106831D02*
Y111161D01*
X159839Y162079D02*
Y163890D01*
X164169*
Y162079*
X159839*
Y162598D02*
X164169D01*
X159839Y163780D02*
X164169D01*
X160236Y162079D02*
Y163890D01*
X161417Y162079D02*
Y163890D01*
X162598Y162079D02*
Y163890D01*
X163780Y162079D02*
Y163890D01*
X159839Y156094D02*
Y157906D01*
X164169*
Y156094*
X159839*
Y156693D02*
X164169D01*
X159839Y157874D02*
X164169D01*
X160236Y156094D02*
Y157906D01*
X161417Y156094D02*
Y157906D01*
X162598Y156094D02*
Y157906D01*
X163780Y156094D02*
Y157906D01*
X159839Y150110D02*
Y151921D01*
X164169*
Y150110*
X159839*
Y150787D02*
X164169D01*
X160236Y150110D02*
Y151921D01*
X161417Y150110D02*
Y151921D01*
X162598Y150110D02*
Y151921D01*
X163780Y150110D02*
Y151921D01*
X147831Y150110D02*
Y151921D01*
X152161*
Y150110*
X147831*
Y150787D02*
X152161D01*
X148425Y150110D02*
Y151921D01*
X149606Y150110D02*
Y151921D01*
X150787Y150110D02*
Y151921D01*
X151969Y150110D02*
Y151921D01*
X147831Y156094D02*
Y157906D01*
X152161*
Y156094*
X147831*
Y156693D02*
X152161D01*
X147831Y157874D02*
X152161D01*
X148425Y156094D02*
Y157906D01*
X149606Y156094D02*
Y157906D01*
X150787Y156094D02*
Y157906D01*
X151969Y156094D02*
Y157906D01*
X147831Y162079D02*
Y163890D01*
X152161*
Y162079*
X147831*
Y162598D02*
X152161D01*
X147831Y163780D02*
X152161D01*
X148425Y162079D02*
Y163890D01*
X149606Y162079D02*
Y163890D01*
X150787Y162079D02*
Y163890D01*
X151969Y162079D02*
Y163890D01*
G54D110*
X344400Y340500D02*
Y343700D01*
X347600*
Y340500*
X344400*
Y341600D02*
X347600D01*
X344400Y343200D02*
X347600D01*
X344800Y340500D02*
Y343700D01*
X346400Y340500D02*
Y343700D01*
X344400Y348300D02*
Y351500D01*
X347600*
Y348300*
X344400*
Y349600D02*
X347600D01*
X344400Y351200D02*
X347600D01*
X344800Y348300D02*
Y351500D01*
X346400Y348300D02*
Y351500D01*
X320300Y172400D02*
Y175600D01*
X323500*
Y172400*
X320300*
Y173600D02*
X323500D01*
X320300Y175200D02*
X323500D01*
X320800Y172400D02*
Y175600D01*
X322400Y172400D02*
Y175600D01*
X312500Y172400D02*
Y175600D01*
X315700*
Y172400*
X312500*
Y173600D02*
X315700D01*
X312500Y175200D02*
X315700D01*
X312800Y172400D02*
Y175600D01*
X314400Y172400D02*
Y175600D01*
X132400Y164500D02*
Y167700D01*
X135600*
Y164500*
X132400*
Y165600D02*
X135600D01*
X132400Y167200D02*
X135600D01*
X133600Y164500D02*
Y167700D01*
X135200Y164500D02*
Y167700D01*
X132400Y172300D02*
Y175500D01*
X135600*
Y172300*
X132400*
Y173600D02*
X135600D01*
X132400Y175200D02*
X135600D01*
X133600Y172300D02*
Y175500D01*
X135200Y172300D02*
Y175500D01*
G54D146*
X324100Y340200D02*
Y344000D01*
X327900*
Y340200*
X324100*
Y341000D02*
X327900D01*
X324100Y342000D02*
X327900D01*
X324100Y343000D02*
X327900D01*
X324100Y344000D02*
X327900D01*
X325000Y340200D02*
Y344000D01*
X326000Y340200D02*
Y344000D01*
X327000Y340200D02*
Y344000D01*
X324100Y348000D02*
Y351800D01*
X327900*
Y348000*
X324100*
X327900*
X324100Y349000D02*
X327900D01*
X324100Y350000D02*
X327900D01*
X324100Y351000D02*
X327900D01*
X325000Y348000D02*
Y351800D01*
X326000Y348000D02*
Y351800D01*
X327000Y348000D02*
Y351800D01*
X302200Y347100D02*
Y350900D01*
X306000*
Y347100*
X302200*
Y348000D02*
X306000D01*
X302200Y349000D02*
X306000D01*
X302200Y350000D02*
X306000D01*
X303000Y347100D02*
Y350900D01*
X304000Y347100D02*
Y350900D01*
X305000Y347100D02*
Y350900D01*
X306000Y347100D02*
Y350900D01*
X310000Y347100D02*
Y350900D01*
X313800*
Y347100*
X310000*
Y348000D02*
X313800D01*
X310000Y349000D02*
X313800D01*
X310000Y350000D02*
X313800D01*
X310000Y347100D02*
Y350900D01*
X311000Y347100D02*
Y350900D01*
X312000Y347100D02*
Y350900D01*
X313000Y347100D02*
Y350900D01*
X266100Y322000D02*
Y325800D01*
X269900*
Y322000*
X266100*
X269900*
X266100Y323000D02*
X269900D01*
X266100Y324000D02*
X269900D01*
X266100Y325000D02*
X269900D01*
X267000Y322000D02*
Y325800D01*
X268000Y322000D02*
Y325800D01*
X269000Y322000D02*
Y325800D01*
X266100Y314200D02*
Y318000D01*
X269900*
Y314200*
X266100*
Y315000D02*
X269900D01*
X266100Y316000D02*
X269900D01*
X266100Y317000D02*
X269900D01*
X266100Y318000D02*
X269900D01*
X267000Y314200D02*
Y318000D01*
X268000Y314200D02*
Y318000D01*
X269000Y314200D02*
Y318000D01*
X334100Y340200D02*
Y344000D01*
X337900*
Y340200*
X334100*
Y341000D02*
X337900D01*
X334100Y342000D02*
X337900D01*
X334100Y343000D02*
X337900D01*
X334100Y344000D02*
X337900D01*
X335000Y340200D02*
Y344000D01*
X336000Y340200D02*
Y344000D01*
X337000Y340200D02*
Y344000D01*
X334100Y348000D02*
Y351800D01*
X337900*
Y348000*
X334100*
X337900*
X334100Y349000D02*
X337900D01*
X334100Y350000D02*
X337900D01*
X334100Y351000D02*
X337900D01*
X335000Y348000D02*
Y351800D01*
X336000Y348000D02*
Y351800D01*
X337000Y348000D02*
Y351800D01*
X304200Y148100D02*
Y151900D01*
X308000*
Y148100*
X304200*
Y149000D02*
X308000D01*
X304200Y150000D02*
X308000D01*
X304200Y151000D02*
X308000D01*
X305000Y148100D02*
Y151900D01*
X306000Y148100D02*
Y151900D01*
X307000Y148100D02*
Y151900D01*
X308000Y148100D02*
Y151900D01*
X312000Y148100D02*
Y151900D01*
X315800*
Y148100*
X312000*
Y149000D02*
X315800D01*
X312000Y150000D02*
X315800D01*
X312000Y151000D02*
X315800D01*
X312000Y148100D02*
Y151900D01*
X313000Y148100D02*
Y151900D01*
X314000Y148100D02*
Y151900D01*
X315000Y148100D02*
Y151900D01*
X344100Y330000D02*
Y333800D01*
X347900*
Y330000*
X344100*
X347900*
X344100Y331000D02*
X347900D01*
X344100Y332000D02*
X347900D01*
X344100Y333000D02*
X347900D01*
X345000Y330000D02*
Y333800D01*
X346000Y330000D02*
Y333800D01*
X347000Y330000D02*
Y333800D01*
X344100Y322200D02*
Y326000D01*
X347900*
Y322200*
X344100*
Y323000D02*
X347900D01*
X344100Y324000D02*
X347900D01*
X344100Y325000D02*
X347900D01*
X344100Y326000D02*
X347900D01*
X345000Y322200D02*
Y326000D01*
X346000Y322200D02*
Y326000D01*
X347000Y322200D02*
Y326000D01*
X334100Y330000D02*
Y333800D01*
X337900*
Y330000*
X334100*
X337900*
X334100Y331000D02*
X337900D01*
X334100Y332000D02*
X337900D01*
X334100Y333000D02*
X337900D01*
X335000Y330000D02*
Y333800D01*
X336000Y330000D02*
Y333800D01*
X337000Y330000D02*
Y333800D01*
X334100Y322200D02*
Y326000D01*
X337900*
Y322200*
X334100*
Y323000D02*
X337900D01*
X334100Y324000D02*
X337900D01*
X334100Y325000D02*
X337900D01*
X334100Y326000D02*
X337900D01*
X335000Y322200D02*
Y326000D01*
X336000Y322200D02*
Y326000D01*
X337000Y322200D02*
Y326000D01*
X324100Y330000D02*
Y333800D01*
X327900*
Y330000*
X324100*
X327900*
X324100Y331000D02*
X327900D01*
X324100Y332000D02*
X327900D01*
X324100Y333000D02*
X327900D01*
X325000Y330000D02*
Y333800D01*
X326000Y330000D02*
Y333800D01*
X327000Y330000D02*
Y333800D01*
X324100Y322200D02*
Y326000D01*
X327900*
Y322200*
X324100*
Y323000D02*
X327900D01*
X324100Y324000D02*
X327900D01*
X324100Y325000D02*
X327900D01*
X324100Y326000D02*
X327900D01*
X325000Y322200D02*
Y326000D01*
X326000Y322200D02*
Y326000D01*
X327000Y322200D02*
Y326000D01*
X379469Y106000D02*
X379440Y106286D01*
X379357Y106562*
X379221Y106816*
X379038Y107038*
X378816Y107221*
X378562Y107357*
X378286Y107440*
X378000Y107469*
X377714Y107440*
X377438Y107357*
X377184Y107221*
X376962Y107038*
X376779Y106816*
X376643Y106562*
X376560Y106286*
X376531Y106000*
X376560Y105714*
X376643Y105438*
X376779Y105184*
X376962Y104962*
X377184Y104779*
X377438Y104643*
X377714Y104560*
X378000Y104531*
X378286Y104560*
X378562Y104643*
X378816Y104779*
X379038Y104962*
X379221Y105184*
X379357Y105438*
X379440Y105714*
X379469Y106000*
X377000Y104930D02*
Y107070D01*
X377500Y104624D02*
Y107376D01*
X378000Y104531D02*
Y107469D01*
X378500Y104624D02*
Y107376D01*
X379000Y104930D02*
Y107070D01*
X416469Y350000D02*
X416440Y350286D01*
X416357Y350562*
X416221Y350816*
X416038Y351038*
X415816Y351221*
X415562Y351357*
X415286Y351440*
X415000Y351469*
X414714Y351440*
X414438Y351357*
X414184Y351221*
X413962Y351038*
X413779Y350816*
X413643Y350562*
X413560Y350286*
X413531Y350000*
X413560Y349714*
X413643Y349438*
X413779Y349184*
X413962Y348962*
X414184Y348779*
X414438Y348643*
X414714Y348560*
X415000Y348531*
X415286Y348560*
X415562Y348643*
X415816Y348779*
X416038Y348962*
X416221Y349184*
X416357Y349438*
X416440Y349714*
X416469Y350000*
X414000Y348930D02*
Y351070D01*
X414500Y348624D02*
Y351376D01*
X415000Y348531D02*
Y351469D01*
X415500Y348624D02*
Y351376D01*
X416000Y348930D02*
Y351070D01*
X109469Y147000D02*
X109440Y147286D01*
X109357Y147562*
X109221Y147816*
X109038Y148038*
X108816Y148221*
X108562Y148357*
X108286Y148440*
X108000Y148469*
X107714Y148440*
X107438Y148357*
X107184Y148221*
X106962Y148038*
X106779Y147816*
X106643Y147562*
X106560Y147286*
X106531Y147000*
X106560Y146714*
X106643Y146438*
X106779Y146184*
X106962Y145962*
X107184Y145779*
X107438Y145643*
X107714Y145560*
X108000Y145531*
X108286Y145560*
X108562Y145643*
X108816Y145779*
X109038Y145962*
X109221Y146184*
X109357Y146438*
X109440Y146714*
X109469Y147000*
X107000Y145930D02*
Y148070D01*
X107500Y145624D02*
Y148376D01*
X108000Y145531D02*
Y148469D01*
X108500Y145624D02*
Y148376D01*
X109000Y145930D02*
Y148070D01*
X380453Y106000D02*
G75*
G03X380453I-2453J0D01*
G01X417453Y350000D02*
G03X417453I-2453J0D01*
G01X110453Y147000D02*
G03X110453I-2453J0D01*
G01X380453Y106000D02*
G03X380453I-2453J0D01*
G01X417453Y350000D02*
G03X417453I-2453J0D01*
G01X110453Y147000D02*
G03X110453I-2453J0D01*
G01X375560Y106246D02*
X380440D01*
X375636Y105346D02*
X380364D01*
X375831Y107146D02*
X380169D01*
X376102Y104446D02*
X379898D01*
X376647Y108046D02*
X379353D01*
X412560Y350246D02*
X417440D01*
X412636Y349346D02*
X417364D01*
X412831Y351146D02*
X417169D01*
X413102Y348446D02*
X416898D01*
X413647Y352046D02*
X416353D01*
X105560Y147246D02*
X110440D01*
X105636Y146346D02*
X110364D01*
X105831Y148146D02*
X110169D01*
X106102Y145446D02*
X109898D01*
X106647Y149046D02*
X109353D01*
G54D148*
X455547Y179952D02*
X469660Y165839D01*
X449562Y173967D02*
X463675Y159854D01*
X482980Y179159D02*
X468867Y193272D01*
X488965Y185144D02*
X474852Y199257D01*
G54D149*
X280476Y345348D02*
X278388Y347436D01*
X282564Y351612*
X284652Y349524*
X280476Y345348*
X279761Y346063D02*
X281190D01*
X278983Y348031D02*
X283159D01*
X280951Y350000D02*
X284176D01*
X279134Y346690D02*
Y348182D01*
X281102Y345975D02*
Y350151D01*
X283071Y347944D02*
Y351105D01*
X295436Y330388D02*
X293348Y332476D01*
X297524Y336652*
X299612Y334564*
X295436Y330388*
X293541Y332283D02*
X297332D01*
X295125Y334252D02*
X299301D01*
X297093Y336220D02*
X297955D01*
X294882Y330942D02*
Y334009D01*
X296850Y331802D02*
Y335978D01*
X298819Y333770D02*
Y335357D01*
X358913Y331764D02*
X354583D01*
Y352236*
X358913*
Y331764*
X354583Y332283D02*
X358913D01*
X354583Y334252D02*
X358913D01*
X354583Y336220D02*
X358913D01*
X354583Y338189D02*
X358913D01*
X354583Y340157D02*
X358913D01*
X354583Y342126D02*
X358913D01*
X354583Y344094D02*
X358913D01*
X354583Y346063D02*
X358913D01*
X354583Y348031D02*
X358913D01*
X354583Y350000D02*
X358913D01*
X354583Y351969D02*
X358913D01*
X355906Y331764D02*
Y352236D01*
X357874Y331764D02*
Y352236D01*
X377417Y331764D02*
X373087D01*
Y352236*
X377417*
Y331764*
X373087Y332283D02*
X377417D01*
X373087Y334252D02*
X377417D01*
X373087Y336220D02*
X377417D01*
X373087Y338189D02*
X377417D01*
X373087Y340157D02*
X377417D01*
X373087Y342126D02*
X377417D01*
X373087Y344094D02*
X377417D01*
X373087Y346063D02*
X377417D01*
X373087Y348031D02*
X377417D01*
X373087Y350000D02*
X377417D01*
X373087Y351969D02*
X377417D01*
X373622Y331764D02*
Y352236D01*
X375591Y331764D02*
Y352236D01*
G54D150*
X110135Y232301D02*
Y235101D01*
X122935*
Y232301*
X110135*
Y234400D02*
X122935D01*
X112800Y232301D02*
Y235101D01*
X116000Y232301D02*
Y235101D01*
X119200Y232301D02*
Y235101D01*
X122400Y232301D02*
Y235101D01*
X110135Y252301D02*
Y255101D01*
X122935*
Y252301*
X110135*
Y253600D02*
X122935D01*
X112800Y252301D02*
Y255101D01*
X116000Y252301D02*
Y255101D01*
X119200Y252301D02*
Y255101D01*
X122400Y252301D02*
Y255101D01*
X110135Y305135D02*
Y307935D01*
X122935*
Y305135*
X110135*
X112800D02*
Y307935D01*
X116000Y305135D02*
Y307935D01*
X119200Y305135D02*
Y307935D01*
X122400Y305135D02*
Y307935D01*
X110135Y325135D02*
Y327935D01*
X122935*
Y325135*
X110135*
Y327200D02*
X122935D01*
X112800Y325135D02*
Y327935D01*
X116000Y325135D02*
Y327935D01*
X119200Y325135D02*
Y327935D01*
X122400Y325135D02*
Y327935D01*
G54D151*
X397244Y344094D03*
X111811Y280118D03*
X304724Y111811D03*
G54D153*
X386140Y213384D02*
X387340D01*
Y208884*
X386140*
Y213384*
Y209200D02*
X387340D01*
X386140Y210600D02*
X387340D01*
X386140Y212000D02*
X387340D01*
X387000Y208884D02*
Y213384D01*
X378660D02*
X379860D01*
Y208884*
X378660*
Y213384*
Y209200D02*
X379860D01*
X378660Y210600D02*
X379860D01*
X378660Y212000D02*
X379860D01*
X382400Y205116D02*
X383600D01*
Y200616*
X382400*
Y205116*
Y200800D02*
X383600D01*
X382400Y202200D02*
X383600D01*
X382400Y203600D02*
X383600D01*
X382400Y205000D02*
X383600D01*
X382800Y200616D02*
Y205116D01*
X140384Y313860D02*
Y312660D01*
X135884*
Y313860*
X140384*
X135884Y312800D02*
X140384D01*
X136400Y312660D02*
Y313860D01*
X137800Y312660D02*
Y313860D01*
X139200Y312660D02*
Y313860D01*
X140384Y321340D02*
Y320140D01*
X135884*
Y321340*
X140384*
X135884Y321200D02*
X140384D01*
X136400Y320140D02*
Y321340D01*
X137800Y320140D02*
Y321340D01*
X139200Y320140D02*
Y321340D01*
X132116Y317600D02*
Y316400D01*
X127616*
Y317600*
X132116*
X127616Y317000D02*
X132116D01*
X128000Y316400D02*
Y317600D01*
X129400Y316400D02*
Y317600D01*
X130800Y316400D02*
Y317600D01*
G54D154*
X285937Y295563D03*
X283969D03*
X282000D03*
X280031D03*
X278063D03*
Y278437D03*
X280031D03*
X282000D03*
X283969D03*
X285937D03*
G54D155*
X180437Y277937D03*
Y275969D03*
Y274000D03*
Y272031D03*
Y270063D03*
X197563D03*
Y272031D03*
Y274000D03*
Y275969D03*
Y277937D03*
X177437Y337937D03*
Y335969D03*
Y334000D03*
Y332031D03*
Y330063D03*
X194563D03*
Y332031D03*
Y334000D03*
Y335969D03*
Y337937D03*
X181437Y299937D03*
Y297969D03*
Y296000D03*
Y294031D03*
Y292063D03*
X198563D03*
Y294031D03*
Y296000D03*
Y297969D03*
Y299937D03*
G54D158*
X157685Y246969D03*
Y245000D03*
Y243031D03*
X168315D03*
Y245000D03*
Y246969D03*
X157685Y278969D03*
Y277000D03*
Y275031D03*
X168315D03*
Y277000D03*
Y278969D03*
X157685Y214969D03*
Y213000D03*
Y211031D03*
X168315D03*
Y213000D03*
Y214969D03*
G54D159*
X161031Y239685D03*
X163000D03*
X164969D03*
Y250315D03*
X163000D03*
X161031D03*
Y271685D03*
X163000D03*
X164969D03*
Y282315D03*
X163000D03*
X161031D03*
Y207685D03*
X163000D03*
X164969D03*
Y218315D03*
X163000D03*
X161031D03*
G54D160*
X289161Y307240D03*
X291720D03*
X294280D03*
X296839D03*
Y324760D03*
X294280D03*
X291720D03*
X289161D03*
G54D161*
X366322Y291113D03*
X364354D03*
X362385D03*
X360417D03*
X358448D03*
X356480D03*
X354511D03*
X352543D03*
X350574D03*
X348606D03*
X346637D03*
X344669D03*
X342700D03*
X340731D03*
X338763D03*
X336794D03*
X334826D03*
X332857D03*
X330889D03*
X328920D03*
X326952D03*
X324983D03*
X323015D03*
X321046D03*
X319078D03*
Y230287D03*
X321046D03*
X323015D03*
X324983D03*
X326952D03*
X328920D03*
X330889D03*
X332857D03*
X334826D03*
X336794D03*
X338763D03*
X340731D03*
X342700D03*
X344669D03*
X346637D03*
X348606D03*
X350574D03*
X352543D03*
X354511D03*
X356480D03*
X358448D03*
X360417D03*
X362385D03*
X364354D03*
X366322D03*
G54D162*
X312287Y284322D03*
Y282354D03*
Y280385D03*
Y278417D03*
Y276448D03*
Y274480D03*
Y272511D03*
Y270543D03*
Y268574D03*
Y266606D03*
Y264637D03*
Y262669D03*
Y260700D03*
Y258731D03*
Y256763D03*
Y254794D03*
Y252826D03*
Y250857D03*
Y248889D03*
Y246920D03*
Y244952D03*
Y242983D03*
Y241015D03*
Y239046D03*
Y237078D03*
X373113D03*
Y239046D03*
Y241015D03*
Y242983D03*
Y244952D03*
Y246920D03*
Y248889D03*
Y250857D03*
Y252826D03*
Y254794D03*
Y256763D03*
Y258731D03*
Y260700D03*
Y262669D03*
Y264637D03*
Y266606D03*
Y268574D03*
Y270543D03*
Y272511D03*
Y274480D03*
Y276448D03*
Y278417D03*
Y280385D03*
Y282354D03*
Y284322D03*
G54D171*
X124157Y189346D03*
X133843D03*
Y182654D03*
X124157D03*
G54D172*
X307000Y218000D03*
X196000Y167000D03*
X201000Y163000D03*
X248000Y167500D03*
X253500Y163000D03*
X257000Y270000D03*
X251000Y311500D03*
X219300Y295700D03*
X308500Y170400D03*
X204500Y329700D03*
X348300Y203000D03*
X286500Y190500D03*
X283500Y227500D03*
X341000Y153000D03*
X304300Y182500D03*
X340000Y306500D03*
X311000Y336000D03*
X260500Y316500D03*
X405000Y296000D03*
X129000Y162000D03*
X303000Y315000D03*
X181000Y210500D03*
Y220500D03*
X133500Y208000D03*
X144000Y210000D03*
X157500Y335000D03*
X148000Y296000D03*
X354000Y216500D03*
X284900Y251200D03*
X292800Y267600D03*
X220500Y213500D03*
X227500Y212500D03*
X432900Y147100D03*
G74*
X0Y0D02*
M02*
