*
*
G04 PADS 9.5 Build Number: 522968 generated Gerber (RS-274-X) file*
G04 PC Version=2.1*
*
%IN "PSDR.pcb"*%
*
%MOIN*%
*
%FSLAX35Y35*%
*
*
*
*
G04 PC Standard Apertures*
*
*
G04 Thermal Relief Aperture macro.*
%AMTER*
1,1,$1,0,0*
1,0,$1-$2,0,0*
21,0,$3,$4,0,0,45*
21,0,$3,$4,0,0,135*
%
*
*
G04 Annular Aperture macro.*
%AMANN*
1,1,$1,0,0*
1,0,$2,0,0*
%
*
*
G04 Odd Aperture macro.*
%AMODD*
1,1,$1,0,0*
1,0,$1-0.005,0,0*
%
*
*
G04 PC Custom Aperture Macros*
*
*
*
*
*
*
G04 PC Aperture Table*
*
%ADD010C,0.001*%
%ADD011C,0.008*%
%ADD037C,0.015*%
%ADD072C,0.062*%
%ADD146C,0.01*%
%ADD150C,0.032*%
%ADD164C,0.058*%
%ADD165C,0.15748*%
*
*
*
*
G04 PC Circuitry*
G04 Layer Name PSDR.pcb - circuitry*
%LPD*%
*
*
G04 PC Custom Flashes*
G04 Layer Name PSDR.pcb - flashes*
%LPD*%
*
*
G04 PC Circuitry*
G04 Layer Name PSDR.pcb - circuitry*
%LPD*%
*
G54D10*
G54D11*
G01X117700Y105700D02*
X120400Y103000D01*
X146600*
X149800Y106200*
X151500Y104500*
X149800Y106200D02*
X154000Y110400D01*
Y148400*
X292100Y117200D02*
Y105487D01*
X298400*
X304724Y111811*
X292100Y117200D02*
X294500Y119600D01*
Y139500*
X304724Y111811D02*
X311135Y105400D01*
X316900*
Y106100*
X326300Y115500*
Y126800*
X316900Y105400D02*
X349000D01*
Y112000*
X108071Y156496D02*
X116929D01*
X116929*
X154000Y148400D02*
Y151700D01*
X156300Y154000*
X156300*
X154000Y148400D02*
X167000D01*
X174100*
X195800*
X200800*
X203100Y146100*
X215300*
X218100Y127900D02*
X231000D01*
X233500Y130400*
X218100Y127900D02*
Y136600D01*
X223000*
X218100Y127900D02*
X209200D01*
Y120900*
X223000*
Y115700*
X222200Y148400D02*
X223000D01*
Y136600*
X222200Y148400D02*
Y154000D01*
Y164000*
Y154000D02*
X225000D01*
X195800Y126900D02*
Y148400D01*
X215300Y146100D02*
X217600Y148400D01*
X222200*
X225000Y154000D02*
X235000D01*
X294500Y139500D02*
Y141800D01*
X302300Y149600*
Y154200*
X269100Y138500D02*
X270900Y136700D01*
X280400*
X283200Y139500*
X294500*
X323000Y137000D02*
X326000D01*
X323000Y151000D02*
X326000D01*
X326300Y126800D02*
X353100D01*
X318000Y155000D02*
Y154000D01*
X321000Y151000*
X323000*
X326000D02*
X329000Y154000D01*
X330000*
X323000Y146000D02*
Y151000D01*
Y142000D02*
Y137000D01*
X321000*
X326000D02*
Y126800D01*
X326300*
X369600D02*
X379700D01*
X353100D02*
X353200Y126700D01*
Y124000*
X353100Y126800D02*
X369600D01*
X380200Y136600D02*
Y130000D01*
X386900*
Y124700*
X396100*
X379700Y126800D02*
X380200D01*
Y130000*
X379700Y126800D02*
Y124000D01*
X390500Y154000D02*
X389200Y155300D01*
X391900Y158000*
X422000*
X429300Y150700*
X116800Y192981D02*
Y191000D01*
X116929Y190871*
Y156496*
X116800Y192981D02*
X116929Y193110D01*
X122990*
X125100Y191000*
X132000*
Y198800*
X108071Y193110D02*
X116929D01*
X222200Y167000D02*
X250200D01*
Y171000*
X222200Y167000D02*
Y164000D01*
X225000*
X212300Y175500D02*
X222200D01*
Y167000*
X225000Y164000D02*
X235000D01*
X260900Y177100D02*
X250200D01*
Y171000*
X284800*
X287500Y168300*
X243500Y179900D02*
Y177100D01*
X250200*
X385900Y168000D02*
Y173900D01*
X410000*
X385900Y183000D02*
Y178600D01*
Y173900*
Y178600D02*
X370300D01*
X361300Y187600*
X369600Y162200D02*
Y178600D01*
X370300*
X369600Y162200D02*
Y126800D01*
X385900Y158000D02*
X386500D01*
X389200Y155300*
X385900Y168000D02*
Y158000D01*
X410000Y196500D02*
X410100Y196600D01*
X422700*
X410000Y203200D02*
Y196500D01*
Y173900*
X132000Y260811D02*
Y231600D01*
X137700*
X132000Y198800D02*
X167000D01*
X131700Y227300D02*
X132000D01*
Y231600*
X131700Y227300D02*
X132000Y227000D01*
Y198800*
X110400Y227300D02*
X131700D01*
X169400Y198800D02*
X167000D01*
Y148400*
X169400Y198800D02*
Y215000D01*
X174400*
X176000Y216600*
X169400Y198800D02*
X186500D01*
Y203200*
X170300Y231500D02*
X186500D01*
Y231800*
X190700*
X186500Y231500D02*
Y225500D01*
Y203200*
X221500*
X186500Y225500D02*
X189900D01*
X195400Y231000*
X369500Y212100D02*
X384300D01*
X393200Y203200*
X410000*
X414900*
Y213900*
X414700Y219600D02*
X414900Y219400D01*
Y213900*
X417900Y219600D02*
X414700D01*
Y229000*
Y238600D02*
Y229000D01*
X437000*
X414900Y213900D02*
X442000D01*
X398200Y213600D02*
X398500Y213900D01*
X414900*
X459600Y207000D02*
Y213900D01*
X462400*
Y228800D02*
Y213900D01*
X462600Y214100*
X482900*
X459600Y213900D02*
X442000D01*
Y195000*
X437000Y223000D02*
X443000D01*
X437000Y229000D02*
X440000Y226000D01*
X482900Y214100D02*
X485500Y211500D01*
X488000*
X482900Y214100D02*
Y224700D01*
X484200Y226000*
X116600Y260811D02*
X132000D01*
X173000Y266000D02*
X186500D01*
Y260800D02*
Y257500D01*
X188800*
X195000Y260800D02*
X186500D01*
Y266000*
Y270700*
X219100*
Y265600*
X233700*
Y270700*
X235100*
Y277700*
X246900*
X235100Y270700D02*
X237800D01*
X259000Y238800D02*
Y248500D01*
X273400*
X282400Y257500*
X291300*
X259000Y238800D02*
X274100D01*
X242100Y239600D02*
X245000Y236700D01*
X259000*
Y238800*
Y248500D02*
Y256000D01*
X262000Y259000*
X265000Y262000D02*
X262000Y259000D01*
X265000Y256000*
X259000Y262000D02*
X262000Y259000D01*
X274100Y238800D02*
X282300D01*
X298700Y222400*
X340500Y269600D02*
X354000D01*
X360500Y276100*
X333000Y269600D02*
X340500D01*
X327200Y269100D02*
X327400D01*
X329100Y269600*
X333000*
X340500Y265100D02*
Y269600D01*
X414700Y251300D02*
Y261100D01*
X427900Y274300*
Y279500*
X474800Y251300D02*
X414700D01*
Y238600*
X418300*
X418400Y238700*
X419600*
X422000Y236300*
X132000Y300500D02*
Y285500D01*
X155200*
X132000D02*
Y280118D01*
Y260811*
X116535Y300500D02*
X132000D01*
X111811Y280118D02*
X132000D01*
X173100Y285600D02*
X175400Y283300D01*
X186500*
Y270700D02*
Y279000D01*
X205500*
X206200Y278300*
X186500Y279000D02*
Y283300D01*
Y287200*
Y293100*
X194700*
X197200Y290600*
X239900*
X186500Y293100D02*
Y296000D01*
X206200*
X186500Y300500D02*
Y317400D01*
X186600Y317500*
X186500Y296000D02*
Y300500D01*
X187800*
X250300Y277700D02*
X246900D01*
Y262000*
X259000*
X267600Y277700D02*
X250300D01*
Y272500*
X238800Y296500D02*
X239900Y295400D01*
Y290600*
X230900Y295900D02*
X231200Y295883D01*
Y296500*
X238800*
X279100Y311500D02*
X284800D01*
Y311700*
X291700Y318600*
X284800Y311500D02*
Y298100D01*
X287100Y295800*
X287100*
Y283500*
X296800Y313100D02*
Y318600D01*
X279100Y301100D02*
Y311500D01*
X272000Y310800D02*
Y311500D01*
X279100*
X333000Y269600D02*
Y293500D01*
X350500*
X333000Y302000D02*
X320699Y313899D01*
X331000Y324200*
X331000*
X333000Y302000D02*
Y293500D01*
X350500Y304000D02*
Y293500D01*
X369100*
X375700Y286900*
X392600*
X427900Y279500D02*
X427900D01*
Y291300*
X427900*
Y312000*
X132000Y329800D02*
X138900Y336700D01*
Y349400*
X132000Y327300D02*
Y325400D01*
X132000*
Y300500*
Y329800D02*
Y327300D01*
X165500*
Y332600*
X116500D02*
X132000D01*
Y329800*
X171437Y328400D02*
X186600D01*
X175300Y343000D02*
X186600D01*
Y338300*
Y317500D02*
X189100D01*
X216400Y337500D02*
Y337900D01*
X219400Y340900*
X228700*
X186600Y338300D02*
X216400D01*
Y337900*
X186600Y338300D02*
Y332800D01*
X189200*
X186600D02*
Y328400D01*
Y321000*
Y317500D02*
Y321000D01*
X236100*
X237500Y319600*
X239300Y342200D02*
X244100D01*
X244300Y342000*
Y351700*
X239100Y342200D02*
X239300D01*
X228700Y340900D02*
X238100D01*
Y341000*
X239300Y342200*
X296800Y318600D02*
X315900D01*
X317725Y316775*
X320699Y313899*
X291700Y318600D02*
X296800D01*
X366000Y341100D02*
X341000D01*
Y324100*
X331000Y324200D02*
X340900D01*
X341000Y324100*
X316700Y349000D02*
X317600Y349900D01*
X331000*
X339800Y341100*
X341000*
X366500D02*
X386800D01*
X394150Y333750*
X366000Y341100D02*
X366500D01*
Y328900*
X366700Y328700*
Y321000*
X366000Y351100D02*
Y341100D01*
X397244Y333750D02*
X401494Y329500D01*
X427900*
Y312000*
X394150Y333750D02*
X397244D01*
X386300Y325900D02*
X387600Y327200D01*
X387600*
X394150Y333750*
X397244Y344094D02*
Y333750D01*
G54D37*
X121385Y280118D02*
X119685D01*
X111811Y289692D02*
Y287992D01*
Y270544D02*
Y272244D01*
X406818Y344094D02*
X405118D01*
X387670D02*
X389370D01*
X397244Y334520D02*
Y336220D01*
X314298Y111811D02*
X312598D01*
X304724Y121385D02*
Y119685D01*
X295150Y111811D02*
X296850D01*
X116929Y197910D02*
Y196210D01*
X121729Y193110D02*
X120029D01*
X116929Y188310D02*
Y190010D01*
X353600Y112000D02*
X351900D01*
X349000Y116600D02*
Y114900D01*
X344400Y112000D02*
X346100D01*
X349000Y107400D02*
Y109100D01*
X116929Y161296D02*
Y159596D01*
X121729Y156496D02*
X120029D01*
X116929Y151696D02*
Y153396D01*
X108071Y151696D02*
Y153396D01*
Y197910D02*
Y196210D01*
G54D72*
Y193110D03*
Y156496D03*
X116929Y193110D03*
Y156496D03*
G54D146*
X486800Y209100D02*
G75*
G03X486800I-3300J0D01*
G01X489495Y239764D02*
G03X489495I-7605J0D01*
G01X453200Y207400D02*
G03X453200I-3300J0D01*
G01X459600Y237900D02*
G03X459600I-3300J0D01*
G01X438400Y244400D02*
G03X438400I-3300J0D01*
G01X421000Y209600D02*
G03X421000I-3300J0D01*
G01X425023Y285512D02*
G03X425023I-4062J0D01*
G01Y295512D02*
G03X425023I-4062J0D01*
G01X414700Y281500D02*
G03X414700I-3300J0D01*
G01X417400Y302700D02*
G03X417400I-3300J0D01*
G01X425023Y305512D02*
G03X425023I-4062J0D01*
G01Y315512D02*
G03X425023I-4062J0D01*
G01Y325512D02*
G03X425023I-4062J0D01*
G01X407212Y182480D02*
G03X407212I-7999J0D01*
G01Y209606D02*
G03X407212I-4062J0D01*
G01Y219606D02*
G03X407212I-4062J0D01*
G01Y229606D02*
G03X407212I-4062J0D01*
G01Y239606D02*
G03X407212I-4062J0D01*
G01Y249606D02*
G03X407212I-4062J0D01*
G01Y259606D02*
G03X407212I-4062J0D01*
G01X390700Y203000D02*
G03X390700I-3300J0D01*
G01X396900Y233600D02*
G03X396900I-3300J0D01*
G01X395300Y245700D02*
G03X395300I-3300J0D01*
G01X407212Y279606D02*
G03X407212I-4062J0D01*
G01Y289606D02*
G03X407212I-4062J0D01*
G01X373600Y112000D02*
G03X373600I-4600J0D01*
G01X377400Y163500D02*
G03X377400I-3300J0D01*
G01X377500Y208500D02*
G03X377500I-3300J0D01*
G01X363600Y112000D02*
G03X363600I-4600J0D01*
G01X368800Y206200D02*
G03X368800I-3300J0D01*
G01X373800Y217200D02*
G03X373800I-3300J0D01*
G01X379200Y223300D02*
G03X379200I-3300J0D01*
G01X379800Y232300D02*
G03X379800I-3300J0D01*
G01X394800Y306100D02*
G03X394800I-3300J0D01*
G01X407212Y316732D02*
G03X407212I-7999J0D01*
G01X386700Y316900D02*
G03X386700I-3300J0D01*
G01X390500Y331100D02*
G03X390500I-3300J0D01*
G01X370900Y276000D02*
G03X370900I-3300J0D01*
G01X360800Y152100D02*
G03X360800I-3300J0D01*
G01X353600Y112000D02*
G03X353600I-4600J0D01*
G01X358800Y162700D02*
G03X358800I-3300J0D01*
G01X343600Y112000D02*
G03X343600I-4600J0D01*
G01X346000Y131000D02*
G03X346000I-3300J0D01*
G01X348900Y156100D02*
G03X348900I-3300J0D01*
G01X351300Y189100D02*
G03X351300I-3300J0D01*
G01X350300Y212100D02*
G03X350300I-3300J0D01*
G01X364100Y254300D02*
G03X364100I-3300J0D01*
G01X366400Y281500D02*
G03X366400I-3300J0D01*
G01X359700Y283700D02*
G03X359700I-3300J0D01*
G01X355600Y310600D02*
G03X355600I-3300J0D01*
G01X342800Y296900D02*
G03X342800I-3300J0D01*
G01X348800Y304300D02*
G03X348800I-3300J0D01*
G01X320900Y255000D02*
G03X320900I-3300J0D01*
G01X334000Y311500D02*
G03X334000I-3300J0D01*
G01X318000Y290700D02*
G03X318000I-3300J0D01*
G01X319800Y311400D02*
G03X319800I-3300J0D01*
G01X324350Y331650D02*
G03X324350I-3300J0D01*
G01X306400Y228100D02*
G03X306400I-3300J0D01*
G01X304000Y243900D02*
G03X304000I-3300J0D01*
G01X308300Y254300D02*
G03X308300I-3300J0D01*
G01X309900Y275500D02*
G03X309900I-3300J0D01*
G01X315300Y328500D02*
G03X315300I-3300J0D01*
G01X321600Y342100D02*
G03X321600I-3300J0D01*
G01X307400Y335800D02*
G03X307400I-3300J0D01*
G01X300500Y283000D02*
G03X300500I-3300J0D01*
G01X293600Y135000D02*
G03X293600I-4600J0D01*
G01X280373Y110000D02*
G03X280373I-3373J0D01*
G01X293600Y175000D02*
G03X293600I-4600J0D01*
G01X279100Y141200D02*
G03X279100I-3300J0D01*
G01Y154300D02*
G03X279100I-3300J0D01*
G01Y163500D02*
G03X279100I-3300J0D01*
G01X280900Y175100D02*
G03X280900I-3300J0D01*
G01X285600Y180700D02*
G03X285600I-3300J0D01*
G01X290100Y186300D02*
G03X290100I-3300J0D01*
G01X287000Y207800D02*
G03X287000I-3300J0D01*
G01X287400Y218400D02*
G03X287400I-3300J0D01*
G01X287900Y246100D02*
G03X287900I-3300J0D01*
G01X292400Y253300D02*
G03X292400I-3300J0D01*
G01X298000Y291300D02*
G03X298000I-3300J0D01*
G01X286000Y284900D02*
G03X286000I-3300J0D01*
G01X295600Y313500D02*
G03X295600I-3300J0D01*
G01X277300Y185500D02*
G03X277300I-3300J0D01*
G01Y202600D02*
G03X277300I-3300J0D01*
G01X269000Y176300D02*
G03X269000I-3300J0D01*
G01X272400Y225400D02*
G03X272400I-3300J0D01*
G01X275500Y267600D02*
G03X275500I-3300J0D01*
G01X271500Y292800D02*
G03X271500I-3300J0D01*
G01X278100Y299000D02*
G03X278100I-3300J0D01*
G01X258900Y158400D02*
G03X258900I-3300J0D01*
G01X257000Y239500D02*
G03X257000I-3300J0D01*
G01X247700Y137200D02*
G03X247700I-3300J0D01*
G01X262200Y284000D02*
G03X262200I-3300J0D01*
G01X254700Y266900D02*
G03X254700I-3300J0D01*
G01X256900Y293800D02*
G03X256900I-3300J0D01*
G01X252300Y305900D02*
G03X252300I-3300J0D01*
G01X258200Y343600D02*
G03X258200I-3300J0D01*
G01X240000Y216500D02*
G03X240000I-3300J0D01*
G01X224900Y196300D02*
G03X224900I-3300J0D01*
G01X233600Y219200D02*
G03X233600I-3300J0D01*
G01X225500Y222600D02*
G03X225500I-3300J0D01*
G01X229100Y230400D02*
G03X229100I-3300J0D01*
G01X231100Y271100D02*
G03X231100I-3300J0D01*
G01X224400Y280600D02*
G03X224400I-3300J0D01*
G01X228800Y295600D02*
G03X228800I-3300J0D01*
G01X212700Y150400D02*
G03X212700I-3300J0D01*
G01X215300Y170500D02*
G03X215300I-3300J0D01*
G01X217000Y200400D02*
G03X217000I-3300J0D01*
G01Y213900D02*
G03X217000I-3300J0D01*
G01X214600Y240000D02*
G03X214600I-3300J0D01*
G01X216300Y257700D02*
G03X216300I-3300J0D01*
G01X201100Y181500D02*
G03X201100I-3300J0D01*
G01X216100Y274300D02*
G03X216100I-3300J0D01*
G01X220300Y329900D02*
G03X220300I-3300J0D01*
G01X219700Y343800D02*
G03X219700I-3300J0D01*
G01X208250Y324450D02*
G03X208250I-3300J0D01*
G01X192000Y175300D02*
G03X192000I-3300J0D01*
G01X177400Y166000D02*
G03X177400I-3300J0D01*
G01X193100Y216400D02*
G03X193100I-3300J0D01*
G01X192800Y240000D02*
G03X192800I-3300J0D01*
G01X203300Y334000D02*
G03X203300I-3300J0D01*
G01X195700Y274000D02*
G03X195700I-3300J0D01*
G01Y301300D02*
G03X195700I-3300J0D01*
G01X195900Y311500D02*
G03X195900I-3300J0D01*
G01X176700Y220000D02*
G03X176700I-3300J0D01*
G01X177800Y242000D02*
G03X177800I-3300J0D01*
G01X174900Y258000D02*
G03X174900I-3300J0D01*
G01X184500Y288200D02*
G03X184500I-3300J0D01*
G01X158800Y160200D02*
G03X158800I-3300J0D01*
G01X166267Y182480D02*
G03X166267I-7999J0D01*
G01X169700Y298900D02*
G03X169700I-3300J0D01*
G01X161900Y226000D02*
G03X161900I-3300J0D01*
G01X161100Y251000D02*
G03X161100I-3300J0D01*
G01X141800Y149600D02*
G03X141800I-3300J0D01*
G01X147600Y158900D02*
G03X147600I-3300J0D01*
G01X153000Y209700D02*
G03X153000I-3300J0D01*
G01X154100Y246400D02*
G03X154100I-3300J0D01*
G01X156400Y266000D02*
G03X156400I-3300J0D01*
G01X156600Y272800D02*
G03X156600I-3300J0D01*
G01X166267Y316732D02*
G03X166267I-7999J0D01*
G01X156300Y332200D02*
G03X156300I-3300J0D01*
G01X132400Y149600D02*
G03X132400I-3300J0D01*
G01X137200Y160000D02*
G03X137200I-3300J0D01*
G01X141300Y179400D02*
G03X141300I-3300J0D01*
G01X144800Y204800D02*
G03X144800I-3300J0D01*
G01Y214600D02*
G03X144800I-3300J0D01*
G01X140500Y254400D02*
G03X140500I-3300J0D01*
G01X140300Y267000D02*
G03X140300I-3300J0D01*
G01X146300Y299000D02*
G03X146300I-3300J0D01*
G01X149000Y311900D02*
G03X149000I-3300J0D01*
G01X132500Y244800D02*
G03X132500I-3300J0D01*
G01X131400Y255700D02*
G03X131400I-3300J0D01*
G01X137600Y344200D02*
G03X137600I-3300J0D01*
G01X124500Y202300D02*
G03X124500I-3300J0D01*
G01X112300Y213500D02*
G03X112300I-3300J0D01*
G01X190100Y137600D02*
G03X190100I-3300J0D01*
G01X178600Y135000D02*
G03X178600I-4600J0D01*
G01X178800Y153400D02*
G03X178800I-3300J0D01*
G01X207800Y180900D02*
G03X207800I-3300J0D01*
G01X232300Y115200D02*
G03X232300I-3300J0D01*
G01X231300Y131300D02*
G03X231300I-3300J0D01*
G01X220300Y115300D02*
G03X220300I-3300J0D01*
G01X224300Y131700D02*
G03X224300I-3300J0D01*
G01X265800Y270700D02*
G03X265800I-3300J0D01*
G01X310600Y144000D02*
G03X310600I-3300J0D01*
G01X338600Y153000D02*
G03X338600I-3300J0D01*
G01X335400Y170100D02*
G03X335400I-3300J0D01*
G01X335600Y180300D02*
G03X335600I-3300J0D01*
G01X341500Y183800D02*
G03X341500I-3300J0D01*
G01X343100Y208100D02*
G03X343100I-3300J0D01*
G01X333600Y112000D02*
G03X333600I-4600J0D01*
G01X336200Y120300D02*
G03X336200I-3300J0D01*
G01X339600Y136000D02*
G03X339600I-3300J0D01*
G01X418200Y152500D02*
G03X418200I-3300J0D01*
G01Y135300D02*
G03X418200I-3300J0D01*
G01X426700Y143000D02*
G03X426700I-5700J0D01*
G01X491200Y247618D02*
G03X481918Y256900I-9217J65D01*
G01X481900D02*
G03X481918I0J2500D01*
G01X481900D02*
X440600D01*
X440573D02*
G03X440600I27J2500D01*
G01X434233Y262132D02*
G03X440573Y256900I6411J1312D01*
G01X434100Y267939D02*
G03X434233Y262132I-1500J-2939D01*
G01X434100Y267939D02*
Y344100D01*
Y344110D02*
G03Y344100I2500J-10D01*
G01Y344110D02*
G03X424810Y353400I-9254J36D01*
G01X424800D02*
G03X424810I0J2500D01*
G01X424800D02*
X399496D01*
X394992D02*
G03X399496I2252J-9306D01*
G01X394992D02*
X117609D01*
G03X109103Y350726I112J-15221*
G01X105183Y346810D02*
G03X109103Y350726I6966J-3053D01*
G01X105183Y346810D02*
G03X102500Y338291I12538J-8631D01*
G01Y333500*
X103684*
X110200Y326984D02*
G03X103684Y333500I-6444J72D01*
G01X110200Y326984D02*
Y305900D01*
X110198Y305803D02*
G03X110200Y305900I-2498J97D01*
G01X103897Y299502D02*
G03X110198Y305803I-255J6556D01*
G01X103800Y299500D02*
G03X103897Y299502I0J2500D01*
G01X103800Y299500D02*
X102500D01*
Y282347*
Y277889D02*
G03Y282347I9311J2229D01*
G01Y277889D02*
Y260700D01*
X103700*
X103706*
X110200Y254206D02*
G03X103706Y260700I-6510J-16D01*
G01X110200Y254206D02*
Y254200D01*
Y233200*
Y233184D02*
G03Y233200I-2500J16D01*
G01X103716Y226700D02*
G03X110200Y233184I-41J6525D01*
G01X103700Y226700D02*
G03X103716I0J2500D01*
G01X103700D02*
X102500D01*
Y196176*
X103755Y195210D02*
G03X102500Y196176I-4577J-4649D01*
G01X112500Y194960D02*
G03X103755Y195210I-4429J-1850D01*
G01X114826Y188796D02*
G03X112500Y194960I2103J4314D01*
G01X115500Y186382D02*
G03X114826Y188796I-4464J54D01*
G01X115500Y186382D02*
Y181907D01*
X110993Y177400D02*
G03X115500Y181907I22J4485D01*
G01X110993Y177400D02*
X105700D01*
Y172200*
X110982*
X115500Y167682D02*
G03X110982Y172200I-4464J54D01*
G01X115500Y167682D02*
Y163218D01*
X114831Y160814D02*
G03X115500Y163218I-3795J2350D01*
G01X116559Y151710D02*
G03X114831Y160814I370J4786D01*
G01X116919Y150978D02*
G03X116559Y151710I-3119J-1078D01*
G01X115581Y147122D02*
G03X116919Y150978I3119J1078D01*
G01X113457Y153182D02*
G03X115581Y147122I343J-3282D01*
G01X112500Y154646D02*
G03X113457Y153182I4429J1850D01*
G01X103757Y154391D02*
G03X112500Y154646I4314J2105D01*
G01X102500Y153424D02*
G03X103757Y154391I-3319J5611D01*
G01X102500Y153424D02*
Y142700D01*
X126986*
X136814D02*
G03X126986I-4914J-930D01*
G01X136814D02*
X144167D01*
X149920Y142131D02*
G03X144167Y142700I-2720J1869D01*
G01X153700Y136180D02*
G03X149920Y142131I-6426J94D01*
G01X153700Y136180D02*
Y118804D01*
X150002Y112994D02*
G03X153700Y118804I-2689J5793D01*
G01X144267Y112400D02*
G03X150002Y112994I3033J-1300D01*
G01X144267Y112400D02*
X136813D01*
X131912Y108327D02*
G03X136813Y112400I-12J5000D01*
G01X128344Y109812D02*
G03X131912Y108327I756J-3212D01*
G01X126987Y112400D02*
G03X128344Y109812I4913J927D01*
G01X126987Y112400D02*
X103508D01*
G03X117779Y102500I14142J5151*
G01X117800D02*
G03X117779I0J-2500D01*
G01X117800D02*
X161009D01*
X164975D02*
G03X161009I-1983J7343D01*
G01X164975D02*
X302496D01*
X306953D02*
G03X302496I-2229J9311D01*
G01X306953D02*
X388093D01*
G03X391293Y102868I-89J14875*
G01X396391Y105090D02*
G03X391293Y102868I-5377J5378D01*
G01X396391Y105090D02*
G03X398616Y106952I-8387J12285D01*
G01X398632Y106968D02*
G03X398616Y106952I1768J-1768D01*
G01X398632Y106968D02*
X453707Y162043D01*
X445673Y170078*
X444308Y175593D02*
G03X445673Y170078I5254J-1626D01*
G01X445943Y182079D02*
G03X444308Y175593I4480J-4579D01*
G01X445943Y182079D02*
X446932Y183068D01*
X446951Y183087D02*
G03X446932Y183068I1749J-1787D01*
G01X452835Y184737D02*
G03X446951Y183087I-1435J-6196D01*
G01X459436Y183841D02*
G03X452835Y184737I-3889J-3889D01*
G01X459436Y183841D02*
X467471Y175807D01*
X473012Y181348*
X464978Y189383*
X464077Y195976D02*
G03X464978Y189383I4790J-2704D01*
G01X465524Y201653D02*
G03X464077Y195976I4826J-4253D01*
G01X465632Y201768D02*
G03X465524Y201653I1768J-1768D01*
G01X465632Y201768D02*
X466713Y202848D01*
X473212Y204507D02*
G03X466713Y202848I-1912J-6069D01*
G01X478741Y203146D02*
G03X473212Y204507I-3889J-3889D01*
G01X478741Y203146D02*
X486776Y195111D01*
G03X491200Y205791I-10544J10624*
G01Y205800D02*
G03Y205791I2500J0D01*
G01Y205800D02*
Y247600D01*
Y247618D02*
G03Y247600I2500J-18D01*
G01X112902Y159108D02*
G03X112500Y158347I4027J-2612D01*
G01X112245Y158866D02*
G03X112902Y159108I-1209J4298D01*
G01X112500Y158347D02*
G03X112245Y158866I-4429J-1851D01*
G01X112908Y190489D02*
G03X112242Y190734I-1872J-4053D01*
G01X112500Y191260D02*
G03X112908Y190489I4429J1850D01*
G01X112242Y190734D02*
G03X112500Y191260I-4171J2376D01*
G01X486800Y209100D02*
G03X486800I-3300J0D01*
G01X489495Y239764D02*
G03X489495I-7605J0D01*
G01X453200Y207400D02*
G03X453200I-3300J0D01*
G01X456555Y220339D02*
G03X455545Y225161I1645J2861D01*
X456555Y220339I-1645J-2861*
G01X459600Y237900D02*
G03X459600I-3300J0D01*
G01X438835Y194354D02*
Y163646D01*
X438335Y163146D02*
G03X438835Y163646I-0J500D01*
G01X438335Y163146D02*
X431150D01*
X430650Y163646D02*
G03X431150Y163146I500J-0D01*
G01X430650Y163646D02*
Y169051D01*
X425350*
Y163646*
X424850Y163146D02*
G03X425350Y163646I0J500D01*
G01X424850Y163146D02*
X424665D01*
X419335D02*
G03X424665I2665J-1946D01*
G01X419335D02*
X417665D01*
X417165Y163646D02*
G03X417665Y163146I500J-0D01*
G01X417165Y163646D02*
Y194354D01*
X417665Y194854D02*
G03X417165Y194354I0J-500D01*
G01X417665Y194854D02*
X424850D01*
X425350Y194354D02*
G03X424850Y194854I-500J0D01*
G01X425350Y194354D02*
Y188949D01*
X430650*
Y194354*
X431150Y194854D02*
G03X430650Y194354I-0J-500D01*
G01X431150Y194854D02*
X438335D01*
X438835Y194354D02*
G03X438335Y194854I-500J0D01*
G01X438400Y244400D02*
G03X438400I-3300J0D01*
G01X421000Y209600D02*
G03X421000I-3300J0D01*
G01X425023Y285512D02*
G03X425023I-4062J0D01*
G01Y295512D02*
G03X425023I-4062J0D01*
G01X414700Y281500D02*
G03X414700I-3300J0D01*
G01X417400Y302700D02*
G03X417400I-3300J0D01*
G01X425023Y305512D02*
G03X425023I-4062J0D01*
G01Y315512D02*
G03X425023I-4062J0D01*
G01Y325512D02*
G03X425023I-4062J0D01*
G01X407212Y182480D02*
G03X407212I-7999J0D01*
G01Y209606D02*
G03X407212I-4062J0D01*
G01Y219606D02*
G03X407212I-4062J0D01*
G01Y229606D02*
G03X407212I-4062J0D01*
G01Y239606D02*
G03X407212I-4062J0D01*
G01Y249606D02*
G03X407212I-4062J0D01*
G01Y259606D02*
G03X407212I-4062J0D01*
G01X390700Y203000D02*
G03X390700I-3300J0D01*
G01X396900Y233600D02*
G03X396900I-3300J0D01*
G01X395300Y245700D02*
G03X395300I-3300J0D01*
G01X399393Y268059D02*
G03X399678Y271715I3757J1547D01*
G01X393512Y270384D02*
G03X399393Y268059I3288J-284D01*
G01X397888Y273216D02*
G03X393512Y270384I-3288J284D01*
G01X399678Y271715D02*
G03X397888Y273216I-2878J-1615D01*
G01X407212Y279606D02*
G03X407212I-4062J0D01*
G01Y289606D02*
G03X407212I-4062J0D01*
G01X373600Y112000D02*
G03X373600I-4600J0D01*
G01X377400Y163500D02*
G03X377400I-3300J0D01*
G01X377500Y208500D02*
G03X377500I-3300J0D01*
G01X363600Y112000D02*
G03X363600I-4600J0D01*
G01X368800Y206200D02*
G03X368800I-3300J0D01*
G01X373800Y217200D02*
G03X373800I-3300J0D01*
G01X379200Y223300D02*
G03X379200I-3300J0D01*
G01X379800Y232300D02*
G03X379800I-3300J0D01*
G01X382882Y253207D02*
G03X380498Y258530I218J3293D01*
G01X380693Y248374D02*
G03X382882Y253207I-693J3226D01*
G01X377707Y249226D02*
G03X380693Y248374I693J-3226D01*
G01X376986Y252943D02*
G03X377707Y249226I3014J-1343D01*
G01X380498Y258530D02*
G03X376986Y252943I-1698J-2830D01*
G01X383200Y268054D02*
G03X386388Y273077I2800J1746D01*
G01X379809Y273047D02*
G03X383200Y268054I591J-3247D01*
G01X386388Y273077D02*
G03X379809Y273047I-3288J-277D01*
G01X394800Y306100D02*
G03X394800I-3300J0D01*
G01X407212Y316732D02*
G03X407212I-7999J0D01*
G01X386700Y316900D02*
G03X386700I-3300J0D01*
G01X390500Y331100D02*
G03X390500I-3300J0D01*
G01X369894Y247471D02*
G03X370166Y252499I-1994J2629D01*
G01X365506Y247829D02*
G03X369894Y247471I1994J-2629D01*
G01X365534Y252401D02*
G03X365506Y247829I2366J-2301D01*
G01X366225Y257700D02*
G03X365534Y252401I1575J-2900D01*
G01X369175Y257800D02*
G03X366225Y257700I-1575J2900D01*
G01X370166Y252499D02*
G03X369175Y257800I-2366J2301D01*
G01X370900Y276000D02*
G03X370900I-3300J0D01*
G01X360800Y152100D02*
G03X360800I-3300J0D01*
G01X353600Y112000D02*
G03X353600I-4600J0D01*
G01X358800Y162700D02*
G03X358800I-3300J0D01*
G01X343600Y112000D02*
G03X343600I-4600J0D01*
G01X346000Y131000D02*
G03X346000I-3300J0D01*
G01X345264Y137306D02*
G03X349050Y138989I2936J-1506D01*
X345264Y137306I-4050J4011*
G01X348900Y156100D02*
G03X348900I-3300J0D01*
G01X351300Y189100D02*
G03X351300I-3300J0D01*
G01X354211Y200300D02*
G03X351089Y202500I-11J3300D01*
X354211Y200300I11J-3300*
G01X350300Y212100D02*
G03X350300I-3300J0D01*
G01X356371Y222037D02*
G03X354329Y224663I1229J3063D01*
G01X350277Y219891D02*
G03X356371Y222037I2823J1709D01*
G01X344823Y221981D02*
G03X350277Y219891I2177J-2481D01*
G01X348440Y227207D02*
G03X344823Y221981I-2540J-2107D01*
G01X353025Y224899D02*
G03X348440Y227207I-3225J-699D01*
G01X354329Y224663D02*
G03X353025Y224899I-1229J-3063D01*
G01X358888Y240178D02*
G03X357312Y241022I712J3222D01*
G01X353968Y235809D02*
G03X358888Y240178I2632J1991D01*
G01X350125Y241000D02*
G03X353968Y235809I1375J-3000D01*
G01X352875Y241000D02*
G03X350125I-1375J3000D01*
G01X354132Y239991D02*
G03X352875Y241000I-2632J-1991D01*
G01X357312Y241022D02*
G03X354132Y239991I-712J-3222D01*
G01X364100Y254300D02*
G03X364100I-3300J0D01*
G01X366400Y281500D02*
G03X366400I-3300J0D01*
G01X352400Y273375D02*
G03Y278625I2000J2625D01*
Y273375I-2000J-2625*
G01X359700Y283700D02*
G03X359700I-3300J0D01*
G01X364288Y296403D02*
G03X367623Y300792I3112J1097D01*
G01X358354Y296731D02*
G03X364288Y296403I3046J1269D01*
G01X354900Y301375D02*
G03X358354Y296731I3000J-1375D01*
G01X359900Y302625D02*
G03X354900Y301375I-3000J1375D01*
G01X360946Y301269D02*
G03X359900Y302625I-3046J-1269D01*
G01X361107Y301287D02*
G03X360946Y301269I293J-3287D01*
G01X367623Y300792D02*
G03X361107Y301287I-3223J708D01*
G01X355600Y310600D02*
G03X355600I-3300J0D01*
G01X341290Y233246D02*
G03X341610Y238054I2410J2254D01*
X341290Y233246I-2410J-2254*
G01X336972Y251096D02*
G03X341628Y251704I2628J-1996D01*
X336972Y251096I-2628J1996*
G01X342535Y277987D02*
G03X337365Y278113I-2535J2113D01*
X342535Y277987I2535J-2113*
G01X342800Y296900D02*
G03X342800I-3300J0D01*
G01X348800Y304300D02*
G03X348800I-3300J0D01*
G01X323777Y128481D02*
G03X320923Y128819I-1077J3119D01*
X323777Y128481I1077J-3119*
G01X317626Y188534D02*
G03X322874Y188666I2674J-1934D01*
G01X317606Y192639D02*
G03X317626Y188534I2594J-2039D01*
G01X319028Y197921D02*
G03X317606Y192639I1072J-3121D01*
G01X320472Y198079D02*
G03X319028Y197921I-1072J3121D01*
G01X322694Y192761D02*
G03X320472Y198079I-2594J2039D01*
G01X322874Y188666D02*
G03X322694Y192761I-2674J1934D01*
G01X321950Y221514D02*
G03Y226686I2050J2586D01*
Y221514I-2050J-2586*
G01X328148Y236637D02*
G03X326436Y238663I1452J2963D01*
X328148Y236637I-1453J-2963*
G01X332815Y251349D02*
G03X328085Y251451I-2315J2351D01*
X332815Y251349I2315J-2351*
G01X320900Y255000D02*
G03X320900I-3300J0D01*
G01X316772Y264622D02*
G03X321228Y265178I2528J-2122D01*
X316772Y264622I-2528J2122*
G01X327662Y282600D02*
G03X324438Y286400I38J3300D01*
G01X327639Y282470D02*
G03X327662Y282600I-3239J630D01*
G01X324280Y276816D02*
G03X327639Y282470I1920J2684D01*
G01X317855Y277100D02*
G03X324280Y276816I3245J600D01*
G01X321045Y281000D02*
G03X317855Y277100I-3245J-600D01*
G01X321951Y280889D02*
G03X321045Y281000I-851J-3189D01*
G01X324438Y286400D02*
G03X321951Y280889I-38J-3300D01*
G01X334000Y311500D02*
G03X334000I-3300J0D01*
G01X307010Y209266D02*
G03X305490Y211334I1690J2834D01*
G01X302405Y205509D02*
G03X307010Y209266I1395J2991D01*
G01X301095Y210391D02*
G03X302405Y205509I-1395J-2991D01*
G01X305490Y211334D02*
G03X301095Y210391I-1690J-2834D01*
G01X318000Y290700D02*
G03X318000I-3300J0D01*
G01X319800Y311400D02*
G03X319800I-3300J0D01*
G01X324350Y331650D02*
G03X324350I-3300J0D01*
G01X306400Y228100D02*
G03X306400I-3300J0D01*
G01X304000Y243900D02*
G03X304000I-3300J0D01*
G01X308300Y254300D02*
G03X308300I-3300J0D01*
G01X304695Y263414D02*
G03X301705Y266886I305J3286D01*
G01X300396Y260457D02*
G03X304695Y263414I1004J3143D01*
G01X298304Y264743D02*
G03X300396Y260457I-1004J-3143D01*
G01X301705Y266886D02*
G03X298304Y264743I-305J-3286D01*
G01X309900Y275500D02*
G03X309900I-3300J0D01*
G01X307739Y296429D02*
G03X304061Y299071I-439J3271D01*
X307739Y296429I439J-3271*
G01X315300Y328500D02*
G03X315300I-3300J0D01*
G01X321600Y342100D02*
G03X321600I-3300J0D01*
G01X307400Y335800D02*
G03X307400I-3300J0D01*
G01X300500Y283000D02*
G03X300500I-3300J0D01*
G01X293600Y135000D02*
G03X293600I-4600J0D01*
G01X280373Y110000D02*
G03X280373I-3373J0D01*
G01X280136Y125244D02*
G03X276511Y127338I-536J3256D01*
X280136Y125244I489J-3338*
G01X287015Y156613D02*
G03X282485Y157287I-1915J2687D01*
X287015Y156613I1915J-2687*
G01X293600Y175000D02*
G03X293600I-4600J0D01*
G01X279100Y141200D02*
G03X279100I-3300J0D01*
G01Y154300D02*
G03X279100I-3300J0D01*
G01Y163500D02*
G03X279100I-3300J0D01*
G01X280900Y175100D02*
G03X280900I-3300J0D01*
G01X285600Y180700D02*
G03X285600I-3300J0D01*
G01X290100Y186300D02*
G03X290100I-3300J0D01*
G01X287000Y207800D02*
G03X287000I-3300J0D01*
G01X287400Y218400D02*
G03X287400I-3300J0D01*
G01X287900Y246100D02*
G03X287900I-3300J0D01*
G01X292400Y253300D02*
G03X292400I-3300J0D01*
G01X298000Y291300D02*
G03X298000I-3300J0D01*
G01X287863Y266404D02*
G03X284437Y270196I-163J3296D01*
X287863Y266404I163J-3296*
G01X286000Y284900D02*
G03X286000I-3300J0D01*
G01X290738Y297475D02*
G03X290362Y302625I1862J2725D01*
X290738Y297475I-1862J-2725*
G01X295600Y313500D02*
G03X295600I-3300J0D01*
G01X266398Y152870D02*
G03X267302Y157730I2602J2030D01*
G01X263036Y158550D02*
G03X266398Y152870I1664J-2850D01*
G01X266364Y158550D02*
G03X263036I-1664J2850D01*
G01X267302Y157730D02*
G03X266364Y158550I-2602J-2030D01*
G01X277300Y185500D02*
G03X277300I-3300J0D01*
G01Y202600D02*
G03X277300I-3300J0D01*
G01X269000Y176300D02*
G03X269000I-3300J0D01*
G01X272400Y225400D02*
G03X272400I-3300J0D01*
G01X275500Y267600D02*
G03X275500I-3300J0D01*
G01X274637Y279144D02*
G03X272863Y280456I963J3156D01*
G01X269163Y279144D02*
G03X274637I2737J-1844D01*
G01X270937Y280456D02*
G03X269163Y279144I-2737J1844D01*
G01X272863Y280456D02*
G03X270937I-963J-3156D01*
G01X271500Y292800D02*
G03X271500I-3300J0D01*
G01X278100Y299000D02*
G03X278100I-3300J0D01*
G01X252443Y117688D02*
G03X249957Y121512I757J3212D01*
X252443Y117688I-757J-3212*
G01X258900Y158400D02*
G03X258900I-3300J0D01*
G01X257000Y239500D02*
G03X257000I-3300J0D01*
G01X247700Y137200D02*
G03X247700I-3300J0D01*
G01X244496Y169378D02*
G03X243304Y172822I2004J2622D01*
X244496Y169378I-2004J-2622*
G01X250714Y248206D02*
G03X249186Y252194I1586J2894D01*
X250714Y248206I-1586J-2894*
G01X262200Y284000D02*
G03X262200I-3300J0D01*
G01X254700Y266900D02*
G03X254700I-3300J0D01*
G01X256900Y293800D02*
G03X256900I-3300J0D01*
G01X259204Y298933D02*
G03X259596Y300667I3296J167D01*
G01X253939Y302806D02*
G03X259204Y298933I2361J-2306D01*
G01X258461Y302994D02*
G03X253939Y302806I-2361J2306D01*
G01X259596Y300667D02*
G03X258461Y302994I-3296J-167D01*
G01X252300Y305900D02*
G03X252300I-3300J0D01*
G01X258200Y343600D02*
G03X258200I-3300J0D01*
G01X235503Y180336D02*
G03X236997Y182964I3297J-136D01*
G01X234937Y180041D02*
G03X235503Y180336I-1237J3059D01*
G01X228962Y177558D02*
G03X234937Y180041I2738J1842D01*
G01X225661Y182471D02*
G03X228962Y177558I439J-3271D01*
G01X231300Y185365D02*
G03X225661Y182471I-2400J-2265D01*
G01X236997Y182964D02*
G03X231300Y185365I-3297J136D01*
G01X240000Y216500D02*
G03X240000I-3300J0D01*
G01X238754Y236466D02*
G03X240046Y237034I1946J-2666D01*
X238754Y236466I-1946J2666*
G01X224900Y196300D02*
G03X224900I-3300J0D01*
G01X222748Y206346D02*
G03X225252Y210854I3052J1254D01*
X222748Y206346I-3052J-1254*
G01X233600Y219200D02*
G03X233600I-3300J0D01*
G01X225500Y222600D02*
G03X225500I-3300J0D01*
G01X229100Y230400D02*
G03X229100I-3300J0D01*
G01X231100Y271100D02*
G03X231100I-3300J0D01*
G01X224400Y280600D02*
G03X224400I-3300J0D01*
G01X228800Y295600D02*
G03X228800I-3300J0D01*
G01X196298Y118514D02*
G03X193302Y121686I302J3286D01*
X196298Y118514I-302J-3286*
G01X204900Y134275D02*
G03Y139525I2000J2625D01*
Y134275I-2000J-2625*
G01X212700Y150400D02*
G03X212700I-3300J0D01*
G01X215300Y170500D02*
G03X215300I-3300J0D01*
G01X217000Y200400D02*
G03X217000I-3300J0D01*
G01Y213900D02*
G03X217000I-3300J0D01*
G01X214600Y240000D02*
G03X214600I-3300J0D01*
G01X209125Y248898D02*
G03X211075Y250802I3075J-1198D01*
X209125Y248898I-3075J1198*
G01X216300Y257700D02*
G03X216300I-3300J0D01*
G01X191714Y160560D02*
G03X193886Y162840I3186J-860D01*
G01X187827Y162076D02*
G03X191714Y160560I2873J1624D01*
G01X184785Y160302D02*
G03X187827Y162076I115J3298D01*
G01X182015Y161998D02*
G03X184785Y160302I-115J-3298D01*
G01X187773Y165224D02*
G03X182015Y161998I-2873J-1624D01*
G01X193886Y162840D02*
G03X187773Y165224I-3186J860D01*
G01X201100Y181500D02*
G03X201100I-3300J0D01*
G01X205870Y265755D02*
G03X205730Y267245I3130J1045D01*
X205870Y265755I-3130J-1045*
G01X216100Y274300D02*
G03X216100I-3300J0D01*
G01X211072Y294479D02*
G03X212928Y299121I2928J1521D01*
G01X207909Y300153D02*
G03X211072Y294479I2091J-2553D01*
G01X210001Y306339D02*
G03X207909Y300153I-1501J-2939D01*
G01X210518Y308174D02*
G03X210001Y306339I2782J-1774D01*
G01X211982Y309426D02*
G03X210518Y308174I-2782J1774D01*
G01X211799Y303461D02*
G03X211982Y309426I1501J2939D01*
G01X210591Y300847D02*
G03X211799Y303461I-2091J2553D01*
G01X212928Y299121D02*
G03X210591Y300847I-2928J-1521D01*
G01X220300Y329900D02*
G03X220300I-3300J0D01*
G01X219700Y343800D02*
G03X219700I-3300J0D01*
G01X208250Y324450D02*
G03X208250I-3300J0D01*
G01X192000Y175300D02*
G03X192000I-3300J0D01*
G01X177400Y166000D02*
G03X177400I-3300J0D01*
G01X181470Y180582D02*
G03X180830Y183618I2530J2118D01*
G01X177045Y178448D02*
G03X181470Y180582I1255J3052D01*
G01X175982Y179151D02*
G03X177045Y178448I-1982J-4151D01*
G01X175495Y183238D02*
G03X175982Y179151I2805J-1738D01*
G01X176058Y188403D02*
G03X175495Y183238I1742J-2803D01*
G01X173896Y189337D02*
G03X176058Y188403I2304J2363D01*
G01X174004Y194163D02*
G03X173896Y189337I-2304J-2363D01*
G01X177942Y188897D02*
G03X174004Y194163I-1742J2803D01*
G01X180605Y183862D02*
G03X177942Y188897I-2805J1738D01*
G01X180830Y183618D02*
G03X180605Y183862I-2530J-2118D01*
G01X193100Y216400D02*
G03X193100I-3300J0D01*
G01X192800Y240000D02*
G03X192800I-3300J0D01*
G01X192993Y250118D02*
G03X191307Y252782I1607J2882D01*
X192993Y250118I-1607J-2882*
G01X203300Y334000D02*
G03X203300I-3300J0D01*
G01X195700Y274000D02*
G03X195700I-3300J0D01*
G01Y301300D02*
G03X195700I-3300J0D01*
G01X195900Y311500D02*
G03X195900I-3300J0D01*
G01X173237Y208149D02*
G03X177563Y209051I2663J-1949D01*
X173237Y208149I-2663J1949*
G01X176700Y220000D02*
G03X176700I-3300J0D01*
G01X177800Y242000D02*
G03X177800I-3300J0D01*
G01X174900Y258000D02*
G03X174900I-3300J0D01*
G01X177655Y276088D02*
G03X173749Y281313I-2355J2312D01*
G01X173678Y271022D02*
G03X177655Y276088I1422J2978D01*
G01X171822Y274378D02*
G03X173678Y271022I-1422J-2978D01*
G01X172745Y276312D02*
G03X171822Y274378I2355J-2312D01*
G01X172151Y279387D02*
G03X172745Y276312I3149J-987D01*
G01X173749Y281313D02*
G03X172151Y279387I-3149J987D01*
G01X184500Y288200D02*
G03X184500I-3300J0D01*
G01X173932Y291603D02*
G03X173168Y292697I2268J2397D01*
X173932Y291603I-2268J-2397*
G01X158800Y160200D02*
G03X158800I-3300J0D01*
G01X166267Y182480D02*
G03X166267I-7999J0D01*
G01X169700Y298900D02*
G03X169700I-3300J0D01*
G01X172605Y305209D02*
G03X171295Y310091I1395J2991D01*
X172605Y305209I-1395J-2991*
G01X174266Y336301D02*
G03X172902Y341874I-2266J2399D01*
G01X169634Y336399D02*
G03X174266Y336301I2266J-2399D01*
G01X168898Y339826D02*
G03X169634Y336399I3102J-1126D01*
G01X172902Y341874D02*
G03X168898Y339826I-3102J1126D01*
G01X161900Y226000D02*
G03X161900I-3300J0D01*
G01X161100Y251000D02*
G03X161100I-3300J0D01*
G01X141800Y149600D02*
G03X141800I-3300J0D01*
G01X147600Y158900D02*
G03X147600I-3300J0D01*
G01X153000Y209700D02*
G03X153000I-3300J0D01*
G01X154100Y246400D02*
G03X154100I-3300J0D01*
G01X156400Y266000D02*
G03X156400I-3300J0D01*
G01X156600Y272800D02*
G03X156600I-3300J0D01*
G01X166267Y316732D02*
G03X166267I-7999J0D01*
G01X156300Y332200D02*
G03X156300I-3300J0D01*
G01X132400Y149600D02*
G03X132400I-3300J0D01*
G01X137200Y160000D02*
G03X137200I-3300J0D01*
G01X141300Y179400D02*
G03X141300I-3300J0D01*
G01X144800Y204800D02*
G03X144800I-3300J0D01*
G01Y214600D02*
G03X144800I-3300J0D01*
G01X140500Y254400D02*
G03X140500I-3300J0D01*
G01X140300Y267000D02*
G03X140300I-3300J0D01*
G01X146300Y299000D02*
G03X146300I-3300J0D01*
G01X149000Y311900D02*
G03X149000I-3300J0D01*
G01X132500Y244800D02*
G03X132500I-3300J0D01*
G01X131400Y255700D02*
G03X131400I-3300J0D01*
G01X137600Y344200D02*
G03X137600I-3300J0D01*
G01X124500Y202300D02*
G03X124500I-3300J0D01*
G01X112300Y213500D02*
G03X112300I-3300J0D01*
G01X190100Y137600D02*
G03X190100I-3300J0D01*
G01X178600Y135000D02*
G03X178600I-4600J0D01*
G01X178800Y153400D02*
G03X178800I-3300J0D01*
G01X207800Y180900D02*
G03X207800I-3300J0D01*
G01X232300Y115200D02*
G03X232300I-3300J0D01*
G01X231300Y131300D02*
G03X231300I-3300J0D01*
G01X220300Y115300D02*
G03X220300I-3300J0D01*
G01X224300Y131700D02*
G03X224300I-3300J0D01*
G01X265800Y270700D02*
G03X265800I-3300J0D01*
G01X310600Y144000D02*
G03X310600I-3300J0D01*
G01X301879Y133150D02*
G03X298921I-1479J2950D01*
X301879I1479J-2950*
G01X312330Y184946D02*
G03X310170Y187054I970J3154D01*
G01X308488Y180678D02*
G03X312330Y184946I712J3222D01*
G01X306950Y175211D02*
G03X308488Y180678I-850J3189D01*
G01X303650Y176189D02*
G03X306950Y175211I850J-3189D01*
G01X306812Y181622D02*
G03X303650Y176189I-712J-3222D01*
G01X310170Y187054D02*
G03X306812Y181622I-970J-3154D01*
G01X338600Y153000D02*
G03X338600I-3300J0D01*
G01X335400Y170100D02*
G03X335400I-3300J0D01*
G01X335600Y180300D02*
G03X335600I-3300J0D01*
G01X341500Y183800D02*
G03X341500I-3300J0D01*
G01X343100Y208100D02*
G03X343100I-3300J0D01*
G01X333600Y112000D02*
G03X333600I-4600J0D01*
G01X336200Y120300D02*
G03X336200I-3300J0D01*
G01X339600Y136000D02*
G03X339600I-3300J0D01*
G01X418200Y152500D02*
G03X418200I-3300J0D01*
G01Y135300D02*
G03X418200I-3300J0D01*
G01X426700Y143000D02*
G03X426700I-5700J0D01*
G01X112429Y191099D02*
X112571D01*
X112336Y158699D02*
X112664D01*
X484524Y246899D02*
X491200D01*
X486245Y245999D02*
X491200D01*
X487310Y245099D02*
X491200D01*
X488068Y244199D02*
X491200D01*
X488624Y243299D02*
X491200D01*
X489024Y242399D02*
X491200D01*
X489295Y241499D02*
X491200D01*
X489449Y240599D02*
X491200D01*
X489495Y239699D02*
X491200D01*
X489434Y238799D02*
X491200D01*
X489263Y237899D02*
X491200D01*
X488975Y236999D02*
X491200D01*
X488554Y236099D02*
X491200D01*
X487973Y235199D02*
X491200D01*
X487179Y234299D02*
X491200D01*
X486053Y233399D02*
X491200D01*
X484140Y232499D02*
X491200D01*
X406690Y231599D02*
X491200D01*
X407062Y230699D02*
X491200D01*
X407207Y229799D02*
X491200D01*
X407150Y228899D02*
X491200D01*
X406880Y227999D02*
X491200D01*
X406345Y227099D02*
X491200D01*
X459578Y226199D02*
X491200D01*
X460747Y225299D02*
X491200D01*
X461275Y224399D02*
X491200D01*
X461486Y223499D02*
X491200D01*
X461445Y222599D02*
X491200D01*
X461139Y221699D02*
X491200D01*
X460464Y220799D02*
X491200D01*
X456164Y219899D02*
X491200D01*
X407166Y218999D02*
X491200D01*
X406922Y218099D02*
X491200D01*
X406421Y217199D02*
X491200D01*
X405508Y216299D02*
X491200D01*
X373265Y215399D02*
X491200D01*
X372396Y214499D02*
X491200D01*
X403900Y213599D02*
X491200D01*
X418835Y212699D02*
X491200D01*
X485399Y211799D02*
X491200D01*
X486267Y210899D02*
X491200D01*
X486675Y209999D02*
X491200D01*
X486800Y209099D02*
X491200D01*
X486675Y208199D02*
X491200D01*
X486265Y207299D02*
X491200D01*
X485396Y206399D02*
X491200D01*
X406787Y247799D02*
X491200D01*
X452597Y205499D02*
X491198D01*
X476163Y204599D02*
X491157D01*
X407109Y248699D02*
X491144D01*
X478096Y203699D02*
X491061D01*
X407212Y249599D02*
X490999D01*
X479089Y202799D02*
X490909D01*
X407113Y250499D02*
X490760D01*
X479989Y201899D02*
X490700D01*
X480889Y200999D02*
X490431D01*
X406795Y251399D02*
X490418D01*
X481789Y200099D02*
X490098D01*
X406191Y252299D02*
X489961D01*
X482689Y199199D02*
X489698D01*
X405046Y253199D02*
X489368D01*
X483589Y198299D02*
X489222D01*
X484489Y197399D02*
X488664D01*
X385364Y254099D02*
X488601D01*
X485389Y196499D02*
X488011D01*
X386039Y254999D02*
X487590D01*
X486289Y195599D02*
X487246D01*
X404810Y255899D02*
X486161D01*
X406085Y256799D02*
X483347D01*
X453044Y206399D02*
X481604D01*
X420161Y211799D02*
X481601D01*
X453198Y207299D02*
X480735D01*
X420734Y210899D02*
X480733D01*
X453102Y208199D02*
X480325D01*
X451934Y209999D02*
X480325D01*
X452729Y209099D02*
X480200D01*
X406002Y232499D02*
X479640D01*
X437256Y246899D02*
X479256D01*
X404605Y233399D02*
X477727D01*
X437987Y245999D02*
X477534D01*
X396825Y234299D02*
X476600D01*
X438325Y245099D02*
X476469D01*
X458196Y235199D02*
X475807D01*
X438394Y244199D02*
X475711D01*
X459065Y236099D02*
X475226D01*
X438211Y243299D02*
X475156D01*
X459475Y236999D02*
X474805D01*
X437724Y242399D02*
X474755D01*
X459600Y237899D02*
X474516D01*
X436672Y241499D02*
X474485D01*
X459475Y238799D02*
X474346D01*
X458199Y240599D02*
X474330D01*
X459067Y239699D02*
X474285D01*
X472893Y204599D02*
X473541D01*
X462079Y181199D02*
X472863D01*
X461179Y182099D02*
X472262D01*
X462979Y180299D02*
X471963D01*
X460279Y182999D02*
X471362D01*
X463879Y179399D02*
X471063D01*
X459378Y183899D02*
X470462D01*
X464779Y178499D02*
X470163D01*
X451644Y204599D02*
X469707D01*
X458148Y184799D02*
X469562D01*
X465679Y177599D02*
X469263D01*
X438835Y185699D02*
X468662D01*
X466579Y176699D02*
X468363D01*
X438835Y186599D02*
X467762D01*
X390625Y203699D02*
X467720D01*
X438835Y187499D02*
X466862D01*
X390694Y202799D02*
X466663D01*
X438835Y188399D02*
X465962D01*
X390511Y201899D02*
X465763D01*
X438835Y189299D02*
X465062D01*
X390024Y200999D02*
X465019D01*
X388972Y200099D02*
X464511D01*
X438835Y190199D02*
X464305D01*
X354400Y199199D02*
X464174D01*
X352996Y196499D02*
X463981D01*
X354275Y198299D02*
X463981D01*
X353865Y197399D02*
X463918D01*
X323302Y195599D02*
X463883D01*
X438835Y191099D02*
X463814D01*
X438697Y194699D02*
X463555D01*
X438835Y191999D02*
X463516D01*
X438835Y193799D02*
X463392D01*
X438835Y192899D02*
X463379D01*
X405361Y226199D02*
X456822D01*
X455278Y225299D02*
X455653D01*
X396487Y235199D02*
X454404D01*
X407089Y240599D02*
X454401D01*
X405199Y236099D02*
X453535D01*
X407211Y239699D02*
X453533D01*
X425112Y162299D02*
X453452D01*
X406264Y236999D02*
X453125D01*
X407131Y238799D02*
X453125D01*
X425294Y161399D02*
X453063D01*
X406835Y237899D02*
X453000D01*
X452538Y184799D02*
X452947D01*
X438559Y163199D02*
X452552D01*
X378526Y225299D02*
X452522D01*
X425225Y160499D02*
X452163D01*
X438835Y164099D02*
X451652D01*
X407201Y219899D02*
X451636D01*
X379012Y224399D02*
X451353D01*
X424885Y159599D02*
X451263D01*
X407033Y220799D02*
X450961D01*
X404312Y223499D02*
X450825D01*
X438835Y164999D02*
X450752D01*
X406632Y221699D02*
X450655D01*
X405897Y222599D02*
X450614D01*
X424153Y158699D02*
X450363D01*
X438835Y184799D02*
X450262D01*
X438835Y165899D02*
X449852D01*
X348429Y157799D02*
X449463D01*
X438835Y166799D02*
X448952D01*
X348802Y156899D02*
X448563D01*
X390287Y204599D02*
X448156D01*
X438835Y167699D02*
X448052D01*
X438835Y183899D02*
X447972D01*
X420976Y209999D02*
X447866D01*
X348898Y155999D02*
X447663D01*
X389556Y205499D02*
X447203D01*
X438835Y168599D02*
X447152D01*
X420962Y209099D02*
X447071D01*
X438835Y182999D02*
X446863D01*
X416934Y155099D02*
X446763D01*
X418501Y206399D02*
X446756D01*
X420688Y208199D02*
X446698D01*
X420065Y207299D02*
X446602D01*
X438835Y169499D02*
X446252D01*
X438835Y182099D02*
X445963D01*
X417729Y154199D02*
X445863D01*
X438835Y170399D02*
X445376D01*
X438835Y181199D02*
X445193D01*
X418102Y153299D02*
X444963D01*
X438835Y171299D02*
X444752D01*
X438835Y180299D02*
X444661D01*
X438835Y172199D02*
X444354D01*
X438835Y179399D02*
X444305D01*
X438835Y175799D02*
X444247D01*
X438835Y174899D02*
X444141D01*
X438835Y173099D02*
X444131D01*
X438835Y178499D02*
X444095D01*
X438835Y176699D02*
X444067D01*
X418198Y152399D02*
X444063D01*
X438835Y173999D02*
X444062D01*
X438835Y177599D02*
X444018D01*
X418044Y151499D02*
X443163D01*
X417597Y150599D02*
X442263D01*
X416644Y149699D02*
X441363D01*
X212285Y148799D02*
X440463D01*
X423914Y147899D02*
X439563D01*
X425062Y146999D02*
X438663D01*
X425784Y146099D02*
X437763D01*
X406736Y257699D02*
X437510D01*
X426259Y145199D02*
X436863D01*
X407085Y258599D02*
X436245D01*
X426550Y144299D02*
X435963D01*
X407210Y259499D02*
X435423D01*
X426686Y143399D02*
X435063D01*
X407134Y260399D02*
X434851D01*
X406843Y261299D02*
X434461D01*
X426678Y142499D02*
X434163D01*
X406818Y344099D02*
X434100D01*
X406776Y343199D02*
X434100D01*
X406648Y342299D02*
X434100D01*
X406431Y341399D02*
X434100D01*
X406117Y340499D02*
X434100D01*
X405697Y339599D02*
X434100D01*
X405153Y338699D02*
X434100D01*
X404457Y337799D02*
X434100D01*
X403559Y336899D02*
X434100D01*
X402355Y335999D02*
X434100D01*
X400521Y335099D02*
X434100D01*
X388335Y334199D02*
X434100D01*
X389661Y333299D02*
X434100D01*
X390234Y332399D02*
X434100D01*
X390476Y331499D02*
X434100D01*
X390462Y330599D02*
X434100D01*
X390188Y329699D02*
X434100D01*
X423348Y328799D02*
X434100D01*
X424248Y327899D02*
X434100D01*
X424741Y326999D02*
X434100D01*
X424981Y326099D02*
X434100D01*
X425011Y325199D02*
X434100D01*
X424838Y324299D02*
X434100D01*
X424430Y323399D02*
X434100D01*
X423685Y322499D02*
X434100D01*
X422051Y321599D02*
X434100D01*
X406159Y320699D02*
X434100D01*
X406601Y319799D02*
X434100D01*
X423204Y318899D02*
X434100D01*
X424173Y317999D02*
X434100D01*
X424701Y317099D02*
X434100D01*
X424965Y316199D02*
X434100D01*
X425018Y315299D02*
X434100D01*
X424868Y314399D02*
X434100D01*
X424489Y313499D02*
X434100D01*
X423792Y312599D02*
X434100D01*
X422361Y311699D02*
X434100D01*
X404577Y310799D02*
X434100D01*
X403371Y309899D02*
X434100D01*
X423045Y308999D02*
X434100D01*
X424093Y308099D02*
X434100D01*
X424657Y307199D02*
X434100D01*
X424946Y306299D02*
X434100D01*
X425022Y305399D02*
X434100D01*
X424895Y304499D02*
X434100D01*
X424544Y303599D02*
X434100D01*
X423891Y302699D02*
X434100D01*
X422608Y301799D02*
X434100D01*
X416865Y300899D02*
X434100D01*
X415996Y299999D02*
X434100D01*
X422868Y299099D02*
X434100D01*
X424008Y298199D02*
X434100D01*
X424609Y297299D02*
X434100D01*
X424925Y296399D02*
X434100D01*
X425023Y295499D02*
X434100D01*
X424919Y294599D02*
X434100D01*
X424596Y293699D02*
X434100D01*
X423984Y292799D02*
X434100D01*
X422817Y291899D02*
X434100D01*
X406966Y290999D02*
X434100D01*
X407182Y290099D02*
X434100D01*
X422667Y289199D02*
X434100D01*
X423917Y288299D02*
X434100D01*
X424559Y287399D02*
X434100D01*
X424902Y286499D02*
X434100D01*
X425022Y285599D02*
X434100D01*
X424941Y284699D02*
X434100D01*
X424644Y283799D02*
X434100D01*
X424071Y282899D02*
X434100D01*
X423000Y281999D02*
X434100D01*
X414676Y281099D02*
X434100D01*
X414433Y280199D02*
X434100D01*
X413859Y279299D02*
X434100D01*
X412528Y278399D02*
X434100D01*
X406622Y277499D02*
X434100D01*
X405880Y276599D02*
X434100D01*
X404260Y275699D02*
X434100D01*
X397634Y274799D02*
X434100D01*
X397876Y273899D02*
X434100D01*
X405384Y272999D02*
X434100D01*
X406357Y272099D02*
X434100D01*
X406887Y271199D02*
X434100D01*
X407152Y270299D02*
X434100D01*
X407207Y269399D02*
X434100D01*
X407058Y268499D02*
X434100D01*
X406775Y344999D02*
X434061D01*
X406647Y345899D02*
X433933D01*
X406428Y346799D02*
X433712D01*
X406744Y241499D02*
X433528D01*
X406114Y347699D02*
X433391D01*
X426525Y141599D02*
X433263D01*
X405692Y348599D02*
X432958D01*
X406178Y246899D02*
X432944D01*
X406100Y242399D02*
X432476D01*
X405147Y349499D02*
X432395D01*
X426215Y140699D02*
X432363D01*
X405017Y245999D02*
X432213D01*
X404843Y243299D02*
X431989D01*
X395245Y245099D02*
X431875D01*
X394939Y244199D02*
X431806D01*
X404450Y350399D02*
X431668D01*
X425716Y139799D02*
X431463D01*
X425075Y163199D02*
X430925D01*
X406277Y262199D02*
X430856D01*
X425213Y194699D02*
X430787D01*
X403550Y351299D02*
X430718D01*
X425350Y193799D02*
X430650D01*
X425350Y192899D02*
X430650D01*
X425350Y191999D02*
X430650D01*
X425350Y191099D02*
X430650D01*
X425350Y190199D02*
X430650D01*
X425350Y189299D02*
X430650D01*
X425350Y168599D02*
X430650D01*
X425350Y167699D02*
X430650D01*
X425350Y166799D02*
X430650D01*
X425350Y165899D02*
X430650D01*
X425350Y164999D02*
X430650D01*
X425350Y164099D02*
X430650D01*
X406681Y267599D02*
X430566D01*
X424958Y138899D02*
X430563D01*
X405224Y263099D02*
X429903D01*
X405986Y266699D02*
X429771D01*
X423734Y137999D02*
X429663D01*
X367694Y263999D02*
X429456D01*
X402342Y352199D02*
X429406D01*
X404565Y265799D02*
X429398D01*
X321566Y264899D02*
X429302D01*
X417667Y137099D02*
X428763D01*
X418075Y136199D02*
X427863D01*
X400498Y353099D02*
X427188D01*
X418200Y135299D02*
X426963D01*
X418075Y134399D02*
X426063D01*
X417665Y133499D02*
X425163D01*
X416796Y132599D02*
X424263D01*
X345925Y131699D02*
X423363D01*
X345994Y130799D02*
X422463D01*
X345811Y129899D02*
X421563D01*
X345324Y128999D02*
X420663D01*
X405561Y321599D02*
X419871D01*
X347634Y158699D02*
X419847D01*
X344272Y128099D02*
X419763D01*
X405430Y311699D02*
X419561D01*
X417275Y301799D02*
X419314D01*
X407191Y289199D02*
X419255D01*
X356628Y159599D02*
X419115D01*
X406503Y291899D02*
X419105D01*
X370287Y299099D02*
X419054D01*
X414662Y281999D02*
X418922D01*
X377174Y162299D02*
X418888D01*
X401257Y308999D02*
X418877D01*
X324940Y127199D02*
X418863D01*
X375472Y160499D02*
X418775D01*
X406913Y318899D02*
X418718D01*
X376645Y161399D02*
X418706D01*
X389565Y328799D02*
X418574D01*
X416799Y137999D02*
X418266D01*
X404757Y322499D02*
X418237D01*
X406061Y312599D02*
X418130D01*
X347914Y147899D02*
X418086D01*
X417400Y302699D02*
X418031D01*
X406996Y288299D02*
X418005D01*
X325245Y126299D02*
X417963D01*
X405662Y292799D02*
X417938D01*
X370625Y298199D02*
X417914D01*
X414389Y282899D02*
X417851D01*
X394126Y308099D02*
X417829D01*
X407111Y317999D02*
X417749D01*
X388001Y327899D02*
X417674D01*
X403634Y323399D02*
X417492D01*
X377386Y163199D02*
X417441D01*
X406529Y313499D02*
X417433D01*
X417275Y303599D02*
X417378D01*
X406560Y287399D02*
X417363D01*
X340301Y293699D02*
X417326D01*
X370694Y297299D02*
X417313D01*
X323398Y194699D02*
X417303D01*
X413768Y283799D02*
X417278D01*
X394612Y307199D02*
X417265D01*
X407203Y317099D02*
X417221D01*
X314939Y326999D02*
X417181D01*
X323244Y193799D02*
X417165D01*
X322797Y192899D02*
X417165D01*
X349577Y191999D02*
X417165D01*
X350626Y191099D02*
X417165D01*
X401314Y190199D02*
X417165D01*
X403396Y189299D02*
X417165D01*
X404594Y188399D02*
X417165D01*
X405442Y187499D02*
X417165D01*
X406070Y186599D02*
X417165D01*
X406536Y185699D02*
X417165D01*
X406869Y184799D02*
X417165D01*
X407085Y183899D02*
X417165D01*
X407195Y182999D02*
X417165D01*
X407203Y182099D02*
X417165D01*
X407108Y181199D02*
X417165D01*
X406909Y180299D02*
X417165D01*
X406594Y179399D02*
X417165D01*
X406150Y178499D02*
X417165D01*
X405550Y177599D02*
X417165D01*
X404741Y176699D02*
X417165D01*
X403611Y175799D02*
X417165D01*
X401763Y174899D02*
X417165D01*
X307645Y173999D02*
X417165D01*
X333478Y173099D02*
X417165D01*
X334647Y172199D02*
X417165D01*
X335175Y171299D02*
X417165D01*
X335386Y170399D02*
X417165D01*
X335345Y169499D02*
X417165D01*
X335039Y168599D02*
X417165D01*
X334364Y167699D02*
X417165D01*
X374194Y166799D02*
X417165D01*
X376366Y165899D02*
X417165D01*
X377040Y164999D02*
X417165D01*
X377345Y164099D02*
X417165D01*
X401808Y324299D02*
X417084D01*
X325286Y125399D02*
X417063D01*
X406864Y314399D02*
X417054D01*
X349335Y138899D02*
X417042D01*
X416867Y304499D02*
X417027D01*
X405766Y286499D02*
X417020D01*
X368972Y294599D02*
X417003D01*
X370511Y296399D02*
X416997D01*
X412212Y284699D02*
X416981D01*
X394794Y306299D02*
X416976D01*
X407194Y316199D02*
X416957D01*
X314264Y326099D02*
X416941D01*
X349062Y146999D02*
X416938D01*
X208164Y325199D02*
X416911D01*
X407082Y315299D02*
X416904D01*
X415999Y305399D02*
X416900D01*
X403813Y285599D02*
X416900D01*
X405642Y206399D02*
X416899D01*
X370024Y295499D02*
X416899D01*
X405784Y212699D02*
X416565D01*
X349716Y139799D02*
X416284D01*
X349784Y146099D02*
X416216D01*
X325074Y124499D02*
X416163D01*
X350215Y140699D02*
X415785D01*
X350259Y145199D02*
X415741D01*
X350525Y141599D02*
X415475D01*
X350550Y144299D02*
X415450D01*
X406493Y207299D02*
X415335D01*
X350678Y142499D02*
X415322D01*
X350686Y143399D02*
X415314D01*
X332994Y123599D02*
X415263D01*
X406569Y211799D02*
X415239D01*
X406960Y208199D02*
X414712D01*
X407001Y210899D02*
X414666D01*
X407180Y209099D02*
X414438D01*
X407193Y209999D02*
X414424D01*
X335166Y122699D02*
X414363D01*
X335840Y121799D02*
X413463D01*
X359764Y149699D02*
X413156D01*
X349001Y132599D02*
X413004D01*
X350661Y137999D02*
X413001D01*
X358878Y155099D02*
X412866D01*
X336145Y120899D02*
X412563D01*
X369556Y299999D02*
X412204D01*
X360439Y150599D02*
X412203D01*
X394725Y305399D02*
X412201D01*
X350565Y133499D02*
X412135D01*
X351234Y137099D02*
X412133D01*
X360047Y154199D02*
X412071D01*
X360745Y151499D02*
X411756D01*
X351188Y134399D02*
X411725D01*
X351476Y136199D02*
X411725D01*
X360575Y153299D02*
X411698D01*
X336186Y119999D02*
X411663D01*
X360786Y152399D02*
X411602D01*
X351462Y135299D02*
X411600D01*
X367645Y300899D02*
X411335D01*
X394385Y304499D02*
X411333D01*
X367686Y301799D02*
X410925D01*
X393653Y303599D02*
X410925D01*
X367475Y302699D02*
X410800D01*
X335974Y119099D02*
X410763D01*
X363912Y284699D02*
X410588D01*
X407028Y278399D02*
X410272D01*
X335445Y118199D02*
X409863D01*
X365468Y283799D02*
X409032D01*
X394359Y117299D02*
X408963D01*
X407200Y279299D02*
X408941D01*
X405529Y282899D02*
X408411D01*
X407168Y280199D02*
X408367D01*
X406433Y281999D02*
X408138D01*
X406928Y281099D02*
X408124D01*
X395776Y116399D02*
X408063D01*
X396718Y115499D02*
X407163D01*
X397400Y114599D02*
X406263D01*
X397899Y113699D02*
X405363D01*
X398254Y112799D02*
X404463D01*
X398484Y111899D02*
X403563D01*
X398601Y110999D02*
X402663D01*
X359099Y285599D02*
X402486D01*
X349940Y213599D02*
X402400D01*
X397061Y275699D02*
X402040D01*
X379194Y223499D02*
X401987D01*
X398610Y110099D02*
X401763D01*
X321639Y265799D02*
X401734D01*
X396894Y233399D02*
X401694D01*
X386345Y255899D02*
X401490D01*
X394264Y243299D02*
X401456D01*
X395286Y245999D02*
X401282D01*
X382887Y253199D02*
X401253D01*
X395756Y236099D02*
X401101D01*
X369866Y263099D02*
X401075D01*
X377477Y226199D02*
X400938D01*
X398377Y272999D02*
X400915D01*
X398513Y109199D02*
X400863D01*
X373675Y216299D02*
X400791D01*
X366089Y282899D02*
X400770D01*
X376745Y206399D02*
X400657D01*
X317247Y292799D02*
X400638D01*
X358149Y286499D02*
X400533D01*
X350245Y212699D02*
X400515D01*
X395735Y276599D02*
X400419D01*
X379125Y222599D02*
X400402D01*
X387128Y266699D02*
X400313D01*
X396711Y232499D02*
X400297D01*
X386386Y256799D02*
X400214D01*
X369244Y242399D02*
X400199D01*
X395075Y246899D02*
X400121D01*
X383225Y252299D02*
X400108D01*
X359801Y236999D02*
X400035D01*
X370540Y262199D02*
X400022D01*
X398303Y108299D02*
X399963D01*
X360226Y227099D02*
X399954D01*
X399426Y272099D02*
X399942D01*
X373800Y217199D02*
X399878D01*
X366362Y281999D02*
X399867D01*
X377274Y207299D02*
X399806D01*
X317775Y291899D02*
X399796D01*
X330640Y287399D02*
X399740D01*
X374294Y211799D02*
X399730D01*
X370540Y277499D02*
X399677D01*
X378785Y221699D02*
X399668D01*
X398953Y267599D02*
X399618D01*
X396224Y231599D02*
X399610D01*
X386175Y257699D02*
X399563D01*
X362297Y241499D02*
X399555D01*
X394547Y247799D02*
X399512D01*
X383294Y251399D02*
X399504D01*
X359899Y237899D02*
X399464D01*
X370845Y261299D02*
X399457D01*
X359177Y227999D02*
X399419D01*
X373675Y218099D02*
X399378D01*
X366376Y281099D02*
X399371D01*
X377486Y208199D02*
X399339D01*
X317986Y290999D02*
X399333D01*
X329966Y288299D02*
X399304D01*
X376466Y210899D02*
X399298D01*
X369866Y278399D02*
X399271D01*
X378053Y220799D02*
X399266D01*
X395172Y230699D02*
X399237D01*
X385647Y258599D02*
X399214D01*
X361344Y240599D02*
X399210D01*
X393378Y248699D02*
X399190D01*
X383111Y250499D02*
X399187D01*
X359745Y238799D02*
X399168D01*
X370886Y260399D02*
X399165D01*
X306302Y228899D02*
X399149D01*
X373267Y218999D02*
X399133D01*
X366133Y280199D02*
X399131D01*
X377445Y209099D02*
X399119D01*
X317945Y290099D02*
X399117D01*
X327794Y289199D02*
X399108D01*
X377140Y209999D02*
X399106D01*
X367694Y279299D02*
X399099D01*
X372399Y219899D02*
X399098D01*
X378653Y229799D02*
X399092D01*
X384478Y259499D02*
X399089D01*
X359299Y239699D02*
X399088D01*
X382624Y249599D02*
X399087D01*
X397972Y107399D02*
X399063D01*
X397501Y106499D02*
X398152D01*
X393077Y308999D02*
X397168D01*
X351112Y190199D02*
X397112D01*
X396856Y105599D02*
X397092D01*
X307199Y174899D02*
X396662D01*
X208247Y324299D02*
X396617D01*
X355525Y309899D02*
X395055D01*
X351294Y189299D02*
X395030D01*
X308131Y175799D02*
X394814D01*
X208078Y323399D02*
X394791D01*
X388459Y267599D02*
X394647D01*
X114705Y353099D02*
X393990D01*
X307325Y335099D02*
X393967D01*
X389033Y268499D02*
X393915D01*
X355594Y310799D02*
X393848D01*
X351225Y188399D02*
X393831D01*
X308928Y176699D02*
X393684D01*
X207611Y322499D02*
X393669D01*
X389276Y269399D02*
X393575D01*
X389262Y270299D02*
X393506D01*
X370845Y276599D02*
X393465D01*
X355412Y311699D02*
X392996D01*
X350885Y187499D02*
X392983D01*
X334196Y177599D02*
X392876D01*
X206611Y321599D02*
X392864D01*
X354926Y312599D02*
X392364D01*
X350153Y186599D02*
X392355D01*
X335065Y178499D02*
X392275D01*
X165214Y320699D02*
X392266D01*
X388989Y271199D02*
X392235D01*
X111793Y352199D02*
X392147D01*
X384677Y275699D02*
X392139D01*
X307394Y335999D02*
X392133D01*
X379385Y230699D02*
X392028D01*
X353877Y313499D02*
X391896D01*
X340899Y185699D02*
X391889D01*
X335475Y179399D02*
X391831D01*
X384977Y319799D02*
X391824D01*
X388368Y272099D02*
X391612D01*
X385726Y274799D02*
X391566D01*
X385553Y314399D02*
X391561D01*
X341345Y184799D02*
X391557D01*
X335600Y180299D02*
X391517D01*
X386026Y318899D02*
X391512D01*
X359428Y236099D02*
X391444D01*
X386285Y315299D02*
X391343D01*
X341499Y183899D02*
X391340D01*
X386812Y272999D02*
X391338D01*
X386212Y273899D02*
X391324D01*
X340231Y181199D02*
X391317D01*
X386512Y317999D02*
X391314D01*
X386625Y316199D02*
X391231D01*
X341401Y182999D02*
X391230D01*
X341028Y182099D02*
X391222D01*
X386694Y317099D02*
X391222D01*
X379725Y231599D02*
X390976D01*
X113130Y351299D02*
X390938D01*
X307212Y336899D02*
X390929D01*
X378077Y235199D02*
X390713D01*
X381572Y248699D02*
X390622D01*
X379794Y232499D02*
X390489D01*
X379126Y234299D02*
X390375D01*
X379612Y233399D02*
X390306D01*
X308222Y102899D02*
X390277D01*
X115854Y350399D02*
X390039D01*
X306726Y337799D02*
X390031D01*
X355185Y308999D02*
X389923D01*
X380296Y243299D02*
X389736D01*
X381167Y247799D02*
X389453D01*
X366947Y303599D02*
X389347D01*
X117136Y349499D02*
X389341D01*
X305677Y338699D02*
X389335D01*
X381165Y244199D02*
X389061D01*
X381575Y246899D02*
X388925D01*
X354453Y308099D02*
X388874D01*
X118014Y348599D02*
X388796D01*
X320453Y339599D02*
X388791D01*
X381575Y245099D02*
X388755D01*
X381700Y245999D02*
X388714D01*
X365778Y304499D02*
X388615D01*
X357712Y307199D02*
X388388D01*
X118653Y347699D02*
X388374D01*
X321185Y340499D02*
X388371D01*
X359889Y305399D02*
X388275D01*
X359268Y306299D02*
X388206D01*
X255712Y346799D02*
X388060D01*
X321525Y341399D02*
X388057D01*
X257268Y345899D02*
X387842D01*
X321594Y342299D02*
X387840D01*
X319877Y344999D02*
X387713D01*
X321412Y343199D02*
X387712D01*
X320926Y344099D02*
X387670D01*
X334272Y117299D02*
X387668D01*
X309965Y103799D02*
X387359D01*
X315245Y327899D02*
X386399D01*
X370346Y116399D02*
X386252D01*
X323146Y334199D02*
X386065D01*
X311134Y104699D02*
X386059D01*
X354275Y200099D02*
X385828D01*
X371987Y115499D02*
X385309D01*
X375572Y205499D02*
X385244D01*
X312009Y105599D02*
X385172D01*
X381528Y266699D02*
X384872D01*
X322711Y328799D02*
X384835D01*
X356231Y200999D02*
X384776D01*
X323909Y333299D02*
X384739D01*
X372796Y114599D02*
X384627D01*
X312689Y106499D02*
X384526D01*
X368385Y204599D02*
X384513D01*
X357028Y201899D02*
X384289D01*
X323711Y329699D02*
X384212D01*
X367653Y203699D02*
X384175D01*
X324264Y332399D02*
X384166D01*
X373275Y113699D02*
X384128D01*
X357401Y202799D02*
X384106D01*
X313221Y107399D02*
X384055D01*
X324178Y330599D02*
X383938D01*
X324347Y331499D02*
X383924D01*
X373530Y112799D02*
X383774D01*
X371731Y108299D02*
X383724D01*
X373599Y111899D02*
X383544D01*
X382859Y267599D02*
X383541D01*
X372649Y109199D02*
X383515D01*
X373490Y110999D02*
X383427D01*
X373189Y110099D02*
X383417D01*
X165656Y319799D02*
X381823D01*
X370674Y259499D02*
X381722D01*
X370886Y275699D02*
X381523D01*
X332277Y314399D02*
X381247D01*
X165968Y318899D02*
X380774D01*
X380377Y258599D02*
X380553D01*
X295067Y315299D02*
X380515D01*
X370674Y274799D02*
X380474D01*
X166166Y317999D02*
X380288D01*
X294199Y316199D02*
X380175D01*
X166259Y317099D02*
X380106D01*
X370145Y273899D02*
X379988D01*
X368972Y272999D02*
X379588D01*
X321945Y266699D02*
X379272D01*
X289966Y272099D02*
X378032D01*
X321986Y267599D02*
X377941D01*
X290640Y271199D02*
X377411D01*
X371162Y249599D02*
X377376D01*
X321775Y268499D02*
X377367D01*
X370145Y258599D02*
X377223D01*
X320078Y270299D02*
X377138D01*
X321247Y269399D02*
X377124D01*
X371176Y250499D02*
X376889D01*
X370361Y252299D02*
X376775D01*
X370934Y251399D02*
X376706D01*
X370685Y253199D02*
X376647D01*
X370197Y243299D02*
X376504D01*
X370888Y248699D02*
X376501D01*
X369377Y257699D02*
X376174D01*
X371025Y254099D02*
X375915D01*
X370426Y256799D02*
X375688D01*
X370644Y244199D02*
X375635D01*
X370265Y247799D02*
X375633D01*
X371094Y254999D02*
X375575D01*
X370912Y255899D02*
X375506D01*
X370798Y245099D02*
X375225D01*
X370329Y246899D02*
X375225D01*
X370702Y245999D02*
X375100D01*
X358631Y235199D02*
X374923D01*
X305929Y229799D02*
X374347D01*
X360712Y226199D02*
X374323D01*
X350286Y211799D02*
X374106D01*
X275894Y166799D02*
X374006D01*
X346774Y234299D02*
X373874D01*
X356301Y220799D02*
X373747D01*
X305134Y230699D02*
X373615D01*
X346245Y233399D02*
X373388D01*
X243159Y231599D02*
X373275D01*
X360894Y225299D02*
X373274D01*
X345072Y232499D02*
X373206D01*
X356399Y221699D02*
X373015D01*
X368725Y205499D02*
X372828D01*
X360825Y224399D02*
X372788D01*
X357959Y160499D02*
X372728D01*
X359753Y222599D02*
X372675D01*
X360485Y223499D02*
X372606D01*
X350074Y210899D02*
X371934D01*
X356312Y165899D02*
X371834D01*
X368794Y206399D02*
X371655D01*
X358533Y161399D02*
X371555D01*
X349545Y209999D02*
X371260D01*
X357868Y164999D02*
X371160D01*
X368612Y207299D02*
X371126D01*
X358776Y162299D02*
X371026D01*
X367077Y209099D02*
X370955D01*
X368126Y208199D02*
X370914D01*
X358489Y164099D02*
X370855D01*
X358762Y163199D02*
X370814D01*
X349266Y214499D02*
X368604D01*
X355928Y219899D02*
X368601D01*
X347094Y215399D02*
X367735D01*
X355131Y218999D02*
X367733D01*
X360346Y116399D02*
X367654D01*
X365559Y279299D02*
X367506D01*
X322240Y263999D02*
X367506D01*
X347801Y216299D02*
X367325D01*
X349988Y218099D02*
X367325D01*
X349365Y217199D02*
X367200D01*
X361731Y108299D02*
X366269D01*
X355772Y272999D02*
X366228D01*
X319499Y257699D02*
X366223D01*
X361987Y115499D02*
X366013D01*
X341865Y294599D02*
X365828D01*
X362744Y242399D02*
X365756D01*
X342633Y247799D02*
X365466D01*
X363424Y252299D02*
X365439D01*
X362649Y109199D02*
X365351D01*
X364228Y278399D02*
X365334D01*
X322545Y263099D02*
X365334D01*
X362796Y114599D02*
X365204D01*
X362956Y256799D02*
X365174D01*
X356945Y273899D02*
X365055D01*
X298672Y258599D02*
X365055D01*
X363911Y253199D02*
X364915D01*
X342876Y248699D02*
X364912D01*
X362372Y251399D02*
X364866D01*
X363189Y110099D02*
X364811D01*
X362898Y243299D02*
X364803D01*
X363553Y295499D02*
X364776D01*
X363275Y113699D02*
X364725D01*
X363687Y255899D02*
X364688D01*
X353077Y246899D02*
X364671D01*
X357340Y277499D02*
X364660D01*
X322586Y262199D02*
X364660D01*
X342862Y249599D02*
X364638D01*
X342589Y250499D02*
X364624D01*
X364094Y254099D02*
X364575D01*
X357474Y274799D02*
X364526D01*
X320672Y259499D02*
X364526D01*
X363490Y110999D02*
X364510D01*
X364025Y254999D02*
X364506D01*
X363530Y112799D02*
X364470D01*
X363599Y111899D02*
X364401D01*
X362802Y244199D02*
X364356D01*
X357645Y276599D02*
X364355D01*
X322374Y261299D02*
X364355D01*
X357686Y275699D02*
X364314D01*
X321845Y260399D02*
X364314D01*
X361634Y245999D02*
X364298D01*
X364285Y296399D02*
X364289D01*
X362429Y245099D02*
X364202D01*
X348372Y209099D02*
X363923D01*
X357499Y203699D02*
X363347D01*
X360162Y304499D02*
X363022D01*
X343099Y208199D02*
X362874D01*
X357345Y204599D02*
X362615D01*
X343001Y207299D02*
X362388D01*
X359545Y284699D02*
X362288D01*
X356899Y205499D02*
X362275D01*
X355949Y206399D02*
X362206D01*
X356666Y278399D02*
X361972D01*
X360176Y303599D02*
X361853D01*
X359933Y302699D02*
X361325D01*
X360667Y301799D02*
X361114D01*
X359699Y283799D02*
X360732D01*
X354494Y279299D02*
X360641D01*
X359601Y282899D02*
X360111D01*
X343299Y280199D02*
X360067D01*
X359228Y281999D02*
X359838D01*
X358431Y281099D02*
X359824D01*
X342488Y295499D02*
X359247D01*
X341968Y251399D02*
X359228D01*
X340135Y256799D02*
X358644D01*
X342762Y296399D02*
X358515D01*
X341988Y252299D02*
X358176D01*
X341461Y255899D02*
X357913D01*
X342262Y253199D02*
X357689D01*
X350346Y116399D02*
X357654D01*
X342034Y254999D02*
X357575D01*
X354126Y245999D02*
X357566D01*
X342276Y254099D02*
X357506D01*
X353653Y241499D02*
X356903D01*
X354612Y245099D02*
X356771D01*
X354385Y242399D02*
X356456D01*
X354794Y244199D02*
X356398D01*
X354725Y243299D02*
X356302D01*
X351731Y108299D02*
X356269D01*
X348744Y155099D02*
X356122D01*
X347077Y307199D02*
X356088D01*
X347477Y227999D02*
X356023D01*
X351987Y115499D02*
X356013D01*
X342776Y297299D02*
X356004D01*
X352649Y109199D02*
X355351D01*
X212625Y149699D02*
X355236D01*
X352796Y114599D02*
X355204D01*
X342534Y298199D02*
X355135D01*
X351377Y227099D02*
X354974D01*
X348297Y154199D02*
X354953D01*
X353534Y240599D02*
X354851D01*
X353189Y110099D02*
X354811D01*
X341961Y299099D02*
X354725D01*
X353275Y113699D02*
X354725D01*
X310375Y300899D02*
X354725D01*
X278066Y165899D02*
X354688D01*
X330945Y286499D02*
X354651D01*
X340635Y299999D02*
X354600D01*
X353244Y235199D02*
X354569D01*
X337564Y150599D02*
X354561D01*
X348126Y306299D02*
X354532D01*
X353490Y110999D02*
X354510D01*
X352426Y226199D02*
X354488D01*
X353530Y112799D02*
X354470D01*
X347653Y301799D02*
X354441D01*
X347344Y153299D02*
X354425D01*
X353599Y111899D02*
X354401D01*
X288386Y159599D02*
X354372D01*
X343145Y281099D02*
X354369D01*
X350494Y279299D02*
X354306D01*
X352912Y225299D02*
X354306D01*
X338239Y151499D02*
X354255D01*
X338545Y152399D02*
X354214D01*
X348612Y305399D02*
X353911D01*
X348385Y302699D02*
X353867D01*
X330986Y285599D02*
X353701D01*
X348794Y304499D02*
X353638D01*
X348725Y303599D02*
X353624D01*
X342699Y281999D02*
X353572D01*
X330774Y284699D02*
X353255D01*
X341749Y282899D02*
X353199D01*
X278740Y164999D02*
X353132D01*
X330245Y283799D02*
X353101D01*
X288175Y160499D02*
X353041D01*
X351772Y272999D02*
X353028D01*
X279045Y164099D02*
X352511D01*
X287647Y161399D02*
X352467D01*
X342628Y206399D02*
X352451D01*
X279086Y163199D02*
X352238D01*
X286478Y162299D02*
X352224D01*
X341831Y205499D02*
X351501D01*
X350262Y218999D02*
X351069D01*
X301444Y204599D02*
X351055D01*
X322287Y202799D02*
X350999D01*
X321556Y203699D02*
X350901D01*
X333326Y313499D02*
X350723D01*
X343201Y279299D02*
X350306D01*
X257849Y308099D02*
X350147D01*
X342059Y246899D02*
X349923D01*
X346986Y235199D02*
X349756D01*
X333812Y312599D02*
X349674D01*
X332745Y240599D02*
X349466D01*
X332853Y308999D02*
X349415D01*
X332299Y241499D02*
X349347D01*
X322929Y196499D02*
X349204D01*
X322625Y201899D02*
X349201D01*
X333994Y311699D02*
X349188D01*
X333585Y309899D02*
X349075D01*
X341272Y272999D02*
X349028D01*
X333925Y310799D02*
X349006D01*
X340728Y245999D02*
X348874D01*
X346945Y236099D02*
X348803D01*
X332899Y239699D02*
X348671D01*
X331349Y242399D02*
X348615D01*
X303775Y245099D02*
X348388D01*
X346640Y236999D02*
X348356D01*
X322134Y197399D02*
X348335D01*
X322694Y200999D02*
X348333D01*
X343794Y238799D02*
X348298D01*
X303945Y243299D02*
X348275D01*
X303986Y244199D02*
X348206D01*
X345966Y237899D02*
X348202D01*
X342828Y278399D02*
X348134D01*
X320972Y198299D02*
X347925D01*
X322511Y200099D02*
X347925D01*
X342445Y273899D02*
X347855D01*
X322024Y199199D02*
X347800D01*
X340346Y116399D02*
X347654D01*
X342840Y277499D02*
X347460D01*
X345587Y132599D02*
X347399D01*
X342974Y274799D02*
X347326D01*
X343145Y276599D02*
X347155D01*
X343186Y275699D02*
X347114D01*
X308794Y215399D02*
X346906D01*
X323189Y191999D02*
X346423D01*
X341731Y108299D02*
X346269D01*
X286645Y216299D02*
X346199D01*
X341987Y115499D02*
X346013D01*
X339949Y186599D02*
X345847D01*
X344856Y133499D02*
X345835D01*
X342945Y209099D02*
X345628D01*
X323462Y191099D02*
X345374D01*
X342649Y109199D02*
X345351D01*
X339185Y134399D02*
X345212D01*
X342796Y114599D02*
X345204D01*
X339412Y137099D02*
X345166D01*
X323475Y187499D02*
X345115D01*
X339525Y135299D02*
X344938D01*
X339594Y136199D02*
X344924D01*
X323476Y190199D02*
X344888D01*
X343189Y110099D02*
X344811D01*
X323067Y188399D02*
X344775D01*
X310966Y214499D02*
X344734D01*
X343275Y113699D02*
X344725D01*
X323233Y189299D02*
X344706D01*
X287174Y217199D02*
X344635D01*
X326264Y221699D02*
X344539D01*
X343490Y110999D02*
X344510D01*
X343530Y112799D02*
X344470D01*
X342499Y209999D02*
X344455D01*
X343599Y111899D02*
X344401D01*
X306398Y227999D02*
X344323D01*
X311640Y213599D02*
X344060D01*
X287386Y218099D02*
X344012D01*
X286366Y220799D02*
X343966D01*
X341549Y210899D02*
X343926D01*
X258799Y307199D02*
X343923D01*
X338586Y153299D02*
X343856D01*
X311945Y212699D02*
X343755D01*
X326939Y222599D02*
X343747D01*
X287345Y218999D02*
X343738D01*
X287040Y219899D02*
X343724D01*
X311986Y211799D02*
X343714D01*
X340578Y238799D02*
X343606D01*
X288345Y158699D02*
X343566D01*
X309847Y301799D02*
X343347D01*
X325378Y227099D02*
X343274D01*
X327245Y223499D02*
X343015D01*
X338375Y154199D02*
X342903D01*
X259245Y306299D02*
X342874D01*
X326547Y226199D02*
X342788D01*
X288039Y157799D02*
X342771D01*
X327286Y224399D02*
X342675D01*
X308678Y302699D02*
X342615D01*
X327075Y225299D02*
X342606D01*
X337847Y155099D02*
X342456D01*
X287364Y156899D02*
X342398D01*
X259399Y305399D02*
X342388D01*
X325785Y232499D02*
X342328D01*
X336678Y155999D02*
X342302D01*
X258928Y303599D02*
X342275D01*
X338926Y137999D02*
X342266D01*
X259301Y304499D02*
X342206D01*
X211553Y147899D02*
X342086D01*
X324266Y128099D02*
X341128D01*
X337877Y138899D02*
X341042D01*
X308678Y146999D02*
X340938D01*
X338453Y133499D02*
X340544D01*
X278788Y139799D02*
X340284D01*
X309847Y146099D02*
X340216D01*
X324731Y128999D02*
X340076D01*
X325845Y132599D02*
X339813D01*
X279062Y140699D02*
X339785D01*
X310375Y145199D02*
X339741D01*
X325528Y129899D02*
X339589D01*
X309564Y141599D02*
X339475D01*
X325999Y131699D02*
X339475D01*
X310586Y144299D02*
X339450D01*
X325901Y130799D02*
X339406D01*
X310239Y142499D02*
X339322D01*
X310545Y143399D02*
X339314D01*
X316078Y293699D02*
X338699D01*
X308753Y272999D02*
X338528D01*
X331528Y245999D02*
X338472D01*
X310586Y299999D02*
X338365D01*
X329072Y282899D02*
X338251D01*
X311774Y210899D02*
X338051D01*
X331635Y256799D02*
X337865D01*
X332801Y238799D02*
X337822D01*
X305172Y205499D02*
X337769D01*
X330346Y116399D02*
X337654D01*
X309485Y273899D02*
X337355D01*
X328356Y281999D02*
X337301D01*
X329311Y278399D02*
X337172D01*
X332859Y246899D02*
X337141D01*
X307574Y294599D02*
X337135D01*
X311245Y209999D02*
X337101D01*
X310545Y299099D02*
X337039D01*
X306345Y206399D02*
X336972D01*
X328824Y277499D02*
X336960D01*
X327349Y233399D02*
X336936D01*
X329087Y281099D02*
X336855D01*
X322672Y274799D02*
X336826D01*
X329494Y279299D02*
X336799D01*
X329425Y280199D02*
X336701D01*
X327772Y276599D02*
X336655D01*
X310072Y209099D02*
X336655D01*
X332428Y237899D02*
X336653D01*
X332865Y251399D02*
X336635D01*
X323724Y275699D02*
X336614D01*
X333389Y250499D02*
X336611D01*
X306874Y207299D02*
X336599D01*
X333433Y247799D02*
X336567D01*
X332961Y255899D02*
X336539D01*
X307786Y295499D02*
X336512D01*
X307086Y208199D02*
X336501D01*
X310239Y298199D02*
X336466D01*
X323600Y186599D02*
X336451D01*
X333662Y249599D02*
X336338D01*
X333676Y248699D02*
X336324D01*
X331731Y108299D02*
X336269D01*
X327971Y234299D02*
X336261D01*
X307745Y296399D02*
X336238D01*
X309564Y297299D02*
X336224D01*
X335475Y181199D02*
X336169D01*
X331631Y236999D02*
X336125D01*
X331987Y115499D02*
X336013D01*
X333488Y252299D02*
X336012D01*
X333534Y254999D02*
X335966D01*
X328245Y235199D02*
X335955D01*
X328259Y236099D02*
X335914D01*
X333762Y253199D02*
X335738D01*
X333776Y254099D02*
X335724D01*
X323475Y185699D02*
X335501D01*
X335067Y182099D02*
X335372D01*
X332649Y109199D02*
X335351D01*
X332796Y114599D02*
X335204D01*
X323065Y184799D02*
X335055D01*
X334199Y182999D02*
X334999D01*
X322196Y183899D02*
X334901D01*
X333189Y110099D02*
X334811D01*
X333275Y113699D02*
X334725D01*
X302149Y138899D02*
X334723D01*
X333490Y110999D02*
X334510D01*
X333530Y112799D02*
X334470D01*
X333599Y111899D02*
X334401D01*
X325399Y133499D02*
X334147D01*
X287389Y155999D02*
X333922D01*
X303099Y137999D02*
X333674D01*
X324449Y134399D02*
X333415D01*
X303545Y137099D02*
X333188D01*
X303601Y135299D02*
X333075D01*
X212694Y150599D02*
X333036D01*
X303699Y136199D02*
X333006D01*
X324545Y123599D02*
X332806D01*
X287662Y155099D02*
X332753D01*
X285528Y151499D02*
X332361D01*
X287676Y154199D02*
X332225D01*
X286859Y152399D02*
X332055D01*
X287433Y153299D02*
X332014D01*
X312570Y117299D02*
X331528D01*
X307799Y173099D02*
X330722D01*
X323372Y122699D02*
X330634D01*
X309301Y177599D02*
X330404D01*
X312375Y182999D02*
X330401D01*
X311856Y118199D02*
X330355D01*
X279556Y121799D02*
X329960D01*
X243453Y167699D02*
X329836D01*
X310933Y119099D02*
X329826D01*
X307737Y120899D02*
X329655D01*
X309687Y119999D02*
X329614D01*
X307701Y172199D02*
X329553D01*
X309399Y178499D02*
X329535D01*
X311965Y182099D02*
X329533D01*
X320367Y256799D02*
X329365D01*
X303247Y245999D02*
X329272D01*
X244185Y168599D02*
X329161D01*
X309245Y179399D02*
X329125D01*
X311096Y181199D02*
X329125D01*
X317878Y314399D02*
X329123D01*
X307328Y171299D02*
X329025D01*
X308799Y180299D02*
X329000D01*
X248653Y169499D02*
X328855D01*
X306531Y170399D02*
X328814D01*
X318764Y308999D02*
X328547D01*
X319047Y313499D02*
X328074D01*
X320775Y255899D02*
X328039D01*
X306572Y251399D02*
X328032D01*
X302078Y246899D02*
X327941D01*
X303639Y242399D02*
X327851D01*
X319439Y309899D02*
X327815D01*
X313128Y116399D02*
X327654D01*
X317639Y289199D02*
X327606D01*
X319575Y312599D02*
X327588D01*
X319496Y252299D02*
X327512D01*
X319745Y310799D02*
X327475D01*
X320900Y254999D02*
X327466D01*
X290844Y250499D02*
X327411D01*
X319786Y311699D02*
X327406D01*
X287429Y247799D02*
X327367D01*
X320365Y253199D02*
X327238D01*
X320775Y254099D02*
X327224D01*
X255239Y249599D02*
X327138D01*
X286634Y248699D02*
X327124D01*
X302964Y241499D02*
X326901D01*
X256812Y240599D02*
X326455D01*
X326118Y238799D02*
X326399D01*
X256994Y239699D02*
X326301D01*
X313631Y108299D02*
X326269D01*
X313560Y115499D02*
X326013D01*
X316964Y288299D02*
X325434D01*
X313935Y109199D02*
X325351D01*
X313884Y114599D02*
X325204D01*
X314144Y110099D02*
X324811D01*
X284856Y287399D02*
X324760D01*
X314111Y113699D02*
X324725D01*
X324211Y276599D02*
X324628D01*
X314264Y110999D02*
X324510D01*
X314247Y112799D02*
X324470D01*
X285587Y286499D02*
X324455D01*
X314298Y111899D02*
X324401D01*
X243733Y232499D02*
X324182D01*
X256925Y238799D02*
X323848D01*
X321278Y227099D02*
X322622D01*
X243976Y233399D02*
X322618D01*
X256585Y237899D02*
X322523D01*
X299234Y285599D02*
X322244D01*
X243962Y234299D02*
X321996D01*
X255853Y236999D02*
X321950D01*
X321025Y281099D02*
X321776D01*
X243689Y235199D02*
X321722D01*
X243068Y236099D02*
X321708D01*
X300029Y284699D02*
X321513D01*
X320687Y281999D02*
X321289D01*
X300402Y283799D02*
X321175D01*
X319956Y282899D02*
X321106D01*
X303228Y134399D02*
X320951D01*
X303474Y128999D02*
X320669D01*
X280112Y122699D02*
X320628D01*
X302431Y133499D02*
X320001D01*
X303686Y129899D02*
X319872D01*
X302945Y128099D02*
X319734D01*
X302666Y132599D02*
X319555D01*
X309825Y274799D02*
X319528D01*
X303645Y130799D02*
X319499D01*
X280349Y123599D02*
X319455D01*
X303340Y131699D02*
X319401D01*
X315286Y328799D02*
X319389D01*
X301772Y127199D02*
X319060D01*
X306985Y334199D02*
X318954D01*
X280336Y124499D02*
X318926D01*
X282059Y126299D02*
X318755D01*
X280728Y125399D02*
X318714D01*
X306244Y227099D02*
X318522D01*
X309894Y275699D02*
X318476D01*
X312500Y183899D02*
X318404D01*
X315075Y329699D02*
X318389D01*
X306253Y333299D02*
X318191D01*
X224712Y197399D02*
X318066D01*
X309712Y276599D02*
X317989D01*
X299845Y259499D02*
X317928D01*
X314547Y330599D02*
X317922D01*
X219156Y332399D02*
X317836D01*
X224226Y198299D02*
X317828D01*
X313378Y331499D02*
X317753D01*
X284194Y221699D02*
X317636D01*
X312375Y184799D02*
X317535D01*
X316586Y188399D02*
X317533D01*
X179275Y192899D02*
X317403D01*
X305797Y226199D02*
X317353D01*
X290945Y270299D02*
X317322D01*
X224894Y196499D02*
X317271D01*
X277112Y203699D02*
X317244D01*
X179486Y191999D02*
X317211D01*
X316375Y189299D02*
X317167D01*
X315564Y185699D02*
X317125D01*
X316545Y187499D02*
X317125D01*
X316239Y186599D02*
X317000D01*
X270844Y222599D02*
X316961D01*
X223753Y193799D02*
X316956D01*
X314678Y191099D02*
X316938D01*
X315847Y190199D02*
X316924D01*
X224825Y195599D02*
X316898D01*
X304844Y225299D02*
X316825D01*
X224485Y194699D02*
X316802D01*
X223177Y199199D02*
X316776D01*
X302201Y260399D02*
X316755D01*
X257889Y344999D02*
X316723D01*
X271797Y223499D02*
X316655D01*
X272244Y224399D02*
X316614D01*
X277294Y202799D02*
X316513D01*
X307765Y264899D02*
X316436D01*
X306896Y263999D02*
X316360D01*
X276153Y200099D02*
X316289D01*
X309226Y277499D02*
X316228D01*
X303765Y261299D02*
X316226D01*
X277225Y201899D02*
X316175D01*
X306899Y269399D02*
X316153D01*
X175175Y339599D02*
X316147D01*
X276885Y200999D02*
X316106D01*
X304662Y263099D02*
X316055D01*
X304388Y262199D02*
X316014D01*
X308175Y265799D02*
X315761D01*
X307624Y252299D02*
X315704D01*
X216300Y257699D02*
X315701D01*
X258162Y344099D02*
X315674D01*
X300498Y282899D02*
X315644D01*
X307767Y268499D02*
X315625D01*
X308300Y266699D02*
X315455D01*
X256028Y340499D02*
X315415D01*
X308175Y267599D02*
X315414D01*
X258176Y343199D02*
X315188D01*
X308177Y278399D02*
X315176D01*
X295475Y314399D02*
X315122D01*
X257359Y341399D02*
X315075D01*
X257933Y342299D02*
X315006D01*
X300344Y281999D02*
X314913D01*
X308111Y253199D02*
X314835D01*
X307156Y256799D02*
X314833D01*
X276972Y279299D02*
X314689D01*
X299897Y281099D02*
X314575D01*
X298944Y280199D02*
X314506D01*
X308294Y254099D02*
X314425D01*
X307887Y255899D02*
X314425D01*
X308225Y254999D02*
X314300D01*
X250135Y308999D02*
X314236D01*
X295600Y313499D02*
X313953D01*
X212233Y309899D02*
X313561D01*
X295475Y312599D02*
X313425D01*
X307045Y293699D02*
X313322D01*
X294196Y310799D02*
X313255D01*
X295065Y311699D02*
X313214D01*
X296072Y288299D02*
X312436D01*
X305872Y292799D02*
X312153D01*
X179445Y191099D02*
X311922D01*
X297245Y289199D02*
X311761D01*
X297945Y291899D02*
X311625D01*
X297774Y290099D02*
X311455D01*
X297986Y290999D02*
X311414D01*
X179139Y190199D02*
X310753D01*
X219887Y331499D02*
X310622D01*
X288178Y189299D02*
X310225D01*
X289875Y187499D02*
X310055D01*
X289347Y188399D02*
X310014D01*
X207809Y326099D02*
X309736D01*
X220225Y330599D02*
X309453D01*
X218572Y326999D02*
X309061D01*
X220294Y329699D02*
X308925D01*
X219624Y327899D02*
X308755D01*
X220111Y328799D02*
X308714D01*
X285472Y215399D02*
X308606D01*
X307045Y209099D02*
X307328D01*
X290086Y186599D02*
X307301D01*
X285289Y182099D02*
X306435D01*
X239324Y214499D02*
X306434D01*
X290045Y185699D02*
X306433D01*
X284668Y182999D02*
X306025D01*
X289739Y184799D02*
X306025D01*
X294756Y302699D02*
X305922D01*
X148578Y146999D02*
X305922D01*
X289064Y183899D02*
X305900D01*
X238272Y213599D02*
X305760D01*
X223335Y212699D02*
X305455D01*
X303894Y211799D02*
X305414D01*
X279076Y141599D02*
X305036D01*
X275012Y278399D02*
X305023D01*
X295487Y301799D02*
X304753D01*
X149747Y146099D02*
X304753D01*
X287794Y272999D02*
X304447D01*
X278834Y142499D02*
X304361D01*
X285562Y181199D02*
X304351D01*
X295825Y300899D02*
X304225D01*
X150275Y145199D02*
X304225D01*
X295711Y299099D02*
X304055D01*
X278261Y143399D02*
X304055D01*
X295894Y299999D02*
X304014D01*
X276935Y144299D02*
X304014D01*
X275194Y277499D02*
X303974D01*
X263312Y273899D02*
X303715D01*
X224661Y211799D02*
X303706D01*
X275125Y276599D02*
X303488D01*
X291797Y251399D02*
X303428D01*
X285576Y180299D02*
X303401D01*
X274053Y274799D02*
X303375D01*
X274785Y275699D02*
X303306D01*
X293275Y176699D02*
X303272D01*
X297640Y292799D02*
X303128D01*
X290986Y269399D02*
X303101D01*
X290346Y179399D02*
X302955D01*
X292796Y177599D02*
X302899D01*
X216175Y256799D02*
X302844D01*
X291987Y178499D02*
X302801D01*
X293530Y175799D02*
X302751D01*
X175300Y338699D02*
X302523D01*
X249385Y170399D02*
X302469D01*
X302397Y205499D02*
X302428D01*
X292244Y252299D02*
X302376D01*
X295224Y298199D02*
X302234D01*
X290774Y268499D02*
X302233D01*
X291134Y255899D02*
X302113D01*
X296966Y293699D02*
X301955D01*
X203225Y333299D02*
X301947D01*
X292398Y253199D02*
X301889D01*
X290245Y267599D02*
X301825D01*
X293599Y174899D02*
X301801D01*
X291929Y254999D02*
X301775D01*
X278327Y120899D02*
X301712D01*
X292302Y254099D02*
X301706D01*
X291731Y171299D02*
X301672D01*
X294172Y297299D02*
X301560D01*
X284835Y210899D02*
X301534D01*
X175175Y337799D02*
X301474D01*
X294794Y294599D02*
X301426D01*
X272398Y225299D02*
X301356D01*
X293490Y173999D02*
X301355D01*
X292649Y172199D02*
X301299D01*
X276831Y296399D02*
X301255D01*
X166095Y102899D02*
X301227D01*
X203294Y334199D02*
X301215D01*
X270099Y295499D02*
X301214D01*
X293189Y173099D02*
X301201D01*
X241828Y230699D02*
X301066D01*
X201577Y336899D02*
X300988D01*
X203112Y335099D02*
X300875D01*
X202626Y335999D02*
X300806D01*
X300374Y260399D02*
X300599D01*
X272302Y226199D02*
X300403D01*
X229045Y229799D02*
X300271D01*
X289072Y266699D02*
X300265D01*
X271929Y227099D02*
X299956D01*
X228739Y228899D02*
X299898D01*
X271134Y227999D02*
X299802D01*
X256375Y119999D02*
X299762D01*
X167609Y103799D02*
X299484D01*
X287802Y246899D02*
X299322D01*
X282633Y127199D02*
X299028D01*
X287711Y265799D02*
X298939D01*
X291441Y138899D02*
X298651D01*
X255965Y119099D02*
X298515D01*
X256326Y241499D02*
X298436D01*
X293348Y133499D02*
X298369D01*
X297394Y264899D02*
X298366D01*
X168594Y104699D02*
X298315D01*
X287898Y245999D02*
X298153D01*
X292924Y132599D02*
X298134D01*
X284501Y204599D02*
X297956D01*
X282876Y128099D02*
X297855D01*
X255277Y242399D02*
X297761D01*
X292488Y137999D02*
X297701D01*
X286161Y209999D02*
X297666D01*
X287744Y245099D02*
X297625D01*
X255096Y118199D02*
X297593D01*
X293561Y134399D02*
X297572D01*
X292203Y131699D02*
X297460D01*
X286344Y243299D02*
X297455D01*
X169304Y105599D02*
X297440D01*
X287297Y244199D02*
X297414D01*
X282862Y128999D02*
X297326D01*
X293093Y137099D02*
X297255D01*
X287224Y264899D02*
X297206D01*
X293590Y135299D02*
X297199D01*
X290873Y130799D02*
X297155D01*
X282589Y129899D02*
X297114D01*
X293441Y136199D02*
X297101D01*
X286065Y205499D02*
X297003D01*
X252344Y117299D02*
X296879D01*
X286734Y209099D02*
X296871D01*
X169823Y106499D02*
X296759D01*
X286688Y206399D02*
X296556D01*
X286976Y208199D02*
X296498D01*
X286962Y207299D02*
X296402D01*
X251897Y116399D02*
X296321D01*
X279148Y107399D02*
X296228D01*
X216175Y258599D02*
X295928D01*
X250944Y115499D02*
X295889D01*
X279913Y108299D02*
X295818D01*
X232245Y114599D02*
X295565D01*
X280277Y109199D02*
X295514D01*
X278145Y280199D02*
X295456D01*
X231939Y113699D02*
X295338D01*
X280372Y110099D02*
X295305D01*
X278883Y112799D02*
X295201D01*
X280222Y110999D02*
X295185D01*
X285925Y285599D02*
X295166D01*
X279788Y111899D02*
X295151D01*
X286172Y263999D02*
X295034D01*
X215767Y259499D02*
X294755D01*
X270967Y294599D02*
X294606D01*
X278674Y281099D02*
X294503D01*
X285994Y284699D02*
X294371D01*
X203728Y263099D02*
X294360D01*
X214899Y260399D02*
X294226D01*
X284272Y281999D02*
X294056D01*
X102500Y262199D02*
X294055D01*
X171694Y261299D02*
X294014D01*
X285811Y283799D02*
X293998D01*
X285324Y282899D02*
X293902D01*
X184499Y288299D02*
X293328D01*
X271375Y293699D02*
X292434D01*
X184345Y289199D02*
X292155D01*
X271500Y292799D02*
X291760D01*
X270096Y290099D02*
X291626D01*
X271375Y291899D02*
X291455D01*
X270965Y290999D02*
X291414D01*
X290531Y297299D02*
X291028D01*
X290249Y302699D02*
X290444D01*
X212476Y310799D02*
X290404D01*
X166249Y316199D02*
X290401D01*
X212462Y311699D02*
X289535D01*
X166137Y315299D02*
X289533D01*
X212189Y312599D02*
X289125D01*
X210012Y314399D02*
X289125D01*
X211568Y313499D02*
X289000D01*
X285333Y179399D02*
X287654D01*
X264868Y272999D02*
X287606D01*
X255545Y250499D02*
X287356D01*
X281968Y130799D02*
X287127D01*
X215765Y255899D02*
X287066D01*
X258761Y302699D02*
X286751D01*
X278165Y138899D02*
X286559D01*
X277628Y297299D02*
X286469D01*
X255586Y251399D02*
X286403D01*
X214896Y254999D02*
X286271D01*
X249725Y171299D02*
X286269D01*
X284759Y178499D02*
X286013D01*
X255375Y252299D02*
X285956D01*
X253678Y254099D02*
X285898D01*
X254847Y253199D02*
X285802D01*
X276549Y301799D02*
X285801D01*
X280412Y131699D02*
X285797D01*
X278001Y298199D02*
X285672D01*
X276601Y137999D02*
X285512D01*
X265489Y272099D02*
X285434D01*
X178464Y189299D02*
X285422D01*
X277499Y300899D02*
X285355D01*
X279172Y172199D02*
X285351D01*
X278099Y299099D02*
X285299D01*
X283428Y177599D02*
X285204D01*
X277945Y299999D02*
X285201D01*
X231034Y132599D02*
X285076D01*
X247698Y137099D02*
X284907D01*
X280224Y173099D02*
X284811D01*
X265762Y271199D02*
X284760D01*
X280487Y176699D02*
X284725D01*
X230461Y133499D02*
X284652D01*
X247544Y136199D02*
X284559D01*
X283112Y183899D02*
X284536D01*
X280711Y173999D02*
X284510D01*
X280825Y175799D02*
X284470D01*
X274099Y270299D02*
X284455D01*
X246144Y134399D02*
X284439D01*
X247097Y135299D02*
X284410D01*
X280894Y174899D02*
X284401D01*
X275577Y188399D02*
X284253D01*
X232456Y221699D02*
X284006D01*
X277225Y184799D02*
X283861D01*
X276626Y187499D02*
X283725D01*
X278874Y162299D02*
X283722D01*
X277294Y185699D02*
X283555D01*
X277112Y186599D02*
X283514D01*
X277544Y151499D02*
X283272D01*
X252972Y263999D02*
X283028D01*
X276626Y204599D02*
X282899D01*
X211394Y243299D02*
X282856D01*
X239811Y215399D02*
X282728D01*
X254564Y248699D02*
X282566D01*
X225894Y210899D02*
X282565D01*
X278345Y161399D02*
X282553D01*
X274967Y269399D02*
X282444D01*
X270577Y157799D02*
X282161D01*
X277834Y156899D02*
X282032D01*
X277172Y160499D02*
X282025D01*
X274096Y264899D02*
X281976D01*
X278497Y152399D02*
X281941D01*
X176961Y244199D02*
X281903D01*
X266596Y158699D02*
X281855D01*
X233187Y220799D02*
X281834D01*
X267465Y159599D02*
X281814D01*
X250539Y247799D02*
X281771D01*
X275375Y268499D02*
X281713D01*
X239994Y216299D02*
X281555D01*
X274965Y265799D02*
X281489D01*
X276885Y183899D02*
X281488D01*
X214231Y245099D02*
X281456D01*
X278629Y155999D02*
X281411D01*
X249864Y246899D02*
X281398D01*
X275500Y267599D02*
X281375D01*
X278944Y153299D02*
X281367D01*
X275577Y205499D02*
X281335D01*
X275375Y266699D02*
X281306D01*
X215028Y245999D02*
X281302D01*
X228066Y209999D02*
X281239D01*
X279756Y177599D02*
X281172D01*
X233525Y219899D02*
X281160D01*
X279002Y155099D02*
X281138D01*
X278886Y281999D02*
X281128D01*
X279098Y154199D02*
X281124D01*
X239925Y217199D02*
X281026D01*
X238856Y218999D02*
X280855D01*
X239587Y218099D02*
X280814D01*
X228874Y206399D02*
X280712D01*
X228740Y209099D02*
X280666D01*
X184401Y287399D02*
X280544D01*
X229086Y207299D02*
X280438D01*
X229045Y208199D02*
X280424D01*
X278845Y282899D02*
X280076D01*
X276153Y182999D02*
X279932D01*
X268161Y178499D02*
X279841D01*
X261056Y286499D02*
X279813D01*
X278540Y283799D02*
X279589D01*
X275694Y285599D02*
X279475D01*
X277866Y284699D02*
X279406D01*
X241499Y182099D02*
X279311D01*
X266835Y179399D02*
X279267D01*
X241945Y181199D02*
X279038D01*
X242099Y180299D02*
X279024D01*
X231276Y131699D02*
X278788D01*
X231262Y130799D02*
X277232D01*
X230988Y129899D02*
X276611D01*
X230365Y128999D02*
X276338D01*
X228801Y128099D02*
X276324D01*
X249794Y172199D02*
X276028D01*
X153700Y127199D02*
X275929D01*
X191835Y166799D02*
X275706D01*
X256500Y120899D02*
X275673D01*
X268294Y285599D02*
X275506D01*
X268734Y177599D02*
X275444D01*
X231264Y112799D02*
X275117D01*
X247602Y137999D02*
X274999D01*
X266501Y173099D02*
X274976D01*
X170194Y107399D02*
X274852D01*
X268976Y176699D02*
X274713D01*
X150486Y144299D02*
X274665D01*
X153700Y126299D02*
X274531D01*
X268065Y173999D02*
X274489D01*
X256375Y121799D02*
X274444D01*
X267875Y160499D02*
X274428D01*
X268962Y175799D02*
X274375D01*
X268688Y174899D02*
X274306D01*
X170314Y111899D02*
X274212D01*
X170439Y108299D02*
X274087D01*
X212512Y151499D02*
X274056D01*
X153700Y125399D02*
X273930D01*
X255967Y122699D02*
X273888D01*
X170509Y110999D02*
X273778D01*
X271626Y156899D02*
X273766D01*
X170570Y109199D02*
X273723D01*
X198499Y124499D02*
X273664D01*
X255099Y123599D02*
X273651D01*
X170593Y110099D02*
X273628D01*
X193161Y165899D02*
X273534D01*
X247229Y138899D02*
X273435D01*
X150445Y143399D02*
X273339D01*
X270466Y284699D02*
X273334D01*
X268000Y161399D02*
X273255D01*
X271153Y152399D02*
X273103D01*
X264399Y301799D02*
X273051D01*
X272112Y155999D02*
X272971D01*
X193734Y164999D02*
X272860D01*
X246434Y139799D02*
X272812D01*
X264396Y296399D02*
X272769D01*
X150139Y142499D02*
X272766D01*
X267875Y162299D02*
X272726D01*
X271140Y283799D02*
X272660D01*
X271885Y153299D02*
X272656D01*
X272294Y155099D02*
X272598D01*
X266599Y164099D02*
X272555D01*
X187935Y140699D02*
X272538D01*
X271274Y281099D02*
X272526D01*
X150872Y141599D02*
X272524D01*
X267467Y163199D02*
X272514D01*
X272225Y154199D02*
X272502D01*
X228345Y205499D02*
X272423D01*
X179549Y188399D02*
X272423D01*
X271445Y282899D02*
X272355D01*
X271486Y281999D02*
X272314D01*
X265267Y300899D02*
X272101D01*
X265265Y297299D02*
X271972D01*
X216986Y200099D02*
X271847D01*
X240549Y182999D02*
X271847D01*
X265675Y299999D02*
X271655D01*
X265675Y298199D02*
X271599D01*
X265800Y299099D02*
X271501D01*
X227172Y204599D02*
X271374D01*
X180499Y187499D02*
X271374D01*
X216945Y200999D02*
X271115D01*
X236902Y183899D02*
X271115D01*
X213794Y203699D02*
X270888D01*
X180945Y186599D02*
X270888D01*
X216640Y201899D02*
X270775D01*
X236529Y184799D02*
X270775D01*
X215966Y202799D02*
X270706D01*
X235734Y185699D02*
X270706D01*
X254024Y264899D02*
X270304D01*
X265776Y270299D02*
X270301D01*
X216062Y274799D02*
X269747D01*
X254511Y265799D02*
X269435D01*
X265533Y269399D02*
X269433D01*
X254694Y266699D02*
X269025D01*
X264959Y268499D02*
X269025D01*
X215789Y275699D02*
X269015D01*
X263628Y267599D02*
X268900D01*
X223559Y278399D02*
X268788D01*
X215168Y276599D02*
X268675D01*
X222228Y277499D02*
X268606D01*
X261787Y285599D02*
X268106D01*
X267247Y157799D02*
X267423D01*
X225500Y222599D02*
X267356D01*
X228064Y227999D02*
X267066D01*
X212026Y152399D02*
X266847D01*
X224133Y279299D02*
X266828D01*
X225375Y223499D02*
X266403D01*
X183899Y290099D02*
X266304D01*
X256429Y295499D02*
X266301D01*
X161712Y227099D02*
X266271D01*
X224967Y224399D02*
X265956D01*
X262125Y284699D02*
X265934D01*
X161894Y226199D02*
X265898D01*
X224099Y225299D02*
X265802D01*
X224376Y280199D02*
X265655D01*
X255344Y290999D02*
X265435D01*
X256802Y294599D02*
X265433D01*
X262194Y283799D02*
X265260D01*
X260472Y281099D02*
X265126D01*
X256297Y291899D02*
X265025D01*
X256898Y293699D02*
X265025D01*
X262011Y282899D02*
X264955D01*
X261524Y281999D02*
X264914D01*
X256744Y292799D02*
X264900D01*
X249612Y173099D02*
X264899D01*
X242001Y179399D02*
X264565D01*
X249126Y173999D02*
X263335D01*
X241628Y178499D02*
X263239D01*
X258886Y158699D02*
X262804D01*
X193976Y164099D02*
X262801D01*
X248077Y174899D02*
X262712D01*
X240831Y177599D02*
X262666D01*
X191962Y175799D02*
X262438D01*
X210977Y153299D02*
X262436D01*
X233596Y176699D02*
X262424D01*
X258845Y157799D02*
X262153D01*
X258675Y159599D02*
X261935D01*
X193962Y163199D02*
X261933D01*
X178702Y154199D02*
X261761D01*
X229549Y273899D02*
X261688D01*
X258539Y156899D02*
X261625D01*
X258147Y160499D02*
X261525D01*
X196934Y162299D02*
X261525D01*
X178329Y155099D02*
X261455D01*
X257864Y155999D02*
X261414D01*
X256978Y161399D02*
X261400D01*
X254625Y267599D02*
X261372D01*
X255634Y296399D02*
X260604D01*
X259334Y301799D02*
X260601D01*
X230499Y272999D02*
X260132D01*
X254287Y268499D02*
X260041D01*
X257101Y297299D02*
X259735D01*
X259576Y300899D02*
X259733D01*
X230945Y272099D02*
X259511D01*
X253556Y269399D02*
X259467D01*
X258665Y298199D02*
X259325D01*
X231099Y271199D02*
X259238D01*
X231001Y270299D02*
X259224D01*
X224362Y281099D02*
X257328D01*
X184028Y286499D02*
X256744D01*
X224089Y281999D02*
X256276D01*
X183231Y285599D02*
X256013D01*
X223468Y282899D02*
X255789D01*
X172866Y284699D02*
X255675D01*
X221911Y283799D02*
X255606D01*
X228329Y297299D02*
X255499D01*
X251461Y308099D02*
X254351D01*
X197729Y161399D02*
X254222D01*
X217778Y346799D02*
X254088D01*
X227534Y298199D02*
X253935D01*
X249801Y302699D02*
X253839D01*
X174767Y340499D02*
X253772D01*
X252034Y307199D02*
X253401D01*
X183796Y155999D02*
X253336D01*
X215135Y299099D02*
X253312D01*
X251365Y303599D02*
X253272D01*
X211385Y301799D02*
X253266D01*
X198102Y160499D02*
X253053D01*
X212266Y299999D02*
X253038D01*
X210653Y300899D02*
X253024D01*
X252276Y306299D02*
X252955D01*
X251988Y304499D02*
X252899D01*
X252262Y305399D02*
X252801D01*
X196644Y156899D02*
X252661D01*
X218947Y345899D02*
X252532D01*
X198198Y159599D02*
X252525D01*
X218664Y341399D02*
X252441D01*
X197597Y157799D02*
X252355D01*
X198044Y158699D02*
X252314D01*
X239999Y242399D02*
X252123D01*
X219475Y344999D02*
X251911D01*
X219339Y342299D02*
X251867D01*
X182949Y290999D02*
X251856D01*
X219686Y344099D02*
X251638D01*
X219645Y343199D02*
X251624D01*
X228702Y296399D02*
X251566D01*
X241512Y236999D02*
X251547D01*
X199367Y123599D02*
X251301D01*
X240867Y241499D02*
X251074D01*
X210547Y254099D02*
X250922D01*
X178745Y291899D02*
X250903D01*
X240865Y237899D02*
X250815D01*
X228798Y295499D02*
X250771D01*
X241275Y240599D02*
X250588D01*
X241275Y238799D02*
X250475D01*
X227244Y292799D02*
X250456D01*
X199775Y122699D02*
X250433D01*
X241400Y239699D02*
X250406D01*
X228644Y294599D02*
X250398D01*
X228197Y293699D02*
X250302D01*
X199900Y121799D02*
X250025D01*
X210744Y263999D02*
X249828D01*
X211075Y253199D02*
X249753D01*
X230628Y269399D02*
X249244D01*
X248978Y252299D02*
X249225D01*
X211697Y264899D02*
X248776D01*
X229831Y268499D02*
X248513D01*
X212144Y265799D02*
X248289D01*
X211725Y302699D02*
X248199D01*
X212202Y267599D02*
X248175D01*
X212298Y266699D02*
X248106D01*
X215334Y308999D02*
X247865D01*
X232286Y115499D02*
X247456D01*
X199775Y120899D02*
X247166D01*
X215044Y303599D02*
X246635D01*
X216129Y308099D02*
X246539D01*
X232075Y116399D02*
X246503D01*
X199365Y119999D02*
X246371D01*
X211286Y252299D02*
X246222D01*
X231547Y117299D02*
X246056D01*
X215997Y304499D02*
X246012D01*
X198496Y119099D02*
X245998D01*
X216502Y307199D02*
X245966D01*
X230378Y118199D02*
X245902D01*
X216444Y305399D02*
X245738D01*
X216598Y306299D02*
X245724D01*
X215401Y246899D02*
X245336D01*
X211245Y251399D02*
X245053D01*
X191976Y174899D02*
X244923D01*
X215499Y247799D02*
X244661D01*
X213949Y250499D02*
X244525D01*
X215345Y248699D02*
X244355D01*
X214899Y249599D02*
X244314D01*
X191733Y173999D02*
X243874D01*
X242877Y173099D02*
X243388D01*
X229135Y134399D02*
X242656D01*
X208477Y139799D02*
X242366D01*
X209785Y135299D02*
X241703D01*
X209526Y138899D02*
X241571D01*
X210125Y136199D02*
X241256D01*
X210012Y137999D02*
X241198D01*
X210194Y137099D02*
X241102D01*
X214034Y173099D02*
X239723D01*
X229086Y230699D02*
X239572D01*
X213744Y167699D02*
X239147D01*
X214829Y172199D02*
X238674D01*
X214697Y168599D02*
X238415D01*
X110200Y236099D02*
X238332D01*
X228875Y231599D02*
X238241D01*
X215202Y171299D02*
X238188D01*
X215144Y169499D02*
X238075D01*
X215298Y170399D02*
X238006D01*
X110200Y235199D02*
X237711D01*
X228347Y232499D02*
X237667D01*
X110200Y234299D02*
X237438D01*
X227178Y233399D02*
X237424D01*
X236998Y182999D02*
X237051D01*
X234465Y177599D02*
X236769D01*
X212672Y236999D02*
X236204D01*
X213566Y242399D02*
X236201D01*
X234875Y178499D02*
X235972D01*
X235000Y179399D02*
X235599D01*
X235444Y180299D02*
X235501D01*
X213845Y237899D02*
X235335D01*
X214240Y241499D02*
X235333D01*
X216986Y213599D02*
X235128D01*
X214374Y238799D02*
X234925D01*
X214545Y240599D02*
X234925D01*
X214586Y239699D02*
X234800D01*
X233594Y218999D02*
X234544D01*
X216945Y214499D02*
X234076D01*
X233411Y218099D02*
X233813D01*
X216640Y215399D02*
X233589D01*
X232924Y217199D02*
X233475D01*
X231872Y216299D02*
X233406D01*
X230934Y185699D02*
X231666D01*
X228253Y176699D02*
X229804D01*
X215966Y216299D02*
X228728D01*
X225375Y221699D02*
X228144D01*
X213794Y217199D02*
X227676D01*
X218577Y118199D02*
X227622D01*
X224965Y220799D02*
X227413D01*
X153700Y128099D02*
X227199D01*
X192629Y218099D02*
X227189D01*
X224096Y219899D02*
X227075D01*
X191834Y218999D02*
X227006D01*
X185378Y185699D02*
X226866D01*
X222899Y134399D02*
X226865D01*
X219153Y112799D02*
X226736D01*
X219626Y117299D02*
X226453D01*
X197894Y184799D02*
X226071D01*
X219885Y113699D02*
X226061D01*
X216076Y273899D02*
X226051D01*
X220112Y116399D02*
X225925D01*
X211829Y268499D02*
X225769D01*
X220225Y114599D02*
X225755D01*
X220294Y115499D02*
X225714D01*
X225234Y210899D02*
X225706D01*
X205878Y183899D02*
X225698D01*
X222896Y128999D02*
X225635D01*
X207047Y182999D02*
X225602D01*
X223767Y133499D02*
X225539D01*
X215833Y272999D02*
X225101D01*
X223765Y129899D02*
X225012D01*
X211034Y269399D02*
X224972D01*
X224175Y132599D02*
X224966D01*
X224175Y130799D02*
X224738D01*
X224300Y131699D02*
X224724D01*
X215259Y272099D02*
X224655D01*
X173511Y270299D02*
X224599D01*
X207575Y182099D02*
X224523D01*
X213928Y271199D02*
X224501D01*
X178785Y204599D02*
X224428D01*
X110200Y233399D02*
X224422D01*
X191689Y176699D02*
X223947D01*
X214801Y292799D02*
X223756D01*
X161226Y227999D02*
X223536D01*
X207786Y181199D02*
X223474D01*
X216461Y298199D02*
X223466D01*
X179125Y205499D02*
X223255D01*
X110160Y232499D02*
X223253D01*
X191068Y177599D02*
X223215D01*
X207745Y180299D02*
X222988D01*
X206764Y178499D02*
X222875D01*
X160177Y228899D02*
X222861D01*
X207439Y179399D02*
X222806D01*
X216365Y293699D02*
X222803D01*
X109994Y231599D02*
X222725D01*
X217034Y297299D02*
X222671D01*
X109228Y229799D02*
X222555D01*
X109691Y230699D02*
X222514D01*
X216988Y294599D02*
X222356D01*
X217276Y296399D02*
X222298D01*
X217262Y295499D02*
X222202D01*
X179194Y206399D02*
X221399D01*
X216774Y212699D02*
X221065D01*
X176698Y219899D02*
X220304D01*
X161825Y225299D02*
X220301D01*
X173540Y283799D02*
X220289D01*
X216774Y199199D02*
X220023D01*
X213612Y277499D02*
X219972D01*
X179012Y207299D02*
X219835D01*
X216245Y211799D02*
X219739D01*
X178747Y193799D02*
X219447D01*
X176602Y220799D02*
X219435D01*
X161485Y224399D02*
X219433D01*
X178526Y208199D02*
X219212D01*
X215072Y210899D02*
X219166D01*
X153700Y128999D02*
X219104D01*
X209053Y134399D02*
X219101D01*
X176229Y221699D02*
X219025D01*
X160753Y223499D02*
X219025D01*
X216245Y198299D02*
X218974D01*
X177597Y209099D02*
X218938D01*
X178044Y209999D02*
X218924D01*
X175434Y222599D02*
X218900D01*
X173845Y282899D02*
X218732D01*
X177578Y194699D02*
X218715D01*
X178600Y278399D02*
X218641D01*
X215072Y197399D02*
X218488D01*
X121034Y195599D02*
X218375D01*
X120329Y196499D02*
X218306D01*
X153700Y129899D02*
X218235D01*
X178348Y133499D02*
X218233D01*
X173886Y281999D02*
X218111D01*
X178475Y279299D02*
X218067D01*
X177199Y281099D02*
X217838D01*
X175873Y130799D02*
X217825D01*
X177924Y132599D02*
X217825D01*
X178067Y280199D02*
X217824D01*
X177203Y131699D02*
X217700D01*
X207046Y326999D02*
X215428D01*
X196294Y118199D02*
X215423D01*
X136334Y346799D02*
X215022D01*
X170000Y112799D02*
X214847D01*
X202885Y332399D02*
X214844D01*
X110145Y327899D02*
X214376D01*
X196111Y117299D02*
X214374D01*
X173899Y341399D02*
X214136D01*
X169548Y113699D02*
X214115D01*
X202153Y331499D02*
X214113D01*
X109960Y328799D02*
X213889D01*
X195624Y116399D02*
X213888D01*
X171377Y345899D02*
X213853D01*
X168927Y114599D02*
X213775D01*
X155885Y330599D02*
X213775D01*
X155153Y329699D02*
X213706D01*
X194572Y115499D02*
X213706D01*
X193002Y217199D02*
X213606D01*
X178053Y203699D02*
X213606D01*
X173025Y342299D02*
X213461D01*
X172426Y344999D02*
X213325D01*
X179274Y292799D02*
X213199D01*
X173094Y343199D02*
X213155D01*
X172912Y344099D02*
X213114D01*
X178198Y210899D02*
X212328D01*
X119085Y197399D02*
X212328D01*
X178475Y277499D02*
X211988D01*
X194144Y271199D02*
X211672D01*
X179486Y293699D02*
X211635D01*
X193098Y216299D02*
X211434D01*
X144124Y202799D02*
X211434D01*
X189594Y243299D02*
X211206D01*
X178102Y211799D02*
X211155D01*
X102500Y198299D02*
X211155D01*
X209378Y254999D02*
X211104D01*
X173866Y260399D02*
X211101D01*
X192944Y215399D02*
X210760D01*
X143072Y201899D02*
X210760D01*
X177729Y212699D02*
X210626D01*
X122328Y199199D02*
X210626D01*
X210328Y308099D02*
X210471D01*
X192497Y214499D02*
X210455D01*
X124233Y200999D02*
X210455D01*
X194434Y276599D02*
X210432D01*
X191544Y213599D02*
X210414D01*
X123659Y200099D02*
X210414D01*
X195097Y272099D02*
X210341D01*
X176929Y167699D02*
X210256D01*
X196177Y255899D02*
X210235D01*
X174540Y259499D02*
X210233D01*
X175635Y245099D02*
X210169D01*
X177144Y307199D02*
X210098D01*
X191159Y173099D02*
X209966D01*
X190872Y236999D02*
X209928D01*
X174674Y256799D02*
X209825D01*
X174845Y258599D02*
X209825D01*
X195229Y275699D02*
X209811D01*
X195544Y272999D02*
X209767D01*
X174886Y257699D02*
X209700D01*
X195602Y274799D02*
X209538D01*
X195698Y273899D02*
X209524D01*
X154076Y245999D02*
X209372D01*
X176134Y168599D02*
X209303D01*
X189828Y172199D02*
X209171D01*
X192774Y248699D02*
X209055D01*
X191766Y242399D02*
X209034D01*
X191072Y246899D02*
X208999D01*
X192245Y247799D02*
X208901D01*
X115138Y169499D02*
X208856D01*
X176731Y171299D02*
X208798D01*
X192045Y237899D02*
X208755D01*
X114619Y170399D02*
X208702D01*
X179445Y294599D02*
X208628D01*
X194177Y314399D02*
X208388D01*
X192440Y241499D02*
X208360D01*
X192574Y238799D02*
X208226D01*
X177298Y308099D02*
X208072D01*
X192745Y240599D02*
X208055D01*
X192786Y239699D02*
X208014D01*
X178798Y153299D02*
X207823D01*
X195433Y299999D02*
X207734D01*
X179140Y295499D02*
X207455D01*
X205059Y263999D02*
X207256D01*
X141328Y147899D02*
X207247D01*
X194859Y299099D02*
X207060D01*
X203412Y269399D02*
X206966D01*
X178466Y296399D02*
X206926D01*
X176697Y306299D02*
X206923D01*
X195226Y313499D02*
X206832D01*
X178644Y152399D02*
X206774D01*
X193528Y298199D02*
X206755D01*
X194753Y308999D02*
X206741D01*
X176294Y297299D02*
X206714D01*
X197226Y254999D02*
X206622D01*
X141701Y148799D02*
X206515D01*
X195676Y300899D02*
X206347D01*
X205633Y264899D02*
X206303D01*
X178197Y151499D02*
X206288D01*
X195712Y312599D02*
X206211D01*
X141799Y149699D02*
X206175D01*
X204968Y268499D02*
X206171D01*
X195485Y309899D02*
X206167D01*
X177244Y150599D02*
X206106D01*
X195894Y311699D02*
X205938D01*
X195825Y310799D02*
X205924D01*
X175744Y305399D02*
X205874D01*
X205589Y267599D02*
X205798D01*
X192986Y249599D02*
X205736D01*
X195662Y301799D02*
X205615D01*
X197712Y254099D02*
X205453D01*
X193212Y304499D02*
X205388D01*
X204477Y139799D02*
X205323D01*
X195389Y302699D02*
X205275D01*
X194768Y303599D02*
X205206D01*
X196753Y250499D02*
X205061D01*
X197894Y253199D02*
X204925D01*
X197485Y251399D02*
X204755D01*
X197825Y252299D02*
X204714D01*
X164616Y321599D02*
X203289D01*
X200066Y183899D02*
X203122D01*
X110200Y326999D02*
X202854D01*
X163812Y322499D02*
X202289D01*
X199172Y178499D02*
X202236D01*
X110200Y326099D02*
X202091D01*
X200740Y182999D02*
X201953D01*
X162689Y323399D02*
X201822D01*
X173024Y269399D02*
X201788D01*
X110200Y325199D02*
X201736D01*
X160863Y324299D02*
X201653D01*
X200345Y179399D02*
X201561D01*
X154672Y263099D02*
X201472D01*
X201045Y182099D02*
X201425D01*
X189261Y139799D02*
X201323D01*
X200874Y180299D02*
X201255D01*
X201086Y181199D02*
X201214D01*
X187601Y134399D02*
X200747D01*
X189834Y138899D02*
X200274D01*
X171972Y268499D02*
X200232D01*
X155724Y263999D02*
X200141D01*
X189165Y135299D02*
X200015D01*
X190076Y137999D02*
X199788D01*
X189788Y136199D02*
X199675D01*
X155987Y267599D02*
X199611D01*
X190062Y137099D02*
X199606D01*
X156211Y264899D02*
X199567D01*
X156325Y266699D02*
X199338D01*
X156394Y265799D02*
X199324D01*
X174765Y336899D02*
X198423D01*
X174053Y331499D02*
X197847D01*
X186547Y184799D02*
X197706D01*
X174526Y335999D02*
X197374D01*
X174785Y332399D02*
X197115D01*
X175012Y335099D02*
X196888D01*
X175125Y333299D02*
X196775D01*
X175194Y334199D02*
X196706D01*
X189512Y178499D02*
X196428D01*
X187075Y183899D02*
X195534D01*
X180845Y179399D02*
X195255D01*
X187286Y182999D02*
X194860D01*
X186264Y180299D02*
X194726D01*
X153700Y124499D02*
X194701D01*
X187245Y182099D02*
X194555D01*
X186939Y181199D02*
X194514D01*
X153700Y123599D02*
X193833D01*
X153700Y122699D02*
X193425D01*
X153700Y121799D02*
X193300D01*
X184665Y156899D02*
X193156D01*
X174145Y255899D02*
X193023D01*
X185075Y157799D02*
X192203D01*
X172972Y254999D02*
X191974D01*
X185200Y158699D02*
X191756D01*
X191501Y160499D02*
X191698D01*
X185075Y159599D02*
X191602D01*
X171931Y304499D02*
X191588D01*
X158935Y254099D02*
X191488D01*
X168077Y115499D02*
X191428D01*
X189794Y253199D02*
X191306D01*
X169625Y298199D02*
X191272D01*
X165919Y314399D02*
X191023D01*
X153700Y120899D02*
X190844D01*
X176844Y271199D02*
X190656D01*
X177202Y308999D02*
X190447D01*
X166847Y116399D02*
X190376D01*
X178065Y276599D02*
X190366D01*
X153700Y119999D02*
X190113D01*
X109725Y303599D02*
X190032D01*
X165584Y313499D02*
X189974D01*
X169694Y299099D02*
X189941D01*
X186028Y160499D02*
X189899D01*
X164492Y117299D02*
X189889D01*
X153700Y119099D02*
X189775D01*
X176829Y309899D02*
X189715D01*
X153673Y118199D02*
X189706D01*
X177797Y272099D02*
X189703D01*
X160261Y253199D02*
X189606D01*
X177929Y275699D02*
X189571D01*
X185712Y166799D02*
X189565D01*
X165116Y312599D02*
X189488D01*
X109278Y302699D02*
X189411D01*
X177534Y243299D02*
X189406D01*
X176034Y310799D02*
X189375D01*
X169512Y299999D02*
X189367D01*
X164485Y311699D02*
X189306D01*
X178244Y272999D02*
X189256D01*
X178302Y274799D02*
X189198D01*
X167977Y301799D02*
X189138D01*
X169026Y300899D02*
X189124D01*
X178398Y273899D02*
X189102D01*
X187359Y161399D02*
X188335D01*
X154062Y246899D02*
X188328D01*
X187268Y165899D02*
X188239D01*
X110200Y236999D02*
X188128D01*
X176934Y213599D02*
X188056D01*
X179672Y178499D02*
X187888D01*
X176544Y218999D02*
X187766D01*
X177649Y172199D02*
X187572D01*
X160834Y252299D02*
X187434D01*
X177776Y242399D02*
X187234D01*
X158601Y247799D02*
X187155D01*
X144798Y214499D02*
X187103D01*
X176097Y218099D02*
X186971D01*
X110200Y237899D02*
X186955D01*
X161076Y251399D02*
X186760D01*
X144702Y215399D02*
X186656D01*
X160165Y248699D02*
X186626D01*
X175144Y217199D02*
X186598D01*
X177762Y241499D02*
X186560D01*
X144329Y216299D02*
X186502D01*
X161062Y250499D02*
X186455D01*
X175301Y238799D02*
X186426D01*
X160788Y249599D02*
X186414D01*
X177796Y177599D02*
X186332D01*
X177488Y240599D02*
X186255D01*
X178189Y173099D02*
X186241D01*
X176865Y239699D02*
X186214D01*
X178561Y134399D02*
X185999D01*
X178275Y176699D02*
X185711D01*
X178490Y173999D02*
X185667D01*
X151935Y140699D02*
X185665D01*
X178530Y175799D02*
X185438D01*
X178599Y174899D02*
X185424D01*
X178590Y135299D02*
X184435D01*
X152648Y139799D02*
X184339D01*
X177302Y166799D02*
X184088D01*
X178441Y136199D02*
X183812D01*
X176441Y138899D02*
X183766D01*
X178093Y137099D02*
X183538D01*
X177488Y137999D02*
X183524D01*
X181099Y185699D02*
X182622D01*
X177398Y165899D02*
X182532D01*
X177244Y164999D02*
X181911D01*
X158047Y162299D02*
X181867D01*
X181374Y180299D02*
X181736D01*
X176797Y164099D02*
X181638D01*
X175844Y163199D02*
X181624D01*
X181001Y184799D02*
X181453D01*
X180628Y183899D02*
X180925D01*
X177534Y155999D02*
X180004D01*
X158575Y161399D02*
X180001D01*
X177572Y290999D02*
X179451D01*
X170694Y285599D02*
X179169D01*
X146924Y156899D02*
X179135D01*
X158786Y160499D02*
X179133D01*
X157764Y157799D02*
X178725D01*
X158745Y159599D02*
X178725D01*
X158439Y158699D02*
X178600D01*
X174194Y290099D02*
X178501D01*
X118949Y286499D02*
X178372D01*
X174011Y289199D02*
X178055D01*
X172472Y287399D02*
X177999D01*
X173524Y288299D02*
X177901D01*
X169285Y297299D02*
X176106D01*
X163649Y188399D02*
X176051D01*
X175346Y179399D02*
X175755D01*
X166250Y182999D02*
X175360D01*
X165964Y180299D02*
X175226D01*
X164497Y187499D02*
X175101D01*
X166258Y182099D02*
X175055D01*
X166164Y181199D02*
X175014D01*
X166140Y183899D02*
X174972D01*
X174125Y290999D02*
X174828D01*
X173277Y194699D02*
X174822D01*
X165125Y186599D02*
X174655D01*
X165924Y184799D02*
X174599D01*
X165591Y185699D02*
X174501D01*
X173853Y189299D02*
X173936D01*
X168553Y296399D02*
X173934D01*
X141645Y150599D02*
X173756D01*
X144611Y203699D02*
X173747D01*
X110200Y238799D02*
X173699D01*
X145872Y155999D02*
X173466D01*
X153833Y245099D02*
X173365D01*
X102500Y295499D02*
X173260D01*
X152639Y208199D02*
X173156D01*
X173056Y292799D02*
X173126D01*
X144794Y204599D02*
X173015D01*
X102500Y294599D02*
X172955D01*
X102500Y293699D02*
X172914D01*
X144644Y213599D02*
X172866D01*
X141199Y151499D02*
X172803D01*
X151964Y207299D02*
X172788D01*
X144725Y205499D02*
X172675D01*
X121521Y155099D02*
X172671D01*
X165650Y179399D02*
X172654D01*
X144387Y206399D02*
X172606D01*
X120715Y276599D02*
X172535D01*
X156878Y163199D02*
X172356D01*
X140249Y152399D02*
X172356D01*
X121143Y154199D02*
X172298D01*
X154877Y275699D02*
X172271D01*
X152945Y209099D02*
X172203D01*
X120509Y153299D02*
X172202D01*
X110200Y239699D02*
X172135D01*
X153700Y130799D02*
X172127D01*
X121020Y277499D02*
X172125D01*
X171972Y279299D02*
X172125D01*
X151078Y212699D02*
X172071D01*
X115416Y168599D02*
X172066D01*
X153259Y244199D02*
X172039D01*
X121229Y278399D02*
X172000D01*
X163632Y310799D02*
X171966D01*
X155926Y274799D02*
X171898D01*
X152986Y209999D02*
X171756D01*
X152247Y211799D02*
X171698D01*
X143534Y217199D02*
X171656D01*
X152775Y210899D02*
X171602D01*
X153140Y138899D02*
X171559D01*
X110200Y240599D02*
X171512D01*
X102500Y261299D02*
X171506D01*
X151928Y243299D02*
X171466D01*
X115500Y164099D02*
X171403D01*
X102500Y222599D02*
X171366D01*
X115500Y167699D02*
X171271D01*
X113726Y171299D02*
X171269D01*
X110200Y241499D02*
X171238D01*
X131464Y242399D02*
X171224D01*
X165206Y178499D02*
X171013D01*
X115500Y164999D02*
X170956D01*
X115500Y166799D02*
X170898D01*
X115500Y165899D02*
X170802D01*
X153700Y131699D02*
X170797D01*
X102500Y218099D02*
X170703D01*
X102500Y221699D02*
X170571D01*
X153465Y137999D02*
X170512D01*
X119661Y285599D02*
X170506D01*
X111157Y172199D02*
X170351D01*
X102500Y218999D02*
X170256D01*
X140445Y254999D02*
X170228D01*
X164605Y177599D02*
X170204D01*
X102500Y220799D02*
X170198D01*
X121459Y194699D02*
X170123D01*
X102500Y219899D02*
X170102D01*
X153700Y132599D02*
X170076D01*
X153648Y137099D02*
X169907D01*
X105700Y173099D02*
X169811D01*
X156225Y331499D02*
X169747D01*
X163796Y176699D02*
X169725D01*
X153700Y133499D02*
X169652D01*
X153700Y136199D02*
X169559D01*
X162451Y189299D02*
X169547D01*
X105700Y173999D02*
X169510D01*
X162666Y175799D02*
X169470D01*
X153700Y134399D02*
X169439D01*
X153700Y135299D02*
X169410D01*
X160819Y174899D02*
X169401D01*
X105648Y260399D02*
X169334D01*
X118028Y287399D02*
X169328D01*
X102500Y335999D02*
X169274D01*
X115437Y336899D02*
X169235D01*
X121350Y279299D02*
X169228D01*
X121680Y193799D02*
X169074D01*
X140140Y255899D02*
X169055D01*
X156294Y332399D02*
X169015D01*
X155256Y268499D02*
X168828D01*
X116876Y337799D02*
X168825D01*
X118517Y339599D02*
X168825D01*
X160369Y190199D02*
X168815D01*
X154577Y335099D02*
X168788D01*
X102500Y292799D02*
X168744D01*
X117829Y338699D02*
X168700D01*
X156112Y333299D02*
X168675D01*
X107458Y259499D02*
X168660D01*
X155626Y334199D02*
X168606D01*
X121724Y192899D02*
X168588D01*
X139466Y256799D02*
X168526D01*
X121287Y191099D02*
X168475D01*
X121599Y191999D02*
X168406D01*
X129677Y258599D02*
X168355D01*
X120218Y284699D02*
X168334D01*
X137294Y257699D02*
X168314D01*
X116785Y288299D02*
X168276D01*
X156412Y273899D02*
X168244D01*
X137129Y345899D02*
X168223D01*
X162426Y309899D02*
X168151D01*
X121385Y280199D02*
X168055D01*
X102500Y291899D02*
X168013D01*
X110015Y304499D02*
X167869D01*
X114845Y289199D02*
X167789D01*
X139266Y269399D02*
X167776D01*
X102500Y290999D02*
X167675D01*
X120649Y283799D02*
X167660D01*
X119021Y340499D02*
X167647D01*
X102500Y290099D02*
X167606D01*
X121335Y281099D02*
X167526D01*
X156594Y272999D02*
X167513D01*
X120972Y282899D02*
X167355D01*
X121199Y281999D02*
X167314D01*
X155453Y270299D02*
X167289D01*
X160312Y308999D02*
X167201D01*
X156525Y272099D02*
X167175D01*
X137502Y344999D02*
X167174D01*
X156185Y271199D02*
X167106D01*
X110170Y305399D02*
X167072D01*
X136044Y341399D02*
X166915D01*
X110200Y308099D02*
X166755D01*
X110200Y306299D02*
X166699D01*
X137598Y344099D02*
X166688D01*
X110200Y307199D02*
X166601D01*
X136997Y342299D02*
X166575D01*
X137444Y343199D02*
X166506D01*
X144749Y301799D02*
X164823D01*
X145031Y296399D02*
X164247D01*
X145699Y300899D02*
X163774D01*
X145828Y297299D02*
X163515D01*
X146145Y299999D02*
X163288D01*
X146201Y298199D02*
X163175D01*
X146299Y299099D02*
X163106D01*
X153524Y117299D02*
X161492D01*
X114206Y102899D02*
X159889D01*
X153237Y116399D02*
X159137D01*
X130844Y103799D02*
X158375D01*
X152788Y115499D02*
X157908D01*
X131797Y104699D02*
X157390D01*
X152135Y114599D02*
X157057D01*
X108560Y228899D02*
X157023D01*
X153789Y247799D02*
X156999D01*
X132244Y105599D02*
X156681D01*
X140486Y254099D02*
X156665D01*
X102500Y223499D02*
X156447D01*
X151173Y113699D02*
X156437D01*
X147272Y308999D02*
X156223D01*
X120745Y190199D02*
X156167D01*
X132398Y106499D02*
X156161D01*
X150129Y112799D02*
X155985D01*
X107582Y227999D02*
X155974D01*
X132302Y107399D02*
X155790D01*
X105700Y174899D02*
X155717D01*
X102500Y224399D02*
X155715D01*
X110200Y324299D02*
X155672D01*
X150502Y111899D02*
X155670D01*
X149044Y108299D02*
X155545D01*
X105921Y227099D02*
X155488D01*
X150598Y110999D02*
X155475D01*
X153168Y248699D02*
X155435D01*
X149997Y109199D02*
X155414D01*
X150444Y110099D02*
X155391D01*
X102500Y225299D02*
X155375D01*
X140274Y253199D02*
X155339D01*
X102500Y226199D02*
X155306D01*
X151612Y249599D02*
X154812D01*
X139745Y252299D02*
X154766D01*
X110200Y250499D02*
X154538D01*
X138572Y251399D02*
X154524D01*
X134712Y163199D02*
X154122D01*
X148324Y309899D02*
X154110D01*
X119847Y189299D02*
X154085D01*
X105700Y175799D02*
X153870D01*
X110200Y323399D02*
X153847D01*
X147411Y157799D02*
X153236D01*
X136268Y162299D02*
X152953D01*
X148811Y310799D02*
X152903D01*
X117846Y188399D02*
X152886D01*
X139896Y176699D02*
X152740D01*
X110200Y322499D02*
X152724D01*
X147594Y158699D02*
X152561D01*
X146456Y161399D02*
X152425D01*
X147525Y159599D02*
X152255D01*
X147187Y160499D02*
X152214D01*
X148994Y311699D02*
X152051D01*
X115372Y187499D02*
X152038D01*
X140765Y177599D02*
X151931D01*
X110200Y321599D02*
X151919D01*
X120304Y275699D02*
X151723D01*
X102500Y263099D02*
X151528D01*
X102500Y335099D02*
X151423D01*
X148925Y312599D02*
X151419D01*
X115497Y186599D02*
X151410D01*
X141175Y178499D02*
X151330D01*
X110200Y320699D02*
X151321D01*
X137094Y270299D02*
X151147D01*
X148587Y313499D02*
X150951D01*
X115500Y185699D02*
X150944D01*
X139940Y268499D02*
X150944D01*
X141300Y179399D02*
X150886D01*
X110200Y319799D02*
X150880D01*
X109634Y329699D02*
X150847D01*
X119771Y274799D02*
X150674D01*
X147856Y314399D02*
X150616D01*
X115500Y184799D02*
X150612D01*
X141175Y180299D02*
X150572D01*
X110200Y318899D02*
X150567D01*
X138372Y263999D02*
X150476D01*
X115290Y271199D02*
X150415D01*
X110200Y315299D02*
X150398D01*
X115500Y183899D02*
X150395D01*
X102500Y334199D02*
X150374D01*
X140767Y181199D02*
X150372D01*
X110200Y317999D02*
X150369D01*
X110200Y316199D02*
X150286D01*
X115500Y182999D02*
X150285D01*
X139899Y182099D02*
X150278D01*
X110200Y317099D02*
X150277D01*
X140245Y267599D02*
X150213D01*
X119090Y273899D02*
X150188D01*
X109139Y330599D02*
X150115D01*
X117041Y272099D02*
X150075D01*
X118212Y272999D02*
X150006D01*
X139545Y264899D02*
X149989D01*
X110200Y249599D02*
X149988D01*
X105356Y333299D02*
X149888D01*
X140286Y266699D02*
X149875D01*
X140074Y265799D02*
X149806D01*
X108424Y331499D02*
X149775D01*
X107360Y332399D02*
X149706D01*
X132139Y243299D02*
X149672D01*
X110200Y248699D02*
X148432D01*
X132445Y244199D02*
X148341D01*
X144197Y212699D02*
X148322D01*
X130578Y247799D02*
X147811D01*
X132486Y245099D02*
X147767D01*
X131747Y246899D02*
X147538D01*
X132275Y245999D02*
X147524D01*
X143656Y207299D02*
X147436D01*
X143244Y211799D02*
X147153D01*
X102500Y208199D02*
X146761D01*
X111031Y210899D02*
X146625D01*
X102500Y209099D02*
X146455D01*
X102500Y209999D02*
X146414D01*
X140531Y146999D02*
X145822D01*
X131929Y108299D02*
X145556D01*
X134404Y146099D02*
X144653D01*
X134721Y109199D02*
X144603D01*
X135718Y110099D02*
X144156D01*
X110200Y308999D02*
X144128D01*
X135540Y145199D02*
X144125D01*
X136692Y111899D02*
X144098D01*
X136325Y110999D02*
X144002D01*
X136628Y143399D02*
X143955D01*
X136214Y144299D02*
X143914D01*
X110200Y314399D02*
X143544D01*
X110200Y309899D02*
X143076D01*
X110200Y313499D02*
X142813D01*
X121703Y155999D02*
X142728D01*
X110200Y310799D02*
X142589D01*
X110200Y312599D02*
X142475D01*
X110200Y311699D02*
X142406D01*
X136889Y161399D02*
X142144D01*
X135028Y156899D02*
X141676D01*
X137162Y160499D02*
X141413D01*
X108633Y301799D02*
X141251D01*
X136359Y157799D02*
X141189D01*
X137176Y159599D02*
X141075D01*
X136933Y158699D02*
X141006D01*
X102500Y296399D02*
X140969D01*
X107695Y300899D02*
X140301D01*
X102500Y297299D02*
X140172D01*
X124476Y201899D02*
X139928D01*
X106159Y299999D02*
X139855D01*
X102500Y298199D02*
X139799D01*
X111828Y211799D02*
X139756D01*
X102500Y299099D02*
X139701D01*
X102500Y217199D02*
X139466D01*
X102500Y207299D02*
X139344D01*
X124462Y202799D02*
X138876D01*
X112201Y212699D02*
X138803D01*
X110749Y216299D02*
X138671D01*
X102500Y206399D02*
X138613D01*
X124189Y203699D02*
X138389D01*
X112299Y213599D02*
X138356D01*
X111699Y215399D02*
X138298D01*
X122012Y205499D02*
X138275D01*
X123568Y204599D02*
X138206D01*
X112145Y214499D02*
X138202D01*
X130726Y257699D02*
X137106D01*
X102500Y270299D02*
X136906D01*
X130849Y152399D02*
X136751D01*
X131131Y146999D02*
X136469D01*
X105700Y176699D02*
X136104D01*
X115500Y182099D02*
X136101D01*
X110200Y251399D02*
X135828D01*
X131799Y151499D02*
X135801D01*
X131928Y147899D02*
X135672D01*
X102500Y263999D02*
X135628D01*
X132245Y150599D02*
X135355D01*
X132301Y148799D02*
X135299D01*
X112336Y177599D02*
X135235D01*
X115447Y181199D02*
X135233D01*
X132399Y149699D02*
X135201D01*
X131212Y256799D02*
X134934D01*
X113956Y178499D02*
X134825D01*
X115210Y180299D02*
X134825D01*
X102500Y269399D02*
X134734D01*
X114748Y179399D02*
X134700D01*
X110200Y252299D02*
X134655D01*
X102500Y264899D02*
X134455D01*
X131394Y255899D02*
X134260D01*
X130253Y253199D02*
X134126D01*
X102500Y268499D02*
X134060D01*
X131325Y254999D02*
X133955D01*
X102500Y265799D02*
X133926D01*
X130985Y254099D02*
X133914D01*
X102500Y267599D02*
X133755D01*
X102500Y266699D02*
X133714D01*
X115500Y163199D02*
X133088D01*
X121712Y156899D02*
X132772D01*
X119380Y341399D02*
X132556D01*
X119119Y346799D02*
X132266D01*
X119613Y342299D02*
X131603D01*
X115416Y162299D02*
X131532D01*
X119446Y345899D02*
X131471D01*
X121549Y157799D02*
X131441D01*
X119734Y343199D02*
X131156D01*
X119652Y344999D02*
X131098D01*
X119747Y344099D02*
X131002D01*
X115136Y161399D02*
X130911D01*
X121194Y158699D02*
X130867D01*
X119578Y160499D02*
X130638D01*
X120591Y159599D02*
X130624D01*
X121245Y146099D02*
X129396D01*
X120072Y145199D02*
X128260D01*
X104573Y110099D02*
X128082D01*
X110200Y247799D02*
X127822D01*
X102500Y144299D02*
X127586D01*
X104100Y110999D02*
X127475D01*
X111533Y103799D02*
X127356D01*
X119429Y152399D02*
X127351D01*
X102500Y143399D02*
X127172D01*
X103700Y111899D02*
X127108D01*
X121774Y146999D02*
X127069D01*
X105129Y109199D02*
X127066D01*
X110200Y242399D02*
X126936D01*
X110200Y246899D02*
X126653D01*
X108480Y258599D02*
X126523D01*
X109816Y104699D02*
X126403D01*
X118794Y151499D02*
X126401D01*
X121986Y147899D02*
X126272D01*
X105778Y108299D02*
X126271D01*
X110200Y243299D02*
X126261D01*
X110200Y245999D02*
X126125D01*
X108502Y105599D02*
X125956D01*
X110200Y244199D02*
X125955D01*
X120966Y150599D02*
X125955D01*
X110200Y253199D02*
X125947D01*
X110200Y245099D02*
X125914D01*
X121945Y148799D02*
X125899D01*
X106538Y107399D02*
X125898D01*
X107433Y106499D02*
X125802D01*
X121640Y149699D02*
X125801D01*
X109174Y257699D02*
X125474D01*
X110200Y254099D02*
X125215D01*
X109655Y256799D02*
X124988D01*
X110150Y254999D02*
X124875D01*
X109972Y255899D02*
X124806D01*
X102500Y205499D02*
X120388D01*
X102500Y199199D02*
X120072D01*
X102500Y204599D02*
X118832D01*
X102500Y200099D02*
X118741D01*
X116687Y151499D02*
X118606D01*
X102500Y203699D02*
X118211D01*
X102500Y200999D02*
X118167D01*
X102500Y202799D02*
X117938D01*
X102500Y201899D02*
X117924D01*
X102500Y145199D02*
X117328D01*
X102500Y146099D02*
X116155D01*
X115046Y188399D02*
X116012D01*
X115372Y146999D02*
X115626D01*
X110227Y197399D02*
X114773D01*
X111471Y196499D02*
X113529D01*
X111651Y153299D02*
X113349D01*
X112175Y195599D02*
X112825D01*
X112285Y154199D02*
X112714D01*
X102500Y146999D02*
X112228D01*
X110571Y152399D02*
X111644D01*
X102500Y147899D02*
X111176D01*
X110003Y351299D02*
X111167D01*
X102500Y151499D02*
X110913D01*
X102500Y148799D02*
X110689D01*
X102500Y150599D02*
X110575D01*
X102500Y149699D02*
X110506D01*
X102500Y336899D02*
X108861D01*
X102500Y289199D02*
X108777D01*
X102500Y271199D02*
X108332D01*
X102500Y337799D02*
X107422D01*
X102500Y216299D02*
X107251D01*
X102500Y210899D02*
X106969D01*
X102500Y288299D02*
X106837D01*
X102500Y272099D02*
X106581D01*
X102508Y338699D02*
X106469D01*
X102500Y215399D02*
X106301D01*
X102500Y211799D02*
X106172D01*
X102500Y197399D02*
X105915D01*
X102500Y214499D02*
X105855D01*
X102500Y212699D02*
X105799D01*
X102566Y339599D02*
X105781D01*
X102500Y213599D02*
X105701D01*
X102500Y287399D02*
X105594D01*
X102500Y152399D02*
X105571D01*
X102500Y272999D02*
X105410D01*
X102677Y340499D02*
X105276D01*
X105175Y346799D02*
X105178D01*
X102844Y341399D02*
X104918D01*
X104602Y345899D02*
X104851D01*
X103068Y342299D02*
X104684D01*
X102500Y286499D02*
X104673D01*
X102500Y196499D02*
X104671D01*
X104113Y344999D02*
X104645D01*
X103351Y343199D02*
X104564D01*
X103698Y344099D02*
X104551D01*
X102500Y273899D02*
X104532D01*
X102500Y153299D02*
X104491D01*
X103323Y195599D02*
X103966D01*
X102500Y285599D02*
X103961D01*
X103553Y154199D02*
X103856D01*
X102500Y274799D02*
X103851D01*
X102500Y284699D02*
X103404D01*
X102500Y275699D02*
X103318D01*
X102500Y283799D02*
X102973D01*
X102500Y276599D02*
X102907D01*
X102500Y282899D02*
X102650D01*
X102500Y277499D02*
X102602D01*
G54D150*
X117700Y105700D03*
X172000Y105000D03*
X151500Y104500D03*
X223000Y115700D03*
X156300Y154000D03*
X174100Y148400D03*
X195800Y126900D03*
X215300Y146100D03*
X225000Y154000D03*
X233500Y130400D03*
X235000Y154000D03*
X269100Y138500D03*
X302300Y154200D03*
X318000Y155000D03*
X321000Y151000D03*
X330000Y154000D03*
X326000Y151000D03*
X323000Y146000D03*
Y142000D03*
X321000Y137000D03*
X326000D03*
X380200Y136600D03*
X379700Y124000D03*
X353200D03*
X390500Y154000D03*
X396100Y124700D03*
X429300Y150700D03*
X212300Y175500D03*
X225000Y164000D03*
X260900Y177100D03*
X243500Y179900D03*
X235000Y164000D03*
X287500Y168300D03*
X331900Y186600D03*
X385900Y183000D03*
X361300Y187600D03*
X369600Y162200D03*
X385900Y158000D03*
Y168000D03*
X422700Y196600D03*
X410000Y173900D03*
X442000Y195000D03*
X137700Y231600D03*
X110400Y227300D03*
X176000Y216600D03*
X170300Y231500D03*
X221500Y203200D03*
X207000Y236000D03*
X195400Y231000D03*
X190700Y231800D03*
X298700Y222400D03*
X369500Y212100D03*
X398200Y213600D03*
X422000Y236300D03*
X417900Y219600D03*
X462400Y228800D03*
X443000Y229000D03*
X437000Y223000D03*
X443000D03*
X440000Y226000D03*
X437000Y229000D03*
X459600Y207000D03*
X484200Y226000D03*
X488000Y211500D03*
X482900Y214100D03*
X116600Y260811D03*
X153600Y250200D03*
X173000Y266000D03*
X195000Y260800D03*
X188800Y257500D03*
X237800Y270700D03*
X265000Y256000D03*
X250300Y272500D03*
X242100Y239600D03*
X259000Y256000D03*
X265000Y262000D03*
X262000Y259000D03*
X259000Y262000D03*
X291300Y257500D03*
X274100Y238800D03*
X327200Y269100D03*
X340500Y265100D03*
X360500Y276100D03*
X418300Y238600D03*
X474800Y251300D03*
X116535Y300500D03*
X173100Y285600D03*
X155200Y285500D03*
X206200Y278300D03*
X186500Y287200D03*
X187800Y300500D03*
X206200Y296000D03*
X238800Y296500D03*
X230900Y295900D03*
X267600Y277700D03*
X296800Y313100D03*
X279100Y301100D03*
X287100Y283500D03*
X272000Y310800D03*
X308800Y293600D03*
X333000Y302000D03*
X350500Y304000D03*
X392600Y286900D03*
X138900Y349400D03*
X116500Y332600D03*
X171437Y328400D03*
X175300Y343000D03*
X165500Y332600D03*
X189200Y332800D03*
X216400Y337500D03*
X189100Y317500D03*
X244300Y351700D03*
X237500Y319600D03*
X239100Y342200D03*
X228700Y340900D03*
X291700Y318600D03*
X331000Y324200D03*
X341000Y324100D03*
X316700Y349000D03*
X331000Y349900D03*
X366500Y328900D03*
X366000Y351100D03*
X366700Y321000D03*
X386300Y325900D03*
G54D164*
X349000Y112000D03*
G54D165*
X397244Y344094D03*
X111811Y280118D03*
X304724Y111811D03*
G74*
X0Y0D02*
M02*
