*
*
G04 PADS 9.5 Build Number: 522968 generated Gerber (RS-274-X) file*
G04 PC Version=2.1*
*
%IN "PSDR.pcb"*%
*
%MOIN*%
*
%FSLAX35Y35*%
*
*
*
*
G04 PC Standard Apertures*
*
*
G04 Thermal Relief Aperture macro.*
%AMTER*
1,1,$1,0,0*
1,0,$1-$2,0,0*
21,0,$3,$4,0,0,45*
21,0,$3,$4,0,0,135*
%
*
*
G04 Annular Aperture macro.*
%AMANN*
1,1,$1,0,0*
1,0,$2,0,0*
%
*
*
G04 Odd Aperture macro.*
%AMODD*
1,1,$1,0,0*
1,0,$1-0.005,0,0*
%
*
*
G04 PC Custom Aperture Macros*
*
*
*
*
*
*
G04 PC Aperture Table*
*
%ADD010C,0.001*%
%ADD011C,0.008*%
%ADD012C,0.00787*%
%ADD013C,0.01575*%
%ADD035C,0.03*%
%ADD048C,0.07*%
%ADD072C,0.062*%
%ADD094C,0.00394*%
%ADD102O,0.03346X0.00984*%
%ADD103O,0.00984X0.03346*%
%ADD104C,0.01181*%
%ADD110C,0.016*%
%ADD146C,0.01*%
%ADD148C,0.076*%
%ADD149C,0.01969*%
%ADD150C,0.032*%
%ADD151C,0.22441*%
%ADD153C,0.014*%
%ADD166O,0.05512X0.01575*%
%ADD167O,0.0175X0.05906*%
%ADD169O,0.06102X0.01142*%
%ADD170O,0.01575X0.05906*%
%ADD173O,0.0175X0.0535*%
*
*
*
*
G04 PC Circuitry*
G04 Layer Name PSDR.pcb - circuitry*
%LPD*%
*
*
G04 PC Custom Flashes*
G04 Layer Name PSDR.pcb - flashes*
%LPD*%
*
*
G04 PC Circuitry*
G04 Layer Name PSDR.pcb - circuitry*
%LPD*%
*
G54D10*
G54D11*
G01X212900Y156850D02*
X215100D01*
Y154150*
X212900*
Y156850*
Y154400D02*
X215100D01*
X212900Y155200D02*
X215100D01*
X212900Y156000D02*
X215100D01*
X212900Y156800D02*
X215100D01*
X213600Y154150D02*
Y156850D01*
X214400Y154150D02*
Y156850D01*
X212900Y151850D02*
X215100D01*
Y149150*
X212900*
Y151850*
Y149600D02*
X215100D01*
X212900Y150400D02*
X215100D01*
X212900Y151200D02*
X215100D01*
X213600Y149150D02*
Y151850D01*
X214400Y149150D02*
Y151850D01*
X233900Y142850D02*
X236100D01*
Y140150*
X233900*
Y142850*
Y140800D02*
X236100D01*
X233900Y141600D02*
X236100D01*
X233900Y142400D02*
X236100D01*
X234400Y140150D02*
Y142850D01*
X235200Y140150D02*
Y142850D01*
X236000Y140150D02*
Y142850D01*
X233900Y137850D02*
X236100D01*
Y135150*
X233900*
Y137850*
Y135200D02*
X236100D01*
X233900Y136000D02*
X236100D01*
X233900Y136800D02*
X236100D01*
X233900Y137600D02*
X236100D01*
X234400Y135150D02*
Y137850D01*
X235200Y135150D02*
Y137850D01*
X236000Y135150D02*
Y137850D01*
X250900Y155850D02*
X253100D01*
Y153150*
X250900*
Y155850*
Y153600D02*
X253100D01*
X250900Y154400D02*
X253100D01*
X250900Y155200D02*
X253100D01*
X251200Y153150D02*
Y155850D01*
X252000Y153150D02*
Y155850D01*
X252800Y153150D02*
Y155850D01*
X250900Y150850D02*
X253100D01*
Y148150*
X250900*
Y150850*
Y148800D02*
X253100D01*
X250900Y149600D02*
X253100D01*
X250900Y150400D02*
X253100D01*
X251200Y148150D02*
Y150850D01*
X252000Y148150D02*
Y150850D01*
X252800Y148150D02*
Y150850D01*
X244900Y155850D02*
X247100D01*
Y153150*
X244900*
Y155850*
Y153600D02*
X247100D01*
X244900Y154400D02*
X247100D01*
X244900Y155200D02*
X247100D01*
X245600Y153150D02*
Y155850D01*
X246400Y153150D02*
Y155850D01*
X244900Y150850D02*
X247100D01*
Y148150*
X244900*
Y150850*
Y148800D02*
X247100D01*
X244900Y149600D02*
X247100D01*
X244900Y150400D02*
X247100D01*
X245600Y148150D02*
Y150850D01*
X246400Y148150D02*
Y150850D01*
X237150Y174900D02*
Y177100D01*
X239850*
Y174900*
X237150*
Y175200D02*
X239850D01*
X237150Y176000D02*
X239850D01*
X237150Y176800D02*
X239850D01*
X237600Y174900D02*
Y177100D01*
X238400Y174900D02*
Y177100D01*
X239200Y174900D02*
Y177100D01*
X242150Y174900D02*
Y177100D01*
X244850*
Y174900*
X242150*
Y175200D02*
X244850D01*
X242150Y176000D02*
X244850D01*
X242150Y176800D02*
X244850D01*
X242400Y174900D02*
Y177100D01*
X243200Y174900D02*
Y177100D01*
X244000Y174900D02*
Y177100D01*
X244800Y174900D02*
Y177100D01*
X206900Y161850D02*
X209100D01*
Y159150*
X206900*
Y161850*
Y159200D02*
X209100D01*
X206900Y160000D02*
X209100D01*
X206900Y160800D02*
X209100D01*
X206900Y161600D02*
X209100D01*
X207200Y159150D02*
Y161850D01*
X208000Y159150D02*
Y161850D01*
X208800Y159150D02*
Y161850D01*
X206900Y156850D02*
X209100D01*
Y154150*
X206900*
Y156850*
Y154400D02*
X209100D01*
X206900Y155200D02*
X209100D01*
X206900Y156000D02*
X209100D01*
X206900Y156800D02*
X209100D01*
X207200Y154150D02*
Y156850D01*
X208000Y154150D02*
Y156850D01*
X208800Y154150D02*
Y156850D01*
X203100Y154150D02*
X200900D01*
Y156850*
X203100*
Y154150*
X200900Y154400D02*
X203100D01*
X200900Y155200D02*
X203100D01*
X200900Y156000D02*
X203100D01*
X200900Y156800D02*
X203100D01*
X201600Y154150D02*
Y156850D01*
X202400Y154150D02*
Y156850D01*
X203100Y159150D02*
X200900D01*
Y161850*
X203100*
Y159150*
X200900Y159200D02*
X203100D01*
X200900Y160000D02*
X203100D01*
X200900Y160800D02*
X203100D01*
X200900Y161600D02*
X203100D01*
X201600Y159150D02*
Y161850D01*
X202400Y159150D02*
Y161850D01*
X249150Y161900D02*
Y164100D01*
X251850*
Y161900*
X249150*
Y162400D02*
X251850D01*
X249150Y163200D02*
X251850D01*
X249150Y164000D02*
X251850D01*
X249600Y161900D02*
Y164100D01*
X250400Y161900D02*
Y164100D01*
X251200Y161900D02*
Y164100D01*
X254150Y161900D02*
Y164100D01*
X256850*
Y161900*
X254150*
Y162400D02*
X256850D01*
X254150Y163200D02*
X256850D01*
X254150Y164000D02*
X256850D01*
X254400Y161900D02*
Y164100D01*
X255200Y161900D02*
Y164100D01*
X256000Y161900D02*
Y164100D01*
X256800Y161900D02*
Y164100D01*
X256850Y170100D02*
Y167900D01*
X254150*
Y170100*
X256850*
X254150Y168000D02*
X256850D01*
X254150Y168800D02*
X256850D01*
X254150Y169600D02*
X256850D01*
X254400Y167900D02*
Y170100D01*
X255200Y167900D02*
Y170100D01*
X256000Y167900D02*
Y170100D01*
X256800Y167900D02*
Y170100D01*
X251850D02*
Y167900D01*
X249150*
Y170100*
X251850*
X249150Y168000D02*
X251850D01*
X249150Y168800D02*
X251850D01*
X249150Y169600D02*
X251850D01*
X249600Y167900D02*
Y170100D01*
X250400Y167900D02*
Y170100D01*
X251200Y167900D02*
Y170100D01*
X423100Y214150D02*
X420900D01*
Y216850*
X423100*
Y214150*
X420900Y214400D02*
X423100D01*
X420900Y215200D02*
X423100D01*
X420900Y216000D02*
X423100D01*
X420900Y216800D02*
X423100D01*
X421600Y214150D02*
Y216850D01*
X422400Y214150D02*
Y216850D01*
X423100Y219150D02*
X420900D01*
Y221850*
X423100*
Y219150*
X420900Y219200D02*
X423100D01*
X420900Y220000D02*
X423100D01*
X420900Y220800D02*
X423100D01*
X420900Y221600D02*
X423100D01*
X421600Y219150D02*
Y221850D01*
X422400Y219150D02*
Y221850D01*
X190850Y237100D02*
Y234900D01*
X188150*
Y237100*
X190850*
X188150Y235200D02*
X190850D01*
X188150Y236000D02*
X190850D01*
X188150Y236800D02*
X190850D01*
X188800Y234900D02*
Y237100D01*
X189600Y234900D02*
Y237100D01*
X190400Y234900D02*
Y237100D01*
X185850D02*
Y234900D01*
X183150*
Y237100*
X185850*
X183150Y235200D02*
X185850D01*
X183150Y236000D02*
X185850D01*
X183150Y236800D02*
X185850D01*
X183200Y234900D02*
Y237100D01*
X184000Y234900D02*
Y237100D01*
X184800Y234900D02*
Y237100D01*
X185600Y234900D02*
Y237100D01*
X445850Y202100D02*
Y199900D01*
X443150*
Y202100*
X445850*
X443150Y200000D02*
X445850D01*
X443150Y200800D02*
X445850D01*
X443150Y201600D02*
X445850D01*
X443200Y199900D02*
Y202100D01*
X444000Y199900D02*
Y202100D01*
X444800Y199900D02*
Y202100D01*
X445600Y199900D02*
Y202100D01*
X440850D02*
Y199900D01*
X438150*
Y202100*
X440850*
X438150Y200000D02*
X440850D01*
X438150Y200800D02*
X440850D01*
X438150Y201600D02*
X440850D01*
X438400Y199900D02*
Y202100D01*
X439200Y199900D02*
Y202100D01*
X440000Y199900D02*
Y202100D01*
X440800Y199900D02*
Y202100D01*
X126150Y173900D02*
Y176100D01*
X128850*
Y173900*
X126150*
Y174400D02*
X128850D01*
X126150Y175200D02*
X128850D01*
X126150Y176000D02*
X128850D01*
X126400Y173900D02*
Y176100D01*
X127200Y173900D02*
Y176100D01*
X128000Y173900D02*
Y176100D01*
X128800Y173900D02*
Y176100D01*
X131150Y173900D02*
Y176100D01*
X133850*
Y173900*
X131150*
Y174400D02*
X133850D01*
X131150Y175200D02*
X133850D01*
X131150Y176000D02*
X133850D01*
X131200Y173900D02*
Y176100D01*
X132000Y173900D02*
Y176100D01*
X132800Y173900D02*
Y176100D01*
X133600Y173900D02*
Y176100D01*
X126150Y167900D02*
Y170100D01*
X128850*
Y167900*
X126150*
Y168000D02*
X128850D01*
X126150Y168800D02*
X128850D01*
X126150Y169600D02*
X128850D01*
X126400Y167900D02*
Y170100D01*
X127200Y167900D02*
Y170100D01*
X128000Y167900D02*
Y170100D01*
X128800Y167900D02*
Y170100D01*
X131150Y167900D02*
Y170100D01*
X133850*
Y167900*
X131150*
Y168000D02*
X133850D01*
X131150Y168800D02*
X133850D01*
X131150Y169600D02*
X133850D01*
X131200Y167900D02*
Y170100D01*
X132000Y167900D02*
Y170100D01*
X132800Y167900D02*
Y170100D01*
X133600Y167900D02*
Y170100D01*
X195150Y294900D02*
Y297100D01*
X197850*
Y294900*
X195150*
Y295200D02*
X197850D01*
X195150Y296000D02*
X197850D01*
X195150Y296800D02*
X197850D01*
X195200Y294900D02*
Y297100D01*
X196000Y294900D02*
Y297100D01*
X196800Y294900D02*
Y297100D01*
X197600Y294900D02*
Y297100D01*
X200150Y294900D02*
Y297100D01*
X202850*
Y294900*
X200150*
Y295200D02*
X202850D01*
X200150Y296000D02*
X202850D01*
X200150Y296800D02*
X202850D01*
X200800Y294900D02*
Y297100D01*
X201600Y294900D02*
Y297100D01*
X202400Y294900D02*
Y297100D01*
X329150Y278900D02*
Y281100D01*
X331850*
Y278900*
X329150*
Y279200D02*
X331850D01*
X329150Y280000D02*
X331850D01*
X329150Y280800D02*
X331850D01*
X329600Y278900D02*
Y281100D01*
X330400Y278900D02*
Y281100D01*
X331200Y278900D02*
Y281100D01*
X334150Y278900D02*
Y281100D01*
X336850*
Y278900*
X334150*
Y279200D02*
X336850D01*
X334150Y280000D02*
X336850D01*
X334150Y280800D02*
X336850D01*
X334400Y278900D02*
Y281100D01*
X335200Y278900D02*
Y281100D01*
X336000Y278900D02*
Y281100D01*
X336800Y278900D02*
Y281100D01*
X185850Y284100D02*
Y281900D01*
X183150*
Y284100*
X185850*
X183150Y282400D02*
X185850D01*
X183150Y283200D02*
X185850D01*
X183150Y284000D02*
X185850D01*
X183200Y281900D02*
Y284100D01*
X184000Y281900D02*
Y284100D01*
X184800Y281900D02*
Y284100D01*
X185600Y281900D02*
Y284100D01*
X180850D02*
Y281900D01*
X178150*
Y284100*
X180850*
X178150Y282400D02*
X180850D01*
X178150Y283200D02*
X180850D01*
X178150Y284000D02*
X180850D01*
X178400Y281900D02*
Y284100D01*
X179200Y281900D02*
Y284100D01*
X180000Y281900D02*
Y284100D01*
X180800Y281900D02*
Y284100D01*
X336850Y259100D02*
Y256900D01*
X334150*
Y259100*
X336850*
X334150Y257600D02*
X336850D01*
X334150Y258400D02*
X336850D01*
X334400Y256900D02*
Y259100D01*
X335200Y256900D02*
Y259100D01*
X336000Y256900D02*
Y259100D01*
X336800Y256900D02*
Y259100D01*
X331850D02*
Y256900D01*
X329150*
Y259100*
X331850*
X329150Y257600D02*
X331850D01*
X329150Y258400D02*
X331850D01*
X329600Y256900D02*
Y259100D01*
X330400Y256900D02*
Y259100D01*
X331200Y256900D02*
Y259100D01*
X222100Y135150D02*
X219900D01*
Y137850*
X222100*
Y135150*
X219900Y135200D02*
X222100D01*
X219900Y136000D02*
X222100D01*
X219900Y136800D02*
X222100D01*
X219900Y137600D02*
X222100D01*
X220000Y135150D02*
Y137850D01*
X220800Y135150D02*
Y137850D01*
X221600Y135150D02*
Y137850D01*
X222100Y140150D02*
X219900D01*
Y142850*
X222100*
Y140150*
X219900Y140800D02*
X222100D01*
X219900Y141600D02*
X222100D01*
X219900Y142400D02*
X222100D01*
X220000Y140150D02*
Y142850D01*
X220800Y140150D02*
Y142850D01*
X221600Y140150D02*
Y142850D01*
X226900D02*
X229100D01*
Y140150*
X226900*
Y142850*
Y140800D02*
X229100D01*
X226900Y141600D02*
X229100D01*
X226900Y142400D02*
X229100D01*
X227200Y140150D02*
Y142850D01*
X228000Y140150D02*
Y142850D01*
X228800Y140150D02*
Y142850D01*
X226900Y137850D02*
X229100D01*
Y135150*
X226900*
Y137850*
Y135200D02*
X229100D01*
X226900Y136000D02*
X229100D01*
X226900Y136800D02*
X229100D01*
X226900Y137600D02*
X229100D01*
X227200Y135150D02*
Y137850D01*
X228000Y135150D02*
Y137850D01*
X228800Y135150D02*
Y137850D01*
X288900Y152850D02*
X291100D01*
Y150150*
X288900*
Y152850*
Y150400D02*
X291100D01*
X288900Y151200D02*
X291100D01*
X288900Y152000D02*
X291100D01*
X288900Y152800D02*
X291100D01*
X289600Y150150D02*
Y152850D01*
X290400Y150150D02*
Y152850D01*
X288900Y147850D02*
X291100D01*
Y145150*
X288900*
Y147850*
Y145600D02*
X291100D01*
X288900Y146400D02*
X291100D01*
X288900Y147200D02*
X291100D01*
X289600Y145150D02*
Y147850D01*
X290400Y145150D02*
Y147850D01*
X291100Y157150D02*
X288900D01*
Y159850*
X291100*
Y157150*
X288900Y157600D02*
X291100D01*
X288900Y158400D02*
X291100D01*
X288900Y159200D02*
X291100D01*
X289600Y157150D02*
Y159850D01*
X290400Y157150D02*
Y159850D01*
X291100Y162150D02*
X288900D01*
Y164850*
X291100*
Y162150*
X288900Y162400D02*
X291100D01*
X288900Y163200D02*
X291100D01*
X288900Y164000D02*
X291100D01*
X288900Y164800D02*
X291100D01*
X289600Y162150D02*
Y164850D01*
X290400Y162150D02*
Y164850D01*
X263900Y142850D02*
X266100D01*
Y140150*
X263900*
Y142850*
Y140800D02*
X266100D01*
X263900Y141600D02*
X266100D01*
X263900Y142400D02*
X266100D01*
X264000Y140150D02*
Y142850D01*
X264800Y140150D02*
Y142850D01*
X265600Y140150D02*
Y142850D01*
X263900Y137850D02*
X266100D01*
Y135150*
X263900*
Y137850*
Y135200D02*
X266100D01*
X263900Y136000D02*
X266100D01*
X263900Y136800D02*
X266100D01*
X263900Y137600D02*
X266100D01*
X264000Y135150D02*
Y137850D01*
X264800Y135150D02*
Y137850D01*
X265600Y135150D02*
Y137850D01*
X203100Y169150D02*
X200900D01*
Y171850*
X203100*
Y169150*
X200900Y169600D02*
X203100D01*
X200900Y170400D02*
X203100D01*
X200900Y171200D02*
X203100D01*
X201600Y169150D02*
Y171850D01*
X202400Y169150D02*
Y171850D01*
X203100Y174150D02*
X200900D01*
Y176850*
X203100*
Y174150*
X200900Y174400D02*
X203100D01*
X200900Y175200D02*
X203100D01*
X200900Y176000D02*
X203100D01*
X200900Y176800D02*
X203100D01*
X201600Y174150D02*
Y176850D01*
X202400Y174150D02*
Y176850D01*
X257900Y142850D02*
X260100D01*
Y140150*
X257900*
Y142850*
Y140800D02*
X260100D01*
X257900Y141600D02*
X260100D01*
X257900Y142400D02*
X260100D01*
X258400Y140150D02*
Y142850D01*
X259200Y140150D02*
Y142850D01*
X260000Y140150D02*
Y142850D01*
X257900Y137850D02*
X260100D01*
Y135150*
X257900*
Y137850*
Y135200D02*
X260100D01*
X257900Y136000D02*
X260100D01*
X257900Y136800D02*
X260100D01*
X257900Y137600D02*
X260100D01*
X258400Y135150D02*
Y137850D01*
X259200Y135150D02*
Y137850D01*
X260000Y135150D02*
Y137850D01*
X209100Y169150D02*
X206900D01*
Y171850*
X209100*
Y169150*
X206900Y169600D02*
X209100D01*
X206900Y170400D02*
X209100D01*
X206900Y171200D02*
X209100D01*
X207200Y169150D02*
Y171850D01*
X208000Y169150D02*
Y171850D01*
X208800Y169150D02*
Y171850D01*
X209100Y174150D02*
X206900D01*
Y176850*
X209100*
Y174150*
X206900Y174400D02*
X209100D01*
X206900Y175200D02*
X209100D01*
X206900Y176000D02*
X209100D01*
X206900Y176800D02*
X209100D01*
X207200Y174150D02*
Y176850D01*
X208000Y174150D02*
Y176850D01*
X208800Y174150D02*
Y176850D01*
X217850Y182100D02*
Y179900D01*
X215150*
Y182100*
X217850*
X215150Y180000D02*
X217850D01*
X215150Y180800D02*
X217850D01*
X215150Y181600D02*
X217850D01*
X215200Y179900D02*
Y182100D01*
X216000Y179900D02*
Y182100D01*
X216800Y179900D02*
Y182100D01*
X217600Y179900D02*
Y182100D01*
X212850D02*
Y179900D01*
X210150*
Y182100*
X212850*
X210150Y180000D02*
X212850D01*
X210150Y180800D02*
X212850D01*
X210150Y181600D02*
X212850D01*
X210400Y179900D02*
Y182100D01*
X211200Y179900D02*
Y182100D01*
X212000Y179900D02*
Y182100D01*
X212800Y179900D02*
Y182100D01*
X249850Y281100D02*
Y278900D01*
X247150*
Y281100*
X249850*
X247150Y279200D02*
X249850D01*
X247150Y280000D02*
X249850D01*
X247150Y280800D02*
X249850D01*
X247200Y278900D02*
Y281100D01*
X248000Y278900D02*
Y281100D01*
X248800Y278900D02*
Y281100D01*
X249600Y278900D02*
Y281100D01*
X244850D02*
Y278900D01*
X242150*
Y281100*
X244850*
X242150Y279200D02*
X244850D01*
X242150Y280000D02*
X244850D01*
X242150Y280800D02*
X244850D01*
X242400Y278900D02*
Y281100D01*
X243200Y278900D02*
Y281100D01*
X244000Y278900D02*
Y281100D01*
X244800Y278900D02*
Y281100D01*
X249850Y326100D02*
Y323900D01*
X247150*
Y326100*
X249850*
X247150Y324000D02*
X249850D01*
X247150Y324800D02*
X249850D01*
X247150Y325600D02*
X249850D01*
X247200Y323900D02*
Y326100D01*
X248000Y323900D02*
Y326100D01*
X248800Y323900D02*
Y326100D01*
X249600Y323900D02*
Y326100D01*
X244850D02*
Y323900D01*
X242150*
Y326100*
X244850*
X242150Y324000D02*
X244850D01*
X242150Y324800D02*
X244850D01*
X242150Y325600D02*
X244850D01*
X242400Y323900D02*
Y326100D01*
X243200Y323900D02*
Y326100D01*
X244000Y323900D02*
Y326100D01*
X244800Y323900D02*
Y326100D01*
X147100Y338150D02*
X144900D01*
Y340850*
X147100*
Y338150*
X144900Y338400D02*
X147100D01*
X144900Y339200D02*
X147100D01*
X144900Y340000D02*
X147100D01*
X144900Y340800D02*
X147100D01*
X145600Y338150D02*
Y340850D01*
X146400Y338150D02*
Y340850D01*
X147100Y343150D02*
X144900D01*
Y345850*
X147100*
Y343150*
X144900Y343200D02*
X147100D01*
X144900Y344000D02*
X147100D01*
X144900Y344800D02*
X147100D01*
X144900Y345600D02*
X147100D01*
X145600Y343150D02*
Y345850D01*
X146400Y343150D02*
Y345850D01*
X409900Y139850D02*
X412100D01*
Y137150*
X409900*
Y139850*
Y137600D02*
X412100D01*
X409900Y138400D02*
X412100D01*
X409900Y139200D02*
X412100D01*
X410400Y137150D02*
Y139850D01*
X411200Y137150D02*
Y139850D01*
X412000Y137150D02*
Y139850D01*
X409900Y134850D02*
X412100D01*
Y132150*
X409900*
Y134850*
Y132800D02*
X412100D01*
X409900Y133600D02*
X412100D01*
X409900Y134400D02*
X412100D01*
X410400Y132150D02*
Y134850D01*
X411200Y132150D02*
Y134850D01*
X412000Y132150D02*
Y134850D01*
X287100Y191150D02*
X284900D01*
Y193850*
X287100*
Y191150*
X284900Y191200D02*
X287100D01*
X284900Y192000D02*
X287100D01*
X284900Y192800D02*
X287100D01*
X284900Y193600D02*
X287100D01*
X285600Y191150D02*
Y193850D01*
X286400Y191150D02*
Y193850D01*
X287100Y196150D02*
X284900D01*
Y198850*
X287100*
Y196150*
X284900Y196800D02*
X287100D01*
X284900Y197600D02*
X287100D01*
X284900Y198400D02*
X287100D01*
X285600Y196150D02*
Y198850D01*
X286400Y196150D02*
Y198850D01*
X280100Y191150D02*
X277900D01*
Y193850*
X280100*
Y191150*
X277900Y191200D02*
X280100D01*
X277900Y192000D02*
X280100D01*
X277900Y192800D02*
X280100D01*
X277900Y193600D02*
X280100D01*
X278400Y191150D02*
Y193850D01*
X279200Y191150D02*
Y193850D01*
X280000Y191150D02*
Y193850D01*
X280100Y196150D02*
X277900D01*
Y198850*
X280100*
Y196150*
X277900Y196800D02*
X280100D01*
X277900Y197600D02*
X280100D01*
X277900Y198400D02*
X280100D01*
X278400Y196150D02*
Y198850D01*
X279200Y196150D02*
Y198850D01*
X280000Y196150D02*
Y198850D01*
X276150Y261900D02*
Y264100D01*
X278850*
Y261900*
X276150*
Y262400D02*
X278850D01*
X276150Y263200D02*
X278850D01*
X276150Y264000D02*
X278850D01*
X276800Y261900D02*
Y264100D01*
X277600Y261900D02*
Y264100D01*
X278400Y261900D02*
Y264100D01*
X281150Y261900D02*
Y264100D01*
X283850*
Y261900*
X281150*
Y262400D02*
X283850D01*
X281150Y263200D02*
X283850D01*
X281150Y264000D02*
X283850D01*
X281600Y261900D02*
Y264100D01*
X282400Y261900D02*
Y264100D01*
X283200Y261900D02*
Y264100D01*
X276150Y255900D02*
Y258100D01*
X278850*
Y255900*
X276150*
Y256000D02*
X278850D01*
X276150Y256800D02*
X278850D01*
X276150Y257600D02*
X278850D01*
X276800Y255900D02*
Y258100D01*
X277600Y255900D02*
Y258100D01*
X278400Y255900D02*
Y258100D01*
X281150Y255900D02*
Y258100D01*
X283850*
Y255900*
X281150*
Y256000D02*
X283850D01*
X281150Y256800D02*
X283850D01*
X281150Y257600D02*
X283850D01*
X281600Y255900D02*
Y258100D01*
X282400Y255900D02*
Y258100D01*
X283200Y255900D02*
Y258100D01*
X263900Y244850D02*
X266100D01*
Y242150*
X263900*
Y244850*
Y242400D02*
X266100D01*
X263900Y243200D02*
X266100D01*
X263900Y244000D02*
X266100D01*
X263900Y244800D02*
X266100D01*
X264000Y242150D02*
Y244850D01*
X264800Y242150D02*
Y244850D01*
X265600Y242150D02*
Y244850D01*
X263900Y239850D02*
X266100D01*
Y237150*
X263900*
Y239850*
Y237600D02*
X266100D01*
X263900Y238400D02*
X266100D01*
X263900Y239200D02*
X266100D01*
X264000Y237150D02*
Y239850D01*
X264800Y237150D02*
Y239850D01*
X265600Y237150D02*
Y239850D01*
X257900Y244850D02*
X260100D01*
Y242150*
X257900*
Y244850*
Y242400D02*
X260100D01*
X257900Y243200D02*
X260100D01*
X257900Y244000D02*
X260100D01*
X257900Y244800D02*
X260100D01*
X258400Y242150D02*
Y244850D01*
X259200Y242150D02*
Y244850D01*
X260000Y242150D02*
Y244850D01*
X257900Y239850D02*
X260100D01*
Y237150*
X257900*
Y239850*
Y237600D02*
X260100D01*
X257900Y238400D02*
X260100D01*
X257900Y239200D02*
X260100D01*
X258400Y237150D02*
Y239850D01*
X259200Y237150D02*
Y239850D01*
X260000Y237150D02*
Y239850D01*
X243850Y251100D02*
Y248900D01*
X241150*
Y251100*
X243850*
X241150Y249600D02*
X243850D01*
X241150Y250400D02*
X243850D01*
X241600Y248900D02*
Y251100D01*
X242400Y248900D02*
Y251100D01*
X243200Y248900D02*
Y251100D01*
X238850D02*
Y248900D01*
X236150*
Y251100*
X238850*
X236150Y249600D02*
X238850D01*
X236150Y250400D02*
X238850D01*
X236800Y248900D02*
Y251100D01*
X237600Y248900D02*
Y251100D01*
X238400Y248900D02*
Y251100D01*
X247100Y263150D02*
X244900D01*
Y265850*
X247100*
Y263150*
X244900Y263200D02*
X247100D01*
X244900Y264000D02*
X247100D01*
X244900Y264800D02*
X247100D01*
X244900Y265600D02*
X247100D01*
X245600Y263150D02*
Y265850D01*
X246400Y263150D02*
Y265850D01*
X247100Y268150D02*
X244900D01*
Y270850*
X247100*
Y268150*
X244900Y268800D02*
X247100D01*
X244900Y269600D02*
X247100D01*
X244900Y270400D02*
X247100D01*
X245600Y268150D02*
Y270850D01*
X246400Y268150D02*
Y270850D01*
X378150Y309900D02*
Y312100D01*
X380850*
Y309900*
X378150*
Y310400D02*
X380850D01*
X378150Y311200D02*
X380850D01*
X378150Y312000D02*
X380850D01*
X378400Y309900D02*
Y312100D01*
X379200Y309900D02*
Y312100D01*
X380000Y309900D02*
Y312100D01*
X380800Y309900D02*
Y312100D01*
X383150Y309900D02*
Y312100D01*
X385850*
Y309900*
X383150*
Y310400D02*
X385850D01*
X383150Y311200D02*
X385850D01*
X383150Y312000D02*
X385850D01*
X383200Y309900D02*
Y312100D01*
X384000Y309900D02*
Y312100D01*
X384800Y309900D02*
Y312100D01*
X385600Y309900D02*
Y312100D01*
X374100Y300150D02*
X371900D01*
Y302850*
X374100*
Y300150*
X371900Y300800D02*
X374100D01*
X371900Y301600D02*
X374100D01*
X371900Y302400D02*
X374100D01*
X372000Y300150D02*
Y302850D01*
X372800Y300150D02*
Y302850D01*
X373600Y300150D02*
Y302850D01*
X374100Y305150D02*
X371900D01*
Y307850*
X374100*
Y305150*
X371900Y305600D02*
X374100D01*
X371900Y306400D02*
X374100D01*
X371900Y307200D02*
X374100D01*
X372000Y305150D02*
Y307850D01*
X372800Y305150D02*
Y307850D01*
X373600Y305150D02*
Y307850D01*
X289900Y233850D02*
X292100D01*
Y231150*
X289900*
Y233850*
Y231200D02*
X292100D01*
X289900Y232000D02*
X292100D01*
X289900Y232800D02*
X292100D01*
X289900Y233600D02*
X292100D01*
X290400Y231150D02*
Y233850D01*
X291200Y231150D02*
Y233850D01*
X292000Y231150D02*
Y233850D01*
X289900Y228850D02*
X292100D01*
Y226150*
X289900*
Y228850*
Y226400D02*
X292100D01*
X289900Y227200D02*
X292100D01*
X289900Y228000D02*
X292100D01*
X289900Y228800D02*
X292100D01*
X290400Y226150D02*
Y228850D01*
X291200Y226150D02*
Y228850D01*
X292000Y226150D02*
Y228850D01*
X411100Y162150D02*
X408900D01*
Y164850*
X411100*
Y162150*
X408900Y162400D02*
X411100D01*
X408900Y163200D02*
X411100D01*
X408900Y164000D02*
X411100D01*
X408900Y164800D02*
X411100D01*
X409600Y162150D02*
Y164850D01*
X410400Y162150D02*
Y164850D01*
X411100Y167150D02*
X408900D01*
Y169850*
X411100*
Y167150*
X408900Y167200D02*
X411100D01*
X408900Y168000D02*
X411100D01*
X408900Y168800D02*
X411100D01*
X408900Y169600D02*
X411100D01*
X409600Y167150D02*
Y169850D01*
X410400Y167150D02*
Y169850D01*
X420900Y232850D02*
X423100D01*
Y230150*
X420900*
Y232850*
Y230400D02*
X423100D01*
X420900Y231200D02*
X423100D01*
X420900Y232000D02*
X423100D01*
X420900Y232800D02*
X423100D01*
X421600Y230150D02*
Y232850D01*
X422400Y230150D02*
Y232850D01*
X420900Y227850D02*
X423100D01*
Y225150*
X420900*
Y227850*
Y225600D02*
X423100D01*
X420900Y226400D02*
X423100D01*
X420900Y227200D02*
X423100D01*
X421600Y225150D02*
Y227850D01*
X422400Y225150D02*
Y227850D01*
X316850Y180100D02*
Y177900D01*
X314150*
Y180100*
X316850*
X314150Y178400D02*
X316850D01*
X314150Y179200D02*
X316850D01*
X314150Y180000D02*
X316850D01*
X314400Y177900D02*
Y180100D01*
X315200Y177900D02*
Y180100D01*
X316000Y177900D02*
Y180100D01*
X316800Y177900D02*
Y180100D01*
X311850D02*
Y177900D01*
X309150*
Y180100*
X311850*
X309150Y178400D02*
X311850D01*
X309150Y179200D02*
X311850D01*
X309150Y180000D02*
X311850D01*
X309600Y177900D02*
Y180100D01*
X310400Y177900D02*
Y180100D01*
X311200Y177900D02*
Y180100D01*
X316850Y174100D02*
Y171900D01*
X314150*
Y174100*
X316850*
X314150Y172000D02*
X316850D01*
X314150Y172800D02*
X316850D01*
X314150Y173600D02*
X316850D01*
X314400Y171900D02*
Y174100D01*
X315200Y171900D02*
Y174100D01*
X316000Y171900D02*
Y174100D01*
X316800Y171900D02*
Y174100D01*
X311850D02*
Y171900D01*
X309150*
Y174100*
X311850*
X309150Y172000D02*
X311850D01*
X309150Y172800D02*
X311850D01*
X309150Y173600D02*
X311850D01*
X309600Y171900D02*
Y174100D01*
X310400Y171900D02*
Y174100D01*
X311200Y171900D02*
Y174100D01*
X316850Y168100D02*
Y165900D01*
X314150*
Y168100*
X316850*
X314150Y166400D02*
X316850D01*
X314150Y167200D02*
X316850D01*
X314150Y168000D02*
X316850D01*
X314400Y165900D02*
Y168100D01*
X315200Y165900D02*
Y168100D01*
X316000Y165900D02*
Y168100D01*
X316800Y165900D02*
Y168100D01*
X311850D02*
Y165900D01*
X309150*
Y168100*
X311850*
X309150Y166400D02*
X311850D01*
X309150Y167200D02*
X311850D01*
X309150Y168000D02*
X311850D01*
X309600Y165900D02*
Y168100D01*
X310400Y165900D02*
Y168100D01*
X311200Y165900D02*
Y168100D01*
X207900Y263850D02*
X210100D01*
Y261150*
X207900*
Y263850*
Y261600D02*
X210100D01*
X207900Y262400D02*
X210100D01*
X207900Y263200D02*
X210100D01*
X208000Y261150D02*
Y263850D01*
X208800Y261150D02*
Y263850D01*
X209600Y261150D02*
Y263850D01*
X207900Y258850D02*
X210100D01*
Y256150*
X207900*
Y258850*
Y256800D02*
X210100D01*
X207900Y257600D02*
X210100D01*
X207900Y258400D02*
X210100D01*
X208000Y256150D02*
Y258850D01*
X208800Y256150D02*
Y258850D01*
X209600Y256150D02*
Y258850D01*
X209900Y321850D02*
X212100D01*
Y319150*
X209900*
Y321850*
Y319200D02*
X212100D01*
X209900Y320000D02*
X212100D01*
X209900Y320800D02*
X212100D01*
X209900Y321600D02*
X212100D01*
X210400Y319150D02*
Y321850D01*
X211200Y319150D02*
Y321850D01*
X212000Y319150D02*
Y321850D01*
X209900Y316850D02*
X212100D01*
Y314150*
X209900*
Y316850*
Y314400D02*
X212100D01*
X209900Y315200D02*
X212100D01*
X209900Y316000D02*
X212100D01*
X209900Y316800D02*
X212100D01*
X210400Y314150D02*
Y316850D01*
X211200Y314150D02*
Y316850D01*
X212000Y314150D02*
Y316850D01*
X185850Y344100D02*
Y341900D01*
X183150*
Y344100*
X185850*
X183150Y342400D02*
X185850D01*
X183150Y343200D02*
X185850D01*
X183150Y344000D02*
X185850D01*
X183200Y341900D02*
Y344100D01*
X184000Y341900D02*
Y344100D01*
X184800Y341900D02*
Y344100D01*
X185600Y341900D02*
Y344100D01*
X180850D02*
Y341900D01*
X178150*
Y344100*
X180850*
X178150Y342400D02*
X180850D01*
X178150Y343200D02*
X180850D01*
X178150Y344000D02*
X180850D01*
X178400Y341900D02*
Y344100D01*
X179200Y341900D02*
Y344100D01*
X180000Y341900D02*
Y344100D01*
X180800Y341900D02*
Y344100D01*
X178150Y263900D02*
Y266100D01*
X180850*
Y263900*
X178150*
Y264000D02*
X180850D01*
X178150Y264800D02*
X180850D01*
X178150Y265600D02*
X180850D01*
X178400Y263900D02*
Y266100D01*
X179200Y263900D02*
Y266100D01*
X180000Y263900D02*
Y266100D01*
X180800Y263900D02*
Y266100D01*
X183150Y263900D02*
Y266100D01*
X185850*
Y263900*
X183150*
Y264000D02*
X185850D01*
X183150Y264800D02*
X185850D01*
X183150Y265600D02*
X185850D01*
X183200Y263900D02*
Y266100D01*
X184000Y263900D02*
Y266100D01*
X184800Y263900D02*
Y266100D01*
X185600Y263900D02*
Y266100D01*
X486900Y207850D02*
X489100D01*
Y205150*
X486900*
Y207850*
Y205600D02*
X489100D01*
X486900Y206400D02*
X489100D01*
X486900Y207200D02*
X489100D01*
X487200Y205150D02*
Y207850D01*
X488000Y205150D02*
Y207850D01*
X488800Y205150D02*
Y207850D01*
X486900Y202850D02*
X489100D01*
Y200150*
X486900*
Y202850*
Y200800D02*
X489100D01*
X486900Y201600D02*
X489100D01*
X486900Y202400D02*
X489100D01*
X487200Y200150D02*
Y202850D01*
X488000Y200150D02*
Y202850D01*
X488800Y200150D02*
Y202850D01*
X209900Y333850D02*
X212100D01*
Y331150*
X209900*
Y333850*
Y331200D02*
X212100D01*
X209900Y332000D02*
X212100D01*
X209900Y332800D02*
X212100D01*
X209900Y333600D02*
X212100D01*
X210400Y331150D02*
Y333850D01*
X211200Y331150D02*
Y333850D01*
X212000Y331150D02*
Y333850D01*
X209900Y328850D02*
X212100D01*
Y326150*
X209900*
Y328850*
Y326400D02*
X212100D01*
X209900Y327200D02*
X212100D01*
X209900Y328000D02*
X212100D01*
X209900Y328800D02*
X212100D01*
X210400Y326150D02*
Y328850D01*
X211200Y326150D02*
Y328850D01*
X212000Y326150D02*
Y328850D01*
X455150Y212900D02*
Y215100D01*
X457850*
Y212900*
X455150*
Y213600D02*
X457850D01*
X455150Y214400D02*
X457850D01*
X455200Y212900D02*
Y215100D01*
X456000Y212900D02*
Y215100D01*
X456800Y212900D02*
Y215100D01*
X457600Y212900D02*
Y215100D01*
X460150Y212900D02*
Y215100D01*
X462850*
Y212900*
X460150*
Y213600D02*
X462850D01*
X460150Y214400D02*
X462850D01*
X460800Y212900D02*
Y215100D01*
X461600Y212900D02*
Y215100D01*
X462400Y212900D02*
Y215100D01*
X442100Y247150D02*
X439900D01*
Y249850*
X442100*
Y247150*
X439900Y247200D02*
X442100D01*
X439900Y248000D02*
X442100D01*
X439900Y248800D02*
X442100D01*
X439900Y249600D02*
X442100D01*
X440000Y247150D02*
Y249850D01*
X440800Y247150D02*
Y249850D01*
X441600Y247150D02*
Y249850D01*
X442100Y252150D02*
X439900D01*
Y254850*
X442100*
Y252150*
X439900Y252800D02*
X442100D01*
X439900Y253600D02*
X442100D01*
X439900Y254400D02*
X442100D01*
X440000Y252150D02*
Y254850D01*
X440800Y252150D02*
Y254850D01*
X441600Y252150D02*
Y254850D01*
X241900Y291850D02*
X244100D01*
Y289150*
X241900*
Y291850*
Y289600D02*
X244100D01*
X241900Y290400D02*
X244100D01*
X241900Y291200D02*
X244100D01*
X242400Y289150D02*
Y291850D01*
X243200Y289150D02*
Y291850D01*
X244000Y289150D02*
Y291850D01*
X241900Y286850D02*
X244100D01*
Y284150*
X241900*
Y286850*
Y284800D02*
X244100D01*
X241900Y285600D02*
X244100D01*
X241900Y286400D02*
X244100D01*
X242400Y284150D02*
Y286850D01*
X243200Y284150D02*
Y286850D01*
X244000Y284150D02*
Y286850D01*
X232850Y281100D02*
Y278900D01*
X230150*
Y281100*
X232850*
X230150Y279200D02*
X232850D01*
X230150Y280000D02*
X232850D01*
X230150Y280800D02*
X232850D01*
X230400Y278900D02*
Y281100D01*
X231200Y278900D02*
Y281100D01*
X232000Y278900D02*
Y281100D01*
X232800Y278900D02*
Y281100D01*
X227850D02*
Y278900D01*
X225150*
Y281100*
X227850*
X225150Y279200D02*
X227850D01*
X225150Y280000D02*
X227850D01*
X225150Y280800D02*
X227850D01*
X225600Y278900D02*
Y281100D01*
X226400Y278900D02*
Y281100D01*
X227200Y278900D02*
Y281100D01*
X219900Y291850D02*
X222100D01*
Y289150*
X219900*
Y291850*
Y289600D02*
X222100D01*
X219900Y290400D02*
X222100D01*
X219900Y291200D02*
X222100D01*
X220000Y289150D02*
Y291850D01*
X220800Y289150D02*
Y291850D01*
X221600Y289150D02*
Y291850D01*
X219900Y286850D02*
X222100D01*
Y284150*
X219900*
Y286850*
Y284800D02*
X222100D01*
X219900Y285600D02*
X222100D01*
X219900Y286400D02*
X222100D01*
X220000Y284150D02*
Y286850D01*
X220800Y284150D02*
Y286850D01*
X221600Y284150D02*
Y286850D01*
X241900Y336850D02*
X244100D01*
Y334150*
X241900*
Y336850*
Y334400D02*
X244100D01*
X241900Y335200D02*
X244100D01*
X241900Y336000D02*
X244100D01*
X241900Y336800D02*
X244100D01*
X242400Y334150D02*
Y336850D01*
X243200Y334150D02*
Y336850D01*
X244000Y334150D02*
Y336850D01*
X241900Y331850D02*
X244100D01*
Y329150*
X241900*
Y331850*
Y329600D02*
X244100D01*
X241900Y330400D02*
X244100D01*
X241900Y331200D02*
X244100D01*
X242400Y329150D02*
Y331850D01*
X243200Y329150D02*
Y331850D01*
X244000Y329150D02*
Y331850D01*
X232850Y326100D02*
Y323900D01*
X230150*
Y326100*
X232850*
X230150Y324000D02*
X232850D01*
X230150Y324800D02*
X232850D01*
X230150Y325600D02*
X232850D01*
X230400Y323900D02*
Y326100D01*
X231200Y323900D02*
Y326100D01*
X232000Y323900D02*
Y326100D01*
X232800Y323900D02*
Y326100D01*
X227850D02*
Y323900D01*
X225150*
Y326100*
X227850*
X225150Y324000D02*
X227850D01*
X225150Y324800D02*
X227850D01*
X225150Y325600D02*
X227850D01*
X225600Y323900D02*
Y326100D01*
X226400Y323900D02*
Y326100D01*
X227200Y323900D02*
Y326100D01*
X249900Y225850D02*
X252100D01*
Y223150*
X249900*
Y225850*
Y223200D02*
X252100D01*
X249900Y224000D02*
X252100D01*
X249900Y224800D02*
X252100D01*
X249900Y225600D02*
X252100D01*
X250400Y223150D02*
Y225850D01*
X251200Y223150D02*
Y225850D01*
X252000Y223150D02*
Y225850D01*
X249900Y220850D02*
X252100D01*
Y218150*
X249900*
Y220850*
Y218400D02*
X252100D01*
X249900Y219200D02*
X252100D01*
X249900Y220000D02*
X252100D01*
X249900Y220800D02*
X252100D01*
X250400Y218150D02*
Y220850D01*
X251200Y218150D02*
Y220850D01*
X252000Y218150D02*
Y220850D01*
X198100Y206150D02*
X195900D01*
Y208850*
X198100*
Y206150*
X195900Y206400D02*
X198100D01*
X195900Y207200D02*
X198100D01*
X195900Y208000D02*
X198100D01*
X195900Y208800D02*
X198100D01*
X196000Y206150D02*
Y208850D01*
X196800Y206150D02*
Y208850D01*
X197600Y206150D02*
Y208850D01*
X198100Y211150D02*
X195900D01*
Y213850*
X198100*
Y211150*
X195900Y211200D02*
X198100D01*
X195900Y212000D02*
X198100D01*
X195900Y212800D02*
X198100D01*
X195900Y213600D02*
X198100D01*
X196000Y211150D02*
Y213850D01*
X196800Y211150D02*
Y213850D01*
X197600Y211150D02*
Y213850D01*
X242900Y225850D02*
X245100D01*
Y223150*
X242900*
Y225850*
Y223200D02*
X245100D01*
X242900Y224000D02*
X245100D01*
X242900Y224800D02*
X245100D01*
X242900Y225600D02*
X245100D01*
X243200Y223150D02*
Y225850D01*
X244000Y223150D02*
Y225850D01*
X244800Y223150D02*
Y225850D01*
X242900Y220850D02*
X245100D01*
Y218150*
X242900*
Y220850*
Y218400D02*
X245100D01*
X242900Y219200D02*
X245100D01*
X242900Y220000D02*
X245100D01*
X242900Y220800D02*
X245100D01*
X243200Y218150D02*
Y220850D01*
X244000Y218150D02*
Y220850D01*
X244800Y218150D02*
Y220850D01*
X205100Y206150D02*
X202900D01*
Y208850*
X205100*
Y206150*
X202900Y206400D02*
X205100D01*
X202900Y207200D02*
X205100D01*
X202900Y208000D02*
X205100D01*
X202900Y208800D02*
X205100D01*
X203200Y206150D02*
Y208850D01*
X204000Y206150D02*
Y208850D01*
X204800Y206150D02*
Y208850D01*
X205100Y211150D02*
X202900D01*
Y213850*
X205100*
Y211150*
X202900Y211200D02*
X205100D01*
X202900Y212000D02*
X205100D01*
X202900Y212800D02*
X205100D01*
X202900Y213600D02*
X205100D01*
X203200Y211150D02*
Y213850D01*
X204000Y211150D02*
Y213850D01*
X204800Y211150D02*
Y213850D01*
X228850Y251100D02*
Y248900D01*
X226150*
Y251100*
X228850*
X226150Y249600D02*
X228850D01*
X226150Y250400D02*
X228850D01*
X226400Y248900D02*
Y251100D01*
X227200Y248900D02*
Y251100D01*
X228000Y248900D02*
Y251100D01*
X228800Y248900D02*
Y251100D01*
X223850D02*
Y248900D01*
X221150*
Y251100*
X223850*
X221150Y249600D02*
X223850D01*
X221150Y250400D02*
X223850D01*
X221600Y248900D02*
Y251100D01*
X222400Y248900D02*
Y251100D01*
X223200Y248900D02*
Y251100D01*
X234850Y263100D02*
Y260900D01*
X232150*
Y263100*
X234850*
X232150Y261600D02*
X234850D01*
X232150Y262400D02*
X234850D01*
X232800Y260900D02*
Y263100D01*
X233600Y260900D02*
Y263100D01*
X234400Y260900D02*
Y263100D01*
X229850D02*
Y260900D01*
X227150*
Y263100*
X229850*
X227150Y261600D02*
X229850D01*
X227150Y262400D02*
X229850D01*
X227200Y260900D02*
Y263100D01*
X228000Y260900D02*
Y263100D01*
X228800Y260900D02*
Y263100D01*
X229600Y260900D02*
Y263100D01*
X304100Y143150D02*
X301900D01*
Y145850*
X304100*
Y143150*
X301900Y143200D02*
X304100D01*
X301900Y144000D02*
X304100D01*
X301900Y144800D02*
X304100D01*
X301900Y145600D02*
X304100D01*
X302400Y143150D02*
Y145850D01*
X303200Y143150D02*
Y145850D01*
X304000Y143150D02*
Y145850D01*
X304100Y148150D02*
X301900D01*
Y150850*
X304100*
Y148150*
X301900Y148800D02*
X304100D01*
X301900Y149600D02*
X304100D01*
X301900Y150400D02*
X304100D01*
X302400Y148150D02*
Y150850D01*
X303200Y148150D02*
Y150850D01*
X304000Y148150D02*
Y150850D01*
X219900Y336850D02*
X222100D01*
Y334150*
X219900*
Y336850*
Y334400D02*
X222100D01*
X219900Y335200D02*
X222100D01*
X219900Y336000D02*
X222100D01*
X219900Y336800D02*
X222100D01*
X220000Y334150D02*
Y336850D01*
X220800Y334150D02*
Y336850D01*
X221600Y334150D02*
Y336850D01*
X219900Y331850D02*
X222100D01*
Y329150*
X219900*
Y331850*
Y329600D02*
X222100D01*
X219900Y330400D02*
X222100D01*
X219900Y331200D02*
X222100D01*
X220000Y329150D02*
Y331850D01*
X220800Y329150D02*
Y331850D01*
X221600Y329150D02*
Y331850D01*
X195150Y234900D02*
Y237100D01*
X197850*
Y234900*
X195150*
Y235200D02*
X197850D01*
X195150Y236000D02*
X197850D01*
X195150Y236800D02*
X197850D01*
X195200Y234900D02*
Y237100D01*
X196000Y234900D02*
Y237100D01*
X196800Y234900D02*
Y237100D01*
X197600Y234900D02*
Y237100D01*
X200150Y234900D02*
Y237100D01*
X202850*
Y234900*
X200150*
Y235200D02*
X202850D01*
X200150Y236000D02*
X202850D01*
X200150Y236800D02*
X202850D01*
X200800Y234900D02*
Y237100D01*
X201600Y234900D02*
Y237100D01*
X202400Y234900D02*
Y237100D01*
X202900Y349850D02*
X205100D01*
Y347150*
X202900*
Y349850*
Y347200D02*
X205100D01*
X202900Y348000D02*
X205100D01*
X202900Y348800D02*
X205100D01*
X202900Y349600D02*
X205100D01*
X203200Y347150D02*
Y349850D01*
X204000Y347150D02*
Y349850D01*
X204800Y347150D02*
Y349850D01*
X202900Y344850D02*
X205100D01*
Y342150*
X202900*
Y344850*
Y342400D02*
X205100D01*
X202900Y343200D02*
X205100D01*
X202900Y344000D02*
X205100D01*
X202900Y344800D02*
X205100D01*
X203200Y342150D02*
Y344850D01*
X204000Y342150D02*
Y344850D01*
X204800Y342150D02*
Y344850D01*
X159150Y341900D02*
Y344100D01*
X161850*
Y341900*
X159150*
Y342400D02*
X161850D01*
X159150Y343200D02*
X161850D01*
X159150Y344000D02*
X161850D01*
X159200Y341900D02*
Y344100D01*
X160000Y341900D02*
Y344100D01*
X160800Y341900D02*
Y344100D01*
X161600Y341900D02*
Y344100D01*
X164150Y341900D02*
Y344100D01*
X166850*
Y341900*
X164150*
Y342400D02*
X166850D01*
X164150Y343200D02*
X166850D01*
X164150Y344000D02*
X166850D01*
X164800Y341900D02*
Y344100D01*
X165600Y341900D02*
Y344100D01*
X166400Y341900D02*
Y344100D01*
X166850Y338100D02*
Y335900D01*
X164150*
Y338100*
X166850*
X164150Y336000D02*
X166850D01*
X164150Y336800D02*
X166850D01*
X164150Y337600D02*
X166850D01*
X164800Y335900D02*
Y338100D01*
X165600Y335900D02*
Y338100D01*
X166400Y335900D02*
Y338100D01*
X161850D02*
Y335900D01*
X159150*
Y338100*
X161850*
X159150Y336000D02*
X161850D01*
X159150Y336800D02*
X161850D01*
X159150Y337600D02*
X161850D01*
X159200Y335900D02*
Y338100D01*
X160000Y335900D02*
Y338100D01*
X160800Y335900D02*
Y338100D01*
X161600Y335900D02*
Y338100D01*
X234850Y257100D02*
Y254900D01*
X232150*
Y257100*
X234850*
X232150Y255200D02*
X234850D01*
X232150Y256000D02*
X234850D01*
X232150Y256800D02*
X234850D01*
X232800Y254900D02*
Y257100D01*
X233600Y254900D02*
Y257100D01*
X234400Y254900D02*
Y257100D01*
X229850D02*
Y254900D01*
X227150*
Y257100*
X229850*
X227150Y255200D02*
X229850D01*
X227150Y256000D02*
X229850D01*
X227150Y256800D02*
X229850D01*
X227200Y254900D02*
Y257100D01*
X228000Y254900D02*
Y257100D01*
X228800Y254900D02*
Y257100D01*
X229600Y254900D02*
Y257100D01*
X222850Y245100D02*
Y242900D01*
X220150*
Y245100*
X222850*
X220150Y243200D02*
X222850D01*
X220150Y244000D02*
X222850D01*
X220150Y244800D02*
X222850D01*
X220800Y242900D02*
Y245100D01*
X221600Y242900D02*
Y245100D01*
X222400Y242900D02*
Y245100D01*
X217850D02*
Y242900D01*
X215150*
Y245100*
X217850*
X215150Y243200D02*
X217850D01*
X215150Y244000D02*
X217850D01*
X215150Y244800D02*
X217850D01*
X215200Y242900D02*
Y245100D01*
X216000Y242900D02*
Y245100D01*
X216800Y242900D02*
Y245100D01*
X217600Y242900D02*
Y245100D01*
X203900Y289850D02*
X206100D01*
Y287150*
X203900*
Y289850*
Y287200D02*
X206100D01*
X203900Y288000D02*
X206100D01*
X203900Y288800D02*
X206100D01*
X203900Y289600D02*
X206100D01*
X204000Y287150D02*
Y289850D01*
X204800Y287150D02*
Y289850D01*
X205600Y287150D02*
Y289850D01*
X203900Y284850D02*
X206100D01*
Y282150*
X203900*
Y284850*
Y282400D02*
X206100D01*
X203900Y283200D02*
X206100D01*
X203900Y284000D02*
X206100D01*
X203900Y284800D02*
X206100D01*
X204000Y282150D02*
Y284850D01*
X204800Y282150D02*
Y284850D01*
X205600Y282150D02*
Y284850D01*
X412100Y146150D02*
X409900D01*
Y148850*
X412100*
Y146150*
X409900Y146400D02*
X412100D01*
X409900Y147200D02*
X412100D01*
X409900Y148000D02*
X412100D01*
X409900Y148800D02*
X412100D01*
X410400Y146150D02*
Y148850D01*
X411200Y146150D02*
Y148850D01*
X412000Y146150D02*
Y148850D01*
X412100Y151150D02*
X409900D01*
Y153850*
X412100*
Y151150*
X409900Y151200D02*
X412100D01*
X409900Y152000D02*
X412100D01*
X409900Y152800D02*
X412100D01*
X409900Y153600D02*
X412100D01*
X410400Y151150D02*
Y153850D01*
X411200Y151150D02*
Y153850D01*
X412000Y151150D02*
Y153850D01*
X363850Y125100D02*
Y122900D01*
X361150*
Y125100*
X363850*
X361150Y123200D02*
X363850D01*
X361150Y124000D02*
X363850D01*
X361150Y124800D02*
X363850D01*
X361600Y122900D02*
Y125100D01*
X362400Y122900D02*
Y125100D01*
X363200Y122900D02*
Y125100D01*
X358850D02*
Y122900D01*
X356150*
Y125100*
X358850*
X356150Y123200D02*
X358850D01*
X356150Y124000D02*
X358850D01*
X356150Y124800D02*
X358850D01*
X356800Y122900D02*
Y125100D01*
X357600Y122900D02*
Y125100D01*
X358400Y122900D02*
Y125100D01*
X363850Y137100D02*
Y134900D01*
X361150*
Y137100*
X363850*
X361150Y135200D02*
X363850D01*
X361150Y136000D02*
X363850D01*
X361150Y136800D02*
X363850D01*
X361600Y134900D02*
Y137100D01*
X362400Y134900D02*
Y137100D01*
X363200Y134900D02*
Y137100D01*
X358850D02*
Y134900D01*
X356150*
Y137100*
X358850*
X356150Y135200D02*
X358850D01*
X356150Y136000D02*
X358850D01*
X356150Y136800D02*
X358850D01*
X356800Y134900D02*
Y137100D01*
X357600Y134900D02*
Y137100D01*
X358400Y134900D02*
Y137100D01*
X363850Y149100D02*
Y146900D01*
X361150*
Y149100*
X363850*
X361150Y147200D02*
X363850D01*
X361150Y148000D02*
X363850D01*
X361150Y148800D02*
X363850D01*
X361600Y146900D02*
Y149100D01*
X362400Y146900D02*
Y149100D01*
X363200Y146900D02*
Y149100D01*
X358850D02*
Y146900D01*
X356150*
Y149100*
X358850*
X356150Y147200D02*
X358850D01*
X356150Y148000D02*
X358850D01*
X356150Y148800D02*
X358850D01*
X356800Y146900D02*
Y149100D01*
X357600Y146900D02*
Y149100D01*
X358400Y146900D02*
Y149100D01*
X314850Y156100D02*
Y153900D01*
X312150*
Y156100*
X314850*
X312150Y154400D02*
X314850D01*
X312150Y155200D02*
X314850D01*
X312150Y156000D02*
X314850D01*
X312800Y153900D02*
Y156100D01*
X313600Y153900D02*
Y156100D01*
X314400Y153900D02*
Y156100D01*
X309850D02*
Y153900D01*
X307150*
Y156100*
X309850*
X307150Y154400D02*
X309850D01*
X307150Y155200D02*
X309850D01*
X307150Y156000D02*
X309850D01*
X307200Y153900D02*
Y156100D01*
X308000Y153900D02*
Y156100D01*
X308800Y153900D02*
Y156100D01*
X309600Y153900D02*
Y156100D01*
X178150Y269900D02*
Y272100D01*
X180850*
Y269900*
X178150*
Y270400D02*
X180850D01*
X178150Y271200D02*
X180850D01*
X178150Y272000D02*
X180850D01*
X178400Y269900D02*
Y272100D01*
X179200Y269900D02*
Y272100D01*
X180000Y269900D02*
Y272100D01*
X180800Y269900D02*
Y272100D01*
X183150Y269900D02*
Y272100D01*
X185850*
Y269900*
X183150*
Y270400D02*
X185850D01*
X183150Y271200D02*
X185850D01*
X183150Y272000D02*
X185850D01*
X183200Y269900D02*
Y272100D01*
X184000Y269900D02*
Y272100D01*
X184800Y269900D02*
Y272100D01*
X185600Y269900D02*
Y272100D01*
X178150Y335900D02*
Y338100D01*
X180850*
Y335900*
X178150*
Y336000D02*
X180850D01*
X178150Y336800D02*
X180850D01*
X178150Y337600D02*
X180850D01*
X178400Y335900D02*
Y338100D01*
X179200Y335900D02*
Y338100D01*
X180000Y335900D02*
Y338100D01*
X180800Y335900D02*
Y338100D01*
X183150Y335900D02*
Y338100D01*
X185850*
Y335900*
X183150*
Y336000D02*
X185850D01*
X183150Y336800D02*
X185850D01*
X183150Y337600D02*
X185850D01*
X183200Y335900D02*
Y338100D01*
X184000Y335900D02*
Y338100D01*
X184800Y335900D02*
Y338100D01*
X185600Y335900D02*
Y338100D01*
X203900Y336850D02*
X206100D01*
Y334150*
X203900*
Y336850*
Y334400D02*
X206100D01*
X203900Y335200D02*
X206100D01*
X203900Y336000D02*
X206100D01*
X203900Y336800D02*
X206100D01*
X204000Y334150D02*
Y336850D01*
X204800Y334150D02*
Y336850D01*
X205600Y334150D02*
Y336850D01*
X203900Y331850D02*
X206100D01*
Y329150*
X203900*
Y331850*
Y329600D02*
X206100D01*
X203900Y330400D02*
X206100D01*
X203900Y331200D02*
X206100D01*
X204000Y329150D02*
Y331850D01*
X204800Y329150D02*
Y331850D01*
X205600Y329150D02*
Y331850D01*
X227150Y242900D02*
Y245100D01*
X229850*
Y242900*
X227150*
Y243200D02*
X229850D01*
X227150Y244000D02*
X229850D01*
X227150Y244800D02*
X229850D01*
X227200Y242900D02*
Y245100D01*
X228000Y242900D02*
Y245100D01*
X228800Y242900D02*
Y245100D01*
X229600Y242900D02*
Y245100D01*
X232150Y242900D02*
Y245100D01*
X234850*
Y242900*
X232150*
Y243200D02*
X234850D01*
X232150Y244000D02*
X234850D01*
X232150Y244800D02*
X234850D01*
X232800Y242900D02*
Y245100D01*
X233600Y242900D02*
Y245100D01*
X234400Y242900D02*
Y245100D01*
X162900Y211850D02*
X165100D01*
Y209150*
X162900*
Y211850*
Y209600D02*
X165100D01*
X162900Y210400D02*
X165100D01*
X162900Y211200D02*
X165100D01*
X163200Y209150D02*
Y211850D01*
X164000Y209150D02*
Y211850D01*
X164800Y209150D02*
Y211850D01*
X162900Y206850D02*
X165100D01*
Y204150*
X162900*
Y206850*
Y204800D02*
X165100D01*
X162900Y205600D02*
X165100D01*
X162900Y206400D02*
X165100D01*
X163200Y204150D02*
Y206850D01*
X164000Y204150D02*
Y206850D01*
X164800Y204150D02*
Y206850D01*
X356100Y336150D02*
X353900D01*
Y338850*
X356100*
Y336150*
X353900Y336800D02*
X356100D01*
X353900Y337600D02*
X356100D01*
X353900Y338400D02*
X356100D01*
X354400Y336150D02*
Y338850D01*
X355200Y336150D02*
Y338850D01*
X356000Y336150D02*
Y338850D01*
X356100Y341150D02*
X353900D01*
Y343850*
X356100*
Y341150*
X353900Y341600D02*
X356100D01*
X353900Y342400D02*
X356100D01*
X353900Y343200D02*
X356100D01*
X354400Y341150D02*
Y343850D01*
X355200Y341150D02*
Y343850D01*
X356000Y341150D02*
Y343850D01*
X120850Y208100D02*
Y205900D01*
X118150*
Y208100*
X120850*
X118150Y206400D02*
X120850D01*
X118150Y207200D02*
X120850D01*
X118150Y208000D02*
X120850D01*
X118400Y205900D02*
Y208100D01*
X119200Y205900D02*
Y208100D01*
X120000Y205900D02*
Y208100D01*
X120800Y205900D02*
Y208100D01*
X115850D02*
Y205900D01*
X113150*
Y208100*
X115850*
X113150Y206400D02*
X115850D01*
X113150Y207200D02*
X115850D01*
X113150Y208000D02*
X115850D01*
X113600Y205900D02*
Y208100D01*
X114400Y205900D02*
Y208100D01*
X115200Y205900D02*
Y208100D01*
X118900Y219850D02*
X121100D01*
Y217150*
X118900*
Y219850*
Y217600D02*
X121100D01*
X118900Y218400D02*
X121100D01*
X118900Y219200D02*
X121100D01*
X119200Y217150D02*
Y219850D01*
X120000Y217150D02*
Y219850D01*
X120800Y217150D02*
Y219850D01*
X118900Y214850D02*
X121100D01*
Y212150*
X118900*
Y214850*
Y212800D02*
X121100D01*
X118900Y213600D02*
X121100D01*
X118900Y214400D02*
X121100D01*
X119200Y212150D02*
Y214850D01*
X120000Y212150D02*
Y214850D01*
X120800Y212150D02*
Y214850D01*
X142850Y200100D02*
Y197900D01*
X140150*
Y200100*
X142850*
X140150Y198400D02*
X142850D01*
X140150Y199200D02*
X142850D01*
X140150Y200000D02*
X142850D01*
X140800Y197900D02*
Y200100D01*
X141600Y197900D02*
Y200100D01*
X142400Y197900D02*
Y200100D01*
X137850D02*
Y197900D01*
X135150*
Y200100*
X137850*
X135150Y198400D02*
X137850D01*
X135150Y199200D02*
X137850D01*
X135150Y200000D02*
X137850D01*
X135200Y197900D02*
Y200100D01*
X136000Y197900D02*
Y200100D01*
X136800Y197900D02*
Y200100D01*
X137600Y197900D02*
Y200100D01*
X127100Y203150D02*
X124900D01*
Y205850*
X127100*
Y203150*
X124900Y203200D02*
X127100D01*
X124900Y204000D02*
X127100D01*
X124900Y204800D02*
X127100D01*
X124900Y205600D02*
X127100D01*
X125600Y203150D02*
Y205850D01*
X126400Y203150D02*
Y205850D01*
X127100Y208150D02*
X124900D01*
Y210850*
X127100*
Y208150*
X124900Y208800D02*
X127100D01*
X124900Y209600D02*
X127100D01*
X124900Y210400D02*
X127100D01*
X125600Y208150D02*
Y210850D01*
X126400Y208150D02*
Y210850D01*
X124900Y222850D02*
X127100D01*
Y220150*
X124900*
Y222850*
Y220800D02*
X127100D01*
X124900Y221600D02*
X127100D01*
X124900Y222400D02*
X127100D01*
X125600Y220150D02*
Y222850D01*
X126400Y220150D02*
Y222850D01*
X124900Y217850D02*
X127100D01*
Y215150*
X124900*
Y217850*
Y215200D02*
X127100D01*
X124900Y216000D02*
X127100D01*
X124900Y216800D02*
X127100D01*
X124900Y217600D02*
X127100D01*
X125600Y215150D02*
Y217850D01*
X126400Y215150D02*
Y217850D01*
X142850Y228100D02*
Y225900D01*
X140150*
Y228100*
X142850*
X140150Y226400D02*
X142850D01*
X140150Y227200D02*
X142850D01*
X140150Y228000D02*
X142850D01*
X140800Y225900D02*
Y228100D01*
X141600Y225900D02*
Y228100D01*
X142400Y225900D02*
Y228100D01*
X137850D02*
Y225900D01*
X135150*
Y228100*
X137850*
X135150Y226400D02*
X137850D01*
X135150Y227200D02*
X137850D01*
X135150Y228000D02*
X137850D01*
X135200Y225900D02*
Y228100D01*
X136000Y225900D02*
Y228100D01*
X136800Y225900D02*
Y228100D01*
X137600Y225900D02*
Y228100D01*
X169850Y200100D02*
Y197900D01*
X167150*
Y200100*
X169850*
X167150Y198400D02*
X169850D01*
X167150Y199200D02*
X169850D01*
X167150Y200000D02*
X169850D01*
X167200Y197900D02*
Y200100D01*
X168000Y197900D02*
Y200100D01*
X168800Y197900D02*
Y200100D01*
X169600Y197900D02*
Y200100D01*
X164850D02*
Y197900D01*
X162150*
Y200100*
X164850*
X162150Y198400D02*
X164850D01*
X162150Y199200D02*
X164850D01*
X162150Y200000D02*
X164850D01*
X162400Y197900D02*
Y200100D01*
X163200Y197900D02*
Y200100D01*
X164000Y197900D02*
Y200100D01*
X164800Y197900D02*
Y200100D01*
X162150Y225900D02*
Y228100D01*
X164850*
Y225900*
X162150*
Y226400D02*
X164850D01*
X162150Y227200D02*
X164850D01*
X162150Y228000D02*
X164850D01*
X162400Y225900D02*
Y228100D01*
X163200Y225900D02*
Y228100D01*
X164000Y225900D02*
Y228100D01*
X164800Y225900D02*
Y228100D01*
X167150Y225900D02*
Y228100D01*
X169850*
Y225900*
X167150*
Y226400D02*
X169850D01*
X167150Y227200D02*
X169850D01*
X167150Y228000D02*
X169850D01*
X167200Y225900D02*
Y228100D01*
X168000Y225900D02*
Y228100D01*
X168800Y225900D02*
Y228100D01*
X169600Y225900D02*
Y228100D01*
X165100Y214150D02*
X162900D01*
Y216850*
X165100*
Y214150*
X162900Y214400D02*
X165100D01*
X162900Y215200D02*
X165100D01*
X162900Y216000D02*
X165100D01*
X162900Y216800D02*
X165100D01*
X163200Y214150D02*
Y216850D01*
X164000Y214150D02*
Y216850D01*
X164800Y214150D02*
Y216850D01*
X165100Y219150D02*
X162900D01*
Y221850*
X165100*
Y219150*
X162900Y219200D02*
X165100D01*
X162900Y220000D02*
X165100D01*
X162900Y220800D02*
X165100D01*
X162900Y221600D02*
X165100D01*
X163200Y219150D02*
Y221850D01*
X164000Y219150D02*
Y221850D01*
X164800Y219150D02*
Y221850D01*
X170100Y204150D02*
X167900D01*
Y206850*
X170100*
Y204150*
X167900Y204800D02*
X170100D01*
X167900Y205600D02*
X170100D01*
X167900Y206400D02*
X170100D01*
X168000Y204150D02*
Y206850D01*
X168800Y204150D02*
Y206850D01*
X169600Y204150D02*
Y206850D01*
X170100Y209150D02*
X167900D01*
Y211850*
X170100*
Y209150*
X167900Y209600D02*
X170100D01*
X167900Y210400D02*
X170100D01*
X167900Y211200D02*
X170100D01*
X168000Y209150D02*
Y211850D01*
X168800Y209150D02*
Y211850D01*
X169600Y209150D02*
Y211850D01*
X167900Y221850D02*
X170100D01*
Y219150*
X167900*
Y221850*
Y219200D02*
X170100D01*
X167900Y220000D02*
X170100D01*
X167900Y220800D02*
X170100D01*
X167900Y221600D02*
X170100D01*
X168000Y219150D02*
Y221850D01*
X168800Y219150D02*
Y221850D01*
X169600Y219150D02*
Y221850D01*
X167900Y216850D02*
X170100D01*
Y214150*
X167900*
Y216850*
Y214400D02*
X170100D01*
X167900Y215200D02*
X170100D01*
X167900Y216000D02*
X170100D01*
X167900Y216800D02*
X170100D01*
X168000Y214150D02*
Y216850D01*
X168800Y214150D02*
Y216850D01*
X169600Y214150D02*
Y216850D01*
X154850Y200100D02*
Y197900D01*
X152150*
Y200100*
X154850*
X152150Y198400D02*
X154850D01*
X152150Y199200D02*
X154850D01*
X152150Y200000D02*
X154850D01*
X152800Y197900D02*
Y200100D01*
X153600Y197900D02*
Y200100D01*
X154400Y197900D02*
Y200100D01*
X149850D02*
Y197900D01*
X147150*
Y200100*
X149850*
X147150Y198400D02*
X149850D01*
X147150Y199200D02*
X149850D01*
X147150Y200000D02*
X149850D01*
X147200Y197900D02*
Y200100D01*
X148000Y197900D02*
Y200100D01*
X148800Y197900D02*
Y200100D01*
X149600Y197900D02*
Y200100D01*
X376150Y328900D02*
Y331100D01*
X378850*
Y328900*
X376150*
Y329600D02*
X378850D01*
X376150Y330400D02*
X378850D01*
X376800Y328900D02*
Y331100D01*
X377600Y328900D02*
Y331100D01*
X378400Y328900D02*
Y331100D01*
X381150Y328900D02*
Y331100D01*
X383850*
Y328900*
X381150*
Y329600D02*
X383850D01*
X381150Y330400D02*
X383850D01*
X381600Y328900D02*
Y331100D01*
X382400Y328900D02*
Y331100D01*
X383200Y328900D02*
Y331100D01*
X383850Y324100D02*
Y321900D01*
X381150*
Y324100*
X383850*
X381150Y322400D02*
X383850D01*
X381150Y323200D02*
X383850D01*
X381150Y324000D02*
X383850D01*
X381600Y321900D02*
Y324100D01*
X382400Y321900D02*
Y324100D01*
X383200Y321900D02*
Y324100D01*
X378850D02*
Y321900D01*
X376150*
Y324100*
X378850*
X376150Y322400D02*
X378850D01*
X376150Y323200D02*
X378850D01*
X376150Y324000D02*
X378850D01*
X376800Y321900D02*
Y324100D01*
X377600Y321900D02*
Y324100D01*
X378400Y321900D02*
Y324100D01*
X466150Y212900D02*
Y215100D01*
X468850*
Y212900*
X466150*
Y213600D02*
X468850D01*
X466150Y214400D02*
X468850D01*
X466400Y212900D02*
Y215100D01*
X467200Y212900D02*
Y215100D01*
X468000Y212900D02*
Y215100D01*
X468800Y212900D02*
Y215100D01*
X471150Y212900D02*
Y215100D01*
X473850*
Y212900*
X471150*
Y213600D02*
X473850D01*
X471150Y214400D02*
X473850D01*
X471200Y212900D02*
Y215100D01*
X472000Y212900D02*
Y215100D01*
X472800Y212900D02*
Y215100D01*
X473600Y212900D02*
Y215100D01*
X154850Y228100D02*
Y225900D01*
X152150*
Y228100*
X154850*
X152150Y226400D02*
X154850D01*
X152150Y227200D02*
X154850D01*
X152150Y228000D02*
X154850D01*
X152800Y225900D02*
Y228100D01*
X153600Y225900D02*
Y228100D01*
X154400Y225900D02*
Y228100D01*
X149850D02*
Y225900D01*
X147150*
Y228100*
X149850*
X147150Y226400D02*
X149850D01*
X147150Y227200D02*
X149850D01*
X147150Y228000D02*
X149850D01*
X147200Y225900D02*
Y228100D01*
X148000Y225900D02*
Y228100D01*
X148800Y225900D02*
Y228100D01*
X149600Y225900D02*
Y228100D01*
X342150Y270900D02*
Y273100D01*
X344850*
Y270900*
X342150*
Y271200D02*
X344850D01*
X342150Y272000D02*
X344850D01*
X342150Y272800D02*
X344850D01*
X342400Y270900D02*
Y273100D01*
X343200Y270900D02*
Y273100D01*
X344000Y270900D02*
Y273100D01*
X344800Y270900D02*
Y273100D01*
X347150Y270900D02*
Y273100D01*
X349850*
Y270900*
X347150*
Y271200D02*
X349850D01*
X347150Y272000D02*
X349850D01*
X347150Y272800D02*
X349850D01*
X347200Y270900D02*
Y273100D01*
X348000Y270900D02*
Y273100D01*
X348800Y270900D02*
Y273100D01*
X349600Y270900D02*
Y273100D01*
X361850D02*
Y270900D01*
X359150*
Y273100*
X361850*
X359150Y271200D02*
X361850D01*
X359150Y272000D02*
X361850D01*
X359150Y272800D02*
X361850D01*
X359200Y270900D02*
Y273100D01*
X360000Y270900D02*
Y273100D01*
X360800Y270900D02*
Y273100D01*
X361600Y270900D02*
Y273100D01*
X356850D02*
Y270900D01*
X354150*
Y273100*
X356850*
X354150Y271200D02*
X356850D01*
X354150Y272000D02*
X356850D01*
X354150Y272800D02*
X356850D01*
X354400Y270900D02*
Y273100D01*
X355200Y270900D02*
Y273100D01*
X356000Y270900D02*
Y273100D01*
X356800Y270900D02*
Y273100D01*
X112900Y219850D02*
X115100D01*
Y217150*
X112900*
Y219850*
Y217600D02*
X115100D01*
X112900Y218400D02*
X115100D01*
X112900Y219200D02*
X115100D01*
X113600Y217150D02*
Y219850D01*
X114400Y217150D02*
Y219850D01*
X112900Y214850D02*
X115100D01*
Y212150*
X112900*
Y214850*
Y212800D02*
X115100D01*
X112900Y213600D02*
X115100D01*
X112900Y214400D02*
X115100D01*
X113600Y212150D02*
Y214850D01*
X114400Y212150D02*
Y214850D01*
X356150Y140900D02*
Y143100D01*
X358850*
Y140900*
X356150*
Y141600D02*
X358850D01*
X356150Y142400D02*
X358850D01*
X356800Y140900D02*
Y143100D01*
X357600Y140900D02*
Y143100D01*
X358400Y140900D02*
Y143100D01*
X361150Y140900D02*
Y143100D01*
X363850*
Y140900*
X361150*
Y141600D02*
X363850D01*
X361150Y142400D02*
X363850D01*
X361600Y140900D02*
Y143100D01*
X362400Y140900D02*
Y143100D01*
X363200Y140900D02*
Y143100D01*
X148850Y267100D02*
Y264900D01*
X146150*
Y267100*
X148850*
X146150Y265600D02*
X148850D01*
X146150Y266400D02*
X148850D01*
X146400Y264900D02*
Y267100D01*
X147200Y264900D02*
Y267100D01*
X148000Y264900D02*
Y267100D01*
X148800Y264900D02*
Y267100D01*
X143850D02*
Y264900D01*
X141150*
Y267100*
X143850*
X141150Y265600D02*
X143850D01*
X141150Y266400D02*
X143850D01*
X141600Y264900D02*
Y267100D01*
X142400Y264900D02*
Y267100D01*
X143200Y264900D02*
Y267100D01*
X128150Y314900D02*
Y317100D01*
X130850*
Y314900*
X128150*
Y315200D02*
X130850D01*
X128150Y316000D02*
X130850D01*
X128150Y316800D02*
X130850D01*
X128800Y314900D02*
Y317100D01*
X129600Y314900D02*
Y317100D01*
X130400Y314900D02*
Y317100D01*
X133150Y314900D02*
Y317100D01*
X135850*
Y314900*
X133150*
Y315200D02*
X135850D01*
X133150Y316000D02*
X135850D01*
X133150Y316800D02*
X135850D01*
X133600Y314900D02*
Y317100D01*
X134400Y314900D02*
Y317100D01*
X135200Y314900D02*
Y317100D01*
X363850Y131100D02*
Y128900D01*
X361150*
Y131100*
X363850*
X361150Y129600D02*
X363850D01*
X361150Y130400D02*
X363850D01*
X361600Y128900D02*
Y131100D01*
X362400Y128900D02*
Y131100D01*
X363200Y128900D02*
Y131100D01*
X358850D02*
Y128900D01*
X356150*
Y131100*
X358850*
X356150Y129600D02*
X358850D01*
X356150Y130400D02*
X358850D01*
X356800Y128900D02*
Y131100D01*
X357600Y128900D02*
Y131100D01*
X358400Y128900D02*
Y131100D01*
X133150Y243900D02*
Y246100D01*
X135850*
Y243900*
X133150*
Y244000D02*
X135850D01*
X133150Y244800D02*
X135850D01*
X133150Y245600D02*
X135850D01*
X133600Y243900D02*
Y246100D01*
X134400Y243900D02*
Y246100D01*
X135200Y243900D02*
Y246100D01*
X138150Y243900D02*
Y246100D01*
X140850*
Y243900*
X138150*
Y244000D02*
X140850D01*
X138150Y244800D02*
X140850D01*
X138150Y245600D02*
X140850D01*
X138400Y243900D02*
Y246100D01*
X139200Y243900D02*
Y246100D01*
X140000Y243900D02*
Y246100D01*
X140800Y243900D02*
Y246100D01*
X307150Y159900D02*
Y162100D01*
X309850*
Y159900*
X307150*
Y160000D02*
X309850D01*
X307150Y160800D02*
X309850D01*
X307150Y161600D02*
X309850D01*
X307200Y159900D02*
Y162100D01*
X308000Y159900D02*
Y162100D01*
X308800Y159900D02*
Y162100D01*
X309600Y159900D02*
Y162100D01*
X312150Y159900D02*
Y162100D01*
X314850*
Y159900*
X312150*
Y160000D02*
X314850D01*
X312150Y160800D02*
X314850D01*
X312150Y161600D02*
X314850D01*
X312800Y159900D02*
Y162100D01*
X313600Y159900D02*
Y162100D01*
X314400Y159900D02*
Y162100D01*
X178150Y275900D02*
Y278100D01*
X180850*
Y275900*
X178150*
Y276000D02*
X180850D01*
X178150Y276800D02*
X180850D01*
X178150Y277600D02*
X180850D01*
X178400Y275900D02*
Y278100D01*
X179200Y275900D02*
Y278100D01*
X180000Y275900D02*
Y278100D01*
X180800Y275900D02*
Y278100D01*
X183150Y275900D02*
Y278100D01*
X185850*
Y275900*
X183150*
Y276000D02*
X185850D01*
X183150Y276800D02*
X185850D01*
X183150Y277600D02*
X185850D01*
X183200Y275900D02*
Y278100D01*
X184000Y275900D02*
Y278100D01*
X184800Y275900D02*
Y278100D01*
X185600Y275900D02*
Y278100D01*
X239100Y278150D02*
X236900D01*
Y280850*
X239100*
Y278150*
X236900Y278400D02*
X239100D01*
X236900Y279200D02*
X239100D01*
X236900Y280000D02*
X239100D01*
X236900Y280800D02*
X239100D01*
X237600Y278150D02*
Y280850D01*
X238400Y278150D02*
Y280850D01*
X239100Y283150D02*
X236900D01*
Y285850*
X239100*
Y283150*
X236900Y283200D02*
X239100D01*
X236900Y284000D02*
X239100D01*
X236900Y284800D02*
X239100D01*
X236900Y285600D02*
X239100D01*
X237600Y283150D02*
Y285850D01*
X238400Y283150D02*
Y285850D01*
X239100Y323150D02*
X236900D01*
Y325850*
X239100*
Y323150*
X236900Y323200D02*
X239100D01*
X236900Y324000D02*
X239100D01*
X236900Y324800D02*
X239100D01*
X236900Y325600D02*
X239100D01*
X237600Y323150D02*
Y325850D01*
X238400Y323150D02*
Y325850D01*
X239100Y328150D02*
X236900D01*
Y330850*
X239100*
Y328150*
X236900Y328800D02*
X239100D01*
X236900Y329600D02*
X239100D01*
X236900Y330400D02*
X239100D01*
X237600Y328150D02*
Y330850D01*
X238400Y328150D02*
Y330850D01*
X225150Y283900D02*
Y286100D01*
X227850*
Y283900*
X225150*
Y284000D02*
X227850D01*
X225150Y284800D02*
X227850D01*
X225150Y285600D02*
X227850D01*
X225600Y283900D02*
Y286100D01*
X226400Y283900D02*
Y286100D01*
X227200Y283900D02*
Y286100D01*
X230150Y283900D02*
Y286100D01*
X232850*
Y283900*
X230150*
Y284000D02*
X232850D01*
X230150Y284800D02*
X232850D01*
X230150Y285600D02*
X232850D01*
X230400Y283900D02*
Y286100D01*
X231200Y283900D02*
Y286100D01*
X232000Y283900D02*
Y286100D01*
X232800Y283900D02*
Y286100D01*
X369150Y122900D02*
Y125100D01*
X371850*
Y122900*
X369150*
Y123200D02*
X371850D01*
X369150Y124000D02*
X371850D01*
X369150Y124800D02*
X371850D01*
X369600Y122900D02*
Y125100D01*
X370400Y122900D02*
Y125100D01*
X371200Y122900D02*
Y125100D01*
X374150Y122900D02*
Y125100D01*
X376850*
Y122900*
X374150*
Y123200D02*
X376850D01*
X374150Y124000D02*
X376850D01*
X374150Y124800D02*
X376850D01*
X374400Y122900D02*
Y125100D01*
X375200Y122900D02*
Y125100D01*
X376000Y122900D02*
Y125100D01*
X376800Y122900D02*
Y125100D01*
X225150Y328900D02*
Y331100D01*
X227850*
Y328900*
X225150*
Y329600D02*
X227850D01*
X225150Y330400D02*
X227850D01*
X225600Y328900D02*
Y331100D01*
X226400Y328900D02*
Y331100D01*
X227200Y328900D02*
Y331100D01*
X230150Y328900D02*
Y331100D01*
X232850*
Y328900*
X230150*
Y329600D02*
X232850D01*
X230150Y330400D02*
X232850D01*
X230400Y328900D02*
Y331100D01*
X231200Y328900D02*
Y331100D01*
X232000Y328900D02*
Y331100D01*
X232800Y328900D02*
Y331100D01*
X375900Y343850D02*
X378100D01*
Y341150*
X375900*
Y343850*
Y341600D02*
X378100D01*
X375900Y342400D02*
X378100D01*
X375900Y343200D02*
X378100D01*
X376000Y341150D02*
Y343850D01*
X376800Y341150D02*
Y343850D01*
X377600Y341150D02*
Y343850D01*
X375900Y338850D02*
X378100D01*
Y336150*
X375900*
Y338850*
Y336800D02*
X378100D01*
X375900Y337600D02*
X378100D01*
X375900Y338400D02*
X378100D01*
X376000Y336150D02*
Y338850D01*
X376800Y336150D02*
Y338850D01*
X377600Y336150D02*
Y338850D01*
X215150Y236900D02*
Y239100D01*
X217850*
Y236900*
X215150*
Y237600D02*
X217850D01*
X215150Y238400D02*
X217850D01*
X215200Y236900D02*
Y239100D01*
X216000Y236900D02*
Y239100D01*
X216800Y236900D02*
Y239100D01*
X217600Y236900D02*
Y239100D01*
X220150Y236900D02*
Y239100D01*
X222850*
Y236900*
X220150*
Y237600D02*
X222850D01*
X220150Y238400D02*
X222850D01*
X220800Y236900D02*
Y239100D01*
X221600Y236900D02*
Y239100D01*
X222400Y236900D02*
Y239100D01*
X247900Y302850D02*
X250100D01*
Y300150*
X247900*
Y302850*
Y300800D02*
X250100D01*
X247900Y301600D02*
X250100D01*
X247900Y302400D02*
X250100D01*
X248000Y300150D02*
Y302850D01*
X248800Y300150D02*
Y302850D01*
X249600Y300150D02*
Y302850D01*
X247900Y297850D02*
X250100D01*
Y295150*
X247900*
Y297850*
Y295200D02*
X250100D01*
X247900Y296000D02*
X250100D01*
X247900Y296800D02*
X250100D01*
X247900Y297600D02*
X250100D01*
X248000Y295150D02*
Y297850D01*
X248800Y295150D02*
Y297850D01*
X249600Y295150D02*
Y297850D01*
X247900Y347850D02*
X250100D01*
Y345150*
X247900*
Y347850*
Y345600D02*
X250100D01*
X247900Y346400D02*
X250100D01*
X247900Y347200D02*
X250100D01*
X248000Y345150D02*
Y347850D01*
X248800Y345150D02*
Y347850D01*
X249600Y345150D02*
Y347850D01*
X247900Y342850D02*
X250100D01*
Y340150*
X247900*
Y342850*
Y340800D02*
X250100D01*
X247900Y341600D02*
X250100D01*
X247900Y342400D02*
X250100D01*
X248000Y340150D02*
Y342850D01*
X248800Y340150D02*
Y342850D01*
X249600Y340150D02*
Y342850D01*
X241900Y302850D02*
X244100D01*
Y300150*
X241900*
Y302850*
Y300800D02*
X244100D01*
X241900Y301600D02*
X244100D01*
X241900Y302400D02*
X244100D01*
X242400Y300150D02*
Y302850D01*
X243200Y300150D02*
Y302850D01*
X244000Y300150D02*
Y302850D01*
X241900Y297850D02*
X244100D01*
Y295150*
X241900*
Y297850*
Y295200D02*
X244100D01*
X241900Y296000D02*
X244100D01*
X241900Y296800D02*
X244100D01*
X241900Y297600D02*
X244100D01*
X242400Y295150D02*
Y297850D01*
X243200Y295150D02*
Y297850D01*
X244000Y295150D02*
Y297850D01*
X241900Y347850D02*
X244100D01*
Y345150*
X241900*
Y347850*
Y345600D02*
X244100D01*
X241900Y346400D02*
X244100D01*
X241900Y347200D02*
X244100D01*
X242400Y345150D02*
Y347850D01*
X243200Y345150D02*
Y347850D01*
X244000Y345150D02*
Y347850D01*
X241900Y342850D02*
X244100D01*
Y340150*
X241900*
Y342850*
Y340800D02*
X244100D01*
X241900Y341600D02*
X244100D01*
X241900Y342400D02*
X244100D01*
X242400Y340150D02*
Y342850D01*
X243200Y340150D02*
Y342850D01*
X244000Y340150D02*
Y342850D01*
X190850Y297100D02*
Y294900D01*
X188150*
Y297100*
X190850*
X188150Y295200D02*
X190850D01*
X188150Y296000D02*
X190850D01*
X188150Y296800D02*
X190850D01*
X188800Y294900D02*
Y297100D01*
X189600Y294900D02*
Y297100D01*
X190400Y294900D02*
Y297100D01*
X185850D02*
Y294900D01*
X183150*
Y297100*
X185850*
X183150Y295200D02*
X185850D01*
X183150Y296000D02*
X185850D01*
X183150Y296800D02*
X185850D01*
X183200Y294900D02*
Y297100D01*
X184000Y294900D02*
Y297100D01*
X184800Y294900D02*
Y297100D01*
X185600Y294900D02*
Y297100D01*
X219900Y302850D02*
X222100D01*
Y300150*
X219900*
Y302850*
Y300800D02*
X222100D01*
X219900Y301600D02*
X222100D01*
X219900Y302400D02*
X222100D01*
X220000Y300150D02*
Y302850D01*
X220800Y300150D02*
Y302850D01*
X221600Y300150D02*
Y302850D01*
X219900Y297850D02*
X222100D01*
Y295150*
X219900*
Y297850*
Y295200D02*
X222100D01*
X219900Y296000D02*
X222100D01*
X219900Y296800D02*
X222100D01*
X219900Y297600D02*
X222100D01*
X220000Y295150D02*
Y297850D01*
X220800Y295150D02*
Y297850D01*
X221600Y295150D02*
Y297850D01*
X247900Y291850D02*
X250100D01*
Y289150*
X247900*
Y291850*
Y289600D02*
X250100D01*
X247900Y290400D02*
X250100D01*
X247900Y291200D02*
X250100D01*
X248000Y289150D02*
Y291850D01*
X248800Y289150D02*
Y291850D01*
X249600Y289150D02*
Y291850D01*
X247900Y286850D02*
X250100D01*
Y284150*
X247900*
Y286850*
Y284800D02*
X250100D01*
X247900Y285600D02*
X250100D01*
X247900Y286400D02*
X250100D01*
X248000Y284150D02*
Y286850D01*
X248800Y284150D02*
Y286850D01*
X249600Y284150D02*
Y286850D01*
X219900Y347850D02*
X222100D01*
Y345150*
X219900*
Y347850*
Y345600D02*
X222100D01*
X219900Y346400D02*
X222100D01*
X219900Y347200D02*
X222100D01*
X220000Y345150D02*
Y347850D01*
X220800Y345150D02*
Y347850D01*
X221600Y345150D02*
Y347850D01*
X219900Y342850D02*
X222100D01*
Y340150*
X219900*
Y342850*
Y340800D02*
X222100D01*
X219900Y341600D02*
X222100D01*
X219900Y342400D02*
X222100D01*
X220000Y340150D02*
Y342850D01*
X220800Y340150D02*
Y342850D01*
X221600Y340150D02*
Y342850D01*
X247900Y336850D02*
X250100D01*
Y334150*
X247900*
Y336850*
Y334400D02*
X250100D01*
X247900Y335200D02*
X250100D01*
X247900Y336000D02*
X250100D01*
X247900Y336800D02*
X250100D01*
X248000Y334150D02*
Y336850D01*
X248800Y334150D02*
Y336850D01*
X249600Y334150D02*
Y336850D01*
X247900Y331850D02*
X250100D01*
Y329150*
X247900*
Y331850*
Y329600D02*
X250100D01*
X247900Y330400D02*
X250100D01*
X247900Y331200D02*
X250100D01*
X248000Y329150D02*
Y331850D01*
X248800Y329150D02*
Y331850D01*
X249600Y329150D02*
Y331850D01*
X234850Y239100D02*
Y236900D01*
X232150*
Y239100*
X234850*
X232150Y237600D02*
X234850D01*
X232150Y238400D02*
X234850D01*
X232800Y236900D02*
Y239100D01*
X233600Y236900D02*
Y239100D01*
X234400Y236900D02*
Y239100D01*
X229850D02*
Y236900D01*
X227150*
Y239100*
X229850*
X227150Y237600D02*
X229850D01*
X227150Y238400D02*
X229850D01*
X227200Y236900D02*
Y239100D01*
X228000Y236900D02*
Y239100D01*
X228800Y236900D02*
Y239100D01*
X229600Y236900D02*
Y239100D01*
X285100Y226150D02*
X282900D01*
Y228850*
X285100*
Y226150*
X282900Y226400D02*
X285100D01*
X282900Y227200D02*
X285100D01*
X282900Y228000D02*
X285100D01*
X282900Y228800D02*
X285100D01*
X283200Y226150D02*
Y228850D01*
X284000Y226150D02*
Y228850D01*
X284800Y226150D02*
Y228850D01*
X285100Y231150D02*
X282900D01*
Y233850*
X285100*
Y231150*
X282900Y231200D02*
X285100D01*
X282900Y232000D02*
X285100D01*
X282900Y232800D02*
X285100D01*
X282900Y233600D02*
X285100D01*
X283200Y231150D02*
Y233850D01*
X284000Y231150D02*
Y233850D01*
X284800Y231150D02*
Y233850D01*
X421150Y242900D02*
Y245100D01*
X423850*
Y242900*
X421150*
Y243200D02*
X423850D01*
X421150Y244000D02*
X423850D01*
X421150Y244800D02*
X423850D01*
X421600Y242900D02*
Y245100D01*
X422400Y242900D02*
Y245100D01*
X423200Y242900D02*
Y245100D01*
X426150Y242900D02*
Y245100D01*
X428850*
Y242900*
X426150*
Y243200D02*
X428850D01*
X426150Y244000D02*
X428850D01*
X426150Y244800D02*
X428850D01*
X426400Y242900D02*
Y245100D01*
X427200Y242900D02*
Y245100D01*
X428000Y242900D02*
Y245100D01*
X428800Y242900D02*
Y245100D01*
X467850Y234100D02*
Y231900D01*
X465150*
Y234100*
X467850*
X465150Y232000D02*
X467850D01*
X465150Y232800D02*
X467850D01*
X465150Y233600D02*
X467850D01*
X465600Y231900D02*
Y234100D01*
X466400Y231900D02*
Y234100D01*
X467200Y231900D02*
Y234100D01*
X462850D02*
Y231900D01*
X460150*
Y234100*
X462850*
X460150Y232000D02*
X462850D01*
X460150Y232800D02*
X462850D01*
X460150Y233600D02*
X462850D01*
X460800Y231900D02*
Y234100D01*
X461600Y231900D02*
Y234100D01*
X462400Y231900D02*
Y234100D01*
X118694Y192710D02*
Y184646D01*
X118676Y184526*
X118621Y184418*
X118621D02*
X118535Y184332D01*
X118427Y184277*
X118307Y184258*
X115551*
X115431Y184277*
X115323Y184332*
X115238Y184418*
X115183Y184526*
X115164Y184646*
Y192710*
X118694*
X115556Y184258D02*
Y192710D01*
X115956Y184258D02*
Y192710D01*
X116356Y184258D02*
Y192710D01*
X116756Y184258D02*
Y192710D01*
X117156Y184258D02*
Y192710D01*
X117556Y184258D02*
Y192710D01*
X117956Y184258D02*
Y192710D01*
X118356Y184266D02*
Y192710D01*
X118307Y165348D02*
X118427Y165329D01*
X118535Y165274*
X118620Y165188*
X118675Y165080*
X118694Y164961*
Y156896*
X115164*
Y164961*
X115183Y165080*
X115238Y165188*
X115323Y165274*
X115431Y165329*
X115551Y165348*
X118307*
X115556Y156896D02*
Y165348D01*
X115956Y156896D02*
Y165348D01*
X116356Y156896D02*
Y165348D01*
X116756Y156896D02*
Y165348D01*
X117156Y156896D02*
Y165348D01*
X117556Y156896D02*
Y165348D01*
X117956Y156896D02*
Y165348D01*
X118356Y156896D02*
Y165340D01*
G54D12*
X334378Y274512D02*
X337134D01*
Y271362*
X334378*
Y274512*
Y271654D02*
X337134D01*
X334378Y272441D02*
X337134D01*
X334378Y273228D02*
X337134D01*
X334378Y274016D02*
X337134D01*
X334646Y271362D02*
Y274512D01*
X335433Y271362D02*
Y274512D01*
X336220Y271362D02*
Y274512D01*
X337008Y271362D02*
Y274512D01*
X334378Y266638D02*
X337134D01*
Y263488*
X334378*
Y266638*
Y263780D02*
X337134D01*
X334378Y264567D02*
X337134D01*
X334378Y265354D02*
X337134D01*
X334378Y266142D02*
X337134D01*
X334646Y263488D02*
Y266638D01*
X335433Y263488D02*
Y266638D01*
X336220Y263488D02*
Y266638D01*
X337008Y263488D02*
Y266638D01*
X328866D02*
X331622D01*
Y263488*
X328866*
Y266638*
Y263780D02*
X331622D01*
X328866Y264567D02*
X331622D01*
X328866Y265354D02*
X331622D01*
X328866Y266142D02*
X331622D01*
X329134Y263488D02*
Y266638D01*
X329921Y263488D02*
Y266638D01*
X330709Y263488D02*
Y266638D01*
X331496Y263488D02*
Y266638D01*
X328866Y274512D02*
X331622D01*
Y271362*
X328866*
Y274512*
Y271654D02*
X331622D01*
X328866Y272441D02*
X331622D01*
X328866Y273228D02*
X331622D01*
X328866Y274016D02*
X331622D01*
X329134Y271362D02*
Y274512D01*
X329921Y271362D02*
Y274512D01*
X330709Y271362D02*
Y274512D01*
X331496Y271362D02*
Y274512D01*
X264512Y276622D02*
Y273866D01*
X261362*
Y276622*
X264512*
X261362Y274016D02*
X264512D01*
X261362Y274803D02*
X264512D01*
X261362Y275591D02*
X264512D01*
X261362Y276378D02*
X264512D01*
X261417Y273866D02*
Y276622D01*
X262205Y273866D02*
Y276622D01*
X262992Y273866D02*
Y276622D01*
X263780Y273866D02*
Y276622D01*
X256638D02*
Y273866D01*
X253488*
Y276622*
X256638*
X253488Y274016D02*
X256638D01*
X253488Y274803D02*
X256638D01*
X253488Y275591D02*
X256638D01*
X253488Y276378D02*
X256638D01*
X253543Y273866D02*
Y276622D01*
X254331Y273866D02*
Y276622D01*
X255118Y273866D02*
Y276622D01*
X255906Y273866D02*
Y276622D01*
X256638Y282134D02*
Y279378D01*
X253488*
Y282134*
X256638*
X253488Y279528D02*
X256638D01*
X253488Y280315D02*
X256638D01*
X253488Y281102D02*
X256638D01*
X253488Y281890D02*
X256638D01*
X253543Y279378D02*
Y282134D01*
X254331Y279378D02*
Y282134D01*
X255118Y279378D02*
Y282134D01*
X255906Y279378D02*
Y282134D01*
X264512D02*
Y279378D01*
X261362*
Y282134*
X264512*
X261362Y279528D02*
X264512D01*
X261362Y280315D02*
X264512D01*
X261362Y281102D02*
X264512D01*
X261362Y281890D02*
X264512D01*
X261417Y279378D02*
Y282134D01*
X262205Y279378D02*
Y282134D01*
X262992Y279378D02*
Y282134D01*
X263780Y279378D02*
Y282134D01*
X145709Y288165D02*
Y286197D01*
X140197*
Y288165*
X145709*
X140197Y286614D02*
X145709D01*
X140197Y287402D02*
X145709D01*
X140945Y286197D02*
Y288165D01*
X141732Y286197D02*
Y288165D01*
X142520Y286197D02*
Y288165D01*
X143307Y286197D02*
Y288165D01*
X144094Y286197D02*
Y288165D01*
X144882Y286197D02*
Y288165D01*
X145669Y286197D02*
Y288165D01*
X145709Y281984D02*
Y280016D01*
X140197*
Y281984*
X145709*
X140197Y280315D02*
X145709D01*
X140197Y281102D02*
X145709D01*
X140197Y281890D02*
X145709D01*
X140945Y280016D02*
Y281984D01*
X141732Y280016D02*
Y281984D01*
X142520Y280016D02*
Y281984D01*
X143307Y280016D02*
Y281984D01*
X144094Y280016D02*
Y281984D01*
X144882Y280016D02*
Y281984D01*
X145669Y280016D02*
Y281984D01*
X145709Y275803D02*
Y273835D01*
X140197*
Y275803*
X145709*
X140197Y274016D02*
X145709D01*
X140197Y274803D02*
X145709D01*
X140197Y275591D02*
X145709D01*
X140945Y273835D02*
Y275803D01*
X141732Y273835D02*
Y275803D01*
X142520Y273835D02*
Y275803D01*
X143307Y273835D02*
Y275803D01*
X144094Y273835D02*
Y275803D01*
X144882Y273835D02*
Y275803D01*
X145669Y273835D02*
Y275803D01*
X345504Y267150D02*
X348654D01*
Y260850*
X345504*
Y267150*
Y261417D02*
X348654D01*
X345504Y262205D02*
X348654D01*
X345504Y262992D02*
X348654D01*
X345504Y263780D02*
X348654D01*
X345504Y264567D02*
X348654D01*
X345504Y265354D02*
X348654D01*
X345504Y266142D02*
X348654D01*
X345504Y266929D02*
X348654D01*
X345669Y260850D02*
Y267150D01*
X346457Y260850D02*
Y267150D01*
X347244Y260850D02*
Y267150D01*
X348031Y260850D02*
Y267150D01*
X355346D02*
X358496D01*
Y260850*
X355346*
Y267150*
Y261417D02*
X358496D01*
X355346Y262205D02*
X358496D01*
X355346Y262992D02*
X358496D01*
X355346Y263780D02*
X358496D01*
X355346Y264567D02*
X358496D01*
X355346Y265354D02*
X358496D01*
X355346Y266142D02*
X358496D01*
X355346Y266929D02*
X358496D01*
X355906Y260850D02*
Y267150D01*
X356693Y260850D02*
Y267150D01*
X357480Y260850D02*
Y267150D01*
X358268Y260850D02*
Y267150D01*
X311976Y139886D02*
Y140240D01*
X317488*
Y139886*
X311976*
Y140157D02*
X317488D01*
X312598Y139886D02*
Y140240D01*
X313386Y139886D02*
Y140240D01*
X314173Y139886D02*
Y140240D01*
X314961Y139886D02*
Y140240D01*
X315748Y139886D02*
Y140240D01*
X316535Y139886D02*
Y140240D01*
X317323Y139886D02*
Y140240D01*
X311976Y141854D02*
Y142209D01*
X317488*
Y141854*
X311976*
X312598D02*
Y142209D01*
X313386Y141854D02*
Y142209D01*
X314173Y141854D02*
Y142209D01*
X314961Y141854D02*
Y142209D01*
X315748Y141854D02*
Y142209D01*
X316535Y141854D02*
Y142209D01*
X317323Y141854D02*
Y142209D01*
X311976Y143823D02*
Y144177D01*
X317488*
Y143823*
X311976*
Y144094D02*
X317488D01*
X312598Y143823D02*
Y144177D01*
X313386Y143823D02*
Y144177D01*
X314173Y143823D02*
Y144177D01*
X314961Y143823D02*
Y144177D01*
X315748Y143823D02*
Y144177D01*
X316535Y143823D02*
Y144177D01*
X317323Y143823D02*
Y144177D01*
X311976Y145791D02*
Y146146D01*
X317488*
Y145791*
X311976*
X312598D02*
Y146146D01*
X313386Y145791D02*
Y146146D01*
X314173Y145791D02*
Y146146D01*
X314961Y145791D02*
Y146146D01*
X315748Y145791D02*
Y146146D01*
X316535Y145791D02*
Y146146D01*
X317323Y145791D02*
Y146146D01*
X311976Y147760D02*
Y148114D01*
X317488*
Y147760*
X311976*
Y148031D02*
X317488D01*
X312598Y147760D02*
Y148114D01*
X313386Y147760D02*
Y148114D01*
X314173Y147760D02*
Y148114D01*
X314961Y147760D02*
Y148114D01*
X315748Y147760D02*
Y148114D01*
X316535Y147760D02*
Y148114D01*
X317323Y147760D02*
Y148114D01*
X328512Y147760D02*
Y148114D01*
X334024*
Y147760*
X328512*
Y148031D02*
X334024D01*
X329134Y147760D02*
Y148114D01*
X329921Y147760D02*
Y148114D01*
X330709Y147760D02*
Y148114D01*
X331496Y147760D02*
Y148114D01*
X332283Y147760D02*
Y148114D01*
X333071Y147760D02*
Y148114D01*
X333858Y147760D02*
Y148114D01*
X328512Y145791D02*
Y146146D01*
X334024*
Y145791*
X328512*
X329134D02*
Y146146D01*
X329921Y145791D02*
Y146146D01*
X330709Y145791D02*
Y146146D01*
X331496Y145791D02*
Y146146D01*
X332283Y145791D02*
Y146146D01*
X333071Y145791D02*
Y146146D01*
X333858Y145791D02*
Y146146D01*
X328512Y143823D02*
Y144177D01*
X334024*
Y143823*
X328512*
Y144094D02*
X334024D01*
X329134Y143823D02*
Y144177D01*
X329921Y143823D02*
Y144177D01*
X330709Y143823D02*
Y144177D01*
X331496Y143823D02*
Y144177D01*
X332283Y143823D02*
Y144177D01*
X333071Y143823D02*
Y144177D01*
X333858Y143823D02*
Y144177D01*
X328512Y141854D02*
Y142209D01*
X334024*
Y141854*
X328512*
X329134D02*
Y142209D01*
X329921Y141854D02*
Y142209D01*
X330709Y141854D02*
Y142209D01*
X331496Y141854D02*
Y142209D01*
X332283Y141854D02*
Y142209D01*
X333071Y141854D02*
Y142209D01*
X333858Y141854D02*
Y142209D01*
X328512Y139886D02*
Y140240D01*
X334024*
Y139886*
X328512*
Y140157D02*
X334024D01*
X329134Y139886D02*
Y140240D01*
X329921Y139886D02*
Y140240D01*
X330709Y139886D02*
Y140240D01*
X331496Y139886D02*
Y140240D01*
X332283Y139886D02*
Y140240D01*
X333071Y139886D02*
Y140240D01*
X333858Y139886D02*
Y140240D01*
X128976Y275488D02*
X128703Y275512D01*
X128438Y275583*
X128189Y275699*
X127964Y275857*
X127770Y276051*
X127613Y276276*
X127497Y276524*
X127425Y276790*
X127425D02*
X127402Y277063D01*
Y284937*
X127425Y285210*
X127425D02*
X127497Y285476D01*
X127613Y285724*
X127770Y285949*
X127964Y286143*
X128189Y286301*
X128438Y286417*
X128703Y286488*
X128976Y286512*
X134854*
X135100Y286492*
X135341Y286435*
X135569Y286340*
X135780Y286211*
X135967Y286051*
X141018Y281000*
X135967Y275949*
X135780Y275789*
X135569Y275660*
X135341Y275565*
X135100Y275508*
X134854Y275488*
X128976*
X127402Y277063D02*
Y284937D01*
X127795Y276025D02*
Y285975D01*
X128189Y275699D02*
Y286301D01*
X128583Y275544D02*
Y286456D01*
X128976Y275488D02*
Y286512D01*
X129370Y275488D02*
Y286512D01*
X129764Y275488D02*
Y286512D01*
X130157Y275488D02*
Y286512D01*
X130551Y275488D02*
Y286512D01*
X130945Y275488D02*
Y286512D01*
X131339Y275488D02*
Y286512D01*
X131732Y275488D02*
Y286512D01*
X132126Y275488D02*
Y286512D01*
X132520Y275488D02*
Y286512D01*
X132913Y275488D02*
Y286512D01*
X133307Y275488D02*
Y286512D01*
X133701Y275488D02*
Y286512D01*
X134094Y275488D02*
Y286512D01*
X134488Y275488D02*
Y286512D01*
X134882Y275490D02*
Y286510D01*
X135276Y275550D02*
Y286450D01*
X135669Y275721D02*
Y286279D01*
X136063Y276045D02*
Y285955D01*
X136457Y276439D02*
Y285561D01*
X136850Y276832D02*
Y285168D01*
X137244Y277226D02*
Y284774D01*
X137638Y277620D02*
Y284380D01*
X138031Y278013D02*
Y283987D01*
X138425Y278407D02*
Y283593D01*
X138819Y278801D02*
Y283199D01*
X139213Y279195D02*
Y282805D01*
X139606Y279588D02*
Y282412D01*
X140000Y279982D02*
Y282018D01*
X140394Y280376D02*
Y281624D01*
X140787Y280769D02*
Y281231D01*
G54D13*
X257866Y263134D02*
X266134D01*
Y254866*
X257866*
Y263134*
Y255906D02*
X266134D01*
X257866Y257480D02*
X266134D01*
X257866Y259055D02*
X266134D01*
X257866Y260630D02*
X266134D01*
X257866Y262205D02*
X266134D01*
X259055Y254866D02*
Y263134D01*
X260630Y254866D02*
Y263134D01*
X262205Y254866D02*
Y263134D01*
X263780Y254866D02*
Y263134D01*
X265354Y254866D02*
Y263134D01*
X480283Y219669D02*
X477134D01*
Y228331*
X480283*
Y219669*
X477134Y219685D02*
X480283D01*
X477134Y221260D02*
X480283D01*
X477134Y222835D02*
X480283D01*
X477134Y224409D02*
X480283D01*
X477134Y225984D02*
X480283D01*
X477134Y227559D02*
X480283D01*
X477953Y219669D02*
Y228331D01*
X479528Y219669D02*
Y228331D01*
X468866Y219669D02*
X465717D01*
Y228331*
X468866*
Y219669*
X465717Y219685D02*
X468866D01*
X465717Y221260D02*
X468866D01*
X465717Y222835D02*
X468866D01*
X465717Y224409D02*
X468866D01*
X465717Y225984D02*
X468866D01*
X465717Y227559D02*
X468866D01*
X466929Y219669D02*
Y228331D01*
X468504Y219669D02*
Y228331D01*
X420717Y258331D02*
X423866D01*
Y249669*
X420717*
Y258331*
Y251181D02*
X423866D01*
X420717Y252756D02*
X423866D01*
X420717Y254331D02*
X423866D01*
X420717Y255906D02*
X423866D01*
X420717Y257480D02*
X423866D01*
X421260Y249669D02*
Y258331D01*
X422835Y249669D02*
Y258331D01*
X432134D02*
X435283D01*
Y249669*
X432134*
Y258331*
Y251181D02*
X435283D01*
X432134Y252756D02*
X435283D01*
X432134Y254331D02*
X435283D01*
X432134Y255906D02*
X435283D01*
X432134Y257480D02*
X435283D01*
X432283Y249669D02*
Y258331D01*
X433858Y249669D02*
Y258331D01*
X462669Y241717D02*
Y244866D01*
X471331*
Y241717*
X462669*
Y241732D02*
X471331D01*
X462669Y243307D02*
X471331D01*
X463780Y241717D02*
Y244866D01*
X465354Y241717D02*
Y244866D01*
X466929Y241717D02*
Y244866D01*
X468504Y241717D02*
Y244866D01*
X470079Y241717D02*
Y244866D01*
X462669Y253134D02*
Y256283D01*
X471331*
Y253134*
X462669*
Y254331D02*
X471331D01*
X462669Y255906D02*
X471331D01*
X463780Y253134D02*
Y256283D01*
X465354Y253134D02*
Y256283D01*
X466929Y253134D02*
Y256283D01*
X468504Y253134D02*
Y256283D01*
X470079Y253134D02*
Y256283D01*
X125717Y162331D02*
X128866D01*
Y153669*
X125717*
Y162331*
Y155118D02*
X128866D01*
X125717Y156693D02*
X128866D01*
X125717Y158268D02*
X128866D01*
X125717Y159843D02*
X128866D01*
X125717Y161417D02*
X128866D01*
X126772Y153669D02*
Y162331D01*
X128346Y153669D02*
Y162331D01*
X137134D02*
X140283D01*
Y153669*
X137134*
Y162331*
Y155118D02*
X140283D01*
X137134Y156693D02*
X140283D01*
X137134Y158268D02*
X140283D01*
X137134Y159843D02*
X140283D01*
X137134Y161417D02*
X140283D01*
X137795Y153669D02*
Y162331D01*
X139370Y153669D02*
Y162331D01*
X134331Y194283D02*
Y191134D01*
X125669*
Y194283*
X134331*
X125669Y191339D02*
X134331D01*
X125669Y192913D02*
X134331D01*
X126772Y191134D02*
Y194283D01*
X128346Y191134D02*
Y194283D01*
X129921Y191134D02*
Y194283D01*
X131496Y191134D02*
Y194283D01*
X133071Y191134D02*
Y194283D01*
X134331Y182866D02*
Y179717D01*
X125669*
Y182866*
X134331*
X125669Y180315D02*
X134331D01*
X125669Y181890D02*
X134331D01*
X126772Y179717D02*
Y182866D01*
X128346Y179717D02*
Y182866D01*
X129921Y179717D02*
Y182866D01*
X131496Y179717D02*
Y182866D01*
X133071Y179717D02*
Y182866D01*
G54D35*
X407012Y208154D02*
Y211059D01*
X413067*
Y208154*
X407012*
Y211000D02*
X413067D01*
X409000Y208154D02*
Y211059D01*
X412000Y208154D02*
Y211059D01*
X393232Y218154D02*
Y221059D01*
X399287*
Y218154*
X393232*
Y220000D02*
X399287D01*
X394000Y218154D02*
Y221059D01*
X397000Y218154D02*
Y221059D01*
X407012Y228154D02*
Y231059D01*
X413067*
Y228154*
X407012*
Y229000D02*
X413067D01*
X409000Y228154D02*
Y231059D01*
X412000Y228154D02*
Y231059D01*
X393232Y238154D02*
Y241059D01*
X399287*
Y238154*
X393232*
Y241000D02*
X399287D01*
X394000Y238154D02*
Y241059D01*
X397000Y238154D02*
Y241059D01*
X407012Y248154D02*
Y251059D01*
X413067*
Y248154*
X407012*
Y250000D02*
X413067D01*
X409000Y248154D02*
Y251059D01*
X412000Y248154D02*
Y251059D01*
X393232Y258154D02*
Y261059D01*
X399287*
Y258154*
X393232*
Y259000D02*
X399287D01*
X394000Y258154D02*
Y261059D01*
X397000Y258154D02*
Y261059D01*
X407012Y268154D02*
Y271059D01*
X413067*
Y268154*
X407012*
Y271000D02*
X413067D01*
X409000Y268154D02*
Y271059D01*
X412000Y268154D02*
Y271059D01*
X393232Y278154D02*
Y281059D01*
X399287*
Y278154*
X393232*
Y280000D02*
X399287D01*
X394000Y278154D02*
Y281059D01*
X397000Y278154D02*
Y281059D01*
X407012Y288154D02*
Y291059D01*
X413067*
Y288154*
X407012*
Y289000D02*
X413067D01*
X409000Y288154D02*
Y291059D01*
X412000Y288154D02*
Y291059D01*
X393232Y298154D02*
Y301059D01*
X399287*
Y298154*
X393232*
Y301000D02*
X399287D01*
X394000Y298154D02*
Y301059D01*
X397000Y298154D02*
Y301059D01*
G54D48*
X329000Y112000D03*
X339000D03*
X349000D03*
X289000Y175000D03*
X174000D03*
Y135000D03*
X289000D03*
X359000Y112000D03*
X369000D03*
G54D72*
X108071Y193110D03*
X116929D03*
Y156496D03*
X108071D03*
X116929Y193110D03*
Y156496D03*
G54D94*
X483029Y252996D03*
X125229Y349196D03*
X156829Y119996D03*
G54D102*
X220354Y152110D03*
Y154079D03*
Y156047D03*
Y158016D03*
Y159984D03*
Y161953D03*
Y163921D03*
Y165890D03*
X239646D03*
Y163921D03*
Y161953D03*
Y159984D03*
Y158016D03*
Y156047D03*
Y154079D03*
Y152110D03*
X269579Y263921D03*
Y261953D03*
Y259984D03*
Y258016D03*
Y256047D03*
Y254079D03*
X254421D03*
Y256047D03*
Y258016D03*
Y259984D03*
Y261953D03*
Y263921D03*
X447579Y229937D03*
Y227969D03*
Y226000D03*
Y224031D03*
Y222063D03*
X432421D03*
Y224031D03*
Y226000D03*
Y227969D03*
Y229937D03*
G54D103*
X223110Y168646D03*
X225079D03*
X227047D03*
X229016D03*
X230984D03*
X232953D03*
X234921D03*
X236890D03*
Y149354D03*
X234921D03*
X232953D03*
X230984D03*
X229016D03*
X227047D03*
X225079D03*
X223110D03*
X257079Y266579D03*
X259047D03*
X261016D03*
X262984D03*
X264953D03*
X266921D03*
Y251421D03*
X264953D03*
X262984D03*
X261016D03*
X259047D03*
X257079D03*
X443937Y218421D03*
X441969D03*
X440000D03*
X438031D03*
X436063D03*
Y233579D03*
X438031D03*
X440000D03*
X441969D03*
X443937D03*
G54D104*
X115472Y179724D02*
Y180118D01*
X119409*
Y179724*
X115472*
X116535D02*
Y180118D01*
X117717Y179724D02*
Y180118D01*
X118898Y179724D02*
Y180118D01*
X115472Y177165D02*
Y177559D01*
X119409*
Y177165*
X115472*
X116535D02*
Y177559D01*
X117717Y177165D02*
Y177559D01*
X118898Y177165D02*
Y177559D01*
X115472Y174606D02*
Y175000D01*
X119409*
Y174606*
X115472*
X116535D02*
Y175000D01*
X117717Y174606D02*
Y175000D01*
X118898Y174606D02*
Y175000D01*
X115472Y172047D02*
Y172441D01*
X119409*
Y172047*
X115472*
X119409*
X116535D02*
Y172441D01*
X117717Y172047D02*
Y172441D01*
X118898Y172047D02*
Y172441D01*
X115472Y169488D02*
Y169882D01*
X119409*
Y169488*
X115472*
Y169685D02*
X119409D01*
X116535Y169488D02*
Y169882D01*
X117717Y169488D02*
Y169882D01*
X118898Y169488D02*
Y169882D01*
X435669Y221669D02*
Y230331D01*
X444331*
Y221669*
X435669*
Y222835D02*
X444331D01*
X435669Y224016D02*
X444331D01*
X435669Y225197D02*
X444331D01*
X435669Y226378D02*
X444331D01*
X435669Y227559D02*
X444331D01*
X435669Y228740D02*
X444331D01*
X435669Y229921D02*
X444331D01*
X436614Y221669D02*
Y230331D01*
X437795Y221669D02*
Y230331D01*
X438976Y221669D02*
Y230331D01*
X440157Y221669D02*
Y230331D01*
X441339Y221669D02*
Y230331D01*
X442520Y221669D02*
Y230331D01*
X443701Y221669D02*
Y230331D01*
X102165Y112992D02*
X105709D01*
Y109252*
X102165*
Y112992*
Y109449D02*
X105709D01*
X102165Y110630D02*
X105709D01*
X102165Y111811D02*
X105709D01*
X102165Y112992D02*
X105709D01*
X102362Y109252D02*
Y112992D01*
X103543Y109252D02*
Y112992D01*
X104724Y109252D02*
Y112992D01*
X137205Y142126D02*
Y145866D01*
X143110*
Y142126*
X137205*
Y142520D02*
X143110D01*
X137205Y143701D02*
X143110D01*
X137205Y144882D02*
X143110D01*
X137795Y142126D02*
Y145866D01*
X138976Y142126D02*
Y145866D01*
X140157Y142126D02*
Y145866D01*
X141339Y142126D02*
Y145866D01*
X142520Y142126D02*
Y145866D01*
X120669Y142126D02*
Y145866D01*
X126575*
Y142126*
X120669*
Y142520D02*
X126575D01*
X120669Y143701D02*
X126575D01*
X120669Y144882D02*
X126575D01*
X121260Y142126D02*
Y145866D01*
X122441Y142126D02*
Y145866D01*
X123622Y142126D02*
Y145866D01*
X124803Y142126D02*
Y145866D01*
X125984Y142126D02*
Y145866D01*
X108858Y142126D02*
Y145866D01*
X114764*
Y142126*
X108858*
Y142520D02*
X114764D01*
X108858Y143701D02*
X114764D01*
X108858Y144882D02*
X114764D01*
X109449Y142126D02*
Y145866D01*
X110630Y142126D02*
Y145866D01*
X111811Y142126D02*
Y145866D01*
X112992Y142126D02*
Y145866D01*
X114173Y142126D02*
Y145866D01*
X137205Y109252D02*
Y112992D01*
X143110*
Y109252*
X137205*
Y109449D02*
X143110D01*
X137205Y110630D02*
X143110D01*
X137205Y111811D02*
X143110D01*
X137205Y112992D02*
X143110D01*
X137795Y109252D02*
Y112992D01*
X138976Y109252D02*
Y112992D01*
X140157Y109252D02*
Y112992D01*
X141339Y109252D02*
Y112992D01*
X142520Y109252D02*
Y112992D01*
X120669Y109252D02*
Y112992D01*
X126575*
Y109252*
X120669*
Y109449D02*
X126575D01*
X120669Y110630D02*
X126575D01*
X120669Y111811D02*
X126575D01*
X120669Y112992D02*
X126575D01*
X121260Y109252D02*
Y112992D01*
X122441Y109252D02*
Y112992D01*
X123622Y109252D02*
Y112992D01*
X124803Y109252D02*
Y112992D01*
X125984Y109252D02*
Y112992D01*
X109252Y109252D02*
Y112992D01*
X115157*
Y109252*
X109252*
Y109449D02*
X115157D01*
X109252Y110630D02*
X115157D01*
X109252Y111811D02*
X115157D01*
X109252Y112992D02*
X115157D01*
X109449Y109252D02*
Y112992D01*
X110630Y109252D02*
Y112992D01*
X111811Y109252D02*
Y112992D01*
X112992Y109252D02*
Y112992D01*
X114173Y109252D02*
Y112992D01*
X177909Y241909D02*
Y243091D01*
X182831*
Y241909*
X177909*
Y242913D02*
X182831D01*
X177953Y241909D02*
Y243091D01*
X179134Y241909D02*
Y243091D01*
X180315Y241909D02*
Y243091D01*
X181496Y241909D02*
Y243091D01*
X182677Y241909D02*
Y243091D01*
X177909Y246909D02*
Y248091D01*
X182831*
Y246909*
X177909*
Y247638D02*
X182831D01*
X177953Y246909D02*
Y248091D01*
X179134Y246909D02*
Y248091D01*
X180315Y246909D02*
Y248091D01*
X181496Y246909D02*
Y248091D01*
X182677Y246909D02*
Y248091D01*
X177909Y251909D02*
Y253091D01*
X182831*
Y251909*
X177909*
Y252362D02*
X182831D01*
X177953Y251909D02*
Y253091D01*
X179134Y251909D02*
Y253091D01*
X180315Y251909D02*
Y253091D01*
X181496Y251909D02*
Y253091D01*
X182677Y251909D02*
Y253091D01*
X177909Y256909D02*
Y258091D01*
X182831*
Y256909*
X177909*
Y257087D02*
X182831D01*
X177953Y256909D02*
Y258091D01*
X179134Y256909D02*
Y258091D01*
X180315Y256909D02*
Y258091D01*
X181496Y256909D02*
Y258091D01*
X182677Y256909D02*
Y258091D01*
X199169Y256909D02*
Y258091D01*
X204091*
Y256909*
X199169*
Y257087D02*
X204091D01*
X199213Y256909D02*
Y258091D01*
X200394Y256909D02*
Y258091D01*
X201575Y256909D02*
Y258091D01*
X202756Y256909D02*
Y258091D01*
X203937Y256909D02*
Y258091D01*
X199169Y251909D02*
Y253091D01*
X204091*
Y251909*
X199169*
Y252362D02*
X204091D01*
X199213Y251909D02*
Y253091D01*
X200394Y251909D02*
Y253091D01*
X201575Y251909D02*
Y253091D01*
X202756Y251909D02*
Y253091D01*
X203937Y251909D02*
Y253091D01*
X199169Y246909D02*
Y248091D01*
X204091*
Y246909*
X199169*
Y247638D02*
X204091D01*
X199213Y246909D02*
Y248091D01*
X200394Y246909D02*
Y248091D01*
X201575Y246909D02*
Y248091D01*
X202756Y246909D02*
Y248091D01*
X203937Y246909D02*
Y248091D01*
X199169Y241909D02*
Y243091D01*
X204091*
Y241909*
X199169*
Y242913D02*
X204091D01*
X199213Y241909D02*
Y243091D01*
X200394Y241909D02*
Y243091D01*
X201575Y241909D02*
Y243091D01*
X202756Y241909D02*
Y243091D01*
X203937Y241909D02*
Y243091D01*
X177909Y301909D02*
Y303091D01*
X182831*
Y301909*
X177909*
Y301969D02*
X182831D01*
X177953Y301909D02*
Y303091D01*
X179134Y301909D02*
Y303091D01*
X180315Y301909D02*
Y303091D01*
X181496Y301909D02*
Y303091D01*
X182677Y301909D02*
Y303091D01*
X177909Y306909D02*
Y308091D01*
X182831*
Y306909*
X177909*
Y307874D02*
X182831D01*
X177953Y306909D02*
Y308091D01*
X179134Y306909D02*
Y308091D01*
X180315Y306909D02*
Y308091D01*
X181496Y306909D02*
Y308091D01*
X182677Y306909D02*
Y308091D01*
X177909Y311909D02*
Y313091D01*
X182831*
Y311909*
X177909*
Y312598D02*
X182831D01*
X177953Y311909D02*
Y313091D01*
X179134Y311909D02*
Y313091D01*
X180315Y311909D02*
Y313091D01*
X181496Y311909D02*
Y313091D01*
X182677Y311909D02*
Y313091D01*
X177909Y316909D02*
Y318091D01*
X182831*
Y316909*
X177909*
Y317323D02*
X182831D01*
X177953Y316909D02*
Y318091D01*
X179134Y316909D02*
Y318091D01*
X180315Y316909D02*
Y318091D01*
X181496Y316909D02*
Y318091D01*
X182677Y316909D02*
Y318091D01*
X199169Y316909D02*
Y318091D01*
X204091*
Y316909*
X199169*
Y317323D02*
X204091D01*
X199213Y316909D02*
Y318091D01*
X200394Y316909D02*
Y318091D01*
X201575Y316909D02*
Y318091D01*
X202756Y316909D02*
Y318091D01*
X203937Y316909D02*
Y318091D01*
X199169Y311909D02*
Y313091D01*
X204091*
Y311909*
X199169*
Y312598D02*
X204091D01*
X199213Y311909D02*
Y313091D01*
X200394Y311909D02*
Y313091D01*
X201575Y311909D02*
Y313091D01*
X202756Y311909D02*
Y313091D01*
X203937Y311909D02*
Y313091D01*
X199169Y306909D02*
Y308091D01*
X204091*
Y306909*
X199169*
Y307874D02*
X204091D01*
X199213Y306909D02*
Y308091D01*
X200394Y306909D02*
Y308091D01*
X201575Y306909D02*
Y308091D01*
X202756Y306909D02*
Y308091D01*
X203937Y306909D02*
Y308091D01*
X199169Y301909D02*
Y303091D01*
X204091*
Y301909*
X199169*
Y301969D02*
X204091D01*
X199213Y301909D02*
Y303091D01*
X200394Y301909D02*
Y303091D01*
X201575Y301909D02*
Y303091D01*
X202756Y301909D02*
Y303091D01*
X203937Y301909D02*
Y303091D01*
X236528Y289504D02*
X234953D01*
Y292260*
X236528*
Y289504*
X234953Y290157D02*
X236528D01*
X234953Y291339D02*
X236528D01*
X235827Y289504D02*
Y292260D01*
X232787Y289504D02*
X231213D01*
Y292260*
X232787*
Y289504*
X231213Y290157D02*
X232787D01*
X231213Y291339D02*
X232787D01*
X232283Y289504D02*
Y292260D01*
X229047Y289504D02*
X227472D01*
Y292260*
X229047*
Y289504*
X227472Y290157D02*
X229047D01*
X227472Y291339D02*
X229047D01*
X227559Y289504D02*
Y292260D01*
X228740Y289504D02*
Y292260D01*
X229047Y299740D02*
X227472D01*
Y302496*
X229047*
Y299740*
X227472Y300787D02*
X229047D01*
X227472Y301969D02*
X229047D01*
X227559Y299740D02*
Y302496D01*
X228740Y299740D02*
Y302496D01*
X236528Y299740D02*
X234953D01*
Y302496*
X236528*
Y299740*
X234953Y300787D02*
X236528D01*
X234953Y301969D02*
X236528D01*
X235827Y299740D02*
Y302496D01*
X236528Y334504D02*
X234953D01*
Y337260*
X236528*
Y334504*
X234953Y335039D02*
X236528D01*
X234953Y336220D02*
X236528D01*
X235827Y334504D02*
Y337260D01*
X232787Y334504D02*
X231213D01*
Y337260*
X232787*
Y334504*
X231213Y335039D02*
X232787D01*
X231213Y336220D02*
X232787D01*
X232283Y334504D02*
Y337260D01*
X229047Y334504D02*
X227472D01*
Y337260*
X229047*
Y334504*
X227472Y335039D02*
X229047D01*
X227472Y336220D02*
X229047D01*
X227559Y334504D02*
Y337260D01*
X228740Y334504D02*
Y337260D01*
X229047Y344740D02*
X227472D01*
Y347496*
X229047*
Y344740*
X227472Y345669D02*
X229047D01*
X227472Y346850D02*
X229047D01*
X227559Y344740D02*
Y347496D01*
X228740Y344740D02*
Y347496D01*
X236528Y344740D02*
X234953D01*
Y347496*
X236528*
Y344740*
X234953Y345669D02*
X236528D01*
X234953Y346850D02*
X236528D01*
X235827Y344740D02*
Y347496D01*
X325500Y140890D02*
X320500D01*
Y147110*
X325500*
Y140890*
X320500Y141339D02*
X325500D01*
X320500Y142520D02*
X325500D01*
X320500Y143701D02*
X325500D01*
X320500Y144882D02*
X325500D01*
X320500Y146063D02*
X325500D01*
X320866Y140890D02*
Y147110D01*
X322047Y140890D02*
Y147110D01*
X323228Y140890D02*
Y147110D01*
X324409Y140890D02*
Y147110D01*
X328433Y158709D02*
Y157291D01*
X323709*
Y158709*
X328433*
X323709Y157874D02*
X328433D01*
X324409Y157291D02*
Y158709D01*
X325591Y157291D02*
Y158709D01*
X326772Y157291D02*
Y158709D01*
X327953Y157291D02*
Y158709D01*
X328433Y163709D02*
Y162291D01*
X323709*
Y163709*
X328433*
X323709Y162598D02*
X328433D01*
X324409Y162291D02*
Y163709D01*
X325591Y162291D02*
Y163709D01*
X326772Y162291D02*
Y163709D01*
X327953Y162291D02*
Y163709D01*
X328433Y168709D02*
Y167291D01*
X323709*
Y168709*
X328433*
X323709Y167323D02*
X328433D01*
X323709Y168504D02*
X328433D01*
X324409Y167291D02*
Y168709D01*
X325591Y167291D02*
Y168709D01*
X326772Y167291D02*
Y168709D01*
X327953Y167291D02*
Y168709D01*
X328433Y173709D02*
Y172291D01*
X323709*
Y173709*
X328433*
X323709Y173228D02*
X328433D01*
X324409Y172291D02*
Y173709D01*
X325591Y172291D02*
Y173709D01*
X326772Y172291D02*
Y173709D01*
X327953Y172291D02*
Y173709D01*
X328433Y178709D02*
Y177291D01*
X323709*
Y178709*
X328433*
X323709Y177953D02*
X328433D01*
X324409Y177291D02*
Y178709D01*
X325591Y177291D02*
Y178709D01*
X326772Y177291D02*
Y178709D01*
X327953Y177291D02*
Y178709D01*
X328433Y188709D02*
Y187291D01*
X323709*
Y188709*
X328433*
X323709Y187402D02*
X328433D01*
X323709Y188583D02*
X328433D01*
X324409Y187291D02*
Y188709D01*
X325591Y187291D02*
Y188709D01*
X326772Y187291D02*
Y188709D01*
X327953Y187291D02*
Y188709D01*
X328433Y193709D02*
Y192291D01*
X323709*
Y193709*
X328433*
X323709Y193307D02*
X328433D01*
X324409Y192291D02*
Y193709D01*
X325591Y192291D02*
Y193709D01*
X326772Y192291D02*
Y193709D01*
X327953Y192291D02*
Y193709D01*
X328433Y198709D02*
Y197291D01*
X323709*
Y198709*
X328433*
X323709Y198031D02*
X328433D01*
X324409Y197291D02*
Y198709D01*
X325591Y197291D02*
Y198709D01*
X326772Y197291D02*
Y198709D01*
X327953Y197291D02*
Y198709D01*
X328433Y203709D02*
Y202291D01*
X323709*
Y203709*
X328433*
X323709Y202756D02*
X328433D01*
X324409Y202291D02*
Y203709D01*
X325591Y202291D02*
Y203709D01*
X326772Y202291D02*
Y203709D01*
X327953Y202291D02*
Y203709D01*
X328433Y208709D02*
Y207291D01*
X323709*
Y208709*
X328433*
X323709Y207480D02*
X328433D01*
X323709Y208661D02*
X328433D01*
X324409Y207291D02*
Y208709D01*
X325591Y207291D02*
Y208709D01*
X326772Y207291D02*
Y208709D01*
X327953Y207291D02*
Y208709D01*
X382291D02*
Y207291D01*
X377567*
Y208709*
X382291*
X377567Y207480D02*
X382291D01*
X377567Y208661D02*
X382291D01*
X378740Y207291D02*
Y208709D01*
X379921Y207291D02*
Y208709D01*
X381102Y207291D02*
Y208709D01*
X382283Y207291D02*
Y208709D01*
X382291Y203709D02*
Y202291D01*
X377567*
Y203709*
X382291*
X377567Y202756D02*
X382291D01*
X378740Y202291D02*
Y203709D01*
X379921Y202291D02*
Y203709D01*
X381102Y202291D02*
Y203709D01*
X382283Y202291D02*
Y203709D01*
X382291Y198709D02*
Y197291D01*
X377567*
Y198709*
X382291*
X377567Y198031D02*
X382291D01*
X378740Y197291D02*
Y198709D01*
X379921Y197291D02*
Y198709D01*
X381102Y197291D02*
Y198709D01*
X382283Y197291D02*
Y198709D01*
X382291Y193709D02*
Y192291D01*
X377567*
Y193709*
X382291*
X377567Y193307D02*
X382291D01*
X378740Y192291D02*
Y193709D01*
X379921Y192291D02*
Y193709D01*
X381102Y192291D02*
Y193709D01*
X382283Y192291D02*
Y193709D01*
X382291Y188709D02*
Y187291D01*
X377567*
Y188709*
X382291*
X377567Y187402D02*
X382291D01*
X377567Y188583D02*
X382291D01*
X378740Y187291D02*
Y188709D01*
X379921Y187291D02*
Y188709D01*
X381102Y187291D02*
Y188709D01*
X382283Y187291D02*
Y188709D01*
X382291Y178709D02*
Y177291D01*
X377567*
Y178709*
X382291*
X377567Y177953D02*
X382291D01*
X378740Y177291D02*
Y178709D01*
X379921Y177291D02*
Y178709D01*
X381102Y177291D02*
Y178709D01*
X382283Y177291D02*
Y178709D01*
X382291Y173709D02*
Y172291D01*
X377567*
Y173709*
X382291*
X377567Y173228D02*
X382291D01*
X378740Y172291D02*
Y173709D01*
X379921Y172291D02*
Y173709D01*
X381102Y172291D02*
Y173709D01*
X382283Y172291D02*
Y173709D01*
X382291Y168709D02*
Y167291D01*
X377567*
Y168709*
X382291*
X377567Y167323D02*
X382291D01*
X377567Y168504D02*
X382291D01*
X378740Y167291D02*
Y168709D01*
X379921Y167291D02*
Y168709D01*
X381102Y167291D02*
Y168709D01*
X382283Y167291D02*
Y168709D01*
X382291Y163709D02*
Y162291D01*
X377567*
Y163709*
X382291*
X377567Y162598D02*
X382291D01*
X378740Y162291D02*
Y163709D01*
X379921Y162291D02*
Y163709D01*
X381102Y162291D02*
Y163709D01*
X382283Y162291D02*
Y163709D01*
X382291Y158709D02*
Y157291D01*
X377567*
Y158709*
X382291*
X377567Y157874D02*
X382291D01*
X378740Y157291D02*
Y158709D01*
X379921Y157291D02*
Y158709D01*
X381102Y157291D02*
Y158709D01*
X382283Y157291D02*
Y158709D01*
X328787Y184378D02*
Y181622D01*
X323709*
Y184378*
X328787*
X323709Y182677D02*
X328787D01*
X323709Y183858D02*
X328787D01*
X324409Y181622D02*
Y184378D01*
X325591Y181622D02*
Y184378D01*
X326772Y181622D02*
Y184378D01*
X327953Y181622D02*
Y184378D01*
X382291D02*
Y181622D01*
X377213*
Y184378*
X382291*
X377213Y182677D02*
X382291D01*
X377213Y183858D02*
X382291D01*
X377559Y181622D02*
Y184378D01*
X378740Y181622D02*
Y184378D01*
X379921Y181622D02*
Y184378D01*
X381102Y181622D02*
Y184378D01*
X382283Y181622D02*
Y184378D01*
G54D110*
X361860Y346674D02*
X362660D01*
Y342774*
X361860*
Y346674*
Y343200D02*
X362660D01*
X361860Y344800D02*
X362660D01*
X361860Y346400D02*
X362660D01*
X362400Y342774D02*
Y346674D01*
X365600D02*
X366400D01*
Y342774*
X365600*
Y346674*
Y343200D02*
X366400D01*
X365600Y344800D02*
X366400D01*
X365600Y346400D02*
X366400D01*
X365600Y342774D02*
Y346674D01*
X369340D02*
X370140D01*
Y342774*
X369340*
Y346674*
Y343200D02*
X370140D01*
X369340Y344800D02*
X370140D01*
X369340Y346400D02*
X370140D01*
X369340Y337226D02*
X370140D01*
Y333326*
X369340*
Y337226*
Y333600D02*
X370140D01*
X369340Y335200D02*
X370140D01*
X369340Y336800D02*
X370140D01*
X361860Y337226D02*
X362660D01*
Y333326*
X361860*
Y337226*
Y333600D02*
X362660D01*
X361860Y335200D02*
X362660D01*
X361860Y336800D02*
X362660D01*
X362400Y333326D02*
Y337226D01*
G54D146*
X151100Y338200D02*
Y342000D01*
X154900*
Y338200*
X151100*
Y339000D02*
X154900D01*
X151100Y340000D02*
X154900D01*
X151100Y341000D02*
X154900D01*
X151100Y342000D02*
X154900D01*
X152000Y338200D02*
Y342000D01*
X153000Y338200D02*
Y342000D01*
X154000Y338200D02*
Y342000D01*
X151100Y346000D02*
Y349800D01*
X154900*
Y346000*
X151100*
X154900*
X151100Y347000D02*
X154900D01*
X151100Y348000D02*
X154900D01*
X151100Y349000D02*
X154900D01*
X152000Y346000D02*
Y349800D01*
X153000Y346000D02*
Y349800D01*
X154000Y346000D02*
Y349800D01*
X446100Y245200D02*
Y249000D01*
X449900*
Y245200*
X446100*
Y246000D02*
X449900D01*
X446100Y247000D02*
X449900D01*
X446100Y248000D02*
X449900D01*
X446100Y249000D02*
X449900D01*
X447000Y245200D02*
Y249000D01*
X448000Y245200D02*
Y249000D01*
X449000Y245200D02*
Y249000D01*
X446100Y253000D02*
Y256800D01*
X449900*
Y253000*
X446100*
X449900*
X446100Y254000D02*
X449900D01*
X446100Y255000D02*
X449900D01*
X446100Y256000D02*
X449900D01*
X447000Y253000D02*
Y256800D01*
X448000Y253000D02*
Y256800D01*
X449000Y253000D02*
Y256800D01*
X454100Y250000D02*
Y253800D01*
X457900*
Y250000*
X454100*
X457900*
X454100Y251000D02*
X457900D01*
X454100Y252000D02*
X457900D01*
X454100Y253000D02*
X457900D01*
X455000Y250000D02*
Y253800D01*
X456000Y250000D02*
Y253800D01*
X457000Y250000D02*
Y253800D01*
X454100Y242200D02*
Y246000D01*
X457900*
Y242200*
X454100*
Y243000D02*
X457900D01*
X454100Y244000D02*
X457900D01*
X454100Y245000D02*
X457900D01*
X454100Y246000D02*
X457900D01*
X455000Y242200D02*
Y246000D01*
X456000Y242200D02*
Y246000D01*
X457000Y242200D02*
Y246000D01*
X209100Y346000D02*
Y349800D01*
X212900*
Y346000*
X209100*
X212900*
X209100Y347000D02*
X212900D01*
X209100Y348000D02*
X212900D01*
X209100Y349000D02*
X212900D01*
X210000Y346000D02*
Y349800D01*
X211000Y346000D02*
Y349800D01*
X212000Y346000D02*
Y349800D01*
X209100Y338200D02*
Y342000D01*
X212900*
Y338200*
X209100*
Y339000D02*
X212900D01*
X209100Y340000D02*
X212900D01*
X209100Y341000D02*
X212900D01*
X209100Y342000D02*
X212900D01*
X210000Y338200D02*
Y342000D01*
X211000Y338200D02*
Y342000D01*
X212000Y338200D02*
Y342000D01*
X210100Y286000D02*
Y289800D01*
X213900*
Y286000*
X210100*
X213900*
X210100Y287000D02*
X213900D01*
X210100Y288000D02*
X213900D01*
X210100Y289000D02*
X213900D01*
X211000Y286000D02*
Y289800D01*
X212000Y286000D02*
Y289800D01*
X213000Y286000D02*
Y289800D01*
X210100Y278200D02*
Y282000D01*
X213900*
Y278200*
X210100*
Y279000D02*
X213900D01*
X210100Y280000D02*
X213900D01*
X210100Y281000D02*
X213900D01*
X210100Y282000D02*
X213900D01*
X211000Y278200D02*
Y282000D01*
X212000Y278200D02*
Y282000D01*
X213000Y278200D02*
Y282000D01*
X402000Y128100D02*
Y131900D01*
X405800*
Y128100*
X402000*
Y129000D02*
X405800D01*
X402000Y130000D02*
X405800D01*
X402000Y131000D02*
X405800D01*
X402000Y128100D02*
Y131900D01*
X403000Y128100D02*
Y131900D01*
X404000Y128100D02*
Y131900D01*
X405000Y128100D02*
Y131900D01*
X394200Y128100D02*
Y131900D01*
X398000*
Y128100*
X394200*
Y129000D02*
X398000D01*
X394200Y130000D02*
X398000D01*
X394200Y131000D02*
X398000D01*
X395000Y128100D02*
Y131900D01*
X396000Y128100D02*
Y131900D01*
X397000Y128100D02*
Y131900D01*
X398000Y128100D02*
Y131900D01*
X402000Y152100D02*
Y155900D01*
X405800*
Y152100*
X402000*
Y153000D02*
X405800D01*
X402000Y154000D02*
X405800D01*
X402000Y155000D02*
X405800D01*
X402000Y152100D02*
Y155900D01*
X403000Y152100D02*
Y155900D01*
X404000Y152100D02*
Y155900D01*
X405000Y152100D02*
Y155900D01*
X394200Y152100D02*
Y155900D01*
X398000*
Y152100*
X394200*
Y153000D02*
X398000D01*
X394200Y154000D02*
X398000D01*
X394200Y155000D02*
X398000D01*
X395000Y152100D02*
Y155900D01*
X396000Y152100D02*
Y155900D01*
X397000Y152100D02*
Y155900D01*
X398000Y152100D02*
Y155900D01*
X372100Y136200D02*
Y140000D01*
X375900*
Y136200*
X372100*
Y137000D02*
X375900D01*
X372100Y138000D02*
X375900D01*
X372100Y139000D02*
X375900D01*
X372100Y140000D02*
X375900D01*
X373000Y136200D02*
Y140000D01*
X374000Y136200D02*
Y140000D01*
X375000Y136200D02*
Y140000D01*
X372100Y144000D02*
Y147800D01*
X375900*
Y144000*
X372100*
X375900*
X372100Y145000D02*
X375900D01*
X372100Y146000D02*
X375900D01*
X372100Y147000D02*
X375900D01*
X373000Y144000D02*
Y147800D01*
X374000Y144000D02*
Y147800D01*
X375000Y144000D02*
Y147800D01*
X481531Y253000D02*
X481560Y253286D01*
X481643Y253562*
X481779Y253816*
X481962Y254038*
X482184Y254221*
X482438Y254357*
X482714Y254440*
X483000Y254469*
X483286Y254440*
X483562Y254357*
X483816Y254221*
X484038Y254038*
X484221Y253816*
X484357Y253562*
X484440Y253286*
X484469Y253000*
X484440Y252714*
X484357Y252438*
X484221Y252184*
X484038Y251962*
X483816Y251779*
X483562Y251643*
X483286Y251560*
X483000Y251531*
X482714Y251560*
X482438Y251643*
X482184Y251779*
X481962Y251962*
X481779Y252184*
X481643Y252438*
X481560Y252714*
X481531Y253000*
X482000Y251930D02*
Y254070D01*
X482500Y251624D02*
Y254376D01*
X483000Y251531D02*
Y254469D01*
X483500Y251624D02*
Y254376D01*
X484000Y251930D02*
Y254070D01*
X123731Y349200D02*
X123760Y349486D01*
X123843Y349762*
X123979Y350016*
X124162Y350238*
X124384Y350421*
X124638Y350557*
X124914Y350640*
X125200Y350669*
X125486Y350640*
X125762Y350557*
X126016Y350421*
X126238Y350238*
X126421Y350016*
X126557Y349762*
X126640Y349486*
X126669Y349200*
X126640Y348914*
X126557Y348638*
X126421Y348384*
X126238Y348162*
X126016Y347979*
X125762Y347843*
X125486Y347760*
X125200Y347731*
X124914Y347760*
X124638Y347843*
X124384Y347979*
X124162Y348162*
X123979Y348384*
X123843Y348638*
X123760Y348914*
X123731Y349200*
X124200Y348130D02*
Y350270D01*
X124700Y347824D02*
Y350576D01*
X125200Y347731D02*
Y350669D01*
X125700Y347824D02*
Y350576D01*
X126200Y348130D02*
Y350270D01*
X155331Y120000D02*
X155360Y120286D01*
X155443Y120562*
X155579Y120816*
X155762Y121038*
X155984Y121221*
X156238Y121357*
X156514Y121440*
X156800Y121469*
X157086Y121440*
X157362Y121357*
X157616Y121221*
X157838Y121038*
X158021Y120816*
X158157Y120562*
X158240Y120286*
X158269Y120000*
X158240Y119714*
X158157Y119438*
X158021Y119184*
X157838Y118962*
X157616Y118779*
X157362Y118643*
X157086Y118560*
X156800Y118531*
X156514Y118560*
X156238Y118643*
X155984Y118779*
X155762Y118962*
X155579Y119184*
X155443Y119438*
X155360Y119714*
X155331Y120000*
X155800Y118930D02*
Y121070D01*
X156300Y118624D02*
Y121376D01*
X156800Y118531D02*
Y121469D01*
X157300Y118624D02*
Y121376D01*
X157800Y118930D02*
Y121070D01*
X485453Y253000D02*
G75*
G03X485453I-2453J0D01*
G01X127653Y349200D02*
G03X127653I-2453J0D01*
G01X159253Y120000D02*
G03X159253I-2453J0D01*
G01X485453Y253000D02*
G03X485453I-2453J0D01*
G01X127653Y349200D02*
G03X127653I-2453J0D01*
G01X159253Y120000D02*
G03X159253I-2453J0D01*
G01X112098Y172173D02*
Y177433D01*
X105224*
Y172173*
X112098*
X480560Y253246D02*
X485440D01*
X480636Y252346D02*
X485364D01*
X480831Y254146D02*
X485169D01*
X481102Y251446D02*
X484898D01*
X481647Y255046D02*
X484353D01*
X122760Y349446D02*
X127640D01*
X122836Y348546D02*
X127564D01*
X123031Y350346D02*
X127369D01*
X123302Y347646D02*
X127098D01*
X123847Y351246D02*
X126553D01*
X154360Y120246D02*
X159240D01*
X154436Y119346D02*
X159164D01*
X154631Y121146D02*
X158969D01*
X154902Y118446D02*
X158698D01*
X155447Y122046D02*
X158153D01*
X105224Y176672D02*
X112098D01*
X105224Y175772D02*
X112098D01*
X105224Y174872D02*
X112098D01*
X105224Y173972D02*
X112098D01*
X105224Y173072D02*
X112098D01*
G54D148*
X455547Y179952D02*
X469660Y165839D01*
X449562Y173967D02*
X463675Y159854D01*
X482980Y179159D02*
X468867Y193272D01*
X488965Y185144D02*
X474852Y199257D01*
G54D149*
X224094Y153094D02*
Y164906D01*
X235906*
Y153094*
X224094*
Y153150D02*
X235906D01*
X224094Y155118D02*
X235906D01*
X224094Y157087D02*
X235906D01*
X224094Y159055D02*
X235906D01*
X224094Y161024D02*
X235906D01*
X224094Y162992D02*
X235906D01*
X225984Y153094D02*
Y164906D01*
X227953Y153094D02*
Y164906D01*
X229921Y153094D02*
Y164906D01*
X231890Y153094D02*
Y164906D01*
X233858Y153094D02*
Y164906D01*
X235827Y153094D02*
Y164906D01*
G54D150*
X110135Y242301D02*
Y245101D01*
X122935*
Y242301*
X110135*
Y244000D02*
X122935D01*
X112800Y242301D02*
Y245101D01*
X116000Y242301D02*
Y245101D01*
X119200Y242301D02*
Y245101D01*
X122400Y242301D02*
Y245101D01*
X110135Y232301D02*
Y235101D01*
X122935*
Y232301*
X110135*
Y234400D02*
X122935D01*
X112800Y232301D02*
Y235101D01*
X116000Y232301D02*
Y235101D01*
X119200Y232301D02*
Y235101D01*
X122400Y232301D02*
Y235101D01*
X110135Y252301D02*
Y255101D01*
X122935*
Y252301*
X110135*
Y253600D02*
X122935D01*
X112800Y252301D02*
Y255101D01*
X116000Y252301D02*
Y255101D01*
X119200Y252301D02*
Y255101D01*
X122400Y252301D02*
Y255101D01*
X110135Y315135D02*
Y317935D01*
X122935*
Y315135*
X110135*
Y317600D02*
X122935D01*
X112800Y315135D02*
Y317935D01*
X116000Y315135D02*
Y317935D01*
X119200Y315135D02*
Y317935D01*
X122400Y315135D02*
Y317935D01*
X110135Y305135D02*
Y307935D01*
X122935*
Y305135*
X110135*
X112800D02*
Y307935D01*
X116000Y305135D02*
Y307935D01*
X119200Y305135D02*
Y307935D01*
X122400Y305135D02*
Y307935D01*
X110135Y325135D02*
Y327935D01*
X122935*
Y325135*
X110135*
Y327200D02*
X122935D01*
X112800Y325135D02*
Y327935D01*
X116000Y325135D02*
Y327935D01*
X119200Y325135D02*
Y327935D01*
X122400Y325135D02*
Y327935D01*
G54D151*
X397244Y344094D03*
X111811Y280118D03*
X304724Y111811D03*
G54D153*
X378660Y305384D02*
X379860D01*
Y300884*
X378660*
Y305384*
Y301600D02*
X379860D01*
X378660Y303000D02*
X379860D01*
X378660Y304400D02*
X379860D01*
X386140Y305384D02*
X387340D01*
Y300884*
X386140*
Y305384*
Y301600D02*
X387340D01*
X386140Y303000D02*
X387340D01*
X386140Y304400D02*
X387340D01*
X387000Y300884D02*
Y305384D01*
X382400Y297116D02*
X383600D01*
Y292616*
X382400*
Y297116*
Y293200D02*
X383600D01*
X382400Y294600D02*
X383600D01*
X382400Y296000D02*
X383600D01*
X382800Y292616D02*
Y297116D01*
X269384Y200340D02*
Y199140D01*
X264884*
Y200340*
X269384*
X264884Y199400D02*
X269384D01*
X265200Y199140D02*
Y200340D01*
X266600Y199140D02*
Y200340D01*
X268000Y199140D02*
Y200340D01*
X269384Y192860D02*
Y191660D01*
X264884*
Y192860*
X269384*
X264884Y192400D02*
X269384D01*
X265200Y191660D02*
Y192860D01*
X266600Y191660D02*
Y192860D01*
X268000Y191660D02*
Y192860D01*
X261116Y196600D02*
Y195400D01*
X256616*
Y196600*
X261116*
X256616D02*
X261116D01*
X256800Y195400D02*
Y196600D01*
X258200Y195400D02*
Y196600D01*
X259600Y195400D02*
Y196600D01*
X261000Y195400D02*
Y196600D01*
X278384Y234340D02*
Y233140D01*
X273884*
Y234340*
X278384*
X275000Y233140D02*
Y234340D01*
X276400Y233140D02*
Y234340D01*
X277800Y233140D02*
Y234340D01*
X278384Y226860D02*
Y225660D01*
X273884*
Y226860*
X278384*
X273884Y226000D02*
X278384D01*
X275000Y225660D02*
Y226860D01*
X276400Y225660D02*
Y226860D01*
X277800Y225660D02*
Y226860D01*
X270116Y230600D02*
Y229400D01*
X265616*
Y230600*
X270116*
X265616Y230200D02*
X270116D01*
X266600Y229400D02*
Y230600D01*
X268000Y229400D02*
Y230600D01*
X269400Y229400D02*
Y230600D01*
G54D166*
X132583Y205323D03*
Y207882D03*
Y210441D03*
Y213000D03*
Y215559D03*
Y218118D03*
Y220677D03*
X155417D03*
Y218118D03*
Y215559D03*
Y213000D03*
Y210441D03*
Y207882D03*
Y205323D03*
G54D167*
X191161Y343268D03*
X193720D03*
X196280D03*
X198839D03*
Y326732D03*
X196280D03*
X193720D03*
X191161D03*
Y283268D03*
X193720D03*
X196280D03*
X198839D03*
Y266732D03*
X196280D03*
X193720D03*
X191161D03*
G54D169*
X385535Y138063D03*
Y140031D03*
Y142000D03*
Y143969D03*
Y145937D03*
X402465D03*
Y143969D03*
Y142000D03*
Y140031D03*
Y138063D03*
G54D170*
X195750Y148370D03*
X193250D03*
X190750D03*
X188250D03*
X185750D03*
X183250D03*
X180750D03*
X178250D03*
Y169630D03*
X180750D03*
X183250D03*
X185750D03*
X188250D03*
X190750D03*
X193250D03*
X195750D03*
X266250D03*
X268750D03*
X271250D03*
X273750D03*
X276250D03*
X278750D03*
X281250D03*
X283750D03*
Y148370D03*
X281250D03*
X278750D03*
X276250D03*
X273750D03*
X271250D03*
X268750D03*
X266250D03*
G54D173*
X236839Y207437D03*
X234280D03*
X231720D03*
X229161D03*
Y224563D03*
X231720D03*
X234280D03*
X236839D03*
X211161D03*
X213720D03*
X216280D03*
X218839D03*
Y207437D03*
X216280D03*
X213720D03*
X211161D03*
G74*
X0Y0D02*
M02*
