*
*
G04 PADS 9.5 Build Number: 522968 generated Gerber (RS-274-X) file*
G04 PC Version=2.1*
*
%IN "PSDR.pcb"*%
*
%MOIN*%
*
%FSLAX35Y35*%
*
*
*
*
G04 PC Standard Apertures*
*
*
G04 Thermal Relief Aperture macro.*
%AMTER*
1,1,$1,0,0*
1,0,$1-$2,0,0*
21,0,$3,$4,0,0,45*
21,0,$3,$4,0,0,135*
%
*
*
G04 Annular Aperture macro.*
%AMANN*
1,1,$1,0,0*
1,0,$2,0,0*
%
*
*
G04 Odd Aperture macro.*
%AMODD*
1,1,$1,0,0*
1,0,$1-0.005,0,0*
%
*
*
G04 PC Custom Aperture Macros*
*
*
*
*
*
*
G04 PC Aperture Table*
*
%ADD010C,0.001*%
*
*
*
*
G04 PC Circuitry*
G04 Layer Name PSDR.pcb - circuitry*
%LPD*%
*
*
G04 PC Custom Flashes*
G04 Layer Name PSDR.pcb - flashes*
%LPD*%
*
*
G04 PC Circuitry*
G04 Layer Name PSDR.pcb - circuitry*
%LPD*%
*
G54D10*
G01X100000Y331000D02*
Y338300D01*
X117597Y355900D02*
G75*
G03X100000Y338303I124J-17721D01*
G01X117600Y355900D02*
X424800D01*
X436600Y344105D02*
G03X424805Y355900I-11754J41D01*
G01X436600Y344100D02*
Y263400D01*
Y263401D02*
G03X440601Y259400I4044J43D01*
G01X440600D02*
X481900D01*
X493700Y247601D02*
G03X481901Y259400I-11717J82D01*
G01X493700Y247600D02*
Y205800D01*
X488497Y193297D02*
G03X493700Y205796I-12265J12438D01*
G01X488500Y193300D02*
X485200Y190000D01*
X474100Y201100*
X474098Y201102D02*
G03X468497Y201097I-2798J-2664D01*
G01X468500Y201100D02*
X467400Y200000D01*
G03Y194800I2950J-2600*
G01X478700Y183500*
X465300Y170100*
X454100Y181300*
X454101Y181299D02*
G03X448699I-2701J-2758D01*
G01X448700Y181300D02*
X447700Y180300D01*
G03Y174700I2723J-2800*
G01X458800Y163600*
X400400Y105200*
X388095Y100000D02*
G03X400396Y105196I-91J17375D01*
G01X388100Y100000D02*
X117800D01*
X100301Y114896D02*
G03X117804Y100000I17349J2655D01*
G01X100300Y114900D02*
X129400D01*
Y113300*
Y113301D02*
G03X134400I2500J26D01*
G01Y113300D02*
Y114900D01*
X147300*
X147299D02*
G03X151200Y118801I14J3887D01*
G01Y118800D02*
Y136200D01*
Y136198D02*
G03X147205Y140200I-3926J76D01*
G01X147200D02*
X134400D01*
Y141700*
G03X129400I-2500J70*
G01Y140200*
X100000*
Y155100*
X100003Y155101D02*
G03X103200Y159000I-822J3934D01*
G01Y161200*
X111000*
X111001D02*
G03X113000Y163202I35J1964D01*
G01Y163200D02*
Y167700D01*
Y167701D02*
G03X110998Y169700I-1964J35D01*
G01X111000D02*
X103200D01*
Y179900*
X111000*
X111001D02*
G03X113000Y181902I14J1985D01*
G01Y181900D02*
Y186400D01*
Y186401D02*
G03X110998Y188400I-1964J35D01*
G01X111000D02*
X103200D01*
Y190700*
Y190701D02*
G03X100001Y194500I-4022J-140D01*
G01X100000D02*
Y229200D01*
X103700*
X103703D02*
G03X107700Y233204I-28J4025D01*
G01Y233200D02*
Y254200D01*
Y254197D02*
G03X103704Y258200I-4010J-7D01*
G01X103700D02*
X100000D01*
Y302000*
X103800*
X103798D02*
G03X107700Y305895I-156J4058D01*
G01Y305900D02*
Y327000D01*
Y327001D02*
G03X103701Y331000I-3944J55D01*
G01X103700D02*
X100000D01*
G74*
X0Y0D02*
M02*
