*
*
G04 PADS9.1 Build Number: 384028 generated Gerber (RS-274-X) file*
G04 PC Version=2.1*
*
%IN "KeyChainDevBoard.pcb"*%
*
%MOIN*%
*
%FSLAX35Y35*%
*
*
*
*
G04 PC Standard Apertures*
*
*
G04 Thermal Relief Aperture macro.*
%AMTER*
1,1,$1,0,0*
1,0,$1-$2,0,0*
21,0,$3,$4,0,0,45*
21,0,$3,$4,0,0,135*
%
*
*
G04 Annular Aperture macro.*
%AMANN*
1,1,$1,0,0*
1,0,$2,0,0*
%
*
*
G04 Odd Aperture macro.*
%AMODD*
1,1,$1,0,0*
1,0,$1-0.005,0,0*
%
*
*
G04 PC Custom Aperture Macros*
*
*
*
*
*
*
G04 PC Aperture Table*
*
%ADD010C,0.001*%
%ADD011C,0.008*%
%ADD012C,0.00787*%
%ADD013C,0.01575*%
%ADD034C,0.012*%
%ADD036C,0.02*%
%ADD048C,0.07*%
%ADD083C,0.00551*%
%ADD089R,0.043X0.039*%
%ADD091R,0.059X0.026*%
%ADD096R,0.039X0.043*%
%ADD146C,0.28*%
%ADD147C,0.04921*%
%ADD148C,0.06102*%
%ADD149C,0.032*%
%ADD150C,0.01*%
%ADD151R,0.055X0.024*%
%ADD152C,0.028*%
%ADD153C,0.014*%
*
*
*
*
G04 PC Circuitry*
G04 Layer Name KeyChainDevBoard.pcb - circuitry*
%LPD*%
*
*
G04 PC Custom Flashes*
G04 Layer Name KeyChainDevBoard.pcb - flashes*
%LPD*%
*
*
G04 PC Circuitry*
G04 Layer Name KeyChainDevBoard.pcb - circuitry*
%LPD*%
*
G54D10*
G01X147227Y155540D02*
X150197Y158510D01*
X147510Y161197*
X144540Y158227*
X147227Y155540*
X147168Y155600D02*
X147287D01*
X147068Y155700D02*
X147387D01*
X146968Y155800D02*
X147487D01*
X146868Y155900D02*
X147587D01*
X146768Y156000D02*
X147687D01*
X146668Y156100D02*
X147787D01*
X146568Y156200D02*
X147887D01*
X146468Y156300D02*
X147987D01*
X146368Y156400D02*
X148087D01*
X146268Y156500D02*
X148187D01*
X146168Y156600D02*
X148287D01*
X146068Y156700D02*
X148387D01*
X145968Y156800D02*
X148487D01*
X145868Y156900D02*
X148587D01*
X145768Y157000D02*
X148687D01*
X145668Y157100D02*
X148787D01*
X145568Y157200D02*
X148887D01*
X145468Y157300D02*
X148987D01*
X145368Y157400D02*
X149087D01*
X145268Y157500D02*
X149187D01*
X145168Y157600D02*
X149287D01*
X145068Y157700D02*
X149387D01*
X144968Y157800D02*
X149487D01*
X144868Y157900D02*
X149587D01*
X144768Y158000D02*
X149687D01*
X144668Y158100D02*
X149787D01*
X144568Y158200D02*
X149887D01*
X144613Y158300D02*
X149987D01*
X144713Y158400D02*
X150087D01*
X144813Y158500D02*
X150187D01*
X144913Y158600D02*
X150107D01*
X145013Y158700D02*
X150007D01*
X145113Y158800D02*
X149907D01*
X145213Y158900D02*
X149807D01*
X145313Y159000D02*
X149707D01*
X145413Y159100D02*
X149607D01*
X145513Y159200D02*
X149507D01*
X145613Y159300D02*
X149407D01*
X145713Y159400D02*
X149307D01*
X145813Y159500D02*
X149207D01*
X145913Y159600D02*
X149107D01*
X146013Y159700D02*
X149007D01*
X146113Y159800D02*
X148907D01*
X146213Y159900D02*
X148807D01*
X146313Y160000D02*
X148707D01*
X146413Y160100D02*
X148607D01*
X146513Y160200D02*
X148507D01*
X146613Y160300D02*
X148407D01*
X146713Y160400D02*
X148307D01*
X146813Y160500D02*
X148207D01*
X146913Y160600D02*
X148107D01*
X147013Y160700D02*
X148007D01*
X147113Y160800D02*
X147907D01*
X147213Y160900D02*
X147807D01*
X147313Y161000D02*
X147707D01*
X147413Y161100D02*
X147607D01*
X144600Y158168D02*
Y158287D01*
X144700Y158068D02*
Y158387D01*
X144800Y157968D02*
Y158487D01*
X144900Y157868D02*
Y158587D01*
X145000Y157768D02*
Y158687D01*
X145100Y157668D02*
Y158787D01*
X145200Y157568D02*
Y158887D01*
X145300Y157468D02*
Y158987D01*
X145400Y157368D02*
Y159087D01*
X145500Y157268D02*
Y159187D01*
X145600Y157168D02*
Y159287D01*
X145700Y157068D02*
Y159387D01*
X145800Y156968D02*
Y159487D01*
X145900Y156868D02*
Y159587D01*
X146000Y156768D02*
Y159687D01*
X146100Y156668D02*
Y159787D01*
X146200Y156568D02*
Y159887D01*
X146300Y156468D02*
Y159987D01*
X146400Y156368D02*
Y160087D01*
X146500Y156268D02*
Y160187D01*
X146600Y156168D02*
Y160287D01*
X146700Y156068D02*
Y160387D01*
X146800Y155968D02*
Y160487D01*
X146900Y155868D02*
Y160587D01*
X147000Y155768D02*
Y160687D01*
X147100Y155668D02*
Y160787D01*
X147200Y155568D02*
Y160887D01*
X147300Y155613D02*
Y160987D01*
X147400Y155713D02*
Y161087D01*
X147500Y155813D02*
Y161187D01*
X147600Y155913D02*
Y161107D01*
X147700Y156013D02*
Y161007D01*
X147800Y156113D02*
Y160907D01*
X147900Y156213D02*
Y160807D01*
X148000Y156313D02*
Y160707D01*
X148100Y156413D02*
Y160607D01*
X148200Y156513D02*
Y160507D01*
X148300Y156613D02*
Y160407D01*
X148400Y156713D02*
Y160307D01*
X148500Y156813D02*
Y160207D01*
X148600Y156913D02*
Y160107D01*
X148700Y157013D02*
Y160007D01*
X148800Y157113D02*
Y159907D01*
X148900Y157213D02*
Y159807D01*
X149000Y157313D02*
Y159707D01*
X149100Y157413D02*
Y159607D01*
X149200Y157513D02*
Y159507D01*
X149300Y157613D02*
Y159407D01*
X149400Y157713D02*
Y159307D01*
X149500Y157813D02*
Y159207D01*
X149600Y157913D02*
Y159107D01*
X149700Y158013D02*
Y159007D01*
X149800Y158113D02*
Y158907D01*
X149900Y158213D02*
Y158807D01*
X150000Y158313D02*
Y158707D01*
X150100Y158413D02*
Y158607D01*
X142490Y150803D02*
X145460Y153773D01*
X142773Y156460*
X139803Y153490*
X142490Y150803*
X142393Y150900D02*
X142587D01*
X142293Y151000D02*
X142687D01*
X142193Y151100D02*
X142787D01*
X142093Y151200D02*
X142887D01*
X141993Y151300D02*
X142987D01*
X141893Y151400D02*
X143087D01*
X141793Y151500D02*
X143187D01*
X141693Y151600D02*
X143287D01*
X141593Y151700D02*
X143387D01*
X141493Y151800D02*
X143487D01*
X141393Y151900D02*
X143587D01*
X141293Y152000D02*
X143687D01*
X141193Y152100D02*
X143787D01*
X141093Y152200D02*
X143887D01*
X140993Y152300D02*
X143987D01*
X140893Y152400D02*
X144087D01*
X140793Y152500D02*
X144187D01*
X140693Y152600D02*
X144287D01*
X140593Y152700D02*
X144387D01*
X140493Y152800D02*
X144487D01*
X140393Y152900D02*
X144587D01*
X140293Y153000D02*
X144687D01*
X140193Y153100D02*
X144787D01*
X140093Y153200D02*
X144887D01*
X139993Y153300D02*
X144987D01*
X139893Y153400D02*
X145087D01*
X139813Y153500D02*
X145187D01*
X139913Y153600D02*
X145287D01*
X140013Y153700D02*
X145387D01*
X140113Y153800D02*
X145432D01*
X140213Y153900D02*
X145332D01*
X140313Y154000D02*
X145232D01*
X140413Y154100D02*
X145132D01*
X140513Y154200D02*
X145032D01*
X140613Y154300D02*
X144932D01*
X140713Y154400D02*
X144832D01*
X140813Y154500D02*
X144732D01*
X140913Y154600D02*
X144632D01*
X141013Y154700D02*
X144532D01*
X141113Y154800D02*
X144432D01*
X141213Y154900D02*
X144332D01*
X141313Y155000D02*
X144232D01*
X141413Y155100D02*
X144132D01*
X141513Y155200D02*
X144032D01*
X141613Y155300D02*
X143932D01*
X141713Y155400D02*
X143832D01*
X141813Y155500D02*
X143732D01*
X141913Y155600D02*
X143632D01*
X142013Y155700D02*
X143532D01*
X142113Y155800D02*
X143432D01*
X142213Y155900D02*
X143332D01*
X142313Y156000D02*
X143232D01*
X142413Y156100D02*
X143132D01*
X142513Y156200D02*
X143032D01*
X142613Y156300D02*
X142932D01*
X142713Y156400D02*
X142832D01*
X139900Y153393D02*
Y153587D01*
X140000Y153293D02*
Y153687D01*
X140100Y153193D02*
Y153787D01*
X140200Y153093D02*
Y153887D01*
X140300Y152993D02*
Y153987D01*
X140400Y152893D02*
Y154087D01*
X140500Y152793D02*
Y154187D01*
X140600Y152693D02*
Y154287D01*
X140700Y152593D02*
Y154387D01*
X140800Y152493D02*
Y154487D01*
X140900Y152393D02*
Y154587D01*
X141000Y152293D02*
Y154687D01*
X141100Y152193D02*
Y154787D01*
X141200Y152093D02*
Y154887D01*
X141300Y151993D02*
Y154987D01*
X141400Y151893D02*
Y155087D01*
X141500Y151793D02*
Y155187D01*
X141600Y151693D02*
Y155287D01*
X141700Y151593D02*
Y155387D01*
X141800Y151493D02*
Y155487D01*
X141900Y151393D02*
Y155587D01*
X142000Y151293D02*
Y155687D01*
X142100Y151193D02*
Y155787D01*
X142200Y151093D02*
Y155887D01*
X142300Y150993D02*
Y155987D01*
X142400Y150893D02*
Y156087D01*
X142500Y150813D02*
Y156187D01*
X142600Y150913D02*
Y156287D01*
X142700Y151013D02*
Y156387D01*
X142800Y151113D02*
Y156432D01*
X142900Y151213D02*
Y156332D01*
X143000Y151313D02*
Y156232D01*
X143100Y151413D02*
Y156132D01*
X143200Y151513D02*
Y156032D01*
X143300Y151613D02*
Y155932D01*
X143400Y151713D02*
Y155832D01*
X143500Y151813D02*
Y155732D01*
X143600Y151913D02*
Y155632D01*
X143700Y152013D02*
Y155532D01*
X143800Y152113D02*
Y155432D01*
X143900Y152213D02*
Y155332D01*
X144000Y152313D02*
Y155232D01*
X144100Y152413D02*
Y155132D01*
X144200Y152513D02*
Y155032D01*
X144300Y152613D02*
Y154932D01*
X144400Y152713D02*
Y154832D01*
X144500Y152813D02*
Y154732D01*
X144600Y152913D02*
Y154632D01*
X144700Y153013D02*
Y154532D01*
X144800Y153113D02*
Y154432D01*
X144900Y153213D02*
Y154332D01*
X145000Y153313D02*
Y154232D01*
X145100Y153413D02*
Y154132D01*
X145200Y153513D02*
Y154032D01*
X145300Y153613D02*
Y153932D01*
X145400Y153713D02*
Y153832D01*
G54D11*
X138450Y130100D02*
X141550D01*
Y126600*
X138450*
Y130100*
Y127200D02*
X141550D01*
X138450Y128000D02*
X141550D01*
X138450Y128800D02*
X141550D01*
X138450Y129600D02*
X141550D01*
X139200Y126600D02*
Y130100D01*
X140000Y126600D02*
Y130100D01*
X140800Y126600D02*
Y130100D01*
X138450Y123400D02*
X141550D01*
Y119900*
X138450*
Y123400*
Y120000D02*
X141550D01*
X138450Y120800D02*
X141550D01*
X138450Y121600D02*
X141550D01*
X138450Y122400D02*
X141550D01*
X138450Y123200D02*
X141550D01*
X139200Y119900D02*
Y123400D01*
X140000Y119900D02*
Y123400D01*
X140800Y119900D02*
Y123400D01*
X145298Y128510D02*
X147490Y130702D01*
X149965Y128227*
X147773Y126035*
X145298Y128510*
X147408Y126400D02*
X148137D01*
X146608Y127200D02*
X148937D01*
X145808Y128000D02*
X149737D01*
X145588Y128800D02*
X149392D01*
X146388Y129600D02*
X148592D01*
X147188Y130400D02*
X147792D01*
X145600Y128208D02*
Y128812D01*
X146400Y127408D02*
Y129612D01*
X147200Y126608D02*
Y130412D01*
X148000Y126263D02*
Y130192D01*
X148800Y127063D02*
Y129392D01*
X149600Y127863D02*
Y128592D01*
X150035Y123773D02*
X152227Y125965D01*
X154702Y123490*
X152510Y121298*
X150035Y123773*
X152208Y121600D02*
X152812D01*
X151408Y122400D02*
X153612D01*
X150608Y123200D02*
X154412D01*
X150263Y124000D02*
X154192D01*
X151063Y124800D02*
X153392D01*
X151863Y125600D02*
X152592D01*
X150400Y123408D02*
Y124137D01*
X151200Y122608D02*
Y124937D01*
X152000Y121808D02*
Y125737D01*
X152800Y121588D02*
Y125392D01*
X153600Y122388D02*
Y124592D01*
X154400Y123188D02*
Y123792D01*
X201490Y141298D02*
X199298Y143490D01*
X201773Y145965*
X203965Y143773*
X201490Y141298*
X201188Y141600D02*
X201792D01*
X200388Y142400D02*
X202592D01*
X199588Y143200D02*
X203392D01*
X199808Y144000D02*
X203737D01*
X200608Y144800D02*
X202937D01*
X201408Y145600D02*
X202137D01*
X200000Y142788D02*
Y144192D01*
X200800Y141988D02*
Y144992D01*
X201600Y141408D02*
Y145792D01*
X202400Y142208D02*
Y145337D01*
X203200Y143008D02*
Y144537D01*
X206227Y146035D02*
X204035Y148227D01*
X206510Y150702*
X208702Y148510*
X206227Y146035*
X205863Y146400D02*
X206592D01*
X205063Y147200D02*
X207392D01*
X204263Y148000D02*
X208192D01*
X204608Y148800D02*
X208412D01*
X205408Y149600D02*
X207612D01*
X206208Y150400D02*
X206812D01*
X204800Y147463D02*
Y148992D01*
X205600Y146663D02*
Y149792D01*
X206400Y146208D02*
Y150592D01*
X207200Y147008D02*
Y150012D01*
X208000Y147808D02*
Y149212D01*
X197298Y168510D02*
X199490Y170702D01*
X201965Y168227*
X199773Y166035*
X197298Y168510*
X199408Y166400D02*
X200137D01*
X198608Y167200D02*
X200937D01*
X197808Y168000D02*
X201737D01*
X197588Y168800D02*
X201392D01*
X198388Y169600D02*
X200592D01*
X199188Y170400D02*
X199792D01*
X197600Y168208D02*
Y168812D01*
X198400Y167408D02*
Y169612D01*
X199200Y166608D02*
Y170412D01*
X200000Y166263D02*
Y170192D01*
X200800Y167063D02*
Y169392D01*
X201600Y167863D02*
Y168592D01*
X202035Y163773D02*
X204227Y165965D01*
X206702Y163490*
X204510Y161298*
X202035Y163773*
X204208Y161600D02*
X204812D01*
X203408Y162400D02*
X205612D01*
X202608Y163200D02*
X206412D01*
X202263Y164000D02*
X206192D01*
X203063Y164800D02*
X205392D01*
X203863Y165600D02*
X204592D01*
X202400Y163408D02*
Y164137D01*
X203200Y162608D02*
Y164937D01*
X204000Y161808D02*
Y165737D01*
X204800Y161588D02*
Y165392D01*
X205600Y162388D02*
Y164592D01*
X206400Y163188D02*
Y163792D01*
X195550Y131900D02*
X192450D01*
Y135400*
X195550*
Y131900*
X192450Y132000D02*
X195550D01*
X192450Y132800D02*
X195550D01*
X192450Y133600D02*
X195550D01*
X192450Y134400D02*
X195550D01*
X192450Y135200D02*
X195550D01*
X192800Y131900D02*
Y135400D01*
X193600Y131900D02*
Y135400D01*
X194400Y131900D02*
Y135400D01*
X195200Y131900D02*
Y135400D01*
X195550Y138600D02*
X192450D01*
Y142100*
X195550*
Y138600*
X192450Y139200D02*
X195550D01*
X192450Y140000D02*
X195550D01*
X192450Y140800D02*
X195550D01*
X192450Y141600D02*
X195550D01*
X192800Y138600D02*
Y142100D01*
X193600Y138600D02*
Y142100D01*
X194400Y138600D02*
Y142100D01*
X195200Y138600D02*
Y142100D01*
X171900Y166450D02*
Y169550D01*
X175400*
Y166450*
X171900*
Y167200D02*
X175400D01*
X171900Y168000D02*
X175400D01*
X171900Y168800D02*
X175400D01*
X172000Y166450D02*
Y169550D01*
X172800Y166450D02*
Y169550D01*
X173600Y166450D02*
Y169550D01*
X174400Y166450D02*
Y169550D01*
X175200Y166450D02*
Y169550D01*
X178600Y166450D02*
Y169550D01*
X182100*
Y166450*
X178600*
Y167200D02*
X182100D01*
X178600Y168000D02*
X182100D01*
X178600Y168800D02*
X182100D01*
X179200Y166450D02*
Y169550D01*
X180000Y166450D02*
Y169550D01*
X180800Y166450D02*
Y169550D01*
X181600Y166450D02*
Y169550D01*
X139450Y143100D02*
X142550D01*
Y139600*
X139450*
Y143100*
Y140000D02*
X142550D01*
X139450Y140800D02*
X142550D01*
X139450Y141600D02*
X142550D01*
X139450Y142400D02*
X142550D01*
X140000Y139600D02*
Y143100D01*
X140800Y139600D02*
Y143100D01*
X141600Y139600D02*
Y143100D01*
X142400Y139600D02*
Y143100D01*
X139450Y136400D02*
X142550D01*
Y132900*
X139450*
Y136400*
Y133600D02*
X142550D01*
X139450Y134400D02*
X142550D01*
X139450Y135200D02*
X142550D01*
X139450Y136000D02*
X142550D01*
X140000Y132900D02*
Y136400D01*
X140800Y132900D02*
Y136400D01*
X141600Y132900D02*
Y136400D01*
X142400Y132900D02*
Y136400D01*
X174100Y115550D02*
Y112450D01*
X170600*
Y115550*
X174100*
X170600Y112800D02*
X174100D01*
X170600Y113600D02*
X174100D01*
X170600Y114400D02*
X174100D01*
X170600Y115200D02*
X174100D01*
X171200Y112450D02*
Y115550D01*
X172000Y112450D02*
Y115550D01*
X172800Y112450D02*
Y115550D01*
X173600Y112450D02*
Y115550D01*
X167400D02*
Y112450D01*
X163900*
Y115550*
X167400*
X163900Y112800D02*
X167400D01*
X163900Y113600D02*
X167400D01*
X163900Y114400D02*
X167400D01*
X163900Y115200D02*
X167400D01*
X164000Y112450D02*
Y115550D01*
X164800Y112450D02*
Y115550D01*
X165600Y112450D02*
Y115550D01*
X166400Y112450D02*
Y115550D01*
X167200Y112450D02*
Y115550D01*
X109651Y122545D02*
Y118620D01*
X104349*
Y122545*
X109651*
X104600Y118620D02*
Y122545D01*
X105000Y118620D02*
Y122545D01*
X105400Y118620D02*
Y122545D01*
X105800Y118620D02*
Y122545D01*
X106200Y118620D02*
Y122545D01*
X106600Y118620D02*
Y122545D01*
X107000Y118620D02*
Y122545D01*
X107400Y118620D02*
Y122545D01*
X107800Y118620D02*
Y122545D01*
X108200Y118620D02*
Y122545D01*
X108600Y118620D02*
Y122545D01*
X109000Y118620D02*
Y122545D01*
X109400Y118620D02*
Y122545D01*
X109651Y145380D02*
Y141455D01*
X104349*
Y145380*
X109651*
X104600Y141455D02*
Y145380D01*
X105000Y141455D02*
Y145380D01*
X105400Y141455D02*
Y145380D01*
X105800Y141455D02*
Y145380D01*
X106200Y141455D02*
Y145380D01*
X106600Y141455D02*
Y145380D01*
X107000Y141455D02*
Y145380D01*
X107400Y141455D02*
Y145380D01*
X107800Y141455D02*
Y145380D01*
X108200Y141455D02*
Y145380D01*
X108600Y141455D02*
Y145380D01*
X109000Y141455D02*
Y145380D01*
X109400Y141455D02*
Y145380D01*
X107000Y118220D02*
Y128063D01*
X146900Y123000D02*
X147600Y123700D01*
X141000Y112000D02*
X140900D01*
X148276Y115000D02*
X150200D01*
X152369Y117169*
Y123631*
X141000Y112100D02*
X142200Y113300D01*
X132350Y121000D02*
X132550D01*
X136550Y125000*
X144262*
X147631Y128369*
X125650Y121000D02*
X125450D01*
X121900Y124550*
Y128841*
X121300Y129441*
X117630*
X133100Y112000D02*
X113220D01*
X110800Y114420*
X110800*
X107000Y118220*
X140900Y112000D02*
X141000Y112100D01*
X152369Y123631D02*
X152300Y123700D01*
X147600*
X140000Y121650D02*
Y122800D01*
X139800Y123000*
X146900*
X186400Y109700D02*
X183200D01*
X179824Y113076*
Y126000*
X176744Y129081*
X172350Y114000D02*
X174600Y116250D01*
Y122873*
X174286Y123186*
X174286*
X172568Y124905*
X170100Y109500D02*
Y111800D01*
X170150*
X172350Y114000*
X161432Y124905D02*
X164100Y127573D01*
Y130300*
X167000Y133200*
Y134100*
X162824Y123513D02*
X164706Y125394D01*
X167000Y127689*
Y128800*
X183000Y122350D02*
Y125608D01*
X178136Y130473*
X191000Y115650D02*
X183000D01*
X191000Y122350D02*
X191200D01*
X194000Y125150*
Y133650*
X172400Y122100D02*
Y122111D01*
X172489Y122200*
X171176Y123513*
X185000Y105000D02*
X178200Y111800D01*
Y124840*
X175352Y127689*
X175000Y105000D02*
Y106000D01*
X176600*
Y123656*
X176056Y124200*
X173960Y126297*
X203400Y111000D02*
Y114250D01*
X199650Y118000*
X206350D02*
X206150D01*
X200050Y124100*
X198307*
Y127000*
X199650Y118000D02*
X196700Y120950D01*
X192400*
X191000Y122350*
X195000Y105000D02*
X190300Y109700D01*
X186400*
X205000Y105000D02*
X195200Y114800D01*
Y117200*
X193400Y119000*
X188600*
X187000Y120600*
Y124392*
X179527Y131864*
X114200Y161260D02*
Y161700D01*
X106000*
Y163350*
X113866Y161260D02*
X114200D01*
X116400*
Y165100*
X119700Y168400*
X119700*
X120800Y169500*
X132100*
X113850Y143250D02*
X116200Y145600D01*
X117630*
X107000Y145780D02*
Y135937D01*
Y128063*
X113850Y126932D02*
X113800Y126982D01*
X113866Y153000D02*
X113400D01*
X113250Y153150*
X113800Y126982D02*
Y143200D01*
X113850Y143250*
X141900Y146200D02*
Y146400D01*
X117630Y137118D02*
Y141843D01*
X134300Y158600D02*
X130000Y162900D01*
Y165000*
X130307*
X141000Y134650D02*
Y135527D01*
X147000*
X148905Y137432*
X141000Y134650D02*
X140950Y134700D01*
X136800*
X154838Y159338D02*
X153576Y160600D01*
X152600*
X154838Y159338D02*
X155960Y160460D01*
X156500*
X136800Y134700D02*
X136700Y134800D01*
X136350*
Y148000*
X144700Y137200D02*
X145889D01*
X147513Y138824*
X144700Y137200D02*
X142200Y139700D01*
Y141350*
X141000*
X121700Y138900D02*
X121600Y139000D01*
Y143100*
X121700Y138900D02*
Y143000D01*
X121600Y143100*
X119100Y145600*
X117630*
X122134Y149260D02*
X123860D01*
X123900Y149300*
X122134Y156740D02*
Y165000D01*
X150297Y149960D02*
X148400Y151856D01*
Y152600*
X141000Y160000*
Y168600*
X142500Y170100*
X150100*
X155000Y175000*
X150297Y136040D02*
X152328Y138072D01*
Y147028*
X155500Y150200*
X157600*
X154473Y131864D02*
X156404Y133796D01*
Y137096*
X155400Y138100*
X129650Y148000D02*
X129450D01*
X124300Y153150*
Y156224*
X123784Y156740*
X122134*
X136350Y148000D02*
Y154000D01*
X132350Y128000D02*
X128875Y131475D01*
X127975*
X125000Y134450*
Y134650*
X132350Y128000D02*
X139650D01*
X140000Y128350*
X125650Y128000D02*
X125450D01*
X121450Y132000*
X117630*
X125000Y141350D02*
Y142300D01*
X124300*
Y148900*
X123900Y149300*
X142631Y153631D02*
X142400Y153862D01*
Y154500*
X133000Y163900*
Y168600*
X132100Y169500*
X147369Y158369D02*
Y160600D01*
X150169Y163400*
X156344*
X132000Y134650D02*
Y134850D01*
X128850Y138000*
X122600*
X121700Y138900*
X132000Y141350D02*
X130900D01*
Y146950*
X129850Y148000*
X129650*
Y154000D02*
X129700D01*
X134300Y158600*
X146300Y144200D02*
X146489D01*
X148489Y146200*
X147513Y147176*
X147631Y128369D02*
X148238Y128976D01*
X148800*
X153081Y133256*
X140000Y128350D02*
Y128550D01*
X141150Y129700*
X144300*
X147200Y132600*
X149640*
X151689Y134648*
X177000Y137000D02*
X172900Y141100D01*
Y147000*
X183427Y146900D02*
X185095Y148568D01*
X179200Y145300D02*
X180350Y146450D01*
X180350*
X182977*
X183427Y146900*
X194550Y139800D02*
X194000Y140350D01*
X157300Y142100D02*
X162300D01*
Y144800*
X181800Y142400D02*
X181900D01*
X182000Y142500*
X181800Y142400D02*
Y142800D01*
X182000Y143000*
Y143200*
X188000Y130700D02*
X186260D01*
X182311Y134648*
X172500Y153300D02*
X173124D01*
X174824Y155000*
X176744Y156919*
X192500Y159800D02*
Y162016D01*
X190216Y164300*
Y167465*
X172568Y161095D02*
X170873Y159400D01*
X169300*
X168100Y160600*
Y165700*
X168200Y165800*
X172600Y156560D02*
X173600D01*
X175352Y158311*
X172600Y156560D02*
X172140D01*
X170900Y157800*
X168600*
X166500Y159900*
Y163500*
X164200Y165800*
Y165900*
X173800Y133700D02*
X168600Y138900D01*
Y143200*
X161156Y164200D02*
Y168700D01*
X161300*
X160700Y169300*
X168600Y143200D02*
X167000Y144800D01*
X162300*
X186000Y133800D02*
X187500D01*
X190600Y136900*
X194000*
X186000Y133800D02*
X185944D01*
X185744Y134000*
X183703Y136040*
X191100Y127500D02*
X186676D01*
X180919Y133256*
X184200Y160119D02*
X183535Y160784D01*
X178000Y148100D02*
X181844D01*
X183703Y149960*
X176200Y144300D02*
X177200Y145300D01*
X179200*
X172900Y147000D02*
X168800D01*
X162600Y153200*
X160600*
X172900Y147000D02*
X172900D01*
X177500Y151600*
Y152108*
X179527Y154136*
X162824Y162487D02*
X161156Y164156D01*
Y164200*
X160040Y159703D02*
X160040D01*
X156344Y163400*
X158648Y158311D02*
X156500Y160460D01*
X157256Y156919D02*
X154838Y159338D01*
X155864Y130473D02*
X158100Y132708D01*
Y136800*
X159600Y138300*
X158648Y127689D02*
X160800Y129840D01*
Y134100*
X161300*
X160040Y126297D02*
X162500Y128756D01*
Y131000*
X164100Y132600*
Y136800*
X163900Y137000*
Y137400*
X185095Y137432D02*
X183428Y139100D01*
X183167Y139360*
Y140400*
X184880Y142113*
X184880*
X187967Y145200*
X189200*
X186487Y138824D02*
X187600Y139937D01*
X188037*
X188900Y140800*
X182311Y151352D02*
X184130Y153170D01*
X185630*
X180919Y152744D02*
X182976Y154800D01*
X184200Y156024*
Y160119*
X173960Y159703D02*
X177000Y162744D01*
Y173000*
X175000Y175000*
X171176Y162487D02*
X173650Y164961D01*
Y168000*
X170000Y149800D02*
X173400D01*
X175808Y152208*
Y153200*
X178136Y155527*
X182000Y142500D02*
X182700Y143200D01*
Y143389*
X186487Y147176*
X194000Y140350D02*
Y144800D01*
X190300Y148500*
X190300*
X185630Y153170*
X183535Y160784D02*
X184125Y161375D01*
X183100Y162400*
Y165450*
X180550Y168000*
X180350*
X168800Y155000D02*
X167527D01*
X161432Y161095*
X202465Y155000D02*
X202681D01*
X197100Y159500D02*
Y155681D01*
X192619*
X190600Y157700*
X190600*
X188181Y160119*
X184200*
X202681Y155000D02*
X202465Y155216D01*
X218400Y139100D02*
X222500Y135000D01*
X224300*
X224300*
X235000*
X224000Y155000D02*
X202681D01*
X204650Y136000D02*
X203850Y136800D01*
X203800*
X211350Y136000D02*
X216100D01*
X207300Y132900D02*
X201200D01*
X197200Y136900*
X194000*
X207300Y132900D02*
X208000Y133600D01*
Y138400*
X208700Y139100*
X218400*
X206369Y148369D02*
Y150600D01*
X205334Y151634*
X205334*
X201969Y155000*
X202465*
X201631Y143631D02*
X196728Y148535D01*
X195784*
X211693Y127000D02*
Y128772D01*
X211350Y129115*
Y136000*
X202465Y155216D02*
X202749Y155500D01*
X204075Y156825*
X202000Y158900*
X202000*
X205200Y162100*
Y162800*
X204369Y163631*
X202465Y155216D02*
X202000Y155681D01*
X197100*
X195784Y148535D02*
X195319Y149000D01*
X194019Y150300*
X191419Y152900*
X191400*
X188300Y156000*
X113866Y168740D02*
X115516D01*
X116176Y169400*
X121876Y175100D02*
X116176Y169400D01*
X114200*
X114200*
X108400*
X143693Y165000D02*
X144493Y165800D01*
X149650*
Y167000*
X125000Y175000D02*
X124900Y175100D01*
X121876*
X173650Y168000D02*
X172950Y168700D01*
X172600*
X190216Y167465D02*
X190681Y167000D01*
X195900*
X197500Y168600*
X156350Y167000D02*
X156350D01*
X156493Y167143*
X211600Y168700D02*
X213200Y170300D01*
X220300*
X225000Y175000*
X199631Y168369D02*
X199400Y168600D01*
X197500*
G54D12*
X197126Y129953D02*
X199488D01*
Y124047*
X197126*
Y129953*
Y124409D02*
X199488D01*
X197126Y125197D02*
X199488D01*
X197126Y125984D02*
X199488D01*
X197126Y126772D02*
X199488D01*
X197126Y127559D02*
X199488D01*
X197126Y128346D02*
X199488D01*
X197126Y129134D02*
X199488D01*
X197126Y129921D02*
X199488D01*
X197638Y124047D02*
Y129953D01*
X198425Y124047D02*
Y129953D01*
X199213Y124047D02*
Y129953D01*
X210512D02*
X212874D01*
Y124047*
X210512*
Y129953*
Y124409D02*
X212874D01*
X210512Y125197D02*
X212874D01*
X210512Y125984D02*
X212874D01*
X210512Y126772D02*
X212874D01*
X210512Y127559D02*
X212874D01*
X210512Y128346D02*
X212874D01*
X210512Y129134D02*
X212874D01*
X210512Y129921D02*
X212874D01*
X211024Y124047D02*
Y129953D01*
X211811Y124047D02*
Y129953D01*
X212598Y124047D02*
Y129953D01*
X144874Y162047D02*
X142512D01*
Y167953*
X144874*
Y162047*
X142512Y162205D02*
X144874D01*
X142512Y162992D02*
X144874D01*
X142512Y163780D02*
X144874D01*
X142512Y164567D02*
X144874D01*
X142512Y165354D02*
X144874D01*
X142512Y166142D02*
X144874D01*
X142512Y166929D02*
X144874D01*
X142512Y167717D02*
X144874D01*
X142520Y162047D02*
Y167953D01*
X143307Y162047D02*
Y167953D01*
X144094Y162047D02*
Y167953D01*
X131488Y162047D02*
X129126D01*
Y167953*
X131488*
Y162047*
X129126Y162205D02*
X131488D01*
X129126Y162992D02*
X131488D01*
X129126Y163780D02*
X131488D01*
X129126Y164567D02*
X131488D01*
X129126Y165354D02*
X131488D01*
X129126Y166142D02*
X131488D01*
X129126Y166929D02*
X131488D01*
X129126Y167717D02*
X131488D01*
X129134Y162047D02*
Y167953D01*
X129921Y162047D02*
Y167953D01*
X130709Y162047D02*
Y167953D01*
X115366Y126488D02*
Y127276D01*
X119894*
Y126488*
X115366*
Y126772D02*
X119894D01*
X115748Y126488D02*
Y127276D01*
X116535Y126488D02*
Y127276D01*
X117323Y126488D02*
Y127276D01*
X118110Y126488D02*
Y127276D01*
X118898Y126488D02*
Y127276D01*
X119685Y126488D02*
Y127276D01*
X115366Y129047D02*
Y129835D01*
X119894*
Y129047*
X115366*
Y129134D02*
X119894D01*
X115748Y129047D02*
Y129835D01*
X116535Y129047D02*
Y129835D01*
X117323Y129047D02*
Y129835D01*
X118110Y129047D02*
Y129835D01*
X118898Y129047D02*
Y129835D01*
X119685Y129047D02*
Y129835D01*
X115366Y131606D02*
Y132394D01*
X119894*
Y131606*
X115366*
Y132283D02*
X119894D01*
X115748Y131606D02*
Y132394D01*
X116535Y131606D02*
Y132394D01*
X117323Y131606D02*
Y132394D01*
X118110Y131606D02*
Y132394D01*
X118898Y131606D02*
Y132394D01*
X119685Y131606D02*
Y132394D01*
X115366Y134165D02*
Y134953D01*
X119894*
Y134165*
X115366*
Y134646D02*
X119894D01*
X115748Y134165D02*
Y134953D01*
X116535Y134165D02*
Y134953D01*
X117323Y134165D02*
Y134953D01*
X118110Y134165D02*
Y134953D01*
X118898Y134165D02*
Y134953D01*
X119685Y134165D02*
Y134953D01*
X115366Y136724D02*
Y137512D01*
X119894*
Y136724*
X115366*
Y137008D02*
X119894D01*
X115748Y136724D02*
Y137512D01*
X116535Y136724D02*
Y137512D01*
X117323Y136724D02*
Y137512D01*
X118110Y136724D02*
Y137512D01*
X118898Y136724D02*
Y137512D01*
X119685Y136724D02*
Y137512D01*
X104343Y125504D02*
Y130622D01*
X109657*
Y125504*
X104343*
Y125984D02*
X109657D01*
X104343Y126772D02*
X109657D01*
X104343Y127559D02*
X109657D01*
X104343Y128346D02*
X109657D01*
X104343Y129134D02*
X109657D01*
X104343Y129921D02*
X109657D01*
X104724Y125504D02*
Y130622D01*
X105512Y125504D02*
Y130622D01*
X106299Y125504D02*
Y130622D01*
X107087Y125504D02*
Y130622D01*
X107874Y125504D02*
Y130622D01*
X108661Y125504D02*
Y130622D01*
X109449Y125504D02*
Y130622D01*
X104343Y133378D02*
Y138496D01*
X109657*
Y133378*
X104343*
Y133858D02*
X109657D01*
X104343Y134646D02*
X109657D01*
X104343Y135433D02*
X109657D01*
X104343Y136220D02*
X109657D01*
X104343Y137008D02*
X109657D01*
X104343Y137795D02*
X109657D01*
X104724Y133378D02*
Y138496D01*
X105512Y133378D02*
Y138496D01*
X106299Y133378D02*
Y138496D01*
X107087Y133378D02*
Y138496D01*
X107874Y133378D02*
Y138496D01*
X108661Y133378D02*
Y138496D01*
X109449Y133378D02*
Y138496D01*
G54D13*
X199125Y147978D02*
X196341Y145194D01*
X192443Y149092*
X195227Y151875*
X199125Y147978*
X195866Y145669D02*
X196816D01*
X194291Y147244D02*
X198391D01*
X192716Y148819D02*
X198284D01*
X193745Y150394D02*
X196709D01*
X192913Y148621D02*
Y149562D01*
X194488Y147047D02*
Y151137D01*
X196063Y145472D02*
Y151040D01*
X197638Y146491D02*
Y149465D01*
X186875Y160227D02*
X184092Y157443D01*
X180194Y161341*
X182978Y164125*
X186875Y160227*
X183267Y158268D02*
X184916D01*
X181692Y159843D02*
X186491D01*
X180271Y161417D02*
X185685D01*
X181846Y162992D02*
X184110D01*
X180315Y161220D02*
Y161461D01*
X181890Y159645D02*
Y163036D01*
X183465Y158070D02*
Y163638D01*
X185039Y158391D02*
Y162063D01*
X186614Y159966D02*
Y160488D01*
X193557Y166908D02*
X190773Y164125D01*
X186875Y168022*
X189659Y170806*
X193557Y166908*
X190331Y164567D02*
X191215D01*
X188756Y166142D02*
X192790D01*
X187181Y167717D02*
X192749D01*
X188145Y169291D02*
X191174D01*
X188189Y166708D02*
Y169336D01*
X189764Y165134D02*
Y170701D01*
X191339Y164690D02*
Y169127D01*
X192913Y166265D02*
Y167552D01*
X205806Y154659D02*
X203022Y151875D01*
X199125Y155773*
X201908Y158557*
X205806Y154659*
X202929Y151969D02*
X203115D01*
X201354Y153543D02*
X204690D01*
X199779Y155118D02*
X205347D01*
X200045Y156693D02*
X203772D01*
X201619Y158268D02*
X202197D01*
X199213Y155685D02*
Y155861D01*
X200787Y154110D02*
Y157436D01*
X202362Y152535D02*
Y158103D01*
X203937Y152790D02*
Y156528D01*
X205512Y154365D02*
Y154953D01*
G54D34*
X172400Y121000D02*
Y122100D01*
G54D36*
X148276Y111260D02*
X142200D01*
X141000*
Y112000*
X142200Y113300D02*
Y116040D01*
X144900Y118740*
X148276*
X165650Y114000D02*
X166200Y114550D01*
Y119200*
X157724Y111260D02*
X162910D01*
X165650Y114000*
X166200Y119200D02*
X170600D01*
X172400Y121000*
X113800Y126882D02*
X113850Y126932D01*
X113400Y148400D02*
Y153000D01*
X113250Y153150D02*
X109500D01*
X106000Y156650*
X102300Y160350*
Y172300*
X105000Y175000*
X112900Y125982D02*
X113800Y126882D01*
X141000Y141350D02*
Y145300D01*
X141900Y146200*
X198400Y139800D02*
X194550D01*
X203800Y136800D02*
X201400D01*
X198400Y139800*
X172600Y168700D02*
X172000Y169300D01*
X156493Y167143D02*
X156779D01*
X157136Y167500*
X157636*
X158836Y168700*
X160100*
X160700Y169300*
X172000D02*
X160700D01*
G54D48*
X105000Y105000D03*
X225000Y175000D03*
X235000Y135000D03*
X125000Y175000D03*
X225000Y125000D03*
X145000Y105000D03*
X215000Y115000D03*
X135000Y105000D03*
X145000Y175000D03*
X165000Y105000D03*
X195000Y175000D03*
X205000D03*
Y105000D03*
X195000D03*
X165000Y175000D03*
X175000D03*
X185000D03*
X115000Y105000D03*
X235000Y175000D03*
X175000Y105000D03*
X155000D03*
X115000Y175000D03*
X135000D03*
X155000D03*
X125000Y105000D03*
X215000Y175000D03*
X185000Y105000D03*
X105000Y175000D03*
G54D83*
X172443Y164171D02*
X172859Y163754D01*
X169909Y160804*
X169492Y161220*
X172443Y164171*
X169531Y161181D02*
X170286D01*
X170005Y161732D02*
X170837D01*
X170556Y162283D02*
X171388D01*
X171107Y162835D02*
X171940D01*
X171658Y163386D02*
X172491D01*
X172209Y163937D02*
X172677D01*
X170000Y160895D02*
Y161728D01*
X170551Y161446D02*
Y162279D01*
X171102Y161997D02*
Y162830D01*
X171654Y162549D02*
Y163381D01*
X172205Y163100D02*
Y163932D01*
X172756Y163651D02*
Y163858D01*
X173835Y162779D02*
X174251Y162362D01*
X171301Y159412*
X170884Y159828*
X173835Y162779*
X171185Y159528D02*
X171416D01*
X171135Y160079D02*
X171968D01*
X171686Y160630D02*
X172519D01*
X172237Y161181D02*
X173070D01*
X172788Y161732D02*
X173621D01*
X173340Y162283D02*
X174172D01*
X171102Y159610D02*
Y160046D01*
X171654Y159765D02*
Y160597D01*
X172205Y160316D02*
Y161149D01*
X172756Y160867D02*
Y161700D01*
X173307Y161418D02*
Y162251D01*
X173858Y161969D02*
Y162755D01*
X175227Y161387D02*
X175643Y160970D01*
X172693Y158020*
X172276Y158436*
X175227Y161387*
X172287Y158425D02*
X173098D01*
X172816Y158976D02*
X173649D01*
X173368Y159528D02*
X174200D01*
X173919Y160079D02*
X174752D01*
X174470Y160630D02*
X175303D01*
X175021Y161181D02*
X175433D01*
X172756Y158083D02*
Y158916D01*
X173307Y158634D02*
Y159467D01*
X173858Y159186D02*
Y160018D01*
X174409Y159737D02*
Y160569D01*
X174961Y160288D02*
Y161121D01*
X175512Y160839D02*
Y161102D01*
X176619Y159995D02*
X177035Y159578D01*
X177035D02*
X174085Y156628D01*
X173668Y157044*
X176619Y159995*
X173941Y156772D02*
X174228D01*
X173947Y157323D02*
X174779D01*
X174498Y157874D02*
X175331D01*
X175049Y158425D02*
X175882D01*
X175600Y158976D02*
X176433D01*
X176151Y159528D02*
X176984D01*
X173858Y156854D02*
Y157234D01*
X174409Y156953D02*
Y157786D01*
X174961Y157504D02*
Y158337D01*
X175512Y158055D02*
Y158888D01*
X176063Y158606D02*
Y159439D01*
X176614Y159158D02*
Y159990D01*
X178011Y158603D02*
X178427Y158187D01*
X175476Y155236*
X175060Y155652*
X178011Y158603*
X175077Y155669D02*
X175910D01*
X175628Y156220D02*
X176461D01*
X176179Y156772D02*
X177012D01*
X176731Y157323D02*
X177563D01*
X177282Y157874D02*
X178115D01*
X177833Y158425D02*
X178188D01*
X175512Y155271D02*
Y156104D01*
X176063Y155822D02*
Y156655D01*
X176614Y156374D02*
Y157206D01*
X177165Y156925D02*
Y157758D01*
X177717Y157476D02*
Y158309D01*
X178268Y158027D02*
Y158346D01*
X179403Y157211D02*
X179819Y156795D01*
X176868Y153844*
X176452Y154260*
X179403Y157211*
X176697Y154016D02*
X177040D01*
X176759Y154567D02*
X177591D01*
X177310Y155118D02*
X178143D01*
X177861Y155669D02*
X178694D01*
X178412Y156220D02*
X179245D01*
X178963Y156772D02*
X179796D01*
X176614Y154098D02*
Y154422D01*
X177165Y154141D02*
Y154974D01*
X177717Y154692D02*
Y155525D01*
X178268Y155243D02*
Y156076D01*
X178819Y155794D02*
Y156627D01*
X179370Y156346D02*
Y157178D01*
X180795Y155819D02*
X181211Y155403D01*
X178260Y152452*
X177844Y152868*
X180795Y155819*
X177889Y152913D02*
X178722D01*
X178440Y153465D02*
X179273D01*
X178991Y154016D02*
X179824D01*
X179543Y154567D02*
X180375D01*
X180094Y155118D02*
X180926D01*
X180645Y155669D02*
X180944D01*
X178268Y152459D02*
Y153292D01*
X178819Y153011D02*
Y153843D01*
X179370Y153562D02*
Y154394D01*
X179921Y154113D02*
Y154946D01*
X180472Y154664D02*
Y155497D01*
X181024Y155215D02*
Y155590D01*
X182187Y154427D02*
X182603Y154011D01*
X179652Y151060*
X179236Y151476*
X182187Y154427*
X179453Y151260D02*
X179852D01*
X179570Y151811D02*
X180403D01*
X180122Y152362D02*
X180954D01*
X180673Y152913D02*
X181506D01*
X181224Y153465D02*
X182057D01*
X181775Y154016D02*
X182598D01*
X179370Y151342D02*
Y151611D01*
X179921Y151329D02*
Y152162D01*
X180472Y151880D02*
Y152713D01*
X181024Y152431D02*
Y153264D01*
X181575Y152983D02*
Y153815D01*
X182126Y153534D02*
Y154367D01*
X183578Y153035D02*
X183995Y152619D01*
X181044Y149668*
X180628Y150085*
X183578Y153035*
X180701Y150157D02*
X181534D01*
X181252Y150709D02*
X182085D01*
X181803Y151260D02*
X182636D01*
X182354Y151811D02*
X183187D01*
X182906Y152362D02*
X183738D01*
X183457Y152913D02*
X183700D01*
X181024Y149689D02*
Y150480D01*
X181575Y150199D02*
Y151031D01*
X182126Y150750D02*
Y151583D01*
X182677Y151301D02*
Y152134D01*
X183228Y151852D02*
Y152685D01*
X183780Y152403D02*
Y152834D01*
X184970Y151643D02*
X185387Y151227D01*
X182436Y148276*
X182020Y148693*
X184970Y151643*
X182208Y148504D02*
X182664D01*
X182382Y149055D02*
X183215D01*
X182934Y149606D02*
X183766D01*
X183485Y150157D02*
X184317D01*
X184036Y150709D02*
X184869D01*
X184587Y151260D02*
X185354D01*
X182126Y148586D02*
Y148799D01*
X182677Y148517D02*
Y149350D01*
X183228Y149068D02*
Y149901D01*
X183780Y149620D02*
Y150452D01*
X184331Y150171D02*
Y151003D01*
X184882Y150722D02*
Y151555D01*
X186362Y150251D02*
X186779Y149835D01*
X183828Y146884*
X183412Y147301*
X186362Y150251*
X183513Y147402D02*
X184345D01*
X184064Y147953D02*
X184897D01*
X184615Y148504D02*
X185448D01*
X185166Y149055D02*
X185999D01*
X185717Y149606D02*
X186550D01*
X186269Y150157D02*
X186456D01*
X183780Y146933D02*
Y147668D01*
X184331Y147387D02*
Y148220D01*
X184882Y147938D02*
Y148771D01*
X185433Y148489D02*
Y149322D01*
X185984Y149040D02*
Y149873D01*
X186535Y149592D02*
Y150078D01*
X187754Y148859D02*
X188171Y148443D01*
X185220Y145492*
X184804Y145909*
X187754Y148859*
X184964Y145748D02*
X185476D01*
X185194Y146299D02*
X186027D01*
X185745Y146850D02*
X186578D01*
X186297Y147402D02*
X187129D01*
X186848Y147953D02*
X187680D01*
X187399Y148504D02*
X188110D01*
X184882Y145831D02*
Y145987D01*
X185433Y145705D02*
Y146538D01*
X185984Y146257D02*
Y147089D01*
X186535Y146808D02*
Y147640D01*
X187087Y147359D02*
Y148192D01*
X187638Y147910D02*
Y148743D01*
X188171Y137557D02*
X187754Y137141D01*
X184804Y140091*
X185220Y140508*
X188171Y137557*
X187415Y137480D02*
X188094D01*
X186864Y138031D02*
X187696D01*
X186312Y138583D02*
X187145D01*
X185761Y139134D02*
X186594D01*
X185210Y139685D02*
X186043D01*
X184948Y140236D02*
X185492D01*
X184882Y140013D02*
Y140170D01*
X185433Y139462D02*
Y140295D01*
X185984Y138911D02*
Y139743D01*
X186535Y138360D02*
Y139192D01*
X187087Y137808D02*
Y138641D01*
X187638Y137257D02*
Y138090D01*
X186779Y136165D02*
X186363Y135749D01*
X183412Y138700*
X183828Y139116*
X186779Y136165*
X186284Y135827D02*
X186441D01*
X185733Y136378D02*
X186566D01*
X185182Y136929D02*
X186015D01*
X184631Y137480D02*
X185464D01*
X184080Y138031D02*
X184912D01*
X183528Y138583D02*
X184361D01*
X183780Y138332D02*
Y139067D01*
X184331Y137780D02*
Y138613D01*
X184882Y137229D02*
Y138062D01*
X185433Y136678D02*
Y137511D01*
X185984Y136127D02*
Y136960D01*
X186535Y135921D02*
Y136408D01*
X185387Y134773D02*
X184971Y134357D01*
X182020Y137308*
X182436Y137724*
X185387Y134773*
X184603Y134724D02*
X185338D01*
X184052Y135276D02*
X184884D01*
X183500Y135827D02*
X184333D01*
X182949Y136378D02*
X183782D01*
X182398Y136929D02*
X183231D01*
X182192Y137480D02*
X182680D01*
X182126Y137201D02*
Y137414D01*
X182677Y136650D02*
Y137483D01*
X183228Y136099D02*
Y136932D01*
X183780Y135548D02*
Y136380D01*
X184331Y134997D02*
Y135829D01*
X184882Y134445D02*
Y135278D01*
X183995Y133381D02*
X183579Y132965D01*
X180628Y135916*
X181044Y136332*
X183995Y133381*
X183472Y133071D02*
X183685D01*
X182921Y133622D02*
X183754D01*
X182370Y134173D02*
X183203D01*
X181819Y134724D02*
X182652D01*
X181268Y135276D02*
X182100D01*
X180717Y135827D02*
X181549D01*
X181024Y135520D02*
Y136312D01*
X181575Y134969D02*
Y135801D01*
X182126Y134417D02*
Y135250D01*
X182677Y133866D02*
Y134699D01*
X183228Y133315D02*
Y134148D01*
X183780Y133166D02*
Y133597D01*
X182603Y131989D02*
X182187Y131573D01*
X179236Y134524*
X179652Y134940*
X182603Y131989*
X181791Y131969D02*
X182582D01*
X181240Y132520D02*
X182073D01*
X180689Y133071D02*
X181521D01*
X180137Y133622D02*
X180970D01*
X179586Y134173D02*
X180419D01*
X179437Y134724D02*
X179868D01*
X179370Y134389D02*
Y134658D01*
X179921Y133838D02*
Y134671D01*
X180472Y133287D02*
Y134120D01*
X181024Y132736D02*
Y133569D01*
X181575Y132185D02*
Y133017D01*
X182126Y131633D02*
Y132466D01*
X181211Y130597D02*
X180795Y130181D01*
X177844Y133132*
X178260Y133548*
X181211Y130597*
X180661Y130315D02*
X180929D01*
X180109Y130866D02*
X180942D01*
X179558Y131417D02*
X180391D01*
X179007Y131969D02*
X179840D01*
X178456Y132520D02*
X179289D01*
X177905Y133071D02*
X178737D01*
X178268Y132708D02*
Y133541D01*
X178819Y132157D02*
Y132989D01*
X179370Y131606D02*
Y132438D01*
X179921Y131054D02*
Y131887D01*
X180472Y130503D02*
Y131336D01*
X181024Y130410D02*
Y130785D01*
X179819Y129205D02*
X179403Y128789D01*
X176452Y131740*
X176868Y132156*
X179819Y129205*
X178979Y129213D02*
X179812D01*
X178428Y129764D02*
X179261D01*
X177877Y130315D02*
X178709D01*
X177326Y130866D02*
X178158D01*
X176774Y131417D02*
X177607D01*
X176681Y131969D02*
X177056D01*
X176614Y131578D02*
Y131902D01*
X177165Y131026D02*
Y131859D01*
X177717Y130475D02*
Y131308D01*
X178268Y129924D02*
Y130757D01*
X178819Y129373D02*
Y130206D01*
X179370Y128822D02*
Y129654D01*
X178427Y127813D02*
X178011Y127397D01*
X175060Y130348*
X175476Y130764*
X178427Y127813*
X177849Y127559D02*
X178173D01*
X177298Y128110D02*
X178130D01*
X176746Y128661D02*
X177579D01*
X176195Y129213D02*
X177028D01*
X175644Y129764D02*
X176477D01*
X175093Y130315D02*
X175926D01*
X175512Y129896D02*
Y130729D01*
X176063Y129345D02*
Y130178D01*
X176614Y128794D02*
Y129626D01*
X177165Y128242D02*
Y129075D01*
X177717Y127691D02*
Y128524D01*
X178268Y127654D02*
Y127973D01*
X177035Y126421D02*
X176619Y126005D01*
X173668Y128956*
X174084Y129372*
X177035Y126421*
X176167Y126457D02*
X177000D01*
X175616Y127008D02*
X176449D01*
X175065Y127559D02*
X175898D01*
X174514Y128110D02*
X175346D01*
X173963Y128661D02*
X174795D01*
X173925Y129213D02*
X174244D01*
X173858Y128766D02*
Y129146D01*
X174409Y128214D02*
Y129047D01*
X174961Y127663D02*
Y128496D01*
X175512Y127112D02*
Y127945D01*
X176063Y126561D02*
Y127394D01*
X176614Y126010D02*
Y126842D01*
X175643Y125029D02*
X175227Y124613D01*
X172276Y127564*
X172692Y127980*
X175643Y125029*
X175037Y124803D02*
X175417D01*
X174486Y125354D02*
X175318D01*
X173935Y125906D02*
X174767D01*
X173383Y126457D02*
X174216D01*
X172832Y127008D02*
X173665D01*
X172281Y127559D02*
X173114D01*
X172756Y127084D02*
Y127917D01*
X173307Y126533D02*
Y127366D01*
X173858Y125982D02*
Y126814D01*
X174409Y125431D02*
Y126263D01*
X174961Y124879D02*
Y125712D01*
X175512Y124898D02*
Y125161D01*
X174251Y123637D02*
X173835Y123221D01*
X170884Y126172*
X171300Y126588*
X174251Y123637*
X173355Y123701D02*
X174188D01*
X172804Y124252D02*
X173637D01*
X172253Y124803D02*
X173086D01*
X171702Y125354D02*
X172535D01*
X171151Y125906D02*
X171983D01*
X171169Y126457D02*
X171432D01*
X171102Y125954D02*
Y126390D01*
X171654Y125403D02*
Y126235D01*
X172205Y124851D02*
Y125684D01*
X172756Y124300D02*
Y125133D01*
X173307Y123749D02*
Y124582D01*
X173858Y123244D02*
Y124031D01*
X172859Y122246D02*
X172443Y121829D01*
X169492Y124780*
X169909Y125196*
X172859Y122246*
X172225Y122047D02*
X172661D01*
X171674Y122598D02*
X172507D01*
X171123Y123150D02*
X171955D01*
X170571Y123701D02*
X171404D01*
X170020Y124252D02*
X170853D01*
X169515Y124803D02*
X170302D01*
X170000Y124272D02*
Y125105D01*
X170551Y123721D02*
Y124554D01*
X171102Y123170D02*
Y124003D01*
X171654Y122619D02*
Y123451D01*
X172205Y122068D02*
Y122900D01*
X172756Y122142D02*
Y122349D01*
X164091Y125196D02*
X164508Y124780D01*
X161557Y121829*
X161141Y122246*
X164091Y125196*
X161339Y122047D02*
X161775D01*
X161493Y122598D02*
X162326D01*
X162045Y123150D02*
X162877D01*
X162596Y123701D02*
X163429D01*
X163147Y124252D02*
X163980D01*
X163698Y124803D02*
X164484D01*
X161181Y122205D02*
Y122286D01*
X161732Y122005D02*
Y122837D01*
X162283Y122556D02*
Y123388D01*
X162835Y123107D02*
Y123940D01*
X163386Y123658D02*
Y124491D01*
X163937Y124209D02*
Y125042D01*
X164488Y124760D02*
Y124799D01*
X162699Y126588D02*
X163116Y126172D01*
X160165Y123221*
X159749Y123638*
X162699Y126588*
X159812Y123701D02*
X160645D01*
X160363Y124252D02*
X161196D01*
X160914Y124803D02*
X161747D01*
X161465Y125354D02*
X162298D01*
X162017Y125906D02*
X162849D01*
X162568Y126457D02*
X162831D01*
X160079Y123308D02*
Y123968D01*
X160630Y123686D02*
Y124519D01*
X161181Y124237D02*
Y125070D01*
X161732Y124788D02*
Y125621D01*
X162283Y125340D02*
Y126172D01*
X162835Y125891D02*
Y126453D01*
X161307Y127980D02*
X161724Y127564D01*
X158773Y124613*
X158357Y125030*
X161307Y127980*
X158583Y124803D02*
X158963D01*
X158682Y125354D02*
X159514D01*
X159233Y125906D02*
X160065D01*
X159784Y126457D02*
X160617D01*
X160335Y127008D02*
X161168D01*
X160886Y127559D02*
X161719D01*
X158425Y124961D02*
Y125098D01*
X158976Y124816D02*
Y125649D01*
X159528Y125368D02*
Y126200D01*
X160079Y125919D02*
Y126751D01*
X160630Y126470D02*
Y127303D01*
X161181Y127021D02*
Y127854D01*
X159915Y129372D02*
X160332Y128956D01*
X157381Y126005*
X156965Y126422*
X156965D02*
X159915Y129372D01*
X157000Y126457D02*
X157833D01*
X157551Y127008D02*
X158384D01*
X158102Y127559D02*
X158935D01*
X158654Y128110D02*
X159486D01*
X159205Y128661D02*
X160037D01*
X159756Y129213D02*
X160075D01*
X157323Y126064D02*
Y126779D01*
X157874Y126498D02*
Y127331D01*
X158425Y127049D02*
Y127882D01*
X158976Y127600D02*
Y128433D01*
X159528Y128151D02*
Y128984D01*
X160079Y128703D02*
Y129209D01*
X158524Y130764D02*
X158940Y130348D01*
X155989Y127397*
X155573Y127813*
X158524Y130764*
X155827Y127559D02*
X156151D01*
X155870Y128110D02*
X156702D01*
X156421Y128661D02*
X157254D01*
X156972Y129213D02*
X157805D01*
X157523Y129764D02*
X158356D01*
X158074Y130315D02*
X158907D01*
X155669Y127717D02*
Y127910D01*
X156220Y127628D02*
Y128461D01*
X156772Y128179D02*
Y129012D01*
X157323Y128731D02*
Y129563D01*
X157874Y129282D02*
Y130115D01*
X158425Y129833D02*
Y130666D01*
X157132Y132156D02*
X157548Y131740D01*
X154597Y128789*
X154181Y129205*
X157132Y132156*
X154188Y129213D02*
X155021D01*
X154739Y129764D02*
X155572D01*
X155291Y130315D02*
X156123D01*
X155842Y130866D02*
X156674D01*
X156393Y131417D02*
X157226D01*
X156944Y131969D02*
X157319D01*
X154567Y128819D02*
Y129591D01*
X155118Y129310D02*
Y130143D01*
X155669Y129861D02*
Y130694D01*
X156220Y130412D02*
Y131245D01*
X156772Y130963D02*
Y131796D01*
X157323Y131515D02*
Y131965D01*
X155740Y133548D02*
X156156Y133132D01*
X153205Y130181*
X152789Y130597*
X155740Y133548*
X153071Y130315D02*
X153339D01*
X153058Y130866D02*
X153891D01*
X153609Y131417D02*
X154442D01*
X154160Y131969D02*
X154993D01*
X154711Y132520D02*
X155544D01*
X155263Y133071D02*
X156095D01*
X152913Y130473D02*
Y130722D01*
X153465Y130440D02*
Y131273D01*
X154016Y130991D02*
Y131824D01*
X154567Y131543D02*
Y132375D01*
X155118Y132094D02*
Y132926D01*
X155669Y132645D02*
Y133478D01*
X154348Y134940D02*
X154764Y134524D01*
X151813Y131573*
X151397Y131989*
X154348Y134940*
X151418Y131969D02*
X152209D01*
X151928Y132520D02*
X152760D01*
X152479Y133071D02*
X153311D01*
X153030Y133622D02*
X153863D01*
X153581Y134173D02*
X154414D01*
X154132Y134724D02*
X154563D01*
X151811Y131575D02*
Y132403D01*
X152362Y132122D02*
Y132954D01*
X152913Y132673D02*
Y133506D01*
X153465Y133224D02*
Y134057D01*
X154016Y133775D02*
Y134608D01*
X154567Y134326D02*
Y134721D01*
X152956Y136332D02*
X153372Y135915D01*
X150422Y132965*
X150422D02*
X150005Y133381D01*
X152956Y136332*
X150315Y133071D02*
X150528D01*
X150246Y133622D02*
X151079D01*
X150797Y134173D02*
X151630D01*
X151348Y134724D02*
X152181D01*
X151900Y135276D02*
X152732D01*
X152451Y135827D02*
X153283D01*
X150157Y133229D02*
Y133534D01*
X150709Y133252D02*
Y134085D01*
X151260Y133803D02*
Y134636D01*
X151811Y134354D02*
Y135187D01*
X152362Y134906D02*
Y135738D01*
X152913Y135457D02*
Y136289D01*
X151564Y137724D02*
X151980Y137307D01*
X149030Y134357*
X148613Y134773*
X151564Y137724*
X148662Y134724D02*
X149397D01*
X149116Y135276D02*
X149948D01*
X149667Y135827D02*
X150500D01*
X150218Y136378D02*
X151051D01*
X150769Y136929D02*
X151602D01*
X151320Y137480D02*
X151807D01*
X149055Y134382D02*
Y135215D01*
X149606Y134934D02*
Y135766D01*
X150157Y135485D02*
Y136317D01*
X150709Y136036D02*
Y136869D01*
X151260Y136587D02*
Y137420D01*
X151811Y137138D02*
Y137477D01*
X150172Y139116D02*
X150588Y138699D01*
X147638Y135749*
X147221Y136165*
X150172Y139116*
X147560Y135827D02*
X147716D01*
X147434Y136378D02*
X148267D01*
X147985Y136929D02*
X148818D01*
X148536Y137480D02*
X149369D01*
X149088Y138031D02*
X149920D01*
X149639Y138583D02*
X150472D01*
X147402Y135985D02*
Y136345D01*
X147953Y136064D02*
Y136897D01*
X148504Y136615D02*
Y137448D01*
X149055Y137166D02*
Y137999D01*
X149606Y137717D02*
Y138550D01*
X150157Y138269D02*
Y139101D01*
X148780Y140508D02*
X149196Y140091D01*
X146246Y137141*
X145829Y137557*
X148780Y140508*
X145906Y137480D02*
X146585D01*
X146304Y138031D02*
X147136D01*
X146855Y138583D02*
X147688D01*
X147406Y139134D02*
X148239D01*
X147957Y139685D02*
X148790D01*
X148508Y140236D02*
X149051D01*
X146299Y137194D02*
Y138027D01*
X146850Y137745D02*
Y138578D01*
X147402Y138297D02*
Y139129D01*
X147953Y138848D02*
Y139680D01*
X148504Y139399D02*
Y140232D01*
X149055Y139950D02*
Y140232D01*
X149196Y145909D02*
X148780Y145492D01*
X145829Y148443*
X146246Y148859*
X149196Y145909*
X148524Y145748D02*
X149036D01*
X147973Y146299D02*
X148806D01*
X147422Y146850D02*
X148255D01*
X146871Y147402D02*
X147703D01*
X146320Y147953D02*
X147152D01*
X145890Y148504D02*
X146601D01*
X146299Y147973D02*
Y148806D01*
X146850Y147422D02*
Y148255D01*
X147402Y146871D02*
Y147703D01*
X147953Y146320D02*
Y147152D01*
X148504Y145768D02*
Y146601D01*
X149055Y145767D02*
Y146050D01*
X150588Y147300D02*
X150172Y146884D01*
X147221Y149835*
X147637Y150251*
X150588Y147300*
X149655Y147402D02*
X150487D01*
X149103Y147953D02*
X149936D01*
X148552Y148504D02*
X149385D01*
X148001Y149055D02*
X148834D01*
X147450Y149606D02*
X148283D01*
X147544Y150157D02*
X147731D01*
X147402Y149655D02*
Y150016D01*
X147953Y149103D02*
Y149936D01*
X148504Y148552D02*
Y149385D01*
X149055Y148001D02*
Y148834D01*
X149606Y147450D02*
Y148283D01*
X150157Y146899D02*
Y147731D01*
X151980Y148692D02*
X151564Y148276D01*
X148613Y151227*
X149029Y151643*
X151980Y148692*
X151336Y148504D02*
X151792D01*
X150785Y149055D02*
X151618D01*
X150234Y149606D02*
X151066D01*
X149683Y150157D02*
X150515D01*
X149131Y150709D02*
X149964D01*
X148646Y151260D02*
X149413D01*
X149055Y150785D02*
Y151618D01*
X149606Y150234D02*
Y151066D01*
X150157Y149683D02*
Y150515D01*
X150709Y149131D02*
Y149964D01*
X151260Y148580D02*
Y149413D01*
X151811Y148523D02*
Y148862D01*
X153372Y150084D02*
X152956Y149668D01*
X150005Y152619*
X150421Y153035*
X153372Y150084*
X152466Y150157D02*
X153299D01*
X151915Y150709D02*
X152748D01*
X151364Y151260D02*
X152197D01*
X150813Y151811D02*
X151646D01*
X150262Y152362D02*
X151094D01*
X150299Y152913D02*
X150543D01*
X150157Y152466D02*
Y152771D01*
X150709Y151915D02*
Y152748D01*
X151260Y151364D02*
Y152197D01*
X151811Y150813D02*
Y151646D01*
X152362Y150262D02*
Y151094D01*
X152913Y149711D02*
Y150543D01*
X154764Y151476D02*
X154348Y151060D01*
X151397Y154011*
X151813Y154427*
X154764Y151476*
X154148Y151260D02*
X154548D01*
X153597Y151811D02*
X154430D01*
X153046Y152362D02*
X153878D01*
X152494Y152913D02*
X153327D01*
X151943Y153465D02*
X152776D01*
X151402Y154016D02*
X152225D01*
X151811Y153597D02*
Y154425D01*
X152362Y153046D02*
Y153878D01*
X152913Y152494D02*
Y153327D01*
X153465Y151943D02*
Y152776D01*
X154016Y151392D02*
Y152225D01*
X154567Y151279D02*
Y151674D01*
X156156Y152868D02*
X155740Y152452D01*
X152789Y155403*
X153205Y155819*
X156156Y152868*
X155278Y152913D02*
X156111D01*
X154727Y153465D02*
X155560D01*
X154176Y154016D02*
X155009D01*
X153625Y154567D02*
X154457D01*
X153074Y155118D02*
X153906D01*
X153055Y155669D02*
X153355D01*
X152913Y155278D02*
Y155527D01*
X153465Y154727D02*
Y155560D01*
X154016Y154176D02*
Y155009D01*
X154567Y153625D02*
Y154457D01*
X155118Y153074D02*
Y153906D01*
X155669Y152522D02*
Y153355D01*
X157548Y154260D02*
X157132Y153844D01*
X154181Y156795*
X154597Y157211*
X157548Y154260*
X156960Y154016D02*
X157304D01*
X156409Y154567D02*
X157241D01*
X155857Y155118D02*
X156690D01*
X155306Y155669D02*
X156139D01*
X154755Y156220D02*
X155588D01*
X154204Y156772D02*
X155037D01*
X154567Y156409D02*
Y157181D01*
X155118Y155857D02*
Y156690D01*
X155669Y155306D02*
Y156139D01*
X156220Y154755D02*
Y155588D01*
X156772Y154204D02*
Y155037D01*
X157323Y154035D02*
Y154485D01*
X158940Y155652D02*
X158524Y155236D01*
X155573Y158187*
X155989Y158603*
X158940Y155652*
X158090Y155669D02*
X158923D01*
X157539Y156220D02*
X158372D01*
X156988Y156772D02*
X157821D01*
X156437Y157323D02*
X157269D01*
X155885Y157874D02*
X156718D01*
X155811Y158425D02*
X156167D01*
X155669Y158090D02*
Y158283D01*
X156220Y157539D02*
Y158372D01*
X156772Y156988D02*
Y157821D01*
X157323Y156437D02*
Y157269D01*
X157874Y155885D02*
Y156718D01*
X158425Y155334D02*
Y156167D01*
X160332Y157044D02*
X159916Y156628D01*
X156965Y159579*
X157381Y159995*
X160332Y157044*
X159772Y156772D02*
X160060D01*
X159221Y157323D02*
X160053D01*
X158669Y157874D02*
X159502D01*
X158118Y158425D02*
X158951D01*
X157567Y158976D02*
X158400D01*
X157016Y159528D02*
X157849D01*
X157323Y159221D02*
Y159937D01*
X157874Y158669D02*
Y159502D01*
X158425Y158118D02*
Y158951D01*
X158976Y157567D02*
Y158400D01*
X159528Y157016D02*
Y157849D01*
X160079Y156791D02*
Y157297D01*
X161724Y158436D02*
X161308Y158020D01*
X158357Y160971*
X158773Y161387*
X161724Y158436*
X160902Y158425D02*
X161713D01*
X160351Y158976D02*
X161184D01*
X159800Y159528D02*
X160632D01*
X159248Y160079D02*
X160081D01*
X158697Y160630D02*
X159530D01*
X158567Y161181D02*
X158979D01*
X158425Y160902D02*
Y161039D01*
X158976Y160351D02*
Y161184D01*
X159528Y159800D02*
Y160632D01*
X160079Y159248D02*
Y160081D01*
X160630Y158697D02*
Y159530D01*
X161181Y158146D02*
Y158979D01*
X163116Y159828D02*
X162700Y159412D01*
X159749Y162363*
X160165Y162779*
X163116Y159828*
X162584Y159528D02*
X162815D01*
X162032Y160079D02*
X162865D01*
X161481Y160630D02*
X162314D01*
X160930Y161181D02*
X161763D01*
X160379Y161732D02*
X161212D01*
X159828Y162283D02*
X160660D01*
X160079Y162032D02*
Y162693D01*
X160630Y161481D02*
Y162314D01*
X161181Y160930D02*
Y161763D01*
X161732Y160379D02*
Y161212D01*
X162283Y159828D02*
Y160660D01*
X162835Y159547D02*
Y160109D01*
X164508Y161220D02*
X164091Y160804D01*
X161141Y163754*
X161557Y164171*
X164508Y161220*
X163714Y161181D02*
X164469D01*
X163163Y161732D02*
X163995D01*
X162612Y162283D02*
X163444D01*
X162060Y162835D02*
X162893D01*
X161509Y163386D02*
X162342D01*
X161323Y163937D02*
X161791D01*
X161181Y163714D02*
Y163795D01*
X161732Y163163D02*
Y163995D01*
X162283Y162612D02*
Y163444D01*
X162835Y162060D02*
Y162893D01*
X163386Y161509D02*
Y162342D01*
X163937Y160958D02*
Y161791D01*
X164488Y161200D02*
Y161240D01*
G54D89*
X211350Y136000D03*
X204650D03*
X129650Y154000D03*
X136350D03*
X199650Y118000D03*
X206350D03*
X156350Y167000D03*
X149650D03*
X125650Y121000D03*
X132350D03*
X125650Y128000D03*
X132350D03*
X136350Y148000D03*
X129650D03*
G54D91*
X113866Y161260D03*
Y168740D03*
X122134Y165000D03*
Y156740D03*
Y149260D03*
X113866Y153000D03*
G54D96*
X191000Y122350D03*
Y115650D03*
X132000Y141350D03*
Y134650D03*
X125000D03*
Y141350D03*
X183000Y115650D03*
Y122350D03*
X106000Y163350D03*
Y156650D03*
G54D146*
X224000Y155000D03*
G54D147*
X117630Y122157D03*
Y141843D03*
G54D148*
X107000Y118220D03*
Y145780D03*
G54D149*
X146900Y123000D03*
X116500Y116600D03*
X170100Y109500D03*
X166200Y119200D03*
X203400Y111000D03*
X113400Y148400D03*
X134300Y158600D03*
X136800Y134700D03*
X152600Y160600D03*
X141900Y146400D03*
X146300Y144200D03*
X177000Y137000D03*
X163900Y137400D03*
X161300Y134100D03*
X160600Y153200D03*
X157300Y142100D03*
X188900Y140800D03*
X167000Y134100D03*
X188000Y130700D03*
X172500Y153300D03*
X192500Y159800D03*
X157600Y150200D03*
X188300Y156000D03*
X155400Y138100D03*
X173800Y133700D03*
X189200Y145200D03*
X168600Y143200D03*
X191100Y127500D03*
X178000Y148100D03*
X176200Y144300D03*
X159600Y138300D03*
X170000Y149800D03*
X167000Y128800D03*
X168800Y155000D03*
X182000Y143200D03*
X198400Y139800D03*
X216100Y136000D03*
X197100Y159500D03*
X108400Y169400D03*
X164200Y165900D03*
X168200Y165800D03*
X160700Y169300D03*
X211600Y168700D03*
G54D150*
X139000Y110100D02*
Y113900D01*
X142800*
Y110100*
X139000*
Y111000D02*
X142800D01*
X139000Y112000D02*
X142800D01*
X139000Y113000D02*
X142800D01*
X139000Y110100D02*
Y113900D01*
X140000Y110100D02*
Y113900D01*
X141000Y110100D02*
Y113900D01*
X142000Y110100D02*
Y113900D01*
X131200Y110100D02*
Y113900D01*
X135000*
Y110100*
X131200*
Y111000D02*
X135000D01*
X131200Y112000D02*
X135000D01*
X131200Y113000D02*
X135000D01*
X132000Y110100D02*
Y113900D01*
X133000Y110100D02*
Y113900D01*
X134000Y110100D02*
Y113900D01*
X135000Y110100D02*
Y113900D01*
X207973Y127000D02*
G75*
G03X207973I-2973J0D01*
G01X229760Y124381D02*
X235619Y130240D01*
X230511Y133300D02*
G03X235619Y130240I4489J1700D01*
G01X230511Y133300D02*
X224300D01*
X222500*
X221298Y133798D02*
G03X222500Y133300I1202J1202D01*
G01X221298Y133798D02*
X218998Y136097D01*
X214668Y133478D02*
G03X218998Y136097I1432J2522D01*
G01X213500Y132750D02*
G03X214668Y133478I0J1300D01*
G01X213500Y132750D02*
X213050D01*
Y131637*
X214568Y129953D02*
G03X213050Y131637I-1694J-0D01*
G01X214568Y129953D02*
Y124047D01*
X212874Y122354D02*
G03X214568Y124047I0J1693D01*
G01X212874Y122354D02*
X210512D01*
X208818Y124047D02*
G03X210512Y122354I1694J0D01*
G01X208818Y124047D02*
Y129953D01*
X209650Y131411D02*
G03X208818Y129953I862J-1458D01*
G01X209650Y131411D02*
Y132750D01*
X209472*
X209202Y132398D02*
G03X209472Y132750I-1202J1202D01*
G01X209202Y132398D02*
X208502Y131698D01*
X207300Y131200D02*
G03X208502Y131698I0J1700D01*
G01X207300Y131200D02*
X201200D01*
X199998Y131698D02*
G03X201200Y131200I1202J1202D01*
G01X199998Y131698D02*
X196496Y135200D01*
X194000*
X191304*
X189364Y133259*
X190884Y130392D02*
G03X189364Y133259I-2884J308D01*
G01X188751Y125800D02*
G03X190884Y130392I2349J1700D01*
G01X188751Y125800D02*
X187996D01*
X188202Y125594*
X188700Y124392D02*
G03X188202Y125594I-1700J-0D01*
G01X188700Y124392D02*
Y121304D01*
X189304Y120700*
X193400*
X194602Y120202D02*
G03X193400Y120700I-1202J-1202D01*
G01X194602Y120202D02*
X196402Y118402D01*
X196900Y117200D02*
G03X196402Y118402I-1700J0D01*
G01X196900Y117200D02*
Y115504D01*
X203028Y109376*
X209760Y104381D02*
G03X203028Y109376I-4760J619D01*
G01X209760Y104381D02*
X215619Y110240D01*
X219760Y114381D02*
G03X215619Y110240I-4760J619D01*
G01X219760Y114381D02*
X225619Y120240D01*
X229760Y124381D02*
G03X225619Y120240I-4760J619D01*
G01X238500Y138285D02*
Y171715D01*
X231715Y178500D02*
G03X238500Y171715I3285J-3500D01*
G01X231715Y178500D02*
X228285D01*
X223028Y170624D02*
G03X228285Y178500I1972J4376D01*
G01X223028Y170624D02*
X221502Y169098D01*
X220300Y168600D02*
G03X221502Y169098I0J1700D01*
G01X220300Y168600D02*
X214498D01*
X211612Y171600D02*
G03X214498Y168600I-12J-2900D01*
G01X211715Y178500D02*
G03X211612Y171600I3285J-3500D01*
G01X211715Y178500D02*
X208285D01*
X201715D02*
G03X208285I3285J-3500D01*
G01X201715D02*
X198285D01*
X198986Y172326D02*
G03X198285Y178500I-3986J2674D01*
G01X200692Y171904D02*
G03X198986Y172326I-1202J-1202D01*
G01X200692Y171904D02*
X203167Y169429D01*
Y167025D02*
G03Y169429I-1202J1202D01*
G01Y167025D02*
X200975Y164833D01*
X198571D02*
G03X200975I1202J1202D01*
G01X198571D02*
X197354Y166050D01*
X197102Y165798*
X195900Y165300D02*
G03X197102Y165798I0J1700D01*
G01X195900Y165300D02*
X194900D01*
X193260Y163660*
X193702Y163218*
X194194Y162153D02*
G03X193702Y163218I-1694J-137D01*
G01X190819Y157437D02*
G03X194194Y162153I1681J2363D01*
G01X191163Y155541D02*
G03X190819Y157437I-2863J459D01*
G01X191163Y155541D02*
X192462Y154242D01*
X192621Y154102D02*
G03X192462Y154242I-1202J-1202D01*
G01X192621Y154102D02*
X193561Y153162D01*
X193751Y153351*
X196703D02*
G03X193751I-1476J-1476D01*
G01X196703D02*
X200601Y149454D01*
X201168Y147554D02*
G03X200601Y149454I-2043J424D01*
G01X202975Y147167D02*
G03X201168Y147554I-1202J-1202D01*
G01X202975Y147167D02*
X205167Y144975D01*
Y142571D02*
G03Y144975I-1202J1202D01*
G01Y142571D02*
X202692Y140096D01*
X201822Y139631D02*
G03X202692Y140096I-332J1667D01*
G01X201822Y139631D02*
X202231Y139222D01*
X202500Y139250D02*
G03X202231Y139222I0J-1300D01*
G01X202500Y139250D02*
X206528D01*
X206798Y139602D02*
G03X206528Y139250I1202J-1202D01*
G01X206798Y139602D02*
X207498Y140302D01*
X208700Y140800D02*
G03X207498Y140302I0J-1700D01*
G01X208700Y140800D02*
X218400D01*
X219602Y140302D02*
G03X218400Y140800I-1202J-1202D01*
G01X219602Y140302D02*
X223204Y136700D01*
X224300*
X230511*
X238500Y138285D02*
G03X230511Y136700I-3500J-3285D01*
G01X221715Y178500D02*
G03X220624Y173028I3285J-3500D01*
G01X221715Y178500D02*
X218285D01*
X218747Y172000D02*
G03X218285Y178500I-3747J3000D01*
G01X218747Y172000D02*
X219596D01*
X220624Y173028*
X196096Y169712D02*
X197037Y170654D01*
X192538Y170880D02*
G03X197037Y170654I2462J4120D01*
G01X192538Y170880D02*
X194717Y168700D01*
X195196*
X195788Y169293*
X196096Y169712D02*
G03X195789Y169293I1202J-1202D01*
G01X187750Y117350D02*
Y117528D01*
X187398Y117798D02*
G03X187750Y117528I1202J1202D01*
G01X187398Y117798D02*
X185892Y119304D01*
X185450Y119000D02*
G03X185892Y119304I-500J1200D01*
G01X186250Y117800D02*
G03X185450Y119000I-1300J0D01*
G01X186250Y117800D02*
Y117350D01*
X187750*
X178285Y101500D02*
X181715D01*
X180624Y106972D02*
G03X181715Y101500I4376J-1972D01*
G01X180624Y106972D02*
X178300Y109296D01*
Y108486*
X178285Y101500D02*
G03X178300Y108486I-3285J3500D01*
G01X176621Y134125D02*
G03X176354Y133646I1223J-993D01*
G01X174137Y137459D02*
G03X176621Y134125I2863J-459D01*
G01X174137Y137459D02*
X171698Y139898D01*
X171200Y141100D02*
G03X171698Y139898I1700J-0D01*
G01X171200Y141100D02*
Y145300D01*
X168800*
X167598Y145798D02*
G03X168800Y145300I1202J1202D01*
G01X167598Y145798D02*
X162439Y150957D01*
X160498Y150302D02*
G03X162439Y150957I102J2898D01*
G01X155707Y148003D02*
G03X160498Y150302I1893J2197D01*
G01X155707Y148003D02*
X154028Y146324D01*
Y140655*
X157405Y140195D02*
G03X154028Y140655I-2005J-2095D01*
G01X162138Y139703D02*
G03X157405Y140195I-2538J-1403D01*
G01X166771Y136991D02*
G03X162138Y139703I-2871J409D01*
G01X168178Y131450D02*
G03X166771Y136991I-1178J2650D01*
G01X167702Y125986D02*
G03X168178Y131450I-702J2814D01*
G01X167702Y125986D02*
X166005Y124289D01*
X165622Y123666D02*
G03X166005Y124289I-1114J1114D01*
G01X165622Y123666D02*
X162671Y120715D01*
X161733Y120264D02*
G03X162671Y120715I-176J1565D01*
G01X161774Y119940D02*
G03X161733Y120264I-1300J0D01*
G01X161774Y119940D02*
Y117540D01*
X160474Y116240D02*
G03X161774Y117540I0J1300D01*
G01X160474Y116240D02*
X154974D01*
X153674Y117540D02*
G03X154974Y116240I1300J0D01*
G01X153674Y117540D02*
Y119940D01*
X154974Y121240D02*
G03X153674Y119940I0J-1300D01*
G01X154974Y121240D02*
X159928D01*
X159651Y121732D02*
G03X159928Y121240I1490J514D01*
G01X159051Y122107D02*
G03X159651Y121732I1114J1114D01*
G01X159051Y122107D02*
X158635Y122523D01*
X158259Y123124D02*
G03X158635Y122523I1490J514D01*
G01X157659Y123499D02*
G03X158259Y123124I1114J1114D01*
G01X157659Y123499D02*
X157243Y123915D01*
X156867Y124516D02*
G03X157243Y123915I1490J514D01*
G01X156267Y124891D02*
G03X156867Y124516I1114J1114D01*
G01X156267Y124891D02*
X155851Y125307D01*
X155475Y125908D02*
G03X155851Y125307I1490J514D01*
G01X154875Y126283D02*
G03X155475Y125908I1114J1114D01*
G01X154875Y126283D02*
X154459Y126699D01*
X154083Y127300D02*
G03X154459Y126699I1490J513D01*
G01X153483Y127675D02*
G03X154083Y127300I1114J1114D01*
G01X153483Y127675D02*
X153067Y128091D01*
X152692Y128692D02*
G03X153067Y128091I1489J513D01*
G01X152091Y129067D02*
G03X152692Y128692I1114J1114D01*
G01X152091Y129067D02*
X151693Y129465D01*
X151387Y129159*
X151167Y127025D02*
G03X151387Y129159I-1202J1202D01*
G01X151167Y127025D02*
X148975Y124833D01*
X146571D02*
G03X148975I1202J1202D01*
G01X146571D02*
X146535Y124869D01*
X145464Y123798*
X144262Y123300D02*
G03X145464Y123798I0J1700D01*
G01X144262Y123300D02*
X137254D01*
X135800Y121846*
Y119300*
X136300*
X138209Y118509D02*
G03X136300Y119300I-1909J-1909D01*
G01X138209Y118509D02*
X140002Y116717D01*
X140574Y117666D02*
G03X140002Y116717I1626J-1626D01*
G01X140574Y117666D02*
X143274Y120366D01*
X144832Y121039D02*
G03X143274Y120366I68J-2299D01*
G01X145526Y121240D02*
G03X144832Y121039I0J-1300D01*
G01X145526Y121240D02*
X151026D01*
X152326Y119940D02*
G03X151026Y121240I-1300J0D01*
G01X152326Y119940D02*
Y117540D01*
X151026Y116240D02*
G03X152326Y117540I0J1300D01*
G01X151026Y116240D02*
X145653D01*
X144500Y115087*
Y114492*
X144600Y113900D02*
G03X144500Y114492I-1800J0D01*
G01X144600Y113900D02*
Y113560D01*
X144833*
X145526Y113760D02*
G03X144833Y113560I0J-1300D01*
G01X145526Y113760D02*
X151026D01*
X152326Y112460D02*
G03X151026Y113760I-1300J0D01*
G01X152326Y112460D02*
Y110060D01*
X151026Y108760D02*
G03X152326Y110060I0J1300D01*
G01X151026Y108760D02*
X147984D01*
X148285Y101500D02*
G03X147984Y108760I-3285J3500D01*
G01X148285Y101500D02*
X151715D01*
X153746Y109633D02*
G03X151715Y101500I1254J-4633D01*
G01X153674Y110060D02*
G03X153746Y109633I1300J0D01*
G01X153674Y110060D02*
Y112460D01*
X154974Y113760D02*
G03X153674Y112460I0J-1300D01*
G01X154974Y113760D02*
X160474D01*
X161167Y113560D02*
G03X160474Y113760I-693J-1100D01*
G01X161167Y113560D02*
X161957D01*
X162200Y113803*
Y115550*
X163900Y117250D02*
G03X162200Y115550I0J-1700D01*
G01X163900Y117250D02*
Y117434D01*
X167966Y121500D02*
G03X163900Y117434I-1766J-2300D01*
G01X167966Y121500D02*
X169647D01*
X170096Y121948*
X168378Y123666*
Y125894D02*
G03Y123666I1114J-1114D01*
G01Y125894D02*
X168794Y126311D01*
X171023D02*
G03X168794I-1114J-1115D01*
G01X171023D02*
X173974Y123360D01*
X174427Y122087D02*
G03X173974Y123360I-1568J159D01*
G01X174026Y119374D02*
G03X174427Y122087I-1626J1626D01*
G01X174026Y119374D02*
X172226Y117574D01*
X170600Y116900D02*
G03X172226Y117574I0J2300D01*
G01X170600Y116900D02*
X168500D01*
Y116846*
X169100Y115550D02*
G03X168500Y116846I-1700J0D01*
G01X169100Y115550D02*
Y112450D01*
X167400Y110750D02*
G03X169100Y112450I0J1700D01*
G01X167400Y110750D02*
X165653D01*
X164693Y109790*
X168285Y101500D02*
G03X164693Y109790I-3285J3500D01*
G01X168285Y101500D02*
X171715D01*
X174900Y109799D02*
G03X171715Y101500I100J-4799D01*
G01X174900Y109799D02*
Y122952D01*
X174854Y122998*
X174736Y123116*
X174113Y123499D02*
G03X174736Y123116I1114J1114D01*
G01X174113Y123499D02*
X171162Y126450D01*
Y128678D02*
G03Y126450I1114J-1114D01*
G01Y128678D02*
X171578Y129094D01*
X172179Y129470D02*
G03X171578Y129094I513J-1490D01*
G01X172554Y130070D02*
G03X172179Y129470I1114J-1114D01*
G01X172554Y130070D02*
X172970Y130486D01*
X173571Y130862D02*
G03X172970Y130486I513J-1490D01*
G01X173946Y131462D02*
G03X173571Y130862I1114J-1114D01*
G01X173946Y131462D02*
X174362Y131878D01*
X174962Y132254D02*
G03X174362Y131878I514J-1490D01*
G01X175338Y132854D02*
G03X174962Y132254I1114J-1114D01*
G01X175338Y132854D02*
X175754Y133270D01*
X176354Y133646D02*
G03X175754Y133270I514J-1490D01*
G01X181507Y138996D02*
G03X181322Y138838I929J-1272D01*
G01X181467Y139360D02*
G03X181507Y138996I1700J0D01*
G01X181467Y139360D02*
Y140349D01*
X179128Y143600D02*
G03X181467Y140349I2872J-400D01*
G01X179128Y143600D02*
X179014D01*
X174600Y141881D02*
G03X179014Y143600I1600J2419D01*
G01X174600Y141881D02*
Y141804D01*
X176541Y139863*
X179874Y137390D02*
G03X176541Y139863I-2874J-390D01*
G01X179874Y137390D02*
X179930Y137446D01*
X180530Y137821D02*
G03X179930Y137446I514J-1489D01*
G01X180906Y138422D02*
G03X180530Y137821I1114J-1114D01*
G01X180906Y138422D02*
X181322Y138838D01*
X190357Y161754D02*
G03X189981Y158363I2143J-1954D01*
G01X190357Y161754D02*
X189869Y162243D01*
X189297Y162649D02*
G03X189869Y162243I1476J1476D01*
G01X189297Y162649D02*
X185399Y166546D01*
Y169498D02*
G03Y166546I1476J-1476D01*
G01Y169498D02*
X186273Y170372D01*
X181715Y178500D02*
G03X186273Y170372I3285J-3500D01*
G01X181715Y178500D02*
X178285D01*
X178700Y171942D02*
G03X178285Y178500I-3700J3058D01*
G01X178700Y171942D02*
Y162744D01*
X178202Y161542D02*
G03X178700Y162744I-1202J1202D01*
G01X178202Y161542D02*
X177751Y161091D01*
X178149Y160693*
X178525Y160092D02*
G03X178149Y160693I-1490J-514D01*
G01X179125Y159717D02*
G03X178525Y160092I-1114J-1114D01*
G01X179125Y159717D02*
X179541Y159301D01*
X179917Y158700D02*
G03X179541Y159301I-1490J-513D01*
G01X180517Y158325D02*
G03X179917Y158700I-1114J-1114D01*
G01X180517Y158325D02*
X180933Y157909D01*
X181308Y157308D02*
G03X180933Y157909I-1489J-513D01*
G01X181909Y156933D02*
G03X181308Y157308I-1114J-1114D01*
G01X181909Y156933D02*
X182325Y156517D01*
Y154289D02*
G03Y156517I-1114J1114D01*
G01Y154289D02*
X179374Y151338D01*
X179137Y151143D02*
G03X179374Y151338I-877J1309D01*
G01X179010Y150819D02*
G03X179137Y151143I-1510J781D01*
G01X179196Y150742D02*
G03X179010Y150819I-1196J-2642D01*
G01X179514Y151199D02*
G03X179196Y150742I1114J-1114D01*
G01X179514Y151199D02*
X182464Y154149D01*
X183131Y154546D02*
G03X182464Y154149I447J-1511D01*
G01X184130Y154870D02*
G03X183131Y154546I-0J-1700D01*
G01X184130Y154870D02*
X185629D01*
X189981Y158363D02*
G03X185629Y154870I-1681J-2363D01*
G01X191715Y178500D02*
G03X190922Y172468I3285J-3500D01*
G01X191715Y178500D02*
X188285D01*
X189297Y172862D02*
G03X188285Y178500I-4297J2138D01*
G01X190922Y172468D02*
G03X189297Y172862I-1263J-1662D01*
G01X175300Y163542D02*
Y164552D01*
X174962Y163880D02*
G03X175300Y164552I-1312J1081D01*
G01X174962Y163880D02*
X175300Y163542D01*
X170963Y164919D02*
X171032Y164988D01*
X170991Y165013D02*
G03X171032Y164988I909J1437D01*
G01X170963Y164919D02*
G03X170991Y165013I-2763J881D01*
G01X170712Y155583D02*
G03X169667Y152681I1788J-2283D01*
G01X170712Y155583D02*
X170196Y156100D01*
X168600*
X167398Y156598D02*
G03X168600Y156100I1202J1202D01*
G01X167398Y156598D02*
X165298Y158698D01*
X164866Y159431D02*
G03X165298Y158698I1634J469D01*
G01X162977Y159689D02*
G03X164866Y159431I1114J1115D01*
G01X162977Y159689D02*
X160026Y162640D01*
X159585Y163506D02*
G03X160026Y162640I1556J248D01*
G01X159456Y164156D02*
G03X159585Y163506I1700J-0D01*
G01X159456Y164156D02*
Y164169D01*
X158500Y163750D02*
G03X159456Y164169I0J1300D01*
G01X158500Y163750D02*
X158398D01*
X159264Y162884*
X159887Y162501D02*
G03X159264Y162884I-1114J-1114D01*
G01X159887Y162501D02*
X162838Y159550D01*
Y157322D02*
G03Y159550I-1114J1114D01*
G01Y157322D02*
X162422Y156906D01*
X161821Y156530D02*
G03X162422Y156906I-513J1490D01*
G01X161479Y155964D02*
G03X161821Y156530I-1147J1080D01*
G01X162980Y154857D02*
G03X161479Y155964I-2380J-1657D01*
G01X163802Y154402D02*
G03X162980Y154857I-1202J-1202D01*
G01X163802Y154402D02*
X167313Y150891D01*
X169667Y152681D02*
G03X167313Y150891I333J-2881D01*
G01X171715Y178500D02*
G03X171612Y171600I3285J-3500D01*
G01X171715Y178500D02*
X168285D01*
X168388Y171600D02*
G03X168285Y178500I-3388J3400D01*
G01X168388Y171600D02*
X171612D01*
X161715Y178500D02*
G03X161124Y172169I3285J-3500D01*
G01X161715Y178500D02*
X158285D01*
X155691Y170250D02*
G03X158285Y178500I-691J4750D01*
G01X155691Y170250D02*
X157133D01*
X157209Y170326*
X158307Y170938D02*
G03X157209Y170326I529J-2238D01*
G01X161124Y172169D02*
G03X158307Y170938I-424J-2869D01*
G01X143558Y126700D02*
X144131Y127273D01*
X144096Y127308*
X143676Y128000D02*
G03X144096Y127308I1622J510D01*
G01X143676Y128000D02*
X143250D01*
Y126700*
X143558*
X150628Y138992D02*
Y139434D01*
X150310Y138977D02*
G03X150628Y139434I-1114J1114D01*
G01X150310Y138977D02*
X147360Y136027D01*
X146372Y135570D02*
G03X147360Y136027I-126J1571D01*
G01X145889Y135500D02*
G03X146372Y135570I-0J1700D01*
G01X145889Y135500D02*
X144700D01*
X143498Y135998D02*
G03X144700Y135500I1202J1202D01*
G01X143498Y135998D02*
X141596Y137900D01*
X139450*
X137750Y139600D02*
G03X139450Y137900I1700J0D01*
G01X137750Y139600D02*
Y143100D01*
X138700Y144626D02*
G03X137750Y143100I750J-1526D01*
G01X138700Y144626D02*
Y145300D01*
X139000Y146436D02*
G03X138700Y145300I2000J-1136D01*
G01X144316Y148004D02*
G03X139000Y146436I-2416J-1604D01*
G01X144715Y149557D02*
G03X144316Y148004I1114J-1114D01*
G01X144715Y149557D02*
X145131Y149974D01*
X145732Y150349D02*
G03X145131Y149974I514J-1490D01*
G01X146107Y150949D02*
G03X145732Y150349I1114J-1114D01*
G01X146107Y150949D02*
X146523Y151366D01*
X146730Y151539D02*
G03X146523Y151366I907J-1288D01*
G01X146700Y151856D02*
G03X146730Y151539I1700J0D01*
G01X146700Y151856D02*
Y151896D01*
X146096Y152500*
X143409Y149813*
X141571D02*
G03X143409I919J919D01*
G01X141571D02*
X138813Y152571D01*
Y154409D02*
G03Y152571I919J-919D01*
G01Y154409D02*
X139450Y155046D01*
X136987Y157509*
X133841Y155737D02*
G03X136987Y157509I459J2863D01*
G01X133841Y155737D02*
X133100Y154996D01*
Y152050*
X132567Y151000D02*
G03X133100Y152050I-767J1050D01*
G01Y149950D02*
G03X132567Y151000I-1300J0D01*
G01X133100Y149950D02*
Y146050D01*
X132600Y145025D02*
G03X133100Y146050I-800J1025D01*
G01X132600Y145025D02*
Y144800D01*
X133950*
X135250Y143500D02*
G03X133950Y144800I-1300J0D01*
G01X135250Y143500D02*
Y139200D01*
X134450Y138000D02*
G03X135250Y139200I-500J1200D01*
G01Y136800D02*
G03X134450Y138000I-1300J0D01*
G01X135250Y136800D02*
Y132500D01*
X134307Y131250D02*
G03X135250Y132500I-357J1250D01*
G01X134307Y131250D02*
X134500D01*
X135800Y129950D02*
G03X134500Y131250I-1300J0D01*
G01X135800Y129950D02*
Y129700D01*
X136750*
Y130100*
X138450Y131800D02*
G03X136750Y130100I0J-1700D01*
G01X138450Y131800D02*
X141550D01*
X142645Y131400D02*
G03X141550Y131800I-1095J-1300D01*
G01X142645Y131400D02*
X143596D01*
X145998Y133802*
X147111Y134298D02*
G03X145998Y133802I89J-1698D01*
G01X147499Y135887D02*
G03X147111Y134298I1114J-1114D01*
G01X147499Y135887D02*
X150450Y138838D01*
X150628Y138992D02*
G03X150450Y138838I936J-1268D01*
G01X150628Y140749D02*
Y145251D01*
X150311Y144794D02*
G03X150628Y145251I-1115J1115D01*
G01X150311Y144794D02*
X149894Y144378D01*
X149191Y143971D02*
G03X149894Y144378I-411J1521D01*
G01X148109Y141933D02*
G03X149191Y143971I-1809J2267D01*
G01X149894Y141622D02*
G03X148109Y141933I-1114J-1114D01*
G01X149894Y141622D02*
X150310Y141205D01*
X150628Y140749D02*
G03X150310Y141205I-1432J-658D01*
G01X152902Y157716D02*
G03X152691Y157309I1279J-921D01*
G01X151438Y157943D02*
G03X152902Y157716I1162J2657D01*
G01X151187Y157591D02*
G03X151438Y157943I-919J919D01*
G01X151187Y157591D02*
X148500Y154904D01*
X149281Y154123*
X149307Y154149*
X149907Y154525D02*
G03X149307Y154149I514J-1490D01*
G01X150283Y155125D02*
G03X149907Y154525I1114J-1114D01*
G01X150283Y155125D02*
X150699Y155541D01*
X151299Y155917D02*
G03X150699Y155541I514J-1490D01*
G01X151675Y156517D02*
G03X151299Y155917I1114J-1114D01*
G01X151675Y156517D02*
X152091Y156933D01*
X152691Y157309D02*
G03X152091Y156933I514J-1490D01*
G01X154200Y170250D02*
X154309D01*
X153028Y170624D02*
G03X154309Y170250I1972J4376D01*
G01X153028Y170624D02*
X152469Y170065D01*
X153000Y169450D02*
G03X152469Y170065I-1200J-500D01*
G01X154200Y170250D02*
G03X153000Y169450I0J-1300D01*
G01X151715Y178500D02*
G03X150624Y173028I3285J-3500D01*
G01X151715Y178500D02*
X148285D01*
X148578Y171800D02*
G03X148285Y178500I-3578J3200D01*
G01X148578Y171800D02*
X149396D01*
X150624Y173028*
X147714Y141668D02*
G03X147666Y141622I1066J-1160D01*
G01X144250Y142149D02*
G03X147714Y141668I2050J2051D01*
G01X144250Y142149D02*
Y140054D01*
X145174Y139130*
X147666Y141622*
X145172Y146872D02*
G03X144787Y146674I1128J-2672D01*
G01X145172Y146872D02*
X144715Y147329D01*
X144601Y147456D02*
G03X144715Y147329I1228J987D01*
G01X144787Y146674D02*
G03X144601Y147456I-2887J-274D01*
G01X146568Y162203D02*
X148115Y163750D01*
X147500*
X146613Y164100D02*
G03X147500Y163750I887J950D01*
G01X146613Y164100D02*
X146568D01*
Y162203*
X143904Y159500D02*
X144757Y160354D01*
X143051*
X143904Y159500*
X139300Y160004D02*
Y163116D01*
X137266Y162039D02*
G03X139300Y163116I-266J2961D01*
G01X137266Y162039D02*
X139300Y160004D01*
X141715Y178500D02*
G03X141644Y171569I3285J-3500D01*
G01X141715Y178500D02*
X138285D01*
X133594Y170411D02*
G03X138285Y178500I1406J4589D01*
G01X133594Y170411D02*
X134202Y169802D01*
X134700Y168600D02*
G03X134202Y169802I-1700J0D01*
G01X134700Y168600D02*
Y166884D01*
X139300D02*
G03X134700I-2300J-1884D01*
G01X139300D02*
Y168600D01*
X139798Y169802D02*
G03X139300Y168600I1202J-1202D01*
G01X139798Y169802D02*
X141298Y171302D01*
X141644Y171569D02*
G03X141298Y171302I856J-1469D01*
G01X128750Y133175D02*
Y135696D01*
X128250Y136196*
Y133604*
X128679Y133175*
X128750*
X129200Y144484D02*
Y144750D01*
X127500*
X126200Y146050D02*
G03X127500Y144750I1300J0D01*
G01X126200Y146050D02*
Y147293D01*
X126000Y147038D02*
G03X126200Y147293I-916J922D01*
G01X126000Y147038D02*
Y144800D01*
X126950*
X128250Y143500D02*
G03X126950Y144800I-1300J0D01*
G01X128250Y143500D02*
Y139700D01*
X128750*
Y143500*
X129200Y144484D02*
G03X128750Y143500I850J-984D01*
G01X131437Y159059D02*
G03Y158141I2863J-459D01*
G01Y159059D02*
X130142Y160354D01*
X129126*
X127432Y162047D02*
G03X129126Y160354I1694J0D01*
G01X127432Y162047D02*
Y167800D01*
X121504*
X121304Y167600*
X125084*
X126384Y166300D02*
G03X125084Y167600I-1300J0D01*
G01X126384Y166300D02*
Y163700D01*
X125084Y162400D02*
G03X126384Y163700I0J1300D01*
G01X125084Y162400D02*
X123834D01*
Y159340*
X125084*
X126384Y158040D02*
G03X125084Y159340I-1300J0D01*
G01X126384Y158040D02*
Y156617D01*
X127500Y157250D02*
G03X126384Y156617I0J-1300D01*
G01X127500Y157250D02*
X130546D01*
X131437Y158141*
X120800Y171200D02*
X132067D01*
X131715Y178500D02*
G03X132067Y171200I3285J-3500D01*
G01X131715Y178500D02*
X118285D01*
X111715D02*
G03X118285I3285J-3500D01*
G01X111715D02*
X108285D01*
X104600Y170217D02*
G03X108285Y178500I400J4783D01*
G01X104600Y170217D02*
Y166800D01*
X107950*
X109250Y165500D02*
G03X107950Y166800I-1300J0D01*
G01X109250Y165500D02*
Y163400D01*
X109924*
X110916Y163860D02*
G03X109924Y163400I0J-1300D01*
G01X110916Y163860D02*
X114700D01*
Y165100*
X115198Y166302D02*
G03X114700Y165100I1202J-1202D01*
G01X115198Y166302D02*
X118498Y169602D01*
X119598Y170702*
X120800Y171200D02*
G03X119598Y170702I-0J-1700D01*
G01X126200Y153654D02*
Y154773D01*
X126000Y154518D02*
G03X126200Y154773I-916J922D01*
G01X126000Y154518D02*
Y153854D01*
X126200Y153654*
X122200Y119300D02*
Y121846D01*
X120698Y123348*
X120200Y124550D02*
G03X120698Y123348I1700J0D01*
G01X120200Y124550D02*
Y124822D01*
X119894Y124794D02*
G03X120200Y124822I-0J1694D01*
G01X119894Y124794D02*
X115600D01*
Y121318*
X117618Y119300*
X118200*
X122200*
X121750Y133673D02*
Y136528D01*
X121398Y136798D02*
G03X121750Y136528I1202J1202D01*
G01X121398Y136798D02*
X120498Y137698D01*
X120398Y137798*
X119900Y139000D02*
G03X120398Y137798I1700J0D01*
G01X119900Y139000D02*
Y142396D01*
X118396Y143900*
X117630*
X116904*
X115500Y142496*
Y136646*
X119894*
X121587Y134953D02*
G03X119894Y136646I-1693J-0D01*
G01X121587Y134953D02*
Y134165D01*
X121522Y133699D02*
G03X121587Y134165I-1628J466D01*
G01X121750Y133673D02*
G03X121522Y133699I-300J-1673D01*
G01X122600Y144720D02*
Y146660D01*
X120444*
X122451Y144654*
X122600Y144720D02*
G03X122451Y144654I450J-1220D01*
G01X119184Y151860D02*
X123186D01*
X123098Y151948*
X122600Y153150D02*
G03X123098Y151948I1700J0D01*
G01X122600Y153150D02*
Y154140D01*
X119184*
X117884Y155440D02*
G03X119184Y154140I1300J0D01*
G01X117884Y155440D02*
Y158040D01*
X119184Y159340D02*
G03X117884Y158040I0J-1300D01*
G01X119184Y159340D02*
X120434D01*
Y162400*
X119184*
X118100Y162982D02*
G03X119184Y162400I1084J718D01*
G01X118100Y162982D02*
Y162763D01*
X118116Y162560D02*
G03X118100Y162763I-1300J0D01*
G01X118116Y162560D02*
Y159960D01*
X116816Y158660D02*
G03X118116Y159960I0J1300D01*
G01X116816Y158660D02*
X110916D01*
X109616Y159960D02*
G03X110916Y158660I1300J0D01*
G01X109616Y159960D02*
Y160000D01*
X108450*
X109250Y158800D02*
G03X108450Y160000I-1300J0D01*
G01X109250Y158800D02*
Y156653D01*
X110407Y155496*
X110916Y155600D02*
G03X110407Y155496I0J-1300D01*
G01X110916Y155600D02*
X116816D01*
X118116Y154300D02*
G03X116816Y155600I-1300J0D01*
G01X118116Y154300D02*
Y151700D01*
X116816Y150400D02*
G03X118116Y151700I0J1300D01*
G01X116816Y150400D02*
X115700D01*
Y150166*
X116082Y147296D02*
G03X115700Y150166I-2682J1104D01*
G01X116200Y147300D02*
G03X116082Y147296I0J-1700D01*
G01X116200Y147300D02*
X117630D01*
X118064*
X117884Y147960D02*
G03X118064Y147300I1300J0D01*
G01X117884Y147960D02*
Y150560D01*
X119184Y151860D02*
G03X117884Y150560I0J-1300D01*
G01X133396Y124250D02*
X133896Y124750D01*
X130200*
X129000Y125550D02*
G03X130200Y124750I1200J500D01*
G01X127800D02*
G03X129000Y125550I0J1300D01*
G01X127800Y124750D02*
X124104D01*
X124604Y124250*
X127800*
X129000Y123450D02*
G03X127800Y124250I-1200J-500D01*
G01X130200D02*
G03X129000Y123450I0J-1300D01*
G01X130200Y124250D02*
X133396D01*
X138285Y101500D02*
X141715D01*
X141514Y108300D02*
G03X141715Y101500I3486J-3300D01*
G01X141514Y108300D02*
X139000D01*
X138377Y108411D02*
G03X139000Y108300I623J1689D01*
G01X138285Y101500D02*
G03X138377Y108411I-3285J3500D01*
G01X137508Y109092D02*
G03X131715Y101500I-2508J-4092D01*
G01X137200Y110100D02*
G03X137508Y109092I1800J0D01*
G01X137200Y110100D02*
Y111882D01*
X135182Y113900*
X118200*
X117558*
X113842Y115439D02*
G03X117558Y113900I2658J1161D01*
G01X113842Y115439D02*
X110991Y118291D01*
X110200Y120200D02*
G03X110991Y118291I2700J0D01*
G01X110200Y120200D02*
Y125982D01*
X112100Y128561D02*
G03X110200Y125982I800J-2579D01*
G01X112100Y128561D02*
Y143200D01*
X112598Y144402D02*
G03X112100Y143200I1202J-1202D01*
G01X112598Y144402D02*
X112648Y144452D01*
X113713Y145517*
X111100Y150166D02*
G03X113713Y145517I2300J-1766D01*
G01X111100Y150166D02*
Y150400D01*
X110916*
X109932Y150850D02*
G03X110916Y150400I984J850D01*
G01X109932Y150850D02*
X109500D01*
X107874Y151524D02*
G03X109500Y150850I1626J1626D01*
G01X107874Y151524D02*
X106197Y153200D01*
X104050*
X102750Y154500D02*
G03X104050Y153200I1300J0D01*
G01X102750Y154500D02*
Y156647D01*
X101500Y157897*
Y108285*
X108285Y101500D02*
G03X101500Y108285I-3285J3500D01*
G01X108285Y101500D02*
X111715D01*
X118285D02*
G03X111715I-3285J3500D01*
G01X118285D02*
X121715D01*
X128285D02*
G03X121715I-3285J3500D01*
G01X128285D02*
X131715D01*
X162287Y108960D02*
G03X161715Y101500I2713J-3960D01*
G01X162287Y108960D02*
X161167D01*
X160474Y108760D02*
G03X161167Y108960I0J1300D01*
G01X160474Y108760D02*
X157984D01*
X158285Y101500D02*
G03X157984Y108760I-3285J3500D01*
G01X158285Y101500D02*
X161715D01*
X190939Y142879D02*
G03X190933Y142868I1511J-779D01*
G01X190929Y142872D02*
G03X190939Y142879I-1729J2328D01*
G01X190933Y142868D02*
G03X190929Y142872I-2033J-2068D01*
G01X190967Y150568D02*
X191157Y150757D01*
X190357Y151558*
X190198Y151698D02*
G03X190357Y151558I1202J1202D01*
G01X190198Y151698D02*
X188759Y153137D01*
X188097Y153107D02*
G03X188759Y153137I203J2893D01*
G01X188097Y153107D02*
X190811Y150393D01*
X190967Y150568D02*
G03X190811Y150393I1476J-1476D01*
G01X188285Y101500D02*
X191715D01*
X190624Y106972D02*
G03X191715Y101500I4376J-1972D01*
G01X190624Y106972D02*
X189596Y108000D01*
X188747*
X188285Y101500D02*
G03X188747Y108000I-3285J3500D01*
G01X197824Y142642D02*
G03X197214Y142447I576J-2842D01*
G01X197598Y143528D02*
G03X197824Y142642I1700J-38D01*
G01X196868Y143174D02*
G03X197598Y143528I-527J2020D01*
G01X197214Y142447D02*
G03X196868Y143174I-1664J-347D01*
G01X192300Y143793D02*
Y144096D01*
X191989Y144406*
X191600Y143572D02*
G03X191989Y144406I-2400J1628D01*
G01X192300Y143793D02*
G03X191600Y143572I150J-1693D01*
G01X198285Y101500D02*
X201715D01*
X200624Y106972D02*
G03X201715Y101500I4376J-1972D01*
G01X200624Y106972D02*
X194242Y113354D01*
X192950Y112200D02*
G03X194242Y113354I0J1300D01*
G01X192950Y112200D02*
X189050D01*
X187750Y113500D02*
G03X189050Y112200I1300J0D01*
G01X187750Y113500D02*
Y113950D01*
X186250*
Y113500*
X184950Y112200D02*
G03X186250Y113500I0J1300D01*
G01X184950Y112200D02*
X183104D01*
X183904Y111400*
X186400*
X190300*
X191502Y110902D02*
G03X190300Y111400I-1202J-1202D01*
G01X191502Y110902D02*
X193028Y109376D01*
X198285Y101500D02*
G03X193028Y109376I-3285J3500D01*
G01X209800Y119950D02*
Y116050D01*
X208500Y114750D02*
G03X209800Y116050I0J1300D01*
G01X208500Y114750D02*
X204200D01*
X202900Y116050D02*
G03X204200Y114750I1300J0D01*
G01X202900Y116050D02*
Y118846D01*
X199392Y122354*
X197126*
X195432Y124047D02*
G03X197126Y122354I1694J0D01*
G01X195432Y124047D02*
Y129953D01*
X197126Y131646D02*
G03X195432Y129953I-0J-1693D01*
G01X197126Y131646D02*
X199488D01*
X201182Y129953D02*
G03X199488Y131646I-1694J-0D01*
G01X201182Y129953D02*
Y125368D01*
X201252Y125302D02*
G03X201182Y125368I-1202J-1202D01*
G01X201252Y125302D02*
X205304Y121250D01*
X208500*
X209800Y119950D02*
G03X208500Y121250I-1300J0D01*
G01X207973Y127000D02*
G03X207973I-2973J0D01*
G01X198898Y102199D02*
X201102D01*
X199407Y103099D02*
X200593D01*
X199489Y106699D02*
X200511D01*
X199694Y103999D02*
X200306D01*
X199733Y105799D02*
X200267D01*
X199799Y104899D02*
X200201D01*
X199036Y107599D02*
X199997D01*
X198286Y108499D02*
X199097D01*
X196921Y109399D02*
X198197D01*
X192106Y110299D02*
X197297D01*
X191103Y111199D02*
X196397D01*
X183206Y112099D02*
X195497D01*
X194149Y112999D02*
X194597D01*
X193006Y109399D02*
X193079D01*
X186149Y112999D02*
X187851D01*
X186250Y113899D02*
X187750D01*
X191618Y143599D02*
X191647D01*
X197141Y142699D02*
X197793D01*
X188898Y102199D02*
X191102D01*
X189407Y103099D02*
X190593D01*
X189489Y106699D02*
X190511D01*
X189694Y103999D02*
X190306D01*
X189733Y105799D02*
X190267D01*
X189799Y104899D02*
X190201D01*
X189036Y107599D02*
X189997D01*
X190406Y150799D02*
X191116D01*
X189506Y151699D02*
X190197D01*
X188606Y152599D02*
X189297D01*
X158286Y108499D02*
X161714D01*
X158898Y102199D02*
X161102D01*
X159036Y107599D02*
X160964D01*
X159407Y103099D02*
X160593D01*
X159489Y106699D02*
X160511D01*
X159694Y103999D02*
X160306D01*
X159733Y105799D02*
X160267D01*
X159799Y104899D02*
X160201D01*
X136921Y109399D02*
X137342D01*
X101500Y111199D02*
X137200D01*
X101500Y110299D02*
X137200D01*
X101500Y112099D02*
X136983D01*
X101500Y112999D02*
X136083D01*
X117555Y113899D02*
X135183D01*
X126921Y109399D02*
X133079D01*
X128286Y108499D02*
X131714D01*
X128898Y102199D02*
X131102D01*
X129036Y107599D02*
X130964D01*
X129407Y103099D02*
X130593D01*
X129489Y106699D02*
X130511D01*
X129694Y103999D02*
X130306D01*
X129733Y105799D02*
X130267D01*
X129799Y104899D02*
X130201D01*
X116921Y109399D02*
X123079D01*
X118286Y108499D02*
X121714D01*
X118898Y102199D02*
X121102D01*
X119036Y107599D02*
X120964D01*
X119407Y103099D02*
X120593D01*
X119489Y106699D02*
X120511D01*
X119694Y103999D02*
X120306D01*
X119733Y105799D02*
X120267D01*
X119799Y104899D02*
X120201D01*
X101500Y113899D02*
X115445D01*
X101500Y114799D02*
X114227D01*
X101500Y145399D02*
X113594D01*
X101500Y115699D02*
X113583D01*
X106921Y109399D02*
X113079D01*
X101500Y144499D02*
X112694D01*
X101500Y116599D02*
X112683D01*
X101500Y143599D02*
X112147D01*
X101500Y142699D02*
X112100D01*
X101500Y141799D02*
X112100D01*
X101500Y140899D02*
X112100D01*
X101500Y139999D02*
X112100D01*
X101500Y139099D02*
X112100D01*
X101500Y138199D02*
X112100D01*
X101500Y137299D02*
X112100D01*
X101500Y136399D02*
X112100D01*
X101500Y135499D02*
X112100D01*
X101500Y134599D02*
X112100D01*
X101500Y133699D02*
X112100D01*
X101500Y132799D02*
X112100D01*
X101500Y131899D02*
X112100D01*
X101500Y130999D02*
X112100D01*
X101500Y130099D02*
X112100D01*
X101500Y129199D02*
X112100D01*
X101500Y117499D02*
X111783D01*
X108286Y108499D02*
X111714D01*
X101500Y128299D02*
X111513D01*
X101500Y146299D02*
X111401D01*
X108898Y102199D02*
X111102D01*
X109036Y107599D02*
X110964D01*
X101500Y149899D02*
X110917D01*
X101500Y118399D02*
X110889D01*
X101500Y147199D02*
X110760D01*
X101500Y127399D02*
X110602D01*
X109407Y103099D02*
X110593D01*
X101500Y148999D02*
X110562D01*
X101500Y148099D02*
X110516D01*
X109489Y106699D02*
X110511D01*
X101500Y119299D02*
X110355D01*
X109694Y103999D02*
X110306D01*
X109733Y105799D02*
X110267D01*
X101500Y126499D02*
X110250D01*
X109799Y104899D02*
X110201D01*
X101500Y125599D02*
X110200D01*
X101500Y124699D02*
X110200D01*
X101500Y123799D02*
X110200D01*
X101500Y122899D02*
X110200D01*
X101500Y121999D02*
X110200D01*
X101500Y121099D02*
X110200D01*
X101500Y120199D02*
X110200D01*
X101500Y150799D02*
X109979D01*
X101500Y151699D02*
X107699D01*
X101500Y152599D02*
X106799D01*
X101500Y153499D02*
X103221D01*
X101500Y109399D02*
X103079D01*
X101500Y154399D02*
X102754D01*
X101500Y156199D02*
X102750D01*
X101500Y155299D02*
X102750D01*
X101500Y157099D02*
X102299D01*
X101500Y108499D02*
X101714D01*
X138898Y102199D02*
X141102D01*
X139036Y107599D02*
X140964D01*
X139407Y103099D02*
X140593D01*
X139489Y106699D02*
X140511D01*
X139694Y103999D02*
X140306D01*
X139733Y105799D02*
X140267D01*
X139799Y104899D02*
X140201D01*
X124156Y124699D02*
X133844D01*
X128785Y123799D02*
X129215D01*
X118116Y152599D02*
X122692D01*
X118116Y153499D02*
X122600D01*
X118116Y161599D02*
X120434D01*
X118116Y160699D02*
X120434D01*
X118106Y159799D02*
X120434D01*
X118116Y162499D02*
X118687D01*
X118116Y151699D02*
X118557D01*
X118112Y154399D02*
X118406D01*
X117567Y158899D02*
X118208D01*
X117753Y150799D02*
X117906D01*
X117648Y155299D02*
X117892D01*
X109250Y157999D02*
X117884D01*
X109250Y157099D02*
X117884D01*
X109704Y156199D02*
X117884D01*
X115883Y149899D02*
X117884D01*
X116238Y148999D02*
X117884D01*
X116284Y148099D02*
X117884D01*
X109246Y158899D02*
X110165D01*
X108782Y159799D02*
X109626D01*
X120806Y146299D02*
X122600D01*
X121706Y145399D02*
X122600D01*
X120776Y136399D02*
X121750D01*
X121497Y135499D02*
X121750D01*
X121587Y134599D02*
X121750D01*
X121522Y133699D02*
X121750D01*
X115500Y137299D02*
X120897D01*
X115500Y138199D02*
X120101D01*
X115500Y141799D02*
X119900D01*
X115500Y140899D02*
X119900D01*
X115500Y139999D02*
X119900D01*
X115500Y139099D02*
X119900D01*
X115703Y142699D02*
X119597D01*
X116603Y143599D02*
X118697D01*
X115820Y121099D02*
X122200D01*
X116720Y120199D02*
X122200D01*
X115600Y121999D02*
X122047D01*
X115600Y122899D02*
X121147D01*
X115600Y123799D02*
X120375D01*
X115600Y124699D02*
X120200D01*
X126000Y154399D02*
X126200D01*
X118283Y171499D02*
X131717D01*
X118900Y177799D02*
X131100D01*
X119034Y172399D02*
X130966D01*
X119409Y176899D02*
X130591D01*
X119488Y173299D02*
X130512D01*
X119695Y175999D02*
X130305D01*
X119733Y174199D02*
X130267D01*
X119799Y175099D02*
X130201D01*
X116915Y170599D02*
X119494D01*
X104600Y169699D02*
X118594D01*
X104600Y168799D02*
X117694D01*
X104600Y167899D02*
X116794D01*
X104600Y166999D02*
X115894D01*
X109104Y166099D02*
X115024D01*
X109250Y165199D02*
X114703D01*
X109250Y164299D02*
X114700D01*
X106915Y170599D02*
X113085D01*
X108283Y171499D02*
X111717D01*
X108900Y177799D02*
X111100D01*
X109034Y172399D02*
X110966D01*
X109409Y176899D02*
X110591D01*
X109488Y173299D02*
X110512D01*
X109695Y175999D02*
X110305D01*
X109733Y174199D02*
X110267D01*
X109799Y175099D02*
X110201D01*
X126060Y158899D02*
X131415D01*
X126384Y157999D02*
X131294D01*
X123834Y159799D02*
X130697D01*
X123834Y160699D02*
X128101D01*
X123834Y161599D02*
X127493D01*
X126180Y166999D02*
X127432D01*
X126384Y166099D02*
X127432D01*
X126384Y165199D02*
X127432D01*
X126384Y164299D02*
X127432D01*
X126349Y163399D02*
X127432D01*
X125581Y162499D02*
X127432D01*
X126384Y157099D02*
X126891D01*
X127782Y144499D02*
X129200D01*
X128246Y143599D02*
X128754D01*
X128250Y142699D02*
X128750D01*
X128250Y141799D02*
X128750D01*
X128250Y140899D02*
X128750D01*
X128250Y139999D02*
X128750D01*
X126000Y145399D02*
X126375D01*
X126138Y147199D02*
X126200D01*
X126000Y146299D02*
X126200D01*
X128250Y135499D02*
X128750D01*
X128250Y134599D02*
X128750D01*
X128250Y133699D02*
X128750D01*
X138283Y171499D02*
X141534D01*
X138900Y177799D02*
X141100D01*
X139034Y172399D02*
X140966D01*
X136915Y170599D02*
X140594D01*
X139409Y176899D02*
X140591D01*
X139488Y173299D02*
X140512D01*
X139695Y175999D02*
X140305D01*
X139733Y174199D02*
X140267D01*
X139799Y175099D02*
X140201D01*
X134297Y169699D02*
X139703D01*
X134688Y168799D02*
X139312D01*
X137662Y167899D02*
X139300D01*
X139201Y166999D02*
X139300D01*
X134700Y167899D02*
X136338D01*
X134700Y166999D02*
X134799D01*
X138607Y162499D02*
X139300D01*
X137706Y161599D02*
X139300D01*
X138606Y160699D02*
X139300D01*
X143606Y159799D02*
X144202D01*
X146568Y163399D02*
X147763D01*
X146568Y162499D02*
X146863D01*
X144688Y147199D02*
X144845D01*
X144250Y140899D02*
X146943D01*
X144306Y139999D02*
X146043D01*
X144250Y141799D02*
X144674D01*
X148900Y177799D02*
X151100D01*
X149409Y176899D02*
X150591D01*
X149488Y173299D02*
X150512D01*
X149695Y175999D02*
X150305D01*
X149733Y174199D02*
X150267D01*
X149799Y175099D02*
X150201D01*
X149034Y172399D02*
X149994D01*
X152863Y169699D02*
X153137D01*
X153003Y170599D02*
X153085D01*
X150695Y157099D02*
X152286D01*
X149795Y156199D02*
X151429D01*
X148895Y155299D02*
X150457D01*
X149006Y154399D02*
X149632D01*
X150015Y144499D02*
X150628D01*
X149137Y143599D02*
X150628D01*
X148781Y142699D02*
X150628D01*
X149683Y141799D02*
X150628D01*
X150549Y140899D02*
X150628D01*
X150420Y139099D02*
X150628D01*
X149532Y138199D02*
X149810D01*
X148632Y137299D02*
X148910D01*
X147732Y136399D02*
X148010D01*
X135250Y135499D02*
X147215D01*
X135250Y134599D02*
X147047D01*
X145295Y151699D02*
X146707D01*
X144395Y150799D02*
X145975D01*
X135250Y133699D02*
X145894D01*
X143495Y149899D02*
X145056D01*
X135250Y132799D02*
X144994D01*
X143187Y148999D02*
X144355D01*
X144250Y148099D02*
X144292D01*
X135103Y131899D02*
X144094D01*
X135250Y136399D02*
X143097D01*
X135151Y137299D02*
X142197D01*
X133100Y149899D02*
X141485D01*
X133100Y148999D02*
X140613D01*
X132785Y150799D02*
X140585D01*
X133052Y151699D02*
X139685D01*
X133100Y148099D02*
X139550D01*
X133403Y155299D02*
X139197D01*
X133100Y147199D02*
X139112D01*
X133100Y146299D02*
X138928D01*
X133100Y154399D02*
X138803D01*
X133100Y152599D02*
X138785D01*
X132925Y145399D02*
X138702D01*
X134779Y138199D02*
X138488D01*
X134782Y144499D02*
X138484D01*
X133100Y153499D02*
X138432D01*
X135926Y156199D02*
X138297D01*
X135246Y139099D02*
X137826D01*
X135246Y143599D02*
X137825D01*
X135250Y142699D02*
X137750D01*
X135250Y141799D02*
X137750D01*
X135250Y140899D02*
X137750D01*
X135250Y139999D02*
X137750D01*
X136781Y157099D02*
X137397D01*
X135268Y130999D02*
X137007D01*
X135791Y130099D02*
X136750D01*
X143250Y127399D02*
X144011D01*
X158900Y177799D02*
X161100D01*
X159034Y172399D02*
X160966D01*
X159409Y176899D02*
X160591D01*
X159488Y173299D02*
X160512D01*
X159695Y175999D02*
X160305D01*
X159733Y174199D02*
X160267D01*
X159799Y175099D02*
X160201D01*
X158283Y171499D02*
X158809D01*
X156915Y170599D02*
X157538D01*
X168900Y177799D02*
X171100D01*
X169034Y172399D02*
X170966D01*
X169409Y176899D02*
X170591D01*
X169488Y173299D02*
X170512D01*
X169695Y175999D02*
X170305D01*
X169733Y174199D02*
X170267D01*
X169799Y175099D02*
X170201D01*
X162601Y155299D02*
X170399D01*
X163806Y154399D02*
X169816D01*
X164706Y153499D02*
X169607D01*
X165606Y152599D02*
X169240D01*
X161662Y156199D02*
X168029D01*
X166506Y151699D02*
X167808D01*
X162615Y157099D02*
X166897D01*
X163238Y157999D02*
X165997D01*
X163230Y158899D02*
X165126D01*
X162590Y159799D02*
X162868D01*
X161690Y160699D02*
X161968D01*
X160790Y161599D02*
X161068D01*
X159890Y162499D02*
X160168D01*
X158749Y163399D02*
X159606D01*
X175216Y164299D02*
X175300D01*
X188900Y177799D02*
X191100D01*
X189409Y176899D02*
X190591D01*
X189488Y173299D02*
X190512D01*
X189695Y175999D02*
X190305D01*
X189733Y174199D02*
X190267D01*
X189799Y175099D02*
X190201D01*
X178257Y161599D02*
X190225D01*
X188388Y158899D02*
X189744D01*
X178143Y160699D02*
X189743D01*
X179037Y159799D02*
X189600D01*
X178682Y162499D02*
X189464D01*
X178700Y163399D02*
X188547D01*
X179833Y158899D02*
X188212D01*
X178700Y164299D02*
X187647D01*
X178700Y165199D02*
X186747D01*
X180843Y157999D02*
X186199D01*
X178700Y166099D02*
X185847D01*
X181714Y157099D02*
X185616D01*
X178700Y169699D02*
X185600D01*
X182783Y155299D02*
X185486D01*
X182571Y156199D02*
X185407D01*
X178700Y166999D02*
X185056D01*
X178700Y168799D02*
X184938D01*
X178700Y167899D02*
X184792D01*
X178700Y170599D02*
X183085D01*
X182425Y154399D02*
X182789D01*
X181535Y153499D02*
X181814D01*
X178700Y171499D02*
X181717D01*
X178900Y177799D02*
X181100D01*
X179034Y172399D02*
X180966D01*
X180635Y152599D02*
X180914D01*
X179409Y176899D02*
X180591D01*
X179488Y173299D02*
X180512D01*
X179695Y175999D02*
X180305D01*
X179733Y174199D02*
X180267D01*
X179799Y175099D02*
X180201D01*
X179735Y151699D02*
X180014D01*
X179062Y150799D02*
X179223D01*
X179001Y139099D02*
X181487D01*
X176406Y139999D02*
X181467D01*
X179641Y138199D02*
X180720D01*
X175506Y140899D02*
X180235D01*
X177668Y141799D02*
X179461D01*
X178618Y142699D02*
X179144D01*
X179014Y143599D02*
X179128D01*
X174606Y141799D02*
X174732D01*
X169872Y133699D02*
X176374D01*
X169857Y134599D02*
X175374D01*
X169592Y132799D02*
X175285D01*
X174293Y122899D02*
X174900D01*
X174472Y121999D02*
X174900D01*
X174698Y121099D02*
X174900D01*
X174556Y120199D02*
X174900D01*
X173951Y119299D02*
X174900D01*
X173051Y118399D02*
X174900D01*
X172148Y117499D02*
X174900D01*
X168738Y116599D02*
X174900D01*
X169094Y115699D02*
X174900D01*
X169100Y114799D02*
X174900D01*
X169100Y113899D02*
X174900D01*
X169100Y112999D02*
X174900D01*
X169063Y112099D02*
X174900D01*
X168551Y111199D02*
X174900D01*
X165201Y110299D02*
X174900D01*
X169540Y135499D02*
X174519D01*
X168888Y131899D02*
X174383D01*
X168768Y136399D02*
X174163D01*
X166798Y137299D02*
X174115D01*
X173535Y123799D02*
X173813D01*
X168891Y130999D02*
X173625D01*
X166688Y138199D02*
X173397D01*
X166921Y109399D02*
X173079D01*
X172635Y124699D02*
X172913D01*
X169593Y130099D02*
X172583D01*
X166250Y139099D02*
X172497D01*
X171735Y125599D02*
X172013D01*
X168286Y108499D02*
X171714D01*
X169872Y129199D02*
X171693D01*
X165187Y139999D02*
X171605D01*
X160887Y140899D02*
X171212D01*
X154028Y144499D02*
X171200D01*
X154028Y143599D02*
X171200D01*
X154028Y142699D02*
X171200D01*
X154028Y141799D02*
X171200D01*
X170796Y126499D02*
X171115D01*
X168898Y102199D02*
X171102D01*
X169036Y107599D02*
X170964D01*
X169856Y128299D02*
X170882D01*
X169539Y127399D02*
X170709D01*
X169407Y103099D02*
X170593D01*
X169489Y106699D02*
X170511D01*
X169694Y103999D02*
X170306D01*
X169733Y105799D02*
X170267D01*
X169799Y104899D02*
X170201D01*
X166960Y121999D02*
X170045D01*
X164855Y122899D02*
X169145D01*
X168765Y126499D02*
X169022D01*
X165740Y123799D02*
X168260D01*
X154028Y145399D02*
X168229D01*
X167314Y125599D02*
X168146D01*
X166414Y124699D02*
X167919D01*
X154028Y146299D02*
X167097D01*
X154903Y147199D02*
X166197D01*
X163955Y121999D02*
X165440D01*
X159599Y148099D02*
X165297D01*
X160240Y148999D02*
X164397D01*
X163055Y121099D02*
X164008D01*
X161773Y117499D02*
X163851D01*
X160484Y149899D02*
X163497D01*
X161748Y120199D02*
X163477D01*
X161774Y118399D02*
X163413D01*
X161774Y119299D02*
X163302D01*
X161950Y139999D02*
X162613D01*
X162226Y150799D02*
X162597D01*
X161371Y116599D02*
X162562D01*
X145111Y115699D02*
X162206D01*
X144500Y114799D02*
X162200D01*
X144600Y113899D02*
X162200D01*
X135953Y121999D02*
X159171D01*
X136853Y122899D02*
X158357D01*
X156160Y140899D02*
X158313D01*
X145465Y123799D02*
X157359D01*
X148823Y124699D02*
X156500D01*
X149740Y125599D02*
X155621D01*
X150640Y126499D02*
X154659D01*
X154028Y140899D02*
X154640D01*
X151615Y121099D02*
X154385D01*
X151923Y116599D02*
X154077D01*
X151449Y127399D02*
X153856D01*
X152209Y112999D02*
X153791D01*
X152300Y120199D02*
X153700D01*
X152325Y117499D02*
X153675D01*
X152326Y119299D02*
X153674D01*
X152326Y118399D02*
X153674D01*
X152326Y112099D02*
X153674D01*
X152326Y111199D02*
X153674D01*
X152326Y110299D02*
X153674D01*
X152145Y109399D02*
X153079D01*
X151663Y128299D02*
X152892D01*
X151427Y129199D02*
X151959D01*
X148286Y108499D02*
X151714D01*
X148898Y102199D02*
X151102D01*
X149036Y107599D02*
X150964D01*
X149407Y103099D02*
X150593D01*
X149489Y106699D02*
X150511D01*
X149694Y103999D02*
X150306D01*
X149733Y105799D02*
X150267D01*
X149799Y104899D02*
X150201D01*
X146365Y124699D02*
X146722D01*
X135800Y121099D02*
X144937D01*
X135800Y120199D02*
X143106D01*
X136385Y119299D02*
X142206D01*
X138320Y118399D02*
X141306D01*
X139220Y117499D02*
X140422D01*
X178898Y102199D02*
X181102D01*
X179407Y103099D02*
X180593D01*
X179489Y106699D02*
X180511D01*
X179694Y103999D02*
X180306D01*
X179733Y105799D02*
X180267D01*
X179799Y104899D02*
X180201D01*
X179036Y107599D02*
X179997D01*
X178300Y108499D02*
X179097D01*
X186250Y117499D02*
X187750D01*
X186104Y118399D02*
X186797D01*
X185887Y119299D02*
X185897D01*
X196915Y170599D02*
X196982D01*
X193719Y169699D02*
X196082D01*
X194619Y168799D02*
X195294D01*
X192819Y170599D02*
X193085D01*
X218900Y177799D02*
X221100D01*
X219409Y176899D02*
X220591D01*
X219488Y173299D02*
X220512D01*
X219695Y175999D02*
X220305D01*
X219733Y174199D02*
X220267D01*
X219799Y175099D02*
X220201D01*
X219034Y172399D02*
X219994D01*
X238283Y171499D02*
X238500D01*
X236915Y170599D02*
X238500D01*
X222103Y169699D02*
X238500D01*
X221098Y168799D02*
X238500D01*
X214387Y167899D02*
X238500D01*
X213949Y166999D02*
X238500D01*
X212882Y166099D02*
X238500D01*
X201340Y165199D02*
X238500D01*
X193899Y164299D02*
X238500D01*
X193522Y163399D02*
X238500D01*
X194130Y162499D02*
X238500D01*
X194775Y161599D02*
X238500D01*
X195257Y160699D02*
X238500D01*
X195400Y159799D02*
X238500D01*
X195256Y158899D02*
X238500D01*
X194773Y157999D02*
X238500D01*
X193555Y157099D02*
X238500D01*
X191193Y156199D02*
X238500D01*
X191406Y155299D02*
X238500D01*
X192306Y154399D02*
X238500D01*
X196540Y153499D02*
X238500D01*
X197456Y152599D02*
X238500D01*
X198356Y151699D02*
X238500D01*
X199256Y150799D02*
X238500D01*
X200156Y149899D02*
X238500D01*
X200945Y148999D02*
X238500D01*
X201208Y148099D02*
X238500D01*
X202942Y147199D02*
X238500D01*
X203843Y146299D02*
X238500D01*
X204743Y145399D02*
X238500D01*
X205502Y144499D02*
X238500D01*
X205656Y143599D02*
X238500D01*
X205283Y142699D02*
X238500D01*
X204395Y141799D02*
X238500D01*
X203495Y140899D02*
X238500D01*
X219906Y139999D02*
X238500D01*
X237498Y139099D02*
X238500D01*
X226915Y170599D02*
X233085D01*
X220806Y139099D02*
X232502D01*
X228283Y171499D02*
X231717D01*
X221706Y138199D02*
X231421D01*
X228900Y177799D02*
X231100D01*
X229034Y172399D02*
X230966D01*
X222606Y137299D02*
X230786D01*
X229409Y176899D02*
X230591D01*
X229488Y173299D02*
X230512D01*
X229695Y175999D02*
X230305D01*
X229733Y174199D02*
X230267D01*
X229799Y175099D02*
X230201D01*
X223003Y170599D02*
X223085D01*
X208900Y177799D02*
X211100D01*
X209034Y172399D02*
X210966D01*
X208283Y171499D02*
X210840D01*
X209409Y176899D02*
X210591D01*
X209488Y173299D02*
X210512D01*
X202240Y166099D02*
X210318D01*
X209695Y175999D02*
X210305D01*
X209733Y174199D02*
X210267D01*
X209799Y175099D02*
X210201D01*
X206915Y170599D02*
X209408D01*
X203140Y166999D02*
X209251D01*
X202898Y169699D02*
X208877D01*
X203633Y167899D02*
X208813D01*
X203566Y168799D02*
X208702D01*
X202586Y139999D02*
X207194D01*
X201998Y170599D02*
X203085D01*
X201098Y171499D02*
X201717D01*
X198900Y177799D02*
X201100D01*
X199600Y172399D02*
X200966D01*
X199409Y176899D02*
X200591D01*
X199488Y173299D02*
X200512D01*
X199695Y175999D02*
X200305D01*
X199733Y174199D02*
X200267D01*
X199799Y175099D02*
X200201D01*
X199034Y172399D02*
X199379D01*
X194799Y165199D02*
X198205D01*
X193224Y153499D02*
X193915D01*
X190984Y157099D02*
X191445D01*
X214561Y130099D02*
X235477D01*
X227326Y129199D02*
X234577D01*
X228487Y128299D02*
X233677D01*
X229158Y127399D02*
X232777D01*
X214206Y130999D02*
X232349D01*
X229560Y126499D02*
X231877D01*
X213050Y131899D02*
X231336D01*
X229763Y125599D02*
X230977D01*
X213853Y132799D02*
X230735D01*
X229791Y124699D02*
X230077D01*
X209776Y120199D02*
X225577D01*
X217136Y119299D02*
X224677D01*
X218390Y118399D02*
X223777D01*
X219098Y117499D02*
X222877D01*
X214568Y129199D02*
X222674D01*
X209109Y121099D02*
X222204D01*
X219526Y116599D02*
X221977D01*
X214568Y128299D02*
X221513D01*
X217865Y133699D02*
X221406D01*
X204556Y121999D02*
X221254D01*
X219749Y115699D02*
X221077D01*
X214568Y127399D02*
X220842D01*
X214119Y122899D02*
X220684D01*
X218639Y134599D02*
X220497D01*
X214568Y126499D02*
X220440D01*
X214549Y123799D02*
X220353D01*
X214568Y125599D02*
X220237D01*
X214568Y124699D02*
X220209D01*
X219796Y114799D02*
X220177D01*
X218956Y135499D02*
X219597D01*
X206921Y109399D02*
X214777D01*
X202106Y110299D02*
X214032D01*
X208286Y108499D02*
X213877D01*
X209036Y107599D02*
X212977D01*
X209800Y119299D02*
X212864D01*
X209489Y106699D02*
X212077D01*
X201206Y111199D02*
X212069D01*
X209800Y118399D02*
X211610D01*
X209733Y105799D02*
X211177D01*
X200306Y112099D02*
X211176D01*
X209800Y117499D02*
X210902D01*
X199406Y112999D02*
X210637D01*
X209800Y116599D02*
X210474D01*
X198506Y113899D02*
X210328D01*
X209799Y104899D02*
X210277D01*
X209752Y115699D02*
X210251D01*
X208853Y114799D02*
X210204D01*
X208703Y131899D02*
X209650D01*
X203656Y122899D02*
X209267D01*
X200820Y130999D02*
X209180D01*
X202756Y123799D02*
X208836D01*
X201176Y130099D02*
X208824D01*
X207001Y129199D02*
X208818D01*
X207675Y128299D02*
X208818D01*
X207946Y127399D02*
X208818D01*
X207931Y126499D02*
X208818D01*
X207622Y125599D02*
X208818D01*
X206883Y124699D02*
X208818D01*
X197606Y114799D02*
X203847D01*
X201856Y124699D02*
X203117D01*
X203006Y109399D02*
X203079D01*
X201182Y129199D02*
X202999D01*
X196900Y115699D02*
X202948D01*
X196405Y118399D02*
X202900D01*
X196874Y117499D02*
X202900D01*
X196900Y116599D02*
X202900D01*
X195506Y119299D02*
X202447D01*
X201182Y125599D02*
X202378D01*
X201182Y128299D02*
X202325D01*
X201182Y126499D02*
X202069D01*
X201182Y127399D02*
X202054D01*
X194606Y120199D02*
X201547D01*
X188906Y121099D02*
X200647D01*
X190641Y131899D02*
X199797D01*
X188700Y121999D02*
X199747D01*
X190001Y132799D02*
X198897D01*
X189803Y133699D02*
X197997D01*
X190703Y134599D02*
X197097D01*
X188700Y122899D02*
X195881D01*
X190885Y130999D02*
X195794D01*
X188700Y123799D02*
X195451D01*
X192387Y130099D02*
X195439D01*
X193450Y129199D02*
X195432D01*
X193888Y128299D02*
X195432D01*
X193998Y127399D02*
X195432D01*
X193822Y126499D02*
X195432D01*
X193290Y125599D02*
X195432D01*
X191850Y124699D02*
X195432D01*
X188672D02*
X190350D01*
X188197Y125599D02*
X188910D01*
G54D151*
X148276Y111260D03*
Y115000D03*
Y118740D03*
X157724D03*
Y111260D03*
G54D152*
X118200Y116600D02*
X116500D01*
X112900Y120200*
Y125982*
X140900Y112000D02*
X136300Y116600D01*
X118200*
G54D153*
X117630Y126882D02*
X113900D01*
X113850Y126932*
G74*
X0Y0D02*
M02*
