*
*
G04 PADS9.1 Build Number: 384028 generated Gerber (RS-274-X) file*
G04 PC Version=2.1*
*
%IN "Amp_board_v1.pcb"*%
*
%MOIN*%
*
%FSLAX35Y35*%
*
*
*
*
G04 PC Standard Apertures*
*
*
G04 Thermal Relief Aperture macro.*
%AMTER*
1,1,$1,0,0*
1,0,$1-$2,0,0*
21,0,$3,$4,0,0,45*
21,0,$3,$4,0,0,135*
%
*
*
G04 Annular Aperture macro.*
%AMANN*
1,1,$1,0,0*
1,0,$2,0,0*
%
*
*
G04 Odd Aperture macro.*
%AMODD*
1,1,$1,0,0*
1,0,$1-0.005,0,0*
%
*
*
G04 PC Custom Aperture Macros*
*
*
*
*
*
*
G04 PC Aperture Table*
*
%ADD010C,0.001*%
%ADD011C,0.008*%
%ADD012C,0.00787*%
%ADD025C,0.05*%
%ADD035C,0.03*%
%ADD036C,0.02*%
%ADD037C,0.015*%
%ADD048C,0.07*%
%ADD089R,0.043X0.039*%
%ADD090R,0.048X0.048*%
%ADD096R,0.039X0.043*%
%ADD146C,0.01*%
%ADD147C,0.032*%
%ADD148R,0.02362X0.02362*%
*
*
*
*
G04 PC Circuitry*
G04 Layer Name Amp_board_v1.pcb - circuitry*
%LPD*%
*
*
G04 PC Custom Flashes*
G04 Layer Name Amp_board_v1.pcb - flashes*
%LPD*%
*
*
G04 PC Circuitry*
G04 Layer Name Amp_board_v1.pcb - circuitry*
%LPD*%
*
G54D10*
G54D11*
G01X127550Y129900D02*
X124450D01*
Y133400*
X127550*
Y129900*
X124450Y130400D02*
X127550D01*
X124450Y131200D02*
X127550D01*
X124450Y132000D02*
X127550D01*
X124450Y132800D02*
X127550D01*
X124800Y129900D02*
Y133400D01*
X125600Y129900D02*
Y133400D01*
X126400Y129900D02*
Y133400D01*
X127200Y129900D02*
Y133400D01*
X127550Y136600D02*
X124450D01*
Y140100*
X127550*
Y136600*
X124450Y136800D02*
X127550D01*
X124450Y137600D02*
X127550D01*
X124450Y138400D02*
X127550D01*
X124450Y139200D02*
X127550D01*
X124450Y140000D02*
X127550D01*
X124800Y136600D02*
Y140100D01*
X125600Y136600D02*
Y140100D01*
X126400Y136600D02*
Y140100D01*
X127200Y136600D02*
Y140100D01*
X135550Y102900D02*
X132450D01*
Y106400*
X135550*
Y102900*
X132450Y103200D02*
X135550D01*
X132450Y104000D02*
X135550D01*
X132450Y104800D02*
X135550D01*
X132450Y105600D02*
X135550D01*
X132450Y106400D02*
X135550D01*
X132800Y102900D02*
Y106400D01*
X133600Y102900D02*
Y106400D01*
X134400Y102900D02*
Y106400D01*
X135200Y102900D02*
Y106400D01*
X135550Y109600D02*
X132450D01*
Y113100*
X135550*
Y109600*
X132450D02*
X135550D01*
X132450Y110400D02*
X135550D01*
X132450Y111200D02*
X135550D01*
X132450Y112000D02*
X135550D01*
X132450Y112800D02*
X135550D01*
X132800Y109600D02*
Y113100D01*
X133600Y109600D02*
Y113100D01*
X134400Y109600D02*
Y113100D01*
X135200Y109600D02*
Y113100D01*
X131450Y153100D02*
X134550D01*
Y149600*
X131450*
Y153100*
Y149600D02*
X134550D01*
X131450Y150400D02*
X134550D01*
X131450Y151200D02*
X134550D01*
X131450Y152000D02*
X134550D01*
X131450Y152800D02*
X134550D01*
X132000Y149600D02*
Y153100D01*
X132800Y149600D02*
Y153100D01*
X133600Y149600D02*
Y153100D01*
X134400Y149600D02*
Y153100D01*
X131450Y146400D02*
X134550D01*
Y142900*
X131450*
Y146400*
Y143200D02*
X134550D01*
X131450Y144000D02*
X134550D01*
X131450Y144800D02*
X134550D01*
X131450Y145600D02*
X134550D01*
X131450Y146400D02*
X134550D01*
X132000Y142900D02*
Y146400D01*
X132800Y142900D02*
Y146400D01*
X133600Y142900D02*
Y146400D01*
X134400Y142900D02*
Y146400D01*
X143100Y121550D02*
Y118450D01*
X139600*
Y121550*
X143100*
X139600Y119200D02*
X143100D01*
X139600Y120000D02*
X143100D01*
X139600Y120800D02*
X143100D01*
X140000Y118450D02*
Y121550D01*
X140800Y118450D02*
Y121550D01*
X141600Y118450D02*
Y121550D01*
X142400Y118450D02*
Y121550D01*
X136400D02*
Y118450D01*
X132900*
Y121550*
X136400*
X132900Y119200D02*
X136400D01*
X132900Y120000D02*
X136400D01*
X132900Y120800D02*
X136400D01*
X133600Y118450D02*
Y121550D01*
X134400Y118450D02*
Y121550D01*
X135200Y118450D02*
Y121550D01*
X136000Y118450D02*
Y121550D01*
X110450Y149100D02*
X113550D01*
Y145600*
X110450*
Y149100*
Y145600D02*
X113550D01*
X110450Y146400D02*
X113550D01*
X110450Y147200D02*
X113550D01*
X110450Y148000D02*
X113550D01*
X110450Y148800D02*
X113550D01*
X111200Y145600D02*
Y149100D01*
X112000Y145600D02*
Y149100D01*
X112800Y145600D02*
Y149100D01*
X110450Y142400D02*
X113550D01*
Y138900*
X110450*
Y142400*
Y139200D02*
X113550D01*
X110450Y140000D02*
X113550D01*
X110450Y140800D02*
X113550D01*
X110450Y141600D02*
X113550D01*
X110450Y142400D02*
X113550D01*
X111200Y138900D02*
Y142400D01*
X112000Y138900D02*
Y142400D01*
X112800Y138900D02*
Y142400D01*
X124450Y153100D02*
X127550D01*
Y149600*
X124450*
Y153100*
Y149600D02*
X127550D01*
X124450Y150400D02*
X127550D01*
X124450Y151200D02*
X127550D01*
X124450Y152000D02*
X127550D01*
X124450Y152800D02*
X127550D01*
X124800Y149600D02*
Y153100D01*
X125600Y149600D02*
Y153100D01*
X126400Y149600D02*
Y153100D01*
X127200Y149600D02*
Y153100D01*
X124450Y146400D02*
X127550D01*
Y142900*
X124450*
Y146400*
Y143200D02*
X127550D01*
X124450Y144000D02*
X127550D01*
X124450Y144800D02*
X127550D01*
X124450Y145600D02*
X127550D01*
X124450Y146400D02*
X127550D01*
X124800Y142900D02*
Y146400D01*
X125600Y142900D02*
Y146400D01*
X126400Y142900D02*
Y146400D01*
X127200Y142900D02*
Y146400D01*
X142550Y102900D02*
X139450D01*
Y106400*
X142550*
Y102900*
X139450Y103200D02*
X142550D01*
X139450Y104000D02*
X142550D01*
X139450Y104800D02*
X142550D01*
X139450Y105600D02*
X142550D01*
X139450Y106400D02*
X142550D01*
X140000Y102900D02*
Y106400D01*
X140800Y102900D02*
Y106400D01*
X141600Y102900D02*
Y106400D01*
X142400Y102900D02*
Y106400D01*
X142550Y109600D02*
X139450D01*
Y113100*
X142550*
Y109600*
X139450D02*
X142550D01*
X139450Y110400D02*
X142550D01*
X139450Y111200D02*
X142550D01*
X139450Y112000D02*
X142550D01*
X139450Y112800D02*
X142550D01*
X140000Y109600D02*
Y113100D01*
X140800Y109600D02*
Y113100D01*
X141600Y109600D02*
Y113100D01*
X142400Y109600D02*
Y113100D01*
X110100Y107000D02*
X103200D01*
Y122000*
X102800*
Y165000*
X117953*
Y122000D02*
X103200D01*
X119000Y200000D02*
X123800Y204800D01*
X144200*
X149000Y200000D02*
X144200Y204800D01*
G54D12*
X134528Y172012D02*
X132953D01*
Y175358*
X134528*
Y172012*
X132953Y172441D02*
X134528D01*
X132953Y173228D02*
X134528D01*
X132953Y174016D02*
X134528D01*
X132953Y174803D02*
X134528D01*
X133071Y172012D02*
Y175358D01*
X133858Y172012D02*
Y175358D01*
X130787Y172012D02*
X129213D01*
Y175358*
X130787*
Y172012*
X129213Y172441D02*
X130787D01*
X129213Y173228D02*
X130787D01*
X129213Y174016D02*
X130787D01*
X129213Y174803D02*
X130787D01*
X129921Y172012D02*
Y175358D01*
X130709Y172012D02*
Y175358D01*
X127047Y172012D02*
X125472D01*
Y175358*
X127047*
Y172012*
X125472Y172441D02*
X127047D01*
X125472Y173228D02*
X127047D01*
X125472Y174016D02*
X127047D01*
X125472Y174803D02*
X127047D01*
X125984Y172012D02*
Y175358D01*
X126772Y172012D02*
Y175358D01*
X127047Y182642D02*
X125472D01*
Y185988*
X127047*
Y182642*
X125472Y182677D02*
X127047D01*
X125472Y183465D02*
X127047D01*
X125472Y184252D02*
X127047D01*
X125472Y185039D02*
X127047D01*
X125472Y185827D02*
X127047D01*
X125984Y182642D02*
Y185988D01*
X126772Y182642D02*
Y185988D01*
X134528Y182642D02*
X132953D01*
Y185988*
X134528*
Y182642*
X132953Y182677D02*
X134528D01*
X132953Y183465D02*
X134528D01*
X132953Y184252D02*
X134528D01*
X132953Y185039D02*
X134528D01*
X132953Y185827D02*
X134528D01*
X133071Y182642D02*
Y185988D01*
X133858Y182642D02*
Y185988D01*
X120709Y172165D02*
Y170197D01*
X115197*
Y172165*
X120709*
X115197Y170866D02*
X120709D01*
X115197Y171654D02*
X120709D01*
X115748Y170197D02*
Y172165D01*
X116535Y170197D02*
Y172165D01*
X117323Y170197D02*
Y172165D01*
X118110Y170197D02*
Y172165D01*
X118898Y170197D02*
Y172165D01*
X119685Y170197D02*
Y172165D01*
X120472Y170197D02*
Y172165D01*
X120709Y165984D02*
Y164016D01*
X115197*
Y165984*
X120709*
X115197Y164567D02*
X120709D01*
X115197Y165354D02*
X120709D01*
X115748Y164016D02*
Y165984D01*
X116535Y164016D02*
Y165984D01*
X117323Y164016D02*
Y165984D01*
X118110Y164016D02*
Y165984D01*
X118898Y164016D02*
Y165984D01*
X119685Y164016D02*
Y165984D01*
X120472Y164016D02*
Y165984D01*
X120709Y159803D02*
Y157835D01*
X115197*
Y159803*
X120709*
X115197Y158268D02*
X120709D01*
X115197Y159055D02*
X120709D01*
X115748Y157835D02*
Y159803D01*
X116535Y157835D02*
Y159803D01*
X117323Y157835D02*
Y159803D01*
X118110Y157835D02*
Y159803D01*
X118898Y157835D02*
Y159803D01*
X119685Y157835D02*
Y159803D01*
X120472Y157835D02*
Y159803D01*
X120709Y129165D02*
Y127197D01*
X115197*
Y129165*
X120709*
X115197Y127559D02*
X120709D01*
X115197Y128346D02*
X120709D01*
X115197Y129134D02*
X120709D01*
X115748Y127197D02*
Y129165D01*
X116535Y127197D02*
Y129165D01*
X117323Y127197D02*
Y129165D01*
X118110Y127197D02*
Y129165D01*
X118898Y127197D02*
Y129165D01*
X119685Y127197D02*
Y129165D01*
X120472Y127197D02*
Y129165D01*
X120709Y122984D02*
Y121016D01*
X115197*
Y122984*
X120709*
X115197Y121260D02*
X120709D01*
X115197Y122047D02*
X120709D01*
X115197Y122835D02*
X120709D01*
X115748Y121016D02*
Y122984D01*
X116535Y121016D02*
Y122984D01*
X117323Y121016D02*
Y122984D01*
X118110Y121016D02*
Y122984D01*
X118898Y121016D02*
Y122984D01*
X119685Y121016D02*
Y122984D01*
X120472Y121016D02*
Y122984D01*
X120709Y116803D02*
Y114835D01*
X115197*
Y116803*
X120709*
X115197Y114961D02*
X120709D01*
X115197Y115748D02*
X120709D01*
X115197Y116535D02*
X120709D01*
X115748Y114835D02*
Y116803D01*
X116535Y114835D02*
Y116803D01*
X117323Y114835D02*
Y116803D01*
X118110Y114835D02*
Y116803D01*
X118898Y114835D02*
Y116803D01*
X119685Y114835D02*
Y116803D01*
X120472Y114835D02*
Y116803D01*
X103976Y159488D02*
X103374Y159608D01*
X102863Y159949*
X102521Y160460*
X102402Y161063*
Y168937*
X102521Y169540*
X102863Y170051*
X103374Y170392*
X103976Y170512*
X109854*
X110457Y170392*
X110967Y170051*
X116018Y165000*
X110967Y159949*
X110457Y159608*
X109854Y159488*
X103976*
X102402Y161063D02*
Y168937D01*
X102795Y160051D02*
Y169949D01*
X103189Y159732D02*
Y170268D01*
X103583Y159567D02*
Y170433D01*
X103976Y159488D02*
Y170512D01*
X104370Y159488D02*
Y170512D01*
X104764Y159488D02*
Y170512D01*
X105157Y159488D02*
Y170512D01*
X105551Y159488D02*
Y170512D01*
X105945Y159488D02*
Y170512D01*
X106339Y159488D02*
Y170512D01*
X106732Y159488D02*
Y170512D01*
X107126Y159488D02*
Y170512D01*
X107520Y159488D02*
Y170512D01*
X107913Y159488D02*
Y170512D01*
X108307Y159488D02*
Y170512D01*
X108701Y159488D02*
Y170512D01*
X109094Y159488D02*
Y170512D01*
X109488Y159488D02*
Y170512D01*
X109882Y159494D02*
Y170506D01*
X110276Y159572D02*
Y170428D01*
X110669Y159750D02*
Y170250D01*
X111063Y160045D02*
Y169955D01*
X111457Y160439D02*
Y169561D01*
X111850Y160832D02*
Y169168D01*
X112244Y161226D02*
Y168774D01*
X112638Y161620D02*
Y168380D01*
X113031Y162013D02*
Y167987D01*
X113425Y162407D02*
Y167593D01*
X113819Y162801D02*
Y167199D01*
X114213Y163195D02*
Y166805D01*
X114606Y163588D02*
Y166412D01*
X115000Y163982D02*
Y166018D01*
X115394Y164376D02*
Y165624D01*
X115787Y164769D02*
Y165231D01*
X103976Y116488D02*
X103374Y116608D01*
X102863Y116949*
X102521Y117460*
X102402Y118063*
Y125937*
X102521Y126540*
X102863Y127051*
X103374Y127392*
X103976Y127512*
X109854*
X110457Y127392*
X110967Y127051*
X116018Y122000*
X110967Y116949*
X110457Y116608*
X109854Y116488*
X103976*
X102402Y118063D02*
Y125937D01*
X102795Y117051D02*
Y126949D01*
X103189Y116732D02*
Y127268D01*
X103583Y116567D02*
Y127433D01*
X103976Y116488D02*
Y127512D01*
X104370Y116488D02*
Y127512D01*
X104764Y116488D02*
Y127512D01*
X105157Y116488D02*
Y127512D01*
X105551Y116488D02*
Y127512D01*
X105945Y116488D02*
Y127512D01*
X106339Y116488D02*
Y127512D01*
X106732Y116488D02*
Y127512D01*
X107126Y116488D02*
Y127512D01*
X107520Y116488D02*
Y127512D01*
X107913Y116488D02*
Y127512D01*
X108307Y116488D02*
Y127512D01*
X108701Y116488D02*
Y127512D01*
X109094Y116488D02*
Y127512D01*
X109488Y116488D02*
Y127512D01*
X109882Y116494D02*
Y127506D01*
X110276Y116572D02*
Y127428D01*
X110669Y116750D02*
Y127250D01*
X111063Y117045D02*
Y126955D01*
X111457Y117439D02*
Y126561D01*
X111850Y117832D02*
Y126168D01*
X112244Y118226D02*
Y125774D01*
X112638Y118620D02*
Y125380D01*
X113031Y119013D02*
Y124987D01*
X113425Y119407D02*
Y124593D01*
X113819Y119801D02*
Y124199D01*
X114213Y120195D02*
Y123805D01*
X114606Y120588D02*
Y123412D01*
X115000Y120982D02*
Y123018D01*
X115394Y121376D02*
Y122624D01*
X115787Y121769D02*
Y122231D01*
G54D25*
X109000Y180134D02*
Y200000D01*
G54D35*
X134000Y104650D02*
X123600D01*
X120250*
X119800Y105100*
X119800*
X117900Y107000*
X126000Y111100D02*
X133750D01*
X134000Y111350*
X126000Y118900D02*
Y124200D01*
X134000Y111350D02*
X134650D01*
Y120000*
X141000Y111350D02*
X134650D01*
X141000Y104650D02*
X142250D01*
X145400Y107800*
Y116200*
X141600Y120000*
X141350*
X134000Y104650D02*
X141000D01*
X126000Y144650D02*
Y140100D01*
X119000*
X121000Y133200D02*
X124350D01*
X124400Y133250*
X126000Y144650D02*
X133000D01*
X126000Y138350D02*
Y140100D01*
Y131650D02*
X124400Y133250D01*
X119000Y147900D02*
Y158819D01*
X117953*
X112000Y147350D02*
X118450D01*
X119000Y147900*
X117953Y128181D02*
X112000Y134134D01*
Y140650*
X133000Y157800D02*
Y152900D01*
X140000*
X133000Y157800D02*
Y166000D01*
X133900*
X134650Y120000D02*
Y128000D01*
X133650Y129000*
X141350Y120000D02*
X141400D01*
X145400Y124000*
X140350Y129000D02*
Y137000D01*
Y144750*
X140000Y145100*
X133650Y137000D02*
Y144000D01*
X133000Y144650*
X140000Y145100D02*
X142000D01*
X144800Y147900*
Y156400*
X142000Y159200*
X133000Y152900D02*
Y151350D01*
X126000*
X117953Y165000D02*
X126100D01*
Y166000*
X117953Y171181D02*
X109000Y180134D01*
X136100Y191000D02*
X137750Y189350D01*
X137750*
X139000Y184315D02*
Y188100D01*
X137750Y189350*
X142000Y173685D02*
Y175100D01*
X140000*
X143900Y191000D02*
X143800Y191100D01*
Y194800*
X149000Y200000*
X136100Y191000D02*
X136000Y191100D01*
Y197000*
X139000Y200000*
X142000Y168800D02*
Y173685D01*
G54D36*
X117953Y115819D02*
X122919D01*
X126000Y118900*
X126100Y166000D02*
X126260Y166160D01*
Y173685*
X118000Y182650D02*
X118735D01*
X120400Y184315*
X126260*
X136100Y189350D02*
X118000D01*
X140000Y173685D02*
X133740D01*
X137750Y189350D02*
X136100D01*
X139000Y184315D02*
X133740D01*
X142000Y173685D02*
X140000D01*
X133900Y166000D02*
Y166100D01*
X130000Y169900*
Y173685*
X140000Y182900D02*
Y184315D01*
X139000*
X130000Y173685D02*
Y178600D01*
G54D37*
X145323Y203677D02*
X146525Y202475D01*
X145323Y196323D02*
X146525Y197525D01*
X122677Y203677D02*
X121475Y202475D01*
X122677Y196323D02*
X121475Y197525D01*
G54D48*
X149000Y200000D03*
X119000D03*
X139000D03*
X109000D03*
X129000D03*
G54D89*
X133650Y137000D03*
X140350D03*
X133650Y129000D03*
X140350D03*
G54D90*
X119000Y147900D03*
Y140100D03*
X126000Y118900D03*
Y111100D03*
X140000Y182900D03*
Y175100D03*
X117900Y107000D03*
X110100D03*
X133900Y166000D03*
X126100D03*
G54D96*
X118000Y189350D03*
Y182650D03*
G54D146*
X134200Y189100D02*
Y192900D01*
X138000*
Y189100*
X134200*
Y190000D02*
X138000D01*
X134200Y191000D02*
X138000D01*
X134200Y192000D02*
X138000D01*
X135000Y189100D02*
Y192900D01*
X136000Y189100D02*
Y192900D01*
X137000Y189100D02*
Y192900D01*
X138000Y189100D02*
Y192900D01*
X142000Y189100D02*
Y192900D01*
X145800*
Y189100*
X142000*
Y190000D02*
X145800D01*
X142000Y191000D02*
X145800D01*
X142000Y192000D02*
X145800D01*
X142000Y189100D02*
Y192900D01*
X143000Y189100D02*
Y192900D01*
X144000Y189100D02*
Y192900D01*
X145000Y189100D02*
Y192900D01*
X138100Y143200D02*
Y147000D01*
X141900*
Y143200*
X138100*
Y144000D02*
X141900D01*
X138100Y145000D02*
X141900D01*
X138100Y146000D02*
X141900D01*
X138100Y147000D02*
X141900D01*
X139000Y143200D02*
Y147000D01*
X140000Y143200D02*
Y147000D01*
X141000Y143200D02*
Y147000D01*
X138100Y151000D02*
Y154800D01*
X141900*
Y151000*
X138100*
X141900*
X138100Y152000D02*
X141900D01*
X138100Y153000D02*
X141900D01*
X138100Y154000D02*
X141900D01*
X139000Y151000D02*
Y154800D01*
X140000Y151000D02*
Y154800D01*
X141000Y151000D02*
Y154800D01*
X119900Y161897D02*
Y168103D01*
X118828*
X117077D02*
G75*
G03X118828I876J3078D01*
G01X117077D02*
X115197D01*
X113103Y170197D02*
G03X115197Y168103I2094J-0D01*
G01X113103Y170197D02*
Y171505D01*
X108661Y175948*
X104800Y180134D02*
G03X108661Y175948I4200J-0D01*
G01X104800Y180134D02*
Y196934D01*
X104664Y202870D02*
G03X104800Y196934I4336J-2870D01*
G01X104664Y202870D02*
G03X102500Y197600I5336J-5270D01*
G01Y105400*
G03X105000Y102900I2500J0*
G01X115488*
X113800Y104600D02*
G03X115488Y102900I1700J0D01*
G01X113800Y104600D02*
Y109400D01*
X115500Y111100D02*
G03X113800Y109400I0J-1700D01*
G01X115500Y111100D02*
X119900D01*
Y112741*
X115197*
X113103Y114835D02*
G03X115197Y112741I2094J-0D01*
G01X113103Y114835D02*
Y116803D01*
X115197Y118897D02*
G03X113103Y116803I-0J-2094D01*
G01X115197Y118897D02*
X119900D01*
Y125103*
X118828*
X117077D02*
G03X118828I876J3078D01*
G01X117077D02*
X115197D01*
X113103Y127197D02*
G03X115197Y125103I2094J-0D01*
G01X113103Y127197D02*
Y128505D01*
X109737Y131871*
X108800Y134134D02*
G03X109737Y131871I3200J-0D01*
G01X108800Y134134D02*
Y137601D01*
X108350Y138900D02*
G03X108800Y137601I2100J0D01*
G01X108350Y138900D02*
Y142400D01*
X109090Y144000D02*
G03X108350Y142400I1360J-1600D01*
G01Y145600D02*
G03X109090Y144000I2100J0D01*
G01X108350Y145600D02*
Y149100D01*
X110450Y151200D02*
G03X108350Y149100I0J-2100D01*
G01X110450Y151200D02*
X113550D01*
X114941Y150673D02*
G03X113550Y151200I-1391J-1573D01*
G01X115800Y151800D02*
G03X114941Y150673I800J-1500D01*
G01X115800Y151800D02*
Y155741D01*
X115197*
X113103Y157835D02*
G03X115197Y155741I2094J-0D01*
G01X113103Y157835D02*
Y159803D01*
X115197Y161897D02*
G03X113103Y159803I-0J-2094D01*
G01X115197Y161897D02*
X117077D01*
X117953Y162019D02*
G03X117077Y161897I-0J-3200D01*
G01X117953Y162019D02*
X119000D01*
X119875Y161897D02*
G03X119000Y162019I-875J-3078D01*
G01X119875Y161897D02*
X119900D01*
X147300Y105400D02*
Y145902D01*
X147063Y145637D02*
G03X147300Y145902I-2263J2263D01*
G01X147063Y145637D02*
X144263Y142837D01*
X144022Y142620D02*
G03X144263Y142837I-2022J2480D01*
G01X143550Y141745D02*
G03X144022Y142620I-1650J1455D01*
G01X143550Y141745D02*
Y140287D01*
X144200Y138950D02*
G03X143550Y140287I-1700J0D01*
G01X144200Y138950D02*
Y135050D01*
X143550Y133713D02*
G03X144200Y135050I-1050J1337D01*
G01X143550Y133713D02*
Y132287D01*
X144200Y130950D02*
G03X143550Y132287I-1700J0D01*
G01X144200Y130950D02*
Y127050D01*
X142500Y125350D02*
G03X144200Y127050I0J1700D01*
G01X142500Y125350D02*
X138200D01*
X137850Y125386D02*
G03X138200Y125350I350J1664D01*
G01X137850Y125386D02*
Y123069D01*
X138500Y121550D02*
G03X137850Y123069I-2100J0D01*
G01X138500Y121550D02*
Y118450D01*
X137850Y116931D02*
G03X138500Y118450I-1450J1519D01*
G01X137850Y116931D02*
Y114550D01*
X137931*
X139450Y115200D02*
G03X137931Y114550I0J-2100D01*
G01X139450Y115200D02*
X142550D01*
X144650Y113100D02*
G03X142550Y115200I-2100J0D01*
G01X144650Y113100D02*
Y109600D01*
X142550Y107500D02*
G03X144650Y109600I0J2100D01*
G01X142550Y107500D02*
X139450D01*
X137931Y108150D02*
G03X139450Y107500I1519J1450D01*
G01X137931Y108150D02*
X137069D01*
X135550Y107500D02*
G03X137069Y108150I0J2100D01*
G01X135550Y107500D02*
X132450D01*
X131217Y107900D02*
G03X132450Y107500I1233J1700D01*
G01X131217Y107900D02*
X129900D01*
X128400Y107000D02*
G03X129900Y107900I0J1700D01*
G01X128400Y107000D02*
X123600D01*
X122100Y107900D02*
G03X123600Y107000I1500J800D01*
G01X122100Y107900D02*
Y102900D01*
X144800*
G03X147300Y105400I0J2500*
G01X137150Y132287D02*
Y133713D01*
X137000Y133846D02*
G03X137150Y133713I1200J1204D01*
G01X135800Y133350D02*
G03X137000Y133846I0J1700D01*
G01X135800Y133350D02*
X131500D01*
X129800Y135050D02*
G03X131500Y133350I1700J0D01*
G01X129800Y135050D02*
Y138950D01*
X130450Y140287D02*
G03X129800Y138950I1050J-1337D01*
G01X130450Y140287D02*
Y141053D01*
X129931Y141450D02*
G03X130450Y141053I1519J1450D01*
G01X129931Y141450D02*
X129200D01*
Y141399*
X129650Y140100D02*
G03X129200Y141399I-2100J0D01*
G01X129650Y140100D02*
Y136600D01*
X127550Y134500D02*
G03X129650Y136600I0J2100D01*
G01X127550Y134500D02*
X124450D01*
X122371Y136304D02*
G03X124450Y134500I2079J296D01*
G01X122100Y136151D02*
G03X122371Y136304I-700J1549D01*
G01X122100Y136151D02*
Y130730D01*
X122802Y129165D02*
G03X122100Y130730I-2093J0D01*
G01X122802Y129165D02*
Y127197D01*
X122100Y125632D02*
G03X122802Y127197I-1391J1565D01*
G01X122100Y125632D02*
Y124549D01*
X122800Y123085D02*
G03X122100Y124549I-2091J-101D01*
G01X122800Y123085D02*
Y123394D01*
X129200D02*
G03X122800I-3200J806D01*
G01X129200D02*
Y122800D01*
X130100Y121300D02*
G03X129200Y122800I-1700J0D01*
G01X130100Y121300D02*
Y116500D01*
X129200Y115000D02*
G03X130100Y116500I-800J1500D01*
G01X129900Y114300D02*
G03X129200Y115000I-1500J-800D01*
G01X129900Y114300D02*
X130727D01*
X131450Y114947D02*
G03X130727Y114300I1000J-1847D01*
G01X131450Y114947D02*
Y116931D01*
X130800Y118450D02*
G03X131450Y116931I2100J0D01*
G01X130800Y118450D02*
Y121550D01*
X131450Y123069D02*
G03X130800Y121550I1450J-1519D01*
G01X131450Y123069D02*
Y125351D01*
X129800Y127050D02*
G03X131450Y125351I1700J0D01*
G01X129800Y127050D02*
Y130950D01*
X131500Y132650D02*
G03X129800Y130950I0J-1700D01*
G01X131500Y132650D02*
X135800D01*
X137000Y132154D02*
G03X135800Y132650I-1200J-1204D01*
G01X137150Y132287D02*
G03X137000Y132154I1050J-1337D01*
G01X149343Y194811D02*
G03X147300Y189666I5457J-5145D01*
G01X144000Y198572D02*
G03X149343Y194811I5000J1428D01*
G01X139200Y194804D02*
G03X144000Y198572I-200J5196D01*
G01X139200Y194804D02*
Y194744D01*
X140200Y192900D02*
G03X139200Y194744I-2200J0D01*
G01X140200Y192900D02*
Y191425D01*
X141263Y190363*
X142200Y188100D02*
G03X141263Y190363I-3200J0D01*
G01X142200Y188100D02*
Y187000D01*
X142400*
X144100Y185300D02*
G03X142400Y187000I-1700J0D01*
G01X144100Y185300D02*
Y180500D01*
X143200Y179000D02*
G03X144100Y180500I-800J1500D01*
G01Y177515D02*
G03X143200Y179000I-1700J-15D01*
G01X145200Y175100D02*
G03X144100Y177515I-3200J0D01*
G01X145200Y175100D02*
Y173685D01*
Y168800*
X144863Y167370D02*
G03X145200Y168800I-2863J1430D01*
G01X143430Y165937D02*
G03X144863Y167370I-249J1682D01*
G01X140570Y165937D02*
G03X143430I1430J2863D01*
G01X139137Y167370D02*
G03X140570Y165937I1682J249D01*
G01X138800Y168800D02*
G03X139137Y167370I3200J0D01*
G01X138800Y168800D02*
Y170985D01*
X136352*
X134528Y169918D02*
G03X136352Y170985I-0J2094D01*
G01X134528Y169918D02*
X132953D01*
X130859Y172012D02*
G03X132953Y169918I2094J-0D01*
G01X130859Y172012D02*
Y175358D01*
X132953Y177452D02*
G03X130859Y175358I-0J-2094D01*
G01X132953Y177452D02*
X134528D01*
X135900Y176939D02*
G03X134528Y177452I-1372J-1581D01*
G01X135900Y176939D02*
Y177500D01*
X136800Y179000D02*
G03X135900Y177500I800J-1500D01*
G01Y180500D02*
G03X136800Y179000I1700J0D01*
G01X135900Y180500D02*
Y181061D01*
X134528Y180548D02*
G03X135900Y181061I-0J2094D01*
G01X134528Y180548D02*
X132953D01*
X130859Y182642D02*
G03X132953Y180548I2094J-0D01*
G01X130859Y182642D02*
Y185988D01*
X130966Y186650D02*
G03X130859Y185988I1987J-662D01*
G01X130966Y186650D02*
X129034D01*
X129141Y185988D02*
G03X129034Y186650I-2094J0D01*
G01X129141Y185988D02*
Y182642D01*
X127047Y180548D02*
G03X129141Y182642I0J2094D01*
G01X127047Y180548D02*
X125472D01*
X123648Y181615D02*
G03X125472Y180548I1824J1027D01*
G01X123648Y181615D02*
X122100D01*
Y173730*
X122802Y172165D02*
G03X122100Y173730I-2093J0D01*
G01X122802Y172165D02*
Y170197D01*
X122769Y169822D02*
G03X122802Y170197I-2060J375D01*
G01X123560Y170094D02*
G03X122769Y169822I140J-1694D01*
G01X123560Y170094D02*
Y171160D01*
X123379Y172012D02*
G03X123560Y171160I2093J-0D01*
G01X123379Y172012D02*
Y175358D01*
X125472Y177452D02*
G03X123379Y175358I0J-2094D01*
G01X125472Y177452D02*
X127047D01*
X129141Y175358D02*
G03X127047Y177452I-2094J0D01*
G01X129141Y175358D02*
Y172012D01*
X128960Y171160D02*
G03X129141Y172012I-1913J852D01*
G01X128960Y171160D02*
Y170037D01*
X130200Y168400D02*
G03X128960Y170037I-1700J0D01*
G01X130200Y168400D02*
Y163600D01*
X128500Y161900D02*
G03X130200Y163600I0J1700D01*
G01X128500Y161900D02*
X126894D01*
X126100Y161800D02*
G03X126894Y161900I0J3200D01*
G01X126100Y161800D02*
X122100D01*
Y161368*
X122802Y159803D02*
G03X122100Y161368I-2093J0D01*
G01X122802Y159803D02*
Y157835D01*
X122200Y156365D02*
G03X122802Y157835I-1491J1470D01*
G01X122200Y156365D02*
Y151800D01*
X123100Y150300D02*
G03X122200Y151800I-1700J0D01*
G01X123100Y150300D02*
Y148009D01*
X124450Y148500D02*
G03X123100Y148009I0J-2100D01*
G01X124450Y148500D02*
X127550D01*
X129069Y147850D02*
G03X127550Y148500I-1519J-1450D01*
G01X129069Y147850D02*
X129931D01*
X131450Y148500D02*
G03X129931Y147850I0J-2100D01*
G01X131450Y148500D02*
X134550D01*
X136070Y147849D02*
G03X134550Y148500I-1520J-1449D01*
G01X138100Y149200D02*
G03X136070Y147849I0J-2200D01*
G01X138100Y149200D02*
X141575D01*
X141600Y149225*
Y155075*
X140262Y156413*
X139137Y157770D02*
G03X140262Y156413I1682J249D01*
G01X139137Y160630D02*
G03Y157770I2863J-1430D01*
G01X140570Y162063D02*
G03X139137Y160630I249J-1682D01*
G01X143430Y162063D02*
G03X140570I-1430J-2863D01*
G01X144787Y160938D02*
G03X143430Y162063I-1606J-557D01*
G01X144787Y160938D02*
X147063Y158663D01*
X147300Y158398D02*
G03X147063Y158663I-2500J-1998D01*
G01X147300Y158398D02*
Y189666D01*
X147985Y205100D02*
G03X144000Y201428I1015J-5100D01*
G01X147985Y205100D02*
X140015D01*
X144000Y201428D02*
G03X140015Y205100I-5000J-1428D01*
G01X132800Y194597D02*
Y196450D01*
X124000Y198572D02*
G03X132800Y196450I5000J1428D01*
G01X122100Y195825D02*
G03X124000Y198572I-3100J4175D01*
G01X122100Y195825D02*
Y192050D01*
X132000*
Y192900*
X132800Y194597D02*
G03X132000Y192900I1400J-1697D01*
G01X137985Y205100D02*
G03X134000Y201428I1015J-5100D01*
G01X137985Y205100D02*
X130015D01*
X134000Y201428D02*
G03X130015Y205100I-5000J-1428D01*
G01X127985D02*
G03X124000Y201428I1015J-5100D01*
G01X127985Y205100D02*
X122100D01*
Y204175*
X124000Y201428D02*
G03X122100Y204175I-5000J-1428D01*
G01X102500Y167299D02*
X119900D01*
X102500Y166399D02*
X119900D01*
X102500Y165499D02*
X119900D01*
X102500Y164599D02*
X119900D01*
X102500Y163699D02*
X119900D01*
X102500Y162799D02*
X119900D01*
X119869Y161899D02*
X119900D01*
X118288Y124999D02*
X119900D01*
X102500Y124099D02*
X119900D01*
X102500Y123199D02*
X119900D01*
X102500Y122299D02*
X119900D01*
X102500Y121399D02*
X119900D01*
X102500Y120499D02*
X119900D01*
X102500Y119599D02*
X119900D01*
X102500Y112399D02*
X119900D01*
X102500Y111499D02*
X119900D01*
X102500Y124999D02*
X117618D01*
X102500Y161899D02*
X117084D01*
X102500Y155599D02*
X115800D01*
X102500Y154699D02*
X115800D01*
X102500Y153799D02*
X115800D01*
X102500Y152899D02*
X115800D01*
X102500Y151999D02*
X115800D01*
X114194Y151099D02*
X115099D01*
X102500Y168199D02*
X114572D01*
X102500Y118699D02*
X114308D01*
X103502Y103399D02*
X114297D01*
X102500Y110599D02*
X114295D01*
X102756Y104299D02*
X113827D01*
X102500Y109699D02*
X113826D01*
X102500Y108799D02*
X113800D01*
X102500Y107899D02*
X113800D01*
X102500Y106999D02*
X113800D01*
X102500Y106099D02*
X113800D01*
X102508Y105199D02*
X113800D01*
X102500Y113299D02*
X113774D01*
X102500Y156499D02*
X113585D01*
X102500Y125899D02*
X113554D01*
X102500Y160999D02*
X113478D01*
X102500Y169099D02*
X113414D01*
X102500Y117799D02*
X113355D01*
X102500Y114199D02*
X113202D01*
X102500Y157399D02*
X113149D01*
X102500Y126799D02*
X113141D01*
X102500Y160099D02*
X113124D01*
X102500Y169999D02*
X113113D01*
X102500Y116899D02*
X113105D01*
X102500Y170899D02*
X113103D01*
X102500Y159199D02*
X113103D01*
X102500Y158299D02*
X113103D01*
X102500Y127699D02*
X113103D01*
X102500Y115999D02*
X113103D01*
X102500Y115099D02*
X113103D01*
X102500Y128599D02*
X113010D01*
X102500Y171799D02*
X112810D01*
X102500Y129499D02*
X112110D01*
X102500Y172699D02*
X111910D01*
X102500Y130399D02*
X111210D01*
X102500Y173599D02*
X111010D01*
X102500Y131299D02*
X110310D01*
X102500Y174499D02*
X110110D01*
X102500Y151099D02*
X109806D01*
X102500Y132199D02*
X109451D01*
X102500Y175399D02*
X109210D01*
X102500Y143899D02*
X108979D01*
X102500Y133099D02*
X108972D01*
X102500Y133999D02*
X108803D01*
X102500Y137599D02*
X108800D01*
X102500Y136699D02*
X108800D01*
X102500Y135799D02*
X108800D01*
X102500Y134899D02*
X108800D01*
X102500Y150199D02*
X108660D01*
X102500Y144799D02*
X108509D01*
X102500Y142999D02*
X108437D01*
X102500Y138499D02*
X108389D01*
X102500Y149299D02*
X108359D01*
X102500Y148399D02*
X108350D01*
X102500Y147499D02*
X108350D01*
X102500Y146599D02*
X108350D01*
X102500Y145699D02*
X108350D01*
X102500Y142099D02*
X108350D01*
X102500Y141199D02*
X108350D01*
X102500Y140299D02*
X108350D01*
X102500Y139399D02*
X108350D01*
X102500Y176299D02*
X107288D01*
X102500Y177199D02*
X105996D01*
X102500Y178099D02*
X105326D01*
X102500Y178999D02*
X104956D01*
X102500Y179899D02*
X104807D01*
X102500Y196099D02*
X104800D01*
X102500Y195199D02*
X104800D01*
X102500Y194299D02*
X104800D01*
X102500Y193399D02*
X104800D01*
X102500Y192499D02*
X104800D01*
X102500Y191599D02*
X104800D01*
X102500Y190699D02*
X104800D01*
X102500Y189799D02*
X104800D01*
X102500Y188899D02*
X104800D01*
X102500Y187999D02*
X104800D01*
X102500Y187099D02*
X104800D01*
X102500Y186199D02*
X104800D01*
X102500Y185299D02*
X104800D01*
X102500Y184399D02*
X104800D01*
X102500Y183499D02*
X104800D01*
X102500Y182599D02*
X104800D01*
X102500Y181699D02*
X104800D01*
X102500Y180799D02*
X104800D01*
X102500Y196999D02*
X104754D01*
X104236Y202399D02*
X104386D01*
X102506Y197899D02*
X104243D01*
X103593Y201499D02*
X104021D01*
X102596Y198799D02*
X103941D01*
X103126Y200599D02*
X103835D01*
X102800Y199699D02*
X103809D01*
X122100Y204499D02*
X126392D01*
X122754Y203599D02*
X125246D01*
X123445Y202699D02*
X124555D01*
X123879Y201799D02*
X124121D01*
X131608Y204499D02*
X136392D01*
X132754Y203599D02*
X135246D01*
X133445Y202699D02*
X134555D01*
X133879Y201799D02*
X134121D01*
X132751Y196399D02*
X132800D01*
X131604Y195499D02*
X132800D01*
X122100Y194599D02*
X132800D01*
X122100Y193699D02*
X132150D01*
X122100Y192799D02*
X132000D01*
X122100Y195499D02*
X126396D01*
X122751Y196399D02*
X125249D01*
X123443Y197299D02*
X124557D01*
X123878Y198199D02*
X124122D01*
X141608Y204499D02*
X146392D01*
X142754Y203599D02*
X145246D01*
X143445Y202699D02*
X144555D01*
X143879Y201799D02*
X144121D01*
X139398Y194599D02*
X149150D01*
X140050Y193699D02*
X148476D01*
X140200Y192799D02*
X147985D01*
X140200Y191899D02*
X147640D01*
X140627Y190999D02*
X147419D01*
X141499Y190099D02*
X147312D01*
X142005Y189199D02*
X147300D01*
X142194Y188299D02*
X147300D01*
X142200Y187399D02*
X147300D01*
X143605Y186499D02*
X147300D01*
X144074Y185599D02*
X147300D01*
X144100Y184699D02*
X147300D01*
X144100Y183799D02*
X147300D01*
X144100Y182899D02*
X147300D01*
X144100Y181999D02*
X147300D01*
X144100Y181099D02*
X147300D01*
X144073Y180199D02*
X147300D01*
X143603Y179299D02*
X147300D01*
X143843Y178399D02*
X147300D01*
X144118Y177499D02*
X147300D01*
X144827Y176599D02*
X147300D01*
X145144Y175699D02*
X147300D01*
X145200Y174799D02*
X147300D01*
X145200Y173899D02*
X147300D01*
X145200Y172999D02*
X147300D01*
X145200Y172099D02*
X147300D01*
X145200Y171199D02*
X147300D01*
X145200Y170299D02*
X147300D01*
X145200Y169399D02*
X147300D01*
X145186Y168499D02*
X147300D01*
X144966Y167599D02*
X147300D01*
X144611Y166699D02*
X147300D01*
X143110Y165799D02*
X147300D01*
X130200Y164899D02*
X147300D01*
X130200Y163999D02*
X147300D01*
X130124Y163099D02*
X147300D01*
X143117Y162199D02*
X147300D01*
X144612Y161299D02*
X147300D01*
X145327Y160399D02*
X147300D01*
X146227Y159499D02*
X147300D01*
X147125Y158599D02*
X147300D01*
X141604Y195499D02*
X146396D01*
X142751Y196399D02*
X145249D01*
X143443Y197299D02*
X144557D01*
X143878Y198199D02*
X144122D01*
X122200Y154999D02*
X141600D01*
X122200Y154099D02*
X141600D01*
X122200Y153199D02*
X141600D01*
X122200Y152299D02*
X141600D01*
X122697Y151399D02*
X141600D01*
X123088Y150499D02*
X141600D01*
X123100Y149599D02*
X141600D01*
X130200Y165799D02*
X140890D01*
X129462Y162199D02*
X140883D01*
X122200Y155899D02*
X140776D01*
X122528Y156799D02*
X139635D01*
X130200Y166699D02*
X139389D01*
X122174Y161299D02*
X139388D01*
X122798Y157699D02*
X139149D01*
X130200Y167599D02*
X139034D01*
X122716Y160399D02*
X139033D01*
X122802Y158599D02*
X138857D01*
X130197Y168499D02*
X138814D01*
X122802Y159499D02*
X138814D01*
X135731Y170299D02*
X138800D01*
X129876Y169399D02*
X138800D01*
X123100Y148699D02*
X136702D01*
X122100Y179299D02*
X136397D01*
X122100Y178399D02*
X136157D01*
X122100Y180199D02*
X135927D01*
X122100Y177499D02*
X135900D01*
X128960Y170299D02*
X131749D01*
X128462Y181099D02*
X131538D01*
X128734Y176599D02*
X131266D01*
X128977Y171199D02*
X131023D01*
X129040Y181999D02*
X130960D01*
X129078Y186499D02*
X130922D01*
X129113Y175699D02*
X130887D01*
X129141Y185599D02*
X130859D01*
X129141Y184699D02*
X130859D01*
X129141Y183799D02*
X130859D01*
X129141Y182899D02*
X130859D01*
X129141Y174799D02*
X130859D01*
X129141Y173899D02*
X130859D01*
X129141Y172999D02*
X130859D01*
X129141Y172099D02*
X130859D01*
X122100Y181099D02*
X124057D01*
X122100Y176599D02*
X123786D01*
X122802Y170299D02*
X123560D01*
X122802Y171199D02*
X123543D01*
X122100Y175699D02*
X123407D01*
X122100Y174799D02*
X123379D01*
X122100Y173899D02*
X123379D01*
X122629Y172999D02*
X123379D01*
X122802Y172099D02*
X123379D01*
X136204Y133399D02*
X137150D01*
X136501Y132499D02*
X137150D01*
X129112Y125299D02*
X131450D01*
X129294Y124399D02*
X131450D01*
X129225Y123499D02*
X131450D01*
X130088Y116299D02*
X131450D01*
X129695Y115399D02*
X131450D01*
X130100Y117199D02*
X131213D01*
X122100Y133399D02*
X131096D01*
X129497Y122599D02*
X131081D01*
X129776Y114499D02*
X130884D01*
X130100Y118099D02*
X130830D01*
X130053Y121699D02*
X130805D01*
X130100Y120799D02*
X130800D01*
X130100Y119899D02*
X130800D01*
X130100Y118999D02*
X130800D01*
X122100Y132499D02*
X130799D01*
X129590Y140599D02*
X130450D01*
X128626Y126199D02*
X130028D01*
X122100Y134299D02*
X129975D01*
X129650Y139699D02*
X129974D01*
X122100Y131599D02*
X129929D01*
X129650Y138799D02*
X129800D01*
X129650Y137899D02*
X129800D01*
X129650Y136999D02*
X129800D01*
X129589Y136099D02*
X129800D01*
X129114Y135199D02*
X129800D01*
X122134Y130699D02*
X129800D01*
X122704Y129799D02*
X129800D01*
X122802Y128899D02*
X129800D01*
X122802Y127999D02*
X129800D01*
X127577Y127099D02*
X129800D01*
X122800D02*
X124423D01*
X122549Y126199D02*
X123374D01*
X122100Y125299D02*
X122888D01*
X122100Y135199D02*
X122886D01*
X122738Y123499D02*
X122775D01*
X122252Y124399D02*
X122706D01*
X122100Y136099D02*
X122411D01*
X146524Y145099D02*
X147300D01*
X145624Y144199D02*
X147300D01*
X144724Y143299D02*
X147300D01*
X143949Y142399D02*
X147300D01*
X143550Y141499D02*
X147300D01*
X143550Y140599D02*
X147300D01*
X144026Y139699D02*
X147300D01*
X144200Y138799D02*
X147300D01*
X144200Y137899D02*
X147300D01*
X144200Y136999D02*
X147300D01*
X144200Y136099D02*
X147300D01*
X144200Y135199D02*
X147300D01*
X144025Y134299D02*
X147300D01*
X143550Y133399D02*
X147300D01*
X143550Y132499D02*
X147300D01*
X144071Y131599D02*
X147300D01*
X144200Y130699D02*
X147300D01*
X144200Y129799D02*
X147300D01*
X144200Y128899D02*
X147300D01*
X144200Y127999D02*
X147300D01*
X144200Y127099D02*
X147300D01*
X143972Y126199D02*
X147300D01*
X137850Y125299D02*
X147300D01*
X137850Y124399D02*
X147300D01*
X137850Y123499D02*
X147300D01*
X138219Y122599D02*
X147300D01*
X138495Y121699D02*
X147300D01*
X138500Y120799D02*
X147300D01*
X138500Y119899D02*
X147300D01*
X138500Y118999D02*
X147300D01*
X138470Y118099D02*
X147300D01*
X138087Y117199D02*
X147300D01*
X137850Y116299D02*
X147300D01*
X137850Y115399D02*
X147300D01*
X144116Y114499D02*
X147300D01*
X144590Y113599D02*
X147300D01*
X144650Y112699D02*
X147300D01*
X144650Y111799D02*
X147300D01*
X144650Y110899D02*
X147300D01*
X144650Y109999D02*
X147300D01*
X144589Y109099D02*
X147300D01*
X144114Y108199D02*
X147300D01*
X129362Y107299D02*
X147300D01*
X122100Y106399D02*
X147300D01*
X122100Y105499D02*
X147300D01*
X122100Y104599D02*
X147168D01*
X122100Y103699D02*
X146632D01*
X122100Y107299D02*
X122638D01*
G54D147*
X109000Y113000D03*
X105000D03*
X125000Y159000D03*
X108000Y131000D03*
X104000D03*
X108000Y155000D03*
X104000D03*
X126000Y124200D03*
X121000Y133200D03*
X145400Y124000D03*
X133000Y157800D03*
X125000Y179000D03*
X104000Y174000D03*
X108000D03*
X134000Y179000D03*
X130000Y178600D03*
G54D148*
X142000Y159200D03*
Y168800D03*
G74*
X0Y0D02*
M02*
