% M48 INCH,LZ
T1C.016F095S300
X010900Y011300
X010500Y011300
X012600Y012420
X010800Y013100
X010400Y013100
X012100Y013320
X010400Y015500
X010800Y015500
X012500Y015900
X010400Y017400
X010800Y017400
X012500Y017900
X013400Y017900
X013000Y017860
X013300Y015780
X014540Y012400
T2C.037F197S550
X011900Y020000
X010900Y020000
X013900Y020000
X014900Y020000
X012900Y020000
M30
