*
*
G04 PADS9.1 Build Number: 384028 generated Gerber (RS-274-X) file*
G04 PC Version=2.1*
*
%IN "PSDR_00BB.pcb"*%
*
%MOIN*%
*
%FSLAX35Y35*%
*
*
*
*
G04 PC Standard Apertures*
*
*
G04 Thermal Relief Aperture macro.*
%AMTER*
1,1,$1,0,0*
1,0,$1-$2,0,0*
21,0,$3,$4,0,0,45*
21,0,$3,$4,0,0,135*
%
*
*
G04 Annular Aperture macro.*
%AMANN*
1,1,$1,0,0*
1,0,$2,0,0*
%
*
*
G04 Odd Aperture macro.*
%AMODD*
1,1,$1,0,0*
1,0,$1-0.005,0,0*
%
*
*
G04 PC Custom Aperture Macros*
*
*
*
*
*
*
G04 PC Aperture Table*
*
%ADD010C,0.01*%
%ADD012C,0.00787*%
%ADD042C,0.001*%
%ADD082C,0.006*%
*
*
*
*
G04 PC Circuitry*
G04 Layer Name PSDR_00BB.pcb - circuitry*
%LPD*%
*
*
G04 PC Custom Flashes*
G04 Layer Name PSDR_00BB.pcb - flashes*
%LPD*%
*
*
G04 PC Circuitry*
G04 Layer Name PSDR_00BB.pcb - circuitry*
%LPD*%
*
G54D10*
G01X457000Y213563D02*
Y207000D01*
Y213563D02*
X454955D01*
X454955D02*
X454273Y213250D01*
X454045Y212938*
X454045D02*
X453818Y212313D01*
X453818D02*
Y211375D01*
X454045Y210750*
X454273Y210438*
X454273D02*
X454955Y210125D01*
X457000*
X448591Y212625D02*
X449045Y213250D01*
X449727Y213563*
X449727D02*
X450636D01*
X450636D02*
X451318Y213250D01*
X451773Y212625*
Y212000*
X451545Y211375*
X451318Y211063*
X451318D02*
X450864Y210750D01*
X449500Y210125*
X449045Y209813*
X449045D02*
X448818Y209500D01*
X448591Y208875*
Y207938*
X448591D02*
X449045Y207313D01*
X449045D02*
X449727Y207000D01*
X450636*
X451318Y207313*
X451318D02*
X451773Y207938D01*
X446545Y213563D02*
Y207000D01*
Y213563D02*
X444955D01*
X444955D02*
X444273Y213250D01*
X443818Y212625*
X443591Y212000*
X443364Y211063*
X443364D02*
Y209500D01*
X443591Y208563*
X443591D02*
X443818Y207938D01*
X443818D02*
X444273Y207313D01*
X444273D02*
X444955Y207000D01*
X446545*
X441318Y213563D02*
Y207000D01*
Y213563D02*
X439273D01*
X439273D02*
X438591Y213250D01*
X438364Y212938*
X438364D02*
X438136Y212313D01*
X438136D02*
Y211688D01*
X438136D02*
X438364Y211063D01*
X438364D02*
X438591Y210750D01*
X439273Y210438*
X439273D02*
X441318D01*
X439727D02*
X438136Y207000D01*
X436091Y212313D02*
X435636Y212625D01*
X434955Y213563*
X434955D02*
Y207000D01*
X467000Y202563D02*
Y196000D01*
Y202563D02*
X464955D01*
X464955D02*
X464273Y202250D01*
X464045Y201938*
X464045D02*
X463818Y201313D01*
X463818D02*
Y200688D01*
X463818D02*
X464045Y200063D01*
X464045D02*
X464273Y199750D01*
X464955Y199438*
X467000D02*
X464955D01*
X464955D02*
X464273Y199125D01*
X464045Y198813*
X464045D02*
X463818Y198188D01*
X463818D02*
Y197250D01*
X464045Y196625*
X464273Y196313*
X464273D02*
X464955Y196000D01*
X467000*
X461545Y200375D02*
X460182Y196000D01*
X458818Y200375D02*
X460182Y196000D01*
X460636Y194750*
X461091Y194125*
X461545Y193812*
X461545D02*
X461773D01*
X451545Y202563D02*
Y196000D01*
Y202563D02*
X449727Y196000D01*
X447909Y202563D02*
X449727Y196000D01*
X447909Y202563D02*
Y196000D01*
X445864Y202563D02*
X445636Y202250D01*
X445409Y202563*
X445409D02*
X445636Y202875D01*
X445864Y202563*
X445636Y200375D02*
Y196000D01*
X440636Y199438D02*
X441091Y200063D01*
X441091D02*
X441545Y200375D01*
X442227*
X442682Y200063*
X442682D02*
X443136Y199438D01*
X443136D02*
X443364Y198500D01*
Y197875*
X443136Y196938*
X443136D02*
X442682Y196313D01*
X442682D02*
X442227Y196000D01*
X441545*
X441091Y196313*
X441091D02*
X440636Y196938D01*
X438591Y202563D02*
Y196000D01*
Y199125D02*
X437909Y200063D01*
X437909D02*
X437455Y200375D01*
X436773*
X436318Y200063*
X436318D02*
X436091Y199125D01*
Y196000*
X431318Y200375D02*
Y196000D01*
Y199438D02*
X431773Y200063D01*
X431773D02*
X432227Y200375D01*
X432909*
X433364Y200063*
X433364D02*
X433818Y199438D01*
X433818D02*
X434045Y198500D01*
Y197875*
X433818Y196938*
X433818D02*
X433364Y196313D01*
X433364D02*
X432909Y196000D01*
X432227*
X431773Y196313*
X431773D02*
X431318Y196938D01*
X429273Y198500D02*
X426545D01*
Y199125*
X426773Y199750*
X427000Y200063*
X427000D02*
X427455Y200375D01*
X428136*
X428591Y200063*
X428591D02*
X429045Y199438D01*
X429045D02*
X429273Y198500D01*
Y197875*
X429045Y196938*
X429045D02*
X428591Y196313D01*
X428591D02*
X428136Y196000D01*
X427455*
X427000Y196313*
X427000D02*
X426545Y196938D01*
X424500Y202563D02*
Y196000D01*
X413818Y201000D02*
X414045Y201625D01*
X414500Y202250*
X414955Y202563*
X414955D02*
X415864D01*
X415864D02*
X416318Y202250D01*
X416773Y201625*
X417000Y201000*
X417227Y200063*
X417227D02*
Y198500D01*
X417000Y197563*
X417000D02*
X416773Y196938D01*
X416773D02*
X416318Y196313D01*
X416318D02*
X415864Y196000D01*
X414955*
X414500Y196313*
X414500D02*
X414045Y196938D01*
X414045D02*
X413818Y197563D01*
X410636Y200375D02*
X411091Y200063D01*
X411091D02*
X411545Y199438D01*
X411545D02*
X411773Y198500D01*
Y197875*
X411545Y196938*
X411545D02*
X411091Y196313D01*
X411091D02*
X410636Y196000D01*
X409955*
X409500Y196313*
X409500D02*
X409045Y196938D01*
X409045D02*
X408818Y197875D01*
Y198500*
X409045Y199438*
X409045D02*
X409500Y200063D01*
X409500D02*
X409955Y200375D01*
X410636*
X406773Y202563D02*
Y196000D01*
X404045Y202563D02*
Y197250D01*
X403818Y196313*
X403818D02*
X403364Y196000D01*
X402909*
X404727Y200375D02*
X403136D01*
X399727D02*
X400182Y200063D01*
X400182D02*
X400636Y199438D01*
X400636D02*
X400864Y198500D01*
Y197875*
X400636Y196938*
X400636D02*
X400182Y196313D01*
X400182D02*
X399727Y196000D01*
X399045*
X398591Y196313*
X398591D02*
X398136Y196938D01*
X398136D02*
X397909Y197875D01*
Y198500*
X398136Y199438*
X398136D02*
X398591Y200063D01*
X398591D02*
X399045Y200375D01*
X399727*
X395864D02*
Y196000D01*
Y199125D02*
X395182Y200063D01*
X395182D02*
X394727Y200375D01*
X394045*
X393591Y200063*
X393591D02*
X393364Y199125D01*
Y196000*
X459000Y190563D02*
Y184000D01*
X455818Y190563D02*
X459000Y186188D01*
X457864Y187750D02*
X455818Y184000D01*
X453773Y190563D02*
Y184000D01*
Y190563D02*
X450818D01*
X453773Y187438D02*
X451955D01*
X453773Y184000D02*
X450818D01*
X445591Y190563D02*
X447864Y184000D01*
X448773Y190563D02*
X445591D01*
X443545D02*
Y184000D01*
X440364Y190563D02*
Y184000D01*
X443545Y187438D02*
X440364D01*
X438318Y190563D02*
Y184000D01*
X434455Y190563D02*
X436273Y184000D01*
X434455Y190563D02*
X432636Y184000D01*
X435591Y186188D02*
X433318D01*
G54D12*
X371768Y280974D02*
Y123100D01*
X107201*
Y280974*
X371768*
X152870D02*
Y206958D01*
X257594*
Y280974*
X158776Y290974D02*
Y351840D01*
X253264*
Y290974*
X441323Y274906D02*
X493685D01*
Y313094*
X441323*
Y274906*
X493685Y279827D02*
X497622D01*
Y308173*
X493685*
G54D42*
G54D82*
X184655Y289000D02*
X184791Y289338D01*
X184791D02*
X185064Y289675D01*
X185336Y289844*
X185882*
X186155Y289675*
X186427Y289338*
X186427D02*
X186564Y289000D01*
X186700Y288494*
Y287650*
X186564Y287144*
X186427Y286806*
X186155Y286469*
X185882Y286300*
X185336*
X185064Y286469*
X184791Y286806*
X184655Y287144*
X183427Y289844D02*
Y286300D01*
X181791*
X179745Y289844D02*
X180018Y289675D01*
X180291Y289338*
X180291D02*
X180427Y289000D01*
X180564Y288494*
Y287650*
X180427Y287144*
X180291Y286806*
X180018Y286469*
X179745Y286300*
X179200*
X178927Y286469*
X178655Y286806*
X178518Y287144*
X178382Y287650*
Y288494*
X178518Y289000*
X178655Y289338*
X178655D02*
X178927Y289675D01*
X179200Y289844*
X179745*
X175109Y289000D02*
X175245Y289338D01*
X175245D02*
X175518Y289675D01*
X175791Y289844*
X176336*
X176609Y289675*
X176882Y289338*
X176882D02*
X177018Y289000D01*
X177155Y288494*
Y287650*
X177018Y287144*
X176882Y286806*
X176609Y286469*
X176336Y286300*
X175791*
X175518Y286469*
X175245Y286806*
X175109Y287144*
X173882Y289844D02*
Y286300D01*
X171973Y289844D02*
X173882Y287481D01*
X173200Y288325D02*
X171973Y286300D01*
X170745Y285625D02*
X167882D01*
X167064Y289844D02*
Y286300D01*
X165836Y289844D02*
Y286300D01*
Y289844D02*
X163927Y286300D01*
Y289844D02*
Y286300D01*
X141655Y289000D02*
X141791Y289338D01*
X141791D02*
X142064Y289675D01*
X142336Y289844*
X142882*
X143155Y289675*
X143427Y289338*
X143427D02*
X143564Y289000D01*
X143700Y288494*
Y287650*
X143564Y287144*
X143427Y286806*
X143155Y286469*
X142882Y286300*
X142336*
X142064Y286469*
X141791Y286806*
X141655Y287144*
X140427Y289844D02*
Y286300D01*
X138791*
X136745Y289844D02*
X137018Y289675D01*
X137291Y289338*
X137291D02*
X137427Y289000D01*
X137564Y288494*
Y287650*
X137427Y287144*
X137291Y286806*
X137018Y286469*
X136745Y286300*
X136200*
X135927Y286469*
X135655Y286806*
X135518Y287144*
X135382Y287650*
Y288494*
X135518Y289000*
X135655Y289338*
X135655D02*
X135927Y289675D01*
X136200Y289844*
X136745*
X132109Y289000D02*
X132245Y289338D01*
X132245D02*
X132518Y289675D01*
X132791Y289844*
X133336*
X133609Y289675*
X133882Y289338*
X133882D02*
X134018Y289000D01*
X134155Y288494*
Y287650*
X134018Y287144*
X133882Y286806*
X133609Y286469*
X133336Y286300*
X132791*
X132518Y286469*
X132245Y286806*
X132109Y287144*
X130882Y289844D02*
Y286300D01*
X128973Y289844D02*
X130882Y287481D01*
X130200Y288325D02*
X128973Y286300D01*
X127745Y285625D02*
X124882D01*
X123245Y289844D02*
X123518Y289675D01*
X123791Y289338*
X123791D02*
X123927Y289000D01*
X124064Y288494*
Y287650*
X123927Y287144*
X123791Y286806*
X123518Y286469*
X123245Y286300*
X122700*
X122427Y286469*
X122155Y286806*
X122018Y287144*
X121882Y287650*
Y288494*
X122018Y289000*
X122155Y289338*
X122155D02*
X122427Y289675D01*
X122700Y289844*
X123245*
X120655D02*
Y287313D01*
X120655D02*
X120518Y286806D01*
X120245Y286469*
X119836Y286300*
X119564*
X119155Y286469*
X118882Y286806*
X118745Y287313*
X118745D02*
Y289844D01*
X116564D02*
Y286300D01*
X117518Y289844D02*
X115609D01*
X200700Y314844D02*
Y311300D01*
Y314844D02*
X199745D01*
X199336Y314675*
X199064Y314338*
X199064D02*
X198927Y314000D01*
X198791Y313494*
Y312650*
X198927Y312144*
X199064Y311806*
X199336Y311469*
X199745Y311300*
X200700*
X197564Y314844D02*
Y311300D01*
Y314844D02*
X196609D01*
X196200Y314675*
X195927Y314338*
X195927D02*
X195791Y314000D01*
X195655Y313494*
Y312650*
X195791Y312144*
X195927Y311806*
X196200Y311469*
X196609Y311300*
X197564*
X192518Y314338D02*
X192791Y314675D01*
X193200Y314844*
X193745*
X194155Y314675*
X194427Y314338*
X194427D02*
Y314000D01*
X194291Y313663*
X194291D02*
X194155Y313494D01*
X193882Y313325*
X193064Y312988*
X193064D02*
X192791Y312819D01*
X192655Y312650*
X192518Y312313*
X192518D02*
Y311806D01*
X192791Y311469*
X193200Y311300*
X193745*
X194155Y311469*
X194427Y311806*
X191291Y314169D02*
X191018Y314338D01*
X191018D02*
X190609Y314844D01*
Y311300*
X189382Y310625D02*
X186518D01*
X183655Y314000D02*
X183791Y314338D01*
X183791D02*
X184064Y314675D01*
X184336Y314844*
X184882*
X185155Y314675*
X185427Y314338*
X185427D02*
X185564Y314000D01*
X185700Y313494*
Y312650*
X185564Y312144*
X185427Y311806*
X185155Y311469*
X184882Y311300*
X184336*
X184064Y311469*
X183791Y311806*
X183655Y312144*
X181609Y314844D02*
X181882Y314675D01*
X182155Y314338*
X182155D02*
X182291Y314000D01*
X182427Y313494*
Y312650*
X182291Y312144*
X182155Y311806*
X181882Y311469*
X181609Y311300*
X181064*
X180791Y311469*
X180518Y311806*
X180382Y312144*
X180245Y312650*
Y313494*
X180382Y314000*
X180518Y314338*
X180518D02*
X180791Y314675D01*
X181064Y314844*
X181609*
X179018D02*
Y311300D01*
Y314844D02*
X177927Y311300D01*
X176836Y314844D02*
X177927Y311300D01*
X176836Y314844D02*
Y311300D01*
X175609Y314844D02*
Y311300D01*
Y314844D02*
X174382D01*
X173973Y314675*
X173836Y314506*
X173700Y314169*
Y313663*
X173700D02*
X173836Y313325D01*
X173973Y313156*
X174382Y312988*
X174382D02*
X175609D01*
X172473Y310625D02*
X169609D01*
X168791Y314844D02*
Y311300D01*
X167564Y314844D02*
Y311300D01*
Y314844D02*
X165655Y311300D01*
Y314844D02*
Y311300D01*
X237700Y339844D02*
Y336300D01*
Y339844D02*
X236745D01*
X236336Y339675*
X236064Y339338*
X236064D02*
X235927Y339000D01*
X235791Y338494*
Y337650*
X235927Y337144*
X236064Y336806*
X236336Y336469*
X236745Y336300*
X237700*
X234564Y339844D02*
Y336300D01*
Y339844D02*
X233609D01*
X233200Y339675*
X232927Y339338*
X232927D02*
X232791Y339000D01*
X232655Y338494*
Y337650*
X232791Y337144*
X232927Y336806*
X233200Y336469*
X233609Y336300*
X234564*
X229518Y339338D02*
X229791Y339675D01*
X230200Y339844*
X230745*
X231155Y339675*
X231427Y339338*
X231427D02*
Y339000D01*
X231291Y338663*
X231291D02*
X231155Y338494D01*
X230882Y338325*
X230064Y337988*
X230064D02*
X229791Y337819D01*
X229655Y337650*
X229518Y337313*
X229518D02*
Y336806D01*
X229791Y336469*
X230200Y336300*
X230745*
X231155Y336469*
X231427Y336806*
X228291Y339169D02*
X228018Y339338D01*
X228018D02*
X227609Y339844D01*
Y336300*
X226382Y335625D02*
X223518D01*
X222700Y339844D02*
Y336300D01*
X220655Y339844D02*
X220927Y339675D01*
X221200Y339338*
X221200D02*
X221336Y339000D01*
X221473Y338494*
Y337650*
X221336Y337144*
X221200Y336806*
X220927Y336469*
X220655Y336300*
X220109*
X219836Y336469*
X219564Y336806*
X219427Y337144*
X219291Y337650*
Y338494*
X219427Y339000*
X219564Y339338*
X219564D02*
X219836Y339675D01*
X220109Y339844*
X220655*
X218064D02*
Y337313D01*
X218064D02*
X217927Y336806D01*
X217655Y336469*
X217245Y336300*
X216973*
X216564Y336469*
X216291Y336806*
X216155Y337313*
X216155D02*
Y339844D01*
X213973D02*
Y336300D01*
X214927Y339844D02*
X213018D01*
X190700D02*
Y336300D01*
Y339844D02*
X189745D01*
X189336Y339675*
X189064Y339338*
X189064D02*
X188927Y339000D01*
X188791Y338494*
Y337650*
X188927Y337144*
X189064Y336806*
X189336Y336469*
X189745Y336300*
X190700*
X187564Y339844D02*
Y336300D01*
Y339844D02*
X186609D01*
X186200Y339675*
X185927Y339338*
X185927D02*
X185791Y339000D01*
X185655Y338494*
Y337650*
X185791Y337144*
X185927Y336806*
X186200Y336469*
X186609Y336300*
X187564*
X182518Y339338D02*
X182791Y339675D01*
X183200Y339844*
X183745*
X184155Y339675*
X184427Y339338*
X184427D02*
Y339000D01*
X184291Y338663*
X184291D02*
X184155Y338494D01*
X183882Y338325*
X183064Y337988*
X183064D02*
X182791Y337819D01*
X182655Y337650*
X182518Y337313*
X182518D02*
Y336806D01*
X182791Y336469*
X183200Y336300*
X183745*
X184155Y336469*
X184427Y336806*
X181291Y339169D02*
X181018Y339338D01*
X181018D02*
X180609Y339844D01*
Y336300*
X179382Y335625D02*
X176518D01*
X175700Y339844D02*
Y336300D01*
X173655Y339844D02*
X173927Y339675D01*
X174200Y339338*
X174200D02*
X174336Y339000D01*
X174473Y338494*
Y337650*
X174336Y337144*
X174200Y336806*
X173927Y336469*
X173655Y336300*
X173109*
X172836Y336469*
X172564Y336806*
X172427Y337144*
X172291Y337650*
Y338494*
X172427Y339000*
X172564Y339338*
X172564D02*
X172836Y339675D01*
X173109Y339844*
X173655*
X171064D02*
Y337313D01*
X171064D02*
X170927Y336806D01*
X170655Y336469*
X170245Y336300*
X169973*
X169564Y336469*
X169291Y336806*
X169155Y337313*
X169155D02*
Y339844D01*
X166973D02*
Y336300D01*
X167927Y339844D02*
X166018D01*
X164791D02*
Y336300D01*
Y339844D02*
X163564D01*
X163155Y339675*
X163018Y339506*
X162882Y339169*
Y338831*
X163018Y338494*
X163155Y338325*
X163564Y338156*
X164791D02*
X163564D01*
X163155Y337988*
X163155D02*
X163018Y337819D01*
X162882Y337481*
Y336975*
X163018Y336638*
X163018D02*
X163155Y336469D01*
X163564Y336300*
X164791*
X200700Y303844D02*
Y300300D01*
Y303844D02*
X199745D01*
X199336Y303675*
X199064Y303338*
X199064D02*
X198927Y303000D01*
X198791Y302494*
Y301650*
X198927Y301144*
X199064Y300806*
X199336Y300469*
X199745Y300300*
X200700*
X197564Y303844D02*
Y300300D01*
Y303844D02*
X196609D01*
X196200Y303675*
X195927Y303338*
X195927D02*
X195791Y303000D01*
X195655Y302494*
Y301650*
X195791Y301144*
X195927Y300806*
X196200Y300469*
X196609Y300300*
X197564*
X192518Y303338D02*
X192791Y303675D01*
X193200Y303844*
X193745*
X194155Y303675*
X194427Y303338*
X194427D02*
Y303000D01*
X194291Y302663*
X194291D02*
X194155Y302494D01*
X193882Y302325*
X193064Y301988*
X193064D02*
X192791Y301819D01*
X192655Y301650*
X192518Y301313*
X192518D02*
Y300806D01*
X192791Y300469*
X193200Y300300*
X193745*
X194155Y300469*
X194427Y300806*
X191291Y303169D02*
X191018Y303338D01*
X191018D02*
X190609Y303844D01*
Y300300*
X189382Y299625D02*
X186518D01*
X183791Y303338D02*
X184064Y303675D01*
X184473Y303844*
X185018*
X185427Y303675*
X185700Y303338*
X185700D02*
Y303000D01*
X185564Y302663*
X185564D02*
X185427Y302494D01*
X185155Y302325*
X184336Y301988*
X184336D02*
X184064Y301819D01*
X183927Y301650*
X183791Y301313*
X183791D02*
Y300806D01*
X184064Y300469*
X184473Y300300*
X185018*
X185427Y300469*
X185700Y300806*
X182564Y303844D02*
Y300300D01*
X181336Y303844D02*
Y300300D01*
Y303844D02*
X179427Y300300D01*
Y303844D02*
Y300300D01*
X178200Y299625D02*
X175336D01*
X173700Y303844D02*
X173973Y303675D01*
X174245Y303338*
X174245D02*
X174382Y303000D01*
X174518Y302494*
Y301650*
X174382Y301144*
X174245Y300806*
X173973Y300469*
X173700Y300300*
X173155*
X172882Y300469*
X172609Y300806*
X172473Y301144*
X172336Y301650*
Y302494*
X172473Y303000*
X172609Y303338*
X172609D02*
X172882Y303675D01*
X173155Y303844*
X173700*
X171109D02*
Y301313D01*
X171109D02*
X170973Y300806D01*
X170700Y300469*
X170291Y300300*
X170018*
X169609Y300469*
X169336Y300806*
X169200Y301313*
X169200D02*
Y303844D01*
X167018D02*
Y300300D01*
X167973Y303844D02*
X166064D01*
X193700Y253844D02*
Y250300D01*
Y253844D02*
X192745D01*
X192336Y253675*
X192064Y253338*
X192064D02*
X191927Y253000D01*
X191791Y252494*
Y251650*
X191927Y251144*
X192064Y250806*
X192336Y250469*
X192745Y250300*
X193700*
X190564Y253844D02*
Y250300D01*
Y253844D02*
X189609D01*
X189200Y253675*
X188927Y253338*
X188927D02*
X188791Y253000D01*
X188655Y252494*
Y251650*
X188791Y251144*
X188927Y250806*
X189200Y250469*
X189609Y250300*
X190564*
X185518Y253338D02*
X185791Y253675D01*
X186200Y253844*
X186745*
X187155Y253675*
X187427Y253338*
X187427D02*
Y253000D01*
X187291Y252663*
X187291D02*
X187155Y252494D01*
X186882Y252325*
X186064Y251988*
X186064D02*
X185791Y251819D01*
X185655Y251650*
X185518Y251313*
X185518D02*
Y250806D01*
X185791Y250469*
X186200Y250300*
X186745*
X187155Y250469*
X187427Y250806*
X184155Y253000D02*
Y253169D01*
X184018Y253506*
X183882Y253675*
X183609Y253844*
X183064*
X182791Y253675*
X182655Y253506*
X182518Y253169*
Y252831*
X182655Y252494*
X182927Y251988*
X182927D02*
X184291Y250300D01*
X182382*
X181155Y249625D02*
X178291D01*
X175427Y253000D02*
X175564Y253338D01*
X175564D02*
X175836Y253675D01*
X176109Y253844*
X176655*
X176927Y253675*
X177200Y253338*
X177200D02*
X177336Y253000D01*
X177473Y252494*
Y251650*
X177336Y251144*
X177200Y250806*
X176927Y250469*
X176655Y250300*
X176109*
X175836Y250469*
X175564Y250806*
X175427Y251144*
X173382Y253844D02*
X173655Y253675D01*
X173927Y253338*
X173927D02*
X174064Y253000D01*
X174200Y252494*
Y251650*
X174064Y251144*
X173927Y250806*
X173655Y250469*
X173382Y250300*
X172836*
X172564Y250469*
X172291Y250806*
X172155Y251144*
X172018Y251650*
Y252494*
X172155Y253000*
X172291Y253338*
X172291D02*
X172564Y253675D01*
X172836Y253844*
X173382*
X170791D02*
Y250300D01*
Y253844D02*
X169700Y250300D01*
X168609Y253844D02*
X169700Y250300D01*
X168609Y253844D02*
Y250300D01*
X167382Y253844D02*
Y250300D01*
Y253844D02*
X166155D01*
X165745Y253675*
X165609Y253506*
X165473Y253169*
Y252663*
X165473D02*
X165609Y252325D01*
X165745Y252156*
X166155Y251988*
X166155D02*
X167382D01*
X164245Y249625D02*
X161382D01*
X160564Y253844D02*
Y250300D01*
X159336Y253844D02*
Y250300D01*
Y253844D02*
X157427Y250300D01*
Y253844D02*
Y250300D01*
X215700Y273844D02*
Y270300D01*
Y273844D02*
X214745D01*
X214336Y273675*
X214064Y273338*
X214064D02*
X213927Y273000D01*
X213791Y272494*
Y271650*
X213927Y271144*
X214064Y270806*
X214336Y270469*
X214745Y270300*
X215700*
X212564Y273844D02*
Y270300D01*
Y273844D02*
X211609D01*
X211200Y273675*
X210927Y273338*
X210927D02*
X210791Y273000D01*
X210655Y272494*
Y271650*
X210791Y271144*
X210927Y270806*
X211200Y270469*
X211609Y270300*
X212564*
X207518Y273338D02*
X207791Y273675D01*
X208200Y273844*
X208745*
X209155Y273675*
X209427Y273338*
X209427D02*
Y273000D01*
X209291Y272663*
X209291D02*
X209155Y272494D01*
X208882Y272325*
X208064Y271988*
X208064D02*
X207791Y271819D01*
X207655Y271650*
X207518Y271313*
X207518D02*
Y270806D01*
X207791Y270469*
X208200Y270300*
X208745*
X209155Y270469*
X209427Y270806*
X206155Y273000D02*
Y273169D01*
X206018Y273506*
X205882Y273675*
X205609Y273844*
X205064*
X204791Y273675*
X204655Y273506*
X204518Y273169*
Y272831*
X204655Y272494*
X204927Y271988*
X204927D02*
X206291Y270300D01*
X204382*
X203155Y269625D02*
X200291D01*
X199473Y273844D02*
Y270300D01*
X197427Y273844D02*
X197700Y273675D01*
X197973Y273338*
X197973D02*
X198109Y273000D01*
X198245Y272494*
Y271650*
X198109Y271144*
X197973Y270806*
X197700Y270469*
X197427Y270300*
X196882*
X196609Y270469*
X196336Y270806*
X196200Y271144*
X196064Y271650*
Y272494*
X196200Y273000*
X196336Y273338*
X196336D02*
X196609Y273675D01*
X196882Y273844*
X197427*
X194836D02*
Y271313D01*
X194836D02*
X194700Y270806D01*
X194427Y270469*
X194018Y270300*
X193745*
X193336Y270469*
X193064Y270806*
X192927Y271313*
X192927D02*
Y273844D01*
X190745D02*
Y270300D01*
X191700Y273844D02*
X189791D01*
X186700D02*
Y270300D01*
Y273844D02*
X185745D01*
X185336Y273675*
X185064Y273338*
X185064D02*
X184927Y273000D01*
X184791Y272494*
Y271650*
X184927Y271144*
X185064Y270806*
X185336Y270469*
X185745Y270300*
X186700*
X183564Y273844D02*
Y270300D01*
Y273844D02*
X182609D01*
X182200Y273675*
X181927Y273338*
X181927D02*
X181791Y273000D01*
X181655Y272494*
Y271650*
X181791Y271144*
X181927Y270806*
X182200Y270469*
X182609Y270300*
X183564*
X178518Y273338D02*
X178791Y273675D01*
X179200Y273844*
X179745*
X180155Y273675*
X180427Y273338*
X180427D02*
Y273000D01*
X180291Y272663*
X180291D02*
X180155Y272494D01*
X179882Y272325*
X179064Y271988*
X179064D02*
X178791Y271819D01*
X178655Y271650*
X178518Y271313*
X178518D02*
Y270806D01*
X178791Y270469*
X179200Y270300*
X179745*
X180155Y270469*
X180427Y270806*
X177155Y273000D02*
Y273169D01*
X177018Y273506*
X176882Y273675*
X176609Y273844*
X176064*
X175791Y273675*
X175655Y273506*
X175518Y273169*
Y272831*
X175655Y272494*
X175927Y271988*
X175927D02*
X177291Y270300D01*
X175382*
X174155Y269625D02*
X171291D01*
X170473Y273844D02*
Y270300D01*
X168427Y273844D02*
X168700Y273675D01*
X168973Y273338*
X168973D02*
X169109Y273000D01*
X169245Y272494*
Y271650*
X169109Y271144*
X168973Y270806*
X168700Y270469*
X168427Y270300*
X167882*
X167609Y270469*
X167336Y270806*
X167200Y271144*
X167064Y271650*
Y272494*
X167200Y273000*
X167336Y273338*
X167336D02*
X167609Y273675D01*
X167882Y273844*
X168427*
X165836D02*
Y271313D01*
X165836D02*
X165700Y270806D01*
X165427Y270469*
X165018Y270300*
X164745*
X164336Y270469*
X164064Y270806*
X163927Y271313*
X163927D02*
Y273844D01*
X161745D02*
Y270300D01*
X162700Y273844D02*
X160791D01*
X159564D02*
Y270300D01*
Y273844D02*
X158336D01*
X157927Y273675*
X157791Y273506*
X157655Y273169*
Y272831*
X157791Y272494*
X157927Y272325*
X158336Y272156*
X159564D02*
X158336D01*
X157927Y271988*
X157927D02*
X157791Y271819D01*
X157655Y271481*
Y270975*
X157791Y270638*
X157791D02*
X157927Y270469D01*
X158336Y270300*
X159564*
X193700Y244844D02*
Y241300D01*
Y244844D02*
X192745D01*
X192336Y244675*
X192064Y244338*
X192064D02*
X191927Y244000D01*
X191791Y243494*
Y242650*
X191927Y242144*
X192064Y241806*
X192336Y241469*
X192745Y241300*
X193700*
X190564Y244844D02*
Y241300D01*
Y244844D02*
X189609D01*
X189200Y244675*
X188927Y244338*
X188927D02*
X188791Y244000D01*
X188655Y243494*
Y242650*
X188791Y242144*
X188927Y241806*
X189200Y241469*
X189609Y241300*
X190564*
X185518Y244338D02*
X185791Y244675D01*
X186200Y244844*
X186745*
X187155Y244675*
X187427Y244338*
X187427D02*
Y244000D01*
X187291Y243663*
X187291D02*
X187155Y243494D01*
X186882Y243325*
X186064Y242988*
X186064D02*
X185791Y242819D01*
X185655Y242650*
X185518Y242313*
X185518D02*
Y241806D01*
X185791Y241469*
X186200Y241300*
X186745*
X187155Y241469*
X187427Y241806*
X184155Y244000D02*
Y244169D01*
X184018Y244506*
X183882Y244675*
X183609Y244844*
X183064*
X182791Y244675*
X182655Y244506*
X182518Y244169*
Y243831*
X182655Y243494*
X182927Y242988*
X182927D02*
X184291Y241300D01*
X182382*
X181155Y240625D02*
X178291D01*
X175564Y244338D02*
X175836Y244675D01*
X176245Y244844*
X176791*
X177200Y244675*
X177473Y244338*
X177473D02*
Y244000D01*
X177336Y243663*
X177336D02*
X177200Y243494D01*
X176927Y243325*
X176109Y242988*
X176109D02*
X175836Y242819D01*
X175700Y242650*
X175564Y242313*
X175564D02*
Y241806D01*
X175836Y241469*
X176245Y241300*
X176791*
X177200Y241469*
X177473Y241806*
X174336Y244844D02*
Y241300D01*
X173109Y244844D02*
Y241300D01*
Y244844D02*
X171200Y241300D01*
Y244844D02*
Y241300D01*
X169973Y240625D02*
X167109D01*
X165473Y244844D02*
X165745Y244675D01*
X166018Y244338*
X166018D02*
X166155Y244000D01*
X166291Y243494*
Y242650*
X166155Y242144*
X166018Y241806*
X165745Y241469*
X165473Y241300*
X164927*
X164655Y241469*
X164382Y241806*
X164245Y242144*
X164109Y242650*
Y243494*
X164245Y244000*
X164382Y244338*
X164382D02*
X164655Y244675D01*
X164927Y244844*
X165473*
X162882D02*
Y242313D01*
X162882D02*
X162745Y241806D01*
X162473Y241469*
X162064Y241300*
X161791*
X161382Y241469*
X161109Y241806*
X160973Y242313*
X160973D02*
Y244844D01*
X158791D02*
Y241300D01*
X159745Y244844D02*
X157836D01*
X486156Y186882D02*
X486325Y187155D01*
X486662Y187427*
X486662D02*
X487000Y187564D01*
X487506Y187700*
X488350*
X488856Y187564*
X489194Y187427*
X489531Y187155*
X489700Y186882*
Y186336*
X489531Y186064*
X489194Y185791*
X488856Y185655*
X488350Y185518*
X487506*
X487000Y185655*
X486662Y185791*
X486662D02*
X486325Y186064D01*
X486156Y186336*
Y186882*
X489025Y186473D02*
X490038Y185655D01*
X490375Y184291D02*
Y181427D01*
X486156Y179518D02*
X489700Y180609D01*
X486156Y179518D02*
X489700Y178427D01*
X488519Y180200D02*
Y178836D01*
X486156Y177200D02*
X488687D01*
X488687D02*
X489194Y177064D01*
X489531Y176791*
X489700Y176382*
Y176109*
X489531Y175700*
X489194Y175427*
X488687Y175291*
X488687D02*
X486156D01*
Y174064D02*
X489700D01*
X486156D02*
Y173109D01*
X486325Y172700*
X486662Y172427*
X486662D02*
X487000Y172291D01*
X487506Y172155*
X488350*
X488856Y172291*
X489194Y172427*
X489531Y172700*
X489700Y173109*
Y174064*
X486156Y170927D02*
X489700D01*
X486156Y168882D02*
X486325Y169155D01*
X486662Y169427*
X486662D02*
X487000Y169564D01*
X487506Y169700*
X488350*
X488856Y169564*
X489194Y169427*
X489531Y169155*
X489700Y168882*
Y168336*
X489531Y168064*
X489194Y167791*
X488856Y167655*
X488350Y167518*
X487506*
X487000Y167655*
X486662Y167791*
X486662D02*
X486325Y168064D01*
X486156Y168336*
Y168882*
X490375Y166291D02*
Y163427D01*
X486156Y161791D02*
X486325Y162064D01*
X486662Y162336*
X486662D02*
X487000Y162473D01*
X487506Y162609*
X488350*
X488856Y162473*
X489194Y162336*
X489531Y162064*
X489700Y161791*
Y161245*
X489531Y160973*
X489194Y160700*
X488856Y160564*
X488350Y160427*
X487506*
X487000Y160564*
X486662Y160700*
X486662D02*
X486325Y160973D01*
X486156Y161245*
Y161791*
Y159200D02*
X488687D01*
X488687D02*
X489194Y159064D01*
X489531Y158791*
X489700Y158382*
Y158109*
X489531Y157700*
X489194Y157427*
X488687Y157291*
X488687D02*
X486156D01*
Y155109D02*
X489700D01*
X486156Y156064D02*
Y154155D01*
X478156Y135700D02*
X481700D01*
X482375Y134473D02*
Y131609D01*
X478156Y129700D02*
X481700Y130791D01*
X478156Y129700D02*
X481700Y128609D01*
X480519Y130382D02*
Y129018D01*
X478156Y127382D02*
X480687D01*
X480687D02*
X481194Y127245D01*
X481531Y126973*
X481700Y126564*
Y126291*
X481531Y125882*
X481194Y125609*
X480687Y125473*
X480687D02*
X478156D01*
Y124245D02*
X481700D01*
X478156D02*
Y123291D01*
X478325Y122882*
X478662Y122609*
X478662D02*
X479000Y122473D01*
X479506Y122336*
X480350*
X480856Y122473*
X481194Y122609*
X481531Y122882*
X481700Y123291*
Y124245*
X478156Y121109D02*
X481700D01*
X478156Y119064D02*
X478325Y119336D01*
X478662Y119609*
X478662D02*
X479000Y119745D01*
X479506Y119882*
X480350*
X480856Y119745*
X481194Y119609*
X481531Y119336*
X481700Y119064*
Y118518*
X481531Y118245*
X481194Y117973*
X480856Y117836*
X480350Y117700*
X479506*
X479000Y117836*
X478662Y117973*
X478662D02*
X478325Y118245D01*
X478156Y118518*
Y119064*
X482375Y116473D02*
Y113609D01*
X478156Y111973D02*
X478325Y112245D01*
X478662Y112518*
X478662D02*
X479000Y112655D01*
X479506Y112791*
X480350*
X480856Y112655*
X481194Y112518*
X481531Y112245*
X481700Y111973*
Y111427*
X481531Y111155*
X481194Y110882*
X480856Y110745*
X480350Y110609*
X479506*
X479000Y110745*
X478662Y110882*
X478662D02*
X478325Y111155D01*
X478156Y111427*
Y111973*
Y109382D02*
X480687D01*
X480687D02*
X481194Y109245D01*
X481531Y108973*
X481700Y108564*
Y108291*
X481531Y107882*
X481194Y107609*
X480687Y107473*
X480687D02*
X478156D01*
Y105291D02*
X481700D01*
X478156Y106245D02*
Y104336D01*
X277700Y313844D02*
Y310300D01*
Y313844D02*
X276473D01*
X276064Y313675*
X275927Y313506*
X275791Y313169*
Y312831*
X275927Y312494*
X276064Y312325*
X276473Y312156*
X277700D02*
X276473D01*
X276064Y311988*
X276064D02*
X275927Y311819D01*
X275791Y311481*
Y310975*
X275927Y310638*
X275927D02*
X276064Y310469D01*
X276473Y310300*
X277700*
X274564Y313844D02*
Y310300D01*
Y313844D02*
X273336D01*
X272927Y313675*
X272791Y313506*
X272655Y313169*
Y312663*
X272655D02*
X272791Y312325D01*
X272927Y312156*
X273336Y311988*
X273336D02*
X274564D01*
X270609Y313844D02*
X270882Y313675D01*
X271155Y313338*
X271155D02*
X271291Y313000D01*
X271427Y312494*
Y311650*
X271291Y311144*
X271155Y310806*
X270882Y310469*
X270609Y310300*
X270064*
X269791Y310469*
X269518Y310806*
X269382Y311144*
X269245Y311650*
Y312494*
X269382Y313000*
X269518Y313338*
X269518D02*
X269791Y313675D01*
X270064Y313844*
X270609*
X268018D02*
Y311313D01*
X268018D02*
X267882Y310806D01*
X267609Y310469*
X267200Y310300*
X266927*
X266518Y310469*
X266245Y310806*
X266109Y311313*
X266109D02*
Y313844D01*
X263927D02*
Y310300D01*
X264882Y313844D02*
X262973D01*
X261745Y309625D02*
X258882D01*
X257791Y313844D02*
X256291D01*
X257109Y312494*
X256700*
X256427Y312325*
X256291Y312156*
X256155Y311650*
Y311313*
X256155D02*
X256291Y310806D01*
X256564Y310469*
X256973Y310300*
X257382*
X257791Y310469*
X257927Y310638*
X257927D02*
X258064Y310975D01*
X316700Y300844D02*
Y297300D01*
Y300844D02*
X315473D01*
X315064Y300675*
X314927Y300506*
X314791Y300169*
Y299831*
X314927Y299494*
X315064Y299325*
X315473Y299156*
X316700*
X315745D02*
X314791Y297300D01*
X313564Y300844D02*
Y297300D01*
X312336Y300844D02*
Y297300D01*
Y300844D02*
X310427Y297300D01*
Y300844D02*
Y297300D01*
X309200Y296625D02*
X306336D01*
X305382Y300000D02*
Y300169D01*
X305245Y300506*
X305109Y300675*
X304836Y300844*
X304291*
X304018Y300675*
X303882Y300506*
X303745Y300169*
Y299831*
X303882Y299494*
X304155Y298988*
X304155D02*
X305518Y297300D01*
X303609*
X302382Y298819D02*
X299927D01*
X350700Y324844D02*
Y321300D01*
Y324844D02*
X349473D01*
X349064Y324675*
X348927Y324506*
X348791Y324169*
Y323831*
X348927Y323494*
X349064Y323325*
X349473Y323156*
X350700*
X349745D02*
X348791Y321300D01*
X346745Y324844D02*
X347018Y324675D01*
X347291Y324338*
X347291D02*
X347427Y324000D01*
X347564Y323494*
Y322650*
X347427Y322144*
X347291Y321806*
X347018Y321469*
X346745Y321300*
X346200*
X345927Y321469*
X345655Y321806*
X345518Y322144*
X345382Y322650*
Y323494*
X345518Y324000*
X345655Y324338*
X345655D02*
X345927Y324675D01*
X346200Y324844*
X346745*
X344155D02*
Y322313D01*
X344155D02*
X344018Y321806D01*
X343745Y321469*
X343336Y321300*
X343064*
X342655Y321469*
X342382Y321806*
X342245Y322313*
X342245D02*
Y324844D01*
X340064D02*
Y321300D01*
X341018Y324844D02*
X339109D01*
X337882Y324169D02*
X337609Y324338D01*
X337609D02*
X337200Y324844D01*
Y321300*
X335973Y320625D02*
X333109D01*
X332291Y324169D02*
X332018Y324338D01*
X332018D02*
X331609Y324844D01*
Y321300*
X350700Y314844D02*
Y311300D01*
Y314844D02*
X349473D01*
X349064Y314675*
X348927Y314506*
X348791Y314169*
Y313831*
X348927Y313494*
X349064Y313325*
X349473Y313156*
X350700*
X349745D02*
X348791Y311300D01*
X346745Y314844D02*
X347018Y314675D01*
X347291Y314338*
X347291D02*
X347427Y314000D01*
X347564Y313494*
Y312650*
X347427Y312144*
X347291Y311806*
X347018Y311469*
X346745Y311300*
X346200*
X345927Y311469*
X345655Y311806*
X345518Y312144*
X345382Y312650*
Y313494*
X345518Y314000*
X345655Y314338*
X345655D02*
X345927Y314675D01*
X346200Y314844*
X346745*
X344155D02*
Y312313D01*
X344155D02*
X344018Y311806D01*
X343745Y311469*
X343336Y311300*
X343064*
X342655Y311469*
X342382Y311806*
X342245Y312313*
X342245D02*
Y314844D01*
X340064D02*
Y311300D01*
X341018Y314844D02*
X339109D01*
X337745Y314000D02*
Y314169D01*
X337609Y314506*
X337473Y314675*
X337200Y314844*
X336655*
X336382Y314675*
X336245Y314506*
X336109Y314169*
Y313831*
X336245Y313494*
X336518Y312988*
X336518D02*
X337882Y311300D01*
X335973*
X334745Y310625D02*
X331882D01*
X331064Y314169D02*
X330791Y314338D01*
X330791D02*
X330382Y314844D01*
Y311300*
X242700Y313844D02*
Y310300D01*
Y313844D02*
X241473D01*
X241064Y313675*
X240927Y313506*
X240791Y313169*
Y312831*
X240927Y312494*
X241064Y312325*
X241473Y312156*
X242700D02*
X241473D01*
X241064Y311988*
X241064D02*
X240927Y311819D01*
X240791Y311481*
Y310975*
X240927Y310638*
X240927D02*
X241064Y310469D01*
X241473Y310300*
X242700*
X239564Y313844D02*
Y310300D01*
Y313844D02*
X238336D01*
X237927Y313675*
X237791Y313506*
X237655Y313169*
Y312663*
X237655D02*
X237791Y312325D01*
X237927Y312156*
X238336Y311988*
X238336D02*
X239564D01*
X236427Y313844D02*
Y310300D01*
X235200Y313844D02*
Y310300D01*
Y313844D02*
X233291Y310300D01*
Y313844D02*
Y310300D01*
X232064Y309625D02*
X229200D01*
X228109Y313844D02*
X226609D01*
X227427Y312494*
X227018*
X226745Y312325*
X226609Y312156*
X226473Y311650*
Y311313*
X226473D02*
X226609Y310806D01*
X226882Y310469*
X227291Y310300*
X227700*
X228109Y310469*
X228245Y310638*
X228245D02*
X228382Y310975D01*
X242700Y324844D02*
Y321300D01*
Y324844D02*
X241473D01*
X241064Y324675*
X240927Y324506*
X240791Y324169*
Y323831*
X240927Y323494*
X241064Y323325*
X241473Y323156*
X242700D02*
X241473D01*
X241064Y322988*
X241064D02*
X240927Y322819D01*
X240791Y322481*
Y321975*
X240927Y321638*
X240927D02*
X241064Y321469D01*
X241473Y321300*
X242700*
X239564Y324844D02*
Y321300D01*
Y324844D02*
X238336D01*
X237927Y324675*
X237791Y324506*
X237655Y324169*
Y323663*
X237655D02*
X237791Y323325D01*
X237927Y323156*
X238336Y322988*
X238336D02*
X239564D01*
X236427Y324844D02*
Y321300D01*
X235200Y324844D02*
Y321300D01*
Y324844D02*
X233291Y321300D01*
Y324844D02*
Y321300D01*
X232064Y320625D02*
X229200D01*
X228382Y324169D02*
X228109Y324338D01*
X228109D02*
X227700Y324844D01*
Y321300*
X277700Y323844D02*
Y320300D01*
Y323844D02*
X276473D01*
X276064Y323675*
X275927Y323506*
X275791Y323169*
Y322831*
X275927Y322494*
X276064Y322325*
X276473Y322156*
X277700D02*
X276473D01*
X276064Y321988*
X276064D02*
X275927Y321819D01*
X275791Y321481*
Y320975*
X275927Y320638*
X275927D02*
X276064Y320469D01*
X276473Y320300*
X277700*
X274564Y323844D02*
Y320300D01*
Y323844D02*
X273336D01*
X272927Y323675*
X272791Y323506*
X272655Y323169*
Y322663*
X272655D02*
X272791Y322325D01*
X272927Y322156*
X273336Y321988*
X273336D02*
X274564D01*
X270609Y323844D02*
X270882Y323675D01*
X271155Y323338*
X271155D02*
X271291Y323000D01*
X271427Y322494*
Y321650*
X271291Y321144*
X271155Y320806*
X270882Y320469*
X270609Y320300*
X270064*
X269791Y320469*
X269518Y320806*
X269382Y321144*
X269245Y321650*
Y322494*
X269382Y323000*
X269518Y323338*
X269518D02*
X269791Y323675D01*
X270064Y323844*
X270609*
X268018D02*
Y321313D01*
X268018D02*
X267882Y320806D01*
X267609Y320469*
X267200Y320300*
X266927*
X266518Y320469*
X266245Y320806*
X266109Y321313*
X266109D02*
Y323844D01*
X263927D02*
Y320300D01*
X264882Y323844D02*
X262973D01*
X261745Y319625D02*
X258882D01*
X258064Y323169D02*
X257791Y323338D01*
X257791D02*
X257382Y323844D01*
Y320300*
X316700Y329844D02*
Y326300D01*
Y329844D02*
X315473D01*
X315064Y329675*
X314927Y329506*
X314791Y329169*
Y328831*
X314927Y328494*
X315064Y328325*
X315473Y328156*
X316700*
X315745D02*
X314791Y326300D01*
X313564Y329844D02*
Y326300D01*
X312336Y329844D02*
Y326300D01*
Y329844D02*
X310427Y326300D01*
Y329844D02*
Y326300D01*
X309200Y325625D02*
X306336D01*
X305518Y329169D02*
X305245Y329338D01*
X305245D02*
X304836Y329844D01*
Y326300*
X303609Y327819D02*
X301155D01*
X316700Y320844D02*
Y317300D01*
Y320844D02*
X315473D01*
X315064Y320675*
X314927Y320506*
X314791Y320169*
Y319831*
X314927Y319494*
X315064Y319325*
X315473Y319156*
X316700*
X315745D02*
X314791Y317300D01*
X313564Y320844D02*
Y317300D01*
X312336Y320844D02*
Y317300D01*
Y320844D02*
X310427Y317300D01*
Y320844D02*
Y317300D01*
X309200Y316625D02*
X306336D01*
X305518Y320169D02*
X305245Y320338D01*
X305245D02*
X304836Y320844D01*
Y317300*
X302382Y320338D02*
Y317300D01*
X303609Y318819D02*
X301155D01*
X316700Y310844D02*
Y307300D01*
Y310844D02*
X315473D01*
X315064Y310675*
X314927Y310506*
X314791Y310169*
Y309831*
X314927Y309494*
X315064Y309325*
X315473Y309156*
X316700*
X315745D02*
X314791Y307300D01*
X313564Y310844D02*
Y307300D01*
X312336Y310844D02*
Y307300D01*
Y310844D02*
X310427Y307300D01*
Y310844D02*
Y307300D01*
X309200Y306625D02*
X306336D01*
X305382Y310000D02*
Y310169D01*
X305245Y310506*
X305109Y310675*
X304836Y310844*
X304291*
X304018Y310675*
X303882Y310506*
X303745Y310169*
Y309831*
X303882Y309494*
X304155Y308988*
X304155D02*
X305518Y307300D01*
X303609*
X301155Y310338D02*
Y307300D01*
X302382Y308819D02*
X299927D01*
X413700Y339844D02*
Y336300D01*
Y339844D02*
X412473D01*
X412064Y339675*
X411927Y339506*
X411791Y339169*
Y338831*
X411927Y338494*
X412064Y338325*
X412473Y338156*
X413700*
X412745D02*
X411791Y336300D01*
X410564Y339844D02*
Y336300D01*
Y339844D02*
X408791D01*
X410564Y338156D02*
X409473D01*
X299700Y173844D02*
Y170300D01*
Y173844D02*
X297791Y170300D01*
Y173844D02*
Y170300D01*
X296564Y173844D02*
Y170300D01*
Y173844D02*
X295336D01*
X294927Y173675*
X294791Y173506*
X294655Y173169*
Y172831*
X294791Y172494*
X294927Y172325*
X295336Y172156*
X296564*
X295609D02*
X294655Y170300D01*
X291518Y173338D02*
X291791Y173675D01*
X292200Y173844*
X292745*
X293155Y173675*
X293427Y173338*
X293427D02*
Y173000D01*
X293291Y172663*
X293291D02*
X293155Y172494D01*
X292882Y172325*
X292064Y171988*
X292064D02*
X291791Y171819D01*
X291655Y171650*
X291518Y171313*
X291518D02*
Y170806D01*
X291791Y170469*
X292200Y170300*
X292745*
X293155Y170469*
X293427Y170806*
X289336Y173844D02*
Y170300D01*
X290291Y173844D02*
X288382D01*
X295655Y193000D02*
X295791Y193338D01*
X295791D02*
X296064Y193675D01*
X296336Y193844*
X296882*
X297155Y193675*
X297427Y193338*
X297427D02*
X297564Y193000D01*
X297700Y192494*
Y191650*
X297564Y191144*
X297427Y190806*
X297155Y190469*
X296882Y190300*
X296336*
X296064Y190469*
X295791Y190806*
X295655Y191144*
Y191650*
X296336D02*
X295655D01*
X294427Y193844D02*
Y190300D01*
Y193844D02*
X292518Y190300D01*
Y193844D02*
Y190300D01*
X291291Y193844D02*
Y190300D01*
Y193844D02*
X290336D01*
X289927Y193675*
X289655Y193338*
X289655D02*
X289518Y193000D01*
X289382Y192494*
Y191650*
X289518Y191144*
X289655Y190806*
X289927Y190469*
X290336Y190300*
X291291*
X300791Y183338D02*
X301064Y183675D01*
X301473Y183844*
X302018*
X302427Y183675*
X302700Y183338*
X302700D02*
Y183000D01*
X302564Y182663*
X302564D02*
X302427Y182494D01*
X302155Y182325*
X301336Y181988*
X301336D02*
X301064Y181819D01*
X300927Y181650*
X300791Y181313*
X300791D02*
Y180806D01*
X301064Y180469*
X301473Y180300*
X302018*
X302427Y180469*
X302700Y180806*
X299564Y183844D02*
X298882Y180300D01*
X298200Y183844D02*
X298882Y180300D01*
X298200Y183844D02*
X297518Y180300D01*
X296836Y183844D02*
X297518Y180300D01*
X295609Y183844D02*
Y180300D01*
Y183844D02*
X294655D01*
X294245Y183675*
X293973Y183338*
X293973D02*
X293836Y183000D01*
X293700Y182494*
Y181650*
X293836Y181144*
X293973Y180806*
X294245Y180469*
X294655Y180300*
X295609*
X292473Y183844D02*
Y180300D01*
X290427Y183844D02*
X290700Y183675D01*
X290973Y183338*
X290973D02*
X291109Y183000D01*
X291245Y182494*
Y181650*
X291109Y181144*
X290973Y180806*
X290700Y180469*
X290427Y180300*
X289882*
X289609Y180469*
X289336Y180806*
X289200Y181144*
X289064Y181650*
Y182494*
X289200Y183000*
X289336Y183338*
X289336D02*
X289609Y183675D01*
X289882Y183844*
X290427*
X319700Y213844D02*
X318609Y210300D01*
X317518Y213844D02*
X318609Y210300D01*
X316291Y213844D02*
Y210300D01*
Y213844D02*
X315336D01*
X314927Y213675*
X314655Y213338*
X314655D02*
X314518Y213000D01*
X314382Y212494*
Y211650*
X314518Y211144*
X314655Y210806*
X314927Y210469*
X315336Y210300*
X316291*
X313155Y213844D02*
Y210300D01*
Y213844D02*
X312200D01*
X311791Y213675*
X311518Y213338*
X311518D02*
X311382Y213000D01*
X311245Y212494*
Y211650*
X311382Y211144*
X311518Y210806*
X311791Y210469*
X312200Y210300*
X313155*
X310018Y209625D02*
X307155D01*
X305382Y213844D02*
Y210300D01*
X306336Y213844D02*
X304427D01*
X302109D02*
X303200Y210300D01*
X302109Y213844D02*
X301018Y210300D01*
X302791Y211481D02*
X301427D01*
X299791Y213844D02*
Y210300D01*
Y213844D02*
X298564D01*
X298155Y213675*
X298018Y213506*
X297882Y213169*
Y212831*
X298018Y212494*
X298155Y212325*
X298564Y212156*
X299791*
X298836D02*
X297882Y210300D01*
X294609Y213000D02*
X294745Y213338D01*
X294745D02*
X295018Y213675D01*
X295291Y213844*
X295836*
X296109Y213675*
X296382Y213338*
X296382D02*
X296518Y213000D01*
X296655Y212494*
Y211650*
X296518Y211144*
X296382Y210806*
X296109Y210469*
X295836Y210300*
X295291*
X295018Y210469*
X294745Y210806*
X294609Y211144*
Y211650*
X295291D02*
X294609D01*
X293382Y213844D02*
Y210300D01*
Y213844D02*
X291609D01*
X293382Y212156D02*
X292291D01*
X293382Y210300D02*
X291609D01*
X289427Y213844D02*
Y210300D01*
X290382Y213844D02*
X288473D01*
X301791Y203338D02*
X302064Y203675D01*
X302473Y203844*
X303018*
X303427Y203675*
X303700Y203338*
X303700D02*
Y203000D01*
X303564Y202663*
X303564D02*
X303427Y202494D01*
X303155Y202325*
X302336Y201988*
X302336D02*
X302064Y201819D01*
X301927Y201650*
X301791Y201313*
X301791D02*
Y200806D01*
X302064Y200469*
X302473Y200300*
X303018*
X303427Y200469*
X303700Y200806*
X300564Y203844D02*
X299882Y200300D01*
X299200Y203844D02*
X299882Y200300D01*
X299200Y203844D02*
X298518Y200300D01*
X297836Y203844D02*
X298518Y200300D01*
X294564Y203000D02*
X294700Y203338D01*
X294700D02*
X294973Y203675D01*
X295245Y203844*
X295791*
X296064Y203675*
X296336Y203338*
X296336D02*
X296473Y203000D01*
X296609Y202494*
Y201650*
X296473Y201144*
X296336Y200806*
X296064Y200469*
X295791Y200300*
X295245*
X294973Y200469*
X294700Y200806*
X294564Y201144*
X293336Y203844D02*
Y200300D01*
X291700*
X290473Y203844D02*
Y200300D01*
X288564Y203844D02*
X290473Y201481D01*
X289791Y202325D02*
X288564Y200300D01*
X310700Y267844D02*
Y264300D01*
Y267844D02*
X309473D01*
X309064Y267675*
X308927Y267506*
X308791Y267169*
Y266831*
X308927Y266494*
X309064Y266325*
X309473Y266156*
X310700D02*
X309473D01*
X309064Y265988*
X309064D02*
X308927Y265819D01*
X308791Y265481*
Y264975*
X308927Y264638*
X308927D02*
X309064Y264469D01*
X309473Y264300*
X310700*
X307564Y267844D02*
Y264300D01*
Y267844D02*
X306336D01*
X305927Y267675*
X305791Y267506*
X305655Y267169*
Y266663*
X305655D02*
X305791Y266325D01*
X305927Y266156*
X306336Y265988*
X306336D02*
X307564D01*
X303609Y267844D02*
X303882Y267675D01*
X304155Y267338*
X304155D02*
X304291Y267000D01*
X304427Y266494*
Y265650*
X304291Y265144*
X304155Y264806*
X303882Y264469*
X303609Y264300*
X303064*
X302791Y264469*
X302518Y264806*
X302382Y265144*
X302245Y265650*
Y266494*
X302382Y267000*
X302518Y267338*
X302518D02*
X302791Y267675D01*
X303064Y267844*
X303609*
X301018D02*
Y265313D01*
X301018D02*
X300882Y264806D01*
X300609Y264469*
X300200Y264300*
X299927*
X299518Y264469*
X299245Y264806*
X299109Y265313*
X299109D02*
Y267844D01*
X296927D02*
Y264300D01*
X297882Y267844D02*
X295973D01*
X294745Y263625D02*
X291882D01*
X289700Y267844D02*
X291064Y265481D01*
X289018*
X289700Y267844D02*
Y264300D01*
X243700Y267844D02*
Y264300D01*
Y267844D02*
X242473D01*
X242064Y267675*
X241927Y267506*
X241791Y267169*
Y266831*
X241927Y266494*
X242064Y266325*
X242473Y266156*
X243700D02*
X242473D01*
X242064Y265988*
X242064D02*
X241927Y265819D01*
X241791Y265481*
Y264975*
X241927Y264638*
X241927D02*
X242064Y264469D01*
X242473Y264300*
X243700*
X240564Y267844D02*
Y264300D01*
Y267844D02*
X239336D01*
X238927Y267675*
X238791Y267506*
X238655Y267169*
Y266663*
X238655D02*
X238791Y266325D01*
X238927Y266156*
X239336Y265988*
X239336D02*
X240564D01*
X237427Y267844D02*
Y264300D01*
X236200Y267844D02*
Y264300D01*
Y267844D02*
X234291Y264300D01*
Y267844D02*
Y264300D01*
X233064Y263625D02*
X230200D01*
X228018Y267844D02*
X229382Y265481D01*
X227336*
X228018Y267844D02*
Y264300D01*
X310700Y276844D02*
Y273300D01*
Y276844D02*
X309473D01*
X309064Y276675*
X308927Y276506*
X308791Y276169*
Y275831*
X308927Y275494*
X309064Y275325*
X309473Y275156*
X310700D02*
X309473D01*
X309064Y274988*
X309064D02*
X308927Y274819D01*
X308791Y274481*
Y273975*
X308927Y273638*
X308927D02*
X309064Y273469D01*
X309473Y273300*
X310700*
X307564Y276844D02*
Y273300D01*
Y276844D02*
X306336D01*
X305927Y276675*
X305791Y276506*
X305655Y276169*
Y275663*
X305655D02*
X305791Y275325D01*
X305927Y275156*
X306336Y274988*
X306336D02*
X307564D01*
X303609Y276844D02*
X303882Y276675D01*
X304155Y276338*
X304155D02*
X304291Y276000D01*
X304427Y275494*
Y274650*
X304291Y274144*
X304155Y273806*
X303882Y273469*
X303609Y273300*
X303064*
X302791Y273469*
X302518Y273806*
X302382Y274144*
X302245Y274650*
Y275494*
X302382Y276000*
X302518Y276338*
X302518D02*
X302791Y276675D01*
X303064Y276844*
X303609*
X301018D02*
Y274313D01*
X301018D02*
X300882Y273806D01*
X300609Y273469*
X300200Y273300*
X299927*
X299518Y273469*
X299245Y273806*
X299109Y274313*
X299109D02*
Y276844D01*
X296927D02*
Y273300D01*
X297882Y276844D02*
X295973D01*
X294745Y272625D02*
X291882D01*
X290927Y276000D02*
Y276169D01*
X290791Y276506*
X290655Y276675*
X290382Y276844*
X289836*
X289564Y276675*
X289427Y276506*
X289291Y276169*
Y275831*
X289427Y275494*
X289700Y274988*
X289700D02*
X291064Y273300D01*
X289155*
X243700Y276844D02*
Y273300D01*
Y276844D02*
X242473D01*
X242064Y276675*
X241927Y276506*
X241791Y276169*
Y275831*
X241927Y275494*
X242064Y275325*
X242473Y275156*
X243700D02*
X242473D01*
X242064Y274988*
X242064D02*
X241927Y274819D01*
X241791Y274481*
Y273975*
X241927Y273638*
X241927D02*
X242064Y273469D01*
X242473Y273300*
X243700*
X240564Y276844D02*
Y273300D01*
Y276844D02*
X239336D01*
X238927Y276675*
X238791Y276506*
X238655Y276169*
Y275663*
X238655D02*
X238791Y275325D01*
X238927Y275156*
X239336Y274988*
X239336D02*
X240564D01*
X237427Y276844D02*
Y273300D01*
X236200Y276844D02*
Y273300D01*
Y276844D02*
X234291Y273300D01*
Y276844D02*
Y273300D01*
X233064Y272625D02*
X230200D01*
X229245Y276000D02*
Y276169D01*
X229109Y276506*
X228973Y276675*
X228700Y276844*
X228155*
X227882Y276675*
X227745Y276506*
X227609Y276169*
Y275831*
X227745Y275494*
X228018Y274988*
X228018D02*
X229382Y273300D01*
X227473*
X186609Y143844D02*
X187700Y140300D01*
X186609Y143844D02*
X185518Y140300D01*
X187291Y141481D02*
X185927D01*
X184291Y143844D02*
Y140300D01*
Y143844D02*
X183336D01*
X182927Y143675*
X182655Y143338*
X182655D02*
X182518Y143000D01*
X182382Y142494*
Y141650*
X182518Y141144*
X182655Y140806*
X182927Y140469*
X183336Y140300*
X184291*
X179109Y143000D02*
X179245Y143338D01*
X179245D02*
X179518Y143675D01*
X179791Y143844*
X180336*
X180609Y143675*
X180882Y143338*
X180882D02*
X181018Y143000D01*
X181155Y142494*
Y141650*
X181018Y141144*
X180882Y140806*
X180609Y140469*
X180336Y140300*
X179791*
X179518Y140469*
X179245Y140806*
X179109Y141144*
X177064Y143844D02*
X177473Y143675D01*
X177745Y143169*
X177882Y142325*
Y141819*
X177745Y140975*
X177473Y140469*
X177064Y140300*
X176791*
X176382Y140469*
X176109Y140975*
X175973Y141819*
Y142325*
X176109Y143169*
X176382Y143675*
X176791Y143844*
X177064*
X207609Y161844D02*
X208700Y158300D01*
X207609Y161844D02*
X206518Y158300D01*
X208291Y159481D02*
X206927D01*
X205291Y161844D02*
Y158300D01*
Y161844D02*
X204336D01*
X203927Y161675*
X203655Y161338*
X203655D02*
X203518Y161000D01*
X203382Y160494*
Y159650*
X203518Y159144*
X203655Y158806*
X203927Y158469*
X204336Y158300*
X205291*
X200109Y161000D02*
X200245Y161338D01*
X200245D02*
X200518Y161675D01*
X200791Y161844*
X201336*
X201609Y161675*
X201882Y161338*
X201882D02*
X202018Y161000D01*
X202155Y160494*
Y159650*
X202018Y159144*
X201882Y158806*
X201609Y158469*
X201336Y158300*
X200791*
X200518Y158469*
X200245Y158806*
X200109Y159144*
X198882Y161169D02*
X198609Y161338D01*
X198609D02*
X198200Y161844D01*
Y158300*
X186609Y153844D02*
X187700Y150300D01*
X186609Y153844D02*
X185518Y150300D01*
X187291Y151481D02*
X185927D01*
X184291Y153844D02*
Y150300D01*
Y153844D02*
X183336D01*
X182927Y153675*
X182655Y153338*
X182655D02*
X182518Y153000D01*
X182382Y152494*
Y151650*
X182518Y151144*
X182655Y150806*
X182927Y150469*
X183336Y150300*
X184291*
X179109Y153000D02*
X179245Y153338D01*
X179245D02*
X179518Y153675D01*
X179791Y153844*
X180336*
X180609Y153675*
X180882Y153338*
X180882D02*
X181018Y153000D01*
X181155Y152494*
Y151650*
X181018Y151144*
X180882Y150806*
X180609Y150469*
X180336Y150300*
X179791*
X179518Y150469*
X179245Y150806*
X179109Y151144*
X177745Y153000D02*
Y153169D01*
X177609Y153506*
X177473Y153675*
X177200Y153844*
X176655*
X176382Y153675*
X176245Y153506*
X176109Y153169*
Y152831*
X176245Y152494*
X176518Y151988*
X176518D02*
X177882Y150300D01*
X175973*
X229700Y143844D02*
Y140300D01*
Y143844D02*
X228745D01*
X228336Y143675*
X228064Y143338*
X228064D02*
X227927Y143000D01*
X227791Y142494*
Y141650*
X227927Y141144*
X228064Y140806*
X228336Y140469*
X228745Y140300*
X229700*
X225473Y143844D02*
X226564Y140300D01*
X225473Y143844D02*
X224382Y140300D01*
X226155Y141481D02*
X224791D01*
X221109Y143000D02*
X221245Y143338D01*
X221245D02*
X221518Y143675D01*
X221791Y143844*
X222336*
X222609Y143675*
X222882Y143338*
X222882D02*
X223018Y143000D01*
X223155Y142494*
Y141650*
X223018Y141144*
X222882Y140806*
X222609Y140469*
X222336Y140300*
X221791*
X221518Y140469*
X221245Y140806*
X221109Y141144*
X219882Y143169D02*
X219609Y143338D01*
X219609D02*
X219200Y143844D01*
Y140300*
X207700Y136844D02*
Y133300D01*
Y136844D02*
X206745D01*
X206336Y136675*
X206064Y136338*
X206064D02*
X205927Y136000D01*
X205791Y135494*
Y134650*
X205927Y134144*
X206064Y133806*
X206336Y133469*
X206745Y133300*
X207700*
X203473Y136844D02*
X204564Y133300D01*
X203473Y136844D02*
X202382Y133300D01*
X204155Y134481D02*
X202791D01*
X199109Y136000D02*
X199245Y136338D01*
X199245D02*
X199518Y136675D01*
X199791Y136844*
X200336*
X200609Y136675*
X200882Y136338*
X200882D02*
X201018Y136000D01*
X201155Y135494*
Y134650*
X201018Y134144*
X200882Y133806*
X200609Y133469*
X200336Y133300*
X199791*
X199518Y133469*
X199245Y133806*
X199109Y134144*
X197745Y136000D02*
Y136169D01*
X197609Y136506*
X197473Y136675*
X197200Y136844*
X196655*
X196382Y136675*
X196245Y136506*
X196109Y136169*
Y135831*
X196245Y135494*
X196518Y134988*
X196518D02*
X197882Y133300D01*
X195973*
X156700Y121844D02*
Y118300D01*
X155064*
X151791Y121000D02*
X151927Y121338D01*
X151927D02*
X152200Y121675D01*
X152473Y121844*
X153018*
X153291Y121675*
X153564Y121338*
X153564D02*
X153700Y121000D01*
X153836Y120494*
Y119650*
X153700Y119144*
X153564Y118806*
X153291Y118469*
X153018Y118300*
X152473*
X152200Y118469*
X151927Y118806*
X151791Y119144*
X150564Y121844D02*
Y118300D01*
Y121844D02*
X149609D01*
X149200Y121675*
X148927Y121338*
X148927D02*
X148791Y121000D01*
X148655Y120494*
Y119650*
X148791Y119144*
X148927Y118806*
X149200Y118469*
X149609Y118300*
X150564*
X144973Y122519D02*
X147427Y117119D01*
X141836Y121338D02*
X142109Y121675D01*
X142518Y121844*
X143064*
X143473Y121675*
X143745Y121338*
X143745D02*
Y121000D01*
X143609Y120663*
X143609D02*
X143473Y120494D01*
X143200Y120325*
X142382Y119988*
X142382D02*
X142109Y119819D01*
X141973Y119650*
X141836Y119313*
X141836D02*
Y118806D01*
X142109Y118469*
X142518Y118300*
X143064*
X143473Y118469*
X143745Y118806*
X140609Y121844D02*
Y118300D01*
Y121844D02*
X139655D01*
X139245Y121675*
X138973Y121338*
X138973D02*
X138836Y121000D01*
X138700Y120494*
Y119650*
X138836Y119144*
X138973Y118806*
X139245Y118469*
X139655Y118300*
X140609*
X137473Y117625D02*
X134609D01*
X131745Y121000D02*
X131882Y121338D01*
X131882D02*
X132155Y121675D01*
X132427Y121844*
X132973*
X133245Y121675*
X133518Y121338*
X133518D02*
X133655Y121000D01*
X133791Y120494*
Y119650*
X133655Y119144*
X133518Y118806*
X133245Y118469*
X132973Y118300*
X132427*
X132155Y118469*
X131882Y118806*
X131745Y119144*
X129427Y121844D02*
X130518Y118300D01*
X129427Y121844D02*
X128336Y118300D01*
X130109Y119481D02*
X128745D01*
X127109Y121844D02*
Y118300D01*
Y121844D02*
X125882D01*
X125473Y121675*
X125336Y121506*
X125200Y121169*
Y120831*
X125336Y120494*
X125473Y120325*
X125882Y120156*
X127109*
X126155D02*
X125200Y118300D01*
X123973Y121844D02*
Y118300D01*
Y121844D02*
X123018D01*
X122609Y121675*
X122336Y121338*
X122336D02*
X122200Y121000D01*
X122064Y120494*
Y119650*
X122200Y119144*
X122336Y118806*
X122609Y118469*
X123018Y118300*
X123973*
X450700Y255844D02*
Y252300D01*
Y255844D02*
X449473D01*
X449064Y255675*
X448927Y255506*
X448791Y255169*
Y254831*
X448927Y254494*
X449064Y254325*
X449473Y254156*
X450700*
X449745D02*
X448791Y252300D01*
X447564Y255844D02*
Y252300D01*
Y255844D02*
X446473Y252300D01*
X445382Y255844D02*
X446473Y252300D01*
X445382Y255844D02*
Y252300D01*
X444155Y255844D02*
Y253313D01*
X444018Y252806*
X443745Y252469*
X443336Y252300*
X443064*
X442655Y252469*
X442382Y252806*
X442245Y253313*
Y255844*
X441018D02*
X439109Y252300D01*
Y255844D02*
X441018Y252300D01*
X437064Y255844D02*
X437473Y255675D01*
X437745Y255169*
X437882Y254325*
Y253819*
X437745Y252975*
X437473Y252469*
X437064Y252300*
X436791*
X436382Y252469*
X436109Y252975*
X435973Y253819*
Y254325*
X436109Y255169*
X436382Y255675*
X436791Y255844*
X437064*
X451700Y231844D02*
Y228300D01*
Y231844D02*
X450473D01*
X450064Y231675*
X449927Y231506*
X449791Y231169*
Y230831*
X449927Y230494*
X450064Y230325*
X450473Y230156*
X451700*
X450745D02*
X449791Y228300D01*
X448564Y231844D02*
Y228300D01*
Y231844D02*
X447473Y228300D01*
X446382Y231844D02*
X447473Y228300D01*
X446382Y231844D02*
Y228300D01*
X445155Y231844D02*
Y229313D01*
X445155D02*
X445018Y228806D01*
X444745Y228469*
X444336Y228300*
X444064*
X443655Y228469*
X443382Y228806*
X443245Y229313*
X443245D02*
Y231844D01*
X442018D02*
X440109Y228300D01*
Y231844D02*
X442018Y228300D01*
X438882Y231169D02*
X438609Y231338D01*
X438609D02*
X438200Y231844D01*
Y228300*
X336745Y244844D02*
Y241300D01*
X337700Y244844D02*
X335791D01*
X334564D02*
Y241300D01*
Y244844D02*
X333473Y241300D01*
X332382Y244844D02*
X333473Y241300D01*
X332382Y244844D02*
Y241300D01*
X331155Y244844D02*
Y242313D01*
X331155D02*
X331018Y241806D01*
X330745Y241469*
X330336Y241300*
X330064*
X329655Y241469*
X329382Y241806*
X329245Y242313*
X329245D02*
Y244844D01*
X328018D02*
X326109Y241300D01*
Y244844D02*
X328018Y241300D01*
X324064Y244844D02*
X324473Y244675D01*
X324745Y244169*
X324882Y243325*
Y242819*
X324745Y241975*
X324473Y241469*
X324064Y241300*
X323791*
X323382Y241469*
X323109Y241975*
X322973Y242819*
Y243325*
X323109Y244169*
X323382Y244675*
X323791Y244844*
X324064*
X355745Y290844D02*
Y287300D01*
X356700Y290844D02*
X354791D01*
X353564D02*
Y287300D01*
Y290844D02*
X352473Y287300D01*
X351382Y290844D02*
X352473Y287300D01*
X351382Y290844D02*
Y287300D01*
X350155Y290844D02*
Y288313D01*
X350018Y287806*
X349745Y287469*
X349336Y287300*
X349064*
X348655Y287469*
X348382Y287806*
X348245Y288313*
Y290844*
X347018D02*
X345109Y287300D01*
Y290844D02*
X347018Y287300D01*
X343882Y290169D02*
X343609Y290338D01*
X343200Y290844*
Y287300*
X431156Y140700D02*
X434700D01*
X435375Y139473D02*
Y136609D01*
X431156Y134700D02*
X434700Y135791D01*
X431156Y134700D02*
X434700Y133609D01*
X433519Y135382D02*
Y134018D01*
X431156Y132382D02*
X433687D01*
X434194Y132245*
X434531Y131973*
X434700Y131564*
Y131291*
X434531Y130882*
X434194Y130609*
X433687Y130473*
X431156*
Y129245D02*
X434700D01*
X431156D02*
Y128291D01*
X431325Y127882*
X431662Y127609*
X432000Y127473*
X432506Y127336*
X433350*
X433856Y127473*
X434194Y127609*
X434531Y127882*
X434700Y128291*
Y129245*
X431156Y126109D02*
X434700D01*
X431156Y124064D02*
X431325Y124336D01*
X431662Y124609*
X432000Y124745*
X432506Y124882*
X433350*
X433856Y124745*
X434194Y124609*
X434531Y124336*
X434700Y124064*
Y123518*
X434531Y123245*
X434194Y122973*
X433856Y122836*
X433350Y122700*
X432506*
X432000Y122836*
X431662Y122973*
X431325Y123245*
X431156Y123518*
Y124064*
X435375Y121473D02*
Y118609D01*
X431156Y117791D02*
X434700D01*
X431156Y116564D02*
X434700D01*
X431156D02*
X434700Y114655D01*
X431156D02*
X434700D01*
X420156Y182882D02*
X420325Y183155D01*
X420662Y183427*
X420662D02*
X421000Y183564D01*
X421506Y183700*
X422350*
X422856Y183564*
X423194Y183427*
X423531Y183155*
X423700Y182882*
Y182336*
X423531Y182064*
X423194Y181791*
X422856Y181655*
X422350Y181518*
X421506*
X421000Y181655*
X420662Y181791*
X420662D02*
X420325Y182064D01*
X420156Y182336*
Y182882*
X423025Y182473D02*
X424038Y181655D01*
X424375Y180291D02*
Y177427D01*
X420156Y175518D02*
X423700Y176609D01*
X420156Y175518D02*
X423700Y174427D01*
X422519Y176200D02*
Y174836D01*
X420156Y173200D02*
X422687D01*
X422687D02*
X423194Y173064D01*
X423531Y172791*
X423700Y172382*
Y172109*
X423531Y171700*
X423194Y171427*
X422687Y171291*
X422687D02*
X420156D01*
Y170064D02*
X423700D01*
X420156D02*
Y169109D01*
X420325Y168700*
X420662Y168427*
X420662D02*
X421000Y168291D01*
X421506Y168155*
X422350*
X422856Y168291*
X423194Y168427*
X423531Y168700*
X423700Y169109*
Y170064*
X420156Y166927D02*
X423700D01*
X420156Y164882D02*
X420325Y165155D01*
X420662Y165427*
X420662D02*
X421000Y165564D01*
X421506Y165700*
X422350*
X422856Y165564*
X423194Y165427*
X423531Y165155*
X423700Y164882*
Y164336*
X423531Y164064*
X423194Y163791*
X422856Y163655*
X422350Y163518*
X421506*
X421000Y163655*
X420662Y163791*
X420662D02*
X420325Y164064D01*
X420156Y164336*
Y164882*
X424375Y162291D02*
Y159427D01*
X420156Y158609D02*
X423700D01*
X420156Y157382D02*
X423700D01*
X420156D02*
X423700Y155473D01*
X420156D02*
X423700D01*
X393700Y324844D02*
Y321300D01*
Y324844D02*
X392473D01*
X392064Y324675*
X391927Y324506*
X391791Y324169*
Y323831*
X391927Y323494*
X392064Y323325*
X392473Y323156*
X393700*
X392745D02*
X391791Y321300D01*
X389745Y324844D02*
X390018Y324675D01*
X390291Y324338*
X390291D02*
X390427Y324000D01*
X390564Y323494*
Y322650*
X390427Y322144*
X390291Y321806*
X390018Y321469*
X389745Y321300*
X389200*
X388927Y321469*
X388655Y321806*
X388518Y322144*
X388382Y322650*
Y323494*
X388518Y324000*
X388655Y324338*
X388655D02*
X388927Y324675D01*
X389200Y324844*
X389745*
X387155D02*
Y322313D01*
X387155D02*
X387018Y321806D01*
X386745Y321469*
X386336Y321300*
X386064*
X385655Y321469*
X385382Y321806*
X385245Y322313*
X385245D02*
Y324844D01*
X383064D02*
Y321300D01*
X384018Y324844D02*
X382109D01*
X380882Y324169D02*
X380609Y324338D01*
X380609D02*
X380200Y324844D01*
Y321300*
X378973Y320625D02*
X376109D01*
X375155Y324000D02*
Y324169D01*
X375018Y324506*
X374882Y324675*
X374609Y324844*
X374064*
X373791Y324675*
X373655Y324506*
X373518Y324169*
Y323831*
X373655Y323494*
X373927Y322988*
X373927D02*
X375291Y321300D01*
X373382*
X394700Y314844D02*
Y311300D01*
Y314844D02*
X393473D01*
X393064Y314675*
X392927Y314506*
X392791Y314169*
Y313831*
X392927Y313494*
X393064Y313325*
X393473Y313156*
X394700*
X393745D02*
X392791Y311300D01*
X390745Y314844D02*
X391018Y314675D01*
X391291Y314338*
X391291D02*
X391427Y314000D01*
X391564Y313494*
Y312650*
X391427Y312144*
X391291Y311806*
X391018Y311469*
X390745Y311300*
X390200*
X389927Y311469*
X389655Y311806*
X389518Y312144*
X389382Y312650*
Y313494*
X389518Y314000*
X389655Y314338*
X389655D02*
X389927Y314675D01*
X390200Y314844*
X390745*
X388155D02*
Y312313D01*
X388155D02*
X388018Y311806D01*
X387745Y311469*
X387336Y311300*
X387064*
X386655Y311469*
X386382Y311806*
X386245Y312313*
X386245D02*
Y314844D01*
X384064D02*
Y311300D01*
X385018Y314844D02*
X383109D01*
X381745Y314000D02*
Y314169D01*
X381609Y314506*
X381473Y314675*
X381200Y314844*
X380655*
X380382Y314675*
X380245Y314506*
X380109Y314169*
Y313831*
X380245Y313494*
X380518Y312988*
X380518D02*
X381882Y311300D01*
X379973*
X378745Y310625D02*
X375882D01*
X374927Y314000D02*
Y314169D01*
X374791Y314506*
X374655Y314675*
X374382Y314844*
X373836*
X373564Y314675*
X373427Y314506*
X373291Y314169*
Y313831*
X373427Y313494*
X373700Y312988*
X373700D02*
X375064Y311300D01*
X373155*
X345700Y111844D02*
Y108300D01*
Y111844D02*
X344473D01*
X344064Y111675*
X343927Y111506*
X343791Y111169*
Y110831*
X343927Y110494*
X344064Y110325*
X344473Y110156*
X345700D02*
X344473D01*
X344064Y109988*
X344064D02*
X343927Y109819D01*
X343791Y109481*
Y108975*
X343927Y108638*
X343927D02*
X344064Y108469D01*
X344473Y108300*
X345700*
X341473Y111844D02*
X342564Y108300D01*
X341473Y111844D02*
X340382Y108300D01*
X342155Y109481D02*
X340791D01*
X338200Y111844D02*
Y108300D01*
X339155Y111844D02*
X337245D01*
X335064D02*
Y108300D01*
X336018Y111844D02*
X334109D01*
X332882Y109819D02*
X330427D01*
X226700Y120844D02*
Y117300D01*
Y120844D02*
X225473D01*
X225064Y120675*
X224927Y120506*
X224791Y120169*
Y119831*
X224927Y119494*
X225064Y119325*
X225473Y119156*
X226700D02*
X225473D01*
X225064Y118988*
X225064D02*
X224927Y118819D01*
X224791Y118481*
Y117975*
X224927Y117638*
X224927D02*
X225064Y117469D01*
X225473Y117300*
X226700*
X222745Y120844D02*
X223018Y120675D01*
X223291Y120338*
X223291D02*
X223427Y120000D01*
X223564Y119494*
Y118650*
X223427Y118144*
X223291Y117806*
X223018Y117469*
X222745Y117300*
X222200*
X221927Y117469*
X221655Y117806*
X221518Y118144*
X221382Y118650*
Y119494*
X221518Y120000*
X221655Y120338*
X221655D02*
X221927Y120675D01*
X222200Y120844*
X222745*
X219336D02*
X219609Y120675D01*
X219882Y120338*
X219882D02*
X220018Y120000D01*
X220155Y119494*
Y118650*
X220018Y118144*
X219882Y117806*
X219609Y117469*
X219336Y117300*
X218791*
X218518Y117469*
X218245Y117806*
X218109Y118144*
X217973Y118650*
Y119494*
X218109Y120000*
X218245Y120338*
X218245D02*
X218518Y120675D01*
X218791Y120844*
X219336*
X215791D02*
Y117300D01*
X216745Y120844D02*
X214836D01*
X212791D02*
X213200Y120675D01*
X213473Y120169*
X213609Y119325*
Y118819*
X213473Y117975*
X213200Y117469*
X212791Y117300*
X212518*
X212109Y117469*
X211836Y117975*
X211700Y118819*
Y119325*
X211836Y120169*
X212109Y120675*
X212518Y120844*
X212791*
X232427Y106844D02*
X230927D01*
X231745Y105494*
X231336*
X231064Y105325*
X230927Y105156*
X230791Y104650*
Y104313*
X230791D02*
X230927Y103806D01*
X231200Y103469*
X231609Y103300*
X232018*
X232427Y103469*
X232564Y103638*
X232564D02*
X232700Y103975D01*
X229564Y106844D02*
X228473Y103300D01*
X227382Y106844D02*
X228473Y103300D01*
X225882Y106844D02*
X224382D01*
X225200Y105494*
X224791*
X224518Y105325*
X224382Y105156*
X224245Y104650*
Y104313*
X224245D02*
X224382Y103806D01*
X224655Y103469*
X225064Y103300*
X225473*
X225882Y103469*
X226018Y103638*
X226018D02*
X226155Y103975D01*
X223018Y102625D02*
X220155D01*
X218518Y106844D02*
X218927Y106675D01*
X219200Y106169*
X219336Y105325*
Y104819*
X219200Y103975*
X218927Y103469*
X218518Y103300*
X218245*
X217836Y103469*
X217564Y103975*
X217427Y104819*
Y105325*
X217564Y106169*
X217836Y106675*
X218245Y106844*
X218518*
X248655Y106000D02*
X248791Y106338D01*
X248791D02*
X249064Y106675D01*
X249336Y106844*
X249882*
X250155Y106675*
X250427Y106338*
X250427D02*
X250564Y106000D01*
X250700Y105494*
Y104650*
X250564Y104144*
X250427Y103806*
X250155Y103469*
X249882Y103300*
X249336*
X249064Y103469*
X248791Y103806*
X248655Y104144*
Y104650*
X249336D02*
X248655D01*
X247427Y106844D02*
Y103300D01*
Y106844D02*
X245518Y103300D01*
Y106844D02*
Y103300D01*
X244291Y106844D02*
Y103300D01*
Y106844D02*
X243336D01*
X242927Y106675*
X242655Y106338*
X242655D02*
X242518Y106000D01*
X242382Y105494*
Y104650*
X242518Y104144*
X242655Y103806*
X242927Y103469*
X243336Y103300*
X244291*
X241155Y102625D02*
X238291D01*
X237473Y106169D02*
X237200Y106338D01*
X237200D02*
X236791Y106844D01*
Y103300*
X255700Y120844D02*
Y117300D01*
Y120844D02*
X254473D01*
X254064Y120675*
X253927Y120506*
X253791Y120169*
Y119831*
X253927Y119494*
X254064Y119325*
X254473Y119156*
X255700D02*
X254473D01*
X254064Y118988*
X254064D02*
X253927Y118819D01*
X253791Y118481*
Y117975*
X253927Y117638*
X253927D02*
X254064Y117469D01*
X254473Y117300*
X255700*
X251745Y120844D02*
X252018Y120675D01*
X252291Y120338*
X252291D02*
X252427Y120000D01*
X252564Y119494*
Y118650*
X252427Y118144*
X252291Y117806*
X252018Y117469*
X251745Y117300*
X251200*
X250927Y117469*
X250655Y117806*
X250518Y118144*
X250382Y118650*
Y119494*
X250518Y120000*
X250655Y120338*
X250655D02*
X250927Y120675D01*
X251200Y120844*
X251745*
X248336D02*
X248609Y120675D01*
X248882Y120338*
X248882D02*
X249018Y120000D01*
X249155Y119494*
Y118650*
X249018Y118144*
X248882Y117806*
X248609Y117469*
X248336Y117300*
X247791*
X247518Y117469*
X247245Y117806*
X247109Y118144*
X246973Y118650*
Y119494*
X247109Y120000*
X247245Y120338*
X247245D02*
X247518Y120675D01*
X247791Y120844*
X248336*
X244791D02*
Y117300D01*
X245745Y120844D02*
X243836D01*
X242609Y120169D02*
X242336Y120338D01*
X242336D02*
X241927Y120844D01*
Y117300*
X269427Y106844D02*
X267927D01*
X268745Y105494*
X268336*
X268064Y105325*
X267927Y105156*
X267791Y104650*
Y104313*
X267791D02*
X267927Y103806D01*
X268200Y103469*
X268609Y103300*
X269018*
X269427Y103469*
X269564Y103638*
X269564D02*
X269700Y103975D01*
X266564Y106844D02*
X265473Y103300D01*
X264382Y106844D02*
X265473Y103300D01*
X262882Y106844D02*
X261382D01*
X262200Y105494*
X261791*
X261518Y105325*
X261382Y105156*
X261245Y104650*
Y104313*
X261245D02*
X261382Y103806D01*
X261655Y103469*
X262064Y103300*
X262473*
X262882Y103469*
X263018Y103638*
X263018D02*
X263155Y103975D01*
X260018Y102625D02*
X257155D01*
X256336Y106169D02*
X256064Y106338D01*
X256064D02*
X255655Y106844D01*
Y103300*
X210655Y106000D02*
X210791Y106338D01*
X210791D02*
X211064Y106675D01*
X211336Y106844*
X211882*
X212155Y106675*
X212427Y106338*
X212427D02*
X212564Y106000D01*
X212700Y105494*
Y104650*
X212564Y104144*
X212427Y103806*
X212155Y103469*
X211882Y103300*
X211336*
X211064Y103469*
X210791Y103806*
X210655Y104144*
Y104650*
X211336D02*
X210655D01*
X209427Y106844D02*
Y103300D01*
Y106844D02*
X207518Y103300D01*
Y106844D02*
Y103300D01*
X206291Y106844D02*
Y103300D01*
Y106844D02*
X205336D01*
X204927Y106675*
X204655Y106338*
X204655D02*
X204518Y106000D01*
X204382Y105494*
Y104650*
X204518Y104144*
X204655Y103806*
X204927Y103469*
X205336Y103300*
X206291*
X203155Y102625D02*
X200291D01*
X198655Y106844D02*
X199064Y106675D01*
X199336Y106169*
X199473Y105325*
Y104819*
X199336Y103975*
X199064Y103469*
X198655Y103300*
X198382*
X197973Y103469*
X197700Y103975*
X197564Y104819*
Y105325*
X197700Y106169*
X197973Y106675*
X198382Y106844*
X198655*
X345700Y121844D02*
Y118300D01*
Y121844D02*
X344473D01*
X344064Y121675*
X343927Y121506*
X343791Y121169*
Y120831*
X343927Y120494*
X344064Y120325*
X344473Y120156*
X345700D02*
X344473D01*
X344064Y119988*
X344064D02*
X343927Y119819D01*
X343791Y119481*
Y118975*
X343927Y118638*
X343927D02*
X344064Y118469D01*
X344473Y118300*
X345700*
X341473Y121844D02*
X342564Y118300D01*
X341473Y121844D02*
X340382Y118300D01*
X342155Y119481D02*
X340791D01*
X338200Y121844D02*
Y118300D01*
X339155Y121844D02*
X337245D01*
X335064D02*
Y118300D01*
X336018Y121844D02*
X334109D01*
X331655Y121338D02*
Y118300D01*
X332882Y119819D02*
X330427D01*
X436791Y295338D02*
X437064Y295675D01*
X437473Y295844*
X438018*
X438427Y295675*
X438700Y295338*
Y295000*
X438564Y294663*
X438427Y294494*
X438155Y294325*
X437336Y293988*
X437064Y293819*
X436927Y293650*
X436791Y293313*
Y292806*
X437064Y292469*
X437473Y292300*
X438018*
X438427Y292469*
X438700Y292806*
X435427Y295000D02*
Y295169D01*
X435291Y295506*
X435155Y295675*
X434882Y295844*
X434336*
X434064Y295675*
X433927Y295506*
X433791Y295169*
Y294831*
X433927Y294494*
X434200Y293988*
X435564Y292300*
X433655*
X485700Y322844D02*
Y319300D01*
Y322844D02*
X483927D01*
X485700Y321156D02*
X484609D01*
X485700Y319300D02*
X483927D01*
X482700Y322844D02*
Y319300D01*
Y322844D02*
X480791Y319300D01*
Y322844D02*
Y319300D01*
X477518Y322000D02*
X477655Y322338D01*
X477655D02*
X477927Y322675D01*
X478200Y322844*
X478745*
X479018Y322675*
X479291Y322338*
X479291D02*
X479427Y322000D01*
X479564Y321494*
Y320650*
X479427Y320144*
X479291Y319806*
X479018Y319469*
X478745Y319300*
X478200*
X477927Y319469*
X477655Y319806*
X477518Y320144*
X475200Y322844D02*
X476291Y319300D01*
X475200Y322844D02*
X474109Y319300D01*
X475882Y320481D02*
X474518D01*
X471700Y263844D02*
Y260300D01*
Y263844D02*
X469927D01*
X471700Y262156D02*
X470609D01*
X471700Y260300D02*
X469927D01*
X468700Y263844D02*
Y260300D01*
Y263844D02*
X466791Y260300D01*
Y263844D02*
Y260300D01*
X463518Y263000D02*
X463655Y263338D01*
X463655D02*
X463927Y263675D01*
X464200Y263844*
X464745*
X465018Y263675*
X465291Y263338*
X465291D02*
X465427Y263000D01*
X465564Y262494*
Y261650*
X465427Y261144*
X465291Y260806*
X465018Y260469*
X464745Y260300*
X464200*
X463927Y260469*
X463655Y260806*
X463518Y261144*
X462291Y263844D02*
Y260300D01*
Y263844D02*
X461064D01*
X460655Y263675*
X460518Y263506*
X460382Y263169*
Y262831*
X460518Y262494*
X460655Y262325*
X461064Y262156*
X462291D02*
X461064D01*
X460655Y261988*
X460655D02*
X460518Y261819D01*
X460382Y261481*
Y260975*
X460518Y260638*
X460518D02*
X460655Y260469D01*
X461064Y260300*
X462291*
X457791Y328338D02*
X458064Y328675D01*
X458473Y328844*
X459018*
X459427Y328675*
X459700Y328338*
X459700D02*
Y328000D01*
X459564Y327663*
X459564D02*
X459427Y327494D01*
X459155Y327325*
X458336Y326988*
X458336D02*
X458064Y326819D01*
X457927Y326650*
X457791Y326313*
X457791D02*
Y325806D01*
X458064Y325469*
X458473Y325300*
X459018*
X459427Y325469*
X459700Y325806*
X456564Y328844D02*
X455882Y325300D01*
X455200Y328844D02*
X455882Y325300D01*
X455200Y328844D02*
X454518Y325300D01*
X453836Y328844D02*
X454518Y325300D01*
X246700Y185844D02*
Y182300D01*
Y185844D02*
X245473D01*
X245064Y185675*
X244927Y185506*
X244791Y185169*
Y184663*
X244791D02*
X244927Y184325D01*
X245064Y184156*
X245473Y183988*
X245473D02*
X246700D01*
X241518Y185000D02*
X241655Y185338D01*
X241655D02*
X241927Y185675D01*
X242200Y185844*
X242745*
X243018Y185675*
X243291Y185338*
X243291D02*
X243427Y185000D01*
X243564Y184494*
Y183650*
X243427Y183144*
X243291Y182806*
X243018Y182469*
X242745Y182300*
X242200*
X241927Y182469*
X241655Y182806*
X241518Y183144*
X238518Y184663D02*
X238655Y184156D01*
X238927Y183819*
X239336Y183650*
X239473*
X239882Y183819*
X240155Y184156*
X240291Y184663*
X240291D02*
Y184831D01*
X240155Y185338*
X240155D02*
X239882Y185675D01*
X239473Y185844*
X239336*
X238927Y185675*
X238655Y185338*
X238655D02*
X238518Y184663D01*
X238518D02*
Y183819D01*
X238655Y182975*
X238927Y182469*
X239336Y182300*
X239609*
X240018Y182469*
X240155Y182806*
X266700Y177844D02*
Y174300D01*
Y177844D02*
X265473D01*
X265064Y177675*
X264927Y177506*
X264791Y177169*
Y176663*
X264791D02*
X264927Y176325D01*
X265064Y176156*
X265473Y175988*
X265473D02*
X266700D01*
X261518Y177000D02*
X261655Y177338D01*
X261655D02*
X261927Y177675D01*
X262200Y177844*
X262745*
X263018Y177675*
X263291Y177338*
X263291D02*
X263427Y177000D01*
X263564Y176494*
Y175650*
X263427Y175144*
X263291Y174806*
X263018Y174469*
X262745Y174300*
X262200*
X261927Y174469*
X261655Y174806*
X261518Y175144*
X259609Y177844D02*
X260018Y177675D01*
X260155Y177338*
X260155D02*
Y177000D01*
X260018Y176663*
X260018D02*
X259745Y176494D01*
X259200Y176325*
X258791Y176156*
X258518Y175819*
X258382Y175481*
Y174975*
X258518Y174638*
X258518D02*
X258655Y174469D01*
X259064Y174300*
X259609*
X260018Y174469*
X260155Y174638*
X260155D02*
X260291Y174975D01*
Y175481*
X260155Y175819*
X259882Y176156*
X259473Y176325*
X258927Y176494*
X258655Y176663*
X258655D02*
X258518Y177000D01*
Y177338*
X258518D02*
X258655Y177675D01*
X259064Y177844*
X259609*
X251700Y159844D02*
Y156300D01*
Y159844D02*
X250473D01*
X250064Y159675*
X249927Y159506*
X249791Y159169*
Y158663*
X249791D02*
X249927Y158325D01*
X250064Y158156*
X250473Y157988*
X250473D02*
X251700D01*
X246518Y159000D02*
X246655Y159338D01*
X246655D02*
X246927Y159675D01*
X247200Y159844*
X247745*
X248018Y159675*
X248291Y159338*
X248291D02*
X248427Y159000D01*
X248564Y158494*
Y157650*
X248427Y157144*
X248291Y156806*
X248018Y156469*
X247745Y156300*
X247200*
X246927Y156469*
X246655Y156806*
X246518Y157144*
X243382Y159844D02*
X244745Y156300D01*
X245291Y159844D02*
X243382D01*
X242155Y155625D02*
X239291D01*
X238473Y159844D02*
Y156300D01*
Y159844D02*
X237245D01*
X236836Y159675*
X236700Y159506*
X236564Y159169*
Y158831*
X236700Y158494*
X236836Y158325*
X237245Y158156*
X238473*
X237518D02*
X236564Y156300D01*
X235336Y159844D02*
X233427Y156300D01*
Y159844D02*
X235336Y156300D01*
X230564Y159338D02*
X230700Y159675D01*
X231109Y159844*
X231382*
X231791Y159675*
X232064Y159169*
X232200Y158325*
Y157481*
X232064Y156806*
X231791Y156469*
X231382Y156300*
X231245*
X230836Y156469*
X230564Y156806*
X230427Y157313*
X230427D02*
Y157481D01*
X230564Y157988*
X230564D02*
X230836Y158325D01*
X231245Y158494*
X231382*
X231791Y158325*
X232064Y157988*
X232064D02*
X232200Y157481D01*
X278700Y166844D02*
Y163300D01*
Y166844D02*
X277473D01*
X277064Y166675*
X276927Y166506*
X276791Y166169*
Y165663*
X276791D02*
X276927Y165325D01*
X277064Y165156*
X277473Y164988*
X277473D02*
X278700D01*
X273518Y166000D02*
X273655Y166338D01*
X273655D02*
X273927Y166675D01*
X274200Y166844*
X274745*
X275018Y166675*
X275291Y166338*
X275291D02*
X275427Y166000D01*
X275564Y165494*
Y164650*
X275427Y164144*
X275291Y163806*
X275018Y163469*
X274745Y163300*
X274200*
X273927Y163469*
X273655Y163806*
X273518Y164144*
X270655Y166338D02*
X270791Y166675D01*
X271200Y166844*
X271473*
X271882Y166675*
X272155Y166169*
X272291Y165325*
Y164481*
X272155Y163806*
X271882Y163469*
X271473Y163300*
X271336*
X270927Y163469*
X270655Y163806*
X270518Y164313*
X270518D02*
Y164481D01*
X270655Y164988*
X270655D02*
X270927Y165325D01*
X271336Y165494*
X271473*
X271882Y165325*
X272155Y164988*
X272155D02*
X272291Y164481D01*
X269291Y162625D02*
X266427D01*
X264655Y166844D02*
Y163300D01*
X265609Y166844D02*
X263700D01*
X262473D02*
X260564Y163300D01*
Y166844D02*
X262473Y163300D01*
X257700Y166338D02*
X257836Y166675D01*
X258245Y166844*
X258518*
X258927Y166675*
X259200Y166169*
X259336Y165325*
Y164481*
X259200Y163806*
X258927Y163469*
X258518Y163300*
X258382*
X257973Y163469*
X257700Y163806*
X257564Y164313*
X257564D02*
Y164481D01*
X257700Y164988*
X257700D02*
X257973Y165325D01*
X258382Y165494*
X258518*
X258927Y165325*
X259200Y164988*
X259200D02*
X259336Y164481D01*
X224700Y167844D02*
Y164300D01*
Y167844D02*
X223473D01*
X223064Y167675*
X222927Y167506*
X222791Y167169*
Y166663*
X222791D02*
X222927Y166325D01*
X223064Y166156*
X223473Y165988*
X223473D02*
X224700D01*
X219518Y167000D02*
X219655Y167338D01*
X219655D02*
X219927Y167675D01*
X220200Y167844*
X220745*
X221018Y167675*
X221291Y167338*
X221291D02*
X221427Y167000D01*
X221564Y166494*
Y165650*
X221427Y165144*
X221291Y164806*
X221018Y164469*
X220745Y164300*
X220200*
X219927Y164469*
X219655Y164806*
X219518Y165144*
X218018Y167844D02*
X216518D01*
X217336Y166494*
X216927*
X216655Y166325*
X216518Y166156*
X216382Y165650*
Y165313*
X216382D02*
X216518Y164806D01*
X216791Y164469*
X217200Y164300*
X217609*
X218018Y164469*
X218155Y164638*
X218155D02*
X218291Y164975D01*
X224700Y177844D02*
Y174300D01*
Y177844D02*
X223473D01*
X223064Y177675*
X222927Y177506*
X222791Y177169*
Y176663*
X222791D02*
X222927Y176325D01*
X223064Y176156*
X223473Y175988*
X223473D02*
X224700D01*
X219518Y177000D02*
X219655Y177338D01*
X219655D02*
X219927Y177675D01*
X220200Y177844*
X220745*
X221018Y177675*
X221291Y177338*
X221291D02*
X221427Y177000D01*
X221564Y176494*
Y175650*
X221427Y175144*
X221291Y174806*
X221018Y174469*
X220745Y174300*
X220200*
X219927Y174469*
X219655Y174806*
X219518Y175144*
X218155Y177000D02*
Y177169D01*
X218018Y177506*
X217882Y177675*
X217609Y177844*
X217064*
X216791Y177675*
X216655Y177506*
X216518Y177169*
Y176831*
X216655Y176494*
X216927Y175988*
X216927D02*
X218291Y174300D01*
X216382*
X224700Y187844D02*
Y184300D01*
Y187844D02*
X223473D01*
X223064Y187675*
X222927Y187506*
X222791Y187169*
Y186663*
X222791D02*
X222927Y186325D01*
X223064Y186156*
X223473Y185988*
X223473D02*
X224700D01*
X219518Y187000D02*
X219655Y187338D01*
X219655D02*
X219927Y187675D01*
X220200Y187844*
X220745*
X221018Y187675*
X221291Y187338*
X221291D02*
X221427Y187000D01*
X221564Y186494*
Y185650*
X221427Y185144*
X221291Y184806*
X221018Y184469*
X220745Y184300*
X220200*
X219927Y184469*
X219655Y184806*
X219518Y185144*
X218291Y187169D02*
X218018Y187338D01*
X218018D02*
X217609Y187844D01*
Y184300*
X214609Y187844D02*
X215973D01*
X216109Y186325*
X215973Y186494*
X215564Y186663*
X215564D02*
X215155D01*
X215155D02*
X214745Y186494D01*
X214473Y186156*
X214336Y185650*
X214473Y185313*
X214473D02*
X214609Y184806D01*
X214882Y184469*
X215291Y184300*
X215700*
X216109Y184469*
X216245Y184638*
X216245D02*
X216382Y184975D01*
X295700Y129844D02*
Y127313D01*
X295700D02*
X295564Y126806D01*
X295291Y126469*
X294882Y126300*
X294609*
X294200Y126469*
X293927Y126806*
X293791Y127313*
X293791D02*
Y129844D01*
X290655Y129338D02*
X290927Y129675D01*
X291336Y129844*
X291882*
X292291Y129675*
X292564Y129338*
X292564D02*
Y129000D01*
X292427Y128663*
X292427D02*
X292291Y128494D01*
X292018Y128325*
X291200Y127988*
X291200D02*
X290927Y127819D01*
X290791Y127650*
X290655Y127313*
X290655D02*
Y126806D01*
X290927Y126469*
X291336Y126300*
X291882*
X292291Y126469*
X292564Y126806*
X289427Y129844D02*
Y126300D01*
Y129844D02*
X288200D01*
X287791Y129675*
X287655Y129506*
X287518Y129169*
Y128831*
X287655Y128494*
X287791Y128325*
X288200Y128156*
X289427D02*
X288200D01*
X287791Y127988*
X287791D02*
X287655Y127819D01*
X287518Y127481*
Y126975*
X287655Y126638*
X287655D02*
X287791Y126469D01*
X288200Y126300*
X289427*
X0Y0D02*
M02*
