*
*
G04 PADS9.1 Build Number: 384028 generated Gerber (RS-274-X) file*
G04 PC Version=2.1*
*
%IN "PSDR_00BB.pcb"*%
*
%MOIN*%
*
%FSLAX35Y35*%
*
*
*
*
G04 PC Standard Apertures*
*
*
G04 Thermal Relief Aperture macro.*
%AMTER*
1,1,$1,0,0*
1,0,$1-$2,0,0*
21,0,$3,$4,0,0,45*
21,0,$3,$4,0,0,135*
%
*
*
G04 Annular Aperture macro.*
%AMANN*
1,1,$1,0,0*
1,0,$2,0,0*
%
*
*
G04 Odd Aperture macro.*
%AMODD*
1,1,$1,0,0*
1,0,$1-0.005,0,0*
%
*
*
G04 PC Custom Aperture Macros*
*
*
*
*
*
*
G04 PC Aperture Table*
*
%ADD042C,0.001*%
%ADD048C,0.07*%
%ADD053C,0.002*%
%ADD072C,0.062*%
%ADD149C,0.032*%
%ADD152C,0.063*%
*
*
*
*
G04 PC Circuitry*
G04 Layer Name PSDR_00BB.pcb - circuitry*
%LPD*%
*
*
G04 PC Custom Flashes*
G04 Layer Name PSDR_00BB.pcb - flashes*
%LPD*%
*
*
G04 PC Circuitry*
G04 Layer Name PSDR_00BB.pcb - circuitry*
%LPD*%
*
G54D42*
G54D48*
G01X159801Y284100D03*
X149801D03*
X206901Y312300D03*
X208000Y338000D03*
X197000D03*
X206901Y302300D03*
X199401Y252300D03*
X196801Y279100D03*
X186801D03*
X199401Y242300D03*
X488201Y147600D03*
Y131000D03*
X283801Y312100D03*
X294801Y298100D03*
X356901Y322300D03*
Y312300D03*
X221801Y312100D03*
Y322100D03*
X283801D03*
X294801Y328100D03*
Y318100D03*
Y308100D03*
X283801Y172100D03*
Y192100D03*
Y182100D03*
Y212100D03*
Y202100D03*
Y265100D03*
X221801D03*
X283801Y275100D03*
X221801D03*
X193801Y142100D03*
X203801Y152100D03*
X193801D03*
X213801Y142100D03*
X203801D03*
X363894Y242037D03*
Y232037D03*
Y222037D03*
Y212037D03*
Y202037D03*
Y192037D03*
Y182037D03*
Y172037D03*
Y162037D03*
X113894Y222037D03*
Y212037D03*
Y202037D03*
Y192037D03*
Y182037D03*
X445201Y261900D03*
X445000Y223000D03*
X344000Y243000D03*
X336901Y288800D03*
X424901Y130800D03*
Y147800D03*
X366901Y322300D03*
Y312300D03*
X325000Y110000D03*
X220901Y111800D03*
X230901D03*
X240901D03*
X250901D03*
X260901D03*
X211000Y112000D03*
X325000Y120000D03*
X468000Y320000D03*
X474000Y269000D03*
X458000Y320000D03*
X243000Y176000D03*
X253000D03*
X243000Y166000D03*
X253000D03*
X230000D03*
Y176000D03*
Y186000D03*
G54D53*
X115748Y336220D03*
X477953D03*
X194488Y115748D03*
X363780D03*
G54D72*
X311108Y108415D03*
Y117273D03*
X274494D03*
Y108415D03*
X311108Y117273D03*
X274494D03*
G54D149*
X438600Y338400D02*
X441400D01*
Y325600*
X438600*
Y338400*
Y327200D02*
X441400D01*
X438600Y330400D02*
X441400D01*
X438600Y333600D02*
X441400D01*
X438600Y336800D02*
X441400D01*
X439200Y325600D02*
Y338400D01*
X418600D02*
X421400D01*
Y325600*
X418600*
Y338400*
Y327200D02*
X421400D01*
X418600Y330400D02*
X421400D01*
X418600Y333600D02*
X421400D01*
X418600Y336800D02*
X421400D01*
X420000Y325600D02*
Y338400D01*
G54D152*
X474000Y303843D03*
Y284157D03*
Y294000D03*
X449394Y303843D03*
Y284157D03*
X0Y0D02*
M02*
