% M48 INCH,LZ
T1C.014F095S300
X012200Y010400
X011770Y010570
X011870Y014820
X011380Y014990
X010400Y015200
X012750Y019590
X011200Y019900
X010400Y019900
X012760Y020010
X012200Y020200
X010700Y020500
X010400Y020800
X010900Y021350
X010400Y022000
X011900Y022300
X010400Y022500
X012200Y022600
X011040Y022730
X012810Y025570
X011660Y026081
X011000Y026100
X011800Y026600
X010400Y026600
X012800Y026700
X010400Y029300
X011900Y029400
X011400Y029500
X010700Y029800
X011654Y030050
X011650Y033260
X011100Y033300
X010400Y033500
X012100Y033700
X012600Y034200
X011800Y035100
X013500Y035200
X013890Y034940
X013200Y034800
X013430Y034420
X015300Y033220
X014900Y032600
X014600Y031800
X014570Y031190
X014300Y029900
X015210Y027500
X014900Y027100
X013700Y026700
X015310Y026600
X013720Y025440
X015080Y024640
X012920Y024480
X013780Y023390
X014700Y021500
X014150Y021460
X014960Y021100
X014000Y021000
X014500Y020900
X014150Y020480
X014700Y020400
X013500Y019500
X014100Y019400
X013680Y019100
X014600Y018130
X013810Y018000
X013810Y016410
X015190Y015840
X013850Y014960
X012910Y014960
X014720Y014400
X014730Y011110
X012910Y010660
X015150Y010450
X015600Y010400
X017200Y010500
X017610Y014090
X017330Y014420
X016400Y014600
X017410Y014840
X017550Y015340
X015630Y015400
X017600Y016100
X017410Y016600
X016300Y016800
X015500Y017100
X016300Y017400
X017810Y018220
X017730Y018640
X016800Y018700
X017200Y019500
X017500Y020100
X017390Y020560
X017510Y021100
X017600Y021660
X017300Y021950
X017790Y022410
X017320Y022590
X015860Y022600
X017030Y023150
X017060Y023980
X015800Y024000
X017040Y025020
X015580Y025200
X017160Y025800
X017300Y026600
X017040Y027140
X017510Y027400
X017530Y027840
X017060Y028230
X015520Y028550
X017310Y028560
X017600Y028900
X017090Y029030
X017620Y029400
X016640Y029890
X017230Y030610
X015800Y030700
X016500Y030800
X017330Y031150
X016900Y031800
X017800Y032500
X015600Y032700
X017144Y032840
X016550Y033260
X017190Y033400
X017200Y033870
X016980Y034300
X017530Y034300
X020000Y033400
X018920Y033280
X018910Y031750
X019260Y031150
X019240Y030130
X018780Y030050
X018120Y028820
X018650Y028720
X019240Y027400
X020260Y026620
X019500Y026080
X018880Y025750
X019460Y025300
X018970Y024990
X018950Y024000
X019070Y023180
X020150Y023110
X019540Y023100
X018980Y021640
X019540Y021550
X019350Y019700
X019900Y019600
X018800Y019200
X019780Y018150
X018040Y017740
X018870Y017530
X018050Y016390
X018490Y016360
X018820Y016030
X017980Y015700
X019400Y015630
X018770Y014140
X020310Y013600
X018770Y013600
X018300Y012400
X018700Y012400
X018700Y012000
X019500Y011600
X020190Y011570
X020900Y011600
X022600Y011640
X021400Y011900
X020900Y012000
X022400Y012080
X021500Y012500
X020980Y012510
X021330Y012950
X020800Y013700
X022100Y013700
X020400Y014100
X021500Y014200
X021530Y014610
X020940Y015040
X022500Y015400
X022500Y016400
X021200Y017050
X022000Y017400
X021230Y017550
X022610Y017920
X020450Y018090
X022200Y018300
X022890Y018310
X020400Y019600
X020840Y019680
X020820Y020140
X020960Y021520
X021320Y021980
X020800Y022200
X020800Y023000
X022610Y023020
X022050Y023020
X021200Y023300
X021650Y023370
X020700Y023600
X021130Y024000
X021220Y024770
X020800Y025200
X021300Y025770
X020900Y026680
X022780Y027110
X021280Y027430
X020620Y027830
X022110Y028060
X022860Y029550
X020620Y029600
X021400Y029600
X021000Y029760
X020850Y030340
X021330Y030640
X020920Y031120
X021700Y032990
X021640Y033750
X022820Y034100
X021590Y034510
X025340Y034510
X023870Y034100
X023750Y031960
X024900Y031900
X024900Y030590
X023880Y029650
X025360Y029380
X025030Y027250
X023780Y027070
X025140Y026690
X025230Y025110
X024760Y024930
X023810Y023970
X024210Y023960
X025370Y023950
X023600Y023010
X024870Y023000
X023000Y021620
X023440Y021600
X025200Y021540
X025170Y020740
X025310Y020150
X023040Y020050
X023370Y018310
X023880Y018020
X024350Y017990
X023170Y017940
X024650Y017200
X024130Y017020
X023500Y016400
X023500Y015400
X024190Y014930
X024250Y014110
X024200Y013600
X024410Y013100
X023670Y012080
X024200Y011800
X025100Y011610
X023700Y011600
X025900Y013230
X027580Y014120
X026290Y014580
X027690Y015380
X026890Y015420
X026470Y015570
X025710Y015600
X026470Y016140
X027660Y016420
X025600Y017000
X027760Y017510
X026570Y017630
X026090Y017710
X027600Y018000
X025600Y018200
X027400Y018550
X026520Y018670
X027400Y019890
X027310Y020630
X026800Y021200
X027300Y021500
X025530Y022040
X027100Y022100
X026910Y022540
X027410Y023880
X026500Y025600
X025900Y025600
X026200Y025900
X025900Y026200
X026500Y026200
X027220Y026760
X026260Y027090
X027190Y027730
X026760Y027770
X027560Y028230
X026820Y028230
X025890Y028400
X026820Y029280
X025810Y029830
X027480Y029900
X026250Y029910
X025610Y030530
X027200Y031080
X025600Y031800
X025600Y032600
X025500Y033700
X025900Y035200
X028800Y033700
X029170Y031860
X029230Y031350
X029680Y031310
X027910Y030110
X029260Y030020
X028850Y030020
X029470Y029130
X028270Y028490
X028710Y028350
X029880Y028150
X028890Y026940
X029700Y026680
X028770Y026500
X030340Y026180
X029460Y025800
X028800Y025520
X028430Y024670
X029740Y024060
X030210Y023610
X029870Y022240
X028410Y021840
X028400Y021300
X030380Y020850
X029970Y020740
X028380Y020720
X029000Y018280
X028230Y018070
X028750Y016830
X028070Y016280
X028290Y015850
X030230Y015420
X030040Y013610
X030040Y013020
X027960Y012850
X032200Y012570
X032270Y013160
X032100Y013700
X032600Y013700
X032300Y014200
X030730Y014400
X032300Y014600
X032600Y015100
X032100Y015100
X031800Y015500
X030920Y018390
X032030Y018660
X032020Y019060
X030900Y019100
X031450Y019160
X032010Y019480
X031940Y020120
X031490Y020700
X030850Y021210
X031000Y022200
X032400Y022410
X031990Y022410
X031200Y022700
X032498Y023570
X032200Y024300
X030410Y025140
X031760Y025300
X031940Y026050
X030640Y026480
X031900Y026480
X032720Y026910
X032070Y027440
X032600Y027500
X031860Y027840
X032620Y027970
X032400Y028470
X032800Y028540
X031510Y028860
X030700Y029130
X031150Y029180
X031540Y029330
X031430Y030420
X030890Y032620
X032060Y032760
X030410Y033580
X030900Y034100
X031830Y034210
X031670Y034900
X032100Y035200
X033100Y034990
X033100Y032420
X034100Y032410
X035230Y031060
X034550Y030430
X033050Y030400
X035050Y030400
X033950Y029690
X034000Y028010
X033990Y027600
X035040Y027600
X034050Y026510
X035200Y026500
X034100Y026000
X035200Y025900
X034900Y025500
X033810Y025430
X033050Y025350
X033040Y024910
X033960Y024910
X035150Y024400
X032960Y023960
X035150Y023800
X033920Y023580
X034370Y023550
X034590Y022510
X034980Y022420
X035310Y022160
X034900Y021570
X034540Y021370
X033980Y020810
X035160Y019940
X033200Y019200
X034800Y018910
X033820Y018820
X033190Y018660
X033230Y018030
X034400Y017500
X033210Y017010
X034560Y015610
X033000Y015400
X033530Y015300
X034800Y015100
X033630Y013600
X034820Y013580
X034270Y013100
X035320Y012400
X033290Y012030
X037500Y011700
X037100Y013200
X037700Y013200
X037300Y015200
X035750Y015210
X036960Y016220
X035550Y016270
X037410Y016350
X036130Y018760
X036100Y019200
X035420Y020360
X036550Y020620
X037420Y020850
X036950Y021210
X035500Y021500
X037050Y021720
X037590Y022330
X035760Y022510
X037650Y023230
X035660Y023780
X035960Y024340
X036750Y024520
X037840Y024600
X036790Y025010
X036080Y025430
X036780Y025480
X037880Y025570
X036760Y026070
X035440Y027600
X036760Y027600
X036050Y027610
X036310Y028150
X035640Y028370
X036700Y028400
X037100Y028800
X037700Y029000
X037400Y029300
X037800Y029700
X036740Y029750
X036140Y029800
X035790Y030000
X036440Y030150
X035690Y030400
X036670Y032100
X036650Y032890
X036600Y035110
X038500Y035200
X038200Y034500
X038600Y033500
X038720Y033110
X039300Y032600
X038630Y032590
X038900Y032100
X038340Y031690
X039150Y030610
X039200Y029300
X039260Y028690
X039460Y027350
X038310Y027280
X039680Y027010
X038040Y026980
X038600Y026980
X038310Y025650
X038000Y025160
X039200Y024570
X039360Y023360
X039800Y022600
X039820Y021360
X038740Y020300
X038700Y019500
X040100Y019200
X039300Y019100
X038700Y018800
X038590Y018300
X038900Y017900
X038900Y017300
X039500Y017200
X038590Y016800
X039800Y016700
X039200Y016700
X039900Y015900
X039200Y015900
X038590Y015800
X039050Y015400
X038500Y015200
X039600Y014900
X038020Y013660
X039600Y013600
X038400Y013400
X038500Y012600
X039610Y012470
X037970Y012400
X040100Y011100
X040400Y011400
X041490Y013530
X041400Y014300
X042000Y015000
X042600Y015000
X041490Y015250
X042500Y015500
X041900Y015600
X042200Y016120
X041500Y016800
X040400Y016900
X041000Y017390
X041500Y017400
X041500Y018000
X041500Y018600
X040900Y018600
X041500Y019200
X040700Y019300
X042270Y019660
X041770Y020960
X042400Y021000
X041500Y021500
X040900Y021600
X041790Y021960
X040900Y022300
X041800Y022500
X041800Y023200
X041000Y023600
X042200Y023630
X041830Y023860
X041000Y024100
X042530Y026570
X042100Y026800
X041140Y028150
X042570Y029130
X041410Y030270
X042800Y031200
X041300Y032200
X041200Y032700
X041800Y033100
X040700Y033200
X042400Y033300
X041300Y033400
X041800Y033900
X041200Y034200
X042400Y034300
X042400Y035100
X043000Y034700
X043100Y034000
X043100Y033300
X043100Y031800
X043200Y029900
X043510Y024440
X044910Y024380
X044300Y022900
X043700Y022900
X044000Y022600
X043700Y022300
X044300Y022300
X043400Y019600
X044200Y019500
X044200Y019000
X044400Y016600
X044900Y016400
X044500Y016100
X043500Y016100
X044900Y015900
X043100Y015800
X044500Y015500
X043500Y015400
X043100Y015000
X046200Y018700
X045800Y019100
X045910Y020740
X047640Y021370
X045850Y022290
X046300Y022320
X045550Y022650
X047800Y023000
X046500Y023790
X047300Y024400
X047480Y025130
X048800Y024800
X048900Y023100
X048420Y022600
X048900Y022400
X048900Y021700
X048290Y021410
X048800Y021150
X048350Y020910
T2C.03346F197S550
X027700Y011000
X027700Y012400
T3C.037F197S550
X017400Y013500
X017400Y017500
X028900Y017500
X028900Y013500
X032900Y011200
X033900Y011200
X034900Y011200
X035900Y011200
X036900Y011200
T4C.0374F197S550
X010807Y015650
X011693Y015650
X011693Y019311
X010807Y019311
T5C.03937F197S550
X045534Y017956G85X046926Y016564
X044936Y017357G85X046328Y015965
X048318Y017956G85X046926Y019347
X048917Y018554G85X047525Y019946
T6C.04724F139S550
X040315Y020961
X040315Y021961
X040315Y022961
X040315Y023961
X040315Y024961
X040315Y025961
X040315Y026961
X040315Y027961
X040315Y028961
X042096Y032551
X042096Y031551
X042096Y030551
X042096Y029551
X042096Y028551
X042096Y027551
T7C.08F074S550
X034500Y014300
X042100Y014300
T8C.11811F069S658
X030472Y011181
X011181Y028012
X039724Y034409
T9C.11811F069S658
X016299Y010984
X011215Y034376
X039101Y011047
X048189Y023976
T10C.12598F035S794
X015827Y018248
X015827Y031673
X039921Y031673
X039921Y018248
M30
