*
*
G04 PADS 9.5 Build Number: 522968 generated Gerber (RS-274-X) file*
G04 PC Version=2.1*
*
%IN "PSDR.pcb"*%
*
%MOIN*%
*
%FSLAX35Y35*%
*
*
*
*
G04 PC Standard Apertures*
*
*
G04 Thermal Relief Aperture macro.*
%AMTER*
1,1,$1,0,0*
1,0,$1-$2,0,0*
21,0,$3,$4,0,0,45*
21,0,$3,$4,0,0,135*
%
*
*
G04 Annular Aperture macro.*
%AMANN*
1,1,$1,0,0*
1,0,$2,0,0*
%
*
*
G04 Odd Aperture macro.*
%AMODD*
1,1,$1,0,0*
1,0,$1-0.005,0,0*
%
*
*
G04 PC Custom Aperture Macros*
*
*
*
*
*
*
G04 PC Aperture Table*
*
%ADD010C,0.001*%
%ADD011C,0.008*%
%ADD012C,0.00787*%
%ADD082C,0.006*%
%ADD146C,0.01*%
%ADD147C,0.00787*%
*
*
*
*
G04 PC Circuitry*
G04 Layer Name PSDR.pcb - circuitry*
%LPD*%
*
*
G04 PC Custom Flashes*
G04 Layer Name PSDR.pcb - flashes*
%LPD*%
*
*
G04 PC Circuitry*
G04 Layer Name PSDR.pcb - circuitry*
%LPD*%
*
G54D10*
G54D11*
G01X268323Y143709D02*
Y130913D01*
X273677*
Y143709*
X268323*
X273534Y132291D02*
X268335D01*
X324031Y346000D02*
X327969D01*
X263094Y331157D02*
Y350843D01*
X274906D02*
Y331157D01*
X264669Y328795D02*
G75*
G03X264669I-1181J0D01*
G01X308000Y350969D02*
Y347031D01*
X269969Y320000D02*
X266031D01*
X129126Y259126D02*
Y274874D01*
X144874Y259126D02*
Y274874D01*
X425244Y169945D02*
Y188055D01*
X430756Y169945D02*
Y188055D01*
X144874Y306874D02*
Y291126D01*
X129126Y306874D02*
Y291126D01*
X479000Y220969D02*
Y217031D01*
X334031Y346000D02*
X337969D01*
X388800Y206600D02*
Y204400D01*
X385800*
X380200D02*
X377200D01*
Y206600*
X310000Y151969D02*
Y148031D01*
X347969Y328000D02*
X344031D01*
X337969D02*
X334031D01*
X327969D02*
X324031D01*
X133600Y311200D02*
X131400D01*
Y314200*
Y319800D02*
Y322800D01*
X133600*
X351000Y143000D02*
G03X351000I-6000J0D01*
G01X427000D02*
G03X427000I-6000J0D01*
G01X278323Y143709D02*
Y130913D01*
X283677*
Y143709*
X278323*
X283534Y132291D02*
X278335D01*
X192000Y248000D02*
X229000D01*
Y216000*
X192000*
Y248000*
X232000Y216000D02*
X269000D01*
Y248000*
X232000*
Y216000*
X206000Y248000D02*
Y255000D01*
X213000Y262000*
X257000Y248000D02*
Y293000D01*
X245000Y305000*
X226000Y329000D02*
X252000D01*
Y355000*
X226000*
Y329000*
X252000Y333000D02*
X261000Y324000D01*
X167000Y319000D02*
X193000D01*
Y305000*
X167000*
Y319000*
X173000Y305000D02*
Y300000D01*
X159000Y286000*
X153000*
X320000Y216000D02*
X351000D01*
Y180000*
X320000*
Y216000*
X351000Y206000D02*
X357000Y200000D01*
G54D12*
X363047Y315449D02*
X368953D01*
X363047Y326551D02*
X368953D01*
X355100Y322000D02*
X352900D01*
X321000Y301100D02*
Y298900D01*
X469000Y243488D02*
Y199000D01*
X460339*
X419394D02*
X414669D01*
Y243488*
X465063Y254512D02*
X463488D01*
Y257858*
G03X461520Y259827I-1968J0*
G01X422150*
G03X420181Y257858I-0J-1969*
G01Y254512*
X419000*
X447740Y199000D02*
X441047D01*
X428449D02*
X426087D01*
X376900Y319000D02*
X379100D01*
X127000Y164100D02*
Y161900D01*
X306228Y166724D02*
X309772D01*
X306228Y157276D02*
X309772D01*
X271094Y128921D02*
X282906D01*
X271094Y119079D02*
X282906D01*
X271094Y114921D02*
X282906D01*
X271094Y105079D02*
X282906D01*
X309000Y298900D02*
Y301100D01*
X201000Y304900D02*
Y307100D01*
X129047Y243228D02*
Y246772D01*
X134953Y243228D02*
Y246772D01*
X220000Y305100D02*
Y302900D01*
X167900Y166000D02*
X170100D01*
X167900Y153000D02*
X170100D01*
X123900Y296000D02*
X126100D01*
X274900Y322000D02*
X277100D01*
X279000Y311900D02*
Y314100D01*
X383000Y217900D02*
Y220100D01*
X279000Y308100D02*
Y305900D01*
X283100Y322000D02*
X280900D01*
X267000Y305900D02*
Y308100D01*
X147900Y294000D02*
X150100D01*
X383000Y223900D02*
Y226100D01*
X298100Y148000D02*
X295900D01*
X291100Y124000D02*
X288900D01*
X375900Y172000D02*
X378100D01*
X220000Y256100D02*
Y253900D01*
X329772Y157276D02*
X326228D01*
X329772Y166724D02*
X326228D01*
X224100Y263000D02*
X221900D01*
X237000Y256100D02*
Y253900D01*
X246100Y263000D02*
X243900D01*
X224100Y312000D02*
X221900D01*
X237000Y305100D02*
Y302900D01*
X477000Y227100D02*
Y224900D01*
X246100Y312000D02*
X243900D01*
X132100Y283000D02*
X129900D01*
X354189Y353811D02*
X377811D01*
Y330189D02*
X354189D01*
X289900Y148000D02*
X292100D01*
X344000Y315900D02*
Y318100D01*
X369000Y176100D02*
Y173900D01*
X140047Y243228D02*
Y246772D01*
X145953Y243228D02*
Y246772D01*
X375900Y189000D02*
X378100D01*
X138772Y226047D02*
X135228D01*
X138772Y231953D02*
X135228D01*
X129000Y192100D02*
Y189900D01*
X369000Y198100D02*
Y195900D01*
X226900Y257000D02*
X229100D01*
X375000Y181100D02*
Y178900D01*
X120402Y177000D02*
G03X120402I-1245J0D01*
G01X121913Y171193D02*
X121598D01*
Y182807*
X121913*
X136087Y171193D02*
X136402D01*
Y182807*
X136087*
X131756Y171193D02*
X126244D01*
Y182807D02*
X131756D01*
X129000Y221100D02*
Y218900D01*
X142000Y221100D02*
Y218900D01*
X349100Y163000D02*
X346900D01*
X340900D02*
X343100D01*
X358000Y170100D02*
Y167900D01*
X332100Y144000D02*
X329900D01*
X150100Y283000D02*
X147900D01*
X166100Y229000D02*
X163900D01*
X307000Y133100D02*
Y130900D01*
X373100Y189000D02*
X370900D01*
X226900Y306000D02*
X229100D01*
X358000Y176100D02*
Y173900D01*
X307000Y139100D02*
Y136900D01*
X358000Y198100D02*
Y195900D01*
X383100Y285000D02*
X380900D01*
X323772Y123276D02*
X320228D01*
X323772Y132724D02*
X320228D01*
X343772Y123276D02*
X340228D01*
X343772Y132724D02*
X340228D01*
X317100Y140000D02*
X314900D01*
X321000Y313100D02*
Y310900D01*
X363000Y217100D02*
Y214900D01*
X298100Y229000D02*
X295900D01*
X138100Y283000D02*
X135900D01*
X153000Y229900D02*
Y232100D01*
Y257900D02*
Y260100D01*
X166100Y261000D02*
X163900D01*
X153900Y294000D02*
X156100D01*
X140900Y172000D02*
X143100D01*
X144100Y283000D02*
X141900D01*
X368000Y220900D02*
Y223100D01*
X389100Y285000D02*
X386900D01*
X304100Y229000D02*
X301900D01*
X237000Y258900D02*
Y261100D01*
Y307900D02*
Y310100D01*
X301900Y284000D02*
X304100D01*
X348000Y301100D02*
Y298900D01*
X333000D02*
Y301100D01*
X321000Y307100D02*
Y304900D01*
X138900Y157000D02*
X141100D01*
X218100Y274000D02*
X215900D01*
X218100Y323000D02*
X215900D01*
X224100Y274000D02*
X221900D01*
X224100Y323000D02*
X221900D01*
X289900Y281000D02*
X292100D01*
X246100Y274000D02*
X243900D01*
X218100Y263000D02*
X215900D01*
X246100Y323000D02*
X243900D01*
X218100Y312000D02*
X215900D01*
X137100Y330000D02*
X134900D01*
X143100D02*
X140900D01*
X267900Y162000D02*
X270100D01*
X209900D02*
X212100D01*
X189000Y281900D02*
Y284100D01*
Y341900D02*
Y344100D01*
X357654Y180094D02*
X364346D01*
X357654Y191906D02*
X364346D01*
X367392Y178913D02*
G03X367392I-880J0D01*
G01X228094Y274346D02*
Y267654D01*
X239906Y274346D02*
Y267654D01*
X227794Y265488D02*
G03X227794I-881J0D01*
G01X228094Y323346D02*
Y316654D01*
X239906Y323346D02*
Y316654D01*
X227794Y314488D02*
G03X227794I-881J0D01*
G01X286921Y291429D02*
Y287554D01*
X286306*
Y286446*
X286921*
Y282571*
X277079*
Y291429*
X286921*
X289180Y295661D02*
G03X289180I-881J0D01*
G01X184571Y278921D02*
X188446D01*
Y278306*
X189554*
Y278921*
X193429*
Y269079*
X184571*
Y278921*
X181219Y280299D02*
G03X181219I-880J0D01*
G01X181571Y338921D02*
X185446D01*
Y338306*
X186554*
Y338921*
X190429*
Y329079*
X181571*
Y338921*
X178219Y340299D02*
G03X178219I-880J0D01*
G01X246094Y141906D02*
Y131669D01*
X257906Y141906D02*
Y130094D01*
X246158Y129307D02*
G03X246158I-1245J0D01*
G01X190094Y141906D02*
Y131669D01*
X201906Y141906D02*
Y130094D01*
X190158Y129307D02*
G03X190158I-1245J0D01*
G01X131756Y158232D02*
X126638D01*
X131756Y149768D02*
X126244D01*
X125550Y159118D02*
G03X125550I-881J0D01*
G01X185571Y301807D02*
X189446D01*
Y301081*
X190554*
Y301807*
X194429*
Y290193*
X185571*
Y301807*
X182126Y302299D02*
G03X182126I-787J0D01*
G01X155613Y249331D02*
G03X155613I-881J0D01*
G01Y281331D02*
G03X155613I-881J0D01*
G01Y217331D02*
G03X155613I-881J0D01*
G01X287094Y311472D02*
Y315434D01*
X287833*
Y316566*
X287094*
Y320528*
X298906*
Y311472*
X287094*
X369000Y170100D02*
Y167900D01*
X316519Y286881D02*
Y234519D01*
X368881*
Y286881*
X366913*
X366322Y285700*
X365731Y286881*
X316519*
X370259Y291409D02*
G03X370259I-1181J0D01*
G01X289900Y160000D02*
X292100D01*
G54D82*
X412528Y156780D02*
Y129220D01*
X402685Y164654D02*
X355441D01*
G03X353472Y162685I-0J-1969*
G01Y123315*
G03X355441Y121346I1969J-0*
G01X402685*
X370300Y312844D02*
Y310313D01*
X370300D02*
X370436Y309806D01*
X370709Y309469*
X371118Y309300*
X371391*
X371800Y309469*
X372073Y309806*
X372209Y310313*
X372209D02*
Y312844D01*
X373436Y312169D02*
X373709Y312338D01*
X373709D02*
X374118Y312844D01*
Y309300*
X376164Y312844D02*
X375755Y312675D01*
X375482Y312169*
X375345Y311325*
Y310819*
X375482Y309975*
X375755Y309469*
X376164Y309300*
X376436*
X376845Y309469*
X377118Y309975*
X377255Y310819*
Y311325*
X377118Y312169*
X376845Y312675*
X376436Y312844*
X376164*
X268300Y149844D02*
Y146300D01*
Y149844D02*
X269255D01*
X269664Y149675*
X269936Y149338*
X269936D02*
X270073Y149000D01*
X270209Y148494*
Y147650*
X270073Y147144*
X269936Y146806*
X269664Y146469*
X269255Y146300*
X268300*
X271573Y149000D02*
Y149169D01*
X271709Y149506*
X271845Y149675*
X272118Y149844*
X272664*
X272936Y149675*
X273073Y149506*
X273209Y149169*
Y148831*
X273073Y148494*
X272800Y147988*
X272800D02*
X271436Y146300D01*
X273345*
X351300Y313844D02*
Y310300D01*
Y313844D02*
X352527D01*
X352936Y313675*
X353073Y313506*
X353209Y313169*
Y312831*
X353073Y312494*
X352936Y312325*
X352527Y312156*
X351300*
X352255D02*
X353209Y310300D01*
X354709Y313844D02*
X356209D01*
X355391Y312494*
X355800*
X356073Y312325*
X356209Y312156*
X356345Y311650*
Y311313*
X356345D02*
X356209Y310806D01*
X355936Y310469*
X355527Y310300*
X355118*
X354709Y310469*
X354573Y310638*
X354573D02*
X354436Y310975D01*
X357709Y313000D02*
Y313169D01*
X357845Y313506*
X357982Y313675*
X358255Y313844*
X358800*
X359073Y313675*
X359209Y313506*
X359345Y313169*
Y312831*
X359209Y312494*
X358936Y311988*
X358936D02*
X357573Y310300D01*
X359482*
X307300Y306844D02*
Y303300D01*
Y306844D02*
X308527D01*
X308936Y306675*
X309073Y306506*
X309209Y306169*
Y305831*
X309073Y305494*
X308936Y305325*
X308527Y305156*
X307300*
X308255D02*
X309209Y303300D01*
X310436Y306169D02*
X310709Y306338D01*
X310709D02*
X311118Y306844D01*
Y303300*
X313164Y306844D02*
X312755Y306675D01*
X312482Y306169*
X312345Y305325*
Y304819*
X312482Y303975*
X312755Y303469*
X313164Y303300*
X313436*
X313845Y303469*
X314118Y303975*
X314255Y304819*
Y305325*
X314118Y306169*
X313845Y306675*
X313436Y306844*
X313164*
X445345Y162000D02*
X445209Y162338D01*
X445209D02*
X444936Y162675D01*
X444664Y162844*
X444118*
X443845Y162675*
X443573Y162338*
X443573D02*
X443436Y162000D01*
X443300Y161494*
Y160650*
X443436Y160144*
X443573Y159806*
X443845Y159469*
X444118Y159300*
X444664*
X444936Y159469*
X445209Y159806*
X445345Y160144*
X446573Y162844D02*
X447255Y159300D01*
X447936Y162844D02*
X447255Y159300D01*
X447936Y162844D02*
X448618Y159300D01*
X449300Y162844D02*
X448618Y159300D01*
X450527Y162169D02*
X450800Y162338D01*
X450800D02*
X451209Y162844D01*
Y159300*
X483345Y205000D02*
X483209Y205337D01*
X483209D02*
X482936Y205675D01*
X482664Y205844*
X482118*
X481845Y205675*
X481573Y205337*
X481573D02*
X481436Y205000D01*
X481300Y204494*
Y203650*
X481436Y203144*
X481573Y202806*
X481845Y202469*
X482118Y202300*
X482664*
X482936Y202469*
X483209Y202806*
X483345Y203144*
X484573Y205844D02*
X485255Y202300D01*
X485936Y205844D02*
X485255Y202300D01*
X485936Y205844D02*
X486618Y202300D01*
X487300Y205844D02*
X486618Y202300D01*
X488664Y205000D02*
Y205169D01*
X488800Y205506*
X488936Y205675*
X489209Y205844*
X489755*
X490027Y205675*
X490164Y205506*
X490300Y205169*
Y204831*
X490164Y204494*
X489891Y203987*
X489891D02*
X488527Y202300D01*
X490436*
X328527Y106338D02*
Y103300D01*
X327300Y104819D02*
X329755D01*
X337345Y106000D02*
X337209Y106338D01*
X337209D02*
X336936Y106675D01*
X336664Y106844*
X336118*
X335845Y106675*
X335573Y106338*
X335573D02*
X335436Y106000D01*
X335300Y105494*
Y104650*
X335436Y104144*
X335573Y103806*
X335845Y103469*
X336118Y103300*
X336664*
X336936Y103469*
X337209Y103806*
X337345Y104144*
X338573Y106844D02*
Y103300D01*
X340209*
X341436Y106844D02*
Y103300D01*
X343345Y106844D02*
X341436Y104481D01*
X342118Y105325D02*
X343345Y103300D01*
X347300Y104819D02*
X349755D01*
X440300Y195844D02*
Y192300D01*
Y195844D02*
X441391Y192300D01*
X442482Y195844D02*
X441391Y192300D01*
X442482Y195844D02*
Y192300D01*
X443709Y195844D02*
Y192300D01*
X446982Y195000D02*
X446845Y195338D01*
X446845D02*
X446573Y195675D01*
X446300Y195844*
X445755*
X445482Y195675*
X445209Y195338*
X445209D02*
X445073Y195000D01*
X444936Y194494*
Y193650*
X445073Y193144*
X445209Y192806*
X445482Y192469*
X445755Y192300*
X446300*
X446573Y192469*
X446845Y192806*
X446982Y193144*
X448209Y195844D02*
Y192300D01*
Y195844D02*
X449436D01*
X449845Y195675*
X449982Y195506*
X450118Y195169*
Y194831*
X449982Y194494*
X449845Y194325*
X449436Y194156*
X448209*
X449164D02*
X450118Y192300D01*
X452164Y195844D02*
X451891Y195675D01*
X451618Y195338*
X451618D02*
X451482Y195000D01*
X451345Y194494*
Y193650*
X451482Y193144*
X451618Y192806*
X451891Y192469*
X452164Y192300*
X452709*
X452982Y192469*
X453255Y192806*
X453391Y193144*
X453527Y193650*
Y194494*
X453391Y195000*
X453255Y195338*
X453255D02*
X452982Y195675D01*
X452709Y195844*
X452164*
X456664Y195338D02*
X456391Y195675D01*
X455982Y195844*
X455436*
X455027Y195675*
X454755Y195338*
X454755D02*
Y195000D01*
X454891Y194663*
X454891D02*
X455027Y194494D01*
X455300Y194325*
X456118Y193988*
X456118D02*
X456391Y193819D01*
X456527Y193650*
X456664Y193313*
X456664D02*
Y192806D01*
X456391Y192469*
X455982Y192300*
X455436*
X455027Y192469*
X454755Y192806*
X457891Y195844D02*
Y192300D01*
Y195844D02*
X458845D01*
X459255Y195675*
X459527Y195338*
X459527D02*
X459664Y195000D01*
X459800Y194494*
Y193650*
X459664Y193144*
X459527Y192806*
X459255Y192469*
X458845Y192300*
X457891*
X384345Y323000D02*
X384209Y323338D01*
X384209D02*
X383936Y323675D01*
X383664Y323844*
X383118*
X382845Y323675*
X382573Y323338*
X382573D02*
X382436Y323000D01*
X382300Y322494*
Y321650*
X382436Y321144*
X382573Y320806*
X382845Y320469*
X383118Y320300*
X383664*
X383936Y320469*
X384209Y320806*
X384345Y321144*
X385573Y323169D02*
X385845Y323338D01*
X385845D02*
X386255Y323844D01*
Y320300*
X387755Y323844D02*
X389255D01*
X388436Y322494*
X388845*
X389118Y322325*
X389255Y322156*
X389391Y321650*
Y321313*
X389391D02*
X389255Y320806D01*
X388982Y320469*
X388573Y320300*
X388164*
X387755Y320469*
X387618Y320638*
X387618D02*
X387482Y320975D01*
X320000Y343345D02*
X319663Y343209D01*
X319663D02*
X319325Y342936D01*
X319156Y342664*
Y342118*
X319325Y341845*
X319663Y341573*
X319663D02*
X320000Y341436D01*
X320506Y341300*
X321350*
X321856Y341436*
X322194Y341573*
X322531Y341845*
X322700Y342118*
Y342664*
X322531Y342936*
X322194Y343209*
X321856Y343345*
X320338Y346345D02*
X320844Y346209D01*
X321181Y345936*
X321350Y345527*
Y345391*
X321181Y344982*
X320844Y344709*
X320338Y344573*
X320338D02*
X320169D01*
X319663Y344709*
X319663D02*
X319325Y344982D01*
X319156Y345391*
Y345527*
X319325Y345936*
X319663Y346209*
X319663D02*
X320338Y346345D01*
X320338D02*
X321181D01*
X322025Y346209*
X322531Y345936*
X322700Y345527*
Y345255*
X322531Y344845*
X322194Y344709*
X319156Y348391D02*
X319325Y347982D01*
X319831Y347709*
X320675Y347573*
X321181*
X322025Y347709*
X322531Y347982*
X322700Y348391*
Y348664*
X322531Y349073*
X322025Y349345*
X321181Y349482*
X320675*
X319831Y349345*
X319325Y349073*
X319156Y348664*
Y348391*
X117000Y164345D02*
X116662Y164209D01*
X116662D02*
X116325Y163936D01*
X116156Y163664*
Y163118*
X116325Y162845*
X116662Y162573*
X116662D02*
X117000Y162436D01*
X117506Y162300*
X118350*
X118856Y162436*
X119194Y162573*
X119531Y162845*
X119700Y163118*
Y163664*
X119531Y163936*
X119194Y164209*
X118856Y164345*
X116662Y167209D02*
X116325Y167073D01*
X116156Y166664*
Y166391*
X116325Y165982*
X116831Y165709*
X117675Y165573*
X118519*
X119194Y165709*
X119531Y165982*
X119700Y166391*
Y166527*
X119531Y166936*
X119194Y167209*
X118687Y167345*
X118687D02*
X118519D01*
X118012Y167209*
X118012D02*
X117675Y166936D01*
X117506Y166527*
Y166391*
X117675Y165982*
X118012Y165709*
X118012D02*
X118519Y165573D01*
X116156Y168845D02*
Y170345D01*
X117506Y169527*
Y169936*
X117675Y170209*
X117844Y170345*
X118350Y170482*
X118687*
X118687D02*
X119194Y170345D01*
X119531Y170073*
X119700Y169664*
Y169255*
X119531Y168845*
X119362Y168709*
X119362D02*
X119025Y168573D01*
X302345Y172591D02*
X302209Y172928D01*
X301936Y173266*
X301664Y173434*
X301118*
X300845Y173266*
X300573Y172928*
X300436Y172591*
X300300Y172084*
Y171241*
X300436Y170734*
X300573Y170397*
X300845Y170059*
X301118Y169891*
X301664*
X301936Y170059*
X302209Y170397*
X302345Y170734*
X303573Y172759D02*
X303845Y172928D01*
X304255Y173434*
Y169891*
X306300Y173434D02*
X305891Y173266D01*
X305618Y172759*
X305482Y171916*
Y171409*
X305618Y170566*
X305891Y170059*
X306300Y169891*
X306573*
X306982Y170059*
X307255Y170566*
X307391Y171409*
Y171916*
X307255Y172759*
X306982Y173266*
X306573Y173434*
X306300*
X263156Y118300D02*
X266700D01*
X263156D02*
Y119527D01*
X263325Y119936*
X263494Y120073*
X263831Y120209*
X264169*
X264506Y120073*
X264675Y119936*
X264844Y119527*
Y118300D02*
Y119527D01*
X265012Y119936*
X265012D02*
X265181Y120073D01*
X265519Y120209*
X266025*
X266362Y120073*
X266362D02*
X266531Y119936D01*
X266700Y119527*
Y118300*
X263156Y122255D02*
X263325Y121982D01*
X263662Y121709*
X263662D02*
X264000Y121573D01*
X264506Y121436*
X265350*
X265856Y121573*
X266194Y121709*
X266531Y121982*
X266700Y122255*
Y122800*
X266531Y123073*
X266194Y123345*
X265856Y123482*
X265350Y123618*
X264506*
X264000Y123482*
X263662Y123345*
X263662D02*
X263325Y123073D01*
X263156Y122800*
Y122255*
Y125664D02*
X263325Y125391D01*
X263662Y125118*
X263662D02*
X264000Y124982D01*
X264506Y124845*
X265350*
X265856Y124982*
X266194Y125118*
X266531Y125391*
X266700Y125664*
Y126209*
X266531Y126482*
X266194Y126755*
X265856Y126891*
X265350Y127027*
X264506*
X264000Y126891*
X263662Y126755*
X263662D02*
X263325Y126482D01*
X263156Y126209*
Y125664*
Y129209D02*
X266700D01*
X263156Y128255D02*
Y130164D01*
Y106300D02*
X266700D01*
X263156D02*
Y107527D01*
X263325Y107936*
X263494Y108073*
X263831Y108209*
X264169*
X264506Y108073*
X264675Y107936*
X264844Y107527*
Y106300*
Y107255D02*
X266700Y108209D01*
X263662Y111345D02*
X263325Y111073D01*
X263156Y110664*
Y110118*
X263325Y109709*
X263662Y109436*
X263662D02*
X264000D01*
X264337Y109573*
X264337D02*
X264506Y109709D01*
X264675Y109982*
X265012Y110800*
X265012D02*
X265181Y111073D01*
X265350Y111209*
X265687Y111345*
X265687D02*
X266194D01*
X266531Y111073*
X266700Y110664*
Y110118*
X266531Y109709*
X266194Y109436*
X263156Y113527D02*
X266700D01*
X263156Y112573D02*
Y114482D01*
X257300Y350844D02*
Y347300D01*
Y350844D02*
X258255D01*
X258664Y350675*
X258936Y350337*
X258936D02*
X259073Y350000D01*
X259209Y349494*
Y348650*
X259073Y348144*
X258936Y347806*
X258664Y347469*
X258255Y347300*
X257300*
X260436Y350169D02*
X260709Y350337D01*
X260709D02*
X261118Y350844D01*
Y347300*
X301300Y331844D02*
Y328300D01*
X302936*
X305936Y330663D02*
X305800Y330156D01*
X305527Y329819*
X305118Y329650*
X304982*
X304573Y329819*
X304300Y330156*
X304164Y330663*
X304164D02*
Y330831D01*
X304300Y331338*
X304300D02*
X304573Y331675D01*
X304982Y331844*
X305118*
X305527Y331675*
X305800Y331338*
X305800D02*
X305936Y330663D01*
X305936D02*
Y329819D01*
X305800Y328975*
X305527Y328469*
X305118Y328300*
X304845*
X304436Y328469*
X304300Y328806*
X305345Y344000D02*
X305209Y344338D01*
X305209D02*
X304936Y344675D01*
X304664Y344844*
X304118*
X303845Y344675*
X303573Y344338*
X303573D02*
X303436Y344000D01*
X303300Y343494*
Y342650*
X303436Y342144*
X303573Y341806*
X303845Y341469*
X304118Y341300*
X304664*
X304936Y341469*
X305209Y341806*
X305345Y342144*
X306573Y344169D02*
X306845Y344338D01*
X306845D02*
X307255Y344844D01*
Y341300*
X310255Y344844D02*
X308891D01*
X308755Y343325*
X308891Y343494*
X309300Y343663*
X309300D02*
X309709D01*
X309709D02*
X310118Y343494D01*
X310391Y343156*
X310527Y342650*
X310391Y342313*
X310391D02*
X310255Y341806D01*
X309982Y341469*
X309573Y341300*
X309164*
X308755Y341469*
X308618Y341638*
X308618D02*
X308482Y341975D01*
X311755Y344169D02*
X312027Y344338D01*
X312027D02*
X312436Y344844D01*
Y341300*
X233000Y343345D02*
X232662Y343209D01*
X232662D02*
X232325Y342936D01*
X232156Y342664*
Y342118*
X232325Y341845*
X232662Y341573*
X232662D02*
X233000Y341436D01*
X233506Y341300*
X234350*
X234856Y341436*
X235194Y341573*
X235531Y341845*
X235700Y342118*
Y342664*
X235531Y342936*
X235194Y343209*
X234856Y343345*
X232831Y344573D02*
X232662Y344845D01*
X232662D02*
X232156Y345255D01*
X235700*
X232156Y348255D02*
Y346891D01*
X233675Y346755*
X233506Y346891*
X233337Y347300*
X233337D02*
Y347709D01*
X233337D02*
X233506Y348118D01*
X233844Y348391*
X234350Y348527*
X234687Y348391*
X234687D02*
X235194Y348255D01*
X235531Y347982*
X235700Y347573*
Y347164*
X235531Y346755*
X235362Y346618*
X235362D02*
X235025Y346482D01*
X233000Y349891D02*
X232831D01*
X232494Y350027*
X232325Y350164*
X232156Y350436*
Y350982*
X232325Y351255*
X232494Y351391*
X232831Y351527*
X233169*
X233506Y351391*
X234012Y351118*
X234012D02*
X235700Y349755D01*
Y351664*
X295300Y301844D02*
Y298300D01*
Y301844D02*
X296527D01*
X296936Y301675*
X297073Y301506*
X297209Y301169*
Y300831*
X297073Y300494*
X296936Y300325*
X296527Y300156*
X295300*
X296255D02*
X297209Y298300D01*
X298436Y301169D02*
X298709Y301338D01*
X298709D02*
X299118Y301844D01*
Y298300*
X302118Y301844D02*
X300755D01*
X300618Y300325*
X300755Y300494*
X301164Y300663*
X301164D02*
X301573D01*
X301573D02*
X301982Y300494D01*
X302255Y300156*
X302391Y299650*
X302255Y299313*
X302255D02*
X302118Y298806D01*
X301845Y298469*
X301436Y298300*
X301027*
X300618Y298469*
X300482Y298638*
X300482D02*
X300345Y298975D01*
X339156Y342300D02*
X342700D01*
Y343936*
X339831Y345164D02*
X339662Y345436D01*
X339662D02*
X339156Y345845D01*
X342700*
X339156Y348845D02*
Y347482D01*
X340675Y347345*
X340506Y347482*
X340337Y347891*
X340337D02*
Y348300D01*
X340337D02*
X340506Y348709D01*
X340844Y348982*
X341350Y349118*
X341687Y348982*
X341687D02*
X342194Y348845D01*
X342531Y348573*
X342700Y348164*
Y347755*
X342531Y347345*
X342362Y347209*
X342362D02*
X342025Y347073D01*
X200345Y312000D02*
X200209Y312337D01*
X200209D02*
X199936Y312675D01*
X199664Y312844*
X199118*
X198845Y312675*
X198573Y312337*
X198573D02*
X198436Y312000D01*
X198300Y311494*
Y310650*
X198436Y310144*
X198573Y309806*
X198845Y309469*
X199118Y309300*
X199664*
X199936Y309469*
X200209Y309806*
X200345Y310144*
X202255Y312844D02*
X201845Y312675D01*
X201709Y312337*
X201709D02*
Y312000D01*
X201845Y311662*
X201845D02*
X202118Y311494D01*
X202664Y311325*
X203073Y311156*
X203345Y310819*
X203482Y310481*
Y309975*
X203345Y309637*
X203345D02*
X203209Y309469D01*
X202800Y309300*
X202255*
X201845Y309469*
X201709Y309637*
X201709D02*
X201573Y309975D01*
Y310481*
X201709Y310819*
X201982Y311156*
X202391Y311325*
X202936Y311494*
X203209Y311662*
X203209D02*
X203345Y312000D01*
Y312337*
X203345D02*
X203209Y312675D01*
X202800Y312844*
X202255*
X103300Y264844D02*
X104391Y261300D01*
X105482Y264844D02*
X104391Y261300D01*
X106709Y264844D02*
Y261300D01*
Y264844D02*
X108618Y261300D01*
Y264844D02*
Y261300D01*
X110936Y264844D02*
X109845Y261300D01*
X110936Y264844D02*
X112027Y261300D01*
X110255Y262481D02*
X111618D01*
X113255Y262819D02*
X115709D01*
X117755Y264844D02*
X117482Y264675D01*
X117209Y264338*
X117209D02*
X117073Y264000D01*
X116936Y263494*
Y262650*
X117073Y262144*
X117209Y261806*
X117482Y261469*
X117755Y261300*
X118300*
X118573Y261469*
X118845Y261806*
X118982Y262144*
X119118Y262650*
Y263494*
X118982Y264000*
X118845Y264338*
X118845D02*
X118573Y264675D01*
X118300Y264844*
X117755*
X120345D02*
Y262313D01*
X120345D02*
X120482Y261806D01*
X120755Y261469*
X121164Y261300*
X121436*
X121845Y261469*
X122118Y261806*
X122255Y262313*
X122255D02*
Y264844D01*
X124436D02*
Y261300D01*
X123482Y264844D02*
X125391D01*
X120245Y247434D02*
Y243891D01*
Y247434D02*
X121473D01*
X121882Y247266*
X122018Y247097*
X122155Y246759*
Y246422*
X122018Y246084*
X121882Y245916*
X121473Y245747*
X120245*
X121200D02*
X122155Y243891D01*
X125018Y246928D02*
X124882Y247266D01*
X124473Y247434*
X124200*
X123791Y247266*
X123518Y246759*
X123382Y245916*
Y245072*
X123518Y244397*
X123791Y244059*
X124200Y243891*
X124336*
X124745Y244059*
X125018Y244397*
X125155Y244903*
Y245072*
X125018Y245578*
X124745Y245916*
X124336Y246084*
X124200*
X123791Y245916*
X123518Y245578*
X123382Y245072*
X211300Y108844D02*
Y105300D01*
X212936*
X214164Y108169D02*
X214436Y108338D01*
X214436D02*
X214845Y108844D01*
Y105300*
X238300Y108844D02*
Y105300D01*
X239936*
X241300Y108000D02*
Y108169D01*
X241436Y108506*
X241573Y108675*
X241845Y108844*
X242391*
X242664Y108675*
X242800Y108506*
X242936Y108169*
Y107831*
X242800Y107494*
X242527Y106988*
X242527D02*
X241164Y105300D01*
X243073*
X182300Y108844D02*
Y105300D01*
X183936*
X185436Y108844D02*
X186936D01*
X186118Y107494*
X186527*
X186800Y107325*
X186936Y107156*
X187073Y106650*
Y106313*
X187073D02*
X186936Y105806D01*
X186664Y105469*
X186255Y105300*
X185845*
X185436Y105469*
X185300Y105638*
X185300D02*
X185164Y105975D01*
X182300Y152844D02*
Y149300D01*
X183936*
X186527Y152844D02*
X185164Y150481D01*
X187209*
X186527Y152844D02*
Y149300D01*
X237300Y153844D02*
Y150300D01*
X238936*
X241936Y153844D02*
X240573D01*
X240436Y152325*
X240573Y152494*
X240982Y152663*
X240982D02*
X241391D01*
X241391D02*
X241800Y152494D01*
X242073Y152156*
X242209Y151650*
X242073Y151313*
X242073D02*
X241936Y150806D01*
X241664Y150469*
X241255Y150300*
X240845*
X240436Y150469*
X240300Y150638*
X240300D02*
X240164Y150975D01*
X153300Y145844D02*
Y142300D01*
X154936*
X156845Y145844D02*
X156436Y145675D01*
X156300Y145338*
X156300D02*
Y145000D01*
X156436Y144663*
X156436D02*
X156709Y144494D01*
X157255Y144325*
X157664Y144156*
X157936Y143819*
X158073Y143481*
Y142975*
X157936Y142638*
X157936D02*
X157800Y142469D01*
X157391Y142300*
X156845*
X156436Y142469*
X156300Y142638*
X156300D02*
X156164Y142975D01*
Y143481*
X156300Y143819*
X156573Y144156*
X156982Y144325*
X157527Y144494*
X157800Y144663*
X157800D02*
X157936Y145000D01*
Y145338*
X157936D02*
X157800Y145675D01*
X157391Y145844*
X156845*
X122391Y339844D02*
X121300Y336300D01*
X122391Y339844D02*
X123482Y336300D01*
X121709Y337481D02*
X123073D01*
X124709Y339844D02*
Y336300D01*
Y339844D02*
X126618Y336300D01*
Y339844D02*
Y336300D01*
X128800Y339844D02*
Y336300D01*
X127845Y339844D02*
X129755D01*
X133436Y340519D02*
X130982Y335119D01*
X134664Y339844D02*
X135755Y336300D01*
X136845Y339844D02*
X135755Y336300D01*
X138073Y339844D02*
Y336300D01*
Y339844D02*
X139982Y336300D01*
Y339844D02*
Y336300D01*
X142300Y339844D02*
X141209Y336300D01*
X142300Y339844D02*
X143391Y336300D01*
X141618Y337481D02*
X142982D01*
X144618Y337819D02*
X147073D01*
X148300Y339844D02*
Y336300D01*
X149527Y339844D02*
Y336300D01*
Y339844D02*
X151436Y336300D01*
Y339844D02*
Y336300D01*
X215300Y136844D02*
Y133300D01*
X216936*
X219800Y136338D02*
X219664Y136675D01*
X219255Y136844*
X218982*
X218573Y136675*
X218300Y136169*
X218164Y135325*
Y134481*
X218300Y133806*
X218573Y133469*
X218982Y133300*
X219118*
X219527Y133469*
X219800Y133806*
X219936Y134313*
X219936D02*
Y134481D01*
X219800Y134988*
X219800D02*
X219527Y135325D01*
X219118Y135494*
X218982*
X218573Y135325*
X218300Y134988*
X218300D02*
X218164Y134481D01*
X166300Y124844D02*
Y121300D01*
X167936*
X171073Y124844D02*
X169709Y121300D01*
X169164Y124844D02*
X171073D01*
X235300Y221844D02*
Y218300D01*
Y221844D02*
X236527D01*
X236936Y221675*
X237073Y221506*
X237209Y221169*
Y220831*
X237073Y220494*
X236936Y220325*
X236527Y220156*
X235300*
X236255D02*
X237209Y218300D01*
X240073Y221338D02*
X239936Y221675D01*
X239527Y221844*
X239255*
X238845Y221675*
X238573Y221169*
X238436Y220325*
Y219481*
X238573Y218806*
X238845Y218469*
X239255Y218300*
X239391*
X239800Y218469*
X240073Y218806*
X240209Y219313*
X240209D02*
Y219481D01*
X240073Y219988*
X240073D02*
X239800Y220325D01*
X239391Y220494*
X239255*
X238845Y220325*
X238573Y219988*
X238573D02*
X238436Y219481D01*
X241573Y221000D02*
Y221169D01*
X241709Y221506*
X241845Y221675*
X242118Y221844*
X242664*
X242936Y221675*
X243073Y221506*
X243209Y221169*
Y220831*
X243073Y220494*
X242800Y219988*
X242800D02*
X241436Y218300D01*
X243345*
X175345Y170000D02*
X175209Y170338D01*
X175209D02*
X174936Y170675D01*
X174664Y170844*
X174118*
X173845Y170675*
X173573Y170338*
X173573D02*
X173436Y170000D01*
X173300Y169494*
Y168650*
X173436Y168144*
X173573Y167806*
X173845Y167469*
X174118Y167300*
X174664*
X174936Y167469*
X175209Y167806*
X175345Y168144*
X176845Y170844D02*
X178345D01*
X177527Y169494*
X177936*
X178209Y169325*
X178345Y169156*
X178482Y168650*
Y168313*
X178482D02*
X178345Y167806D01*
X178073Y167469*
X177664Y167300*
X177255*
X176845Y167469*
X176709Y167638*
X176709D02*
X176573Y167975D01*
X181073Y170844D02*
X179709Y168481D01*
X181755*
X181073Y170844D02*
Y167300D01*
X174345Y160000D02*
X174209Y160338D01*
X174209D02*
X173936Y160675D01*
X173664Y160844*
X173118*
X172845Y160675*
X172573Y160338*
X172573D02*
X172436Y160000D01*
X172300Y159494*
Y158650*
X172436Y158144*
X172573Y157806*
X172845Y157469*
X173118Y157300*
X173664*
X173936Y157469*
X174209Y157806*
X174345Y158144*
X175845Y160844D02*
X177345D01*
X176527Y159494*
X176936*
X177209Y159325*
X177345Y159156*
X177482Y158650*
Y158313*
X177482D02*
X177345Y157806D01*
X177073Y157469*
X176664Y157300*
X176255*
X175845Y157469*
X175709Y157638*
X175709D02*
X175573Y157975D01*
X180482Y160844D02*
X179118D01*
X178982Y159325*
X179118Y159494*
X179527Y159663*
X179527D02*
X179936D01*
X179936D02*
X180345Y159494D01*
X180618Y159156*
X180755Y158650*
X180618Y158313*
X180618D02*
X180482Y157806D01*
X180209Y157469*
X179800Y157300*
X179391*
X178982Y157469*
X178845Y157638*
X178845D02*
X178709Y157975D01*
X117300Y296844D02*
Y293300D01*
Y296844D02*
X118527D01*
X118936Y296675*
X119073Y296506*
X119209Y296169*
Y295831*
X119073Y295494*
X118936Y295325*
X118527Y295156*
X117300*
X118255D02*
X119209Y293300D01*
X121800Y296844D02*
X120436Y294481D01*
X122482*
X121800Y296844D02*
Y293300D01*
X148300Y265844D02*
Y262300D01*
X149936*
X151164Y265169D02*
X151436Y265338D01*
X151845Y265844*
Y262300*
X153891Y265844D02*
X153482Y265675D01*
X153209Y265169*
X153073Y264325*
Y263819*
X153209Y262975*
X153482Y262469*
X153891Y262300*
X154164*
X154573Y262469*
X154845Y262975*
X154982Y263819*
Y264325*
X154845Y265169*
X154573Y265675*
X154164Y265844*
X153891*
X240156Y343300D02*
X243700D01*
X240156D02*
Y344527D01*
X240325Y344936*
X240494Y345073*
X240831Y345209*
X241169*
X241506Y345073*
X241675Y344936*
X241844Y344527*
Y343300*
Y344255D02*
X243700Y345209D01*
X241000Y346573D02*
X240831D01*
X240494Y346709*
X240325Y346845*
X240156Y347118*
Y347664*
X240325Y347936*
X240494Y348073*
X240831Y348209*
X241169*
X241506Y348073*
X242012Y347800*
X242012D02*
X243700Y346436D01*
Y348345*
X240156Y351345D02*
Y349982D01*
X241675Y349845*
X241506Y349982*
X241337Y350391*
X241337D02*
Y350800D01*
X241337D02*
X241506Y351209D01*
X241844Y351482*
X242350Y351618*
X242687Y351482*
X242687D02*
X243194Y351345D01*
X243531Y351073*
X243700Y350664*
Y350255*
X243531Y349845*
X243362Y349709*
X243362D02*
X243025Y349573D01*
X241300Y340844D02*
Y337300D01*
Y340844D02*
X242527D01*
X242936Y340675*
X243073Y340506*
X243209Y340169*
Y339831*
X243073Y339494*
X242936Y339325*
X242527Y339156*
X241300*
X242255D02*
X243209Y337300D01*
X244573Y340000D02*
Y340169D01*
X244709Y340506*
X244845Y340675*
X245118Y340844*
X245664*
X245936Y340675*
X246073Y340506*
X246209Y340169*
Y339831*
X246073Y339494*
X245800Y338987*
X244436Y337300*
X246345*
X249209Y340337D02*
X249073Y340675D01*
X248664Y340844*
X248391*
X247982Y340675*
X247709Y340169*
X247573Y339325*
Y338481*
X247709Y337806*
X247982Y337469*
X248391Y337300*
X248527*
X248936Y337469*
X249209Y337806*
X249345Y338312*
Y338481*
X249209Y338987*
X248936Y339325*
X248527Y339494*
X248391*
X247982Y339325*
X247709Y338987*
X247573Y338481*
X390300Y220844D02*
Y217300D01*
Y220844D02*
X391527D01*
X391936Y220675*
X392073Y220506*
X392209Y220169*
Y219831*
X392073Y219494*
X391936Y219325*
X391527Y219156*
X390300*
X391255D02*
X392209Y217300D01*
X393436Y220169D02*
X393709Y220338D01*
X394118Y220844*
Y217300*
X397118Y219663D02*
X396982Y219156D01*
X396709Y218819*
X396300Y218650*
X396164*
X395755Y218819*
X395482Y219156*
X395345Y219663*
Y219831*
X395482Y220338*
X395755Y220675*
X396164Y220844*
X396300*
X396709Y220675*
X396982Y220338*
X397118Y219663*
Y218819*
X396982Y217975*
X396709Y217469*
X396300Y217300*
X396027*
X395618Y217469*
X395482Y217806*
X241300Y334844D02*
Y331300D01*
Y334844D02*
X242527D01*
X242936Y334675*
X243073Y334506*
X243209Y334169*
Y333831*
X243073Y333494*
X242936Y333325*
X242527Y333156*
X241300*
X242255D02*
X243209Y331300D01*
X245800Y334844D02*
X244436Y332481D01*
X246482*
X245800Y334844D02*
Y331300D01*
X247982Y334844D02*
X249482D01*
X248664Y333494*
X249073*
X249345Y333325*
X249482Y333156*
X249618Y332650*
Y332312*
X249618D02*
X249482Y331806D01*
X249209Y331469*
X248800Y331300*
X248391*
X247982Y331469*
X247845Y331637*
X247845D02*
X247709Y331975D01*
X247000Y344345D02*
X246662Y344209D01*
X246662D02*
X246325Y343936D01*
X246156Y343664*
Y343118*
X246325Y342845*
X246662Y342573*
X246662D02*
X247000Y342436D01*
X247506Y342300*
X248350*
X248856Y342436*
X249194Y342573*
X249531Y342845*
X249700Y343118*
Y343664*
X249531Y343936*
X249194Y344209*
X248856Y344345*
X246831Y345573D02*
X246662Y345845D01*
X246662D02*
X246156Y346255D01*
X249700*
X246156Y349255D02*
Y347891D01*
X247675Y347755*
X247506Y347891*
X247337Y348300*
X247337D02*
Y348709D01*
X247337D02*
X247506Y349118D01*
X247844Y349391*
X248350Y349527*
X248687Y349391*
X248687D02*
X249194Y349255D01*
X249531Y348982*
X249700Y348573*
Y348164*
X249531Y347755*
X249362Y347618*
X249362D02*
X249025Y347482D01*
X246156Y351027D02*
Y352527D01*
X247506Y351709*
Y352118*
X247675Y352391*
X247844Y352527*
X248350Y352664*
X248687*
X248687D02*
X249194Y352527D01*
X249531Y352255*
X249700Y351845*
Y351436*
X249531Y351027*
X249362Y350891*
X249362D02*
X249025Y350755D01*
X230345Y334000D02*
X230209Y334337D01*
X229936Y334675*
X229664Y334844*
X229118*
X228845Y334675*
X228573Y334337*
X228436Y334000*
X228300Y333494*
Y332650*
X228436Y332144*
X228573Y331806*
X228845Y331469*
X229118Y331300*
X229664*
X229936Y331469*
X230209Y331806*
X230345Y332144*
X231573Y334169D02*
X231845Y334337D01*
X232255Y334844*
Y331300*
X235255Y334844D02*
X233891D01*
X233755Y333325*
X233891Y333494*
X234300Y333662*
X234709*
X235118Y333494*
X235391Y333156*
X235527Y332650*
X235391Y332312*
X235255Y331806*
X234982Y331469*
X234573Y331300*
X234164*
X233755Y331469*
X233618Y331637*
X233482Y331975*
X238118Y334844D02*
X236755Y332481D01*
X238800*
X238118Y334844D02*
Y331300D01*
X435000Y154345D02*
X434662Y154209D01*
X434662D02*
X434325Y153936D01*
X434156Y153664*
Y153118*
X434325Y152845*
X434662Y152573*
X434662D02*
X435000Y152436D01*
X435506Y152300*
X436350*
X436856Y152436*
X437194Y152573*
X437531Y152845*
X437700Y153118*
Y153664*
X437531Y153936*
X437194Y154209*
X436856Y154345*
X436350*
Y153664D02*
Y154345D01*
X434156Y155573D02*
X437700D01*
X434156D02*
Y156800D01*
X434325Y157209*
X434494Y157345*
X434831Y157482*
X435337*
X435337D02*
X435675Y157345D01*
X435844Y157209*
X436012Y156800*
X436012D02*
Y155573D01*
X434662Y160618D02*
X434325Y160345D01*
X434156Y159936*
Y159391*
X434325Y158982*
X434662Y158709*
X434662D02*
X435000D01*
X435337Y158845*
X435337D02*
X435506Y158982D01*
X435675Y159255*
X436012Y160073*
X436012D02*
X436181Y160345D01*
X436350Y160482*
X436687Y160618*
X436687D02*
X437194D01*
X437531Y160345*
X437700Y159936*
Y159391*
X437531Y158982*
X437194Y158709*
X438375Y161845D02*
Y164709D01*
X434156Y166618D02*
X437700Y165527D01*
X434156Y166618D02*
X437700Y167709D01*
X436519Y165936D02*
Y167300D01*
X434156Y168936D02*
X437700D01*
X434156D02*
X437700Y170845D01*
X434156D02*
X437700D01*
X434156Y173027D02*
X437700D01*
X434156Y172073D02*
Y173982D01*
Y175209D02*
X437700D01*
X434156D02*
Y176982D01*
X435844Y175209D02*
Y176300D01*
X437700Y175209D02*
Y176982D01*
X434156Y178209D02*
X437700D01*
X434156D02*
X437700Y180118D01*
X434156D02*
X437700D01*
X434156Y181345D02*
X437700D01*
X434156D02*
X437700Y183255D01*
X434156D02*
X437700D01*
X434156Y185573D02*
X437700Y184482D01*
X434156Y185573D02*
X437700Y186664D01*
X436519Y184891D02*
Y186255D01*
X147300Y309844D02*
Y306300D01*
X148936*
X150164Y309169D02*
X150436Y309338D01*
X150436D02*
X150845Y309844D01*
Y306300*
X152073Y309169D02*
X152345Y309338D01*
X152345D02*
X152755Y309844D01*
Y306300*
X147300Y303844D02*
Y300300D01*
Y303844D02*
X148527D01*
X148936Y303675*
X149073Y303506*
X149209Y303169*
Y302831*
X149073Y302494*
X148936Y302325*
X148527Y302156*
X147300*
X148255D02*
X149209Y300300D01*
X150573Y303000D02*
Y303169D01*
X150709Y303506*
X150845Y303675*
X151118Y303844*
X151664*
X151936Y303675*
X152073Y303506*
X152209Y303169*
Y302831*
X152073Y302494*
X151800Y301988*
X151800D02*
X150436Y300300D01*
X152345*
X154391Y303844D02*
X153982Y303675D01*
X153709Y303169*
X153573Y302325*
Y301819*
X153709Y300975*
X153982Y300469*
X154391Y300300*
X154664*
X155073Y300469*
X155345Y300975*
X155482Y301819*
Y302325*
X155345Y303169*
X155073Y303675*
X154664Y303844*
X154391*
X383300Y231844D02*
Y228300D01*
Y231844D02*
X384527D01*
X384936Y231675*
X385073Y231506*
X385209Y231169*
Y230831*
X385073Y230494*
X384936Y230325*
X384527Y230156*
X383300*
X384255D02*
X385209Y228300D01*
X387800Y231844D02*
X386436Y229481D01*
X388482*
X387800Y231844D02*
Y228300D01*
X391482Y230663D02*
X391345Y230156D01*
X391073Y229819*
X390664Y229650*
X390527*
X390118Y229819*
X389845Y230156*
X389709Y230663*
X389709D02*
Y230831D01*
X389845Y231338*
X389845D02*
X390118Y231675D01*
X390527Y231844*
X390664*
X391073Y231675*
X391345Y231338*
X391345D02*
X391482Y230663D01*
X391482D02*
Y229819D01*
X391345Y228975*
X391073Y228469*
X390664Y228300*
X390391*
X389982Y228469*
X389845Y228806*
X294156Y135300D02*
X297700D01*
X294156D02*
Y136527D01*
X294325Y136936*
X294494Y137073*
X294831Y137209*
X295169*
X295506Y137073*
X295675Y136936*
X295844Y136527*
Y135300*
Y136255D02*
X297700Y137209D01*
X295000Y138573D02*
X294831D01*
X294494Y138709*
X294325Y138845*
X294156Y139118*
Y139664*
X294325Y139936*
X294494Y140073*
X294831Y140209*
X295169*
X295506Y140073*
X296012Y139800*
X296012D02*
X297700Y138436D01*
Y140345*
X294831Y141573D02*
X294662Y141845D01*
X294662D02*
X294156Y142255D01*
X297700*
X287156Y109300D02*
X290700D01*
X287156D02*
Y110527D01*
X287325Y110936*
X287494Y111073*
X287831Y111209*
X288169*
X288506Y111073*
X288675Y110936*
X288844Y110527*
Y109300*
Y110255D02*
X290700Y111209D01*
X288000Y112573D02*
X287831D01*
X287494Y112709*
X287325Y112845*
X287156Y113118*
Y113664*
X287325Y113936*
X287494Y114073*
X287831Y114209*
X288169*
X288506Y114073*
X289012Y113800*
X289012D02*
X290700Y112436D01*
Y114345*
X288000Y115709D02*
X287831D01*
X287494Y115845*
X287325Y115982*
X287156Y116255*
Y116800*
X287325Y117073*
X287494Y117209*
X287831Y117345*
X288169*
X288506Y117209*
X289012Y116936*
X289012D02*
X290700Y115573D01*
Y117482*
X344156Y183300D02*
X347700D01*
X344156D02*
Y184527D01*
X344325Y184936*
X344494Y185073*
X344831Y185209*
X345169*
X345506Y185073*
X345675Y184936*
X345844Y184527*
Y183300*
Y184255D02*
X347700Y185209D01*
X344156Y188345D02*
X347700Y186982D01*
X344156Y186436D02*
Y188345D01*
Y190936D02*
X346519Y189573D01*
Y191618*
X344156Y190936D02*
X347700D01*
X195300Y221844D02*
Y218300D01*
Y221844D02*
X196527D01*
X196936Y221675*
X197073Y221506*
X197209Y221169*
Y220831*
X197073Y220494*
X196936Y220325*
X196527Y220156*
X195300*
X196255D02*
X197209Y218300D01*
X198709Y221844D02*
X200209D01*
X199391Y220494*
X199800*
X200073Y220325*
X200209Y220156*
X200345Y219650*
Y219312*
X200345D02*
X200209Y218806D01*
X199936Y218469*
X199527Y218300*
X199118*
X198709Y218469*
X198573Y218637*
X198573D02*
X198436Y218975D01*
X202936Y221844D02*
X201573Y219481D01*
X203618*
X202936Y221844D02*
Y218300D01*
X328345Y172591D02*
X328209Y172928D01*
X327936Y173266*
X327664Y173434*
X327118*
X326845Y173266*
X326573Y172928*
X326436Y172591*
X326300Y172084*
Y171241*
X326436Y170734*
X326573Y170397*
X326845Y170059*
X327118Y169891*
X327664*
X327936Y170059*
X328209Y170397*
X328345Y170734*
X329573Y172759D02*
X329845Y172928D01*
X330255Y173434*
Y169891*
X331482Y172759D02*
X331755Y172928D01*
X332164Y173434*
Y169891*
X200156Y224300D02*
X203700D01*
X200156D02*
Y225527D01*
X200325Y225936*
X200494Y226073*
X200831Y226209*
X201169*
X201506Y226073*
X201675Y225936*
X201844Y225527*
Y224300*
Y225255D02*
X203700Y226209D01*
X200156Y227709D02*
Y229209D01*
X201506Y228391*
Y228800*
X201675Y229073*
X201844Y229209*
X202350Y229345*
X202688*
X202688D02*
X203194Y229209D01*
X203531Y228936*
X203700Y228527*
Y228118*
X203531Y227709*
X203363Y227573*
X203363D02*
X203025Y227436D01*
X200156Y232345D02*
Y230982D01*
X201675Y230845*
X201506Y230982*
X201338Y231391*
X201338D02*
Y231800D01*
X201338D02*
X201506Y232209D01*
X201844Y232482*
X202350Y232618*
X202688Y232482*
X202688D02*
X203194Y232345D01*
X203531Y232073*
X203700Y231664*
Y231255*
X203531Y230845*
X203363Y230709*
X203363D02*
X203025Y230573D01*
X212300Y221844D02*
Y218300D01*
Y221844D02*
X213527D01*
X213936Y221675*
X214073Y221506*
X214209Y221169*
Y220831*
X214073Y220494*
X213936Y220325*
X213527Y220156*
X212300*
X213255D02*
X214209Y218300D01*
X215709Y221844D02*
X217209D01*
X216391Y220494*
X216800*
X217073Y220325*
X217209Y220156*
X217345Y219650*
Y219312*
X217345D02*
X217209Y218806D01*
X216936Y218469*
X216527Y218300*
X216118*
X215709Y218469*
X215573Y218637*
X215573D02*
X215436Y218975D01*
X220209Y221337D02*
X220073Y221675D01*
X219664Y221844*
X219391*
X218982Y221675*
X218709Y221169*
X218573Y220325*
Y219481*
X218709Y218806*
X218982Y218469*
X219391Y218300*
X219527*
X219936Y218469*
X220209Y218806*
X220345Y219312*
X220345D02*
Y219481D01*
X220209Y219987*
X220209D02*
X219936Y220325D01*
X219527Y220494*
X219391*
X218982Y220325*
X218709Y219987*
X218709D02*
X218573Y219481D01*
X223156Y224300D02*
X226700D01*
X223156D02*
Y225527D01*
X223325Y225936*
X223494Y226073*
X223831Y226209*
X224169*
X224506Y226073*
X224675Y225936*
X224844Y225527*
Y224300*
Y225255D02*
X226700Y226209D01*
X223156Y227709D02*
Y229209D01*
X224506Y228391*
Y228800*
X224675Y229073*
X224844Y229209*
X225350Y229345*
X225688*
X225688D02*
X226194Y229209D01*
X226531Y228936*
X226700Y228527*
Y228118*
X226531Y227709*
X226363Y227573*
X226363D02*
X226025Y227436D01*
X223156Y232482D02*
X226700Y231118D01*
X223156Y230573D02*
Y232482D01*
X310300Y181844D02*
Y178300D01*
X311936*
X313164Y181169D02*
X313436Y181337D01*
X313436D02*
X313845Y181844D01*
Y178300*
X316709Y181337D02*
X316573Y181675D01*
X316164Y181844*
X315891*
X315482Y181675*
X315209Y181169*
X315073Y180325*
Y179481*
X315209Y178806*
X315482Y178469*
X315891Y178300*
X316027*
X316436Y178469*
X316709Y178806*
X316845Y179312*
X316845D02*
Y179481D01*
X316709Y179987*
X316709D02*
X316436Y180325D01*
X316027Y180494*
X315891*
X315482Y180325*
X315209Y179987*
X315209D02*
X315073Y179481D01*
X106300Y176844D02*
Y174313D01*
X106300D02*
X106436Y173806D01*
X106709Y173469*
X107118Y173300*
X107391*
X107800Y173469*
X108073Y173806*
X108209Y174313*
X108209D02*
Y176844D01*
X111345Y176338D02*
X111073Y176675D01*
X110664Y176844*
X110118*
X109709Y176675*
X109436Y176338*
X109436D02*
Y176000D01*
X109573Y175663*
X109573D02*
X109709Y175494D01*
X109982Y175325*
X110800Y174988*
X110800D02*
X111073Y174819D01*
X111209Y174650*
X111345Y174313*
X111345D02*
Y173806D01*
X111073Y173469*
X110664Y173300*
X110118*
X109709Y173469*
X109436Y173806*
X112573Y176844D02*
Y173300D01*
Y176844D02*
X113800D01*
X114209Y176675*
X114345Y176506*
X114482Y176169*
Y175831*
X114345Y175494*
X114209Y175325*
X113800Y175156*
X112573D02*
X113800D01*
X114209Y174988*
X114209D02*
X114345Y174819D01*
X114482Y174481*
Y173975*
X114345Y173638*
X114345D02*
X114209Y173469D01*
X113800Y173300*
X112573*
X240156Y224300D02*
X243700D01*
X240156D02*
Y225527D01*
X240325Y225936*
X240494Y226073*
X240831Y226209*
X241169*
X241506Y226073*
X241675Y225936*
X241844Y225527*
Y224300*
Y225255D02*
X243700Y226209D01*
X240662Y229073D02*
X240325Y228936D01*
X240156Y228527*
Y228255*
X240325Y227845*
X240831Y227573*
X241675Y227436*
X242519*
X243194Y227573*
X243531Y227845*
X243700Y228255*
Y228391*
X243531Y228800*
X243194Y229073*
X242687Y229209*
X242687D02*
X242519D01*
X242012Y229073*
X242012D02*
X241675Y228800D01*
X241506Y228391*
Y228255*
X241675Y227845*
X242012Y227573*
X242012D02*
X242519Y227436D01*
X240156Y230709D02*
Y232209D01*
X241506Y231391*
Y231800*
X241675Y232073*
X241844Y232209*
X242350Y232345*
X242687*
X242687D02*
X243194Y232209D01*
X243531Y231936*
X243700Y231527*
Y231118*
X243531Y230709*
X243362Y230573*
X243362D02*
X243025Y230436D01*
X252300Y221844D02*
Y218300D01*
Y221844D02*
X253527D01*
X253936Y221675*
X254073Y221506*
X254209Y221169*
Y220831*
X254073Y220494*
X253936Y220325*
X253527Y220156*
X252300*
X253255D02*
X254209Y218300D01*
X257073Y221338D02*
X256936Y221675D01*
X256527Y221844*
X256255*
X255845Y221675*
X255573Y221169*
X255436Y220325*
Y219481*
X255573Y218806*
X255845Y218469*
X256255Y218300*
X256391*
X256800Y218469*
X257073Y218806*
X257209Y219313*
X257209D02*
Y219481D01*
X257073Y219988*
X257073D02*
X256800Y220325D01*
X256391Y220494*
X256255*
X255845Y220325*
X255573Y219988*
X255573D02*
X255436Y219481D01*
X260209Y221844D02*
X258845D01*
X258709Y220325*
X258845Y220494*
X259255Y220663*
X259255D02*
X259664D01*
X259664D02*
X260073Y220494D01*
X260345Y220156*
X260482Y219650*
X260345Y219313*
X260345D02*
X260209Y218806D01*
X259936Y218469*
X259527Y218300*
X259118*
X258709Y218469*
X258573Y218638*
X258573D02*
X258436Y218975D01*
X355300Y106844D02*
Y103300D01*
X357345Y106844D02*
X357073Y106675D01*
X356800Y106338*
X356800D02*
X356664Y106000D01*
X356527Y105494*
Y104650*
X356664Y104144*
X356800Y103806*
X357073Y103469*
X357345Y103300*
X357891*
X358164Y103469*
X358436Y103806*
X358573Y104144*
X358709Y104650*
Y105494*
X358573Y106000*
X358436Y106338*
X358436D02*
X358164Y106675D01*
X357891Y106844*
X357345*
X362300D02*
Y103300D01*
Y106844D02*
X364209Y103300D01*
Y106844D02*
Y103300D01*
X365436Y106844D02*
Y103300D01*
Y106844D02*
X366664D01*
X367073Y106675*
X367209Y106506*
X367345Y106169*
Y105831*
X367209Y105494*
X367073Y105325*
X366664Y105156*
X365436*
X366391D02*
X367345Y103300D01*
X370482Y106338D02*
X370209Y106675D01*
X369800Y106844*
X369255*
X368845Y106675*
X368573Y106338*
X368573D02*
Y106000D01*
X368709Y105663*
X368709D02*
X368845Y105494D01*
X369118Y105325*
X369936Y104988*
X369936D02*
X370209Y104819D01*
X370345Y104650*
X370482Y104313*
X370482D02*
Y103806D01*
X370209Y103469*
X369800Y103300*
X369255*
X368845Y103469*
X368573Y103806*
X372664Y106844D02*
Y103300D01*
X371709Y106844D02*
X373618D01*
X475345Y213000D02*
X475209Y213338D01*
X475209D02*
X474936Y213675D01*
X474664Y213844*
X474118*
X473845Y213675*
X473573Y213338*
X473573D02*
X473436Y213000D01*
X473300Y212494*
Y211650*
X473436Y211144*
X473573Y210806*
X473845Y210469*
X474118Y210300*
X474664*
X474936Y210469*
X475209Y210806*
X475345Y211144*
X476573Y213169D02*
X476845Y213338D01*
X476845D02*
X477255Y213844D01*
Y210300*
X478482Y213169D02*
X478755Y213338D01*
X478755D02*
X479164Y213844D01*
Y210300*
X482164Y213844D02*
X480800D01*
X480664Y212325*
X480800Y212494*
X481209Y212663*
X481209D02*
X481618D01*
X481618D02*
X482027Y212494D01*
X482300Y212156*
X482436Y211650*
X482300Y211313*
X482300D02*
X482164Y210806D01*
X481891Y210469*
X481482Y210300*
X481073*
X480664Y210469*
X480527Y210638*
X480527D02*
X480391Y210975D01*
X485345Y230000D02*
X485209Y230338D01*
X485209D02*
X484936Y230675D01*
X484664Y230844*
X484118*
X483845Y230675*
X483573Y230338*
X483573D02*
X483436Y230000D01*
X483300Y229494*
Y228650*
X483436Y228144*
X483573Y227806*
X483845Y227469*
X484118Y227300*
X484664*
X484936Y227469*
X485209Y227806*
X485345Y228144*
X486573Y230169D02*
X486845Y230338D01*
X486845D02*
X487255Y230844D01*
Y227300*
X488482Y230169D02*
X488755Y230338D01*
X488755D02*
X489164Y230844D01*
Y227300*
X490527Y230000D02*
Y230169D01*
X490664Y230506*
X490800Y230675*
X491073Y230844*
X491618*
X491891Y230675*
X492027Y230506*
X492164Y230169*
Y229831*
X492027Y229494*
X491755Y228988*
X491755D02*
X490391Y227300D01*
X492300*
X330000Y344345D02*
X329662Y344209D01*
X329662D02*
X329325Y343936D01*
X329156Y343664*
Y343118*
X329325Y342845*
X329662Y342573*
X329662D02*
X330000Y342436D01*
X330506Y342300*
X331350*
X331856Y342436*
X332194Y342573*
X332531Y342845*
X332700Y343118*
Y343664*
X332531Y343936*
X332194Y344209*
X331856Y344345*
X330337Y347345D02*
X330844Y347209D01*
X331181Y346936*
X331350Y346527*
Y346391*
X331181Y345982*
X330844Y345709*
X330337Y345573*
X330337D02*
X330169D01*
X329662Y345709*
X329662D02*
X329325Y345982D01*
X329156Y346391*
Y346527*
X329325Y346936*
X329662Y347209*
X329662D02*
X330337Y347345D01*
X330337D02*
X331181D01*
X332025Y347209*
X332531Y346936*
X332700Y346527*
Y346255*
X332531Y345845*
X332194Y345709*
X329831Y348573D02*
X329662Y348845D01*
X329662D02*
X329156Y349255D01*
X332700*
X263156Y224300D02*
X266700D01*
X263156D02*
Y225527D01*
X263325Y225936*
X263494Y226073*
X263831Y226209*
X264169*
X264506Y226073*
X264675Y225936*
X264844Y225527*
Y224300*
Y225255D02*
X266700Y226209D01*
X263156Y228118D02*
X263325Y227709D01*
X263662Y227573*
X263662D02*
X264000D01*
X264337Y227709*
X264337D02*
X264506Y227982D01*
X264675Y228527*
X264844Y228936*
X265181Y229209*
X265519Y229345*
X266025*
X266362Y229209*
X266362D02*
X266531Y229073D01*
X266700Y228664*
Y228118*
X266531Y227709*
X266362Y227573*
X266362D02*
X266025Y227436D01*
X265519*
X265181Y227573*
X264844Y227845*
X264675Y228255*
X264506Y228800*
X264337Y229073*
X264337D02*
X264000Y229209D01*
X263662*
X263662D02*
X263325Y229073D01*
X263156Y228664*
Y228118*
Y232345D02*
Y230982D01*
X264675Y230845*
X264506Y230982*
X264337Y231391*
X264337D02*
Y231800D01*
X264337D02*
X264506Y232209D01*
X264844Y232482*
X265350Y232618*
X265687Y232482*
X265687D02*
X266194Y232345D01*
X266531Y232073*
X266700Y231664*
Y231255*
X266531Y230845*
X266362Y230709*
X266362D02*
X266025Y230573D01*
X172844Y316700D02*
X169300D01*
X172844D02*
Y315473D01*
X172675Y315064*
X172506Y314927*
X172169Y314791*
X171831*
X171494Y314927*
X171325Y315064*
X171156Y315473*
Y316700*
Y315745D02*
X169300Y314791D01*
X172844Y311791D02*
Y313155D01*
X171325Y313291*
X171494Y313155*
X171662Y312745*
Y312336*
X171494Y311927*
X171156Y311655*
X170650Y311518*
X170312Y311655*
X169806Y311791*
X169469Y312064*
X169300Y312473*
Y312882*
X169469Y313291*
X169637Y313427*
X169975Y313564*
X172844Y308927D02*
X170481Y310291D01*
Y308245*
X172844Y308927D02*
X169300D01*
X380300Y335844D02*
Y332300D01*
X381936*
X383164Y335169D02*
X383436Y335338D01*
X383436D02*
X383845Y335844D01*
Y332300*
X386436Y335844D02*
X385073Y333481D01*
X387118*
X386436Y335844D02*
Y332300D01*
X284156Y145300D02*
X287700D01*
X284156D02*
Y146527D01*
X284325Y146936*
X284494Y147073*
X284831Y147209*
X285169*
X285506Y147073*
X285675Y146936*
X285844Y146527*
Y145300*
Y146255D02*
X287700Y147209D01*
X284156Y150209D02*
Y148845D01*
X285675Y148709*
X285506Y148845*
X285337Y149255*
X285337D02*
Y149664D01*
X285337D02*
X285506Y150073D01*
X285844Y150345*
X286350Y150482*
X286687Y150345*
X286687D02*
X287194Y150209D01*
X287531Y149936*
X287700Y149527*
Y149118*
X287531Y148709*
X287362Y148573*
X287362D02*
X287025Y148436D01*
X284831Y151709D02*
X284662Y151982D01*
X284662D02*
X284156Y152391D01*
X287700*
X338300Y313844D02*
Y310300D01*
Y313844D02*
X339527D01*
X339936Y313675*
X340073Y313506*
X340209Y313169*
Y312831*
X340073Y312494*
X339936Y312325*
X339527Y312156*
X338300*
X339255D02*
X340209Y310300D01*
X343209Y313844D02*
X341845D01*
X341709Y312325*
X341845Y312494*
X342255Y312663*
X342255D02*
X342664D01*
X342664D02*
X343073Y312494D01*
X343345Y312156*
X343482Y311650*
X343345Y311313*
X343345D02*
X343209Y310806D01*
X342936Y310469*
X342527Y310300*
X342118*
X341709Y310469*
X341573Y310638*
X341573D02*
X341436Y310975D01*
X344845Y313000D02*
Y313169D01*
X344982Y313506*
X345118Y313675*
X345391Y313844*
X345936*
X346209Y313675*
X346345Y313506*
X346482Y313169*
Y312831*
X346345Y312494*
X346073Y311988*
X346073D02*
X344709Y310300D01*
X346618*
X334300Y191844D02*
Y188300D01*
Y191844D02*
X335527D01*
X335936Y191675*
X336073Y191506*
X336209Y191169*
Y190831*
X336073Y190494*
X335936Y190325*
X335527Y190156*
X334300*
X335255D02*
X336209Y188300D01*
X339345Y191844D02*
X337982Y188300D01*
X337436Y191844D02*
X339345D01*
X342345D02*
X340982D01*
X340845Y190325*
X340982Y190494*
X341391Y190663*
X341391D02*
X341800D01*
X341800D02*
X342209Y190494D01*
X342482Y190156*
X342618Y189650*
X342482Y189313*
X342482D02*
X342345Y188806D01*
X342073Y188469*
X341664Y188300*
X341255*
X340845Y188469*
X340709Y188638*
X340709D02*
X340573Y188975D01*
X120300Y107844D02*
Y104300D01*
Y107844D02*
X122073D01*
X120300Y106156D02*
X121391D01*
X120300Y104300D02*
X122073D01*
X124391Y107844D02*
X123300Y104300D01*
X124391Y107844D02*
X125482Y104300D01*
X123709Y105481D02*
X125073D01*
X126709Y107844D02*
Y104300D01*
Y107844D02*
X127936D01*
X128345Y107675*
X128482Y107506*
X128618Y107169*
Y106831*
X128482Y106494*
X128345Y106325*
X127936Y106156*
X126709*
X127664D02*
X128618Y104300D01*
X129845Y107844D02*
Y104300D01*
Y107844D02*
X131073D01*
X131482Y107675*
X131618Y107506*
X131755Y107169*
Y106663*
X131755D02*
X131618Y106325D01*
X131482Y106156*
X131073Y105988*
X131073D02*
X129845D01*
X132982Y107844D02*
Y104300D01*
X134891Y107844D02*
Y104300D01*
X132982Y106156D02*
X134891D01*
X136936Y107844D02*
X136664Y107675D01*
X136391Y107338*
X136391D02*
X136255Y107000D01*
X136118Y106494*
Y105650*
X136255Y105144*
X136391Y104806*
X136664Y104469*
X136936Y104300*
X137482*
X137755Y104469*
X138027Y104806*
X138164Y105144*
X138300Y105650*
Y106494*
X138164Y107000*
X138027Y107338*
X138027D02*
X137755Y107675D01*
X137482Y107844*
X136936*
X139527D02*
Y104300D01*
Y107844D02*
X141436Y104300D01*
Y107844D02*
Y104300D01*
X142664Y107844D02*
Y104300D01*
Y107844D02*
X144436D01*
X142664Y106156D02*
X143755D01*
X142664Y104300D02*
X144436D01*
X149300Y246434D02*
Y242891D01*
Y246434D02*
X150527D01*
X150936Y246266*
X151073Y246097*
X151209Y245759*
Y245422*
X151073Y245084*
X150936Y244916*
X150527Y244747*
X149300*
X150255D02*
X151209Y242891D01*
X154345Y246434D02*
X152982Y242891D01*
X152436Y246434D02*
X154345D01*
X344156Y200300D02*
X347700D01*
X344156D02*
Y201527D01*
X344325Y201936*
X344494Y202073*
X344831Y202209*
X345169*
X345506Y202073*
X345675Y201936*
X345844Y201527*
Y200300*
Y201255D02*
X347700Y202209D01*
X344156Y205345D02*
X347700Y203982D01*
X344156Y203436D02*
Y205345D01*
Y208482D02*
X347700Y207118D01*
X344156Y206573D02*
Y208482D01*
X121109Y229434D02*
Y225891D01*
Y229434D02*
X122336D01*
X122745Y229266*
X122882Y229097*
X123018Y228759*
Y228422*
X122882Y228084*
X122745Y227916*
X122336Y227747*
X121109*
X122064D02*
X123018Y225891D01*
X124927Y229434D02*
X124518Y229266D01*
X124382Y228928*
Y228591*
X124518Y228253*
X124791Y228084*
X125336Y227916*
X125745Y227747*
X126018Y227409*
X126155Y227072*
Y226566*
X126018Y226228*
X125882Y226059*
X125473Y225891*
X124927*
X124518Y226059*
X124382Y226228*
X124245Y226566*
Y227072*
X124382Y227409*
X124655Y227747*
X125064Y227916*
X125609Y228084*
X125882Y228253*
X126018Y228591*
Y228928*
X125882Y229266*
X125473Y229434*
X124927*
X133345Y197000D02*
X133209Y197338D01*
X133209D02*
X132936Y197675D01*
X132664Y197844*
X132118*
X131845Y197675*
X131573Y197338*
X131573D02*
X131436Y197000D01*
X131300Y196494*
Y195650*
X131436Y195144*
X131573Y194806*
X131845Y194469*
X132118Y194300*
X132664*
X132936Y194469*
X133209Y194806*
X133345Y195144*
X136345Y196663D02*
X136209Y196156D01*
X135936Y195819*
X135527Y195650*
X135391*
X134982Y195819*
X134709Y196156*
X134573Y196663*
X134573D02*
Y196831D01*
X134709Y197338*
X134709D02*
X134982Y197675D01*
X135391Y197844*
X135527*
X135936Y197675*
X136209Y197338*
X136209D02*
X136345Y196663D01*
X136345D02*
Y195819D01*
X136209Y194975*
X135936Y194469*
X135527Y194300*
X135255*
X134845Y194469*
X134709Y194806*
X139345Y196663D02*
X139209Y196156D01*
X138936Y195819*
X138527Y195650*
X138391*
X137982Y195819*
X137709Y196156*
X137573Y196663*
X137573D02*
Y196831D01*
X137709Y197338*
X137709D02*
X137982Y197675D01*
X138391Y197844*
X138527*
X138936Y197675*
X139209Y197338*
X139209D02*
X139345Y196663D01*
X139345D02*
Y195819D01*
X139209Y194975*
X138936Y194469*
X138527Y194300*
X138255*
X137845Y194469*
X137709Y194806*
X335300Y213844D02*
Y210300D01*
Y213844D02*
X336527D01*
X336936Y213675*
X337073Y213506*
X337209Y213169*
Y212831*
X337073Y212494*
X336936Y212325*
X336527Y212156*
X335300*
X336255D02*
X337209Y210300D01*
X339118Y213844D02*
X338709Y213675D01*
X338573Y213338*
X338573D02*
Y213000D01*
X338709Y212663*
X338709D02*
X338982Y212494D01*
X339527Y212325*
X339936Y212156*
X340209Y211819*
X340345Y211481*
Y210975*
X340209Y210638*
X340209D02*
X340073Y210469D01*
X339664Y210300*
X339118*
X338709Y210469*
X338573Y210638*
X338573D02*
X338436Y210975D01*
Y211481*
X338573Y211819*
X338845Y212156*
X339255Y212325*
X339800Y212494*
X340073Y212663*
X340073D02*
X340209Y213000D01*
Y213338*
X340209D02*
X340073Y213675D01*
X339664Y213844*
X339118*
X342255D02*
X341845Y213675D01*
X341709Y213338*
X341709D02*
Y213000D01*
X341845Y212663*
X341845D02*
X342118Y212494D01*
X342664Y212325*
X343073Y212156*
X343345Y211819*
X343482Y211481*
Y210975*
X343345Y210638*
X343345D02*
X343209Y210469D01*
X342800Y210300*
X342255*
X341845Y210469*
X341709Y210638*
X341709D02*
X341573Y210975D01*
Y211481*
X341709Y211819*
X341982Y212156*
X342391Y212325*
X342936Y212494*
X343209Y212663*
X343209D02*
X343345Y213000D01*
Y213338*
X343345D02*
X343209Y213675D01*
X342800Y213844*
X342255*
X207000Y220345D02*
X206663Y220209D01*
X206663D02*
X206325Y219936D01*
X206156Y219664*
Y219118*
X206325Y218845*
X206663Y218573*
X206663D02*
X207000Y218436D01*
X207506Y218300*
X208350*
X208856Y218436*
X209194Y218573*
X209531Y218845*
X209700Y219118*
Y219664*
X209531Y219936*
X209194Y220209*
X208856Y220345*
X206156Y223482D02*
X209700Y222118D01*
X206156Y221573D02*
Y223482D01*
X207338Y226482D02*
X207844Y226345D01*
X208181Y226073*
X208350Y225664*
Y225527*
X208181Y225118*
X207844Y224845*
X207338Y224709*
X207338D02*
X207169D01*
X206663Y224845*
X206663D02*
X206325Y225118D01*
X206156Y225527*
Y225664*
X206325Y226073*
X206663Y226345*
X206663D02*
X207338Y226482D01*
X207338D02*
X208181D01*
X209025Y226345*
X209531Y226073*
X209700Y225664*
Y225391*
X209531Y224982*
X209194Y224845*
X342345Y196000D02*
X342209Y196338D01*
X342209D02*
X341936Y196675D01*
X341664Y196844*
X341118*
X340845Y196675*
X340573Y196338*
X340573D02*
X340436Y196000D01*
X340300Y195494*
Y194650*
X340436Y194144*
X340573Y193806*
X340845Y193469*
X341118Y193300*
X341664*
X341936Y193469*
X342209Y193806*
X342345Y194144*
X345482Y196844D02*
X344118Y193300D01*
X343573Y196844D02*
X345482D01*
X348618D02*
X347255Y193300D01*
X346709Y196844D02*
X348618D01*
X139300Y187844D02*
Y185313D01*
X139300D02*
X139436Y184806D01*
X139709Y184469*
X140118Y184300*
X140391*
X140800Y184469*
X141073Y184806*
X141209Y185313*
X141209D02*
Y187844D01*
X144073Y187338D02*
X143936Y187675D01*
X143527Y187844*
X143255*
X142845Y187675*
X142573Y187169*
X142436Y186325*
Y185481*
X142573Y184806*
X142845Y184469*
X143255Y184300*
X143391*
X143800Y184469*
X144073Y184806*
X144209Y185313*
X144209D02*
Y185481D01*
X144073Y185988*
X144073D02*
X143800Y186325D01*
X143391Y186494*
X143255*
X142845Y186325*
X142573Y185988*
X142573D02*
X142436Y185481D01*
X126300Y214844D02*
Y211300D01*
Y214844D02*
X127527D01*
X127936Y214675*
X128073Y214506*
X128209Y214169*
Y213831*
X128073Y213494*
X127936Y213325*
X127527Y213156*
X126300*
X127255D02*
X128209Y211300D01*
X129709Y214844D02*
X131209D01*
X130391Y213494*
X130800*
X131073Y213325*
X131209Y213156*
X131345Y212650*
Y212313*
X131345D02*
X131209Y211806D01*
X130936Y211469*
X130527Y211300*
X130118*
X129709Y211469*
X129573Y211638*
X129573D02*
X129436Y211975D01*
X134345Y213663D02*
X134209Y213156D01*
X133936Y212819*
X133527Y212650*
X133391*
X132982Y212819*
X132709Y213156*
X132573Y213663*
X132573D02*
Y213831D01*
X132709Y214338*
X132709D02*
X132982Y214675D01*
X133391Y214844*
X133527*
X133936Y214675*
X134209Y214338*
X134209D02*
X134345Y213663D01*
X134345D02*
Y212819D01*
X134209Y211975*
X133936Y211469*
X133527Y211300*
X133255*
X132845Y211469*
X132709Y211806*
X138300Y214844D02*
Y211300D01*
Y214844D02*
X139527D01*
X139936Y214675*
X140073Y214506*
X140209Y214169*
Y213831*
X140073Y213494*
X139936Y213325*
X139527Y213156*
X138300*
X139255D02*
X140209Y211300D01*
X142800Y214844D02*
X141436Y212481D01*
X143482*
X142800Y214844D02*
Y211300D01*
X145527Y214844D02*
X145118Y214675D01*
X144845Y214169*
X144709Y213325*
Y212819*
X144845Y211975*
X145118Y211469*
X145527Y211300*
X145800*
X146209Y211469*
X146482Y211975*
X146618Y212819*
Y213325*
X146482Y214169*
X146209Y214675*
X145800Y214844*
X145527*
X344300Y172844D02*
Y169300D01*
Y172844D02*
X345527D01*
X345936Y172675*
X346073Y172506*
X346209Y172169*
Y171831*
X346073Y171494*
X345936Y171325*
X345527Y171156*
X344300*
X345255D02*
X346209Y169300D01*
X348118Y172844D02*
X347709Y172675D01*
X347573Y172337*
X347573D02*
Y172000D01*
X347709Y171662*
X347709D02*
X347982Y171494D01*
X348527Y171325*
X348936Y171156*
X349209Y170819*
X349345Y170481*
Y169975*
X349209Y169637*
X349209D02*
X349073Y169469D01*
X348664Y169300*
X348118*
X347709Y169469*
X347573Y169637*
X347573D02*
X347436Y169975D01*
Y170481*
X347573Y170819*
X347845Y171156*
X348255Y171325*
X348800Y171494*
X349073Y171662*
X349073D02*
X349209Y172000D01*
Y172337*
X349209D02*
X349073Y172675D01*
X348664Y172844*
X348118*
X352345Y171662D02*
X352209Y171156D01*
X351936Y170819*
X351527Y170650*
X351391*
X350982Y170819*
X350709Y171156*
X350573Y171662*
X350573D02*
Y171831D01*
X350709Y172337*
X350709D02*
X350982Y172675D01*
X351391Y172844*
X351527*
X351936Y172675*
X352209Y172337*
X352209D02*
X352345Y171662D01*
X352345D02*
Y170819D01*
X352209Y169975*
X351936Y169469*
X351527Y169300*
X351255*
X350845Y169469*
X350709Y169806*
X334300Y172844D02*
Y169300D01*
Y172844D02*
X335527D01*
X335936Y172675*
X336073Y172506*
X336209Y172169*
Y171831*
X336073Y171494*
X335936Y171325*
X335527Y171156*
X334300*
X335255D02*
X336209Y169300D01*
X339209Y171663D02*
X339073Y171156D01*
X338800Y170819*
X338391Y170650*
X338255*
X337845Y170819*
X337573Y171156*
X337436Y171663*
X337436D02*
Y171831D01*
X337573Y172338*
X337573D02*
X337845Y172675D01*
X338255Y172844*
X338391*
X338800Y172675*
X339073Y172338*
X339073D02*
X339209Y171663D01*
X339209D02*
Y170819D01*
X339073Y169975*
X338800Y169469*
X338391Y169300*
X338118*
X337709Y169469*
X337573Y169806*
X341255Y172844D02*
X340845Y172675D01*
X340573Y172169*
X340436Y171325*
Y170819*
X340573Y169975*
X340845Y169469*
X341255Y169300*
X341527*
X341936Y169469*
X342209Y169975*
X342345Y170819*
Y171325*
X342209Y172169*
X341936Y172675*
X341527Y172844*
X341255*
X326345Y185000D02*
X326209Y185338D01*
X326209D02*
X325936Y185675D01*
X325664Y185844*
X325118*
X324845Y185675*
X324573Y185338*
X324573D02*
X324436Y185000D01*
X324300Y184494*
Y183650*
X324436Y183144*
X324573Y182806*
X324845Y182469*
X325118Y182300*
X325664*
X325936Y182469*
X326209Y182806*
X326345Y183144*
X329482Y185844D02*
X328118Y182300D01*
X327573Y185844D02*
X329482D01*
X332300Y152844D02*
Y149300D01*
Y152844D02*
X333527D01*
X333936Y152675*
X334073Y152506*
X334209Y152169*
Y151831*
X334073Y151494*
X333936Y151325*
X333527Y151156*
X332300*
X333255D02*
X334209Y149300D01*
X337209Y151663D02*
X337073Y151156D01*
X336800Y150819*
X336391Y150650*
X336255*
X335845Y150819*
X335573Y151156*
X335436Y151663*
X335436D02*
Y151831D01*
X335573Y152338*
X335573D02*
X335845Y152675D01*
X336255Y152844*
X336391*
X336800Y152675*
X337073Y152338*
X337073D02*
X337209Y151663D01*
X337209D02*
Y150819D01*
X337073Y149975*
X336800Y149469*
X336391Y149300*
X336118*
X335709Y149469*
X335573Y149806*
X338436Y152169D02*
X338709Y152338D01*
X338709D02*
X339118Y152844D01*
Y149300*
X190000Y314655D02*
X190337Y314791D01*
X190675Y315064*
X190844Y315336*
Y315882*
X190675Y316155*
X190337Y316427*
X190000Y316564*
X189494Y316700*
X188650*
X188144Y316564*
X187806Y316427*
X187469Y316155*
X187300Y315882*
Y315336*
X187469Y315064*
X187806Y314791*
X188144Y314655*
X190844Y311655D02*
Y313018D01*
X189325Y313155*
X189494Y313018*
X189662Y312609*
Y312200*
X189494Y311791*
X189156Y311518*
X188650Y311382*
X188312Y311518*
X187806Y311655*
X187469Y311927*
X187300Y312336*
Y312745*
X187469Y313155*
X187637Y313291*
X187975Y313427*
X190844Y309473D02*
X190675Y309882D01*
X190337Y310018*
X190000*
X189662Y309882*
X189494Y309609*
X189325Y309064*
X189156Y308655*
X188819Y308382*
X188481Y308245*
X187975*
X187637Y308382*
X187469Y308518*
X187300Y308927*
Y309473*
X187469Y309882*
X187637Y310018*
X187975Y310155*
X188481*
X188819Y310018*
X189156Y309745*
X189325Y309336*
X189494Y308791*
X189662Y308518*
X190000Y308382*
X190337*
X190675Y308518*
X190844Y308927*
Y309473*
X170345Y230000D02*
X170209Y230338D01*
X169936Y230675*
X169664Y230844*
X169118*
X168845Y230675*
X168573Y230338*
X168436Y230000*
X168300Y229494*
Y228650*
X168436Y228144*
X168573Y227806*
X168845Y227469*
X169118Y227300*
X169664*
X169936Y227469*
X170209Y227806*
X170345Y228144*
X171573Y230169D02*
X171845Y230338D01*
X172255Y230844*
Y227300*
X174300Y230844D02*
X173891Y230675D01*
X173618Y230169*
X173482Y229325*
Y228819*
X173618Y227975*
X173891Y227469*
X174300Y227300*
X174573*
X174982Y227469*
X175255Y227975*
X175391Y228819*
Y229325*
X175255Y230169*
X174982Y230675*
X174573Y230844*
X174300*
X178255Y230338D02*
X178118Y230675D01*
X177709Y230844*
X177436*
X177027Y230675*
X176755Y230169*
X176618Y229325*
Y228481*
X176755Y227806*
X177027Y227469*
X177436Y227300*
X177573*
X177982Y227469*
X178255Y227806*
X178391Y228313*
Y228481*
X178255Y228988*
X177982Y229325*
X177573Y229494*
X177436*
X177027Y229325*
X176755Y228988*
X176618Y228481*
X382882Y197434D02*
X382609Y197266D01*
X382336Y196928*
X382200Y196591*
X382064Y196084*
Y195241*
X382200Y194734*
X382336Y194397*
X382609Y194059*
X382882Y193891*
X383427*
X383700Y194059*
X383973Y194397*
X384109Y194734*
X384245Y195241*
Y196084*
X384109Y196591*
X383973Y196928*
X383700Y197266*
X383427Y197434*
X382882*
X383291Y194566D02*
X384109Y193553D01*
X385473Y196759D02*
X385745Y196928D01*
X386155Y197434*
Y193891*
X303300Y128844D02*
Y125300D01*
Y128844D02*
X304527D01*
X304936Y128675*
X305073Y128506*
X305209Y128169*
Y127831*
X305073Y127494*
X304936Y127325*
X304527Y127156*
X303300*
X304255D02*
X305209Y125300D01*
X308209Y127663D02*
X308073Y127156D01*
X307800Y126819*
X307391Y126650*
X307255*
X306845Y126819*
X306573Y127156*
X306436Y127663*
X306436D02*
Y127831D01*
X306573Y128338*
X306573D02*
X306845Y128675D01*
X307255Y128844*
X307391*
X307800Y128675*
X308073Y128338*
X308073D02*
X308209Y127663D01*
X308209D02*
Y126819D01*
X308073Y125975*
X307800Y125469*
X307391Y125300*
X307118*
X306709Y125469*
X306573Y125806*
X309573Y128000D02*
Y128169D01*
X309709Y128506*
X309845Y128675*
X310118Y128844*
X310664*
X310936Y128675*
X311073Y128506*
X311209Y128169*
Y127831*
X311073Y127494*
X310800Y126988*
X310800D02*
X309436Y125300D01*
X311345*
X340000Y202345D02*
X339662Y202209D01*
X339662D02*
X339325Y201936D01*
X339156Y201664*
Y201118*
X339325Y200845*
X339662Y200573*
X339662D02*
X340000Y200436D01*
X340506Y200300*
X341350*
X341856Y200436*
X342194Y200573*
X342531Y200845*
X342700Y201118*
Y201664*
X342531Y201936*
X342194Y202209*
X341856Y202345*
X339156Y205482D02*
X342700Y204118D01*
X339156Y203573D02*
Y205482D01*
Y207391D02*
X339325Y206982D01*
X339662Y206845*
X339662D02*
X340000D01*
X340337Y206982*
X340337D02*
X340506Y207255D01*
X340675Y207800*
X340844Y208209*
X341181Y208482*
X341519Y208618*
X342025*
X342362Y208482*
X342362D02*
X342531Y208345D01*
X342700Y207936*
Y207391*
X342531Y206982*
X342362Y206845*
X342362D02*
X342025Y206709D01*
X341519*
X341181Y206845*
X340844Y207118*
X340675Y207527*
X340506Y208073*
X340337Y208345*
X340337D02*
X340000Y208482D01*
X339662*
X339662D02*
X339325Y208345D01*
X339156Y207936*
Y207391*
X247000Y221345D02*
X246662Y221209D01*
X246662D02*
X246325Y220936D01*
X246156Y220664*
Y220118*
X246325Y219845*
X246662Y219573*
X246662D02*
X247000Y219436D01*
X247506Y219300*
X248350*
X248856Y219436*
X249194Y219573*
X249531Y219845*
X249700Y220118*
Y220664*
X249531Y220936*
X249194Y221209*
X248856Y221345*
X246156Y223255D02*
X246325Y222845D01*
X246662Y222709*
X246662D02*
X247000D01*
X247337Y222845*
X247337D02*
X247506Y223118D01*
X247675Y223664*
X247844Y224073*
X248181Y224345*
X248519Y224482*
X249025*
X249362Y224345*
X249362D02*
X249531Y224209D01*
X249700Y223800*
Y223255*
X249531Y222845*
X249362Y222709*
X249362D02*
X249025Y222573D01*
X248519*
X248181Y222709*
X247844Y222982*
X247675Y223391*
X247506Y223936*
X247337Y224209*
X247337D02*
X247000Y224345D01*
X246662*
X246662D02*
X246325Y224209D01*
X246156Y223800*
Y223255*
Y226527D02*
X246325Y226118D01*
X246831Y225845*
X247675Y225709*
X248181*
X249025Y225845*
X249531Y226118*
X249700Y226527*
Y226800*
X249531Y227209*
X249025Y227482*
X248181Y227618*
X247675*
X246831Y227482*
X246325Y227209*
X246156Y226800*
Y226527*
X324345Y191000D02*
X324209Y191338D01*
X324209D02*
X323936Y191675D01*
X323664Y191844*
X323118*
X322845Y191675*
X322573Y191338*
X322573D02*
X322436Y191000D01*
X322300Y190494*
Y189650*
X322436Y189144*
X322573Y188806*
X322845Y188469*
X323118Y188300*
X323664*
X323936Y188469*
X324209Y188806*
X324345Y189144*
X325573Y191169D02*
X325845Y191338D01*
X325845D02*
X326255Y191844D01*
Y188300*
X328300Y191844D02*
X327891Y191675D01*
X327618Y191169*
X327482Y190325*
Y189819*
X327618Y188975*
X327891Y188469*
X328300Y188300*
X328573*
X328982Y188469*
X329255Y188975*
X329391Y189819*
Y190325*
X329255Y191169*
X328982Y191675*
X328573Y191844*
X328300*
X330755Y191000D02*
Y191169D01*
X330891Y191506*
X331027Y191675*
X331300Y191844*
X331845*
X332118Y191675*
X332255Y191506*
X332391Y191169*
Y190831*
X332255Y190494*
X331982Y189988*
X331982D02*
X330618Y188300D01*
X332527*
X304345Y144000D02*
X304209Y144338D01*
X304209D02*
X303936Y144675D01*
X303664Y144844*
X303118*
X302845Y144675*
X302573Y144338*
X302573D02*
X302436Y144000D01*
X302300Y143494*
Y142650*
X302436Y142144*
X302573Y141806*
X302845Y141469*
X303118Y141300*
X303664*
X303936Y141469*
X304209Y141806*
X304345Y142144*
X305573Y144169D02*
X305845Y144338D01*
X305845D02*
X306255Y144844D01*
Y141300*
X308300Y144844D02*
X307891Y144675D01*
X307618Y144169*
X307482Y143325*
Y142819*
X307618Y141975*
X307891Y141469*
X308300Y141300*
X308573*
X308982Y141469*
X309255Y141975*
X309391Y142819*
Y143325*
X309255Y144169*
X308982Y144675*
X308573Y144844*
X308300*
X310891D02*
X312391D01*
X311573Y143494*
X311982*
X312255Y143325*
X312391Y143156*
X312527Y142650*
Y142313*
X312527D02*
X312391Y141806D01*
X312118Y141469*
X311709Y141300*
X311300*
X310891Y141469*
X310755Y141638*
X310755D02*
X310618Y141975D01*
X324345Y213000D02*
X324209Y213338D01*
X324209D02*
X323936Y213675D01*
X323664Y213844*
X323118*
X322845Y213675*
X322573Y213338*
X322573D02*
X322436Y213000D01*
X322300Y212494*
Y211650*
X322436Y211144*
X322573Y210806*
X322845Y210469*
X323118Y210300*
X323664*
X323936Y210469*
X324209Y210806*
X324345Y211144*
X325573Y213169D02*
X325845Y213338D01*
X325845D02*
X326255Y213844D01*
Y210300*
X328300Y213844D02*
X327891Y213675D01*
X327618Y213169*
X327482Y212325*
Y211819*
X327618Y210975*
X327891Y210469*
X328300Y210300*
X328573*
X328982Y210469*
X329255Y210975*
X329391Y211819*
Y212325*
X329255Y213169*
X328982Y213675*
X328573Y213844*
X328300*
X331982D02*
X330618Y211481D01*
X332664*
X331982Y213844D02*
Y210300D01*
X381345Y295000D02*
X381209Y295338D01*
X381209D02*
X380936Y295675D01*
X380664Y295844*
X380118*
X379845Y295675*
X379573Y295338*
X379573D02*
X379436Y295000D01*
X379300Y294494*
Y293650*
X379436Y293144*
X379573Y292806*
X379845Y292469*
X380118Y292300*
X380664*
X380936Y292469*
X381209Y292806*
X381345Y293144*
X382573Y295169D02*
X382845Y295338D01*
X382845D02*
X383255Y295844D01*
Y292300*
X384482Y295169D02*
X384755Y295338D01*
X384755D02*
X385164Y295844D01*
Y292300*
X388027Y295338D02*
X387891Y295675D01*
X387482Y295844*
X387209*
X386800Y295675*
X386527Y295169*
X386391Y294325*
Y293481*
X386527Y292806*
X386800Y292469*
X387209Y292300*
X387345*
X387755Y292469*
X388027Y292806*
X388164Y293313*
X388164D02*
Y293481D01*
X388027Y293988*
X388027D02*
X387755Y294325D01*
X387345Y294494*
X387209*
X386800Y294325*
X386527Y293988*
X386527D02*
X386391Y293481D01*
X318973Y120591D02*
X318836Y120928D01*
X318564Y121266*
X318291Y121434*
X317745*
X317473Y121266*
X317200Y120928*
X317064Y120591*
X316927Y120084*
Y119241*
X317064Y118734*
X317200Y118397*
X317473Y118059*
X317745Y117891*
X318291*
X318564Y118059*
X318836Y118397*
X318973Y118734*
X320200Y120759D02*
X320473Y120928D01*
X320882Y121434*
Y117891*
X322927Y121434D02*
X322518Y121266D01*
X322245Y120759*
X322109Y119916*
Y119409*
X322245Y118566*
X322518Y118059*
X322927Y117891*
X323200*
X323609Y118059*
X323882Y118566*
X324018Y119409*
Y119916*
X323882Y120759*
X323609Y121266*
X323200Y121434*
X322927*
X327155D02*
X325791Y117891D01*
X325245Y121434D02*
X327155D01*
X339109Y120591D02*
X338973Y120928D01*
X338700Y121266*
X338427Y121434*
X337882*
X337609Y121266*
X337336Y120928*
X337200Y120591*
X337064Y120084*
Y119241*
X337200Y118734*
X337336Y118397*
X337609Y118059*
X337882Y117891*
X338427*
X338700Y118059*
X338973Y118397*
X339109Y118734*
X340336Y120759D02*
X340609Y120928D01*
X341018Y121434*
Y117891*
X343064Y121434D02*
X342655Y121266D01*
X342382Y120759*
X342245Y119916*
Y119409*
X342382Y118566*
X342655Y118059*
X343064Y117891*
X343336*
X343745Y118059*
X344018Y118566*
X344155Y119409*
Y119916*
X344018Y120759*
X343745Y121266*
X343336Y121434*
X343064*
X347155Y120253D02*
X347018Y119747D01*
X346745Y119409*
X346336Y119241*
X346200*
X345791Y119409*
X345518Y119747*
X345382Y120253*
Y120422*
X345518Y120928*
X345791Y121266*
X346200Y121434*
X346336*
X346745Y121266*
X347018Y120928*
X347155Y120253*
Y119409*
X347018Y118566*
X346745Y118059*
X346336Y117891*
X346064*
X345655Y118059*
X345518Y118397*
X321345Y141000D02*
X321209Y141338D01*
X320936Y141675*
X320664Y141844*
X320118*
X319845Y141675*
X319573Y141338*
X319436Y141000*
X319300Y140494*
Y139650*
X319436Y139144*
X319573Y138806*
X319845Y138469*
X320118Y138300*
X320664*
X320936Y138469*
X321209Y138806*
X321345Y139144*
X324209Y141338D02*
X324073Y141675D01*
X323664Y141844*
X323391*
X322982Y141675*
X322709Y141169*
X322573Y140325*
Y139481*
X322709Y138806*
X322982Y138469*
X323391Y138300*
X323527*
X323936Y138469*
X324209Y138806*
X324345Y139313*
Y139481*
X324209Y139988*
X323936Y140325*
X323527Y140494*
X323391*
X322982Y140325*
X322709Y139988*
X322573Y139481*
X326391Y141844D02*
X325982Y141675D01*
X325709Y141169*
X325573Y140325*
Y139819*
X325709Y138975*
X325982Y138469*
X326391Y138300*
X326664*
X327073Y138469*
X327345Y138975*
X327482Y139819*
Y140325*
X327345Y141169*
X327073Y141675*
X326664Y141844*
X326391*
X309345Y316000D02*
X309209Y316338D01*
X309209D02*
X308936Y316675D01*
X308664Y316844*
X308118*
X307845Y316675*
X307573Y316338*
X307573D02*
X307436Y316000D01*
X307300Y315494*
Y314650*
X307436Y314144*
X307573Y313806*
X307845Y313469*
X308118Y313300*
X308664*
X308936Y313469*
X309209Y313806*
X309345Y314144*
X312209Y316338D02*
X312073Y316675D01*
X311664Y316844*
X311391*
X310982Y316675*
X310709Y316169*
X310573Y315325*
Y314481*
X310709Y313806*
X310982Y313469*
X311391Y313300*
X311527*
X311936Y313469*
X312209Y313806*
X312345Y314313*
X312345D02*
Y314481D01*
X312209Y314988*
X312209D02*
X311936Y315325D01*
X311527Y315494*
X311391*
X310982Y315325*
X310709Y314988*
X310709D02*
X310573Y314481D01*
X313573Y316169D02*
X313845Y316338D01*
X313845D02*
X314255Y316844D01*
Y313300*
X356345Y212000D02*
X356209Y212338D01*
X356209D02*
X355936Y212675D01*
X355664Y212844*
X355118*
X354845Y212675*
X354573Y212338*
X354573D02*
X354436Y212000D01*
X354300Y211494*
Y210650*
X354436Y210144*
X354573Y209806*
X354845Y209469*
X355118Y209300*
X355664*
X355936Y209469*
X356209Y209806*
X356345Y210144*
X359209Y212338D02*
X359073Y212675D01*
X358664Y212844*
X358391*
X357982Y212675*
X357709Y212169*
X357573Y211325*
Y210481*
X357709Y209806*
X357982Y209469*
X358391Y209300*
X358527*
X358936Y209469*
X359209Y209806*
X359345Y210313*
X359345D02*
Y210481D01*
X359209Y210988*
X359209D02*
X358936Y211325D01*
X358527Y211494*
X358391*
X357982Y211325*
X357709Y210988*
X357709D02*
X357573Y210481D01*
X361936Y212844D02*
X360573Y210481D01*
X362618*
X361936Y212844D02*
Y209300D01*
X395209Y170338D02*
X394936Y170675D01*
X394527Y170844*
X393982*
X393573Y170675*
X393300Y170338*
X393300D02*
Y170000D01*
X393436Y169663*
X393436D02*
X393573Y169494D01*
X393845Y169325*
X394664Y168988*
X394664D02*
X394936Y168819D01*
X395073Y168650*
X395209Y168313*
X395209D02*
Y167806D01*
X394936Y167469*
X394527Y167300*
X393982*
X393573Y167469*
X393300Y167806*
X396436Y170844D02*
Y167300D01*
Y170844D02*
X397664D01*
X398073Y170675*
X398209Y170506*
X398345Y170169*
Y169663*
X398345D02*
X398209Y169325D01*
X398073Y169156*
X397664Y168988*
X397664D02*
X396436D01*
X399573Y170844D02*
Y167300D01*
Y170844D02*
X401345D01*
X399573Y169156D02*
X400664D01*
X399573Y167300D02*
X401345D01*
X403664Y170844D02*
X402573Y167300D01*
X403664Y170844D02*
X404755Y167300D01*
X402982Y168481D02*
X404345D01*
X405982Y170844D02*
Y167300D01*
X407891Y170844D02*
X405982Y168481D01*
X406664Y169325D02*
X407891Y167300D01*
X409118Y170844D02*
Y167300D01*
Y170844D02*
X410891D01*
X409118Y169156D02*
X410209D01*
X409118Y167300D02*
X410891D01*
X412118Y170844D02*
Y167300D01*
Y170844D02*
X413345D01*
X413755Y170675*
X413891Y170506*
X414027Y170169*
Y169831*
X413891Y169494*
X413755Y169325*
X413345Y169156*
X412118*
X413073D02*
X414027Y167300D01*
X287345Y229000D02*
X287209Y229338D01*
X287209D02*
X286936Y229675D01*
X286664Y229844*
X286118*
X285845Y229675*
X285573Y229338*
X285573D02*
X285436Y229000D01*
X285300Y228494*
Y227650*
X285436Y227144*
X285573Y226806*
X285845Y226469*
X286118Y226300*
X286664*
X286936Y226469*
X287209Y226806*
X287345Y227144*
X290209Y229338D02*
X290073Y229675D01*
X289664Y229844*
X289391*
X288982Y229675*
X288709Y229169*
X288573Y228325*
Y227481*
X288709Y226806*
X288982Y226469*
X289391Y226300*
X289527*
X289936Y226469*
X290209Y226806*
X290345Y227313*
X290345D02*
Y227481D01*
X290209Y227988*
X290209D02*
X289936Y228325D01*
X289527Y228494*
X289391*
X288982Y228325*
X288709Y227988*
X288709D02*
X288573Y227481D01*
X293345Y229844D02*
X291982D01*
X291845Y228325*
X291982Y228494*
X292391Y228663*
X292391D02*
X292800D01*
X292800D02*
X293209Y228494D01*
X293482Y228156*
X293618Y227650*
X293482Y227313*
X293482D02*
X293345Y226806D01*
X293073Y226469*
X292664Y226300*
X292255*
X291845Y226469*
X291709Y226638*
X291709D02*
X291573Y226975D01*
X178000Y314655D02*
X178337Y314791D01*
X178675Y315064*
X178844Y315336*
Y315882*
X178675Y316155*
X178337Y316427*
X178000Y316564*
X177494Y316700*
X176650*
X176144Y316564*
X175806Y316427*
X175469Y316155*
X175300Y315882*
Y315336*
X175469Y315064*
X175806Y314791*
X176144Y314655*
X178337Y311791D02*
X178675Y311927D01*
X178844Y312336*
Y312609*
X178675Y313018*
X178169Y313291*
X177325Y313427*
X176481*
X175806Y313291*
X175469Y313018*
X175300Y312609*
Y312473*
X175469Y312064*
X175806Y311791*
X176312Y311655*
X176481*
X176987Y311791*
X177325Y312064*
X177494Y312473*
Y312609*
X177325Y313018*
X176987Y313291*
X176481Y313427*
X178337Y308791D02*
X178675Y308927D01*
X178844Y309336*
Y309609*
X178675Y310018*
X178169Y310291*
X177325Y310427*
X176481*
X175806Y310291*
X175469Y310018*
X175300Y309609*
Y309473*
X175469Y309064*
X175806Y308791*
X176312Y308655*
X176481*
X176987Y308791*
X177325Y309064*
X177494Y309473*
Y309609*
X177325Y310018*
X176987Y310291*
X176481Y310427*
X149345Y227000D02*
X149209Y227338D01*
X149209D02*
X148936Y227675D01*
X148664Y227844*
X148118*
X147845Y227675*
X147573Y227338*
X147573D02*
X147436Y227000D01*
X147300Y226494*
Y225650*
X147436Y225144*
X147573Y224806*
X147845Y224469*
X148118Y224300*
X148664*
X148936Y224469*
X149209Y224806*
X149345Y225144*
X150573Y227169D02*
X150845Y227338D01*
X150845D02*
X151255Y227844D01*
Y224300*
X152755Y227844D02*
X154255D01*
X153436Y226494*
X153845*
X154118Y226325*
X154255Y226156*
X154391Y225650*
Y225313*
X154391D02*
X154255Y224806D01*
X153982Y224469*
X153573Y224300*
X153164*
X152755Y224469*
X152618Y224638*
X152618D02*
X152482Y224975D01*
X156982Y227844D02*
X155618Y225481D01*
X157664*
X156982Y227844D02*
Y224300D01*
X175345Y256000D02*
X175209Y256338D01*
X174936Y256675*
X174664Y256844*
X174118*
X173845Y256675*
X173573Y256338*
X173436Y256000*
X173300Y255494*
Y254650*
X173436Y254144*
X173573Y253806*
X173845Y253469*
X174118Y253300*
X174664*
X174936Y253469*
X175209Y253806*
X175345Y254144*
X176573Y256169D02*
X176845Y256338D01*
X177255Y256844*
Y253300*
X178755Y256844D02*
X180255D01*
X179436Y255494*
X179845*
X180118Y255325*
X180255Y255156*
X180391Y254650*
Y254313*
X180255Y253806*
X179982Y253469*
X179573Y253300*
X179164*
X178755Y253469*
X178618Y253638*
X178482Y253975*
X183391Y256844D02*
X182027D01*
X181891Y255325*
X182027Y255494*
X182436Y255663*
X182845*
X183255Y255494*
X183527Y255156*
X183664Y254650*
X183527Y254313*
X183391Y253806*
X183118Y253469*
X182709Y253300*
X182300*
X181891Y253469*
X181755Y253638*
X181618Y253975*
X171345Y263000D02*
X171209Y263338D01*
X170936Y263675*
X170664Y263844*
X170118*
X169845Y263675*
X169573Y263338*
X169436Y263000*
X169300Y262494*
Y261650*
X169436Y261144*
X169573Y260806*
X169845Y260469*
X170118Y260300*
X170664*
X170936Y260469*
X171209Y260806*
X171345Y261144*
X172573Y263169D02*
X172845Y263338D01*
X173255Y263844*
Y260300*
X174755Y263844D02*
X176255D01*
X175436Y262494*
X175845*
X176118Y262325*
X176255Y262156*
X176391Y261650*
Y261313*
X176255Y260806*
X175982Y260469*
X175573Y260300*
X175164*
X174755Y260469*
X174618Y260638*
X174482Y260975*
X178436Y263844D02*
X178027Y263675D01*
X177755Y263169*
X177618Y262325*
Y261819*
X177755Y260975*
X178027Y260469*
X178436Y260300*
X178709*
X179118Y260469*
X179391Y260975*
X179527Y261819*
Y262325*
X179391Y263169*
X179118Y263675*
X178709Y263844*
X178436*
X160345Y300000D02*
X160209Y300338D01*
X160209D02*
X159936Y300675D01*
X159664Y300844*
X159118*
X158845Y300675*
X158573Y300338*
X158573D02*
X158436Y300000D01*
X158300Y299494*
Y298650*
X158436Y298144*
X158573Y297806*
X158845Y297469*
X159118Y297300*
X159664*
X159936Y297469*
X160209Y297806*
X160345Y298144*
X161573Y300169D02*
X161845Y300338D01*
X161845D02*
X162255Y300844D01*
Y297300*
X163755Y300844D02*
X165255D01*
X164436Y299494*
X164845*
X165118Y299325*
X165255Y299156*
X165391Y298650*
Y298313*
X165391D02*
X165255Y297806D01*
X164982Y297469*
X164573Y297300*
X164164*
X163755Y297469*
X163618Y297638*
X163618D02*
X163482Y297975D01*
X167300Y300844D02*
X166891Y300675D01*
X166755Y300338*
X166755D02*
Y300000D01*
X166891Y299663*
X166891D02*
X167164Y299494D01*
X167709Y299325*
X168118Y299156*
X168391Y298819*
X168527Y298481*
Y297975*
X168391Y297638*
X168391D02*
X168255Y297469D01*
X167845Y297300*
X167300*
X166891Y297469*
X166755Y297638*
X166755D02*
X166618Y297975D01*
Y298481*
X166755Y298819*
X167027Y299156*
X167436Y299325*
X167982Y299494*
X168255Y299663*
X168255D02*
X168391Y300000D01*
Y300338*
X168391D02*
X168255Y300675D01*
X167845Y300844*
X167300*
X148345Y172000D02*
X148209Y172338D01*
X148209D02*
X147936Y172675D01*
X147664Y172844*
X147118*
X146845Y172675*
X146573Y172338*
X146573D02*
X146436Y172000D01*
X146300Y171494*
Y170650*
X146436Y170144*
X146573Y169806*
X146845Y169469*
X147118Y169300*
X147664*
X147936Y169469*
X148209Y169806*
X148345Y170144*
X149573Y172169D02*
X149845Y172338D01*
X149845D02*
X150255Y172844D01*
Y169300*
X151755Y172844D02*
X153255D01*
X152436Y171494*
X152845*
X153118Y171325*
X153255Y171156*
X153391Y170650*
Y170313*
X153391D02*
X153255Y169806D01*
X152982Y169469*
X152573Y169300*
X152164*
X151755Y169469*
X151618Y169638*
X151618D02*
X151482Y169975D01*
X156391Y171663D02*
X156255Y171156D01*
X155982Y170819*
X155573Y170650*
X155436*
X155027Y170819*
X154755Y171156*
X154618Y171663*
X154618D02*
Y171831D01*
X154755Y172338*
X154755D02*
X155027Y172675D01*
X155436Y172844*
X155573*
X155982Y172675*
X156255Y172338*
X156255D02*
X156391Y171663D01*
X156391D02*
Y170819D01*
X156255Y169975*
X155982Y169469*
X155573Y169300*
X155300*
X154891Y169469*
X154755Y169806*
X184000Y314655D02*
X184337Y314791D01*
X184675Y315064*
X184844Y315336*
Y315882*
X184675Y316155*
X184337Y316427*
X184000Y316564*
X183494Y316700*
X182650*
X182144Y316564*
X181806Y316427*
X181469Y316155*
X181300Y315882*
Y315336*
X181469Y315064*
X181806Y314791*
X182144Y314655*
X184169Y313427D02*
X184337Y313155D01*
X184844Y312745*
X181300*
X184844Y310700D02*
X184675Y311109D01*
X184169Y311382*
X183325Y311518*
X182819*
X181975Y311382*
X181469Y311109*
X181300Y310700*
Y310427*
X181469Y310018*
X181975Y309745*
X182819Y309609*
X183325*
X184169Y309745*
X184675Y310018*
X184844Y310427*
Y310700*
X184169Y308382D02*
X184337Y308109D01*
X184844Y307700*
X181300*
X355345Y223000D02*
X355209Y223338D01*
X355209D02*
X354936Y223675D01*
X354664Y223844*
X354118*
X353845Y223675*
X353573Y223338*
X353573D02*
X353436Y223000D01*
X353300Y222494*
Y221650*
X353436Y221144*
X353573Y220806*
X353845Y220469*
X354118Y220300*
X354664*
X354936Y220469*
X355209Y220806*
X355345Y221144*
X356573Y223169D02*
X356845Y223338D01*
X356845D02*
X357255Y223844D01*
Y220300*
X358482Y223169D02*
X358755Y223338D01*
X358755D02*
X359164Y223844D01*
Y220300*
X362300Y223844D02*
X360936Y220300D01*
X360391Y223844D02*
X362300D01*
X390345Y278000D02*
X390209Y278338D01*
X390209D02*
X389936Y278675D01*
X389664Y278844*
X389118*
X388845Y278675*
X388573Y278338*
X388573D02*
X388436Y278000D01*
X388300Y277494*
Y276650*
X388436Y276144*
X388573Y275806*
X388845Y275469*
X389118Y275300*
X389664*
X389936Y275469*
X390209Y275806*
X390345Y276144*
X393482Y278844D02*
X392118Y275300D01*
X391573Y278844D02*
X393482D01*
X394845Y278000D02*
Y278169D01*
X394982Y278506*
X395118Y278675*
X395391Y278844*
X395936*
X396209Y278675*
X396345Y278506*
X396482Y278169*
Y277831*
X396345Y277494*
X396073Y276988*
X396073D02*
X394709Y275300D01*
X396618*
X301345Y222000D02*
X301209Y222338D01*
X301209D02*
X300936Y222675D01*
X300664Y222844*
X300118*
X299845Y222675*
X299573Y222338*
X299573D02*
X299436Y222000D01*
X299300Y221494*
Y220650*
X299436Y220144*
X299573Y219806*
X299845Y219469*
X300118Y219300*
X300664*
X300936Y219469*
X301209Y219806*
X301345Y220144*
X302573Y222169D02*
X302845Y222338D01*
X302845D02*
X303255Y222844D01*
Y219300*
X304618Y222000D02*
Y222169D01*
X304755Y222506*
X304891Y222675*
X305164Y222844*
X305709*
X305982Y222675*
X306118Y222506*
X306255Y222169*
Y221831*
X306118Y221494*
X305845Y220988*
X305845D02*
X304482Y219300D01*
X306391*
X308436Y222844D02*
X308027Y222675D01*
X307755Y222169*
X307618Y221325*
Y220819*
X307755Y219975*
X308027Y219469*
X308436Y219300*
X308709*
X309118Y219469*
X309391Y219975*
X309527Y220819*
Y221325*
X309391Y222169*
X309118Y222675*
X308709Y222844*
X308436*
X214345Y227000D02*
X214209Y227338D01*
X214209D02*
X213936Y227675D01*
X213664Y227844*
X213118*
X212845Y227675*
X212573Y227338*
X212573D02*
X212436Y227000D01*
X212300Y226494*
Y225650*
X212436Y225144*
X212573Y224806*
X212845Y224469*
X213118Y224300*
X213664*
X213936Y224469*
X214209Y224806*
X214345Y225144*
X216255Y227844D02*
X215845Y227675D01*
X215709Y227338*
X215709D02*
Y227000D01*
X215845Y226663*
X215845D02*
X216118Y226494D01*
X216664Y226325*
X217073Y226156*
X217345Y225819*
X217482Y225481*
Y224975*
X217345Y224638*
X217345D02*
X217209Y224469D01*
X216800Y224300*
X216255*
X215845Y224469*
X215709Y224638*
X215709D02*
X215573Y224975D01*
Y225481*
X215709Y225819*
X215982Y226156*
X216391Y226325*
X216936Y226494*
X217209Y226663*
X217209D02*
X217345Y227000D01*
Y227338*
X217345D02*
X217209Y227675D01*
X216800Y227844*
X216255*
X220618D02*
X219255Y224300D01*
X218709Y227844D02*
X220618D01*
X254345Y227000D02*
X254209Y227338D01*
X254209D02*
X253936Y227675D01*
X253664Y227844*
X253118*
X252845Y227675*
X252573Y227338*
X252573D02*
X252436Y227000D01*
X252300Y226494*
Y225650*
X252436Y225144*
X252573Y224806*
X252845Y224469*
X253118Y224300*
X253664*
X253936Y224469*
X254209Y224806*
X254345Y225144*
X256255Y227844D02*
X255845Y227675D01*
X255709Y227338*
X255709D02*
Y227000D01*
X255845Y226663*
X255845D02*
X256118Y226494D01*
X256664Y226325*
X257073Y226156*
X257345Y225819*
X257482Y225481*
Y224975*
X257345Y224638*
X257345D02*
X257209Y224469D01*
X256800Y224300*
X256255*
X255845Y224469*
X255709Y224638*
X255709D02*
X255573Y224975D01*
Y225481*
X255709Y225819*
X255982Y226156*
X256391Y226325*
X256936Y226494*
X257209Y226663*
X257209D02*
X257345Y227000D01*
Y227338*
X257345D02*
X257209Y227675D01*
X256800Y227844*
X256255*
X259391D02*
X258982Y227675D01*
X258845Y227338*
X258845D02*
Y227000D01*
X258982Y226663*
X258982D02*
X259255Y226494D01*
X259800Y226325*
X260209Y226156*
X260482Y225819*
X260618Y225481*
Y224975*
X260482Y224638*
X260482D02*
X260345Y224469D01*
X259936Y224300*
X259391*
X258982Y224469*
X258845Y224638*
X258845D02*
X258709Y224975D01*
Y225481*
X258845Y225819*
X259118Y226156*
X259527Y226325*
X260073Y226494*
X260345Y226663*
X260345D02*
X260482Y227000D01*
Y227338*
X260482D02*
X260345Y227675D01*
X259936Y227844*
X259391*
X297345Y278000D02*
X297209Y278338D01*
X297209D02*
X296936Y278675D01*
X296664Y278844*
X296118*
X295845Y278675*
X295573Y278338*
X295573D02*
X295436Y278000D01*
X295300Y277494*
Y276650*
X295436Y276144*
X295573Y275806*
X295845Y275469*
X296118Y275300*
X296664*
X296936Y275469*
X297209Y275806*
X297345Y276144*
X298573Y278169D02*
X298845Y278338D01*
X298845D02*
X299255Y278844D01*
Y275300*
X300618Y278000D02*
Y278169D01*
X300755Y278506*
X300891Y278675*
X301164Y278844*
X301709*
X301982Y278675*
X302118Y278506*
X302255Y278169*
Y277831*
X302118Y277494*
X301845Y276988*
X301845D02*
X300482Y275300D01*
X302391*
X305391Y278844D02*
X304027D01*
X303891Y277325*
X304027Y277494*
X304436Y277663*
X304436D02*
X304845D01*
X304845D02*
X305255Y277494D01*
X305527Y277156*
X305664Y276650*
X305527Y276313*
X305527D02*
X305391Y275806D01*
X305118Y275469*
X304709Y275300*
X304300*
X303891Y275469*
X303755Y275638*
X303755D02*
X303618Y275975D01*
X356345Y301000D02*
X356209Y301338D01*
X356209D02*
X355936Y301675D01*
X355664Y301844*
X355118*
X354845Y301675*
X354573Y301338*
X354573D02*
X354436Y301000D01*
X354300Y300494*
Y299650*
X354436Y299144*
X354573Y298806*
X354845Y298469*
X355118Y298300*
X355664*
X355936Y298469*
X356209Y298806*
X356345Y299144*
X357573Y301169D02*
X357845Y301338D01*
X357845D02*
X358255Y301844D01*
Y298300*
X359618Y301000D02*
Y301169D01*
X359755Y301506*
X359891Y301675*
X360164Y301844*
X360709*
X360982Y301675*
X361118Y301506*
X361255Y301169*
Y300831*
X361118Y300494*
X360845Y299988*
X360845D02*
X359482Y298300D01*
X361391*
X364255Y301338D02*
X364118Y301675D01*
X363709Y301844*
X363436*
X363027Y301675*
X362755Y301169*
X362618Y300325*
Y299481*
X362755Y298806*
X363027Y298469*
X363436Y298300*
X363573*
X363982Y298469*
X364255Y298806*
X364391Y299313*
X364391D02*
Y299481D01*
X364255Y299988*
X364255D02*
X363982Y300325D01*
X363573Y300494*
X363436*
X363027Y300325*
X362755Y299988*
X362755D02*
X362618Y299481D01*
X330345Y306000D02*
X330209Y306337D01*
X330209D02*
X329936Y306675D01*
X329664Y306844*
X329118*
X328845Y306675*
X328573Y306337*
X328573D02*
X328436Y306000D01*
X328300Y305494*
Y304650*
X328436Y304144*
X328573Y303806*
X328845Y303469*
X329118Y303300*
X329664*
X329936Y303469*
X330209Y303806*
X330345Y304144*
X331573Y306169D02*
X331845Y306337D01*
X331845D02*
X332255Y306844D01*
Y303300*
X333618Y306000D02*
Y306169D01*
X333755Y306506*
X333891Y306675*
X334164Y306844*
X334709*
X334982Y306675*
X335118Y306506*
X335255Y306169*
Y305831*
X335118Y305494*
X334845Y304987*
X334845D02*
X333482Y303300D01*
X335391*
X338527Y306844D02*
X337164Y303300D01*
X336618Y306844D02*
X338527D01*
X307345Y311000D02*
X307209Y311338D01*
X307209D02*
X306936Y311675D01*
X306664Y311844*
X306118*
X305845Y311675*
X305573Y311338*
X305573D02*
X305436Y311000D01*
X305300Y310494*
Y309650*
X305436Y309144*
X305573Y308806*
X305845Y308469*
X306118Y308300*
X306664*
X306936Y308469*
X307209Y308806*
X307345Y309144*
X308573Y311169D02*
X308845Y311338D01*
X308845D02*
X309255Y311844D01*
Y308300*
X310618Y311000D02*
Y311169D01*
X310755Y311506*
X310891Y311675*
X311164Y311844*
X311709*
X311982Y311675*
X312118Y311506*
X312255Y311169*
Y310831*
X312118Y310494*
X311845Y309988*
X311845D02*
X310482Y308300D01*
X312391*
X315391Y310663D02*
X315255Y310156D01*
X314982Y309819*
X314573Y309650*
X314436*
X314027Y309819*
X313755Y310156*
X313618Y310663*
X313618D02*
Y310831D01*
X313755Y311338*
X313755D02*
X314027Y311675D01*
X314436Y311844*
X314573*
X314982Y311675*
X315255Y311338*
X315255D02*
X315391Y310663D01*
X315391D02*
Y309819D01*
X315255Y308975*
X314982Y308469*
X314573Y308300*
X314300*
X313891Y308469*
X313755Y308806*
X136345Y148000D02*
X136209Y148338D01*
X136209D02*
X135936Y148675D01*
X135664Y148844*
X135118*
X134845Y148675*
X134573Y148338*
X134573D02*
X134436Y148000D01*
X134300Y147494*
Y146650*
X134436Y146144*
X134573Y145806*
X134845Y145469*
X135118Y145300*
X135664*
X135936Y145469*
X136209Y145806*
X136345Y146144*
X137573Y148169D02*
X137845Y148338D01*
X137845D02*
X138255Y148844D01*
Y145300*
X139755Y148844D02*
X141255D01*
X140436Y147494*
X140845*
X141118Y147325*
X141255Y147156*
X141391Y146650*
Y146313*
X141391D02*
X141255Y145806D01*
X140982Y145469*
X140573Y145300*
X140164*
X139755Y145469*
X139618Y145638*
X139618D02*
X139482Y145975D01*
X142891Y148844D02*
X144391D01*
X143573Y147494*
X143982*
X144255Y147325*
X144391Y147156*
X144527Y146650*
Y146313*
X144527D02*
X144391Y145806D01*
X144118Y145469*
X143709Y145300*
X143300*
X142891Y145469*
X142755Y145638*
X142755D02*
X142618Y145975D01*
X195000Y239345D02*
X194663Y239209D01*
X194663D02*
X194325Y238936D01*
X194156Y238664*
Y238118*
X194325Y237845*
X194663Y237573*
X194663D02*
X195000Y237436D01*
X195506Y237300*
X196350*
X196856Y237436*
X197194Y237573*
X197531Y237845*
X197700Y238118*
Y238664*
X197531Y238936*
X197194Y239209*
X196856Y239345*
X194831Y240573D02*
X194663Y240845D01*
X194663D02*
X194156Y241255D01*
X197700*
X194831Y242482D02*
X194663Y242755D01*
X194663D02*
X194156Y243164D01*
X197700*
X194156Y245209D02*
X194325Y244800D01*
X194831Y244527*
X195675Y244391*
X196181*
X197025Y244527*
X197531Y244800*
X197700Y245209*
Y245482*
X197531Y245891*
X197025Y246164*
X196181Y246300*
X195675*
X194831Y246164*
X194325Y245891*
X194156Y245482*
Y245209*
X235000Y239345D02*
X234662Y239209D01*
X234662D02*
X234325Y238936D01*
X234156Y238664*
Y238118*
X234325Y237845*
X234662Y237573*
X234662D02*
X235000Y237436D01*
X235506Y237300*
X236350*
X236856Y237436*
X237194Y237573*
X237531Y237845*
X237700Y238118*
Y238664*
X237531Y238936*
X237194Y239209*
X236856Y239345*
X234831Y240573D02*
X234662Y240845D01*
X234662D02*
X234156Y241255D01*
X237700*
X234831Y242482D02*
X234662Y242755D01*
X234662D02*
X234156Y243164D01*
X237700*
X234831Y244391D02*
X234662Y244664D01*
X234662D02*
X234156Y245073D01*
X237700*
X201000Y239345D02*
X200663Y239209D01*
X200663D02*
X200325Y238936D01*
X200156Y238664*
Y238118*
X200325Y237845*
X200663Y237573*
X200663D02*
X201000Y237436D01*
X201506Y237300*
X202350*
X202856Y237436*
X203194Y237573*
X203531Y237845*
X203700Y238118*
Y238664*
X203531Y238936*
X203194Y239209*
X202856Y239345*
X200831Y240573D02*
X200663Y240845D01*
X200663D02*
X200156Y241255D01*
X203700*
X200831Y242482D02*
X200663Y242755D01*
X200663D02*
X200156Y243164D01*
X203700*
X201338Y246164D02*
X201844Y246027D01*
X202181Y245755*
X202350Y245345*
Y245209*
X202181Y244800*
X201844Y244527*
X201338Y244391*
X201338D02*
X201169D01*
X200663Y244527*
X200663D02*
X200325Y244800D01*
X200156Y245209*
Y245345*
X200325Y245755*
X200663Y246027*
X200663D02*
X201338Y246164D01*
X201338D02*
X202181D01*
X203025Y246027*
X203531Y245755*
X203700Y245345*
Y245073*
X203531Y244664*
X203194Y244527*
X241000Y238345D02*
X240662Y238209D01*
X240662D02*
X240325Y237936D01*
X240156Y237664*
Y237118*
X240325Y236845*
X240662Y236573*
X240662D02*
X241000Y236436D01*
X241506Y236300*
X242350*
X242856Y236436*
X243194Y236573*
X243531Y236845*
X243700Y237118*
Y237664*
X243531Y237936*
X243194Y238209*
X242856Y238345*
X240831Y239573D02*
X240662Y239845D01*
X240662D02*
X240156Y240255D01*
X243700*
X241000Y241618D02*
X240831D01*
X240494Y241755*
X240325Y241891*
X240156Y242164*
Y242709*
X240325Y242982*
X240494Y243118*
X240831Y243255*
X241169*
X241506Y243118*
X242012Y242845*
X242012D02*
X243700Y241482D01*
Y243391*
X240831Y244618D02*
X240662Y244891D01*
X240662D02*
X240156Y245300D01*
X243700*
X286345Y273000D02*
X286209Y273338D01*
X286209D02*
X285936Y273675D01*
X285664Y273844*
X285118*
X284845Y273675*
X284573Y273338*
X284573D02*
X284436Y273000D01*
X284300Y272494*
Y271650*
X284436Y271144*
X284573Y270806*
X284845Y270469*
X285118Y270300*
X285664*
X285936Y270469*
X286209Y270806*
X286345Y271144*
X287573Y273169D02*
X287845Y273338D01*
X287845D02*
X288255Y273844D01*
Y270300*
X289755Y273844D02*
X291255D01*
X290436Y272494*
X290845*
X291118Y272325*
X291255Y272156*
X291391Y271650*
Y271313*
X291391D02*
X291255Y270806D01*
X290982Y270469*
X290573Y270300*
X290164*
X289755Y270469*
X289618Y270638*
X289618D02*
X289482Y270975D01*
X294255Y273338D02*
X294118Y273675D01*
X293709Y273844*
X293436*
X293027Y273675*
X292755Y273169*
X292618Y272325*
Y271481*
X292755Y270806*
X293027Y270469*
X293436Y270300*
X293573*
X293982Y270469*
X294255Y270806*
X294391Y271313*
X294391D02*
Y271481D01*
X294255Y271988*
X294255D02*
X293982Y272325D01*
X293573Y272494*
X293436*
X293027Y272325*
X292755Y271988*
X292755D02*
X292618Y271481D01*
X320345Y150000D02*
X320209Y150338D01*
X320209D02*
X319936Y150675D01*
X319664Y150844*
X319118*
X318845Y150675*
X318573Y150338*
X318573D02*
X318436Y150000D01*
X318300Y149494*
Y148650*
X318436Y148144*
X318573Y147806*
X318845Y147469*
X319118Y147300*
X319664*
X319936Y147469*
X320209Y147806*
X320345Y148144*
X321573Y150169D02*
X321845Y150338D01*
X321845D02*
X322255Y150844D01*
Y147300*
X324845Y150844D02*
X323482Y148481D01*
X325527*
X324845Y150844D02*
Y147300D01*
X328527Y150844D02*
X327164D01*
X327027Y149325*
X327164Y149494*
X327573Y149663*
X327573D02*
X327982D01*
X327982D02*
X328391Y149494D01*
X328664Y149156*
X328800Y148650*
X328664Y148313*
X328664D02*
X328527Y147806D01*
X328255Y147469*
X327845Y147300*
X327436*
X327027Y147469*
X326891Y147638*
X326891D02*
X326755Y147975D01*
X224000Y237345D02*
X223663Y237209D01*
X223663D02*
X223325Y236936D01*
X223156Y236664*
Y236118*
X223325Y235845*
X223663Y235573*
X223663D02*
X224000Y235436D01*
X224506Y235300*
X225350*
X225856Y235436*
X226194Y235573*
X226531Y235845*
X226700Y236118*
Y236664*
X226531Y236936*
X226194Y237209*
X225856Y237345*
X223831Y238573D02*
X223663Y238845D01*
X223663D02*
X223156Y239255D01*
X226700*
X223156Y241845D02*
X225519Y240482D01*
Y242527*
X223156Y241845D02*
X226700D01*
X223156Y244573D02*
X223325Y244164D01*
X223831Y243891*
X224675Y243755*
X225181*
X226025Y243891*
X226531Y244164*
X226700Y244573*
Y244845*
X226531Y245255*
X226025Y245527*
X225181Y245664*
X224675*
X223831Y245527*
X223325Y245255*
X223156Y244845*
Y244573*
X195000Y226345D02*
X194663Y226209D01*
X194663D02*
X194325Y225936D01*
X194156Y225664*
Y225118*
X194325Y224845*
X194663Y224573*
X194663D02*
X195000Y224436D01*
X195506Y224300*
X196350*
X196856Y224436*
X197194Y224573*
X197531Y224845*
X197700Y225118*
Y225664*
X197531Y225936*
X197194Y226209*
X196856Y226345*
X194831Y227573D02*
X194663Y227845D01*
X194663D02*
X194156Y228255D01*
X197700*
X194156Y230845D02*
X196519Y229482D01*
Y231527*
X194156Y230845D02*
X197700D01*
X194831Y232755D02*
X194663Y233027D01*
X194663D02*
X194156Y233436D01*
X197700*
X264000Y237345D02*
X263662Y237209D01*
X263662D02*
X263325Y236936D01*
X263156Y236664*
Y236118*
X263325Y235845*
X263662Y235573*
X263662D02*
X264000Y235436D01*
X264506Y235300*
X265350*
X265856Y235436*
X266194Y235573*
X266531Y235845*
X266700Y236118*
Y236664*
X266531Y236936*
X266194Y237209*
X265856Y237345*
X263831Y238573D02*
X263662Y238845D01*
X263662D02*
X263156Y239255D01*
X266700*
X263156Y241845D02*
X265519Y240482D01*
Y242527*
X263156Y241845D02*
X266700D01*
X264000Y243891D02*
X263831D01*
X263494Y244027*
X263325Y244164*
X263156Y244436*
Y244982*
X263325Y245255*
X263494Y245391*
X263831Y245527*
X264169*
X264506Y245391*
X265012Y245118*
X265012D02*
X266700Y243755D01*
Y245664*
X340000Y326345D02*
X339663Y326209D01*
X339663D02*
X339325Y325936D01*
X339156Y325664*
Y325118*
X339325Y324845*
X339663Y324573*
X339663D02*
X340000Y324436D01*
X340506Y324300*
X341350*
X341856Y324436*
X342194Y324573*
X342531Y324845*
X342700Y325118*
Y325664*
X342531Y325936*
X342194Y326209*
X341856Y326345*
X339831Y327573D02*
X339663Y327845D01*
X339663D02*
X339156Y328255D01*
X342700*
X339156Y330845D02*
X341519Y329482D01*
Y331527*
X339156Y330845D02*
X342700D01*
X330000Y325345D02*
X329663Y325209D01*
X329663D02*
X329325Y324936D01*
X329156Y324664*
Y324118*
X329325Y323845*
X329663Y323573*
X329663D02*
X330000Y323436D01*
X330506Y323300*
X331350*
X331856Y323436*
X332194Y323573*
X332531Y323845*
X332700Y324118*
Y324664*
X332531Y324936*
X332194Y325209*
X331856Y325345*
X329831Y326573D02*
X329663Y326845D01*
X329663D02*
X329156Y327255D01*
X332700*
X329156Y329845D02*
X331519Y328482D01*
Y330527*
X329156Y329845D02*
X332700D01*
X329156Y332436D02*
X329325Y332027D01*
X329663Y331891*
X329663D02*
X330000D01*
X330338Y332027*
X330338D02*
X330506Y332300D01*
X330675Y332845*
X330844Y333255*
X331181Y333527*
X331519Y333664*
X332025*
X332363Y333527*
X332363D02*
X332531Y333391D01*
X332700Y332982*
Y332436*
X332531Y332027*
X332363Y331891*
X332363D02*
X332025Y331755D01*
X331519*
X331181Y331891*
X330844Y332164*
X330675Y332573*
X330506Y333118*
X330338Y333391*
X330338D02*
X330000Y333527D01*
X329663*
X329663D02*
X329325Y333391D01*
X329156Y332982*
Y332436*
X319000Y325345D02*
X318663Y325209D01*
X318663D02*
X318325Y324936D01*
X318156Y324664*
Y324118*
X318325Y323845*
X318663Y323573*
X318663D02*
X319000Y323436D01*
X319506Y323300*
X320350*
X320856Y323436*
X321194Y323573*
X321531Y323845*
X321700Y324118*
Y324664*
X321531Y324936*
X321194Y325209*
X320856Y325345*
X318831Y326573D02*
X318663Y326845D01*
X318663D02*
X318156Y327255D01*
X321700*
X318156Y329845D02*
X320519Y328482D01*
Y330527*
X318156Y329845D02*
X321700D01*
X319338Y333527D02*
X319844Y333391D01*
X320181Y333118*
X320350Y332709*
Y332573*
X320181Y332164*
X319844Y331891*
X319338Y331755*
X319338D02*
X319169D01*
X318663Y331891*
X318663D02*
X318325Y332164D01*
X318156Y332573*
Y332709*
X318325Y333118*
X318663Y333391*
X318663D02*
X319338Y333527D01*
X319338D02*
X320181D01*
X321025Y333391*
X321531Y333118*
X321700Y332709*
Y332436*
X321531Y332027*
X321194Y331891*
X235000Y226345D02*
X234662Y226209D01*
X234662D02*
X234325Y225936D01*
X234156Y225664*
Y225118*
X234325Y224845*
X234662Y224573*
X234662D02*
X235000Y224436D01*
X235506Y224300*
X236350*
X236856Y224436*
X237194Y224573*
X237531Y224845*
X237700Y225118*
Y225664*
X237531Y225936*
X237194Y226209*
X236856Y226345*
X234831Y227573D02*
X234662Y227845D01*
X234662D02*
X234156Y228255D01*
X237700*
X234156Y230845D02*
X236519Y229482D01*
Y231527*
X234156Y230845D02*
X237700D01*
X234156Y233027D02*
Y234527D01*
X235506Y233709*
Y234118*
X235675Y234391*
X235844Y234527*
X236350Y234664*
X236687*
X236687D02*
X237194Y234527D01*
X237531Y234255*
X237700Y233845*
Y233436*
X237531Y233027*
X237362Y232891*
X237362D02*
X237025Y232755D01*
X143655Y322434D02*
X143382Y322266D01*
X143109Y321928*
X142973Y321591*
X142836Y321084*
Y320241*
X142973Y319734*
X143109Y319397*
X143382Y319059*
X143655Y318891*
X144200*
X144473Y319059*
X144745Y319397*
X144882Y319734*
X145018Y320241*
Y321084*
X144882Y321591*
X144745Y321928*
X144473Y322266*
X144200Y322434*
X143655*
X144064Y319566D02*
X144882Y318553D01*
X146518Y322434D02*
X148018D01*
X147200Y321084*
X147609*
X147882Y320916*
X148018Y320747*
X148155Y320241*
Y319903*
X148018Y319397*
X147745Y319059*
X147336Y318891*
X146927*
X146518Y319059*
X146382Y319228*
X146245Y319566*
X128156Y326300D02*
X131700D01*
X128156D02*
Y327527D01*
X128325Y327936*
X128494Y328073*
X128831Y328209*
X129169*
X129506Y328073*
X129675Y327936*
X129844Y327527*
Y326300*
Y327255D02*
X131700Y328209D01*
X129338Y331209D02*
X129844Y331073D01*
X130181Y330800*
X130350Y330391*
Y330255*
X130181Y329845*
X129844Y329573*
X129338Y329436*
X129338D02*
X129169D01*
X128663Y329573*
X128663D02*
X128325Y329845D01*
X128156Y330255*
Y330391*
X128325Y330800*
X128663Y331073*
X128663D02*
X129338Y331209D01*
X129338D02*
X130181D01*
X131025Y331073*
X131531Y330800*
X131700Y330391*
Y330118*
X131531Y329709*
X131194Y329573*
X129338Y334209D02*
X129844Y334073D01*
X130181Y333800*
X130350Y333391*
Y333255*
X130181Y332845*
X129844Y332573*
X129338Y332436*
X129338D02*
X129169D01*
X128663Y332573*
X128663D02*
X128325Y332845D01*
X128156Y333255*
Y333391*
X128325Y333800*
X128663Y334073*
X128663D02*
X129338Y334209D01*
X129338D02*
X130181D01*
X131025Y334073*
X131531Y333800*
X131700Y333391*
Y333118*
X131531Y332709*
X131194Y332573*
X146300Y330844D02*
Y327300D01*
Y330844D02*
X147527D01*
X147936Y330675*
X148073Y330506*
X148209Y330169*
Y329831*
X148073Y329494*
X147936Y329325*
X147527Y329156*
X146300*
X147255D02*
X148209Y327300D01*
X149436Y330169D02*
X149709Y330338D01*
X150118Y330844*
Y327300*
X152164Y330844D02*
X151755Y330675D01*
X151482Y330169*
X151345Y329325*
Y328819*
X151482Y327975*
X151755Y327469*
X152164Y327300*
X152436*
X152845Y327469*
X153118Y327975*
X153255Y328819*
Y329325*
X153118Y330169*
X152845Y330675*
X152436Y330844*
X152164*
X155300D02*
X154891Y330675D01*
X154618Y330169*
X154482Y329325*
Y328819*
X154618Y327975*
X154891Y327469*
X155300Y327300*
X155573*
X155982Y327469*
X156255Y327975*
X156391Y328819*
Y329325*
X156255Y330169*
X155982Y330675*
X155573Y330844*
X155300*
X272300Y160844D02*
Y157300D01*
Y160844D02*
X273527D01*
X273936Y160675*
X274073Y160506*
X274209Y160169*
Y159831*
X274073Y159494*
X273936Y159325*
X273527Y159156*
X272300*
X273255D02*
X274209Y157300D01*
X275436Y160169D02*
X275709Y160338D01*
X275709D02*
X276118Y160844D01*
Y157300*
X277345Y160169D02*
X277618Y160338D01*
X277618D02*
X278027Y160844D01*
Y157300*
X279936Y160844D02*
X279527Y160675D01*
X279391Y160338*
X279391D02*
Y160000D01*
X279527Y159663*
X279527D02*
X279800Y159494D01*
X280345Y159325*
X280755Y159156*
X281027Y158819*
X281164Y158481*
Y157975*
X281027Y157638*
X281027D02*
X280891Y157469D01*
X280482Y157300*
X279936*
X279527Y157469*
X279391Y157638*
X279391D02*
X279255Y157975D01*
Y158481*
X279391Y158819*
X279664Y159156*
X280073Y159325*
X280618Y159494*
X280891Y159663*
X280891D02*
X281027Y160000D01*
Y160338*
X281027D02*
X280891Y160675D01*
X280482Y160844*
X279936*
X214300Y161844D02*
Y158300D01*
Y161844D02*
X215527D01*
X215936Y161675*
X216073Y161506*
X216209Y161169*
Y160831*
X216073Y160494*
X215936Y160325*
X215527Y160156*
X214300*
X215255D02*
X216209Y158300D01*
X217436Y161169D02*
X217709Y161338D01*
X217709D02*
X218118Y161844D01*
Y158300*
X219482Y161000D02*
Y161169D01*
X219618Y161506*
X219755Y161675*
X220027Y161844*
X220573*
X220845Y161675*
X220982Y161506*
X221118Y161169*
Y160831*
X220982Y160494*
X220709Y159988*
X220709D02*
X219345Y158300D01*
X221255*
X222755Y161844D02*
X224255D01*
X223436Y160494*
X223845*
X224118Y160325*
X224255Y160156*
X224391Y159650*
Y159313*
X224391D02*
X224255Y158806D01*
X223982Y158469*
X223573Y158300*
X223164*
X222755Y158469*
X222618Y158638*
X222618D02*
X222482Y158975D01*
X197345Y285000D02*
X197209Y285338D01*
X196936Y285675*
X196664Y285844*
X196118*
X195845Y285675*
X195573Y285338*
X195436Y285000*
X195300Y284494*
Y283650*
X195436Y283144*
X195573Y282806*
X195845Y282469*
X196118Y282300*
X196664*
X196936Y282469*
X197209Y282806*
X197345Y283144*
X200345Y285844D02*
X198982D01*
X198845Y284325*
X198982Y284494*
X199391Y284663*
X199800*
X200209Y284494*
X200482Y284156*
X200618Y283650*
X200482Y283313*
X200345Y282806*
X200073Y282469*
X199664Y282300*
X199255*
X198845Y282469*
X198709Y282638*
X198573Y282975*
X201982Y285000D02*
Y285169D01*
X202118Y285506*
X202255Y285675*
X202527Y285844*
X203073*
X203345Y285675*
X203482Y285506*
X203618Y285169*
Y284831*
X203482Y284494*
X203209Y283988*
X201845Y282300*
X203755*
X189345Y350000D02*
X189209Y350338D01*
X189209D02*
X188936Y350675D01*
X188664Y350844*
X188118*
X187845Y350675*
X187573Y350338*
X187573D02*
X187436Y350000D01*
X187300Y349494*
Y348650*
X187436Y348144*
X187573Y347806*
X187845Y347469*
X188118Y347300*
X188664*
X188936Y347469*
X189209Y347806*
X189345Y348144*
X192345Y350844D02*
X190982D01*
X190845Y349325*
X190982Y349494*
X191391Y349663*
X191391D02*
X191800D01*
X191800D02*
X192209Y349494D01*
X192482Y349156*
X192618Y348650*
X192482Y348313*
X192482D02*
X192345Y347806D01*
X192073Y347469*
X191664Y347300*
X191255*
X190845Y347469*
X190709Y347638*
X190709D02*
X190573Y347975D01*
X194118Y350844D02*
X195618D01*
X194800Y349494*
X195209*
X195482Y349325*
X195618Y349156*
X195755Y348650*
Y348313*
X195755D02*
X195618Y347806D01*
X195345Y347469*
X194936Y347300*
X194527*
X194118Y347469*
X193982Y347638*
X193982D02*
X193845Y347975D01*
X326300Y202844D02*
Y200312D01*
X326300D02*
X326436Y199806D01*
X326709Y199469*
X327118Y199300*
X327391*
X327800Y199469*
X328073Y199806*
X328209Y200312*
X328209D02*
Y202844D01*
X329436Y202169D02*
X329709Y202337D01*
X329709D02*
X330118Y202844D01*
Y199300*
X333255Y202844D02*
X331891Y199300D01*
X331345Y202844D02*
X333255D01*
X209300Y237844D02*
Y235312D01*
X209300D02*
X209436Y234806D01*
X209709Y234469*
X210118Y234300*
X210391*
X210800Y234469*
X211073Y234806*
X211209Y235312*
X211209D02*
Y237844D01*
X212573Y237000D02*
Y237169D01*
X212709Y237506*
X212845Y237675*
X213118Y237844*
X213664*
X213936Y237675*
X214073Y237506*
X214209Y237169*
Y236831*
X214073Y236494*
X213800Y235987*
X213800D02*
X212436Y234300D01*
X214345*
X217345Y236662D02*
X217209Y236156D01*
X216936Y235819*
X216527Y235650*
X216391*
X215982Y235819*
X215709Y236156*
X215573Y236662*
X215573D02*
Y236831D01*
X215709Y237337*
X215709D02*
X215982Y237675D01*
X216391Y237844*
X216527*
X216936Y237675*
X217209Y237337*
X217209D02*
X217345Y236662D01*
X217345D02*
Y235819D01*
X217209Y234975*
X216936Y234469*
X216527Y234300*
X216255*
X215845Y234469*
X215709Y234806*
X249300Y237844D02*
Y235313D01*
X249300D02*
X249436Y234806D01*
X249709Y234469*
X250118Y234300*
X250391*
X250800Y234469*
X251073Y234806*
X251209Y235313*
X251209D02*
Y237844D01*
X252709D02*
X254209D01*
X253391Y236494*
X253800*
X254073Y236325*
X254209Y236156*
X254345Y235650*
Y235313*
X254345D02*
X254209Y234806D01*
X253936Y234469*
X253527Y234300*
X253118*
X252709Y234469*
X252573Y234638*
X252573D02*
X252436Y234975D01*
X256391Y237844D02*
X255982Y237675D01*
X255709Y237169*
X255573Y236325*
Y235819*
X255709Y234975*
X255982Y234469*
X256391Y234300*
X256664*
X257073Y234469*
X257345Y234975*
X257482Y235819*
Y236325*
X257345Y237169*
X257073Y237675*
X256664Y237844*
X256391*
X269300Y289844D02*
Y287313D01*
X269300D02*
X269436Y286806D01*
X269709Y286469*
X270118Y286300*
X270391*
X270800Y286469*
X271073Y286806*
X271209Y287313*
X271209D02*
Y289844D01*
X272709D02*
X274209D01*
X273391Y288494*
X273800*
X274073Y288325*
X274209Y288156*
X274345Y287650*
Y287313*
X274345D02*
X274209Y286806D01*
X273936Y286469*
X273527Y286300*
X273118*
X272709Y286469*
X272573Y286638*
X272573D02*
X272436Y286975D01*
X203300Y273844D02*
Y271313D01*
X203300D02*
X203436Y270806D01*
X203709Y270469*
X204118Y270300*
X204391*
X204800Y270469*
X205073Y270806*
X205209Y271313*
X205209D02*
Y273844D01*
X206709D02*
X208209D01*
X207391Y272494*
X207800*
X208073Y272325*
X208209Y272156*
X208345Y271650*
Y271313*
X208345D02*
X208209Y270806D01*
X207936Y270469*
X207527Y270300*
X207118*
X206709Y270469*
X206573Y270638*
X206573D02*
X206436Y270975D01*
X210255Y273844D02*
X209845Y273675D01*
X209709Y273338*
X209709D02*
Y273000D01*
X209845Y272663*
X209845D02*
X210118Y272494D01*
X210664Y272325*
X211073Y272156*
X211345Y271819*
X211482Y271481*
Y270975*
X211345Y270638*
X211345D02*
X211209Y270469D01*
X210800Y270300*
X210255*
X209845Y270469*
X209709Y270638*
X209709D02*
X209573Y270975D01*
Y271481*
X209709Y271819*
X209982Y272156*
X210391Y272325*
X210936Y272494*
X211209Y272663*
X211209D02*
X211345Y273000D01*
Y273338*
X211345D02*
X211209Y273675D01*
X210800Y273844*
X210255*
X182300Y325844D02*
Y323313D01*
X182300D02*
X182436Y322806D01*
X182709Y322469*
X183118Y322300*
X183391*
X183800Y322469*
X184073Y322806*
X184209Y323313*
X184209D02*
Y325844D01*
X185709D02*
X187209D01*
X186391Y324494*
X186800*
X187073Y324325*
X187209Y324156*
X187345Y323650*
Y323313*
X187345D02*
X187209Y322806D01*
X186936Y322469*
X186527Y322300*
X186118*
X185709Y322469*
X185573Y322638*
X185573D02*
X185436Y322975D01*
X190345Y324663D02*
X190209Y324156D01*
X189936Y323819*
X189527Y323650*
X189391*
X188982Y323819*
X188709Y324156*
X188573Y324663*
X188573D02*
Y324831D01*
X188709Y325338*
X188709D02*
X188982Y325675D01*
X189391Y325844*
X189527*
X189936Y325675*
X190209Y325338*
X190209D02*
X190345Y324663D01*
X190345D02*
Y323819D01*
X190209Y322975*
X189936Y322469*
X189527Y322300*
X189255*
X188845Y322469*
X188709Y322806*
X261156Y132300D02*
X263687D01*
X263687D02*
X264194Y132436D01*
X264531Y132709*
X264700Y133118*
Y133391*
X264531Y133800*
X264194Y134073*
X263687Y134209*
X263687D02*
X261156D01*
Y135709D02*
Y137209D01*
X262506Y136391*
Y136800*
X262675Y137073*
X262844Y137209*
X263350Y137345*
X263687*
X263687D02*
X264194Y137209D01*
X264531Y136936*
X264700Y136527*
Y136118*
X264531Y135709*
X264362Y135573*
X264362D02*
X264025Y135436D01*
X261662Y140209D02*
X261325Y140073D01*
X261156Y139664*
Y139391*
X261325Y138982*
X261831Y138709*
X262675Y138573*
X263519*
X264194Y138709*
X264531Y138982*
X264700Y139391*
Y139527*
X264531Y139936*
X264194Y140209*
X263687Y140345*
X263687D02*
X263519D01*
X263012Y140209*
X263012D02*
X262675Y139936D01*
X262506Y139527*
Y139391*
X262675Y138982*
X263012Y138709*
X263012D02*
X263519Y138573D01*
X204300Y142844D02*
Y140313D01*
X204300D02*
X204436Y139806D01*
X204709Y139469*
X205118Y139300*
X205391*
X205800Y139469*
X206073Y139806*
X206209Y140313*
X206209D02*
Y142844D01*
X207709D02*
X209209D01*
X208391Y141494*
X208800*
X209073Y141325*
X209209Y141156*
X209345Y140650*
Y140313*
X209345D02*
X209209Y139806D01*
X208936Y139469*
X208527Y139300*
X208118*
X207709Y139469*
X207573Y139638*
X207573D02*
X207436Y139975D01*
X212482Y142844D02*
X211118Y139300D01*
X210573Y142844D02*
X212482D01*
X121300Y146844D02*
Y144313D01*
X121300D02*
X121436Y143806D01*
X121709Y143469*
X122118Y143300*
X122391*
X122800Y143469*
X123073Y143806*
X123209Y144313*
X123209D02*
Y146844D01*
X124436Y146169D02*
X124709Y146338D01*
X124709D02*
X125118Y146844D01*
Y143300*
X127027Y146844D02*
X126618Y146675D01*
X126482Y146338*
X126482D02*
Y146000D01*
X126618Y145663*
X126618D02*
X126891Y145494D01*
X127436Y145325*
X127845Y145156*
X128118Y144819*
X128255Y144481*
Y143975*
X128118Y143638*
X128118D02*
X127982Y143469D01*
X127573Y143300*
X127027*
X126618Y143469*
X126482Y143638*
X126482D02*
X126345Y143975D01*
Y144481*
X126482Y144819*
X126755Y145156*
X127164Y145325*
X127709Y145494*
X127982Y145663*
X127982D02*
X128118Y146000D01*
Y146338*
X128118D02*
X127982Y146675D01*
X127573Y146844*
X127027*
X203300Y293844D02*
Y291313D01*
X203300D02*
X203436Y290806D01*
X203709Y290469*
X204118Y290300*
X204391*
X204800Y290469*
X205073Y290806*
X205209Y291313*
X205209D02*
Y293844D01*
X206573Y293000D02*
Y293169D01*
X206709Y293506*
X206845Y293675*
X207118Y293844*
X207664*
X207936Y293675*
X208073Y293506*
X208209Y293169*
Y292831*
X208073Y292494*
X207800Y291988*
X207800D02*
X206436Y290300D01*
X208345*
X209709Y293000D02*
Y293169D01*
X209845Y293506*
X209982Y293675*
X210255Y293844*
X210800*
X211073Y293675*
X211209Y293506*
X211345Y293169*
Y292831*
X211209Y292494*
X210936Y291988*
X210936D02*
X209573Y290300D01*
X211482*
X173300Y246844D02*
Y244313D01*
X173300D02*
X173436Y243806D01*
X173709Y243469*
X174118Y243300*
X174391*
X174800Y243469*
X175073Y243806*
X175209Y244313*
X175209D02*
Y246844D01*
X176573Y246000D02*
Y246169D01*
X176709Y246506*
X176845Y246675*
X177118Y246844*
X177664*
X177936Y246675*
X178073Y246506*
X178209Y246169*
Y245831*
X178073Y245494*
X177800Y244988*
X177800D02*
X176436Y243300D01*
X178345*
X181345Y246844D02*
X179982D01*
X179845Y245325*
X179982Y245494*
X180391Y245663*
X180391D02*
X180800D01*
X180800D02*
X181209Y245494D01*
X181482Y245156*
X181618Y244650*
X181482Y244313*
X181482D02*
X181345Y243806D01*
X181073Y243469*
X180664Y243300*
X180255*
X179845Y243469*
X179709Y243638*
X179709D02*
X179573Y243975D01*
X170300Y289844D02*
Y287313D01*
X170300D02*
X170436Y286806D01*
X170709Y286469*
X171118Y286300*
X171391*
X171800Y286469*
X172073Y286806*
X172209Y287313*
X172209D02*
Y289844D01*
X173573Y289000D02*
Y289169D01*
X173709Y289506*
X173845Y289675*
X174118Y289844*
X174664*
X174936Y289675*
X175073Y289506*
X175209Y289169*
Y288831*
X175073Y288494*
X174800Y287988*
X174800D02*
X173436Y286300D01*
X175345*
X178209Y289338D02*
X178073Y289675D01*
X177664Y289844*
X177391*
X176982Y289675*
X176709Y289169*
X176573Y288325*
Y287481*
X176709Y286806*
X176982Y286469*
X177391Y286300*
X177527*
X177936Y286469*
X178209Y286806*
X178345Y287313*
X178345D02*
Y287481D01*
X178209Y287988*
X178209D02*
X177936Y288325D01*
X177527Y288494*
X177391*
X176982Y288325*
X176709Y287988*
X176709D02*
X176573Y287481D01*
X160300Y202844D02*
Y200313D01*
X160300D02*
X160436Y199806D01*
X160709Y199469*
X161118Y199300*
X161391*
X161800Y199469*
X162073Y199806*
X162209Y200313*
X162209D02*
Y202844D01*
X163573Y202000D02*
Y202169D01*
X163709Y202506*
X163845Y202675*
X164118Y202844*
X164664*
X164936Y202675*
X165073Y202506*
X165209Y202169*
Y201831*
X165073Y201494*
X164800Y200988*
X164800D02*
X163436Y199300D01*
X165345*
X168482Y202844D02*
X167118Y199300D01*
X166573Y202844D02*
X168482D01*
X301300Y322844D02*
Y320313D01*
X301300D02*
X301436Y319806D01*
X301709Y319469*
X302118Y319300*
X302391*
X302800Y319469*
X303073Y319806*
X303209Y320313*
X303209D02*
Y322844D01*
X306209Y321663D02*
X306073Y321156D01*
X305800Y320819*
X305391Y320650*
X305255*
X304845Y320819*
X304573Y321156*
X304436Y321663*
X304436D02*
Y321831D01*
X304573Y322338*
X304573D02*
X304845Y322675D01*
X305255Y322844*
X305391*
X305800Y322675*
X306073Y322338*
X306073D02*
X306209Y321663D01*
X306209D02*
Y320819D01*
X306073Y319975*
X305800Y319469*
X305391Y319300*
X305118*
X304709Y319469*
X304573Y319806*
X418345Y337000D02*
X418209Y337338D01*
X418209D02*
X417936Y337675D01*
X417664Y337844*
X417118*
X416845Y337675*
X416573Y337338*
X416573D02*
X416436Y337000D01*
X416300Y336494*
Y335650*
X416436Y335144*
X416573Y334806*
X416845Y334469*
X417118Y334300*
X417664*
X417936Y334469*
X418209Y334806*
X418345Y335144*
X419573Y337844D02*
X420255Y334300D01*
X420936Y337844D02*
X420255Y334300D01*
X420936Y337844D02*
X421618Y334300D01*
X422300Y337844D02*
X421618Y334300D01*
X423800Y337844D02*
X425300D01*
X424482Y336494*
X424891*
X425164Y336325*
X425300Y336156*
X425436Y335650*
Y335313*
X425436D02*
X425300Y334806D01*
X425027Y334469*
X424618Y334300*
X424209*
X423800Y334469*
X423664Y334638*
X423664D02*
X423527Y334975D01*
X336345Y185000D02*
X336209Y185338D01*
X336209D02*
X335936Y185675D01*
X335664Y185844*
X335118*
X334845Y185675*
X334573Y185338*
X334573D02*
X334436Y185000D01*
X334300Y184494*
Y183650*
X334436Y183144*
X334573Y182806*
X334845Y182469*
X335118Y182300*
X335664*
X335936Y182469*
X336209Y182806*
X336345Y183144*
X339345Y185844D02*
X337982D01*
X337845Y184325*
X337982Y184494*
X338391Y184663*
X338391D02*
X338800D01*
X338800D02*
X339209Y184494D01*
X339482Y184156*
X339618Y183650*
X339482Y183313*
X339482D02*
X339345Y182806D01*
X339073Y182469*
X338664Y182300*
X338255*
X337845Y182469*
X337709Y182638*
X337709D02*
X337573Y182975D01*
X342618Y184663D02*
X342482Y184156D01*
X342209Y183819*
X341800Y183650*
X341664*
X341255Y183819*
X340982Y184156*
X340845Y184663*
X340845D02*
Y184831D01*
X340982Y185338*
X340982D02*
X341255Y185675D01*
X341664Y185844*
X341800*
X342209Y185675*
X342482Y185338*
X342482D02*
X342618Y184663D01*
X342618D02*
Y183819D01*
X342482Y182975*
X342209Y182469*
X341800Y182300*
X341527*
X341118Y182469*
X340982Y182806*
X378300Y264844D02*
Y262313D01*
X378300D02*
X378436Y261806D01*
X378709Y261469*
X379118Y261300*
X379391*
X379800Y261469*
X380073Y261806*
X380209Y262313*
X380209D02*
Y264844D01*
X381573Y264000D02*
Y264169D01*
X381709Y264506*
X381845Y264675*
X382118Y264844*
X382664*
X382936Y264675*
X383073Y264506*
X383209Y264169*
Y263831*
X383073Y263494*
X382800Y262988*
X382800D02*
X381436Y261300D01*
X383345*
X384573Y264169D02*
X384845Y264338D01*
X384845D02*
X385255Y264844D01*
Y261300*
X277300Y149844D02*
Y146300D01*
Y149844D02*
X278255D01*
X278664Y149675*
X278936Y149337*
X278936D02*
X279073Y149000D01*
X279209Y148494*
Y147650*
X279073Y147144*
X278936Y146806*
X278664Y146469*
X278255Y146300*
X277300*
X280709Y149844D02*
X282209D01*
X281391Y148494*
X281800*
X282073Y148325*
X282209Y148156*
X282345Y147650*
Y147312*
X282345D02*
X282209Y146806D01*
X281936Y146469*
X281527Y146300*
X281118*
X280709Y146469*
X280573Y146637*
X280573D02*
X280436Y146975D01*
X284156Y156300D02*
X287700D01*
X284156D02*
Y157527D01*
X284325Y157936*
X284494Y158073*
X284831Y158209*
X285169*
X285506Y158073*
X285675Y157936*
X285844Y157527*
Y156300*
Y157255D02*
X287700Y158209D01*
X285337Y161209D02*
X285844Y161073D01*
X286181Y160800*
X286350Y160391*
Y160255*
X286181Y159845*
X285844Y159573*
X285337Y159436*
X285337D02*
X285169D01*
X284662Y159573*
X284662D02*
X284325Y159845D01*
X284156Y160255*
Y160391*
X284325Y160800*
X284662Y161073*
X284662D02*
X285337Y161209D01*
X285337D02*
X286181D01*
X287025Y161073*
X287531Y160800*
X287700Y160391*
Y160118*
X287531Y159709*
X287194Y159573*
X284156Y163800D02*
X286519Y162436D01*
Y164482*
X284156Y163800D02*
X287700D01*
G54D146*
X279354Y342969D02*
Y337063D01*
X285063Y331354*
X290969*
X287031Y350646D02*
X292937D01*
X298646Y344937*
Y339031*
X344100Y346000D02*
X347900D01*
X217339Y122366D02*
Y105634D01*
X234661Y122366D02*
Y105634D01*
X222063Y122366D02*
X229937D01*
X222063Y105634D02*
X223638D01*
X228362D02*
X229937D01*
X262661D02*
Y122366D01*
X245339Y105634D02*
Y122366D01*
X257937Y105634D02*
X250063D01*
X257937Y122366D02*
X256362D01*
X251638D02*
X250063D01*
X206661Y105634D02*
Y122366D01*
X189339Y105634D02*
Y122366D01*
X201937Y105634D02*
X194063D01*
X201937Y122366D02*
X200362D01*
X195638D02*
X194063D01*
X189339Y166366D02*
Y149634D01*
X206661Y166366D02*
Y149634D01*
X194063Y166366D02*
X201937D01*
X194063Y149634D02*
X195638D01*
X200362D02*
X201937D01*
X245339Y166366D02*
Y149634D01*
X262661Y166366D02*
Y149634D01*
X250063Y166366D02*
X257937D01*
X250063Y149634D02*
X251638D01*
X256362D02*
X257937D01*
X146634Y148339D02*
X163366D01*
X146634Y165661D02*
X163366D01*
X146634Y153063D02*
Y160937D01*
X163366Y153063D02*
Y154638D01*
Y159362D02*
Y160937D01*
X221634Y127339D02*
X238366D01*
X221634Y144661D02*
X238366D01*
X221634Y132063D02*
Y139937D01*
X238366Y132063D02*
Y133638D01*
Y138362D02*
Y139937D01*
X166634Y127339D02*
X183366D01*
X166634Y144661D02*
X183366D01*
X166634Y132063D02*
Y139937D01*
X183366Y132063D02*
Y133638D01*
Y138362D02*
Y139937D01*
X318000Y172100D02*
Y175900D01*
X409055Y344094D02*
G03X409055I-11811J0D01*
G01X123622Y280118D02*
G03X123622I-11811J0D01*
G01X316535Y111811D02*
G03X316535I-11811J0D01*
G01X120023Y343757D02*
G03X120023I-7874J0D01*
G01X489764Y239764D02*
G03X489764I-7874J0D01*
G01X398888Y110468D02*
G03X398888I-7874J0D01*
G01X170866Y109843D02*
G03X170866I-7874J0D01*
G01X425922Y321512D02*
Y309512D01*
Y301512D02*
Y289512D01*
Y281512D02*
Y270000D01*
X416000*
Y271512*
Y279512D02*
Y291512D01*
Y299512D02*
Y311512D01*
Y319512D02*
Y331024D01*
X425922*
Y329512*
X323293Y112000D02*
X320500Y114793D01*
Y109207*
X323293Y112000*
X320500Y111906D02*
X323199D01*
X320500Y112806D02*
X322487D01*
X320500Y111006D02*
X322299D01*
X320500Y113706D02*
X321587D01*
X320500Y110106D02*
X321399D01*
X320500Y114606D02*
X320687D01*
G54D147*
X287488Y306945D02*
G03X287488I-787J0D01*
G74*
G01X0Y0D02*
M02*
