*
*
G04 PADS9.1 Build Number: 384028 generated Gerber (RS-274-X) file*
G04 PC Version=2.1*
*
%IN "PSDR.pcb"*%
*
%MOIN*%
*
%FSLAX35Y35*%
*
*
*
*
G04 PC Standard Apertures*
*
*
G04 Thermal Relief Aperture macro.*
%AMTER*
1,1,$1,0,0*
1,0,$1-$2,0,0*
21,0,$3,$4,0,0,45*
21,0,$3,$4,0,0,135*
%
*
*
G04 Annular Aperture macro.*
%AMANN*
1,1,$1,0,0*
1,0,$2,0,0*
%
*
*
G04 Odd Aperture macro.*
%AMODD*
1,1,$1,0,0*
1,0,$1-0.005,0,0*
%
*
*
G04 PC Custom Aperture Macros*
*
*
*
*
*
*
G04 PC Aperture Table*
*
%ADD010C,0.01*%
%ADD011C,0.008*%
%ADD036C,0.02*%
%ADD042C,0.001*%
%ADD149C,0.032*%
%ADD167C,0.058*%
*
*
*
*
G04 PC Circuitry*
G04 Layer Name PSDR.pcb - circuitry*
%LPD*%
*
*
G04 PC Custom Flashes*
G04 Layer Name PSDR.pcb - flashes*
%LPD*%
*
*
G04 PC Circuitry*
G04 Layer Name PSDR.pcb - circuitry*
%LPD*%
*
G54D10*
G01X464250Y176000D02*
G75*
G03X464250I-2250J0D01*
G01X477779Y190551D02*
G03X477779I-7700J0D01*
G01X456250Y170000D02*
G03X456250I-2250J0D01*
G01X458250Y184000D02*
G03X458250I-2250J0D01*
G01X446250Y156000D02*
G03X446250I-2250J0D01*
G01X444250Y170200D02*
G03X444250I-2250J0D01*
G01X434650Y157000D02*
G03X434650I-2250J0D01*
G01X406250Y124000D02*
G03X406250I-2250J0D01*
G01X409250Y149200D02*
G03X409250I-2250J0D01*
G01X399039Y111811D02*
G03X399039I-7700J0D01*
G01X389050Y140000D02*
G03X389050I-2250J0D01*
G01X378250Y116400D02*
G03X378250I-2250J0D01*
G01X372300Y112000D02*
G03X372300I-3300J0D01*
G01X372250Y136000D02*
G03X372250I-2250J0D01*
G01X362300Y112000D02*
G03X362300I-3300J0D01*
G01X364250Y124000D02*
G03X364250I-2250J0D01*
G01X357850Y122600D02*
G03X357850I-2250J0D01*
G01X352300Y112000D02*
G03X352300I-3300J0D01*
G01X336850Y178200D02*
G03X336850I-2250J0D01*
G01X330250Y182000D02*
G03X330250I-2250J0D01*
G01X322850Y187200D02*
G03X322850I-2250J0D01*
G01X312050D02*
G03X312050I-2250J0D01*
G01X306250Y182000D02*
G03X306250I-2250J0D01*
G01X293050Y129800D02*
G03X293050I-2250J0D01*
G01X258250Y106000D02*
G03X258250I-2250J0D01*
G01X261250Y114400D02*
G03X261250I-2250J0D01*
G01X261850Y141200D02*
G03X261850I-2250J0D01*
G01X251650Y119000D02*
G03X251650I-2250J0D01*
G01X252250Y133000D02*
G03X252250I-2250J0D01*
G01X251450Y141000D02*
G03X251450I-2250J0D01*
G01X228250Y106000D02*
G03X228250I-2250J0D01*
G01X220250Y110000D02*
G03X220250I-2250J0D01*
G01Y122000D02*
G03X220250I-2250J0D01*
G01Y128000D02*
G03X220250I-2250J0D01*
G01X220450Y140000D02*
G03X220450I-2250J0D01*
G01X209450Y111400D02*
G03X209450I-2250J0D01*
G01X203650Y126400D02*
G03X203650I-2250J0D01*
G01X205850Y130600D02*
G03X205850I-2250J0D01*
G01X183450Y113000D02*
G03X183450I-2250J0D01*
G01X223300Y230000D02*
G03X223300I-3300J0D01*
G01Y240000D02*
G03X223300I-3300J0D01*
G01X213850Y259000D02*
G03X213850I-2250J0D01*
G01X196650Y272400D02*
G03X196650I-2250J0D01*
G01X191650Y268200D02*
G03X191650I-2250J0D01*
G01X183050Y349800D02*
G03X183050I-2250J0D01*
G01X126250Y350000D02*
G03X126250I-2250J0D01*
G01X114250Y296000D02*
G03X114250I-2250J0D01*
G01X108250Y292000D02*
G03X108250I-2250J0D01*
G01X119511Y344094D02*
G03X119511I-7700J0D01*
G01X112250Y264000D02*
G03X112250I-2250J0D01*
G01X119511Y277165D02*
G03X119511I-7700J0D01*
G01X138261Y160827D02*
G03X138261I-7749J0D01*
G01X126250Y169600D02*
G03X126250I-2250J0D01*
G01X114250Y150000D02*
G03X114250I-2250J0D01*
G01X120293Y156493D02*
G03X120293I-3320J0D01*
G01X136050Y316600D02*
G03X136050I-2250J0D01*
G01X178250Y215600D02*
G03X178250I-2250J0D01*
G01X182650Y219200D02*
G03X182650I-2250J0D01*
G01X175050Y248000D02*
G03X175050I-2250J0D01*
G01X164850Y253600D02*
G03X164850I-2250J0D01*
G01X152050Y222000D02*
G03X152050I-2250J0D01*
G01X154050Y249000D02*
G03X154050I-2250J0D01*
G01X143450Y230600D02*
G03X143450I-2250J0D01*
G01X143650Y242400D02*
G03X143650I-2250J0D01*
G01X189250Y159000D02*
G03X189250I-2250J0D01*
G01X179850Y181800D02*
G03X179850I-2250J0D01*
G01X166250Y158800D02*
G03X166250I-2250J0D01*
G01X174250Y176000D02*
G03X174250I-2250J0D01*
G01X174450Y184800D02*
G03X174450I-2250J0D01*
G01X186850Y215800D02*
G03X186850I-2250J0D01*
G01X173650Y111200D02*
G03X173650I-2250J0D01*
G01X163050Y105800D02*
G03X163050I-2250J0D01*
G01X159850Y111200D02*
G03X159850I-2250J0D01*
G01X174629Y127559D02*
G03X174629I-7700J0D01*
G01X161250Y142200D02*
G03X161250I-2250J0D01*
G01X107850Y105400D02*
G03X107850I-2250J0D01*
G01X155450Y144000D02*
G03X155450I-2250J0D01*
G01X218250Y187600D02*
G03X218250I-2250J0D01*
G01X224250Y158000D02*
G03X224250I-2250J0D01*
G01X224450Y169200D02*
G03X224450I-2250J0D01*
G01X230250Y159000D02*
G03X230250I-2250J0D01*
G01X231650Y170800D02*
G03X231650I-2250J0D01*
G01X236250Y172000D02*
G03X236250I-2250J0D01*
G01X269250Y111000D02*
G03X269250I-2250J0D01*
G01X304050Y137800D02*
G03X304050I-2250J0D01*
G01X342300Y112000D02*
G03X342300I-3300J0D01*
G01X332300D02*
G03X332300I-3300J0D01*
G01X316250D02*
G03X316250I-2250J0D01*
G01X455300Y202000D02*
G03X455300I-3300J0D01*
G01X445450Y191400D02*
G03X445450I-2250J0D01*
G01X442250Y203800D02*
G03X442250I-2250J0D01*
G01X489850Y217200D02*
G03X489850I-2250J0D01*
G01X490250Y238000D02*
G03X490250I-2250J0D01*
G01X488250Y270000D02*
G03X488250I-2250J0D01*
G01Y282000D02*
G03X488250I-2250J0D01*
G01X486250Y296000D02*
G03X486250I-2250J0D01*
G01X476250Y270000D02*
G03X476250I-2250J0D01*
G01X464250Y268000D02*
G03X464250I-2250J0D01*
G01X445840Y243701D02*
G03X445840I-3320J0D01*
G01X484250Y320000D02*
G03X484250I-2250J0D01*
G01Y334000D02*
G03X484250I-2250J0D01*
G01Y346000D02*
G03X484250I-2250J0D01*
G01X474250Y288000D02*
G03X474250I-2250J0D01*
G01X473479Y320472D02*
G03X473479I-3400J0D01*
G01Y330315D02*
G03X473479I-3400J0D01*
G01Y340157D02*
G03X473479I-3400J0D01*
G01X464250Y286000D02*
G03X464250I-2250J0D01*
G01X466250Y296000D02*
G03X466250I-2250J0D01*
G01X464250Y313200D02*
G03X464250I-2250J0D01*
G01X468250Y348000D02*
G03X468250I-2250J0D01*
G01X452250Y278000D02*
G03X452250I-2250J0D01*
G01X446250Y268000D02*
G03X446250I-2250J0D01*
G01X439250Y259400D02*
G03X439250I-2250J0D01*
G01X434250Y278000D02*
G03X434250I-2250J0D01*
G01X426250Y262000D02*
G03X426250I-2250J0D01*
G01Y270000D02*
G03X426250I-2250J0D01*
G01X456250Y336000D02*
G03X456250I-2250J0D01*
G01Y348000D02*
G03X456250I-2250J0D01*
G01X448872Y320472D02*
G03X448872I-3400J0D01*
G01X442250Y332000D02*
G03X442250I-2250J0D01*
G01X448872Y340157D02*
G03X448872I-3400J0D01*
G01X444250Y348000D02*
G03X444250I-2250J0D01*
G01X434250Y320000D02*
G03X434250I-2250J0D01*
G01Y328000D02*
G03X434250I-2250J0D01*
G01X426650Y306600D02*
G03X426650I-2250J0D01*
G01X425765Y319000D02*
G03X425765I-2828J0D01*
G01X417891D02*
G03X417891I-2828J0D01*
G01X432503Y344094D02*
G03X432503I-7700J0D01*
G01X410250Y290000D02*
G03X410250I-2250J0D01*
G01Y298000D02*
G03X410250I-2250J0D01*
G01X414450Y333400D02*
G03X414450I-2250J0D01*
G01X404250Y286000D02*
G03X404250I-2250J0D01*
G01X378300Y350000D02*
G03X378300I-3300J0D01*
G01X370150Y340000D02*
G03X370150I-2250J0D01*
G01X368300Y350000D02*
G03X368300I-3300J0D01*
G01X357050Y335000D02*
G03X357050I-2250J0D01*
G01X358300Y350000D02*
G03X358300I-3300J0D01*
G01X348850Y337200D02*
G03X348850I-2250J0D01*
G01X348300Y350000D02*
G03X348300I-3300J0D01*
G01X301050Y334000D02*
G03X301050I-2250J0D01*
G01X324050Y217000D02*
G03X324050I-2250J0D01*
G01X326850Y220600D02*
G03X326850I-2250J0D01*
G01X317650Y202400D02*
G03X317650I-2250J0D01*
G01X299850Y240400D02*
G03X299850I-2250J0D01*
G01X291250Y214200D02*
G03X291250I-2250J0D01*
G01X291050Y218800D02*
G03X291050I-2250J0D01*
G01X274250Y173000D02*
G03X274250I-2250J0D01*
G01X267850Y180800D02*
G03X267850I-2250J0D01*
G01X262850Y176800D02*
G03X262850I-2250J0D01*
G01X259250Y185600D02*
G03X259250I-2250J0D01*
G01X281850Y223000D02*
G03X281850I-2250J0D01*
G01X286250Y228000D02*
G03X286250I-2250J0D01*
G01X266250Y234000D02*
G03X266250I-2250J0D01*
G01X258250D02*
G03X258250I-2250J0D01*
G01X224050Y290000D02*
G03X224050I-2250J0D01*
G01X220250Y294000D02*
G03X220250I-2250J0D01*
G01X231050Y310400D02*
G03X231050I-2250J0D01*
G01X224250Y308000D02*
G03X224250I-2250J0D01*
G01X220250Y312000D02*
G03X220250I-2250J0D01*
G01X212250Y297000D02*
G03X212250I-2250J0D01*
G01X211850Y318000D02*
G03X211850I-2250J0D01*
G01X491801Y201687D02*
Y348031D01*
G03X485827Y354005I-5974J0*
G01X335013*
X335568Y353451*
X331749Y349632D02*
G03X335568Y353451I3251J568D01*
G01X331749Y349632D02*
X331282Y350100D01*
X307718*
X310509Y347309*
X311300Y345400D02*
G03X310509Y347309I-2700J0D01*
G01X311300Y345400D02*
Y340100D01*
X312938*
X317062D02*
G03X312938I-2062J900D01*
G01X317062D02*
X317082D01*
X318291Y341309*
X320200Y342100D02*
G03X318291Y341309I0J-2700D01*
G01X320200Y342100D02*
X333400D01*
X333612Y342092D02*
G03X333400Y342100I-212J-2692D01*
G01X333612Y342092D02*
X335000D01*
X336909Y341301D02*
G03X335000Y342092I-1909J-1909D01*
G01X336909Y341301D02*
X344509Y333701D01*
X344900Y333206D02*
G03X344509Y333701I-2300J-1414D01*
G01X346439Y329779D02*
G03X344900Y333206I361J2221D01*
G01X346439Y329779D02*
X348409Y327809D01*
X352918Y323300*
X374200*
X379862*
X382970Y326030D02*
G03X379862Y323300I-970J-2030D01*
G01X382970Y327970D02*
G03Y326030I2030J-970D01*
G01X384030Y329030D02*
G03X382970Y327970I-2030J970D01*
G01X385970Y329030D02*
G03X384030I-970J-2030D01*
G01X389300Y331836D02*
G03X385970Y329030I-1300J-1836D01*
G01X389300Y331836D02*
Y335882D01*
X388232Y336949*
X392051Y340768D02*
G03X388232Y336949I-3251J-568D01*
G01X392051Y340768D02*
X392191Y340627D01*
X394526Y337954D02*
G03X392191Y340627I-126J2246D01*
G01X394700Y337000D02*
G03X394526Y337954I-2700J0D01*
G01X394700Y337000D02*
Y321800D01*
X394482Y320737D02*
G03X394700Y321800I-2482J1063D01*
G01X394482Y320737D02*
X398709Y316509D01*
X399500Y314600D02*
G03X398709Y316509I-2700J0D01*
G01X399500Y314600D02*
Y296477D01*
Y293123D02*
G03Y296477I1500J1677D01*
G01Y293123D02*
Y275400D01*
Y272800*
X398709Y270891D02*
G03X399500Y272800I-1909J1909D01*
G01X398709Y270891D02*
X392409Y264591D01*
X388053Y260235*
X389431Y259601D02*
G03X388053Y260235I-2031J-2601D01*
G01X389431Y259601D02*
X407614Y277783D01*
X410217Y280386D02*
G03X407614Y277783I-2217J-386D01*
G01X410217Y280386D02*
X418515Y288685D01*
X424992Y288162D02*
G03X418515Y288685I-3192J838D01*
G01X424992Y288162D02*
X426900Y290070D01*
Y290600*
Y291054*
X431100D02*
G03X426900I-2100J2546D01*
G01X431100D02*
Y290600D01*
Y289200*
X430485Y287715D02*
G03X431100Y289200I-1485J1485D01*
G01X430485Y287715D02*
X427285Y284515D01*
X426949Y282719D02*
G03X427285Y284515I-2949J1481D01*
G01X426949Y282719D02*
X440915Y296685D01*
X442400Y297300D02*
G03X440915Y296685I0J-2100D01*
G01X442400Y297300D02*
X450454D01*
Y293100D02*
G03Y297300I2546J2100D01*
G01Y293100D02*
X443270D01*
X403085Y252915*
X401600Y252300D02*
G03X403085Y252915I0J2100D01*
G01X401600Y252300D02*
X394146D01*
X388348Y253839D02*
G03X394146Y252300I3252J561D01*
G01X385300Y254454D02*
G03X388348Y253839I2100J2546D01*
G01X385300Y254454D02*
Y244318D01*
X390118Y239500*
X393054*
X395915Y244885D02*
G03X393054Y239500I-315J-3285D01*
G01X395915Y244885D02*
X404715Y253685D01*
X406200Y254300D02*
G03X404715Y253685I0J-2100D01*
G01X406200Y254300D02*
X423454D01*
X428791Y253961D02*
G03X423454Y254300I-2791J-1761D01*
G01X428791Y253961D02*
X429300Y254470D01*
Y268400*
X429915Y269885D02*
G03X429300Y268400I1485J-1485D01*
G01X429915Y269885D02*
X446115Y286085D01*
X449085Y283115D02*
G03X446115Y286085I315J3285D01*
G01X449085Y283115D02*
X433500Y267530D01*
Y253600*
X432885Y252115D02*
G03X433500Y253600I-1485J1485D01*
G01X432885Y252115D02*
X419870Y239100D01*
X419930*
X460315Y279485*
X461800Y280100D02*
G03X460315Y279485I0J-2100D01*
G01X461800Y280100D02*
X474454D01*
Y275900D02*
G03Y280100I2546J2100D01*
G01Y275900D02*
X462670D01*
X447990Y261220*
X444980Y258210D02*
G03X447990Y261220I2020J990D01*
G01X444980Y258210D02*
X422285Y235515D01*
X420800Y234900D02*
G03X422285Y235515I0J2100D01*
G01X420800Y234900D02*
X407146D01*
X401300Y237025D02*
G03X407146Y234900I3300J-25D01*
G01X399626Y236992D02*
G03X401300Y237025I774J3208D01*
G01X399626Y236992D02*
X404318Y232300D01*
X424992*
X426608D02*
G03X424992I-808J2100D01*
G01X426608D02*
X430089D01*
X432267Y236565D02*
G03X430089Y232300I933J-3165D01*
G01X435147Y236064D02*
G03X432267Y236565I-1147J1936D01*
G01X435746Y235500D02*
G03X435147Y236064I-2546J-2100D01*
G01X435746Y235500D02*
X440330D01*
X465315Y260485*
X466800Y261100D02*
G03X465315Y260485I0J-2100D01*
G01X466800Y261100D02*
X470454D01*
Y256900D02*
G03Y261100I2546J2100D01*
G01Y256900D02*
X467670D01*
X443070Y232300*
X449282*
X450749Y233768*
X453432Y236451D02*
G03X450749Y233768I568J-3251D01*
G01X453432Y236451D02*
X454935Y237953D01*
X456047Y239065D02*
G03X454935Y237953I-2047J935D01*
G01X456047Y239065D02*
X461746Y244764D01*
X464246Y247136D02*
G03X461746Y244764I-2246J-136D01*
G01X465500Y247498D02*
G03X464246Y247136I100J-2698D01*
G01X469297Y247500D02*
G03X465500Y247498I-1897J-2700D01*
G01X469297Y247500D02*
X473400D01*
X475309Y246709D02*
G03X473400Y247500I-1909J-1909D01*
G01X475309Y246709D02*
X485568Y236451D01*
X481749Y232632D02*
G03X485568Y236451I3251J568D01*
G01X481749Y232632D02*
X472282Y242100D01*
X469297*
X466305Y241687D02*
G03X469297Y242100I1095J3113D01*
G01X466305Y241687D02*
X457251Y232632D01*
X454568Y229949D02*
G03X457251Y232632I-568J3251D01*
G01X454568Y229949D02*
X452309Y227691D01*
X450400Y226900D02*
G03X452309Y227691I0J2700D01*
G01X450400Y226900D02*
X424474D01*
X423808Y223100D02*
G03X424474Y226900I-808J2100D01*
G01X423808Y223100D02*
X425654D01*
X430898Y219100D02*
G03X425654Y223100I-2698J1900D01*
G01X430898Y219100D02*
X437330D01*
X441915Y223685*
X443400Y224300D02*
G03X441915Y223685I0J-2100D01*
G01X443400Y224300D02*
X457054D01*
X459588Y225500D02*
G03X457054Y224300I12J-3300D01*
G01X459915Y232085D02*
G03X459588Y225500I-315J-3285D01*
G01X459915Y232085D02*
X464115Y236285D01*
X467085Y233315D02*
G03X464115Y236285I315J3285D01*
G01X467085Y233315D02*
X462885Y229115D01*
X459612Y225500D02*
G03X462885Y229115I-12J3300D01*
G01X459831Y218908D02*
G03X459612Y225500I-231J3292D01*
G01X457376Y219762D02*
G03X459831Y218908I624J-2162D01*
G01X457054Y220100D02*
G03X457376Y219762I2546J2100D01*
G01X457054Y220100D02*
X444270D01*
X441670Y217500*
X444254*
X450009Y214632D02*
G03X444254Y217500I-3209J768D01*
G01X454546Y209900D02*
G03X450009Y214632I-2546J2100D01*
G01X454546Y209900D02*
X469730D01*
X474315Y214485*
X480890Y214537D02*
G03X474315Y214485I-3290J263D01*
G01X479710Y212263D02*
G03X480890Y214537I3290J-263D01*
G01X477285Y211515D02*
G03X479710Y212263I315J3285D01*
G01X477285Y211515D02*
X472085Y206315D01*
X470600Y205700D02*
G03X472085Y206315I0J2100D01*
G01X470600Y205700D02*
X445000D01*
X443515Y206315D02*
G03X445000Y205700I1485J1485D01*
G01X443515Y206315D02*
X438130Y211700D01*
X408670*
X405667Y208697*
X407697Y208100D02*
G03X405667Y208697I-1897J-2700D01*
G01X407697Y208100D02*
X423800D01*
X425709Y207309D02*
G03X423800Y208100I-1909J-1909D01*
G01X425709Y207309D02*
X434509Y198509D01*
X435300Y196600D02*
G03X434509Y198509I-2700J0D01*
G01X435300Y196600D02*
Y180800D01*
X434509Y178891D02*
G03X435300Y180800I-1909J1909D01*
G01X434509Y178891D02*
X433118Y177500D01*
X438130*
X460420Y199789*
X462211Y201580D02*
G03X460420Y199789I-2211J420D01*
G01X462211Y201580D02*
X464115Y203485D01*
X465600Y204100D02*
G03X464115Y203485I0J-2100D01*
G01X465600Y204100D02*
X474795D01*
X477205D02*
G03X474795I-1205J1900D01*
G01X477205D02*
X478907D01*
Y199900D02*
G03Y204100I4093J2100D01*
G01Y199900D02*
X466470D01*
X440485Y173915*
X439000Y173300D02*
G03X440485Y173915I0J2100D01*
G01X439000Y173300D02*
X402670D01*
X384975Y155605*
X385600Y155700D02*
G03X384975Y155605I-0J-2100D01*
G01X385600Y155700D02*
X391175D01*
X396946Y158500D02*
G03X391175Y155700I-2546J-2100D01*
G01X396946Y158500D02*
X398130D01*
X407010Y167380*
X410248Y169300D02*
G03X407010Y167380I-2248J100D01*
G01X410248Y169300D02*
X418454D01*
X421700Y163975D02*
G03X418454Y169300I-700J3225D01*
G01X422061Y161897D02*
G03X421700Y163975I-3261J503D01*
G01X419654Y156500D02*
G03X422061Y161897I2546J2100D01*
G01X419654Y156500D02*
X417208D01*
X415592D02*
G03X417208I808J-2100D01*
G01X415592D02*
X406870D01*
X400685Y150315*
X399200Y149700D02*
G03X400685Y150315I0J2100D01*
G01X399200Y149700D02*
X389470D01*
X384285Y144515*
X378354Y142228D02*
G03X384285Y144515I2646J1972D01*
G01X371957Y142587D02*
G03X378354Y142228I3243J613D01*
G01X371957Y142587D02*
X359485Y130115D01*
X358000Y129500D02*
G03X359485Y130115I0J2100D01*
G01X358000Y129500D02*
X349208D01*
X347592D02*
G03X349208I808J-2100D01*
G01X347592D02*
X308575D01*
X308965Y135051D02*
G03X308575Y129500I-1965J-2651D01*
G01X314354Y136900D02*
G03X308965Y135051I-2154J-2500D01*
G01X314354Y136900D02*
X357930D01*
X358330Y137300*
X329400*
X327915Y137915D02*
G03X329400Y137300I1485J1485D01*
G01X327915Y137915D02*
X316315Y149515D01*
X315700Y151000D02*
G03X316315Y149515I2100J0D01*
G01X315700Y151000D02*
Y155854D01*
X320928Y157347D02*
G03X315700Y155854I-3128J1053D01*
G01X323806Y154758D02*
G03X320928Y157347I-2206J442D01*
G01X325390Y155640D02*
G03X323806Y154758I210J-2240D01*
G01X325390Y155640D02*
X313730Y167300D01*
X313000*
X311515Y167915D02*
G03X313000Y167300I1485J1485D01*
G01X311515Y167915D02*
X306515Y172915D01*
X306163Y173382D02*
G03X306515Y172915I1837J1018D01*
G01X305900Y175205D02*
G03X306163Y173382I-1900J-1205D01*
G01X305900Y175205D02*
Y176400D01*
Y177600*
X306515Y179085D02*
G03X305900Y177600I1485J-1485D01*
G01X306515Y179085D02*
X309115Y181685D01*
X310600Y182300D02*
G03X309115Y181685I0J-2100D01*
G01X310600Y182300D02*
X313600D01*
X315085Y181685D02*
G03X313600Y182300I-1485J-1485D01*
G01X315085Y181685D02*
X315285Y181485D01*
X318899Y178273D02*
G03X315285Y181485I-3299J-73D01*
G01X318382Y176424D02*
G03X318899Y178273I2218J376D01*
G01X317719Y175670D02*
G03X318382Y176424I-2119J2530D01*
G01X318285Y173485D02*
G03X317719Y175670I-3285J315D01*
G01X318285Y173485D02*
X333070Y158700D01*
X334262*
X338640Y159192D02*
G03X334262Y158700I-2240J208D01*
G01X339832Y159651D02*
G03X338640Y159192I568J-3251D01*
G01X339832Y159651D02*
X346100Y165918D01*
Y166637*
Y170563D02*
G03Y166637I-1100J-1963D01*
G01Y170563D02*
Y173482D01*
X336171Y183410*
X333410Y186171D02*
G03X336171Y183410I590J-2171D01*
G01X333410Y186171D02*
X328882Y190700D01*
X317697*
X312549Y192832D02*
G03X317697Y190700I3251J568D01*
G01X312549Y192832D02*
X310482Y194900D01*
X293318*
X293286Y194868*
X290332Y191914D02*
G03X293286Y194868I2068J886D01*
G01X290332Y191914D02*
X288500Y190082D01*
Y178938*
X289720Y178989D02*
G03X288500Y178938I-520J-2189D01*
G01X292588Y183900D02*
G03X289720Y178989I12J-3300D01*
G01X295885Y186885D02*
G03X292588Y183900I-3285J315D01*
G01X295885Y186885D02*
X300285Y182485D01*
X300900Y181000D02*
G03X300285Y182485I-2100J0D01*
G01X300900Y181000D02*
Y170200D01*
X300285Y168715D02*
G03X300900Y170200I-1485J1485D01*
G01X300285Y168715D02*
X293712Y162142D01*
X292258Y160688D02*
G03X293712Y162142I2142J-688D01*
G01X292258Y160688D02*
X290412Y158842D01*
X288358Y156788D02*
G03X290412Y158842I2242J-188D01*
G01X288358Y156788D02*
X267617Y136047D01*
X263100Y136346D02*
G03X267617Y136047I2100J-2546D01*
G01X263100Y136346D02*
Y136600D01*
X263715Y138085D02*
G03X263100Y136600I1485J-1485D01*
G01X263715Y138085D02*
X296700Y171070D01*
Y171538*
X294694Y171641D02*
G03X296700Y171538I1106J1959D01*
G01X294085Y170315D02*
G03X294694Y171641I-1485J1485D01*
G01X294085Y170315D02*
X273285Y149515D01*
X271800Y148900D02*
G03X273285Y149515I0J2100D01*
G01X271800Y148900D02*
X203670D01*
X187285Y132515*
X181908Y134752D02*
G03X187285Y132515I2092J-2552D01*
G01X183661Y135483D02*
G03X181908Y134752I-1661J1517D01*
G01X184315Y135485D02*
G03X183661Y135483I-315J-3285D01*
G01X184315Y135485D02*
X199330Y150500D01*
X141600*
X140115Y151115D02*
G03X141600Y150500I1485J1485D01*
G01X143086Y154700D02*
G03X140115Y151115I-3286J-300D01*
G01X143086Y154700D02*
X240246D01*
X242715Y160485D02*
G03X240246Y154700I-315J-3285D01*
G01X242715Y160485D02*
X244000Y161770D01*
Y162928*
Y163872D02*
G03Y162928I-2200J-472D01*
G01Y163872D02*
Y179430D01*
X233297Y190133*
X231575Y187100D02*
G03X233297Y190133I-1575J2900D01*
G01X231575Y187100D02*
X231800D01*
X233285Y186485D02*
G03X231800Y187100I-1485J-1485D01*
G01X233285Y186485D02*
X237885Y181885D01*
X234915Y178915D02*
G03X237885Y181885I3285J-315D01*
G01X234915Y178915D02*
X233248Y180582D01*
X228599Y182988D02*
G03X233248Y180582I1401J-2988D01*
G01X227715Y183515D02*
G03X228599Y182988I1485J1485D01*
G01X227715Y183515D02*
X224315Y186915D01*
X223700Y188400D02*
G03X224315Y186915I2100J0D01*
G01X223700Y188400D02*
Y192730D01*
X199617Y216814*
X197014Y219417D02*
G03X199617Y216814I386J-2217D01*
G01X197014Y219417D02*
X189020Y227410D01*
X186010Y230420D02*
G03X189020Y227410I990J-2020D01*
G01X186010Y230420D02*
X185130Y231300D01*
X179538*
X176122Y228748D02*
G03X179538Y231300I1278J1852D01*
G01X175278Y229852D02*
G03X176122Y228748I-1278J-1852D01*
G01X175262Y231300D02*
G03X175278Y229852I2138J-700D01*
G01X175262Y231300D02*
X170339D01*
X166437Y229644D02*
G03X170339Y231300I963J3156D01*
G01X162406Y228042D02*
G03X166437Y229644I1794J1358D01*
G01X161994Y228958D02*
G03X162406Y228042I-1794J-1358D01*
G01X164308Y231647D02*
G03X161994Y228958I-108J-2247D01*
G01X169297Y235500D02*
G03X164308Y231647I-1897J-2700D01*
G01X169297Y235500D02*
X186000D01*
X187485Y234885D02*
G03X186000Y235500I-1485J-1485D01*
G01X187485Y234885D02*
X198300Y224070D01*
Y235330*
X193620Y240010*
X192725Y239051D02*
G03X193620Y240010I-1125J1949D01*
G01X190675Y238949D02*
G03X192725Y239051I1125J-1949D01*
G01X189938Y242516D02*
G03X190675Y238949I1662J-1516D01*
G01X188715Y243115D02*
G03X189938Y242516I1485J1485D01*
G01X188715Y243115D02*
X160530Y271300D01*
X149000*
X147515Y271915D02*
G03X149000Y271300I1485J1485D01*
G01X147515Y271915D02*
X143915Y275515D01*
X144182Y282048D02*
G03X143915Y275515I-582J-3248D01*
G01X144182Y282048D02*
X141915Y284315D01*
X141300Y285800D02*
G03X141915Y284315I2100J0D01*
G01X141300Y285800D02*
Y288654D01*
X145500D02*
G03X141300I-2100J2546D01*
G01X145500D02*
Y286670D01*
X152780Y279390*
X156938Y277700D02*
G03X152780Y279390I-2138J700D01*
G01X156938Y277700D02*
X161600D01*
X163085Y277085D02*
G03X161600Y277700I-1485J-1485D01*
G01X163085Y277085D02*
X191558Y248612D01*
X193490Y251540D02*
G03X191558Y248612I210J-2240D01*
G01X193490Y251540D02*
X167220Y277810D01*
X164210Y280820D02*
G03X167220Y277810I990J-2020D01*
G01X164210Y280820D02*
X160798Y284233D01*
X161620Y289006D02*
G03X160798Y284233I-2620J-2006D01*
G01X162485Y288485D02*
G03X161620Y289006I-1485J-1485D01*
G01X162485Y288485D02*
X169918Y281052D01*
X172852Y278118D02*
G03X169918Y281052I-852J2082D01*
G01X172852Y278118D02*
X191160Y259810D01*
X193610Y257360D02*
G03X191160Y259810I-210J2240D01*
G01X193610Y257360D02*
X213685Y237285D01*
X214300Y235800D02*
G03X213685Y237285I-2100J0D01*
G01X214300Y235800D02*
Y225346D01*
X213961Y220009D02*
G03X214300Y225346I-1761J2791D01*
G01X213961Y220009D02*
X214070Y219900D01*
X223800*
X225285Y219285D02*
G03X223800Y219900I-1485J-1485D01*
G01X225285Y219285D02*
X248593Y195977D01*
X249700Y197746D02*
G03X248593Y195977I2100J-2546D01*
G01X249700Y197746D02*
Y198730D01*
X226915Y221515*
X226300Y223000D02*
G03X226915Y221515I2100J0D01*
G01X226300Y223000D02*
Y247530D01*
X223248Y250582*
X220582Y253248D02*
G03X223248Y250582I-582J-3248D01*
G01X220582Y253248D02*
X193420Y280410D01*
X189437Y282500D02*
G03X193420Y280410I1963J-1100D01*
G01X189437Y282500D02*
X169800D01*
X168315Y283115D02*
G03X169800Y282500I1485J1485D01*
G01X168315Y283115D02*
X156840Y294590D01*
X154390Y297040D02*
G03X156840Y294590I210J-2240D01*
G01X154390Y297040D02*
X143730Y307700D01*
X141746*
Y311900D02*
G03Y307700I-2546J-2100D01*
G01Y311900D02*
X144600D01*
X146085Y311285D02*
G03X144600Y311900I-1485J-1485D01*
G01X146085Y311285D02*
X152819Y304551D01*
X156965Y305096D02*
G03X152819Y304551I-1965J-1096D01*
G01X161723Y306615D02*
G03X156965Y305096I-1723J-2815D01*
G01X162634Y309300D02*
G03X161723Y306615I2366J-2300D01*
G01X162634Y309300D02*
X158000D01*
X156515Y309915D02*
G03X158000Y309300I1485J1485D01*
G01X156515Y309915D02*
X150715Y315715D01*
X150100Y317200D02*
G03X150715Y315715I2100J0D01*
G01X150100Y317200D02*
Y337000D01*
X150715Y338485D02*
G03X150100Y337000I1485J-1485D01*
G01X150715Y338485D02*
X151915Y339685D01*
X152089Y341100D02*
G03X151915Y339685I3111J-1100D01*
G01X152089Y341100D02*
X135518D01*
X128286Y333868*
X125332Y330914D02*
G03X128286Y333868I2068J886D01*
G01X125332Y330914D02*
X124963Y330544D01*
Y300488*
X135546Y289188D02*
G03X124963Y300488I-5034J5891D01*
G01X136667Y282711D02*
G03X135546Y289188I-267J3289D01*
G01X132858Y281888D02*
G03X136667Y282711I2142J-688D01*
G01X132858Y281888D02*
X131800Y280830D01*
Y267818*
X134491Y270509*
X136400Y271300D02*
G03X134491Y270509I0J-2700D01*
G01X136400Y271300D02*
X137703D01*
Y265900D02*
G03Y271300I1897J2700D01*
G01Y265900D02*
X137518D01*
X131486Y259868*
X129900Y255662D02*
G03X131486Y259868I700J2138D01*
G01X129900Y255662D02*
Y250918D01*
X131182Y249637*
X132509Y248909D02*
G03X131182Y249637I-1909J-1909D01*
G01X132509Y248909D02*
X136309Y245109D01*
X137100Y243200D02*
G03X136309Y245109I-2700J0D01*
G01X137100Y243200D02*
Y229538D01*
X137182Y225237D02*
G03X137100Y229538I618J2163D01*
G01X137182Y225237D02*
X145718Y216700D01*
X148103*
X150267Y210711D02*
G03X148103Y216700I-267J3289D01*
G01X147792Y211300D02*
G03X150267Y210711I808J-2100D01*
G01X147792Y211300D02*
X144600D01*
X143432Y211566D02*
G03X144600Y211300I1168J2434D01*
G01X142390Y208580D02*
G03X143432Y211566I-990J2020D01*
G01X142390Y208580D02*
X148685Y202285D01*
X149300Y200800D02*
G03X148685Y202285I-2100J0D01*
G01X149300Y200800D02*
Y185138D01*
X151206Y184899D02*
G03X149300Y185138I-1206J-1899D01*
G01X152194Y183501D02*
G03X151206Y184899I1206J1899D01*
G01X149300Y180862D02*
G03X152194Y183501I700J2138D01*
G01X149300Y180862D02*
Y160746D01*
X145100D02*
G03X149300I2100J-2546D01*
G01X145100D02*
Y179775D01*
X143613Y179795D02*
G03X145100Y179775I787J3205D01*
G01X143613Y179795D02*
X142509Y178691D01*
X140600Y177900D02*
G03X142509Y178691I0J2700D01*
G01X140600Y177900D02*
X136600D01*
X134691Y178691D02*
G03X136600Y177900I1909J1909D01*
G01X134691Y178691D02*
X120293Y193088D01*
X117422Y196397D02*
G03X120293Y193088I-449J-3290D01*
G01X117300Y197200D02*
G03X117422Y196397I2700J0D01*
G01X117300Y197200D02*
Y227600D01*
Y261323*
Y264677D02*
G03Y261323I-1500J-1677D01*
G01Y264677D02*
Y268600D01*
X118091Y270509D02*
G03X117300Y268600I1909J-1909D01*
G01X118091Y270509D02*
X121100Y273518D01*
Y277165*
Y282082*
X120353Y282828*
X119563Y284737D02*
G03X120353Y282828I2700J0D01*
G01X119563Y284737D02*
Y295079D01*
Y299201*
Y301999D02*
G03Y299201I-1763J-1399D01*
G01Y301999D02*
Y331663D01*
X120353Y333572D02*
G03X119563Y331663I1910J-1909D01*
G01X120353Y333572D02*
X132491Y345709D01*
X132517Y345735D02*
G03X132491Y345709I1883J-1935D01*
G01X135154Y346500D02*
G03X132517Y345735I-2154J2500D01*
G01X135154Y346500D02*
X140846D01*
X145154D02*
G03X140846I-2154J2500D01*
G01X145154D02*
X150846D01*
X155154D02*
G03X150846I-2154J2500D01*
G01X155154D02*
X160846D01*
X165154D02*
G03X160846I-2154J2500D01*
G01X165154D02*
X170846D01*
X175154D02*
G03X170846I-2154J2500D01*
G01X175154D02*
X184482D01*
X191987Y354005*
X187020*
X184980D02*
G03X187020I1020J-2005D01*
G01X184980D02*
X107874D01*
G03X101900Y348031I0J-5974*
G01Y339316*
G03X103746Y337288I2037J-0*
G01X109774Y330253D02*
G03X103746Y337288I-6652J400D01*
G01X109774Y330253D02*
Y302756D01*
X103937Y296919D02*
G03X109774Y302756I0J5837D01*
G01X103937Y296919D02*
G03X101900Y294882I0J-2037D01*
G01Y266481*
G03X103746Y264453I2037J0*
G01X109774Y257419D02*
G03X103746Y264453I-6652J399D01*
G01X109774Y257419D02*
Y229921D01*
X103937Y224084D02*
G03X109774Y229921I0J5837D01*
G01X103937Y224084D02*
G03X101900Y222047I0J-2037D01*
G01Y196388*
X103200*
X105100Y194497D02*
G03X103200Y196388I-1900J-9D01*
G01X110574Y190876D02*
G03X105100Y194497I-2459J2231D01*
G01X110574Y190876D02*
X112598D01*
X114498Y188976D02*
G03X112598Y190876I-1900J0D01*
G01X114498Y188976D02*
Y179528D01*
X112598Y177628D02*
G03X114498Y179528I0J1900D01*
G01X112598Y177628D02*
X105100D01*
Y171979*
X112598*
X114498Y170079D02*
G03X112598Y171979I-1900J-0D01*
G01X114498Y170079D02*
Y160630D01*
X112598Y158730D02*
G03X114498Y160630I0J1900D01*
G01X112598Y158730D02*
X110568D01*
X105100Y155103D02*
G03X110568Y158730I3015J1390D01*
G01X103200Y153218D02*
G03X105100Y155103I0J1900D01*
G01X103200Y153218D02*
X101900D01*
Y146808*
Y145192D02*
G03Y146808I2100J808D01*
G01Y145192D02*
Y142126D01*
G03X101969Y142058I69J-0*
G01X101969D02*
X127510Y142097D01*
X136292Y142057D02*
G03X127510Y142097I-4392J-257D01*
G01X136292Y142058D02*
X148350D01*
X152692Y138366D02*
G03X148350Y142057I-4064J-380D01*
G01X152700Y138189D02*
G03X152692Y138366I-1900J-0D01*
G01X152700Y138189D02*
Y116929D01*
X152692Y116752D02*
G03X152700Y116929I-1892J177D01*
G01X148350Y113061D02*
G03X152692Y116752I278J4072D01*
G01X148350Y113061D02*
X136290D01*
X127510D02*
G03X136290I4390J300D01*
G01X127510D02*
X101969D01*
G03X101900Y112992I0J-69*
G01Y107874*
G03X107874Y101900I5974J0*
G01X239192*
X240808D02*
G03X239192I-808J2100D01*
G01X240808D02*
X271192D01*
X272808D02*
G03X271192I-808J2100D01*
G01X272808D02*
X287192D01*
X288808D02*
G03X287192I-808J2100D01*
G01X288808D02*
X305192D01*
X306808D02*
G03X305192I-808J2100D01*
G01X306808D02*
X323192D01*
X324808D02*
G03X323192I-808J2100D01*
G01X324808D02*
X343192D01*
X344808D02*
G03X343192I-808J2100D01*
G01X344808D02*
X361192D01*
X362808D02*
G03X361192I-808J2100D01*
G01X362808D02*
X392014D01*
G03X396238Y103650I0J5974*
G01X430369Y137780*
X432220Y139631D02*
G03X430369Y137780I-2220J369D01*
G01X432220Y139631D02*
X490051Y197462D01*
G03X491801Y201687I-4224J4225*
G01X284792Y326823D02*
G03X284500Y326375I2608J-2023D01*
G01X284792Y326823D02*
X284500Y326530D01*
Y326375*
X190470Y289900D02*
X191130D01*
X186515Y294515*
X185900Y296000D02*
G03X186515Y294515I2100J-0D01*
G01X185900Y296000D02*
Y296530D01*
X178515Y303915*
X177900Y305400D02*
G03X178515Y303915I2100J0D01*
G01X177900Y305400D02*
Y305425D01*
X175440Y303729D02*
G03X177900Y305425I-440J3271D01*
G01X175440Y303729D02*
X176670Y302500D01*
X177800*
X179285Y301885D02*
G03X177800Y302500I-1485J-1485D01*
G01X179285Y301885D02*
X182885Y298285D01*
X183499Y296871D02*
G03X182885Y298285I-2099J-71D01*
G01X183499Y296871D02*
X190470Y289900D01*
X226800Y207500D02*
X231130D01*
X222930Y215700*
X213200*
X213117Y215702D02*
G03X213200Y215700I83J2098D01*
G01X213117Y215702D02*
X220932Y207886D01*
X225250Y207011D02*
G03X220932Y207886I-2250J-11D01*
G01X226800Y207500D02*
G03X225250Y207011I0J-2700D01*
G01X292949Y183882D02*
G03X292612Y183900I-349J-3282D01*
G01X292949Y183882D02*
X292915Y183915D01*
X292612Y183900D02*
G03X292915Y183915I-12J3300D01*
G01X297149Y259682D02*
G03X296485Y259685I-349J-3282D01*
G01X297149Y259682D02*
X296915Y259915D01*
X296300Y261400D02*
G03X296915Y259915I2100J0D01*
G01X296300Y261400D02*
Y294062D01*
Y298338D02*
G03Y294062I-700J-2138D01*
G01Y298338D02*
Y303930D01*
X293220Y307010*
X290210Y310020D02*
G03X293220Y307010I990J-2020D01*
G01X290210Y310020D02*
X284130Y316100D01*
X284000*
X282900Y316411D02*
G03X284000Y316100I1100J1789D01*
G01X282900Y316411D02*
Y315338D01*
Y311062D02*
G03Y315338I700J2138D01*
G01Y311062D02*
Y273270D01*
X287989Y268180*
X289780Y266389D02*
G03X287989Y268180I420J2211D01*
G01X289780Y266389D02*
X296485Y259685D01*
X335500Y320738D02*
Y330730D01*
X335315Y330915*
X332846Y336700D02*
G03X335315Y330915I2154J-2500D01*
G01X332846Y336700D02*
X329474D01*
X328979Y332974D02*
G03X329474Y336700I-979J2026D01*
G01X327421Y332826D02*
G03X328979Y332974I979J-2026D01*
G01X326526Y336700D02*
G03X327421Y332826I1474J-1700D01*
G01X326526Y336700D02*
X325738D01*
X321462D02*
G03X325738I2138J-700D01*
G01X321462D02*
X321318D01*
X320109Y335491*
X318200Y334700D02*
G03X320109Y335491I0J2700D01*
G01X318200Y334700D02*
X310845D01*
X310509Y334291D02*
G03X310845Y334700I-1909J1909D01*
G01X310509Y334291D02*
X301851Y325632D01*
X298032Y329451D02*
G03X301851Y325632I568J-3251D01*
G01X298032Y329451D02*
X305900Y337318D01*
Y337400*
Y344282*
X304703Y345478*
X301285Y343315D02*
G03X304703Y345478I315J3285D01*
G01X301285Y343315D02*
X291012Y333042D01*
X288958Y330988D02*
G03X291012Y333042I2242J-188D01*
G01X288958Y330988D02*
X285377Y327408D01*
X290100Y322903D02*
G03X285377Y327408I-2700J1897D01*
G01X290100Y322903D02*
Y320870D01*
X292534Y318436*
X297946Y318900D02*
G03X292534Y318436I-2546J-2100D01*
G01X297946Y318900D02*
X299200D01*
X300685Y318285D02*
G03X299200Y318900I-1485J-1485D01*
G01X300685Y318285D02*
X321500Y297470D01*
Y315200*
X322115Y316685D02*
G03X321500Y315200I1485J-1485D01*
G01X322115Y316685D02*
X323187Y317757D01*
X324115Y324285D02*
G03X323187Y317757I-315J-3285D01*
G01X324115Y324285D02*
X324515Y324685D01*
X326000Y325300D02*
G03X324515Y324685I0J-2100D01*
G01X326000Y325300D02*
X330000D01*
X331485Y324685D02*
G03X330000Y325300I-1485J-1485D01*
G01X331485Y324685D02*
X333485Y322685D01*
X334100Y321200D02*
G03X333485Y322685I-2100J0D01*
G01X334100Y321200D02*
Y321000D01*
Y320738*
X335500D02*
G03X334100I-700J-2138D01*
G01X327300Y196100D02*
Y224100D01*
X321000*
X319091Y224891D02*
G03X321000Y224100I1909J1909D01*
G01X319091Y224891D02*
X310291Y233691D01*
X304691Y239291*
X303900Y241200D02*
G03X304691Y239291I2700J-0D01*
G01X303900Y241200D02*
Y241303D01*
X303375Y243900D02*
G03X303900Y241303I3225J-700D01*
G01X303375Y243900D02*
X290470D01*
X280706Y234136*
X277864Y231294D02*
G03X280706Y234136I2136J706D01*
G01X277864Y231294D02*
X273685Y227115D01*
X269787Y230043D02*
G03X273685Y227115I613J-3243D01*
G01X268618Y234213D02*
G03X269787Y230043I2982J-1413D01*
G01X268618Y234213D02*
X257882Y244948D01*
X254948Y247882D02*
G03X257882Y244948I852J-2082D01*
G01X254948Y247882D02*
X254915Y247915D01*
X254300Y249400D02*
G03X254915Y247915I2100J0D01*
G01X254300Y249400D02*
Y266538D01*
Y270662D02*
G03Y266538I-900J-2062D01*
G01Y270662D02*
Y278730D01*
X252115Y280915*
X251500Y282400D02*
G03X252115Y280915I2100J0D01*
G01X251500Y282400D02*
Y284800D01*
X252094Y286264D02*
G03X251500Y284800I1506J-1464D01*
G01X254936Y289106D02*
G03X252094Y286264I-2136J-706D01*
G01X254936Y289106D02*
X256500Y290670D01*
Y290854*
X255508Y294553D02*
G03X256500Y290854I3092J-1153D01*
G01X257637Y296556D02*
G03X255508Y294553I-2237J244D01*
G01X258973Y296679D02*
G03X257637Y296556I-373J-3279D01*
G01X261595Y294785D02*
G03X258973Y296679I-395J2215D01*
G01X261208Y291377D02*
G03X261595Y294785I-2608J2023D01*
G01X261208Y291377D02*
X265500Y295670D01*
Y316462*
X264780Y320850D02*
G03X265500Y316462I20J-2250D01*
G01X264780Y320850D02*
X255820Y329810D01*
X252810Y332820D02*
G03X255820Y329810I990J-2020D01*
G01X252810Y332820D02*
X252715Y332915D01*
X252194Y333780D02*
G03X252715Y332915I2006J620D01*
G01X251352Y334733D02*
G03X252194Y333780I2848J1667D01*
G01X251352Y334733D02*
X240909Y324291D01*
X239000Y323500D02*
G03X240909Y324291I0J2700D01*
G01X239000Y323500D02*
X228697D01*
X224903D02*
G03X228697I1897J2700D01*
G01X224903D02*
X217677D01*
X214323D02*
G03X217677I1677J-1500D01*
G01X214323D02*
X203900D01*
Y315297*
X200618Y310152D02*
G03X203900Y315297I582J3248D01*
G01X200618Y310152D02*
X201485Y309285D01*
X202012Y308401D02*
G03X201485Y309285I-2012J-601D01*
G01X202100Y305425D02*
G03X202012Y308401I2900J1575D01*
G01X202100Y305425D02*
Y297870D01*
X208780Y291190*
X211790Y288180D02*
G03X208780Y291190I-990J2020D01*
G01X211790Y288180D02*
X212670Y287300D01*
X220600*
X222085Y286685D02*
G03X220600Y287300I-1485J-1485D01*
G01X222085Y286685D02*
X236500Y272270D01*
Y283330*
X222915Y296915*
X225885Y299885D02*
G03X222915Y296915I-3285J315D01*
G01X225885Y299885D02*
X238100Y287670D01*
Y309800*
X238715Y311285D02*
G03X238100Y309800I1485J-1485D01*
G01X238715Y311285D02*
X250515Y323085D01*
X257098Y323299D02*
G03X250515Y323085I-3298J101D01*
G01X256685Y316715D02*
G03X257098Y323299I315J3285D01*
G01X256685Y316715D02*
X248900Y308930D01*
Y296600*
Y241800*
Y236270*
X261380Y223790*
X264390Y220780D02*
G03X261380Y223790I-990J2020D01*
G01X264390Y220780D02*
X267870Y217300D01*
X269800*
X269862Y217299D02*
G03X269800Y217300I-62J-2099D01*
G01X272210Y215760D02*
G03X269862Y217299I-210J2240D01*
G01X272210Y215760D02*
X274085Y213885D01*
X276860Y208400D02*
G03X274085Y213885I-2460J2200D01*
G01X271115Y206515D02*
G03X276860Y208400I3285J-315D01*
G01X271115Y206515D02*
X270046Y207584D01*
X264315Y210115D02*
G03X270046Y207584I3285J-315D01*
G01X264315Y210115D02*
X238900Y235530D01*
Y230870*
X257885Y211885*
X259961Y205809D02*
G03X257885Y211885I-1761J2791D01*
G01X259961Y205809D02*
X261870Y203900D01*
X262654*
X268462Y202297D02*
G03X262654Y203900I-3262J-497D01*
G01X271430Y197303D02*
G03X268462Y202297I-2830J1697D01*
G01X270454Y192300D02*
G03X271430Y197303I2546J2100D01*
G01X270454Y192300D02*
X268625D01*
X262396Y190234D02*
G03X268625Y192300I3004J1366D01*
G01X262396Y190234D02*
X253900Y198730D01*
Y197746*
X255062Y194699D02*
G03X253900Y197746I-3262J501D01*
G01X252454Y189300D02*
G03X255062Y194699I2546J2100D01*
G01X252454Y189300D02*
X251318D01*
X251509Y189109*
X252300Y187200D02*
G03X251509Y189109I-2700J0D01*
G01X252300Y187200D02*
Y175518D01*
X257368Y170451*
X258697Y169900D02*
G03X257368Y170451I-1897J-2700D01*
G01X258697Y169900D02*
X262395D01*
X264805D02*
G03X262395I-1205J1900D01*
G01X264805D02*
X275702D01*
X277832Y171251D02*
G03X275702Y169900I568J-3251D01*
G01X277832Y171251D02*
X283100Y176518D01*
Y191200*
X283891Y193109D02*
G03X283100Y191200I1909J-1909D01*
G01X283891Y193109D02*
X290291Y199509D01*
X292200Y200300D02*
G03X290291Y199509I0J-2700D01*
G01X292200Y200300D02*
X311600D01*
X313509Y199509D02*
G03X311600Y200300I-1909J-1909D01*
G01X313509Y199509D02*
X316368Y196651D01*
X317697Y196100D02*
G03X316368Y196651I-1897J-2700D01*
G01X317697Y196100D02*
X327300D01*
X464250Y176000D02*
G03X464250I-2250J0D01*
G01X477779Y190551D02*
G03X477779I-7700J0D01*
G01X456250Y170000D02*
G03X456250I-2250J0D01*
G01X458250Y184000D02*
G03X458250I-2250J0D01*
G01X446250Y156000D02*
G03X446250I-2250J0D01*
G01X444250Y170200D02*
G03X444250I-2250J0D01*
G01X434650Y157000D02*
G03X434650I-2250J0D01*
G01X406250Y124000D02*
G03X406250I-2250J0D01*
G01X409250Y149200D02*
G03X409250I-2250J0D01*
G01X399039Y111811D02*
G03X399039I-7700J0D01*
G01X389050Y140000D02*
G03X389050I-2250J0D01*
G01X378250Y116400D02*
G03X378250I-2250J0D01*
G01X372300Y112000D02*
G03X372300I-3300J0D01*
G01X372250Y136000D02*
G03X372250I-2250J0D01*
G01X362300Y112000D02*
G03X362300I-3300J0D01*
G01X364250Y124000D02*
G03X364250I-2250J0D01*
G01X357850Y122600D02*
G03X357850I-2250J0D01*
G01X352300Y112000D02*
G03X352300I-3300J0D01*
G01X316974Y141021D02*
G03X316826Y142579I2026J979D01*
X316974Y141021I-2026J-979*
G01X337060Y171695D02*
G03X337140Y171905I2140J-695D01*
G01X333450Y170969D02*
G03X337060Y171695I1550J1631D01*
G01X332750Y172631D02*
G03X333450Y170969I-1550J-1631D01*
G01X337140Y171905D02*
G03X332750Y172631I-2140J695D01*
G01X336850Y178200D02*
G03X336850I-2250J0D01*
G01X330250Y182000D02*
G03X330250I-2250J0D01*
G01X322850Y187200D02*
G03X322850I-2250J0D01*
G01X312050D02*
G03X312050I-2250J0D01*
G01X306250Y182000D02*
G03X306250I-2250J0D01*
G01X293050Y129800D02*
G03X293050I-2250J0D01*
G01X258250Y106000D02*
G03X258250I-2250J0D01*
G01X261250Y114400D02*
G03X261250I-2250J0D01*
G01X261850Y141200D02*
G03X261850I-2250J0D01*
G01X251650Y119000D02*
G03X251650I-2250J0D01*
G01X252250Y133000D02*
G03X252250I-2250J0D01*
G01X251450Y141000D02*
G03X251450I-2250J0D01*
G01X228250Y106000D02*
G03X228250I-2250J0D01*
G01X220250Y110000D02*
G03X220250I-2250J0D01*
G01Y122000D02*
G03X220250I-2250J0D01*
G01Y128000D02*
G03X220250I-2250J0D01*
G01X220450Y140000D02*
G03X220450I-2250J0D01*
G01X209450Y111400D02*
G03X209450I-2250J0D01*
G01X203650Y126400D02*
G03X203650I-2250J0D01*
G01X205850Y130600D02*
G03X205850I-2250J0D01*
G01X183450Y113000D02*
G03X183450I-2250J0D01*
G01X223300Y230000D02*
G03X223300I-3300J0D01*
G01Y240000D02*
G03X223300I-3300J0D01*
G01X213850Y259000D02*
G03X213850I-2250J0D01*
G01X196650Y272400D02*
G03X196650I-2250J0D01*
G01X191650Y268200D02*
G03X191650I-2250J0D01*
G01X183050Y349800D02*
G03X183050I-2250J0D01*
G01X126250Y350000D02*
G03X126250I-2250J0D01*
G01X114250Y296000D02*
G03X114250I-2250J0D01*
G01X108250Y292000D02*
G03X108250I-2250J0D01*
G01X119511Y344094D02*
G03X119511I-7700J0D01*
G01X112250Y264000D02*
G03X112250I-2250J0D01*
G01X119511Y277165D02*
G03X119511I-7700J0D01*
G01X138261Y160827D02*
G03X138261I-7749J0D01*
G01X126250Y169600D02*
G03X126250I-2250J0D01*
G01X114250Y150000D02*
G03X114250I-2250J0D01*
G01X120293Y156493D02*
G03X120293I-3320J0D01*
G01X136050Y316600D02*
G03X136050I-2250J0D01*
G01X178250Y215600D02*
G03X178250I-2250J0D01*
G01X182650Y219200D02*
G03X182650I-2250J0D01*
G01X175050Y248000D02*
G03X175050I-2250J0D01*
G01X160158Y245194D02*
G03X159242Y245606I442J2206D01*
G01X156639Y242774D02*
G03X160158Y245194I2161J626D01*
G01X155095Y245140D02*
G03X156639Y242774I-695J-2140D01*
G01X155305Y245060D02*
G03X155095Y245140I695J2140D01*
G01X156561Y243626D02*
G03X155305Y245060I-2161J-626D01*
G01X159242Y245606D02*
G03X156561Y243626I-442J-2206D01*
G01X164850Y253600D02*
G03X164850I-2250J0D01*
G01X163554Y261955D02*
G03X164046Y262045I646J-2155D01*
X163554Y261955I-646J2155*
G01X152050Y222000D02*
G03X152050I-2250J0D01*
G01X154050Y249000D02*
G03X154050I-2250J0D01*
G01X143450Y230600D02*
G03X143450I-2250J0D01*
G01X143650Y242400D02*
G03X143650I-2250J0D01*
G01X146208Y246900D02*
G03X144592I-808J2100D01*
X146208I808J-2100*
G01X189250Y159000D02*
G03X189250I-2250J0D01*
G01X179850Y181800D02*
G03X179850I-2250J0D01*
G01X166250Y158800D02*
G03X166250I-2250J0D01*
G01X174250Y176000D02*
G03X174250I-2250J0D01*
G01X174450Y184800D02*
G03X174450I-2250J0D01*
G01X186850Y215800D02*
G03X186850I-2250J0D01*
G01X173650Y111200D02*
G03X173650I-2250J0D01*
G01X163050Y105800D02*
G03X163050I-2250J0D01*
G01X159850Y111200D02*
G03X159850I-2250J0D01*
G01X174629Y127559D02*
G03X174629I-7700J0D01*
G01X161250Y142200D02*
G03X161250I-2250J0D01*
G01X107850Y105400D02*
G03X107850I-2250J0D01*
G01X155450Y144000D02*
G03X155450I-2250J0D01*
G01X218250Y187600D02*
G03X218250I-2250J0D01*
G01X199367Y181308D02*
G03X202768Y186251I2833J1692D01*
G01X196810Y184571D02*
G03X199367Y181308I590J-2171D01*
G01X196810Y184571D02*
X193668Y187714D01*
X190714Y190668D02*
G03X193668Y187714I886J-2068D01*
G01X190714Y190668D02*
X174882Y206500D01*
X174497*
X173168Y205949D02*
G03X174497Y206500I-568J3251D01*
G01X173168Y205949D02*
X169300Y202082D01*
Y169118*
X171568Y166851*
X167749Y163032D02*
G03X171568Y166851I3251J568D01*
G01X167749Y163032D02*
X164691Y166091D01*
X163900Y168000D02*
G03X164691Y166091I2700J0D01*
G01X163900Y168000D02*
Y175595D01*
Y178005D02*
G03Y175595I-1900J-1205D01*
G01Y178005D02*
Y203200D01*
X164691Y205109D02*
G03X163900Y203200I1909J-1909D01*
G01X164691Y205109D02*
X169349Y209768D01*
X174497Y211900D02*
G03X169349Y209768I-1897J-2700D01*
G01X174497Y211900D02*
X176000D01*
X177909Y211109D02*
G03X176000Y211900I-1909J-1909D01*
G01X177909Y211109D02*
X202768Y186251D01*
X224250Y158000D02*
G03X224250I-2250J0D01*
G01X224450Y169200D02*
G03X224450I-2250J0D01*
G01X230250Y159000D02*
G03X230250I-2250J0D01*
G01X231650Y170800D02*
G03X231650I-2250J0D01*
G01X236250Y172000D02*
G03X236250I-2250J0D01*
G01X269250Y111000D02*
G03X269250I-2250J0D01*
G01X304050Y137800D02*
G03X304050I-2250J0D01*
G01X342300Y112000D02*
G03X342300I-3300J0D01*
G01X332300D02*
G03X332300I-3300J0D01*
G01X316250D02*
G03X316250I-2250J0D01*
G01X455300Y202000D02*
G03X455300I-3300J0D01*
G01X445450Y191400D02*
G03X445450I-2250J0D01*
G01X442250Y203800D02*
G03X442250I-2250J0D01*
G01X489850Y217200D02*
G03X489850I-2250J0D01*
G01X490250Y238000D02*
G03X490250I-2250J0D01*
G01X488250Y270000D02*
G03X488250I-2250J0D01*
G01Y282000D02*
G03X488250I-2250J0D01*
G01X486250Y296000D02*
G03X486250I-2250J0D01*
G01X476250Y270000D02*
G03X476250I-2250J0D01*
G01X464250Y268000D02*
G03X464250I-2250J0D01*
G01X445840Y243701D02*
G03X445840I-3320J0D01*
G01X484250Y320000D02*
G03X484250I-2250J0D01*
G01Y334000D02*
G03X484250I-2250J0D01*
G01Y346000D02*
G03X484250I-2250J0D01*
G01X474250Y288000D02*
G03X474250I-2250J0D01*
G01X473479Y320472D02*
G03X473479I-3400J0D01*
G01Y330315D02*
G03X473479I-3400J0D01*
G01Y340157D02*
G03X473479I-3400J0D01*
G01X464250Y286000D02*
G03X464250I-2250J0D01*
G01X466250Y296000D02*
G03X466250I-2250J0D01*
G01X464250Y313200D02*
G03X464250I-2250J0D01*
G01X468250Y348000D02*
G03X468250I-2250J0D01*
G01X452250Y278000D02*
G03X452250I-2250J0D01*
G01X446250Y268000D02*
G03X446250I-2250J0D01*
G01X439250Y259400D02*
G03X439250I-2250J0D01*
G01X434250Y278000D02*
G03X434250I-2250J0D01*
G01X426250Y262000D02*
G03X426250I-2250J0D01*
G01Y270000D02*
G03X426250I-2250J0D01*
G01X456250Y336000D02*
G03X456250I-2250J0D01*
G01Y348000D02*
G03X456250I-2250J0D01*
G01X448872Y320472D02*
G03X448872I-3400J0D01*
G01X442250Y332000D02*
G03X442250I-2250J0D01*
G01X448872Y340157D02*
G03X448872I-3400J0D01*
G01X444250Y348000D02*
G03X444250I-2250J0D01*
G01X427526Y301653D02*
G03X426674Y302147I674J2147D01*
X427526Y301653I-674J-2147*
G01X434250Y320000D02*
G03X434250I-2250J0D01*
G01Y328000D02*
G03X434250I-2250J0D01*
G01X426650Y306600D02*
G03X426650I-2250J0D01*
G01X425765Y319000D02*
G03X425765I-2828J0D01*
G01X417891D02*
G03X417891I-2828J0D01*
G01X432503Y344094D02*
G03X432503I-7700J0D01*
G01X410250Y290000D02*
G03X410250I-2250J0D01*
G01Y298000D02*
G03X410250I-2250J0D01*
G01X414450Y333400D02*
G03X414450I-2250J0D01*
G01X404250Y286000D02*
G03X404250I-2250J0D01*
G01X378300Y350000D02*
G03X378300I-3300J0D01*
G01X370150Y340000D02*
G03X370150I-2250J0D01*
G01X368300Y350000D02*
G03X368300I-3300J0D01*
G01X357050Y335000D02*
G03X357050I-2250J0D01*
G01X358300Y350000D02*
G03X358300I-3300J0D01*
G01X348850Y337200D02*
G03X348850I-2250J0D01*
G01X348300Y350000D02*
G03X348300I-3300J0D01*
G01X301050Y334000D02*
G03X301050I-2250J0D01*
G01X324050Y217000D02*
G03X324050I-2250J0D01*
G01X326850Y220600D02*
G03X326850I-2250J0D01*
G01X317650Y202400D02*
G03X317650I-2250J0D01*
G01X314901Y219394D02*
G03X314699Y221406I1899J1206D01*
X314901Y219394I-1899J-1206*
G01X304499Y218806D02*
G03X303101Y219794I501J2194D01*
G01X300376Y217258D02*
G03X304499Y218806I2224J342D01*
G01X300476Y218342D02*
G03X300376Y217258I-2224J-342D01*
G01X303101Y219794D02*
G03X300476Y218342I-501J-2194D01*
G01X299850Y240400D02*
G03X299850I-2250J0D01*
G01X291250Y214200D02*
G03X291250I-2250J0D01*
G01X291050Y218800D02*
G03X291050I-2250J0D01*
G01X274250Y173000D02*
G03X274250I-2250J0D01*
G01X267850Y180800D02*
G03X267850I-2250J0D01*
G01X262850Y176800D02*
G03X262850I-2250J0D01*
G01X259250Y185600D02*
G03X259250I-2250J0D01*
G01X281850Y223000D02*
G03X281850I-2250J0D01*
G01X286250Y228000D02*
G03X286250I-2250J0D01*
G01X266250Y234000D02*
G03X266250I-2250J0D01*
G01X258250D02*
G03X258250I-2250J0D01*
G01X224050Y290000D02*
G03X224050I-2250J0D01*
G01X220250Y294000D02*
G03X220250I-2250J0D01*
G01X231050Y310400D02*
G03X231050I-2250J0D01*
G01X224250Y308000D02*
G03X224250I-2250J0D01*
G01X220250Y312000D02*
G03X220250I-2250J0D01*
G01X212250Y297000D02*
G03X212250I-2250J0D01*
G01X211850Y318000D02*
G03X211850I-2250J0D01*
G01X281564Y224099D02*
X327300D01*
X305478Y223199D02*
X327300D01*
X326075Y222299D02*
X327300D01*
X326703Y221399D02*
X327300D01*
X326848Y220499D02*
X327300D01*
X326615Y219599D02*
X327300D01*
X325803Y218699D02*
X327300D01*
X323903Y217799D02*
X327300D01*
X324048Y216899D02*
X327300D01*
X323815Y215999D02*
X327300D01*
X323003Y215099D02*
X327300D01*
X291250Y214199D02*
X327300D01*
X291062Y213299D02*
X327300D01*
X290348Y212399D02*
X327300D01*
X277575Y211499D02*
X327300D01*
X277700Y210599D02*
X327300D01*
X277575Y209699D02*
X327300D01*
X277165Y208799D02*
X327300D01*
X277229Y207899D02*
X327300D01*
X277602Y206999D02*
X327300D01*
X277698Y206099D02*
X327300D01*
X277544Y205199D02*
X327300D01*
X316607Y204299D02*
X327300D01*
X317416Y203399D02*
X327300D01*
X317648Y202499D02*
X327300D01*
X317502Y201599D02*
X327300D01*
X316872Y200699D02*
X327300D01*
X313167Y199799D02*
X327300D01*
X314120Y198899D02*
X327300D01*
X315020Y197999D02*
X327300D01*
X315920Y197099D02*
X327300D01*
X317549Y196199D02*
X327300D01*
X323275Y218699D02*
X323397D01*
X318275Y222299D02*
X323125D01*
X318815Y219599D02*
X322585D01*
X318903Y221399D02*
X322497D01*
X319048Y220499D02*
X322352D01*
X291063Y215099D02*
X320597D01*
X318003Y218699D02*
X320325D01*
X304181Y215999D02*
X319785D01*
X304841Y217799D02*
X319697D01*
X304738Y216899D02*
X319552D01*
X280633Y224999D02*
X318983D01*
X284804Y225899D02*
X318083D01*
X285902Y226799D02*
X317183D01*
X286230Y227699D02*
X316283D01*
X314476Y218699D02*
X315597D01*
X286169Y228599D02*
X315383D01*
X313611Y222299D02*
X315325D01*
X285678Y229499D02*
X314483D01*
X277097Y204299D02*
X314193D01*
X271429Y200699D02*
X313928D01*
X281581Y230399D02*
X313583D01*
X276144Y203399D02*
X313384D01*
X270634Y201599D02*
X313298D01*
X268425Y202499D02*
X313152D01*
X282138Y231299D02*
X312683D01*
X306837Y222299D02*
X311989D01*
X282241Y232199D02*
X311783D01*
X304564Y218699D02*
X311124D01*
X307214Y221399D02*
X310896D01*
X281964Y233099D02*
X310883D01*
X306760Y219599D02*
X310632D01*
X307193Y220499D02*
X310570D01*
X281033Y233999D02*
X309983D01*
X281469Y234899D02*
X309083D01*
X282369Y235799D02*
X308183D01*
X283269Y236699D02*
X307283D01*
X284169Y237599D02*
X306383D01*
X298803Y238499D02*
X305483D01*
X299615Y239399D02*
X304589D01*
X281841Y223199D02*
X304522D01*
X299848Y240299D02*
X304055D01*
X299703Y241199D02*
X303900D01*
X299075Y242099D02*
X303489D01*
X290469Y243899D02*
X303375D01*
X289569Y242999D02*
X303306D01*
X281738Y222299D02*
X303163D01*
X290275Y220499D02*
X302807D01*
X281181Y221399D02*
X302786D01*
X299835Y219599D02*
X301567D01*
X299280Y215999D02*
X301019D01*
X300391Y218699D02*
X300636D01*
X300214Y216899D02*
X300462D01*
X290352Y215999D02*
X297224D01*
X290903Y219599D02*
X296669D01*
X285069Y238499D02*
X296397D01*
X290003Y216899D02*
X296290D01*
X288669Y242099D02*
X296125D01*
X291048Y218699D02*
X296113D01*
X290815Y217799D02*
X296011D01*
X285969Y239399D02*
X295585D01*
X287769Y241199D02*
X295497D01*
X286869Y240299D02*
X295352D01*
X271802Y199799D02*
X290633D01*
X271898Y198899D02*
X289680D01*
X271744Y197999D02*
X288780D01*
X274899Y197099D02*
X287880D01*
X277167Y212399D02*
X287652D01*
X273028Y215999D02*
X287648D01*
X273962Y216899D02*
X287597D01*
X264671Y220499D02*
X287325D01*
X275767Y196199D02*
X286980D01*
X276299Y213299D02*
X286938D01*
X272871Y215099D02*
X286937D01*
X274241Y217799D02*
X286785D01*
X273771Y214199D02*
X286750D01*
X273583Y219599D02*
X286697D01*
X274139Y218699D02*
X286552D01*
X276175Y195299D02*
X286080D01*
X276300Y194399D02*
X285180D01*
X276175Y193499D02*
X284280D01*
X275765Y192599D02*
X283491D01*
X273575Y225899D02*
X283196D01*
X274896Y191699D02*
X283146D01*
X268601Y190799D02*
X283100D01*
X268228Y189899D02*
X283100D01*
X267431Y188999D02*
X283100D01*
X252146Y188099D02*
X283100D01*
X258583Y187199D02*
X283100D01*
X259139Y186299D02*
X283100D01*
X259241Y185399D02*
X283100D01*
X258962Y184499D02*
X283100D01*
X258028Y183599D02*
X283100D01*
X266807Y182699D02*
X283100D01*
X267616Y181799D02*
X283100D01*
X267848Y180899D02*
X283100D01*
X267702Y179999D02*
X283100D01*
X267072Y179099D02*
X283100D01*
X262362Y178199D02*
X283100D01*
X262794Y177299D02*
X283100D01*
X262814Y176399D02*
X282980D01*
X276069Y229499D02*
X282322D01*
X273700Y226799D02*
X282098D01*
X262436Y175499D02*
X282080D01*
X275169Y228599D02*
X281831D01*
X274269Y227699D02*
X281770D01*
X273583Y174599D02*
X281180D01*
X274139Y173699D02*
X280280D01*
X274241Y172799D02*
X279380D01*
X273165Y224999D02*
X278567D01*
X273962Y171899D02*
X278480D01*
X276969Y230399D02*
X278419D01*
X265160Y221399D02*
X278019D01*
X272296Y224099D02*
X277636D01*
X265593Y222299D02*
X277462D01*
X265614Y223199D02*
X277359D01*
X273028Y170999D02*
X277022D01*
X265072Y170099D02*
X275853D01*
X268087Y203399D02*
X272656D01*
X267356Y204299D02*
X271703D01*
X260571Y205199D02*
X271256D01*
X268699Y191699D02*
X271104D01*
X260353Y206099D02*
X271102D01*
X265702Y170999D02*
X270972D01*
X269344Y206999D02*
X270631D01*
X265571Y219599D02*
X270417D01*
X261066Y174599D02*
X270417D01*
X265848Y171899D02*
X270038D01*
X266471Y218699D02*
X269861D01*
X264807Y173699D02*
X269861D01*
X267371Y217799D02*
X269759D01*
X265616Y172799D02*
X269759D01*
X254771Y230399D02*
X269336D01*
X253871Y231299D02*
X268661D01*
X266250Y233999D02*
X268525D01*
X265237Y224099D02*
X268504D01*
X255671Y229499D02*
X268501D01*
X265348Y232199D02*
X268355D01*
X266062Y233099D02*
X268314D01*
X266063Y234899D02*
X267931D01*
X263878Y224999D02*
X267635D01*
X256571Y228599D02*
X267633D01*
X259271Y225899D02*
X267225D01*
X257471Y227699D02*
X267225D01*
X258371Y226799D02*
X267100D01*
X265352Y235799D02*
X267031D01*
X248900Y236699D02*
X266131D01*
X261085Y206999D02*
X265856D01*
X255869Y315899D02*
X265500D01*
X254969Y314999D02*
X265500D01*
X254069Y314099D02*
X265500D01*
X253169Y313199D02*
X265500D01*
X252269Y312299D02*
X265500D01*
X251369Y311399D02*
X265500D01*
X250469Y310499D02*
X265500D01*
X249569Y309599D02*
X265500D01*
X248900Y308699D02*
X265500D01*
X248900Y307799D02*
X265500D01*
X248900Y306899D02*
X265500D01*
X248900Y305999D02*
X265500D01*
X248900Y305099D02*
X265500D01*
X248900Y304199D02*
X265500D01*
X248900Y303299D02*
X265500D01*
X248900Y302399D02*
X265500D01*
X248900Y301499D02*
X265500D01*
X248900Y300599D02*
X265500D01*
X248900Y299699D02*
X265500D01*
X262552Y298799D02*
X265500D01*
X263263Y297899D02*
X265500D01*
X263450Y296999D02*
X265500D01*
X263262Y296099D02*
X265500D01*
X248900Y237599D02*
X265231D01*
X262548Y295199D02*
X265029D01*
X261425Y207899D02*
X264903D01*
X261494Y208799D02*
X264456D01*
X252300Y182699D02*
X264393D01*
X260034Y321299D02*
X264331D01*
X248900Y238499D02*
X264331D01*
X261312Y209699D02*
X264302D01*
X261775Y294299D02*
X264129D01*
X252300Y179099D02*
X264128D01*
X260826Y210599D02*
X263831D01*
X252300Y181799D02*
X263584D01*
X252300Y179999D02*
X263498D01*
X257801Y316799D02*
X263452D01*
X260276Y320399D02*
X263448D01*
X259461Y322199D02*
X263431D01*
X248900Y239399D02*
X263431D01*
X257264Y188999D02*
X263369D01*
X252300Y180899D02*
X263352D01*
X261900Y293399D02*
X263229D01*
X261471Y204299D02*
X263044D01*
X259777Y211499D02*
X262931D01*
X260171Y224999D02*
X262922D01*
X259365Y317699D02*
X262738D01*
X260262Y319499D02*
X262737D01*
X257348Y232199D02*
X262652D01*
X257352Y235799D02*
X262648D01*
X257939Y189899D02*
X262572D01*
X259988Y318599D02*
X262550D01*
X258135Y323099D02*
X262531D01*
X248900Y240299D02*
X262531D01*
X254120Y173699D02*
X262393D01*
X261775Y292499D02*
X262329D01*
X258377Y170099D02*
X262128D01*
X257371Y212399D02*
X262031D01*
X258062Y233099D02*
X261938D01*
X258063Y234899D02*
X261937D01*
X258245Y190799D02*
X261831D01*
X258250Y233999D02*
X261750D01*
X257045Y323999D02*
X261631D01*
X248900Y241199D02*
X261631D01*
X255020Y172799D02*
X261584D01*
X261071Y224099D02*
X261563D01*
X256820Y170999D02*
X261498D01*
X261365Y291599D02*
X261429D01*
X255920Y171899D02*
X261352D01*
X256471Y213299D02*
X261131D01*
X258286Y191699D02*
X260931D01*
X256740Y324899D02*
X260731D01*
X248900Y242099D02*
X260731D01*
X255571Y214199D02*
X260231D01*
X253220Y174599D02*
X260134D01*
X258075Y192599D02*
X260031D01*
X256433Y298799D02*
X259848D01*
X256066Y325799D02*
X259831D01*
X248900Y242999D02*
X259831D01*
X254671Y215099D02*
X259331D01*
X257364Y297899D02*
X259137D01*
X257547Y193499D02*
X259131D01*
X257641Y296999D02*
X258950D01*
X253894Y326699D02*
X258931D01*
X257003Y243899D02*
X258931D01*
X252300Y178199D02*
X258838D01*
X252320Y175499D02*
X258764D01*
X253771Y215999D02*
X258431D01*
X252300Y177299D02*
X258406D01*
X252300Y176399D02*
X258386D01*
X256378Y194399D02*
X258231D01*
X244217Y327599D02*
X258031D01*
X257815Y244799D02*
X258031D01*
X252871Y216899D02*
X257531D01*
X255099Y195299D02*
X257331D01*
X245117Y328499D02*
X257131D01*
X251971Y217799D02*
X256631D01*
X248900Y290699D02*
X256500D01*
X254945Y196199D02*
X256431D01*
X255560Y329399D02*
X256231D01*
X252300Y183599D02*
X255972D01*
X248900Y291599D02*
X255835D01*
X251071Y218699D02*
X255731D01*
X254562Y289799D02*
X255629D01*
X254499Y197099D02*
X255531D01*
X248900Y292499D02*
X255425D01*
X248900Y294299D02*
X255425D01*
X252300Y187199D02*
X255417D01*
X248900Y293399D02*
X255300D01*
X252300Y184499D02*
X255038D01*
X252300Y186299D02*
X254861D01*
X250171Y219599D02*
X254831D01*
X252300Y185399D02*
X254759D01*
X252971Y232199D02*
X254652D01*
X249371Y235799D02*
X254648D01*
X253900Y197999D02*
X254631D01*
X248900Y243899D02*
X254597D01*
X248900Y248399D02*
X254554D01*
X248900Y298799D02*
X254367D01*
X248900Y247499D02*
X254325D01*
X248900Y249299D02*
X254302D01*
X248900Y278099D02*
X254300D01*
X248900Y277199D02*
X254300D01*
X248900Y276299D02*
X254300D01*
X248900Y275399D02*
X254300D01*
X248900Y274499D02*
X254300D01*
X248900Y273599D02*
X254300D01*
X248900Y272699D02*
X254300D01*
X248900Y271799D02*
X254300D01*
X248900Y270899D02*
X254300D01*
X253866Y266399D02*
X254300D01*
X248900Y265499D02*
X254300D01*
X248900Y264599D02*
X254300D01*
X248900Y263699D02*
X254300D01*
X248900Y262799D02*
X254300D01*
X248900Y261899D02*
X254300D01*
X248900Y260999D02*
X254300D01*
X248900Y260099D02*
X254300D01*
X248900Y259199D02*
X254300D01*
X248900Y258299D02*
X254300D01*
X248900Y257399D02*
X254300D01*
X248900Y256499D02*
X254300D01*
X248900Y255599D02*
X254300D01*
X248900Y254699D02*
X254300D01*
X248900Y253799D02*
X254300D01*
X248900Y252899D02*
X254300D01*
X248900Y251999D02*
X254300D01*
X248900Y251099D02*
X254300D01*
X248900Y250199D02*
X254300D01*
X248900Y278999D02*
X254031D01*
X252071Y233099D02*
X253938D01*
X250271Y234899D02*
X253937D01*
X249271Y220499D02*
X253931D01*
X248900Y295199D02*
X253819D01*
X248900Y244799D02*
X253785D01*
X251171Y233999D02*
X253750D01*
X243317Y326699D02*
X253706D01*
X248900Y246599D02*
X253697D01*
X248900Y245699D02*
X253552D01*
X248900Y297899D02*
X253436D01*
X248900Y296099D02*
X253262D01*
X248900Y296999D02*
X253159D01*
X248900Y279899D02*
X253131D01*
X248371Y221399D02*
X253031D01*
X248900Y266399D02*
X252934D01*
X251614Y188999D02*
X252736D01*
X249617Y332999D02*
X252636D01*
X248900Y280799D02*
X252231D01*
X247471Y222299D02*
X252131D01*
X250517Y333899D02*
X252047D01*
X246017Y329399D02*
X252040D01*
X248900Y286199D02*
X252034D01*
X248717Y332099D02*
X251963D01*
X248900Y269999D02*
X251638D01*
X248900Y281699D02*
X251621D01*
X246917Y330299D02*
X251607D01*
X247817Y331199D02*
X251586D01*
X248900Y267299D02*
X251564D01*
X248900Y285299D02*
X251560D01*
X242417Y325799D02*
X251534D01*
X248900Y284399D02*
X251500D01*
X248900Y283499D02*
X251500D01*
X248900Y282599D02*
X251500D01*
X246571Y223199D02*
X251231D01*
X248900Y269099D02*
X251206D01*
X248900Y268199D02*
X251186D01*
X248900Y289799D02*
X251038D01*
X248900Y287099D02*
X250964D01*
X241517Y324899D02*
X250860D01*
X248900Y288899D02*
X250606D01*
X248900Y287999D02*
X250586D01*
X240563Y323999D02*
X250555D01*
X227928Y323099D02*
X250514D01*
X245671Y224099D02*
X250331D01*
X218241Y322199D02*
X249629D01*
X244771Y224999D02*
X249431D01*
X218138Y321299D02*
X248729D01*
X243871Y225899D02*
X248531D01*
X217581Y320399D02*
X247829D01*
X242971Y226799D02*
X247631D01*
X211278Y319499D02*
X246929D01*
X242071Y227699D02*
X246731D01*
X211769Y318599D02*
X246029D01*
X241171Y228599D02*
X245831D01*
X211830Y317699D02*
X245129D01*
X240271Y229499D02*
X244931D01*
X211502Y316799D02*
X244229D01*
X239371Y230399D02*
X244031D01*
X210404Y315899D02*
X243329D01*
X238900Y231299D02*
X243131D01*
X204087Y314999D02*
X242429D01*
X238900Y232199D02*
X242231D01*
X218811Y314099D02*
X241529D01*
X238900Y233099D02*
X241331D01*
X219904Y313199D02*
X240629D01*
X238900Y233999D02*
X240431D01*
X230007Y312299D02*
X239729D01*
X238900Y234899D02*
X239531D01*
X230816Y311399D02*
X238829D01*
X231048Y310499D02*
X238220D01*
X230902Y309599D02*
X238100D01*
X230272Y308699D02*
X238100D01*
X224241Y307799D02*
X238100D01*
X223962Y306899D02*
X238100D01*
X223028Y305999D02*
X238100D01*
X207697Y305099D02*
X238100D01*
X206744Y304199D02*
X238100D01*
X223735Y303299D02*
X238100D01*
X225061Y302399D02*
X238100D01*
X225634Y301499D02*
X238100D01*
X225876Y300599D02*
X238100D01*
X226071Y299699D02*
X238100D01*
X226971Y298799D02*
X238100D01*
X227871Y297899D02*
X238100D01*
X228771Y296999D02*
X238100D01*
X229671Y296099D02*
X238100D01*
X230571Y295199D02*
X238100D01*
X231471Y294299D02*
X238100D01*
X232371Y293399D02*
X238100D01*
X233271Y292499D02*
X238100D01*
X234171Y291599D02*
X238100D01*
X235071Y290699D02*
X238100D01*
X235971Y289799D02*
X238100D01*
X236871Y288899D02*
X238100D01*
X237771Y287999D02*
X238100D01*
X226171Y282599D02*
X236500D01*
X227071Y281699D02*
X236500D01*
X227971Y280799D02*
X236500D01*
X228871Y279899D02*
X236500D01*
X229771Y278999D02*
X236500D01*
X230671Y278099D02*
X236500D01*
X231571Y277199D02*
X236500D01*
X232471Y276299D02*
X236500D01*
X233371Y275399D02*
X236500D01*
X234271Y274499D02*
X236500D01*
X235171Y273599D02*
X236500D01*
X236071Y272699D02*
X236500D01*
X225271Y283499D02*
X236331D01*
X224371Y284399D02*
X235431D01*
X223471Y285299D02*
X234531D01*
X222571Y286199D02*
X233631D01*
X221497Y287099D02*
X232731D01*
X222828Y287999D02*
X231831D01*
X223762Y288899D02*
X230931D01*
X224041Y289799D02*
X230031D01*
X223939Y290699D02*
X229131D01*
X223383Y291599D02*
X228231D01*
X220230Y312299D02*
X227593D01*
X219676Y292499D02*
X227331D01*
X224139Y308699D02*
X227328D01*
X220168Y311399D02*
X226784D01*
X223583Y309599D02*
X226698D01*
X219676Y310499D02*
X226552D01*
X220168Y293399D02*
X226431D01*
X217964Y323099D02*
X225672D01*
X220230Y294299D02*
X225531D01*
X219904Y295199D02*
X224631D01*
X218811Y296099D02*
X223731D01*
X212250Y296999D02*
X221799D01*
X202100Y303299D02*
X221465D01*
X208144Y305999D02*
X220972D01*
X211971Y287999D02*
X220772D01*
X207034Y309599D02*
X220417D01*
X212063Y297899D02*
X220235D01*
X212562Y291599D02*
X220217D01*
X202100Y302399D02*
X220139D01*
X208298Y306899D02*
X220038D01*
X207829Y308699D02*
X219861D01*
X212636Y288899D02*
X219838D01*
X208202Y307799D02*
X219759D01*
X212994Y290699D02*
X219661D01*
X211352Y298799D02*
X219612D01*
X202100Y301499D02*
X219566D01*
X213014Y289799D02*
X219559D01*
X202100Y299699D02*
X219338D01*
X202100Y300599D02*
X219324D01*
X204425Y314099D02*
X217189D01*
X212062Y296099D02*
X217189D01*
X202772Y310499D02*
X216324D01*
X207471Y292499D02*
X216324D01*
X204494Y313199D02*
X216096D01*
X211348Y295199D02*
X216096D01*
X203824Y311399D02*
X215832D01*
X206571Y293399D02*
X215832D01*
X204311Y312299D02*
X215770D01*
X205671Y294299D02*
X215770D01*
X203900Y320399D02*
X214419D01*
X203900Y323099D02*
X214036D01*
X203900Y321299D02*
X213862D01*
X203900Y322199D02*
X213759D01*
X208371Y291599D02*
X209038D01*
X203900Y315899D02*
X208796D01*
X204771Y295199D02*
X208652D01*
X202100Y298799D02*
X208648D01*
X203871Y296099D02*
X207938D01*
X202100Y297899D02*
X207937D01*
X203900Y319499D02*
X207922D01*
X202971Y296999D02*
X207750D01*
X203900Y316799D02*
X207698D01*
X203900Y318599D02*
X207431D01*
X203900Y317699D02*
X207370D01*
X202100Y304199D02*
X203256D01*
X201171Y309599D02*
X202966D01*
X202100Y305099D02*
X202303D01*
X201898Y308699D02*
X202171D01*
X330593Y330299D02*
X335500D01*
X330160Y329399D02*
X335500D01*
X304717Y328499D02*
X335500D01*
X303817Y327599D02*
X335500D01*
X302917Y326699D02*
X335500D01*
X302017Y325799D02*
X335500D01*
X331235Y324899D02*
X335500D01*
X332171Y323999D02*
X335500D01*
X333071Y323099D02*
X335500D01*
X333847Y322199D02*
X335500D01*
X334098Y321299D02*
X335500D01*
X330614Y331199D02*
X333628D01*
X329583Y336599D02*
X332734D01*
X330237Y332099D02*
X332455D01*
X330139Y335699D02*
X332060D01*
X329028Y332999D02*
X331926D01*
X330241Y334799D02*
X331755D01*
X329962Y333899D02*
X331714D01*
X309217Y332999D02*
X326972D01*
X305617Y329399D02*
X326640D01*
X308317Y332099D02*
X326563D01*
X325769Y336599D02*
X326417D01*
X306517Y330299D02*
X326207D01*
X307417Y331199D02*
X326186D01*
X324404Y333899D02*
X326038D01*
X325830Y335699D02*
X325861D01*
X325502Y334799D02*
X325759D01*
X301633Y324899D02*
X324765D01*
X301271Y317699D02*
X323129D01*
X310117Y333899D02*
X322796D01*
X301059Y323999D02*
X322422D01*
X302171Y316799D02*
X322229D01*
X318923Y334799D02*
X321698D01*
X303071Y315899D02*
X321620D01*
X300284Y318599D02*
X321536D01*
X303971Y314999D02*
X321500D01*
X304871Y314099D02*
X321500D01*
X305771Y313199D02*
X321500D01*
X306671Y312299D02*
X321500D01*
X307571Y311399D02*
X321500D01*
X308471Y310499D02*
X321500D01*
X309371Y309599D02*
X321500D01*
X310271Y308699D02*
X321500D01*
X311171Y307799D02*
X321500D01*
X312071Y306899D02*
X321500D01*
X312971Y305999D02*
X321500D01*
X313871Y305099D02*
X321500D01*
X314771Y304199D02*
X321500D01*
X315671Y303299D02*
X321500D01*
X316571Y302399D02*
X321500D01*
X317471Y301499D02*
X321500D01*
X318371Y300599D02*
X321500D01*
X319271Y299699D02*
X321500D01*
X320171Y298799D02*
X321500D01*
X321071Y297899D02*
X321500D01*
X321217Y336599D02*
X321431D01*
X320317Y335699D02*
X321370D01*
X299728Y323099D02*
X321253D01*
X297299Y319499D02*
X320861D01*
X290100Y322199D02*
X320725D01*
X290571Y320399D02*
X320555D01*
X290100Y321299D02*
X320514D01*
X303344Y343799D02*
X305900D01*
X300869Y342899D02*
X305900D01*
X299969Y341999D02*
X305900D01*
X299069Y341099D02*
X305900D01*
X298169Y340199D02*
X305900D01*
X297269Y339299D02*
X305900D01*
X296369Y338399D02*
X305900D01*
X295469Y337499D02*
X305900D01*
X304297Y344699D02*
X305483D01*
X294569Y336599D02*
X305180D01*
X300275Y335699D02*
X304280D01*
X300903Y334799D02*
X303380D01*
X301048Y333899D02*
X302480D01*
X300815Y332999D02*
X301580D01*
X300003Y332099D02*
X300680D01*
X293414Y331199D02*
X299780D01*
X293393Y330299D02*
X298880D01*
X292960Y329399D02*
X297788D01*
X293037Y332099D02*
X297597D01*
X290228Y323099D02*
X297472D01*
X293669Y335699D02*
X297325D01*
X291678Y332999D02*
X296785D01*
X292769Y334799D02*
X296697D01*
X291869Y333899D02*
X296552D01*
X286469Y328499D02*
X296232D01*
X290601Y323999D02*
X296141D01*
X289149Y327599D02*
X295611D01*
X290699Y324899D02*
X295567D01*
X290099Y326699D02*
X295338D01*
X290545Y325799D02*
X295324D01*
X291471Y319499D02*
X293501D01*
X292371Y318599D02*
X292633D01*
X287369Y329399D02*
X289440D01*
X288269Y330299D02*
X289007D01*
X285569Y327599D02*
X285651D01*
X296071Y260099D02*
X296752D01*
X295171Y260999D02*
X296339D01*
X282900Y303299D02*
X296300D01*
X282900Y302399D02*
X296300D01*
X282900Y301499D02*
X296300D01*
X282900Y300599D02*
X296300D01*
X282900Y299699D02*
X296300D01*
X282900Y298799D02*
X296300D01*
X282900Y293399D02*
X296300D01*
X282900Y292499D02*
X296300D01*
X282900Y291599D02*
X296300D01*
X282900Y290699D02*
X296300D01*
X282900Y289799D02*
X296300D01*
X282900Y288899D02*
X296300D01*
X282900Y287999D02*
X296300D01*
X282900Y287099D02*
X296300D01*
X282900Y286199D02*
X296300D01*
X282900Y285299D02*
X296300D01*
X282900Y284399D02*
X296300D01*
X282900Y283499D02*
X296300D01*
X282900Y282599D02*
X296300D01*
X282900Y281699D02*
X296300D01*
X282900Y280799D02*
X296300D01*
X282900Y279899D02*
X296300D01*
X282900Y278999D02*
X296300D01*
X282900Y278099D02*
X296300D01*
X282900Y277199D02*
X296300D01*
X282900Y276299D02*
X296300D01*
X282900Y275399D02*
X296300D01*
X282900Y274499D02*
X296300D01*
X282900Y273599D02*
X296300D01*
X283471Y272699D02*
X296300D01*
X284371Y271799D02*
X296300D01*
X285271Y270899D02*
X296300D01*
X291962Y269999D02*
X296300D01*
X292394Y269099D02*
X296300D01*
X292414Y268199D02*
X296300D01*
X292036Y267299D02*
X296300D01*
X290666Y266399D02*
X296300D01*
X290671Y265499D02*
X296300D01*
X291571Y264599D02*
X296300D01*
X292471Y263699D02*
X296300D01*
X293371Y262799D02*
X296300D01*
X294271Y261899D02*
X296300D01*
X282900Y304199D02*
X296031D01*
X282900Y305099D02*
X295131D01*
X282900Y294299D02*
X294397D01*
X292228Y305999D02*
X294231D01*
X282900Y297899D02*
X294125D01*
X282900Y295199D02*
X293585D01*
X282900Y296999D02*
X293497D01*
X282900Y296099D02*
X293352D01*
X293162Y306899D02*
X293331D01*
X282900Y305999D02*
X290172D01*
X282900Y310499D02*
X289731D01*
X282900Y309599D02*
X289617D01*
X282900Y306899D02*
X289238D01*
X282900Y308699D02*
X289061D01*
X282900Y307799D02*
X288959D01*
X284948Y311399D02*
X288831D01*
X286171Y269999D02*
X288438D01*
X287071Y269099D02*
X288006D01*
X287971Y268199D02*
X287986D01*
X285662Y312299D02*
X287931D01*
X285850Y313199D02*
X287031D01*
X285663Y314099D02*
X286131D01*
X284952Y314999D02*
X285231D01*
X282900Y315899D02*
X284331D01*
X225063Y207899D02*
X230731D01*
X224352Y208799D02*
X229831D01*
X219120Y209699D02*
X228931D01*
X218220Y210599D02*
X228031D01*
X217320Y211499D02*
X227131D01*
X216420Y212399D02*
X226231D01*
X215520Y213299D02*
X225331D01*
X214620Y214199D02*
X224431D01*
X213720Y215099D02*
X223531D01*
X220020Y208799D02*
X221648D01*
X220920Y207899D02*
X220937D01*
X189671Y290699D02*
X190331D01*
X188771Y291599D02*
X189431D01*
X187871Y292499D02*
X188531D01*
X186971Y293399D02*
X187631D01*
X186071Y294299D02*
X186731D01*
X185171Y295199D02*
X186059D01*
X184271Y296099D02*
X185900D01*
X183491Y296999D02*
X185431D01*
X183190Y297899D02*
X184531D01*
X182371Y298799D02*
X183631D01*
X181471Y299699D02*
X182731D01*
X180571Y300599D02*
X181831D01*
X179671Y301499D02*
X180931D01*
X178444Y302399D02*
X180031D01*
X175871Y303299D02*
X179131D01*
X176744Y304199D02*
X178278D01*
X177697Y305099D02*
X177922D01*
X284669Y326699D02*
X284701D01*
X483762Y347399D02*
X491801D01*
X484194Y346499D02*
X491801D01*
X484214Y345599D02*
X491801D01*
X483836Y344699D02*
X491801D01*
X482466Y343799D02*
X491801D01*
X472090Y342899D02*
X491801D01*
X472937Y341999D02*
X491801D01*
X473346Y341099D02*
X491801D01*
X473479Y340199D02*
X491801D01*
X473369Y339299D02*
X491801D01*
X472989Y338399D02*
X491801D01*
X472198Y337499D02*
X491801D01*
X456169Y336599D02*
X491801D01*
X483475Y335699D02*
X491801D01*
X484103Y334799D02*
X491801D01*
X484248Y333899D02*
X491801D01*
X484015Y332999D02*
X491801D01*
X483203Y332099D02*
X491801D01*
X473362Y331199D02*
X491801D01*
X473479Y330299D02*
X491801D01*
X473353Y329399D02*
X491801D01*
X472953Y328499D02*
X491801D01*
X472124Y327599D02*
X491801D01*
X433836Y326699D02*
X491801D01*
X432466Y325799D02*
X491801D01*
X394700Y324899D02*
X491801D01*
X394700Y323999D02*
X491801D01*
X472238Y323099D02*
X491801D01*
X482478Y322199D02*
X491801D01*
X483837Y321299D02*
X491801D01*
X484214Y320399D02*
X491801D01*
X484193Y319499D02*
X491801D01*
X483760Y318599D02*
X491801D01*
X472045Y317699D02*
X491801D01*
X424712Y316799D02*
X491801D01*
X399167Y315899D02*
X491801D01*
X463352Y314999D02*
X491801D01*
X464063Y314099D02*
X491801D01*
X464250Y313199D02*
X491801D01*
X464062Y312299D02*
X491801D01*
X463348Y311399D02*
X491801D01*
X399500Y310499D02*
X491801D01*
X399500Y309599D02*
X491801D01*
X425211Y308699D02*
X491801D01*
X426304Y307799D02*
X491801D01*
X426630Y306899D02*
X491801D01*
X428678Y305999D02*
X491801D01*
X430037Y305099D02*
X491801D01*
X430414Y304199D02*
X491801D01*
X430393Y303299D02*
X491801D01*
X429960Y302399D02*
X491801D01*
X427678Y301499D02*
X491801D01*
X428169Y300599D02*
X491801D01*
X428230Y299699D02*
X491801D01*
X427902Y298799D02*
X491801D01*
X485207Y297899D02*
X491801D01*
X486016Y296999D02*
X491801D01*
X486248Y296099D02*
X491801D01*
X486102Y295199D02*
X491801D01*
X485472Y294299D02*
X491801D01*
X455765Y293399D02*
X491801D01*
X454896Y292499D02*
X491801D01*
X441769Y291599D02*
X491801D01*
X440869Y290699D02*
X491801D01*
X473352Y289799D02*
X491801D01*
X474063Y288899D02*
X491801D01*
X474250Y287999D02*
X491801D01*
X474062Y287099D02*
X491801D01*
X473348Y286199D02*
X491801D01*
X464138Y285299D02*
X491801D01*
X463581Y284399D02*
X491801D01*
X487678Y283499D02*
X491801D01*
X488169Y282599D02*
X491801D01*
X488230Y281699D02*
X491801D01*
X487902Y280799D02*
X491801D01*
X486804Y279899D02*
X491801D01*
X480145Y278999D02*
X491801D01*
X480299Y278099D02*
X491801D01*
X480201Y277199D02*
X491801D01*
X479828Y276299D02*
X491801D01*
X479031Y275399D02*
X491801D01*
X461269Y274499D02*
X491801D01*
X460369Y273599D02*
X491801D01*
X459469Y272699D02*
X491801D01*
X487352Y271799D02*
X491801D01*
X488063Y270899D02*
X491801D01*
X488250Y269999D02*
X491801D01*
X488062Y269099D02*
X491801D01*
X487348Y268199D02*
X491801D01*
X464138Y267299D02*
X491801D01*
X463581Y266399D02*
X491801D01*
X452269Y265499D02*
X491801D01*
X451369Y264599D02*
X491801D01*
X450469Y263699D02*
X491801D01*
X449569Y262799D02*
X491801D01*
X474577Y261899D02*
X491801D01*
X475626Y260999D02*
X491801D01*
X476112Y260099D02*
X491801D01*
X476294Y259199D02*
X491801D01*
X476225Y258299D02*
X491801D01*
X475885Y257399D02*
X491801D01*
X475153Y256499D02*
X491801D01*
X466369Y255599D02*
X491801D01*
X465469Y254699D02*
X491801D01*
X464569Y253799D02*
X491801D01*
X463669Y252899D02*
X491801D01*
X462769Y251999D02*
X491801D01*
X461869Y251099D02*
X491801D01*
X460969Y250199D02*
X491801D01*
X460069Y249299D02*
X491801D01*
X463762Y248399D02*
X491801D01*
X473485Y247499D02*
X491801D01*
X475420Y246599D02*
X491801D01*
X476320Y245699D02*
X491801D01*
X477220Y244799D02*
X491801D01*
X478120Y243899D02*
X491801D01*
X479020Y242999D02*
X491801D01*
X479920Y242099D02*
X491801D01*
X480820Y241199D02*
X491801D01*
X481720Y240299D02*
X491801D01*
X489762Y239399D02*
X491801D01*
X490194Y238499D02*
X491801D01*
X490214Y237599D02*
X491801D01*
X489836Y236699D02*
X491801D01*
X488466Y235799D02*
X491801D01*
X487829Y234899D02*
X491801D01*
X488202Y233999D02*
X491801D01*
X488298Y233099D02*
X491801D01*
X488144Y232199D02*
X491801D01*
X487697Y231299D02*
X491801D01*
X486744Y230399D02*
X491801D01*
X463269Y229499D02*
X491801D01*
X462894Y228599D02*
X491801D01*
X462711Y227699D02*
X491801D01*
X462224Y226799D02*
X491801D01*
X461172Y225899D02*
X491801D01*
X461349Y224999D02*
X491801D01*
X462299Y224099D02*
X491801D01*
X462745Y223199D02*
X491801D01*
X462899Y222299D02*
X491801D01*
X462801Y221399D02*
X491801D01*
X462428Y220499D02*
X491801D01*
X461631Y219599D02*
X491801D01*
X489278Y218699D02*
X491801D01*
X489769Y217799D02*
X491801D01*
X489830Y216899D02*
X491801D01*
X489502Y215999D02*
X491801D01*
X488404Y215099D02*
X491801D01*
X485461Y214199D02*
X491801D01*
X486034Y213299D02*
X491801D01*
X486276Y212399D02*
X491801D01*
X486262Y211499D02*
X491801D01*
X485988Y210599D02*
X491801D01*
X485365Y209699D02*
X491801D01*
X483801Y208799D02*
X491801D01*
X477207Y207899D02*
X491801D01*
X478016Y206999D02*
X491801D01*
X485088Y206099D02*
X491801D01*
X486306Y205199D02*
X491801D01*
X486984Y204299D02*
X491801D01*
X487382Y203399D02*
X491801D01*
X487573Y202499D02*
X491801D01*
X487582Y201599D02*
X491800D01*
X468230Y348299D02*
X491795D01*
X487412Y200699D02*
X491718D01*
X467904Y349199D02*
X491686D01*
X487039Y199799D02*
X491495D01*
X466811Y350099D02*
X491432D01*
X486397Y198899D02*
X491110D01*
X428212Y350999D02*
X491012D01*
X485269Y197999D02*
X490526D01*
X377699Y351899D02*
X490380D01*
X474131Y197099D02*
X489687D01*
X376749Y352799D02*
X489427D01*
X475313Y196199D02*
X488787D01*
X476141Y195299D02*
X487887D01*
X335320Y353699D02*
X487717D01*
X487034Y235799D02*
X487534D01*
X476749Y194399D02*
X486987D01*
X484135Y215099D02*
X486796D01*
X482620Y239399D02*
X486238D01*
X485320Y236699D02*
X486164D01*
X477192Y193499D02*
X486087D01*
X459964Y218699D02*
X485922D01*
X483520Y238499D02*
X485806D01*
X484420Y237599D02*
X485786D01*
X480675Y215999D02*
X485698D01*
X478978Y217799D02*
X485431D01*
X480147Y216899D02*
X485370D01*
X479699Y279899D02*
X485196D01*
X477502Y192599D02*
X485187D01*
X475348Y268199D02*
X484652D01*
X475352Y271799D02*
X484648D01*
X450972Y283499D02*
X484322D01*
X477693Y191699D02*
X484287D01*
X478749Y280799D02*
X484098D01*
X476062Y269099D02*
X483938D01*
X476063Y270899D02*
X483937D01*
X448569Y282599D02*
X483831D01*
X447669Y281699D02*
X483770D01*
X476250Y269999D02*
X483750D01*
X477775Y190799D02*
X483387D01*
X464169Y230399D02*
X483256D01*
X465207Y297899D02*
X482793D01*
X465472Y294299D02*
X482528D01*
X477751Y189899D02*
X482487D01*
X465069Y231299D02*
X482303D01*
X474569Y208799D02*
X482199D01*
X466016Y296999D02*
X481984D01*
X466102Y295199D02*
X481898D01*
X480886Y215099D02*
X481865D01*
X465969Y232199D02*
X481856D01*
X466248Y296099D02*
X481752D01*
X477621Y188999D02*
X481587D01*
X432497Y343799D02*
X481534D01*
X473008Y322199D02*
X481522D01*
X466869Y233099D02*
X481283D01*
X478248Y206099D02*
X480912D01*
X472973Y332099D02*
X480797D01*
X472034Y197999D02*
X480731D01*
X477378Y188099D02*
X480687D01*
X475469Y209699D02*
X480635D01*
X456230Y335699D02*
X480525D01*
X469431Y233999D02*
X480383D01*
X472916Y318599D02*
X480240D01*
X468168Y347399D02*
X480238D01*
X432479Y344699D02*
X480164D01*
X473377Y321299D02*
X480163D01*
X476369Y210599D02*
X480012D01*
X472166Y332999D02*
X479985D01*
X455902Y334799D02*
X479897D01*
X473336Y319499D02*
X479807D01*
X467676Y346499D02*
X479806D01*
X477011Y187199D02*
X479787D01*
X432355Y345599D02*
X479786D01*
X473478Y320399D02*
X479786D01*
X454804Y333899D02*
X479752D01*
X477269Y211499D02*
X479738D01*
X478102Y205199D02*
X479694D01*
X465469Y198899D02*
X479603D01*
X470228Y234899D02*
X479483D01*
X477472Y204299D02*
X479016D01*
X466369Y199799D02*
X478961D01*
X476498Y186299D02*
X478887D01*
X470601Y235799D02*
X478583D01*
X475801Y185399D02*
X477987D01*
X470699Y236699D02*
X477683D01*
X474839Y184499D02*
X477087D01*
X470545Y237599D02*
X476783D01*
X460241Y217799D02*
X476222D01*
X473388Y183599D02*
X476187D01*
X470099Y238499D02*
X475883D01*
X457836Y182699D02*
X475287D01*
X446769Y280799D02*
X475251D01*
X460138Y216899D02*
X475053D01*
X469149Y239399D02*
X474983D01*
X462169Y275399D02*
X474969D01*
X473669Y207899D02*
X474793D01*
X454368Y204299D02*
X474528D01*
X459581Y215999D02*
X474525D01*
X456466Y181799D02*
X474387D01*
X453135Y215099D02*
X474314D01*
X464917Y240299D02*
X474083D01*
X454461Y214199D02*
X474029D01*
X472769Y206999D02*
X473984D01*
X452812Y205199D02*
X473898D01*
X471831Y206099D02*
X473752D01*
X447469Y180899D02*
X473487D01*
X465817Y241199D02*
X473183D01*
X455034Y213299D02*
X473129D01*
X464241Y268199D02*
X472652D01*
X458569Y271799D02*
X472648D01*
X446569Y179999D02*
X472587D01*
X469296Y242099D02*
X472283D01*
X455276Y212399D02*
X472229D01*
X463964Y269099D02*
X471938D01*
X457669Y270899D02*
X471937D01*
X463033Y269999D02*
X471750D01*
X445669Y179099D02*
X471687D01*
X448669Y261899D02*
X471423D01*
X455262Y211499D02*
X471329D01*
X467269Y256499D02*
X470847D01*
X462478Y178199D02*
X470787D01*
X464241Y286199D02*
X470652D01*
X439969Y289799D02*
X470648D01*
X454988Y210599D02*
X470429D01*
X463964Y287099D02*
X469938D01*
X451556Y288899D02*
X469937D01*
X463837Y177299D02*
X469887D01*
X463033Y287999D02*
X469750D01*
X464214Y176399D02*
X468987D01*
X464569Y197999D02*
X468123D01*
X447439Y317699D02*
X468112D01*
X464193Y175499D02*
X468087D01*
X447484Y342899D02*
X468067D01*
X434214Y327599D02*
X468034D01*
X442016Y332999D02*
X467991D01*
X455678Y337499D02*
X467960D01*
X447632Y323099D02*
X467919D01*
X448310Y318599D02*
X467242D01*
X448331Y341999D02*
X467220D01*
X434194Y328499D02*
X467204D01*
X463760Y174599D02*
X467187D01*
X442248Y332099D02*
X467184D01*
X448382Y338399D02*
X467169D01*
X448402Y322199D02*
X467150D01*
X448730Y319499D02*
X466821D01*
X448740Y341099D02*
X466812D01*
X433762Y329399D02*
X466805D01*
X442102Y331199D02*
X466796D01*
X448762Y339299D02*
X466789D01*
X448771Y321299D02*
X466781D01*
X458214Y183599D02*
X466769D01*
X448872Y320399D02*
X466680D01*
X448872Y340199D02*
X466679D01*
X441472Y330299D02*
X466679D01*
X440231Y173699D02*
X466287D01*
X448352Y260999D02*
X466156D01*
X463669Y197099D02*
X466027D01*
X464017Y239399D02*
X465651D01*
X464194Y247499D02*
X465501D01*
X402169Y172799D02*
X465387D01*
X458194Y184499D02*
X465319D01*
X454811Y350099D02*
X465189D01*
X449063Y260099D02*
X464929D01*
X462769Y196199D02*
X464845D01*
X463117Y238499D02*
X464701D01*
X455207Y171899D02*
X464487D01*
X457762Y185399D02*
X464357D01*
X455676Y346499D02*
X464324D01*
X462217Y237599D02*
X464255D01*
X461317Y236699D02*
X464101D01*
X455904Y349199D02*
X464096D01*
X449250Y259199D02*
X464029D01*
X461762Y203399D02*
X464029D01*
X461869Y195299D02*
X464016D01*
X456168Y347399D02*
X463832D01*
X456230Y348299D02*
X463770D01*
X452869Y186299D02*
X463660D01*
X460417Y235799D02*
X463629D01*
X456016Y170999D02*
X463587D01*
X460969Y194399D02*
X463409D01*
X453769Y187199D02*
X463147D01*
X449062Y258299D02*
X463129D01*
X462194Y202499D02*
X463129D01*
X460069Y193499D02*
X462965D01*
X454899Y297899D02*
X462793D01*
X454669Y188099D02*
X462780D01*
X459517Y234899D02*
X462729D01*
X456248Y170099D02*
X462687D01*
X459169Y192599D02*
X462656D01*
X455569Y188999D02*
X462537D01*
X456175Y294299D02*
X462528D01*
X458269Y191699D02*
X462465D01*
X456469Y189899D02*
X462406D01*
X457369Y190799D02*
X462383D01*
X448348Y257399D02*
X462229D01*
X462214Y201599D02*
X462229D01*
X455767Y296999D02*
X461984D01*
X456300Y295199D02*
X461898D01*
X458617Y233999D02*
X461829D01*
X456102Y169199D02*
X461787D01*
X456175Y296099D02*
X461752D01*
X455569Y244799D02*
X461534D01*
X444769Y178199D02*
X461522D01*
X443269Y256499D02*
X461329D01*
X452287Y287999D02*
X460967D01*
X456769Y269999D02*
X460967D01*
X457717Y233099D02*
X460929D01*
X451207Y279899D02*
X460903D01*
X455472Y168299D02*
X460887D01*
X454669Y243899D02*
X460880D01*
X399500Y311399D02*
X460652D01*
X399470Y314999D02*
X460648D01*
X442369Y255599D02*
X460429D01*
X452024Y284399D02*
X460419D01*
X453169Y266399D02*
X460419D01*
X441169Y174599D02*
X460240D01*
X459169Y248399D02*
X460238D01*
X456469Y245699D02*
X460164D01*
X443869Y177299D02*
X460163D01*
X452625Y287099D02*
X460036D01*
X455869Y269099D02*
X460036D01*
X457144Y232199D02*
X460029D01*
X424294Y167399D02*
X459987D01*
X453769Y242999D02*
X459980D01*
X399500Y312299D02*
X459938D01*
X399500Y314099D02*
X459937D01*
X452511Y285299D02*
X459862D01*
X454069Y267299D02*
X459862D01*
X452016Y278999D02*
X459829D01*
X442069Y175499D02*
X459807D01*
X458269Y247499D02*
X459806D01*
X457369Y246599D02*
X459786D01*
X442969Y176399D02*
X459786D01*
X452694Y286199D02*
X459759D01*
X454969Y268199D02*
X459759D01*
X399500Y313199D02*
X459750D01*
X454459Y199799D02*
X459534D01*
X441469Y254699D02*
X459529D01*
X453128Y198899D02*
X459529D01*
X424225Y166499D02*
X459087D01*
X454811Y242099D02*
X459080D01*
X452248Y278099D02*
X458929D01*
X440569Y253799D02*
X458629D01*
X434909Y197999D02*
X458629D01*
X454989Y203399D02*
X458238D01*
X423885Y165599D02*
X458187D01*
X455904Y241199D02*
X458180D01*
X455033Y200699D02*
X458164D01*
X452102Y277199D02*
X458029D01*
X425139Y225899D02*
X458028D01*
X425241Y224999D02*
X457851D01*
X455262Y202499D02*
X457806D01*
X455276Y201599D02*
X457786D01*
X439669Y252899D02*
X457729D01*
X435254Y197099D02*
X457729D01*
X456697Y231299D02*
X457444D01*
X423153Y164699D02*
X457287D01*
X456230Y240299D02*
X457280D01*
X451472Y276299D02*
X457129D01*
X424583Y226799D02*
X456976D01*
X443769Y219599D02*
X456967D01*
X438769Y251999D02*
X456829D01*
X435300Y196199D02*
X456829D01*
X455744Y230399D02*
X456713D01*
X452317Y227699D02*
X456489D01*
X450045Y215999D02*
X456419D01*
X421789Y163799D02*
X456387D01*
X456168Y239399D02*
X456380D01*
X454117Y229499D02*
X456375D01*
X453217Y228599D02*
X456306D01*
X441369Y275399D02*
X456229D01*
X446894Y218699D02*
X456036D01*
X437869Y251099D02*
X455929D01*
X435300Y195299D02*
X455929D01*
X449740Y216899D02*
X455862D01*
X449066Y217799D02*
X455759D01*
X448369Y181799D02*
X455534D01*
X422062Y162899D02*
X455487D01*
X440469Y274499D02*
X455329D01*
X436969Y250199D02*
X455029D01*
X435300Y194399D02*
X455029D01*
X422076Y161999D02*
X454587D01*
X448369Y237599D02*
X454580D01*
X439569Y273599D02*
X454429D01*
X451969Y185399D02*
X454238D01*
X449269Y182699D02*
X454164D01*
X436069Y249299D02*
X454129D01*
X444011Y193499D02*
X454129D01*
X451069Y184499D02*
X453806D01*
X450169Y183599D02*
X453786D01*
X424356Y161099D02*
X453687D01*
X447469Y236699D02*
X453680D01*
X438669Y272699D02*
X453529D01*
X435169Y248399D02*
X453229D01*
X445104Y192599D02*
X453229D01*
X441207Y333899D02*
X453196D01*
X442811Y350099D02*
X453189D01*
X452869Y242099D02*
X453189D01*
X443475Y171899D02*
X452793D01*
X425087Y160199D02*
X452787D01*
X437769Y271799D02*
X452629D01*
X443203Y168299D02*
X452528D01*
X434269Y247499D02*
X452329D01*
X445430Y191699D02*
X452329D01*
X443676Y346499D02*
X452324D01*
X449269Y238499D02*
X452324D01*
X447592Y337499D02*
X452322D01*
X413962Y334799D02*
X452098D01*
X443904Y349199D02*
X452096D01*
X451969Y241199D02*
X452096D01*
X444103Y170999D02*
X451984D01*
X446569Y235799D02*
X451966D01*
X444015Y169199D02*
X451898D01*
X425425Y159299D02*
X451887D01*
X444168Y347399D02*
X451832D01*
X450169Y239399D02*
X451832D01*
X426565Y336599D02*
X451831D01*
X394700Y335699D02*
X451770D01*
X444230Y348299D02*
X451770D01*
X451069Y240299D02*
X451770D01*
X444248Y170099D02*
X451752D01*
X436869Y270899D02*
X451729D01*
X444140Y246599D02*
X451429D01*
X445368Y190799D02*
X451429D01*
X441762Y205199D02*
X451188D01*
X445669Y234899D02*
X451171D01*
X442669Y292499D02*
X451104D01*
X426804Y297899D02*
X451101D01*
X434162Y158399D02*
X450987D01*
X434120Y198899D02*
X450872D01*
X450086Y215099D02*
X450865D01*
X445033Y269999D02*
X450829D01*
X444769Y233999D02*
X450798D01*
X445171Y245699D02*
X450529D01*
X444876Y189899D02*
X450529D01*
X445678Y157499D02*
X450087D01*
X443869Y233099D02*
X450080D01*
X445964Y269099D02*
X449929D01*
X442194Y204299D02*
X449632D01*
X445653Y244799D02*
X449629D01*
X435300Y188999D02*
X449629D01*
X433220Y199799D02*
X449541D01*
X446169Y156599D02*
X449187D01*
X446241Y268199D02*
X449029D01*
X442214Y203399D02*
X449011D01*
X432320Y200699D02*
X448967D01*
X445869Y279899D02*
X448793D01*
X441836Y202499D02*
X448738D01*
X445834Y243899D02*
X448729D01*
X435300Y188099D02*
X448729D01*
X440466Y201599D02*
X448724D01*
X442269Y276299D02*
X448528D01*
X446230Y155699D02*
X448287D01*
X446138Y267299D02*
X448129D01*
X444969Y278999D02*
X447984D01*
X443169Y277199D02*
X447898D01*
X445765Y242999D02*
X447829D01*
X435300Y187199D02*
X447829D01*
X444069Y278099D02*
X447752D01*
X445902Y154799D02*
X447387D01*
X439069Y288899D02*
X447244D01*
X445581Y266399D02*
X447229D01*
X445428Y242099D02*
X446929D01*
X435300Y186299D02*
X446929D01*
X442869Y218699D02*
X446706D01*
X438169Y287999D02*
X446513D01*
X444804Y153899D02*
X446487D01*
X433500Y265499D02*
X446329D01*
X437269Y287099D02*
X446175D01*
X436369Y286199D02*
X446106D01*
X444702Y241199D02*
X446029D01*
X435300Y185399D02*
X446029D01*
X444169Y257399D02*
X445652D01*
X418160Y152999D02*
X445587D01*
X433500Y264599D02*
X445429D01*
X435469Y285299D02*
X445329D01*
X427069Y240299D02*
X445129D01*
X435300Y184499D02*
X445129D01*
X402469Y152099D02*
X444687D01*
X441969Y217799D02*
X444534D01*
X433500Y263699D02*
X444529D01*
X434569Y284399D02*
X444429D01*
X435762Y239399D02*
X444229D01*
X435300Y183599D02*
X444229D01*
X408033Y151199D02*
X443787D01*
X426920Y206099D02*
X443769D01*
X433500Y262799D02*
X443629D01*
X433669Y283499D02*
X443529D01*
X425448Y317699D02*
X443506D01*
X432410Y342899D02*
X443461D01*
X428776Y337499D02*
X443353D01*
X436194Y238499D02*
X443329D01*
X435300Y182699D02*
X443329D01*
X394700Y323099D02*
X443313D01*
X418593Y153899D02*
X443196D01*
X435969Y269999D02*
X442967D01*
X408964Y150299D02*
X442887D01*
X426020Y206999D02*
X442831D01*
X433500Y261899D02*
X442729D01*
X433760Y318599D02*
X442635D01*
X432769Y282599D02*
X442629D01*
X432212Y341999D02*
X442614D01*
X429985Y338399D02*
X442563D01*
X432478Y322199D02*
X442543D01*
X429335Y224099D02*
X442503D01*
X436214Y237599D02*
X442429D01*
X435300Y181799D02*
X442429D01*
X433500Y266399D02*
X442419D01*
X435300Y193499D02*
X442389D01*
X434594Y157499D02*
X442322D01*
X434193Y319499D02*
X442215D01*
X431896Y341099D02*
X442205D01*
X430827Y339299D02*
X442183D01*
X433837Y321299D02*
X442174D01*
X432866Y154799D02*
X442098D01*
X434214Y320399D02*
X442073D01*
X431445Y340199D02*
X442073D01*
X435069Y269099D02*
X442036D01*
X409241Y149399D02*
X441987D01*
X424823Y207899D02*
X441931D01*
X433500Y267299D02*
X441862D01*
X434614Y156599D02*
X441831D01*
X438583Y260999D02*
X441829D01*
X434236Y155699D02*
X441770D01*
X434169Y268199D02*
X441759D01*
X431869Y281699D02*
X441729D01*
X435836Y236699D02*
X441529D01*
X435300Y180899D02*
X441529D01*
X435300Y189899D02*
X441524D01*
X430661Y223199D02*
X441429D01*
X410015Y296999D02*
X441316D01*
X435300Y192599D02*
X441296D01*
X429624Y350099D02*
X441189D01*
X409138Y148499D02*
X441087D01*
X435300Y190799D02*
X441032D01*
X405769Y208799D02*
X441031D01*
X435300Y191699D02*
X440970D01*
X439139Y260099D02*
X440929D01*
X433369Y246599D02*
X440899D01*
X430969Y280799D02*
X440829D01*
X424112Y168299D02*
X440797D01*
X435466Y235799D02*
X440629D01*
X435178Y179999D02*
X440629D01*
X431234Y222299D02*
X440529D01*
X401269Y171899D02*
X440525D01*
X427969Y241199D02*
X440337D01*
X431156Y296099D02*
X440329D01*
X432118Y346499D02*
X440324D01*
X408581Y147599D02*
X440187D01*
X406669Y209699D02*
X440131D01*
X430568Y349199D02*
X440096D01*
X439241Y259199D02*
X440029D01*
X423626Y169199D02*
X439985D01*
X433207Y279899D02*
X439929D01*
X409583Y170999D02*
X439897D01*
X432469Y245699D02*
X439868D01*
X431758Y347399D02*
X439832D01*
X431254Y348299D02*
X439770D01*
X422577Y170099D02*
X439752D01*
X434697Y179099D02*
X439729D01*
X431476Y221399D02*
X439629D01*
X428869Y242099D02*
X439612D01*
X431420Y201599D02*
X439534D01*
X431887Y295199D02*
X439429D01*
X431569Y244799D02*
X439386D01*
X386469Y146699D02*
X439287D01*
X429769Y242999D02*
X439275D01*
X407569Y210599D02*
X439231D01*
X430669Y243899D02*
X439205D01*
X438962Y258299D02*
X439129D01*
X434016Y278999D02*
X439029D01*
X433817Y178199D02*
X438829D01*
X414394Y333899D02*
X438793D01*
X431462Y220499D02*
X438729D01*
X432225Y294299D02*
X438529D01*
X394700Y330299D02*
X438528D01*
X385569Y145799D02*
X438387D01*
X408469Y211499D02*
X438331D01*
X427820Y205199D02*
X438238D01*
X438028Y257399D02*
X438229D01*
X430520Y202499D02*
X438164D01*
X434248Y278099D02*
X438129D01*
X414414Y332999D02*
X437984D01*
X412666Y331199D02*
X437898D01*
X431188Y219599D02*
X437829D01*
X428720Y204299D02*
X437806D01*
X429620Y203399D02*
X437786D01*
X414036Y332099D02*
X437752D01*
X432294Y293399D02*
X437629D01*
X384669Y144899D02*
X437487D01*
X433500Y256499D02*
X437329D01*
X434102Y277199D02*
X437229D01*
X432111Y292499D02*
X436729D01*
X384294Y143999D02*
X436587D01*
X433500Y255599D02*
X436429D01*
X433472Y276299D02*
X436329D01*
X433500Y257399D02*
X435972D01*
X431624Y291599D02*
X435829D01*
X384111Y143099D02*
X435687D01*
X433500Y254699D02*
X435529D01*
X425569Y275399D02*
X435429D01*
X433500Y260999D02*
X435417D01*
X433500Y258299D02*
X435038D01*
X431100Y290699D02*
X434929D01*
X433500Y260099D02*
X434861D01*
X430478Y142199D02*
X434787D01*
X433500Y259199D02*
X434759D01*
X433500Y253799D02*
X434629D01*
X424669Y274499D02*
X434529D01*
X431100Y289799D02*
X434029D01*
X431837Y141299D02*
X433887D01*
X433379Y252899D02*
X433729D01*
X423769Y273599D02*
X433629D01*
X431078Y288899D02*
X433129D01*
X432214Y140399D02*
X432987D01*
X432769Y251999D02*
X432829D01*
X422869Y272699D02*
X432729D01*
X426169Y239399D02*
X432238D01*
X430722Y287999D02*
X432229D01*
X423469Y236699D02*
X432164D01*
X418614Y154799D02*
X431934D01*
X431869Y251099D02*
X431929D01*
X425352Y271799D02*
X431829D01*
X425269Y238499D02*
X431806D01*
X424369Y237599D02*
X431786D01*
X394700Y325799D02*
X431534D01*
X394700Y322199D02*
X431522D01*
X429869Y287099D02*
X431329D01*
X430969Y250199D02*
X431029D01*
X427562Y235799D02*
X430934D01*
X426063Y270899D02*
X430929D01*
X430069Y279899D02*
X430793D01*
X425494Y158399D02*
X430638D01*
X423772Y155699D02*
X430564D01*
X426469Y276299D02*
X430528D01*
X428969Y286199D02*
X430429D01*
X371475Y137699D02*
X430287D01*
X427994Y234899D02*
X430260D01*
X425736Y318599D02*
X430240D01*
X394700Y329399D02*
X430238D01*
X425311Y157499D02*
X430206D01*
X424824Y156599D02*
X430186D01*
X394700Y326699D02*
X430164D01*
X424584Y321299D02*
X430163D01*
X430069Y249299D02*
X430129D01*
X426250Y269999D02*
X430029D01*
X429169Y278999D02*
X429984D01*
X428014Y233999D02*
X429955D01*
X427636Y233099D02*
X429914D01*
X427369Y277199D02*
X429898D01*
X425721Y319499D02*
X429807D01*
X394700Y328499D02*
X429806D01*
X394700Y327599D02*
X429786D01*
X425395Y320399D02*
X429786D01*
X428269Y278099D02*
X429752D01*
X428069Y285299D02*
X429529D01*
X387278Y142199D02*
X429522D01*
X426062Y269099D02*
X429420D01*
X372103Y136799D02*
X429387D01*
X425348Y268199D02*
X429300D01*
X417469Y267299D02*
X429300D01*
X416569Y266399D02*
X429300D01*
X415669Y265499D02*
X429300D01*
X414769Y264599D02*
X429300D01*
X425475Y263699D02*
X429300D01*
X426103Y262799D02*
X429300D01*
X426248Y261899D02*
X429300D01*
X426015Y260999D02*
X429300D01*
X425203Y260099D02*
X429300D01*
X409369Y259199D02*
X429300D01*
X408469Y258299D02*
X429300D01*
X407569Y257399D02*
X429300D01*
X406669Y256499D02*
X429300D01*
X405769Y255599D02*
X429300D01*
X428156Y254699D02*
X429300D01*
X429169Y248399D02*
X429229D01*
X427294Y284399D02*
X428629D01*
X372248Y135899D02*
X428487D01*
X428269Y247499D02*
X428329D01*
X388560Y138599D02*
X428240D01*
X388637Y141299D02*
X428163D01*
X388993Y139499D02*
X427807D01*
X389014Y140399D02*
X427786D01*
X427225Y283499D02*
X427729D01*
X426568Y305999D02*
X427722D01*
X372015Y134999D02*
X427587D01*
X427369Y246599D02*
X427429D01*
X424962Y224099D02*
X427065D01*
X424629Y290699D02*
X426900D01*
X409203Y296099D02*
X426844D01*
X371203Y134099D02*
X426687D01*
X425002Y289799D02*
X426629D01*
X426469Y245699D02*
X426529D01*
X399500Y302399D02*
X426440D01*
X423834Y291599D02*
X426376D01*
X426076Y305099D02*
X426363D01*
X403214Y295199D02*
X426113D01*
X399500Y303299D02*
X426007D01*
X399500Y304199D02*
X425986D01*
X399500Y292499D02*
X425889D01*
X362569Y133199D02*
X425787D01*
X403193Y294299D02*
X425775D01*
X424028Y223199D02*
X425739D01*
X425098Y288899D02*
X425729D01*
X402760Y293399D02*
X425706D01*
X425569Y244799D02*
X425629D01*
X410248Y297899D02*
X425196D01*
X361669Y132299D02*
X424887D01*
X424669Y243899D02*
X424729D01*
X399500Y301499D02*
X424322D01*
X410103Y298799D02*
X424098D01*
X422569Y235799D02*
X424038D01*
X360769Y131399D02*
X423987D01*
X403520Y233099D02*
X423964D01*
X404869Y254699D02*
X423844D01*
X399500Y300599D02*
X423831D01*
X423769Y242999D02*
X423829D01*
X409475Y299699D02*
X423770D01*
X407145Y234899D02*
X423606D01*
X399500Y308699D02*
X423589D01*
X405972Y233999D02*
X423586D01*
X359869Y130499D02*
X423087D01*
X394700Y336599D02*
X423042D01*
X422869Y242099D02*
X422929D01*
X410269Y260099D02*
X422797D01*
X399500Y305099D02*
X422724D01*
X418369Y268199D02*
X422652D01*
X421969Y271799D02*
X422648D01*
X413869Y263699D02*
X422525D01*
X399500Y307799D02*
X422496D01*
X399500Y305999D02*
X422232D01*
X358636Y129599D02*
X422187D01*
X399500Y306899D02*
X422170D01*
X421969Y241199D02*
X422029D01*
X411169Y260999D02*
X421985D01*
X419269Y269099D02*
X421938D01*
X421069Y270899D02*
X421937D01*
X412969Y262799D02*
X421897D01*
X412069Y261899D02*
X421752D01*
X420169Y269999D02*
X421750D01*
X378145Y350999D02*
X421394D01*
X416710Y321299D02*
X421290D01*
X350237Y128699D02*
X421287D01*
X416838Y316799D02*
X421162D01*
X421069Y240299D02*
X421129D01*
X394654Y337499D02*
X420830D01*
X418237Y155699D02*
X420628D01*
X417521Y320399D02*
X420479D01*
X417574Y317699D02*
X420426D01*
X350614Y127799D02*
X420387D01*
X420169Y239399D02*
X420229D01*
X417847Y319499D02*
X420153D01*
X417862Y318599D02*
X420138D01*
X378299Y350099D02*
X419982D01*
X409583Y291599D02*
X419766D01*
X395748Y338399D02*
X419622D01*
X350593Y126899D02*
X419487D01*
X410139Y170099D02*
X419423D01*
X378201Y349199D02*
X419038D01*
X410139Y290699D02*
X418971D01*
X396462Y339299D02*
X418779D01*
X410241Y289799D02*
X418598D01*
X405033Y125999D02*
X418587D01*
X409962Y288899D02*
X418502D01*
X377828Y348299D02*
X418352D01*
X396650Y340199D02*
X418161D01*
X377031Y347399D02*
X417848D01*
X409028Y287999D02*
X417829D01*
X396463Y341099D02*
X417710D01*
X405964Y125099D02*
X417687D01*
X311066Y346499D02*
X417488D01*
X395752Y341999D02*
X417394D01*
X311293Y345599D02*
X417251D01*
X390699Y342899D02*
X417197D01*
X311300Y344699D02*
X417127D01*
X311300Y343799D02*
X417109D01*
X403964Y287099D02*
X416929D01*
X406241Y124199D02*
X416787D01*
X404241Y286199D02*
X416029D01*
X406138Y123299D02*
X415887D01*
X404138Y285299D02*
X415129D01*
X405581Y122399D02*
X414987D01*
X403369Y152999D02*
X414640D01*
X406069Y155699D02*
X414563D01*
X403581Y284399D02*
X414229D01*
X404269Y153899D02*
X414207D01*
X405169Y154799D02*
X414186D01*
X357562Y121499D02*
X414087D01*
X394653Y321299D02*
X413416D01*
X399500Y283499D02*
X413329D01*
X398420Y316799D02*
X413288D01*
X356628Y120599D02*
X413187D01*
X394820Y320399D02*
X412605D01*
X397520Y317699D02*
X412552D01*
X399500Y282599D02*
X412429D01*
X251539Y119699D02*
X412287D01*
X395720Y319499D02*
X412279D01*
X396620Y318599D02*
X412264D01*
X394700Y331199D02*
X411734D01*
X409475Y281699D02*
X411529D01*
X394573Y118799D02*
X411387D01*
X410103Y280799D02*
X410629D01*
X396054Y117899D02*
X410487D01*
X394700Y334799D02*
X410438D01*
X394700Y332099D02*
X410364D01*
X394700Y333899D02*
X410006D01*
X394700Y332999D02*
X409986D01*
X397029Y116999D02*
X409587D01*
X397734Y116099D02*
X408687D01*
X398253Y115199D02*
X407787D01*
X399500Y277199D02*
X407029D01*
X403033Y287999D02*
X406972D01*
X396769Y167399D02*
X406972D01*
X398626Y114299D02*
X406887D01*
X402837Y296099D02*
X406797D01*
X399500Y278099D02*
X406797D01*
X399500Y299699D02*
X406525D01*
X399500Y281699D02*
X406525D01*
X399500Y291599D02*
X406417D01*
X400369Y170999D02*
X406417D01*
X399500Y276299D02*
X406129D01*
X395869Y166499D02*
X406129D01*
X399500Y288899D02*
X406038D01*
X397669Y168299D02*
X406038D01*
X398873Y113399D02*
X405987D01*
X401478Y296999D02*
X405985D01*
X399500Y278999D02*
X405985D01*
X401569Y151199D02*
X405967D01*
X399500Y298799D02*
X405897D01*
X399500Y280799D02*
X405897D01*
X399500Y290699D02*
X405861D01*
X399469Y170099D02*
X405861D01*
X399500Y289799D02*
X405759D01*
X398569Y169199D02*
X405759D01*
X399500Y297899D02*
X405752D01*
X399500Y279899D02*
X405752D01*
X387369Y147599D02*
X405419D01*
X399500Y275399D02*
X405229D01*
X394969Y165599D02*
X405229D01*
X399008Y112499D02*
X405087D01*
X400668Y150299D02*
X405036D01*
X388269Y148499D02*
X404862D01*
X403969Y253799D02*
X404838D01*
X389169Y149399D02*
X404759D01*
X399500Y274499D02*
X404329D01*
X394069Y164699D02*
X404329D01*
X399036Y111599D02*
X404187D01*
X403068Y252899D02*
X403929D01*
X399500Y273599D02*
X403429D01*
X393169Y163799D02*
X403429D01*
X398958Y110699D02*
X403287D01*
X402620Y233999D02*
X403228D01*
X393864Y251999D02*
X403029D01*
X363033Y125999D02*
X402967D01*
X399498Y272699D02*
X402529D01*
X392269Y162899D02*
X402529D01*
X363581Y122399D02*
X402419D01*
X398771Y109799D02*
X402387D01*
X385300Y251099D02*
X402129D01*
X401720Y234899D02*
X402055D01*
X363964Y125099D02*
X402036D01*
X364138Y123299D02*
X401862D01*
X364241Y124199D02*
X401759D01*
X399307Y271799D02*
X401629D01*
X391369Y161999D02*
X401629D01*
X400820Y235799D02*
X401526D01*
X398467Y108899D02*
X401487D01*
X399920Y236699D02*
X401314D01*
X385300Y250199D02*
X401229D01*
X399500Y287999D02*
X400967D01*
X398717Y270899D02*
X400729D01*
X390469Y161099D02*
X400729D01*
X398029Y107999D02*
X400587D01*
X399500Y296999D02*
X400522D01*
X399500Y284399D02*
X400419D01*
X385300Y249299D02*
X400329D01*
X399500Y287099D02*
X400036D01*
X399500Y285299D02*
X399862D01*
X397817Y269999D02*
X399829D01*
X389569Y160199D02*
X399829D01*
X399500Y286199D02*
X399759D01*
X397428Y107099D02*
X399687D01*
X385300Y248399D02*
X399429D01*
X396917Y269099D02*
X398929D01*
X395977Y159299D02*
X398929D01*
X396610Y106199D02*
X398787D01*
X385300Y247499D02*
X398529D01*
X396017Y268199D02*
X398029D01*
X395447Y105299D02*
X397887D01*
X385300Y246599D02*
X397629D01*
X395117Y267299D02*
X397129D01*
X393424Y104399D02*
X396987D01*
X385300Y245699D02*
X396729D01*
X394217Y266399D02*
X396229D01*
X364193Y103499D02*
X396082D01*
X393317Y265499D02*
X395329D01*
X363760Y102599D02*
X394818D01*
X385300Y244799D02*
X394788D01*
X392417Y264599D02*
X394429D01*
X391517Y263699D02*
X393529D01*
X385720Y243899D02*
X393232D01*
X391567Y341999D02*
X393048D01*
X388669Y159299D02*
X392823D01*
X390617Y262799D02*
X392629D01*
X386620Y242999D02*
X392611D01*
X389320Y240299D02*
X392567D01*
X387520Y242099D02*
X392338D01*
X391975Y341099D02*
X392337D01*
X388420Y241199D02*
X392324D01*
X387769Y158399D02*
X391774D01*
X389717Y261899D02*
X391729D01*
X386869Y157499D02*
X391288D01*
X385969Y156599D02*
X391106D01*
X388817Y260999D02*
X390829D01*
X388535Y260099D02*
X389929D01*
X385300Y251999D02*
X389336D01*
X356939Y335699D02*
X389300D01*
X357041Y334799D02*
X389300D01*
X356762Y333899D02*
X389300D01*
X355828Y332999D02*
X389300D01*
X388811Y332099D02*
X389300D01*
X364214Y104399D02*
X389253D01*
X385300Y252899D02*
X388661D01*
X356383Y336599D02*
X388583D01*
X388201Y253799D02*
X388355D01*
X251641Y118799D02*
X388104D01*
X363837Y105299D02*
X387230D01*
X382811Y332099D02*
X387189D01*
X348830Y337499D02*
X386904D01*
X316207Y342899D02*
X386901D01*
X377678Y117899D02*
X386624D01*
X385300Y253799D02*
X386599D01*
X383624Y142199D02*
X386322D01*
X383904Y331199D02*
X386096D01*
X362478Y106199D02*
X386067D01*
X369481Y338399D02*
X386035D01*
X368933Y341999D02*
X386033D01*
X384168Y329399D02*
X385832D01*
X384230Y330299D02*
X385770D01*
X378169Y116999D02*
X385648D01*
X370038Y339299D02*
X385625D01*
X369864Y341099D02*
X385625D01*
X385069Y155699D02*
X385525D01*
X370141Y340199D02*
X385500D01*
X257964Y107099D02*
X385249D01*
X367969Y138599D02*
X385040D01*
X382572Y141299D02*
X384963D01*
X378230Y116099D02*
X384943D01*
X257033Y107999D02*
X384649D01*
X368869Y139499D02*
X384607D01*
X376944Y140399D02*
X384586D01*
X377902Y115199D02*
X384424D01*
X370128Y108899D02*
X384211D01*
X376804Y114299D02*
X384051D01*
X371459Y109799D02*
X383906D01*
X371989Y113399D02*
X383804D01*
X372033Y110699D02*
X383719D01*
X372262Y112499D02*
X383669D01*
X372276Y111599D02*
X383641D01*
X348620Y327599D02*
X382831D01*
X349520Y326699D02*
X382770D01*
X349048Y332099D02*
X381189D01*
X350420Y325799D02*
X380648D01*
X347720Y328499D02*
X380324D01*
X348902Y331199D02*
X380096D01*
X351320Y324899D02*
X379937D01*
X346820Y329399D02*
X379832D01*
X348272Y330299D02*
X379770D01*
X352220Y323999D02*
X379750D01*
X377897Y141299D02*
X379428D01*
X378344Y142199D02*
X378376D01*
X371368Y114299D02*
X375196D01*
X251362Y117899D02*
X374322D01*
X369812Y115199D02*
X374098D01*
X250428Y116999D02*
X373831D01*
X260475Y116099D02*
X373770D01*
X369769Y140399D02*
X373456D01*
X366749Y352799D02*
X373251D01*
X367031Y347399D02*
X372969D01*
X370669Y141299D02*
X372503D01*
X367699Y351899D02*
X372301D01*
X367828Y348299D02*
X372172D01*
X371569Y142199D02*
X372056D01*
X368145Y350999D02*
X371855D01*
X368201Y349199D02*
X371799D01*
X368299Y350099D02*
X371701D01*
X363469Y134099D02*
X368797D01*
X367069Y137699D02*
X368525D01*
X359812Y115199D02*
X368188D01*
X364369Y134999D02*
X367985D01*
X366169Y136799D02*
X367897D01*
X360128Y108899D02*
X367872D01*
X365269Y135899D02*
X367752D01*
X335703Y341999D02*
X366867D01*
X361368Y114299D02*
X366632D01*
X361459Y109799D02*
X366541D01*
X348504Y338399D02*
X366319D01*
X361989Y113399D02*
X366011D01*
X362033Y110699D02*
X365967D01*
X337111Y341099D02*
X365936D01*
X347411Y339299D02*
X365762D01*
X362262Y112499D02*
X365738D01*
X362276Y111599D02*
X365724D01*
X338011Y340199D02*
X365659D01*
X356749Y352799D02*
X363251D01*
X357031Y347399D02*
X362969D01*
X357699Y351899D02*
X362301D01*
X357828Y348299D02*
X362172D01*
X358145Y350999D02*
X361855D01*
X358201Y349199D02*
X361799D01*
X358299Y350099D02*
X361701D01*
X344478Y106199D02*
X361522D01*
X350160Y125999D02*
X360967D01*
X357841Y122399D02*
X360419D01*
X345760Y102599D02*
X360240D01*
X345837Y105299D02*
X360163D01*
X203236Y125099D02*
X360036D01*
X357739Y123299D02*
X359862D01*
X346193Y103499D02*
X359807D01*
X346214Y104399D02*
X359786D01*
X357183Y124199D02*
X359759D01*
X349812Y115199D02*
X358188D01*
X350128Y108899D02*
X357872D01*
X351368Y114299D02*
X356632D01*
X351459Y109799D02*
X356541D01*
X351989Y113399D02*
X356011D01*
X352033Y110699D02*
X355967D01*
X352262Y112499D02*
X355738D01*
X352276Y111599D02*
X355724D01*
X250983Y120599D02*
X354572D01*
X218478Y124199D02*
X354017D01*
X348816Y332999D02*
X353772D01*
X220193Y121499D02*
X353638D01*
X219837Y123299D02*
X353461D01*
X220214Y122399D02*
X353359D01*
X346749Y352799D02*
X353251D01*
X348768Y336599D02*
X353217D01*
X347031Y347399D02*
X352969D01*
X348007Y333899D02*
X352838D01*
X348276Y335699D02*
X352661D01*
X343411Y334799D02*
X352559D01*
X347699Y351899D02*
X352301D01*
X347828Y348299D02*
X352172D01*
X348145Y350999D02*
X351855D01*
X348201Y349199D02*
X351799D01*
X348299Y350099D02*
X351701D01*
X339812Y115199D02*
X348188D01*
X340128Y108899D02*
X347872D01*
X219028Y125999D02*
X346640D01*
X341368Y114299D02*
X346632D01*
X292762Y128699D02*
X346563D01*
X341459Y109799D02*
X346541D01*
X219962Y126899D02*
X346207D01*
X291828Y127799D02*
X346186D01*
X340552Y172799D02*
X346100D01*
X341263Y171899D02*
X346100D01*
X341450Y170999D02*
X346100D01*
X345804Y166499D02*
X346100D01*
X341989Y113399D02*
X346011D01*
X342033Y110699D02*
X345967D01*
X336964Y173699D02*
X345883D01*
X338911Y339299D02*
X345789D01*
X326171Y165599D02*
X345780D01*
X342262Y112499D02*
X345738D01*
X342276Y111599D02*
X345724D01*
X344311Y333899D02*
X345593D01*
X336033Y174599D02*
X344983D01*
X342511Y335699D02*
X344924D01*
X327071Y164699D02*
X344880D01*
X339811Y338399D02*
X344696D01*
X341611Y336599D02*
X344432D01*
X340711Y337499D02*
X344370D01*
X325271Y166499D02*
X344196D01*
X322436Y175499D02*
X344083D01*
X327971Y163799D02*
X343980D01*
X324478Y106199D02*
X343522D01*
X341262Y170099D02*
X343322D01*
X337034Y352799D02*
X343251D01*
X335948Y176399D02*
X343183D01*
X324371Y167399D02*
X343098D01*
X328871Y162899D02*
X343080D01*
X336744Y347399D02*
X342969D01*
X340548Y169199D02*
X342831D01*
X323471Y168299D02*
X342770D01*
X337829Y351899D02*
X342301D01*
X336662Y177299D02*
X342283D01*
X325760Y102599D02*
X342240D01*
X329771Y161999D02*
X342180D01*
X337697Y348299D02*
X342172D01*
X325837Y105299D02*
X342163D01*
X338202Y350999D02*
X341855D01*
X326193Y103499D02*
X341807D01*
X338144Y349199D02*
X341799D01*
X326214Y104399D02*
X341786D01*
X338298Y350099D02*
X341701D01*
X336850Y178199D02*
X341383D01*
X337875Y161099D02*
X341280D01*
X336663Y179099D02*
X340483D01*
X338503Y160199D02*
X340380D01*
X335952Y179999D02*
X339583D01*
X338648Y159299D02*
X338823D01*
X329962Y180899D02*
X338683D01*
X329812Y115199D02*
X338188D01*
X330128Y108899D02*
X337872D01*
X332548Y169199D02*
X337852D01*
X337241Y172799D02*
X337848D01*
X334466Y181799D02*
X337783D01*
X333262Y170099D02*
X337138D01*
X336581Y170999D02*
X336950D01*
X335836Y182699D02*
X336883D01*
X331368Y114299D02*
X336632D01*
X331459Y109799D02*
X336541D01*
X331989Y113399D02*
X336011D01*
X332033Y110699D02*
X335967D01*
X332262Y112499D02*
X335738D01*
X332276Y111599D02*
X335724D01*
X330671Y161099D02*
X334925D01*
X331571Y160199D02*
X334297D01*
X332471Y159299D02*
X334152D01*
X321066Y174599D02*
X333967D01*
X330241Y181799D02*
X333534D01*
X322662Y186299D02*
X333283D01*
X310420Y347399D02*
X333256D01*
X322814Y176399D02*
X333252D01*
X329028Y179999D02*
X333248D01*
X318298Y173699D02*
X333036D01*
X332552Y172799D02*
X332759D01*
X322794Y177299D02*
X332538D01*
X318775Y179099D02*
X332537D01*
X322850Y187199D02*
X332383D01*
X322362Y178199D02*
X332350D01*
X309520Y348299D02*
X332303D01*
X321948Y185399D02*
X332238D01*
X330139Y182699D02*
X332164D01*
X308620Y349199D02*
X331856D01*
X298271Y184499D02*
X331806D01*
X329583Y183599D02*
X331786D01*
X322663Y188099D02*
X331483D01*
X307720Y350099D02*
X331283D01*
X321952Y188999D02*
X330583D01*
X322571Y169199D02*
X329852D01*
X318971Y172799D02*
X329848D01*
X294499Y189899D02*
X329683D01*
X321671Y170099D02*
X329138D01*
X319871Y171899D02*
X329137D01*
X320771Y170999D02*
X328950D01*
X261103Y115199D02*
X328188D01*
X312294Y137699D02*
X328169D01*
X267804Y108899D02*
X327872D01*
X303903Y138599D02*
X327231D01*
X318367Y179999D02*
X326972D01*
X261248Y114299D02*
X326632D01*
X314466Y109799D02*
X326541D01*
X305583Y183599D02*
X326417D01*
X315604Y139499D02*
X326331D01*
X317499Y180899D02*
X326038D01*
X315762Y113399D02*
X326011D01*
X315836Y110699D02*
X325967D01*
X306139Y182699D02*
X325861D01*
X314962Y181799D02*
X325759D01*
X316194Y112499D02*
X325738D01*
X316214Y111599D02*
X325724D01*
X320581Y140399D02*
X325431D01*
X323794Y155699D02*
X325331D01*
X321138Y141299D02*
X324531D01*
X323362Y156599D02*
X324431D01*
X323814Y154799D02*
X323838D01*
X321241Y142199D02*
X323631D01*
X320975Y157499D02*
X323531D01*
X306478Y106199D02*
X323522D01*
X320964Y143099D02*
X322731D01*
X321100Y158399D02*
X322631D01*
X307760Y102599D02*
X322240D01*
X307837Y105299D02*
X322163D01*
X320033Y143999D02*
X321831D01*
X308193Y103499D02*
X321807D01*
X308214Y104399D02*
X321786D01*
X320975Y159299D02*
X321731D01*
X276469Y144899D02*
X320931D01*
X320567Y160199D02*
X320831D01*
X318202Y174599D02*
X320134D01*
X277369Y145799D02*
X320031D01*
X319699Y161099D02*
X319931D01*
X317016Y341999D02*
X319467D01*
X311148Y185399D02*
X319252D01*
X311152Y188999D02*
X319248D01*
X278269Y146699D02*
X319131D01*
X295433Y161999D02*
X319031D01*
X317829Y175499D02*
X318764D01*
X311862Y186299D02*
X318538D01*
X311863Y188099D02*
X318537D01*
X318365Y176399D02*
X318386D01*
X312050Y187199D02*
X318350D01*
X279169Y147599D02*
X318231D01*
X294469Y162899D02*
X318131D01*
X317248Y341099D02*
X318080D01*
X275569Y143999D02*
X317967D01*
X316702Y140399D02*
X317419D01*
X280069Y148499D02*
X317331D01*
X295369Y163799D02*
X317231D01*
X317102Y340199D02*
X317180D01*
X316478Y143099D02*
X317036D01*
X280969Y149399D02*
X316431D01*
X296269Y164699D02*
X316331D01*
X296364Y161099D02*
X315901D01*
X281869Y150299D02*
X315821D01*
X292662Y155699D02*
X315700D01*
X291948Y154799D02*
X315700D01*
X285469Y153899D02*
X315700D01*
X284569Y152999D02*
X315700D01*
X283669Y152099D02*
X315700D01*
X282769Y151199D02*
X315700D01*
X297169Y165599D02*
X315431D01*
X292850Y156599D02*
X315035D01*
X296641Y160199D02*
X315033D01*
X292663Y157499D02*
X314625D01*
X296538Y159299D02*
X314625D01*
X298069Y166499D02*
X314531D01*
X295981Y158399D02*
X314500D01*
X303275Y139499D02*
X313996D01*
X311300Y342899D02*
X313793D01*
X293428Y190799D02*
X313769D01*
X268902Y109799D02*
X313534D01*
X274669Y143099D02*
X313122D01*
X311300Y341999D02*
X312984D01*
X294362Y191699D02*
X312972D01*
X271969Y140399D02*
X312898D01*
X311300Y340199D02*
X312898D01*
X311300Y341099D02*
X312752D01*
X273769Y142199D02*
X312631D01*
X294641Y192599D02*
X312599D01*
X272869Y141299D02*
X312570D01*
X298969Y167399D02*
X312364D01*
X261015Y113399D02*
X312238D01*
X269230Y110699D02*
X312164D01*
X304048Y137699D02*
X312106D01*
X294539Y193499D02*
X311883D01*
X268678Y112499D02*
X311806D01*
X269169Y111599D02*
X311786D01*
X299869Y168299D02*
X311131D01*
X293983Y194399D02*
X310983D01*
X300646Y169199D02*
X310231D01*
X303815Y136799D02*
X309934D01*
X300898Y170099D02*
X309331D01*
X303003Y135899D02*
X309260D01*
X306241Y181799D02*
X309238D01*
X297371Y185399D02*
X308452D01*
X295367Y188999D02*
X308448D01*
X300900Y170999D02*
X308431D01*
X305962Y180899D02*
X308329D01*
X296471Y186299D02*
X307738D01*
X295775Y188099D02*
X307737D01*
X295900Y187199D02*
X307550D01*
X304804Y171899D02*
X307531D01*
X305028Y179999D02*
X307429D01*
X305902Y172799D02*
X306631D01*
X300900Y179099D02*
X306529D01*
X300900Y178199D02*
X305987D01*
X300900Y177299D02*
X305900D01*
X300900Y176399D02*
X305900D01*
X305678Y175499D02*
X305900D01*
X288478Y106199D02*
X305522D01*
X293041Y129599D02*
X305256D01*
X268275Y134999D02*
X304966D01*
X292939Y130499D02*
X304303D01*
X289760Y102599D02*
X304240D01*
X268486Y134099D02*
X304171D01*
X289837Y105299D02*
X304163D01*
X292383Y131399D02*
X303856D01*
X290193Y103499D02*
X303807D01*
X268445Y133199D02*
X303798D01*
X290214Y104399D02*
X303786D01*
X268139Y132299D02*
X303702D01*
X300900Y171899D02*
X303196D01*
X300900Y179999D02*
X302972D01*
X299171Y183599D02*
X302417D01*
X300900Y175499D02*
X302322D01*
X300900Y172799D02*
X302098D01*
X300900Y180899D02*
X302038D01*
X300071Y182699D02*
X301861D01*
X300900Y174599D02*
X301831D01*
X300900Y173699D02*
X301770D01*
X300742Y181799D02*
X301759D01*
X267747Y135899D02*
X300597D01*
X271069Y139499D02*
X300325D01*
X268369Y136799D02*
X299785D01*
X270169Y138599D02*
X299697D01*
X269269Y137699D02*
X299552D01*
X294541Y170999D02*
X296629D01*
X293869Y170099D02*
X295729D01*
X292969Y169199D02*
X294829D01*
X292069Y168299D02*
X293929D01*
X291169Y167399D02*
X293029D01*
X291952Y158399D02*
X292819D01*
X290869Y159299D02*
X292262D01*
X291769Y160199D02*
X292159D01*
X290269Y166499D02*
X292129D01*
X289217Y190799D02*
X291372D01*
X289369Y165599D02*
X291229D01*
X288500Y183599D02*
X291222D01*
X288500Y184499D02*
X290704D01*
X288500Y189899D02*
X290701D01*
X290117Y191699D02*
X290438D01*
X288469Y164699D02*
X290329D01*
X288500Y182699D02*
X290053D01*
X288500Y185399D02*
X289835D01*
X288500Y188999D02*
X289833D01*
X220241Y127799D02*
X289772D01*
X288500Y179099D02*
X289661D01*
X288500Y181799D02*
X289525D01*
X287569Y163799D02*
X289429D01*
X288500Y186299D02*
X289425D01*
X288500Y188099D02*
X289425D01*
X288500Y179999D02*
X289355D01*
X288500Y180899D02*
X289314D01*
X288500Y187199D02*
X289300D01*
X286369Y154799D02*
X289252D01*
X267464Y131399D02*
X289217D01*
X220139Y128699D02*
X288838D01*
X205848Y130499D02*
X288661D01*
X219583Y129599D02*
X288559D01*
X287269Y155699D02*
X288538D01*
X286669Y162899D02*
X288529D01*
X288169Y156599D02*
X288350D01*
X285769Y161999D02*
X287629D01*
X272478Y106199D02*
X287522D01*
X284869Y161099D02*
X286729D01*
X273760Y102599D02*
X286240D01*
X273837Y105299D02*
X286163D01*
X283969Y160199D02*
X285829D01*
X274193Y103499D02*
X285807D01*
X274214Y104399D02*
X285786D01*
X283069Y159299D02*
X284929D01*
X282169Y158399D02*
X284029D01*
X281269Y157499D02*
X283129D01*
X280369Y156599D02*
X282229D01*
X279469Y155699D02*
X281329D01*
X278569Y154799D02*
X280429D01*
X277669Y153899D02*
X279529D01*
X276769Y152999D02*
X278629D01*
X275869Y152099D02*
X277729D01*
X274969Y151199D02*
X276829D01*
X274069Y150299D02*
X275929D01*
X273159Y149399D02*
X275029D01*
X203269Y148499D02*
X274129D01*
X202369Y147599D02*
X273229D01*
X201469Y146699D02*
X272329D01*
X258241Y106199D02*
X271522D01*
X200569Y145799D02*
X271429D01*
X199669Y144899D02*
X270529D01*
X241760Y102599D02*
X270240D01*
X258138Y105299D02*
X270163D01*
X242193Y103499D02*
X269807D01*
X257581Y104399D02*
X269786D01*
X198769Y143999D02*
X269629D01*
X260807Y143099D02*
X268729D01*
X261616Y142199D02*
X267829D01*
X261848Y141299D02*
X266929D01*
X219962Y108899D02*
X266196D01*
X261702Y140399D02*
X266029D01*
X260203Y112499D02*
X265322D01*
X261072Y139499D02*
X265129D01*
X220241Y109799D02*
X265098D01*
X219583Y111599D02*
X264831D01*
X220139Y110699D02*
X264770D01*
X219960Y138599D02*
X264229D01*
X192469Y137699D02*
X263410D01*
X191569Y136799D02*
X263109D01*
X251581Y131399D02*
X262936D01*
X190669Y135899D02*
X262653D01*
X252138Y132299D02*
X262261D01*
X251033Y134999D02*
X262125D01*
X252241Y133199D02*
X261955D01*
X251964Y134099D02*
X261914D01*
X250011Y143099D02*
X258393D01*
X250876Y139499D02*
X258128D01*
X209164Y112499D02*
X257797D01*
X251104Y142199D02*
X257584D01*
X152576Y116099D02*
X257525D01*
X251368Y140399D02*
X257498D01*
X251430Y141299D02*
X257352D01*
X208233Y113399D02*
X256985D01*
X181678Y115199D02*
X256897D01*
X183037Y114299D02*
X256752D01*
X227033Y107999D02*
X254967D01*
X242214Y104399D02*
X254419D01*
X227964Y107099D02*
X254036D01*
X241837Y105299D02*
X253862D01*
X240478Y106199D02*
X253759D01*
X246571Y197999D02*
X249700D01*
X245671Y198899D02*
X249531D01*
X247471Y197099D02*
X249101D01*
X189769Y134999D02*
X248967D01*
X248371Y196199D02*
X248655D01*
X244771Y199799D02*
X248631D01*
X205703Y131399D02*
X248419D01*
X197869Y143099D02*
X248389D01*
X152700Y116999D02*
X248372D01*
X188869Y134099D02*
X248036D01*
X205075Y132299D02*
X247862D01*
X219760Y120599D02*
X247817D01*
X187969Y133199D02*
X247759D01*
X243871Y200699D02*
X247731D01*
X220393Y139499D02*
X247524D01*
X152700Y117899D02*
X247438D01*
X218678Y142199D02*
X247296D01*
X152700Y119699D02*
X247261D01*
X152700Y118799D02*
X247159D01*
X220414Y140399D02*
X247032D01*
X220037Y141299D02*
X246970D01*
X242971Y201599D02*
X246831D01*
X242071Y202499D02*
X245931D01*
X241171Y203399D02*
X245031D01*
X240271Y204299D02*
X244131D01*
X241462Y179099D02*
X244000D01*
X241476Y178199D02*
X244000D01*
X241233Y177299D02*
X244000D01*
X240659Y176399D02*
X244000D01*
X239328Y175499D02*
X244000D01*
X173760Y174599D02*
X244000D01*
X235475Y173699D02*
X244000D01*
X236103Y172799D02*
X244000D01*
X236248Y171899D02*
X244000D01*
X236015Y170999D02*
X244000D01*
X235203Y170099D02*
X244000D01*
X230981Y169199D02*
X244000D01*
X224262Y168299D02*
X244000D01*
X223548Y167399D02*
X244000D01*
X172577Y166499D02*
X244000D01*
X242278Y165599D02*
X244000D01*
X243637Y164699D02*
X244000D01*
X243993Y162899D02*
X244000D01*
X243560Y161999D02*
X244000D01*
X241189Y179999D02*
X243431D01*
X228811Y161099D02*
X243329D01*
X239371Y205199D02*
X243231D01*
X240568Y180899D02*
X242531D01*
X238471Y206099D02*
X242331D01*
X239012Y181799D02*
X241631D01*
X237571Y206999D02*
X241431D01*
X173626Y165599D02*
X241322D01*
X229904Y160199D02*
X241022D01*
X237071Y182699D02*
X240731D01*
X236671Y207899D02*
X240531D01*
X143076Y154799D02*
X240136D01*
X173885Y161999D02*
X240040D01*
X174112Y164699D02*
X239963D01*
X230230Y159299D02*
X239853D01*
X236171Y183599D02*
X239831D01*
X235771Y208799D02*
X239631D01*
X174225Y162899D02*
X239607D01*
X174294Y163799D02*
X239586D01*
X228241Y106199D02*
X239522D01*
X149353Y155699D02*
X239461D01*
X230168Y158399D02*
X239325D01*
X223760Y156599D02*
X239155D01*
X229676Y157499D02*
X239114D01*
X235271Y184499D02*
X238931D01*
X234871Y209699D02*
X238731D01*
X105071Y102599D02*
X238240D01*
X228138Y105299D02*
X238163D01*
X234371Y185399D02*
X238031D01*
X233971Y210599D02*
X237831D01*
X106803Y103499D02*
X237807D01*
X227581Y104399D02*
X237786D01*
X233471Y186299D02*
X237131D01*
X174193Y175499D02*
X237072D01*
X233071Y211499D02*
X236931D01*
X231744Y187199D02*
X236231D01*
X232171Y212399D02*
X236031D01*
X174214Y176399D02*
X235741D01*
X232697Y188099D02*
X235331D01*
X231896Y177299D02*
X235167D01*
X231271Y213299D02*
X235131D01*
X232765Y178199D02*
X234924D01*
X233175Y179099D02*
X234731D01*
X233144Y188999D02*
X234431D01*
X230371Y214199D02*
X234231D01*
X233300Y179999D02*
X233831D01*
X233298Y189899D02*
X233531D01*
X229471Y215099D02*
X233331D01*
X231538Y170099D02*
X232797D01*
X169300Y173699D02*
X232525D01*
X228571Y215999D02*
X232431D01*
X231641Y170999D02*
X231985D01*
X230433Y172799D02*
X231897D01*
X231364Y171899D02*
X231752D01*
X227671Y216899D02*
X231531D01*
X226771Y217799D02*
X230631D01*
X225871Y218699D02*
X229731D01*
X224884Y219599D02*
X228831D01*
X169300Y172799D02*
X228367D01*
X173837Y177299D02*
X228104D01*
X205486Y182699D02*
X228101D01*
X214565Y220499D02*
X227931D01*
X224450Y169199D02*
X227819D01*
X205445Y183599D02*
X227631D01*
X169300Y171899D02*
X227436D01*
X224263Y170099D02*
X227262D01*
X172478Y178199D02*
X227235D01*
X205274Y181799D02*
X227233D01*
X187811Y161099D02*
X227189D01*
X223552Y170999D02*
X227159D01*
X215188Y221399D02*
X227031D01*
X169300Y179099D02*
X226825D01*
X204745Y180899D02*
X226825D01*
X205140Y184499D02*
X226731D01*
X203572Y179999D02*
X226700D01*
X215462Y222299D02*
X226421D01*
X224193Y157499D02*
X226324D01*
X222153Y247499D02*
X226300D01*
X204371Y246599D02*
X226300D01*
X205271Y245699D02*
X226300D01*
X206171Y244799D02*
X226300D01*
X207071Y243899D02*
X226300D01*
X221378Y242999D02*
X226300D01*
X222547Y242099D02*
X226300D01*
X223075Y241199D02*
X226300D01*
X223286Y240299D02*
X226300D01*
X223245Y239399D02*
X226300D01*
X222939Y238499D02*
X226300D01*
X222264Y237599D02*
X226300D01*
X214098Y236699D02*
X226300D01*
X214300Y235799D02*
X226300D01*
X214300Y234899D02*
X226300D01*
X214300Y233999D02*
X226300D01*
X221135Y233099D02*
X226300D01*
X222461Y232199D02*
X226300D01*
X223034Y231299D02*
X226300D01*
X223276Y230399D02*
X226300D01*
X223262Y229499D02*
X226300D01*
X222988Y228599D02*
X226300D01*
X222365Y227699D02*
X226300D01*
X220801Y226799D02*
X226300D01*
X214300Y225899D02*
X226300D01*
X214661Y224999D02*
X226300D01*
X215234Y224099D02*
X226300D01*
X215476Y223199D02*
X226300D01*
X222478Y160199D02*
X226096D01*
X224214Y158399D02*
X225832D01*
X216466Y185399D02*
X225831D01*
X223837Y159299D02*
X225770D01*
X222885Y248399D02*
X225431D01*
X219028Y107999D02*
X224967D01*
X217836Y186299D02*
X224931D01*
X223225Y249299D02*
X224531D01*
X162560Y104399D02*
X224419D01*
X218214Y187199D02*
X224078D01*
X162637Y107099D02*
X224036D01*
X162993Y105299D02*
X223862D01*
X163014Y106199D02*
X223759D01*
X218194Y188099D02*
X223722D01*
X196420Y192599D02*
X223700D01*
X197320Y191699D02*
X223700D01*
X198220Y190799D02*
X223700D01*
X199120Y189899D02*
X223700D01*
X217762Y188999D02*
X223700D01*
X223294Y250199D02*
X223631D01*
X195520Y193499D02*
X222931D01*
X194620Y194399D02*
X222031D01*
X188904Y160199D02*
X221522D01*
X193720Y195299D02*
X221131D01*
X171020Y167399D02*
X220852D01*
X169300Y170999D02*
X220848D01*
X164466Y156599D02*
X220240D01*
X192820Y196199D02*
X220231D01*
X189230Y159299D02*
X220163D01*
X170120Y168299D02*
X220138D01*
X169300Y170099D02*
X220137D01*
X197171Y253799D02*
X220031D01*
X169300Y169199D02*
X219950D01*
X188676Y157499D02*
X219807D01*
X189168Y158399D02*
X219786D01*
X191920Y197099D02*
X219331D01*
X214300Y226799D02*
X219199D01*
X196271Y254699D02*
X219131D01*
X214300Y233099D02*
X218865D01*
X207971Y242999D02*
X218622D01*
X191020Y197999D02*
X218431D01*
X198071Y252899D02*
X218423D01*
X195371Y255599D02*
X218231D01*
X203471Y247499D02*
X217847D01*
X213371Y237599D02*
X217736D01*
X196969Y142199D02*
X217722D01*
X214300Y227699D02*
X217635D01*
X214300Y232199D02*
X217539D01*
X190120Y198899D02*
X217531D01*
X201866Y124199D02*
X217522D01*
X208871Y242099D02*
X217453D01*
X198971Y251999D02*
X217374D01*
X194471Y256499D02*
X217331D01*
X202571Y248399D02*
X217115D01*
X212471Y238499D02*
X217061D01*
X214300Y228599D02*
X217012D01*
X203614Y125999D02*
X216972D01*
X161278Y107999D02*
X216972D01*
X214300Y231299D02*
X216966D01*
X209771Y241199D02*
X216925D01*
X199871Y251099D02*
X216888D01*
X201671Y249299D02*
X216775D01*
X211571Y239399D02*
X216755D01*
X214300Y229499D02*
X216738D01*
X214300Y230399D02*
X216724D01*
X210671Y240299D02*
X216714D01*
X200771Y250199D02*
X216706D01*
X189220Y199799D02*
X216631D01*
X193369Y138599D02*
X216440D01*
X213181Y257399D02*
X216431D01*
X205615Y129599D02*
X216417D01*
X209441Y111599D02*
X216417D01*
X196069Y141299D02*
X216363D01*
X170222Y120599D02*
X216240D01*
X173343Y123299D02*
X216163D01*
X203594Y126899D02*
X216038D01*
X101900Y108899D02*
X216038D01*
X194269Y139499D02*
X216007D01*
X195169Y140399D02*
X215986D01*
X204803Y128699D02*
X215861D01*
X209338Y110699D02*
X215861D01*
X171679Y121499D02*
X215807D01*
X172644Y122399D02*
X215786D01*
X203162Y127799D02*
X215759D01*
X208781Y109799D02*
X215759D01*
X188320Y200699D02*
X215731D01*
X204466Y185399D02*
X215534D01*
X213738Y258299D02*
X215531D01*
X187420Y201599D02*
X214831D01*
X213841Y259199D02*
X214631D01*
X200020Y188999D02*
X214238D01*
X202720Y186299D02*
X214164D01*
X186520Y202499D02*
X213931D01*
X200920Y188099D02*
X213806D01*
X201820Y187199D02*
X213786D01*
X213564Y260099D02*
X213731D01*
X185620Y203399D02*
X213031D01*
X212633Y260999D02*
X212831D01*
X184720Y204299D02*
X212131D01*
X189071Y261899D02*
X211931D01*
X183820Y205199D02*
X211231D01*
X188171Y262799D02*
X211031D01*
X195162Y260999D02*
X210567D01*
X182920Y206099D02*
X210331D01*
X187271Y263699D02*
X210131D01*
X193866Y257399D02*
X210019D01*
X195594Y260099D02*
X209636D01*
X195236Y258299D02*
X209462D01*
X182020Y206999D02*
X209431D01*
X195614Y259199D02*
X209359D01*
X186371Y264599D02*
X209231D01*
X181120Y207899D02*
X208531D01*
X185471Y265499D02*
X208331D01*
X180220Y208799D02*
X207631D01*
X190748Y266399D02*
X207431D01*
X179320Y209699D02*
X206731D01*
X191462Y267299D02*
X206531D01*
X183414Y113399D02*
X206167D01*
X178420Y210599D02*
X205831D01*
X191650Y268199D02*
X205631D01*
X173160Y109799D02*
X205619D01*
X183393Y112499D02*
X205236D01*
X173593Y110699D02*
X205062D01*
X182960Y111599D02*
X204959D01*
X177416Y211499D02*
X204931D01*
X191463Y269099D02*
X204731D01*
X173412Y212399D02*
X204031D01*
X190752Y269999D02*
X203831D01*
X153225Y213299D02*
X203131D01*
X196076Y270899D02*
X202931D01*
X174544Y128699D02*
X202397D01*
X186181Y214199D02*
X202231D01*
X187299Y132299D02*
X202125D01*
X196568Y271799D02*
X202031D01*
X186031Y129599D02*
X201585D01*
X187201Y131399D02*
X201497D01*
X186828Y130499D02*
X201352D01*
X198204Y215099D02*
X201331D01*
X196630Y272699D02*
X201131D01*
X173857Y124199D02*
X200934D01*
X178948Y179999D02*
X200828D01*
X199302Y215999D02*
X200431D01*
X196304Y273599D02*
X200231D01*
X199076Y180899D02*
X199655D01*
X174625Y127799D02*
X199638D01*
X174225Y125099D02*
X199564D01*
X195211Y274499D02*
X199331D01*
X174601Y126899D02*
X199206D01*
X174469Y125999D02*
X199186D01*
X114230Y150299D02*
X199129D01*
X175571Y275399D02*
X198431D01*
X192604Y234899D02*
X198300D01*
X188371Y233999D02*
X198300D01*
X189271Y233099D02*
X198300D01*
X190171Y232199D02*
X198300D01*
X191071Y231299D02*
X198300D01*
X191971Y230399D02*
X198300D01*
X192871Y229499D02*
X198300D01*
X193771Y228599D02*
X198300D01*
X194671Y227699D02*
X198300D01*
X195571Y226799D02*
X198300D01*
X196471Y225899D02*
X198300D01*
X197371Y224999D02*
X198300D01*
X198271Y224099D02*
X198300D01*
X114168Y149399D02*
X198229D01*
X193702Y235799D02*
X197831D01*
X174671Y276299D02*
X197531D01*
X113676Y148499D02*
X197329D01*
X194030Y236699D02*
X196931D01*
X182614Y219599D02*
X196831D01*
X173771Y277199D02*
X196631D01*
X186738Y215099D02*
X196596D01*
X174430Y184499D02*
X196589D01*
X105583Y147599D02*
X196429D01*
X193969Y237599D02*
X196031D01*
X174369Y185399D02*
X195983D01*
X182237Y220499D02*
X195931D01*
X172871Y278099D02*
X195731D01*
X179662Y180899D02*
X195724D01*
X182593Y218699D02*
X195722D01*
X106139Y146699D02*
X195529D01*
X186841Y215999D02*
X195498D01*
X178952Y183599D02*
X195496D01*
X179850Y181799D02*
X195232D01*
X185633Y217799D02*
X195231D01*
X186564Y216899D02*
X195170D01*
X179663Y182699D02*
X195170D01*
X193478Y238499D02*
X195131D01*
X173878Y186299D02*
X195083D01*
X180878Y221399D02*
X195031D01*
X173902Y278999D02*
X194831D01*
X154552Y145799D02*
X194629D01*
X193181Y239399D02*
X194231D01*
X193360Y187199D02*
X194183D01*
X152030Y222299D02*
X194131D01*
X193076Y279899D02*
X193931D01*
X155263Y144899D02*
X193729D01*
X176471Y274499D02*
X193589D01*
X151704Y223199D02*
X193231D01*
X188171Y251999D02*
X193031D01*
X160352Y143999D02*
X192829D01*
X180071Y270899D02*
X192724D01*
X177371Y273599D02*
X192496D01*
X189071Y251099D02*
X192348D01*
X150611Y224099D02*
X192331D01*
X179171Y271799D02*
X192232D01*
X178271Y272699D02*
X192170D01*
X187271Y252899D02*
X192131D01*
X161063Y143099D02*
X191929D01*
X187475Y353699D02*
X191680D01*
X189971Y260999D02*
X191638D01*
X189971Y250199D02*
X191637D01*
X190871Y249299D02*
X191450D01*
X137420Y224999D02*
X191431D01*
X186371Y253799D02*
X191231D01*
X190871Y260099D02*
X191206D01*
X161250Y142199D02*
X191029D01*
X187471Y234899D02*
X190996D01*
X188103Y352799D02*
X190780D01*
X169300Y190799D02*
X190583D01*
X174804Y225899D02*
X190531D01*
X185471Y254699D02*
X190331D01*
X161062Y141299D02*
X190129D01*
X137100Y238499D02*
X190122D01*
X137100Y239399D02*
X190019D01*
X168778Y235799D02*
X189898D01*
X188248Y351899D02*
X189880D01*
X169300Y187199D02*
X189840D01*
X169300Y189899D02*
X189763D01*
X174230Y279899D02*
X189724D01*
X169300Y191699D02*
X189683D01*
X160636Y242099D02*
X189636D01*
X188581Y226799D02*
X189631D01*
X137100Y237599D02*
X189631D01*
X137100Y236699D02*
X189570D01*
X142204Y240299D02*
X189462D01*
X184571Y255599D02*
X189431D01*
X169300Y188099D02*
X189407D01*
X169300Y188999D02*
X189386D01*
X159266Y241199D02*
X189359D01*
X174169Y280799D02*
X189232D01*
X160348Y140399D02*
X189229D01*
X173678Y281699D02*
X189170D01*
X188015Y350999D02*
X188980D01*
X161014Y242999D02*
X188841D01*
X169300Y192599D02*
X188783D01*
X183671Y256499D02*
X188531D01*
X152419Y139499D02*
X188329D01*
X187203Y350099D02*
X188080D01*
X184571Y266399D02*
X188052D01*
X180971Y269999D02*
X188048D01*
X160994Y243899D02*
X187931D01*
X169300Y193499D02*
X187883D01*
X182771Y257399D02*
X187631D01*
X183583Y138599D02*
X187429D01*
X183671Y267299D02*
X187338D01*
X181871Y269099D02*
X187337D01*
X182968Y349199D02*
X187180D01*
X182771Y268199D02*
X187150D01*
X160562Y244799D02*
X187031D01*
X169300Y194399D02*
X186983D01*
X181871Y258299D02*
X186731D01*
X184139Y137699D02*
X186529D01*
X182476Y348299D02*
X186280D01*
X173153Y161099D02*
X186189D01*
X162072Y245699D02*
X186131D01*
X169300Y195299D02*
X186083D01*
X179641Y230399D02*
X185967D01*
X180971Y259199D02*
X185831D01*
X184241Y136799D02*
X185629D01*
X175902Y226799D02*
X185419D01*
X175885Y347399D02*
X185380D01*
X165836Y157499D02*
X185324D01*
X174560Y246599D02*
X185231D01*
X169300Y196199D02*
X185183D01*
X179539Y231299D02*
X185131D01*
X165762Y160199D02*
X185096D01*
X179362Y229499D02*
X185036D01*
X180071Y260099D02*
X184931D01*
X176230Y227699D02*
X184862D01*
X166214Y158399D02*
X184832D01*
X183030Y350099D02*
X184797D01*
X166194Y159299D02*
X184770D01*
X178428Y228599D02*
X184759D01*
X183962Y135899D02*
X184729D01*
X105984Y353699D02*
X184525D01*
X174993Y247499D02*
X184331D01*
X169300Y197099D02*
X184283D01*
X179171Y260999D02*
X184031D01*
X182704Y350999D02*
X183985D01*
X104274Y352799D02*
X183897D01*
X181611Y351899D02*
X183752D01*
X182160Y217799D02*
X183567D01*
X175014Y248399D02*
X183431D01*
X169300Y197999D02*
X183383D01*
X178271Y261899D02*
X183131D01*
X177760Y214199D02*
X183019D01*
X177837Y216899D02*
X182636D01*
X174637Y249299D02*
X182531D01*
X169300Y198899D02*
X182483D01*
X178193Y215099D02*
X182462D01*
X178214Y215999D02*
X182359D01*
X177371Y262799D02*
X182231D01*
X174354Y129599D02*
X181969D01*
X173278Y250199D02*
X181631D01*
X169300Y199799D02*
X181583D01*
X176471Y263699D02*
X181331D01*
X170994Y134099D02*
X181301D01*
X174046Y130499D02*
X181172D01*
X168915Y134999D02*
X180972D01*
X172172Y133199D02*
X180855D01*
X173604Y131399D02*
X180799D01*
X152611Y251099D02*
X180731D01*
X152222Y115199D02*
X180722D01*
X172998Y132299D02*
X180701D01*
X169300Y200699D02*
X180683D01*
X175571Y264599D02*
X180431D01*
X152663Y138599D02*
X180417D01*
X152700Y135899D02*
X180038D01*
X174577Y351899D02*
X179989D01*
X151968Y221399D02*
X179922D01*
X152700Y137699D02*
X179861D01*
X164181Y251999D02*
X179831D01*
X169300Y201599D02*
X179783D01*
X152700Y136799D02*
X179759D01*
X174671Y265499D02*
X179531D01*
X173614Y111599D02*
X179440D01*
X151565Y114299D02*
X179363D01*
X176225Y348299D02*
X179124D01*
X173237Y112499D02*
X179007D01*
X171878Y113399D02*
X178986D01*
X164738Y252899D02*
X178931D01*
X175626Y350999D02*
X178896D01*
X169717Y202499D02*
X178883D01*
X176478Y217799D02*
X178640D01*
X176294Y349199D02*
X178632D01*
X173771Y266399D02*
X178631D01*
X176112Y350099D02*
X178570D01*
X151476Y220499D02*
X178563D01*
X143720Y218699D02*
X178207D01*
X142820Y219599D02*
X178186D01*
X164841Y253799D02*
X178031D01*
X170617Y203399D02*
X177983D01*
X172871Y267299D02*
X177731D01*
X164564Y254699D02*
X177131D01*
X171517Y204299D02*
X177083D01*
X171971Y268199D02*
X176831D01*
X176169Y228599D02*
X176372D01*
X169300Y179999D02*
X176252D01*
X174102Y183599D02*
X176248D01*
X163633Y255599D02*
X176231D01*
X172417Y205199D02*
X176183D01*
X171071Y269099D02*
X175931D01*
X169300Y180899D02*
X175538D01*
X173004Y182699D02*
X175537D01*
X144620Y217799D02*
X175522D01*
X169300Y181799D02*
X175350D01*
X132436Y256499D02*
X175331D01*
X173728Y206099D02*
X175283D01*
X170339Y231299D02*
X175261D01*
X169664Y230399D02*
X175159D01*
X170171Y269999D02*
X175031D01*
X132814Y257399D02*
X174431D01*
X153294Y214199D02*
X174240D01*
X151577Y216899D02*
X174163D01*
X169271Y270899D02*
X174131D01*
X153112Y215099D02*
X173807D01*
X152626Y215999D02*
X173786D01*
X165876Y258299D02*
X173531D01*
X168371Y271799D02*
X173231D01*
X161672Y225899D02*
X173196D01*
X166368Y259199D02*
X172631D01*
X167471Y272699D02*
X172331D01*
X153704Y250199D02*
X172322D01*
X166448Y229499D02*
X172322D01*
X162302Y226799D02*
X172098D01*
X166302Y228599D02*
X171831D01*
X152885Y212399D02*
X171788D01*
X165672Y227699D02*
X171770D01*
X166430Y260099D02*
X171731D01*
X169300Y178199D02*
X171522D01*
X166571Y273599D02*
X171431D01*
X164577Y351899D02*
X171423D01*
X169300Y182699D02*
X171396D01*
X162702Y246599D02*
X171040D01*
X161807Y249299D02*
X170963D01*
X158078Y113399D02*
X170922D01*
X166104Y260999D02*
X170831D01*
X162848Y247499D02*
X170607D01*
X162616Y248399D02*
X170586D01*
X165671Y274499D02*
X170531D01*
X169300Y186299D02*
X170522D01*
X165626Y350999D02*
X170374D01*
X169271Y281699D02*
X170322D01*
X169300Y183599D02*
X170298D01*
X169300Y174599D02*
X170240D01*
X152153Y211499D02*
X170232D01*
X169300Y177299D02*
X170163D01*
X165885Y347399D02*
X170115D01*
X169300Y185399D02*
X170031D01*
X169300Y184499D02*
X169970D01*
X165011Y261899D02*
X169931D01*
X166112Y350099D02*
X169888D01*
X169300Y175499D02*
X169807D01*
X169300Y176399D02*
X169786D01*
X166225Y348299D02*
X169775D01*
X166294Y349199D02*
X169706D01*
X159360Y109799D02*
X169640D01*
X164771Y275399D02*
X169631D01*
X150362Y210599D02*
X169611D01*
X159437Y112499D02*
X169563D01*
X150794Y209699D02*
X169280D01*
X159793Y110699D02*
X169207D01*
X159814Y111599D02*
X169186D01*
X168371Y282599D02*
X169164D01*
X165160Y262799D02*
X169031D01*
X149300Y161099D02*
X168847D01*
X163871Y276299D02*
X168731D01*
X150814Y208799D02*
X168380D01*
X165593Y263699D02*
X168131D01*
X149300Y161999D02*
X168115D01*
X167471Y283499D02*
X167931D01*
X166781Y277199D02*
X167831D01*
X149300Y162899D02*
X167775D01*
X150436Y207899D02*
X167480D01*
X165614Y264599D02*
X167231D01*
X166571Y284399D02*
X167031D01*
X149300Y163799D02*
X166983D01*
X149066Y206999D02*
X166580D01*
X165237Y265499D02*
X166331D01*
X165671Y285299D02*
X166131D01*
X149300Y164699D02*
X166083D01*
X137100Y235799D02*
X166022D01*
X144871Y206099D02*
X165680D01*
X163878Y266399D02*
X165431D01*
X164771Y286199D02*
X165231D01*
X149300Y165599D02*
X165183D01*
X152700Y134999D02*
X164944D01*
X137100Y234899D02*
X164853D01*
X145771Y205199D02*
X164780D01*
X142633Y267299D02*
X164531D01*
X149300Y166499D02*
X164356D01*
X163871Y287099D02*
X164331D01*
X137100Y233999D02*
X164325D01*
X151371Y280799D02*
X164167D01*
X142783Y232199D02*
X164155D01*
X146671Y204299D02*
X164134D01*
X137100Y233099D02*
X164114D01*
X149300Y167399D02*
X163968D01*
X147571Y203399D02*
X163907D01*
X148471Y202499D02*
X163900D01*
X149142Y201599D02*
X163900D01*
X149300Y200699D02*
X163900D01*
X149300Y199799D02*
X163900D01*
X149300Y198899D02*
X163900D01*
X149300Y197999D02*
X163900D01*
X149300Y197099D02*
X163900D01*
X149300Y196199D02*
X163900D01*
X149300Y195299D02*
X163900D01*
X149300Y194399D02*
X163900D01*
X149300Y193499D02*
X163900D01*
X149300Y192599D02*
X163900D01*
X149300Y191699D02*
X163900D01*
X149300Y190799D02*
X163900D01*
X149300Y189899D02*
X163900D01*
X149300Y188999D02*
X163900D01*
X149300Y188099D02*
X163900D01*
X154752Y187199D02*
X163900D01*
X155463Y186299D02*
X163900D01*
X155650Y185399D02*
X163900D01*
X155462Y184499D02*
X163900D01*
X154748Y183599D02*
X163900D01*
X152230Y182699D02*
X163900D01*
X151902Y181799D02*
X163900D01*
X150804Y180899D02*
X163900D01*
X149300Y179999D02*
X163900D01*
X149300Y179099D02*
X163900D01*
X163762Y178199D02*
X163900D01*
X163836Y175499D02*
X163900D01*
X162466Y174599D02*
X163900D01*
X149300Y173699D02*
X163900D01*
X149300Y172799D02*
X163900D01*
X149300Y171899D02*
X163900D01*
X149300Y170999D02*
X163900D01*
X149300Y170099D02*
X163900D01*
X149300Y169199D02*
X163900D01*
X149300Y168299D02*
X163900D01*
X152700Y120599D02*
X163636D01*
X142876Y268199D02*
X163631D01*
X162962Y277199D02*
X163619D01*
X150085Y156599D02*
X163534D01*
X162971Y287999D02*
X163431D01*
X133517Y261899D02*
X163389D01*
X150471Y281699D02*
X163331D01*
X156478Y279899D02*
X163236D01*
X157030Y278099D02*
X163062D01*
X143339Y231299D02*
X162993D01*
X156969Y278999D02*
X162959D01*
X142059Y266399D02*
X162922D01*
X152700Y134099D02*
X162864D01*
X142862Y269099D02*
X162731D01*
X162448Y227699D02*
X162728D01*
X161897Y288899D02*
X162531D01*
X132794Y258299D02*
X162524D01*
X149571Y282599D02*
X162431D01*
X132617Y260999D02*
X162296D01*
X149826Y160199D02*
X162238D01*
X143441Y230399D02*
X162184D01*
X152700Y121499D02*
X162179D01*
X148671Y308699D02*
X162171D01*
X150425Y157499D02*
X162164D01*
X132362Y259199D02*
X162032D01*
X131717Y260099D02*
X161970D01*
X161407Y229499D02*
X161952D01*
X142589Y269999D02*
X161831D01*
X150312Y159299D02*
X161806D01*
X149571Y307799D02*
X161798D01*
X150494Y158399D02*
X161786D01*
X161135Y306899D02*
X161702D01*
X152700Y133199D02*
X161687D01*
X134417Y262799D02*
X161640D01*
X160749Y289799D02*
X161631D01*
X131066Y255599D02*
X161567D01*
X140728Y265499D02*
X161563D01*
X149300Y174599D02*
X161534D01*
X148671Y283499D02*
X161531D01*
X154577Y351899D02*
X161423D01*
X152700Y122399D02*
X161214D01*
X135317Y263699D02*
X161207D01*
X136217Y264599D02*
X161186D01*
X129900Y251999D02*
X161019D01*
X141968Y270899D02*
X160931D01*
X152700Y132299D02*
X160861D01*
X146662Y290699D02*
X160731D01*
X129900Y254699D02*
X160636D01*
X152700Y123299D02*
X160515D01*
X129900Y252899D02*
X160462D01*
X155626Y350999D02*
X160374D01*
X129900Y253799D02*
X160359D01*
X101900Y107999D02*
X160322D01*
X152700Y131399D02*
X160255D01*
X149300Y178199D02*
X160238D01*
X149300Y175499D02*
X160164D01*
X155885Y347399D02*
X160115D01*
X152700Y124199D02*
X160001D01*
X156112Y350099D02*
X159888D01*
X146676Y291599D02*
X159831D01*
X152700Y130499D02*
X159812D01*
X149300Y177299D02*
X159806D01*
X149300Y176399D02*
X159786D01*
X156225Y348299D02*
X159775D01*
X156294Y349199D02*
X159706D01*
X152700Y125099D02*
X159633D01*
X152700Y129599D02*
X159504D01*
X156811Y249299D02*
X159393D01*
X152700Y125999D02*
X159389D01*
X152700Y128699D02*
X159314D01*
X152700Y126899D02*
X159257D01*
X152700Y127799D02*
X159233D01*
X157676Y245699D02*
X159128D01*
X107615Y104399D02*
X159040D01*
X143162Y229499D02*
X158993D01*
X107075Y107099D02*
X158963D01*
X146434Y292499D02*
X158931D01*
X150471Y306899D02*
X158865D01*
X139476Y225899D02*
X158728D01*
X107848Y105299D02*
X158607D01*
X107703Y106199D02*
X158586D01*
X157904Y248399D02*
X158584D01*
X158168Y246599D02*
X158498D01*
X158230Y247499D02*
X158352D01*
X155748Y241199D02*
X158334D01*
X142228Y228599D02*
X158184D01*
X139968Y226799D02*
X158098D01*
X156360Y293399D02*
X158031D01*
X140030Y227699D02*
X157952D01*
X151920Y140399D02*
X157652D01*
X155450Y143999D02*
X157648D01*
X156033Y305999D02*
X157539D01*
X146388Y289799D02*
X157251D01*
X156793Y294299D02*
X157131D01*
X150276Y113399D02*
X157122D01*
X155752Y244799D02*
X157038D01*
X147771Y284399D02*
X156969D01*
X156964Y305099D02*
X156966D01*
X156462Y242099D02*
X156964D01*
X151012Y141299D02*
X156938D01*
X155262Y143099D02*
X156937D01*
X147771Y309599D02*
X156920D01*
X154548Y142199D02*
X156750D01*
X156463Y243899D02*
X156606D01*
X145765Y288899D02*
X156301D01*
X146871Y285299D02*
X156172D01*
X146871Y310499D02*
X155931D01*
X145500Y287999D02*
X155855D01*
X134483Y109799D02*
X155840D01*
X145971Y286199D02*
X155799D01*
X136215Y112499D02*
X155763D01*
X145500Y287099D02*
X155701D01*
X135403Y110699D02*
X155407D01*
X135932Y111599D02*
X155386D01*
X154030Y249299D02*
X155189D01*
X145962Y311399D02*
X155031D01*
X147463Y245699D02*
X154324D01*
X141356Y312299D02*
X154131D01*
X138019Y296999D02*
X154122D01*
X153968Y248399D02*
X154096D01*
X151371Y305999D02*
X153967D01*
X146752Y246599D02*
X153832D01*
X153476Y247499D02*
X153770D01*
X137730Y297899D02*
X153531D01*
X124963Y313199D02*
X153231D01*
X152271Y279899D02*
X153122D01*
X143302Y241199D02*
X153052D01*
X147650Y244799D02*
X153048D01*
X152271Y305099D02*
X153036D01*
X145861Y293399D02*
X152840D01*
X138194Y296099D02*
X152763D01*
X137310Y298799D02*
X152631D01*
X144535Y294299D02*
X152407D01*
X138260Y295199D02*
X152386D01*
X143630Y242099D02*
X152338D01*
X147462Y243899D02*
X152337D01*
X124963Y314099D02*
X152331D01*
X146748Y242999D02*
X152150D01*
X135517Y341099D02*
X152088D01*
X149300Y187199D02*
X152048D01*
X134617Y340199D02*
X151906D01*
X136282Y142199D02*
X151852D01*
X133736Y145799D02*
X151848D01*
X136733Y299699D02*
X151731D01*
X133717Y339299D02*
X151529D01*
X135381Y314999D02*
X151431D01*
X144577Y351899D02*
X151423D01*
X149300Y186299D02*
X151337D01*
X149300Y185399D02*
X151150D01*
X136104Y143099D02*
X151138D01*
X135024Y144899D02*
X151137D01*
X146211Y251099D02*
X150989D01*
X135711Y143999D02*
X150950D01*
X135951Y300599D02*
X150831D01*
X132817Y338399D02*
X150634D01*
X135938Y315899D02*
X150552D01*
X145626Y350999D02*
X150374D01*
X131917Y337499D02*
X150160D01*
X136041Y316799D02*
X150139D01*
X147076Y247499D02*
X150124D01*
X145885Y347399D02*
X150115D01*
X131017Y336599D02*
X150100D01*
X130117Y335699D02*
X150100D01*
X129217Y334799D02*
X150100D01*
X128317Y333899D02*
X150100D01*
X129304Y332999D02*
X150100D01*
X129630Y332099D02*
X150100D01*
X129568Y331199D02*
X150100D01*
X129076Y330299D02*
X150100D01*
X124963Y329399D02*
X150100D01*
X124963Y328499D02*
X150100D01*
X124963Y327599D02*
X150100D01*
X124963Y326699D02*
X150100D01*
X124963Y325799D02*
X150100D01*
X124963Y324899D02*
X150100D01*
X124963Y323999D02*
X150100D01*
X124963Y323099D02*
X150100D01*
X124963Y322199D02*
X150100D01*
X124963Y321299D02*
X150100D01*
X124963Y320399D02*
X150100D01*
X124963Y319499D02*
X150100D01*
X134833Y318599D02*
X150100D01*
X135764Y317699D02*
X150100D01*
X134852Y301499D02*
X149931D01*
X147304Y250199D02*
X149896D01*
X146112Y350099D02*
X149888D01*
X146225Y348299D02*
X149775D01*
X146294Y349199D02*
X149706D01*
X147568Y248399D02*
X149632D01*
X147630Y249299D02*
X149570D01*
X133055Y302399D02*
X149031D01*
X138320Y224099D02*
X148989D01*
X145520Y216899D02*
X148423D01*
X143971Y206999D02*
X148134D01*
X124963Y303299D02*
X148131D01*
X141920Y220499D02*
X148124D01*
X139220Y223199D02*
X147896D01*
X140412Y271799D02*
X147641D01*
X141020Y221399D02*
X147632D01*
X140120Y222299D02*
X147570D01*
X124963Y304199D02*
X147231D01*
X143650Y210599D02*
X146838D01*
X143071Y207899D02*
X146764D01*
X131800Y272699D02*
X146731D01*
X143462Y209699D02*
X146406D01*
X142748Y208799D02*
X146386D01*
X124963Y305099D02*
X146331D01*
X131800Y273599D02*
X145831D01*
X124963Y305999D02*
X145431D01*
X142917Y179099D02*
X145100D01*
X141834Y178199D02*
X145100D01*
X105100Y177299D02*
X145100D01*
X105100Y176399D02*
X145100D01*
X105100Y175499D02*
X145100D01*
X105100Y174599D02*
X145100D01*
X105100Y173699D02*
X145100D01*
X105100Y172799D02*
X145100D01*
X113144Y171899D02*
X145100D01*
X125762Y170999D02*
X145100D01*
X126194Y170099D02*
X145100D01*
X126214Y169199D02*
X145100D01*
X132566Y168299D02*
X145100D01*
X134618Y167399D02*
X145100D01*
X135792Y166499D02*
X145100D01*
X136618Y165599D02*
X145100D01*
X137224Y164699D02*
X145100D01*
X137669Y163799D02*
X145100D01*
X137979Y162899D02*
X145100D01*
X138172Y161999D02*
X145100D01*
X138256Y161099D02*
X145100D01*
X142834Y155699D02*
X145047D01*
X131800Y274499D02*
X144931D01*
X129900Y251099D02*
X144589D01*
X138236Y160199D02*
X144574D01*
X140772Y306899D02*
X144531D01*
X142261Y156599D02*
X144315D01*
X138109Y159299D02*
X144088D01*
X143569Y242999D02*
X144052D01*
X134820Y246599D02*
X144048D01*
X131800Y275399D02*
X144031D01*
X140935Y157499D02*
X143975D01*
X137871Y158399D02*
X143906D01*
X133920Y247499D02*
X143724D01*
X136762Y282599D02*
X143631D01*
X143463Y211499D02*
X143583D01*
X130620Y250199D02*
X143496D01*
X143078Y243899D02*
X143338D01*
X135720Y245699D02*
X143337D01*
X133020Y248399D02*
X143232D01*
X132016Y249299D02*
X143170D01*
X136576Y244799D02*
X143150D01*
X138553Y283499D02*
X142731D01*
X138222Y294299D02*
X142265D01*
X137194Y281699D02*
X142023D01*
X139285Y284399D02*
X141836D01*
X131800Y276299D02*
X141447D01*
X134577Y351899D02*
X141423D01*
X139625Y285299D02*
X141361D01*
X139026Y287999D02*
X141300D01*
X139512Y287099D02*
X141300D01*
X139694Y286199D02*
X141300D01*
X137977Y288899D02*
X141035D01*
X137214Y280799D02*
X140974D01*
X138077Y293399D02*
X140939D01*
X131800Y277199D02*
X140715D01*
X137100Y240299D02*
X140596D01*
X136836Y279899D02*
X140488D01*
X136184Y289799D02*
X140412D01*
X131800Y278099D02*
X140375D01*
X135626Y350999D02*
X140374D01*
X137819Y292499D02*
X140366D01*
X135466Y278999D02*
X140306D01*
X139704Y228599D02*
X140172D01*
X136904Y290699D02*
X140138D01*
X137436Y291599D02*
X140124D01*
X135885Y347399D02*
X140115D01*
X136112Y350099D02*
X139888D01*
X136225Y348299D02*
X139775D01*
X137008Y243899D02*
X139722D01*
X136294Y349199D02*
X139706D01*
X137100Y232199D02*
X139617D01*
X137100Y241199D02*
X139498D01*
X138611Y229499D02*
X139238D01*
X137100Y242999D02*
X139231D01*
X137100Y242099D02*
X139170D01*
X137100Y231299D02*
X139061D01*
X113904Y151199D02*
X138999D01*
X137100Y230399D02*
X138959D01*
X131800Y271799D02*
X138788D01*
X137510Y157499D02*
X138665D01*
X137117Y265499D02*
X138472D01*
X124963Y306899D02*
X137628D01*
X112811Y152099D02*
X137435D01*
X137006Y156599D02*
X137339D01*
X124963Y312299D02*
X137044D01*
X101900Y152999D02*
X136812D01*
X136322Y155699D02*
X136766D01*
X124963Y307799D02*
X136576D01*
X133983Y153899D02*
X136538D01*
X135381Y154799D02*
X136524D01*
X124963Y311399D02*
X136313D01*
X124963Y308699D02*
X136089D01*
X124963Y310499D02*
X135975D01*
X124963Y309599D02*
X135906D01*
X113956Y178199D02*
X135366D01*
X131800Y270899D02*
X134984D01*
X131800Y278999D02*
X134534D01*
X114449Y179099D02*
X134283D01*
X131800Y269999D02*
X133980D01*
X114498Y179999D02*
X133383D01*
X131800Y279899D02*
X133164D01*
X131800Y269099D02*
X133080D01*
X132669Y281699D02*
X132806D01*
X131800Y280799D02*
X132786D01*
X124963Y318599D02*
X132767D01*
X114498Y180899D02*
X132483D01*
X119363Y345599D02*
X132380D01*
X124963Y314999D02*
X132219D01*
X131800Y268199D02*
X132180D01*
X124963Y317699D02*
X131836D01*
X124963Y315899D02*
X131662D01*
X114498Y181799D02*
X131583D01*
X124963Y316799D02*
X131559D01*
X119487Y344699D02*
X131480D01*
X125207Y351899D02*
X131423D01*
X119126Y346499D02*
X130847D01*
X114498Y182699D02*
X130683D01*
X119505Y343799D02*
X130580D01*
X126016Y350999D02*
X130374D01*
X129900Y255599D02*
X130134D01*
X118766Y347399D02*
X130115D01*
X106241Y145799D02*
X130064D01*
X126248Y350099D02*
X129888D01*
X114498Y183599D02*
X129783D01*
X125472Y348299D02*
X129775D01*
X126102Y349199D02*
X129706D01*
X119418Y342899D02*
X129680D01*
X101900Y109799D02*
X129317D01*
X114498Y184499D02*
X128883D01*
X119220Y341999D02*
X128780D01*
X105962Y144899D02*
X128776D01*
X125836Y168299D02*
X128457D01*
X101900Y110699D02*
X128397D01*
X105028Y143999D02*
X128089D01*
X114498Y185399D02*
X127983D01*
X124963Y302399D02*
X127968D01*
X118904Y341099D02*
X127880D01*
X101900Y111599D02*
X127868D01*
X101900Y143099D02*
X127696D01*
X101900Y112499D02*
X127585D01*
X101900Y142199D02*
X127518D01*
X114498Y186299D02*
X127083D01*
X119045Y153899D02*
X127040D01*
X118453Y340199D02*
X126980D01*
X124466Y167399D02*
X126406D01*
X114498Y187199D02*
X126183D01*
X124963Y301499D02*
X126172D01*
X117835Y339299D02*
X126080D01*
X124963Y330299D02*
X125724D01*
X119828Y154799D02*
X125642D01*
X114498Y188099D02*
X125283D01*
X114498Y166499D02*
X125232D01*
X116993Y338399D02*
X125180D01*
X124963Y300599D02*
X125073D01*
X120197Y155699D02*
X124702D01*
X114498Y165599D02*
X124406D01*
X114498Y188999D02*
X124383D01*
X115784Y337499D02*
X124280D01*
X120291Y156599D02*
X124018D01*
X114498Y164699D02*
X123799D01*
X114498Y167399D02*
X123534D01*
X120137Y157499D02*
X123514D01*
X117827Y189899D02*
X123483D01*
X113573Y336599D02*
X123380D01*
X114498Y163799D02*
X123355D01*
X119692Y158399D02*
X123153D01*
X114498Y162899D02*
X123045D01*
X118748Y159299D02*
X122915D01*
X114498Y161999D02*
X122852D01*
X103321Y351899D02*
X122793D01*
X114449Y160199D02*
X122788D01*
X114498Y161099D02*
X122767D01*
X119360Y190799D02*
X122583D01*
X118262Y348299D02*
X122528D01*
X107475Y335699D02*
X122480D01*
X114261Y170999D02*
X122238D01*
X114498Y168299D02*
X122164D01*
X115220Y350999D02*
X121984D01*
X117576Y349199D02*
X121898D01*
X114498Y170099D02*
X121806D01*
X114498Y169199D02*
X121786D01*
X116632Y350099D02*
X121752D01*
X119980Y191699D02*
X121683D01*
X108339Y334799D02*
X121580D01*
X118035Y281699D02*
X121100D01*
X118600Y280799D02*
X121100D01*
X119010Y279899D02*
X121100D01*
X119290Y278999D02*
X121100D01*
X119454Y278099D02*
X121100D01*
X119511Y277199D02*
X121100D01*
X119462Y276299D02*
X121100D01*
X119306Y275399D02*
X121100D01*
X119035Y274499D02*
X121100D01*
X118635Y273599D02*
X121100D01*
X120254Y192599D02*
X120783D01*
X108942Y333899D02*
X120680D01*
X117267Y282599D02*
X120583D01*
X118083Y272699D02*
X120280D01*
X109359Y332999D02*
X119916D01*
X116190Y283499D02*
X119863D01*
X109627Y332099D02*
X119598D01*
X114451Y284399D02*
X119584D01*
X109764Y331199D02*
X119563D01*
X109777Y330299D02*
X119563D01*
X109774Y329399D02*
X119563D01*
X109774Y328499D02*
X119563D01*
X109774Y327599D02*
X119563D01*
X109774Y326699D02*
X119563D01*
X109774Y325799D02*
X119563D01*
X109774Y324899D02*
X119563D01*
X109774Y323999D02*
X119563D01*
X109774Y323099D02*
X119563D01*
X109774Y322199D02*
X119563D01*
X109774Y321299D02*
X119563D01*
X109774Y320399D02*
X119563D01*
X109774Y319499D02*
X119563D01*
X109774Y318599D02*
X119563D01*
X109774Y317699D02*
X119563D01*
X109774Y316799D02*
X119563D01*
X109774Y315899D02*
X119563D01*
X109774Y314999D02*
X119563D01*
X109774Y314099D02*
X119563D01*
X109774Y313199D02*
X119563D01*
X109774Y312299D02*
X119563D01*
X109774Y311399D02*
X119563D01*
X109774Y310499D02*
X119563D01*
X109774Y309599D02*
X119563D01*
X109774Y308699D02*
X119563D01*
X109774Y307799D02*
X119563D01*
X109774Y306899D02*
X119563D01*
X109774Y305999D02*
X119563D01*
X109774Y305099D02*
X119563D01*
X109774Y304199D02*
X119563D01*
X109774Y303299D02*
X119563D01*
X119152Y302399D02*
X119563D01*
X119148Y298799D02*
X119563D01*
X113207Y297899D02*
X119563D01*
X114016Y296999D02*
X119563D01*
X114248Y296099D02*
X119563D01*
X114102Y295199D02*
X119563D01*
X113472Y294299D02*
X119563D01*
X107762Y293399D02*
X119563D01*
X108194Y292499D02*
X119563D01*
X108214Y291599D02*
X119563D01*
X107836Y290699D02*
X119563D01*
X106466Y289799D02*
X119563D01*
X101900Y288899D02*
X119563D01*
X101900Y287999D02*
X119563D01*
X101900Y287099D02*
X119563D01*
X101900Y286199D02*
X119563D01*
X101900Y285299D02*
X119563D01*
X117333Y271799D02*
X119380D01*
X116285Y270899D02*
X118480D01*
X114627Y269999D02*
X117691D01*
X101900Y269099D02*
X117346D01*
X101900Y197099D02*
X117302D01*
X101900Y268199D02*
X117300D01*
X101900Y267299D02*
X117300D01*
X101902Y266399D02*
X117300D01*
X111678Y265499D02*
X117300D01*
X116828Y260999D02*
X117300D01*
X109384Y260099D02*
X117300D01*
X109641Y259199D02*
X117300D01*
X109769Y258299D02*
X117300D01*
X109774Y257399D02*
X117300D01*
X109774Y256499D02*
X117300D01*
X109774Y255599D02*
X117300D01*
X109774Y254699D02*
X117300D01*
X109774Y253799D02*
X117300D01*
X109774Y252899D02*
X117300D01*
X109774Y251999D02*
X117300D01*
X109774Y251099D02*
X117300D01*
X109774Y250199D02*
X117300D01*
X109774Y249299D02*
X117300D01*
X109774Y248399D02*
X117300D01*
X109774Y247499D02*
X117300D01*
X109774Y246599D02*
X117300D01*
X109774Y245699D02*
X117300D01*
X109774Y244799D02*
X117300D01*
X109774Y243899D02*
X117300D01*
X109774Y242999D02*
X117300D01*
X109774Y242099D02*
X117300D01*
X109774Y241199D02*
X117300D01*
X109774Y240299D02*
X117300D01*
X109774Y239399D02*
X117300D01*
X109774Y238499D02*
X117300D01*
X109774Y237599D02*
X117300D01*
X109774Y236699D02*
X117300D01*
X109774Y235799D02*
X117300D01*
X109774Y234899D02*
X117300D01*
X109774Y233999D02*
X117300D01*
X109774Y233099D02*
X117300D01*
X109774Y232199D02*
X117300D01*
X109774Y231299D02*
X117300D01*
X109774Y230399D02*
X117300D01*
X109759Y229499D02*
X117300D01*
X109622Y228599D02*
X117300D01*
X109334Y227699D02*
X117300D01*
X108869Y226799D02*
X117300D01*
X108167Y225899D02*
X117300D01*
X107074Y224999D02*
X117300D01*
X104348Y224099D02*
X117300D01*
X102257Y223199D02*
X117300D01*
X101916Y222299D02*
X117300D01*
X101900Y221399D02*
X117300D01*
X101900Y220499D02*
X117300D01*
X101900Y219599D02*
X117300D01*
X101900Y218699D02*
X117300D01*
X101900Y217799D02*
X117300D01*
X101900Y216899D02*
X117300D01*
X101900Y215999D02*
X117300D01*
X101900Y215099D02*
X117300D01*
X101900Y214199D02*
X117300D01*
X101900Y213299D02*
X117300D01*
X101900Y212399D02*
X117300D01*
X101900Y211499D02*
X117300D01*
X101900Y210599D02*
X117300D01*
X101900Y209699D02*
X117300D01*
X101900Y208799D02*
X117300D01*
X101900Y207899D02*
X117300D01*
X101900Y206999D02*
X117300D01*
X101900Y206099D02*
X117300D01*
X101900Y205199D02*
X117300D01*
X101900Y204299D02*
X117300D01*
X101900Y203399D02*
X117300D01*
X101900Y202499D02*
X117300D01*
X101900Y201599D02*
X117300D01*
X101900Y200699D02*
X117300D01*
X101900Y199799D02*
X117300D01*
X101900Y198899D02*
X117300D01*
X101900Y197999D02*
X117300D01*
X108228Y298799D02*
X116452D01*
X109763Y302399D02*
X116448D01*
X114260Y189899D02*
X116119D01*
X109325Y196199D02*
X115763D01*
X108909Y299699D02*
X115738D01*
X109637Y301499D02*
X115737D01*
X109361Y300599D02*
X115550D01*
X113954Y159299D02*
X115198D01*
X110187Y153899D02*
X114901D01*
X108978Y260999D02*
X114772D01*
X113136Y190799D02*
X114587D01*
X110609Y195299D02*
X114479D01*
X110834Y158399D02*
X114254D01*
X112169Y264599D02*
X114217D01*
X110970Y154799D02*
X114118D01*
X111122Y191699D02*
X113967D01*
X111174Y194399D02*
X113915D01*
X110804Y261899D02*
X113838D01*
X111279Y157499D02*
X113809D01*
X111339Y155699D02*
X113749D01*
X111396Y192599D02*
X113692D01*
X111412Y193499D02*
X113676D01*
X112230Y263699D02*
X113661D01*
X111433Y156599D02*
X113655D01*
X111902Y262799D02*
X113559D01*
X101900Y152099D02*
X111189D01*
X107174Y297899D02*
X110793D01*
X101900Y294299D02*
X110528D01*
X101900Y148499D02*
X110324D01*
X101900Y151199D02*
X110096D01*
X106132Y336599D02*
X110049D01*
X104899Y296999D02*
X109984D01*
X101925Y295199D02*
X109898D01*
X101900Y149399D02*
X109832D01*
X101900Y150299D02*
X109770D01*
X102303Y296099D02*
X109752D01*
X108391Y261899D02*
X109196D01*
X101900Y284399D02*
X109171D01*
X101900Y269999D02*
X108995D01*
X102689Y350999D02*
X108402D01*
X102153Y265499D02*
X108322D01*
X107550Y262799D02*
X108098D01*
X103016Y337499D02*
X107838D01*
X103159Y264599D02*
X107831D01*
X106257Y263699D02*
X107770D01*
X101900Y283499D02*
X107432D01*
X101900Y270899D02*
X107337D01*
X102269Y350099D02*
X106990D01*
X104027Y196199D02*
X106905D01*
X102118Y338399D02*
X106630D01*
X101900Y282599D02*
X106355D01*
X101900Y271799D02*
X106289D01*
X102015Y349199D02*
X106046D01*
X104657Y153899D02*
X106043D01*
X101900Y339299D02*
X105787D01*
X104918Y195299D02*
X105621D01*
X101900Y281699D02*
X105587D01*
X101900Y272699D02*
X105539D01*
X101900Y289799D02*
X105534D01*
X101906Y348299D02*
X105360D01*
X105073Y154799D02*
X105260D01*
X101900Y340199D02*
X105169D01*
X101900Y280799D02*
X105022D01*
X101900Y273599D02*
X104987D01*
X101900Y347399D02*
X104856D01*
X101900Y341099D02*
X104718D01*
X101900Y279899D02*
X104612D01*
X101900Y274499D02*
X104588D01*
X101900Y346499D02*
X104496D01*
X101900Y341999D02*
X104402D01*
X103806Y103499D02*
X104397D01*
X101900Y278999D02*
X104332D01*
X101900Y275399D02*
X104316D01*
X101900Y345599D02*
X104259D01*
X101900Y293399D02*
X104238D01*
X101900Y342899D02*
X104204D01*
X101900Y278099D02*
X104168D01*
X101900Y290699D02*
X104164D01*
X101900Y276299D02*
X104160D01*
X101900Y344699D02*
X104135D01*
X101951Y107099D02*
X104125D01*
X101900Y343799D02*
X104117D01*
X101900Y277199D02*
X104111D01*
X101900Y292499D02*
X103806D01*
X101900Y291599D02*
X103786D01*
X103015Y104399D02*
X103585D01*
X102140Y106199D02*
X103497D01*
X102484Y105299D02*
X103352D01*
X101900Y143999D02*
X102972D01*
X101900Y147599D02*
X102417D01*
X101900Y144899D02*
X102038D01*
G54D11*
X184000Y132200D02*
X202800Y151000D01*
X271800*
X292600Y171800*
Y180600*
X265200Y133800D02*
Y136600D01*
X298800Y170200*
Y181000*
X307000Y132400D02*
X307800Y131600D01*
X358000*
X401800Y175400*
X439000*
X465600Y202000*
X483000*
X312200Y134400D02*
Y134800D01*
X358800*
X390200Y166200*
Y172400*
X375200Y143200D02*
X385600Y153600D01*
X398600*
X407400Y162400*
X418800*
X381000Y144200D02*
X388600Y151800D01*
X399200*
X406000Y158600*
X422200*
X139800Y154400D02*
X141600Y152600D01*
X252800*
X259000Y158800*
X242400Y157200D02*
X246100Y160900D01*
Y180300*
X315000Y173800D02*
X332200Y156600D01*
X336200*
X339200Y153600*
X345200*
X407000Y215400*
X446800*
X292600Y187200D02*
X298800Y181000D01*
X308000Y176400D02*
Y177600D01*
X310600Y180200*
X313600*
X315600Y178200*
X308000Y176400D02*
Y174400D01*
X313000Y169400*
X314600*
X314600*
X330600Y153400*
X334600*
X337600Y150400*
X346800*
X394200Y197800*
X425351*
X427600Y195551*
X310800Y176400D02*
Y174000D01*
X313800Y171000*
X315400*
X331400Y155000*
X335400*
X338400Y152000*
X346000*
X407800Y213800*
X439000*
X445000Y207800*
X470600*
X477600Y214800*
X317800Y158400D02*
Y151000D01*
X329400Y139400*
X361000*
X384000Y162400*
Y170200*
X397200Y183400*
X408000*
X413000Y188400*
X374400Y172200D02*
X378800D01*
X397800Y191200*
X419559*
X428200Y182559*
X394400Y156400D02*
X399000D01*
X409800Y167200*
X421000*
X123400Y227600D02*
X126400D01*
X135600Y218400*
Y212400*
X147200Y200800*
Y158200*
X270400Y226800D02*
X289600Y246000D01*
X310000*
X315800Y240200*
X332600*
X384600Y292200*
X391400*
X386200Y198600D02*
X387800D01*
X406200Y217000*
X438200*
X443400Y222200*
X459600*
X383200Y201400D02*
Y206200D01*
X383200*
X398000Y221000*
X428200*
X459600Y228800D02*
X467400Y236600D01*
X125000Y260400D02*
Y247600D01*
X129000Y243600*
X125000Y260400D02*
X129700Y265100D01*
Y281700*
X134000Y286000*
X136400*
X167400Y232800D02*
X168000Y233400D01*
X186000*
X225800Y193600*
Y188400*
X229200Y185000*
X231800*
X238200Y178600*
X246800Y241800D02*
Y235400D01*
X267000Y215200*
X269800*
X274400Y210600*
X260200Y267200D02*
X265800Y272800D01*
X265800*
X269200Y276200*
Y323400*
X317800Y245000D02*
X320000Y247200D01*
X330400*
X342400Y259200*
Y277000*
X368200Y302800*
X375000*
X378600Y299200*
X382000*
X313600Y248600D02*
X313800Y248800D01*
X329600*
X340800Y260000*
Y277800*
X367600Y304600*
X378800*
X308400Y258400D02*
X311400Y255400D01*
X333800*
X339200Y260800*
Y278600*
X368600Y308000*
X372400*
X343800Y239600D02*
Y249000D01*
X367000Y272200*
X375800*
X377000Y271000*
X327200Y261800D02*
X327600D01*
X331200D02*
X333200Y263800D01*
Y289200*
X335400Y261000D02*
X335400D01*
X337600Y263200*
Y276000*
X337600*
Y331600*
X387400Y257000D02*
X389800D01*
X421800Y289000*
X395600Y241600D02*
X406200Y252200D01*
X426000*
X391600Y254400D02*
X401600D01*
X442400Y295200*
X453000*
X404600Y237000D02*
X420800D01*
X461800Y278000*
X477000*
X400400Y240200D02*
X418000D01*
X431400Y253600*
Y268400*
X449400Y286400*
X433200Y233400D02*
X441200D01*
X466800Y259000*
X473000*
X453800Y233000D02*
X454000Y233200D01*
X159000Y287000D02*
X161000D01*
X212200Y235800*
Y222800*
X160000Y303800D02*
X168600Y295200D01*
X174000*
X183000Y286200*
X193000*
X230000Y249200*
Y225600*
X264000Y191600*
X265400*
X139200Y309800D02*
X144600D01*
X169800Y284600*
X192200*
X228400Y248400*
Y223000*
X251800Y199600*
Y195200*
X143600Y278800D02*
X149000Y273400D01*
X161400*
X190200Y244600*
X192000*
X200400Y236200*
Y221400*
X227100Y194700*
X231700*
X246100Y180300*
X143400Y291200D02*
Y285800D01*
X153600Y275600*
X161600*
X191000Y246200*
X194000*
X208800Y231400*
Y222200*
X213200Y217800*
X223800*
X250200Y191400*
X255000*
X180000Y306200D02*
Y305400D01*
X188000Y297400*
Y296000*
X194600Y289400*
X194600*
X233400Y250600*
Y227000*
X261400Y199000*
X268600*
X190400Y312200D02*
X195600D01*
X200000Y307800*
Y297000*
X211800Y285200*
X220600*
X236800Y269000*
Y230000*
X258200Y208600*
X222600Y300200D02*
X238600Y284200D01*
Y238800*
X267600Y209800*
X240200Y309800D02*
Y239600D01*
X266800Y213000*
X268400*
X271400Y210000*
Y209200*
X274400Y206200*
X240200Y309800D02*
X253800Y323400D01*
X253800*
X257000Y320000D02*
X246800Y309800D01*
Y296600*
X246800*
Y241800*
X253600Y284800D02*
Y282400D01*
X256400Y279600*
Y249400*
X271600Y234200*
Y232800*
X253600Y284800D02*
X258600Y289800D01*
Y291200*
X258600*
Y293400*
X256400Y283600D02*
X256400D01*
X267600Y294800*
Y321000*
X323600Y277600D02*
Y315200D01*
X328800Y320400*
X323600Y277600D02*
Y274800D01*
X323600*
Y265800*
X327600Y261800*
X424000Y284200D02*
X424000D01*
X429000Y289200*
Y290600*
X429000*
Y293600*
X155200Y340000D02*
X152200Y337000D01*
Y317200*
X158000Y311400*
X166400*
X170000Y307800*
Y306200*
X175800Y300400*
X177800*
X181400Y296800*
Y296000*
X189600Y287800*
X193800*
X231800Y249800*
Y226200*
X263600Y194400*
X273000*
X160800Y319600D02*
X168200D01*
X180000Y307800*
Y306200*
X162600Y323800D02*
X166400D01*
X177300Y312900*
X184900*
X190800Y307000*
Y301800*
X196400Y296200*
Y290000*
X235200Y251200*
Y227600*
X261000Y201800*
X265200*
X277000Y334200D02*
Y270400D01*
X289000Y258400*
X289000*
X296200Y251200*
X277600Y338800D02*
X280800Y335600D01*
Y272400*
X296800Y256400*
X258000Y334600D02*
X269200Y323400D01*
X282400Y323800D02*
Y327400D01*
X301600Y346600*
X282400Y323800D02*
Y319800D01*
X284000Y318200*
X285000*
X298400Y304800*
Y261400*
X302600Y257200*
X285200Y321000D02*
Y320400D01*
X313200Y292400*
Y258200*
X254200Y336400D02*
Y334400D01*
X267600Y321000*
X288000Y324200D02*
Y320000D01*
X319800Y288200*
Y258200*
X323800Y321000D02*
X326000Y323200D01*
X330000*
X332000Y321200*
Y321000*
X287400Y324800D02*
X288000Y324200D01*
X295400Y316800D02*
X299200D01*
X321600Y294400*
Y264600*
X324000Y262200*
Y258800*
X335000Y334200D02*
X337600Y331600D01*
X330600Y314400D02*
X332000Y315800D01*
Y321000*
X330600Y314400D02*
Y295600D01*
X330600*
Y291800*
X333200Y289200*
G54D36*
X304600Y118400D02*
X366000D01*
X380600Y133000*
X388000*
X395000Y140000D02*
X421600D01*
X422800Y141200*
X423000*
X388000Y133000D02*
X395000Y140000D01*
X388000Y147000*
X139200Y166800D02*
Y161200D01*
X145600Y154800*
X174900*
X174400Y191000D02*
X199600Y165800D01*
X174900Y154800D02*
X188600D01*
X199600Y165800*
X171200Y168600D02*
X171300D01*
X174900Y165000*
Y154800*
X199600Y165800D02*
X234200D01*
X242400Y174000*
Y180000*
X237600Y184800*
X256800Y167200D02*
X277600D01*
X278400Y168000*
X285800Y175400*
Y191200*
X292200Y197600*
X311600*
X315800Y193400*
X340400Y156400D02*
X348800Y164800D01*
Y174600*
X370669Y187953D02*
X375400Y192683D01*
Y223200*
X428200Y178200D02*
X430000D01*
X432600Y180800*
Y196600*
X120000Y227600D02*
Y197200D01*
X136600Y180600*
X140600*
X143000Y183000*
X144400*
X120000Y227600D02*
Y268600D01*
X123800Y272400*
Y277165*
X166600Y203200D02*
Y168000D01*
X171000Y163600*
X166600Y203200D02*
X172600Y209200D01*
X172600*
X176000*
X202200Y183000*
X203400Y226400D02*
Y221600D01*
X221400Y203600*
X225600*
X226800Y204800*
X232000*
X249600Y187200*
Y174400*
X256800Y167200*
X190600Y216600D02*
X192000D01*
X220200Y188400*
Y183800*
X315800Y193400D02*
X330000D01*
X345600Y226800D02*
X330000D01*
Y193400*
X348800Y174600*
X345600Y226800D02*
X361000D01*
X364600Y223200*
X375400*
X389000Y236800*
X405800Y205400D02*
X423800D01*
X432600Y196600*
X127200Y257800D02*
Y249800D01*
X130000Y247000*
X130600*
X134400Y243200*
Y224200*
X144600Y214000*
X150000*
X127200Y257800D02*
Y259400D01*
X136400Y268600*
X139600*
X131200Y250800D02*
X137800D01*
X138000Y250600*
Y240800*
X155800Y223000*
X184200*
X190600Y216600*
X137800Y250800D02*
X143000Y256000D01*
Y268600*
X198600Y265400D02*
Y264600D01*
X214400Y248800*
X214400*
X218200Y245000*
X224600*
X306600Y243200D02*
Y241200D01*
X312200Y235600*
X312200*
X321000Y226800*
X330000*
X390500Y266500D02*
X396800Y272800D01*
Y275400*
X389000Y236800D02*
X396000D01*
X403200Y229600*
X450400*
X453800Y233000*
X390500Y266500D02*
X382600Y258600D01*
Y243200*
X389000Y236800*
X467400Y244800D02*
X473400D01*
X485000Y233200*
X454000D02*
X465600Y244800D01*
X467400*
X122263Y295079D02*
Y331663D01*
X134400Y343800*
X185600*
X194600Y352800*
X332400*
X335000Y350200*
X122263Y295079D02*
Y284737D01*
X123800Y283200*
Y277165*
X140000Y291200D02*
Y275200D01*
X143000Y272200*
Y268600*
X140000Y291200D02*
Y292800D01*
X141800Y294600*
X145000*
X160000Y279600*
Y278600*
X249400Y279200D02*
Y304000D01*
X260800Y315400*
X252800Y279200D02*
X249400D01*
Y243600*
X250000Y243000*
X250000*
X375200Y275400D02*
X381600D01*
X390500Y266500*
X226800Y326200D02*
X201200D01*
Y313400*
X171200Y329200D02*
X174400Y332400D01*
X195000*
X201200Y326200*
X227200Y321400D02*
X240200D01*
X245600Y326800*
X255400*
X260800Y321400*
Y315400*
X226800Y326200D02*
X239000D01*
X262200Y349400*
X279400*
X295200*
X295800Y350000*
X304000*
X308600Y345400*
X321000Y346400D02*
X332000D01*
X337800Y340600*
X363000*
X367600Y345200*
X401200*
X407400Y339000*
Y307600*
X412800Y302200*
X308600Y337400D02*
X318200D01*
X320200Y339400*
X333400*
X333408Y339392*
X335000*
X342600Y331792*
Y329800*
X346500Y325900*
X351800Y320600*
X374200*
X308600Y345400D02*
Y337400D01*
X295200Y326200D02*
Y324000D01*
X299200Y320000*
X295200Y326200D02*
Y335400D01*
X300800Y341000*
X305200*
X298600Y326200D02*
X308600Y336200D01*
Y337400*
X390800Y320600D02*
X396800Y314600D01*
Y275400*
X390800Y320600D02*
X392000Y321800D01*
Y337000*
X388800Y340200D02*
X388800D01*
X392000Y337000*
X374200Y315400D02*
Y320600D01*
X390800*
G54D42*
G54D149*
X185600Y121600D03*
X184000Y132200D03*
X220200Y117800D03*
X265200Y133800D03*
X252400Y126400D03*
X307000Y132400D03*
X312200Y134400D03*
X304600Y118400D03*
X375200Y143200D03*
X381000Y144200D03*
X388000Y133000D03*
Y147000D03*
X423000Y141200D03*
X147200Y158200D03*
X139800Y154400D03*
X144400Y183000D03*
X139200Y166800D03*
X174400Y191000D03*
X171200Y168600D03*
X202200Y183000D03*
X171000Y163600D03*
X242400Y157200D03*
X238200Y178600D03*
X220200Y183800D03*
X237600Y184800D03*
X255000Y191400D03*
X265400Y191600D03*
X256800Y167200D03*
X278400Y168000D03*
X259000Y158800D03*
X315000Y173800D03*
X292600Y180600D03*
Y187200D03*
X310800Y176400D03*
X317800Y158400D03*
X315600Y178200D03*
X340400Y156400D03*
X390200Y172400D03*
X374400Y172200D03*
X394400Y156400D03*
X418800Y162400D03*
X421000Y167200D03*
X413000Y188400D03*
X422200Y158600D03*
X428200Y182559D03*
Y178200D03*
X447400Y170600D03*
X123400Y227600D03*
X150000Y214000D03*
X172600Y209200D03*
X203400Y226400D03*
X190600Y216600D03*
X212200Y222800D03*
X223200Y213000D03*
X233800Y213600D03*
X274400Y206200D03*
Y210600D03*
X273000Y194400D03*
X251800Y195200D03*
X270400Y226800D03*
X258200Y208600D03*
X268600Y199000D03*
X267600Y209800D03*
X265200Y201800D03*
X315800Y193400D03*
X295200Y221200D03*
X345600Y226800D03*
X386200Y198600D03*
X405800Y205400D03*
X383200Y201400D03*
X428200Y221000D03*
X446800Y215400D03*
X427600Y195551D03*
X459600Y222200D03*
Y228800D03*
X477600Y214800D03*
X131200Y250800D03*
X129000Y243600D03*
X139600Y268600D03*
X167400Y232800D03*
X198600Y265400D03*
X224600Y245000D03*
X271600Y232800D03*
X260200Y267200D03*
X250000Y243000D03*
X296200Y251200D03*
X324000Y258800D03*
X296800Y256400D03*
X313200Y258200D03*
X317800Y245000D03*
X313600Y248600D03*
X319800Y258200D03*
X302600Y257200D03*
X308400Y258400D03*
X306600Y243200D03*
X343800Y239600D03*
X327200Y261800D03*
X331200D03*
X335400Y261000D03*
X377000Y271000D03*
X387400Y257000D03*
X395600Y241600D03*
X391600Y254400D03*
X404600Y237000D03*
X396000Y236800D03*
X400400Y240200D03*
X382600Y258600D03*
X426000Y252200D03*
X433200Y233400D03*
X473000Y259000D03*
X467400Y236600D03*
X485000Y233200D03*
X467400Y244800D03*
X454000Y233200D03*
X159000Y287000D03*
X160000Y303800D03*
X139200Y309800D03*
X143600Y278800D03*
X136400Y286000D03*
X160000Y278600D03*
X143400Y291200D03*
X184600Y296800D03*
X190400Y312200D03*
X222600Y300200D03*
X258600Y293400D03*
X256400Y283600D03*
X252800Y279200D03*
X289600Y278000D03*
X375200Y275400D03*
X372400Y308000D03*
X391400Y292200D03*
X382000Y299200D03*
X378800Y304600D03*
X412800Y302200D03*
X429000Y293600D03*
X424000Y284200D03*
X421800Y289000D03*
X477000Y278000D03*
X449400Y286400D03*
X453000Y295200D03*
X155200Y340000D03*
X160800Y319600D03*
X162600Y323800D03*
X201200Y313400D03*
X171200Y329200D03*
X227200Y321400D03*
X226800Y326200D03*
X253800Y323400D03*
X257000Y320000D03*
X260800Y315400D03*
X277000Y334200D03*
X277600Y338800D03*
X258000Y334600D03*
X285200Y321000D03*
X254200Y336400D03*
X279400Y349400D03*
X321000Y346400D03*
X323800Y321000D03*
X287400Y324800D03*
X301600Y346600D03*
X305200Y341000D03*
X295400Y316800D03*
X299200Y320000D03*
X298600Y326200D03*
X328800Y320400D03*
X335000Y334200D03*
Y350200D03*
X388800Y340200D03*
X374200Y315400D03*
G54D167*
X370669Y187953D03*
X483000Y202000D03*
G74*
X0Y0D02*
M02*
