% M48 INCH,LZ
T1C.016F095S300
X010560Y010540
X015760Y011120
X016080Y010580
X017140Y011120
X018120Y011300
X018560Y012160
X020140Y012640
X020720Y011140
X021800Y011000
X021800Y012200
X021800Y012800
X022020Y011780
X022600Y010600
X024000Y010400
X024940Y011900
X025240Y012640
X025600Y010600
X025900Y011440
X026700Y011100
X027200Y010400
X028800Y010400
X030460Y011840
X030600Y010400
X031400Y011200
X032400Y010400
X034400Y010400
X034840Y012740
X035560Y012260
X036200Y010400
X036200Y012400
X037600Y011640
X040400Y012400
X043000Y014000
X042300Y014120
X040700Y014920
X038800Y013300
X038800Y014700
X038680Y014000
X038100Y014420
X037520Y014320
X037000Y013600
X033840Y014680
X033620Y014220
X033380Y015020
X032740Y014540
X032560Y015340
X031900Y014200
X031480Y014160
X031220Y013440
X030700Y013240
X030180Y013780
X029080Y012980
X026520Y013380
X025960Y014120
X025000Y013300
X024920Y014100
X021820Y014000
X020360Y013060
X018400Y013220
X018200Y013700
X015900Y014220
X015320Y014400
X011200Y015000
X010400Y014600
X012400Y016960
X013920Y016680
X013980Y015440
X014720Y015820
X016200Y017680
X016400Y015880
X017100Y016360
X017120Y016860
X017200Y017600
X018700Y015900
X022200Y015800
X022220Y016920
X022800Y015900
X022940Y017080
X023400Y017200
X023820Y017860
X024180Y016340
X024240Y015720
X025680Y016720
X025900Y015880
X026060Y017680
X026360Y017180
X027200Y017300
X027840Y016800
X028920Y017680
X028940Y017260
X029060Y015660
X029440Y016000
X029580Y017360
X030400Y017400
X031080Y017640
X031500Y017380
X031560Y017820
X031780Y015840
X032060Y017680
X032160Y015520
X033120Y017100
X033460Y017820
X033500Y017260
X033640Y015940
X033920Y017100
X034040Y015640
X034500Y016860
X035680Y017720
X037440Y017220
X038040Y016360
X039020Y017240
X039440Y015640
X040800Y016940
X041640Y015440
X041880Y016240
X042100Y016720
X042220Y015860
X042820Y017820
X043240Y015700
X044200Y017020
X044400Y015600
X044740Y017060
X045400Y017000
X046200Y017600
X046000Y020200
X045600Y018400
X044320Y019140
X044000Y020380
X042840Y018680
X042820Y018256
X042760Y019555
X042300Y019500
X042140Y018140
X041300Y018840
X040660Y018680
X040020Y020160
X038620Y019860
X038480Y018220
X038320Y020140
X036200Y019000
X035680Y018240
X033540Y019680
X033400Y018400
X032800Y018200
X032060Y018720
X031580Y019340
X031540Y020240
X030980Y018720
X030400Y018200
X029260Y018720
X029260Y018060
X029240Y019280
X027300Y019440
X026860Y019900
X026560Y018080
X026540Y019160
X026520Y020180
X025700Y018560
X025500Y019140
X025180Y019520
X023760Y018480
X022020Y018380
X021600Y018760
X020220Y018300
X019740Y018240
X019160Y018860
X017760Y018180
X017440Y019100
X017220Y018480
X015340Y018540
X015000Y018300
X014440Y018300
X014180Y019040
X014180Y020180
X013820Y018400
X013780Y020180
X013780Y019520
X013480Y019240
X013360Y020360
X012340Y022760
X012340Y022180
X012800Y021400
X012980Y021980
X013780Y022740
X014140Y021060
X014860Y020920
X014980Y022200
X015000Y021400
X016020Y022760
X017260Y020920
X017400Y022800
X017600Y021560
X018040Y021920
X018460Y021580
X018700Y022840
X019060Y021660
X019740Y021720
X020340Y022640
X021220Y022280
X022300Y020700
X022320Y021300
X023380Y021360
X025820Y020860
X026340Y022280
X026760Y020980
X027040Y022680
X027200Y021800
X027440Y021060
X027440Y020620
X027960Y022300
X028400Y022800
X028880Y021880
X028900Y021420
X029520Y022120
X029825Y021800
X030260Y021760
X030500Y022100
X031280Y022020
X031680Y022060
X032180Y021700
X032460Y022060
X033360Y020780
X033780Y021660
X033820Y020400
X033880Y022080
X034560Y022680
X039300Y020900
X040580Y020540
X042300Y022520
X042820Y022100
X044680Y021540
X045800Y021760
X045960Y022220
X045960Y022880
X047600Y020600
X047760Y021480
X048760Y021720
X048800Y023800
X048500Y023320
X046740Y023660
X046740Y024480
X046200Y024700
X045400Y024000
X045400Y023320
X043400Y023800
X043320Y023340
X042600Y025220
X042580Y023440
X040460Y023700
X040040Y024020
X039600Y023680
X039560Y024160
X037800Y023200
X037760Y025020
X036240Y025140
X036020Y024000
X034380Y023960
X034280Y023200
X032500Y025160
X032420Y024300
X032220Y023180
X031780Y024500
X031580Y023200
X031360Y024860
X030660Y024320
X030600Y025200
X029760Y024040
X029620Y025120
X028000Y024280
X028000Y023200
X027160Y023280
X026400Y023400
X025960Y025060
X025600Y023400
X025580Y024580
X025000Y024300
X024400Y024300
X022460Y024500
X020560Y023060
X019370Y024930
X019180Y023700
X019160Y024100
X017740Y023060
X017280Y024800
X016740Y023280
X016420Y022940
X016260Y025360
X016060Y024740
X015880Y024340
X015600Y024720
X015440Y024300
X015180Y024900
X014540Y024480
X014540Y024900
X014140Y024240
X014120Y023060
X013120Y025080
X012900Y024360
X012860Y023380
X011000Y026400
X011580Y026300
X013060Y025780
X013960Y026860
X014360Y027880
X015480Y027840
X016000Y027860
X016340Y026420
X016420Y025980
X016520Y027880
X018940Y026820
X019340Y025960
X019440Y027240
X019860Y026540
X021160Y025900
X022120Y027860
X022360Y027140
X022480Y026700
X025340Y026860
X026020Y026720
X026060Y027440
X028960Y027800
X029020Y026860
X029680Y025640
X030180Y026600
X030260Y025720
X030840Y025840
X031320Y025820
X031980Y025820
X032400Y025880
X032720Y026180
X032800Y027000
X033120Y026180
X033540Y026100
X034600Y026160
X036260Y025760
X037520Y027540
X037700Y027100
X037720Y026560
X037740Y025600
X038260Y025860
X038740Y025700
X039160Y025440
X040000Y025720
X042400Y027000
X042400Y026200
X043200Y027800
X043700Y025940
X044400Y026800
X044700Y025920
X045000Y027800
X046200Y026800
X047300Y025900
X047400Y027000
X047700Y027800
X048600Y027000
X048600Y028200
X048400Y029600
X047200Y028800
X046400Y029600
X046200Y028600
X045300Y029520
X044940Y028640
X042900Y029360
X042820Y030380
X042600Y030000
X042400Y028420
X042180Y028900
X041280Y030220
X040800Y029000
X040800Y029800
X040800Y028000
X040200Y028600
X040100Y029480
X039140Y029220
X039080Y028800
X038200Y029920
X036800Y028400
X036200Y028440
X033340Y029540
X033040Y028640
X032800Y028000
X032640Y029680
X029560Y029620
X026120Y029700
X025860Y029340
X025640Y028360
X025540Y029680
X025280Y028840
X025280Y027920
X022260Y030020
X022180Y029000
X021800Y028140
X021800Y029400
X021080Y029020
X021000Y029700
X019140Y028140
X019140Y029720
X018460Y029680
X017800Y029620
X017280Y029140
X017200Y028020
X016000Y030380
X015900Y028700
X015460Y029480
X014340Y029120
X013640Y028600
X013500Y028120
X011780Y030060
X011200Y029600
X010600Y029200
X013380Y031660
X013920Y030980
X015500Y030400
X015500Y032480
X015500Y031880
X015800Y031540
X015920Y032880
X016080Y031960
X016260Y032380
X016560Y031440
X017600Y032000
X017760Y032460
X019040Y031220
X020120Y031340
X020960Y031800
X021600Y032200
X021800Y031200
X022200Y030800
X022680Y032620
X022720Y032140
X022880Y031040
X025380Y032340
X025700Y032000
X026080Y031540
X026480Y031860
X028360Y031320
X028520Y032100
X028740Y032480
X029120Y030800
X029540Y031680
X029860Y032620
X029880Y031320
X029920Y032000
X032380Y032100
X032880Y032040
X033480Y031860
X035600Y031600
X036060Y031660
X036120Y030800
X037240Y030800
X037420Y031540
X037860Y031460
X037880Y030460
X038200Y032400
X038500Y032700
X038800Y032400
X039020Y031360
X042440Y030660
X043200Y032000
X043200Y032800
X046200Y031320
X048200Y032000
X048200Y033400
X048200Y034600
X046600Y034800
X045400Y034800
X045400Y033600
X044200Y034800
X044000Y033200
X041220Y033340
X039440Y034020
X038880Y034020
X038800Y033000
X038200Y033000
X036790Y034000
X035480Y033500
X034680Y033200
X034660Y033720
X033500Y033420
X033500Y035020
X032840Y033080
X032800Y033500
X032360Y033600
X032100Y034640
X031500Y034100
X030520Y034100
X030160Y034660
X029880Y033400
X029120Y033080
X027940Y034940
X027920Y034260
X027760Y033880
X027700Y033420
X027300Y034100
X025800Y033460
X025680Y034940
X025420Y033640
X025380Y033080
X024960Y034560
X024100Y034800
X022720Y033400
X020960Y034540
X020200Y034800
X019600Y034400
X018600Y035200
X018080Y034980
X017760Y032900
X017720Y033640
X017120Y032920
X015520Y034000
X012740Y033180
X012400Y035000
T2C.02756F197S550
X041506Y031900
X042294Y031900
T3C.037F197S550
X023000Y020000
X023000Y018000
X023000Y019000
X032900Y011200
X033900Y011200
X034900Y011200
X035900Y011200
X036900Y011200
X037067Y019795
X037067Y018795
X045200Y020200
X048300Y020200
X048300Y021200
X045200Y021200
X037067Y020795
X037067Y021795
X037067Y022795
X037067Y023795
X037067Y024795
X022000Y024000
X022000Y025000
X022000Y023000
X016500Y030700
X017500Y030700
X018500Y030700
X019500Y030700
X020500Y030700
X037067Y025795
X037067Y026795
X037500Y035000
X036500Y035000
X035500Y035000
X034500Y035000
X017300Y034900
X016300Y034900
X015300Y034900
X014300Y034900
X013300Y034900
T4C.0374F197S550
X010811Y015649
X010811Y019311
X011697Y015649
X011697Y019311
X044252Y024370
T5C.039F197S550
X044547Y032047
X047008Y032047
X047008Y033031
X047008Y034016
X044547Y034016
T6C.125F035S794
X016693Y012756
X039134Y011181
X047008Y019055
X042480Y034409
X011181Y027717
X011181Y034409
T7C.12598F035S794
X013051Y016083
X013051Y029508
X037146Y029508
X037146Y016083
M30
