% M48 INCH,LZ
T1C.014F095S300
X011650Y011660
X014690Y012300
X016620Y011920
X016700Y012880
X017010Y010950
X019110Y012750
X020340Y011100
X021610Y013600
X019840Y013980
X018920Y014520
X018890Y014080
X018800Y013070
X018200Y014320
X017800Y014810
X017700Y013700
X017620Y014430
X017380Y013370
X017250Y015330
X017000Y014980
X016860Y014320
X016700Y013410
X016390Y013740
X016130Y013410
X016060Y015320
X015960Y013830
X015760Y015020
X015730Y014210
X015540Y013810
X014630Y014420
X014190Y014640
X013680Y013470
X011340Y014840
X010840Y016940
X013430Y015860
X015260Y016060
X016070Y016930
X016420Y016590
X016820Y016580
X016880Y015500
X018830Y015600
X019250Y015980
X019710Y015950
X021160Y016870
T2C.03346F197S550
X013700Y016500
X020500Y012700
T3C.03346F197S550
X011763Y012216
X011763Y014184
T4C.037F197S550
X010500Y010500
X011500Y010500
X012500Y010500
X013500Y010500
X014500Y010500
X015500Y010500
X016500Y010500
X017500Y010500
X018500Y010500
X019500Y010500
X020500Y010500
X021500Y011500
X022500Y012500
X023500Y013500
X023500Y017500
X022500Y017500
X021500Y017500
X020500Y017500
X019500Y017500
X018500Y017500
X017500Y017500
X016500Y017500
X015500Y017500
X014500Y017500
X013500Y017500
X012500Y017500
X011500Y017500
X010500Y017500
T5C.04528F139S550
X010700Y011822
X010700Y014578
T6C.2F000S000
X022400Y015500
M30
