G04 This is an RS-274x file exported by *
G04 gerbv version 2.6.1 *
G04 More information is available about gerbv at *
G04 http://gerbv.geda-project.org/ *
G04 --End of header info--*
%MOIN*%
%FSLAX34Y34*%
%IPPOS*%
%IN "KeyChainDevBoard.pcb"*%
G04 --Define apertures--*
%ADD10C,0.0010*%
%ADD11C,0.0100*%
G04 --Start main section--*
G54D10*
G01X0010000Y0010500D02*
G75*
G03X0010500Y0010000I0000500J0000000D01*
G01X0010000Y0010500D02*
G01X0010000Y0017500D01*
G01X0010500Y0018000D02*
G75*
G03X0010000Y0017500I0000000J-000500D01*
G01X0010500Y0018000D02*
G01X0023500Y0018000D01*
G01X0024000Y0017500D02*
G75*
G03X0023500Y0018000I-000500J0000000D01*
G01X0024000Y0017500D02*
G01X0024000Y0013457D01*
G01X0023854Y0013104D02*
G75*
G03X0024000Y0013457I-000354J0000353D01*
G01X0023854Y0013104D02*
G01X0020896Y0010146D01*
G01X0020543Y0010000D02*
G75*
G03X0020896Y0010146I0000000J0000500D01*
G01X0020543Y0010000D02*
G01X0010500Y0010000D01*
G01X0010000Y0017500D02*
G01X0010000Y0017500D01*
G01X0024000Y0017500D02*
G01X0024000Y0017500D01*
G01X0020543Y0010000D02*
G01X0020543Y0010000D01*
G01X0023500Y0018000D02*
G01X0023500Y0018000D01*
G54D11*
G01X0010000Y0018980D02*
G01X0015223Y0018980D01*
G01X0010000Y0018980D02*
G01X0011000Y0019230D01*
G01X0011000Y0019230D02*
G01X0011000Y0018730D01*
G01X0011000Y0018730D02*
G01X0010000Y0018980D01*
G01X0024000Y0018980D02*
G01X0018777Y0018980D01*
G01X0024000Y0018980D02*
G01X0023000Y0018730D01*
G01X0023000Y0018730D02*
G01X0023000Y0019230D01*
G01X0023000Y0019230D02*
G01X0024000Y0018980D01*
G01X0010000Y0018000D02*
G01X0010000Y0019480D01*
G01X0024000Y0018000D02*
G01X0024000Y0019480D01*
G01X0015523Y0019136D02*
G01X0015568Y0019168D01*
G01X0015568Y0019168D02*
G01X0015636Y0019261D01*
G01X0015636Y0019261D02*
G01X0015636Y0018605D01*
G01X0016068Y0019261D02*
G01X0015841Y0018824D01*
G01X0015841Y0018824D02*
G01X0016182Y0018824D01*
G01X0016068Y0019261D02*
G01X0016068Y0018605D01*
G01X0016523Y0019261D02*
G01X0016455Y0019230D01*
G01X0016455Y0019230D02*
G01X0016409Y0019136D01*
G01X0016409Y0019136D02*
G01X0016386Y0018980D01*
G01X0016386Y0018980D02*
G01X0016386Y0018886D01*
G01X0016386Y0018886D02*
G01X0016409Y0018730D01*
G01X0016409Y0018730D02*
G01X0016455Y0018636D01*
G01X0016455Y0018636D02*
G01X0016523Y0018605D01*
G01X0016523Y0018605D02*
G01X0016568Y0018605D01*
G01X0016568Y0018605D02*
G01X0016636Y0018636D01*
G01X0016636Y0018636D02*
G01X0016682Y0018730D01*
G01X0016682Y0018730D02*
G01X0016705Y0018886D01*
G01X0016705Y0018886D02*
G01X0016705Y0018980D01*
G01X0016705Y0018980D02*
G01X0016682Y0019136D01*
G01X0016682Y0019136D02*
G01X0016636Y0019230D01*
G01X0016636Y0019230D02*
G01X0016568Y0019261D01*
G01X0016568Y0019261D02*
G01X0016523Y0019261D01*
G01X0017046Y0019261D02*
G01X0016977Y0019230D01*
G01X0016977Y0019230D02*
G01X0016932Y0019136D01*
G01X0016932Y0019136D02*
G01X0016909Y0018980D01*
G01X0016909Y0018980D02*
G01X0016909Y0018886D01*
G01X0016909Y0018886D02*
G01X0016932Y0018730D01*
G01X0016932Y0018730D02*
G01X0016977Y0018636D01*
G01X0016977Y0018636D02*
G01X0017046Y0018605D01*
G01X0017046Y0018605D02*
G01X0017091Y0018605D01*
G01X0017091Y0018605D02*
G01X0017159Y0018636D01*
G01X0017159Y0018636D02*
G01X0017205Y0018730D01*
G01X0017205Y0018730D02*
G01X0017227Y0018886D01*
G01X0017227Y0018886D02*
G01X0017227Y0018980D01*
G01X0017227Y0018980D02*
G01X0017205Y0019136D01*
G01X0017205Y0019136D02*
G01X0017159Y0019230D01*
G01X0017159Y0019230D02*
G01X0017091Y0019261D01*
G01X0017091Y0019261D02*
G01X0017046Y0019261D01*
G01X0017432Y0019043D02*
G01X0017432Y0018605D01*
G01X0017432Y0018918D02*
G01X0017500Y0019011D01*
G01X0017500Y0019011D02*
G01X0017546Y0019043D01*
G01X0017546Y0019043D02*
G01X0017614Y0019043D01*
G01X0017614Y0019043D02*
G01X0017659Y0019011D01*
G01X0017659Y0019011D02*
G01X0017682Y0018918D01*
G01X0017682Y0018918D02*
G01X0017682Y0018605D01*
G01X0017682Y0018918D02*
G01X0017750Y0019011D01*
G01X0017750Y0019011D02*
G01X0017796Y0019043D01*
G01X0017796Y0019043D02*
G01X0017864Y0019043D01*
G01X0017864Y0019043D02*
G01X0017909Y0019011D01*
G01X0017909Y0019011D02*
G01X0017932Y0018918D01*
G01X0017932Y0018918D02*
G01X0017932Y0018605D01*
G01X0018136Y0019261D02*
G01X0018159Y0019230D01*
G01X0018159Y0019230D02*
G01X0018182Y0019261D01*
G01X0018182Y0019261D02*
G01X0018159Y0019293D01*
G01X0018159Y0019293D02*
G01X0018136Y0019261D01*
G01X0018159Y0019043D02*
G01X0018159Y0018605D01*
G01X0018386Y0019261D02*
G01X0018386Y0018605D01*
G01X0026070Y0010000D02*
G01X0026070Y0013325D01*
G01X0026070Y0010000D02*
G01X0025820Y0011000D01*
G01X0025820Y0011000D02*
G01X0026320Y0011000D01*
G01X0026320Y0011000D02*
G01X0026070Y0010000D01*
G01X0026070Y0018000D02*
G01X0026070Y0014675D01*
G01X0026070Y0018000D02*
G01X0026320Y0017000D01*
G01X0026320Y0017000D02*
G01X0025820Y0017000D01*
G01X0025820Y0017000D02*
G01X0026070Y0018000D01*
G01X0021043Y0010000D02*
G01X0026570Y0010000D01*
G01X0024000Y0018000D02*
G01X0026570Y0018000D01*
G01X0024877Y0014281D02*
G01X0024809Y0014250D01*
G01X0024809Y0014250D02*
G01X0024786Y0014188D01*
G01X0024786Y0014188D02*
G01X0024786Y0014125D01*
G01X0024786Y0014125D02*
G01X0024809Y0014063D01*
G01X0024809Y0014063D02*
G01X0024854Y0014031D01*
G01X0024854Y0014031D02*
G01X0024945Y0014000D01*
G01X0024945Y0014000D02*
G01X0025013Y0013969D01*
G01X0025013Y0013969D02*
G01X0025059Y0013906D01*
G01X0025059Y0013906D02*
G01X0025081Y0013844D01*
G01X0025081Y0013844D02*
G01X0025081Y0013750D01*
G01X0025081Y0013750D02*
G01X0025059Y0013688D01*
G01X0025059Y0013688D02*
G01X0025036Y0013656D01*
G01X0025036Y0013656D02*
G01X0024968Y0013625D01*
G01X0024968Y0013625D02*
G01X0024877Y0013625D01*
G01X0024877Y0013625D02*
G01X0024809Y0013656D01*
G01X0024809Y0013656D02*
G01X0024786Y0013688D01*
G01X0024786Y0013688D02*
G01X0024763Y0013750D01*
G01X0024763Y0013750D02*
G01X0024763Y0013844D01*
G01X0024763Y0013844D02*
G01X0024786Y0013906D01*
G01X0024786Y0013906D02*
G01X0024831Y0013969D01*
G01X0024831Y0013969D02*
G01X0024900Y0014000D01*
G01X0024900Y0014000D02*
G01X0024991Y0014031D01*
G01X0024991Y0014031D02*
G01X0025036Y0014063D01*
G01X0025036Y0014063D02*
G01X0025059Y0014125D01*
G01X0025059Y0014125D02*
G01X0025059Y0014188D01*
G01X0025059Y0014188D02*
G01X0025036Y0014250D01*
G01X0025036Y0014250D02*
G01X0024968Y0014281D01*
G01X0024968Y0014281D02*
G01X0024877Y0014281D01*
G01X0025422Y0014281D02*
G01X0025354Y0014250D01*
G01X0025354Y0014250D02*
G01X0025309Y0014156D01*
G01X0025309Y0014156D02*
G01X0025286Y0014000D01*
G01X0025286Y0014000D02*
G01X0025286Y0013906D01*
G01X0025286Y0013906D02*
G01X0025309Y0013750D01*
G01X0025309Y0013750D02*
G01X0025354Y0013656D01*
G01X0025354Y0013656D02*
G01X0025422Y0013625D01*
G01X0025422Y0013625D02*
G01X0025468Y0013625D01*
G01X0025468Y0013625D02*
G01X0025536Y0013656D01*
G01X0025536Y0013656D02*
G01X0025581Y0013750D01*
G01X0025581Y0013750D02*
G01X0025604Y0013906D01*
G01X0025604Y0013906D02*
G01X0025604Y0014000D01*
G01X0025604Y0014000D02*
G01X0025581Y0014156D01*
G01X0025581Y0014156D02*
G01X0025536Y0014250D01*
G01X0025536Y0014250D02*
G01X0025468Y0014281D01*
G01X0025468Y0014281D02*
G01X0025422Y0014281D01*
G01X0025945Y0014281D02*
G01X0025877Y0014250D01*
G01X0025877Y0014250D02*
G01X0025831Y0014156D01*
G01X0025831Y0014156D02*
G01X0025809Y0014000D01*
G01X0025809Y0014000D02*
G01X0025809Y0013906D01*
G01X0025809Y0013906D02*
G01X0025831Y0013750D01*
G01X0025831Y0013750D02*
G01X0025877Y0013656D01*
G01X0025877Y0013656D02*
G01X0025945Y0013625D01*
G01X0025945Y0013625D02*
G01X0025991Y0013625D01*
G01X0025991Y0013625D02*
G01X0026059Y0013656D01*
G01X0026059Y0013656D02*
G01X0026104Y0013750D01*
G01X0026104Y0013750D02*
G01X0026127Y0013906D01*
G01X0026127Y0013906D02*
G01X0026127Y0014000D01*
G01X0026127Y0014000D02*
G01X0026104Y0014156D01*
G01X0026104Y0014156D02*
G01X0026059Y0014250D01*
G01X0026059Y0014250D02*
G01X0025991Y0014281D01*
G01X0025991Y0014281D02*
G01X0025945Y0014281D01*
G01X0026331Y0014063D02*
G01X0026331Y0013625D01*
G01X0026331Y0013938D02*
G01X0026399Y0014031D01*
G01X0026399Y0014031D02*
G01X0026445Y0014063D01*
G01X0026445Y0014063D02*
G01X0026513Y0014063D01*
G01X0026513Y0014063D02*
G01X0026559Y0014031D01*
G01X0026559Y0014031D02*
G01X0026581Y0013938D01*
G01X0026581Y0013938D02*
G01X0026581Y0013625D01*
G01X0026581Y0013938D02*
G01X0026650Y0014031D01*
G01X0026650Y0014031D02*
G01X0026695Y0014063D01*
G01X0026695Y0014063D02*
G01X0026763Y0014063D01*
G01X0026763Y0014063D02*
G01X0026809Y0014031D01*
G01X0026809Y0014031D02*
G01X0026831Y0013938D01*
G01X0026831Y0013938D02*
G01X0026831Y0013625D01*
G01X0027036Y0014281D02*
G01X0027059Y0014250D01*
G01X0027059Y0014250D02*
G01X0027081Y0014281D01*
G01X0027081Y0014281D02*
G01X0027059Y0014313D01*
G01X0027059Y0014313D02*
G01X0027036Y0014281D01*
G01X0027059Y0014063D02*
G01X0027059Y0013625D01*
G01X0027286Y0014281D02*
G01X0027286Y0013625D01*
M02*
