*
*
G04 PADS9.1 Build Number: 384028 generated Gerber (RS-274-X) file*
G04 PC Version=2.1*
*
%IN "KeyChainDevBoard.pcb"*%
*
%MOIN*%
*
%FSLAX35Y35*%
*
*
*
*
G04 PC Standard Apertures*
*
*
G04 Thermal Relief Aperture macro.*
%AMTER*
1,1,$1,0,0*
1,0,$1-$2,0,0*
21,0,$3,$4,0,0,45*
21,0,$3,$4,0,0,135*
%
*
*
G04 Annular Aperture macro.*
%AMANN*
1,1,$1,0,0*
1,0,$2,0,0*
%
*
*
G04 Odd Aperture macro.*
%AMODD*
1,1,$1,0,0*
1,0,$1-0.005,0,0*
%
*
*
G04 PC Custom Aperture Macros*
*
*
*
*
*
*
G04 PC Aperture Table*
*
%ADD010C,0.001*%
%ADD011C,0.008*%
%ADD036C,0.02*%
%ADD048C,0.07*%
%ADD146C,0.28*%
%ADD147C,0.04921*%
%ADD148C,0.06102*%
%ADD149C,0.032*%
%ADD150C,0.01*%
%ADD152C,0.028*%
*
*
*
*
G04 PC Circuitry*
G04 Layer Name KeyChainDevBoard.pcb - circuitry*
%LPD*%
*
*
G04 PC Custom Flashes*
G04 Layer Name KeyChainDevBoard.pcb - flashes*
%LPD*%
*
*
G04 PC Circuitry*
G04 Layer Name KeyChainDevBoard.pcb - circuitry*
%LPD*%
*
G54D10*
G54D11*
G01X107000Y118220D02*
X110937Y122157D01*
X117630*
X146900Y123000D02*
Y137100D01*
X144900Y107400D02*
X160200Y122700D01*
Y128700*
X164100Y132600*
Y137200*
X144900Y107400D02*
X145000Y107300D01*
Y105000*
X125000D02*
X131300Y111300D01*
X144200*
X157000Y124100*
Y135700*
X159600Y138300*
X115000Y105000D02*
X122900Y112900D01*
X143500*
X155400Y124800*
Y138100*
X135000Y105000D02*
X139700Y109700D01*
X144900*
X158600Y123400*
Y131400*
X161300Y134100*
X203400Y111000D02*
X173800D01*
Y133700*
X163400Y123800D02*
Y107200D01*
X165000*
Y105000*
X163400Y123800D02*
Y125200D01*
X167000Y128800*
X167000*
X170100Y109500D02*
X171600Y111000D01*
X173800*
X155000Y105000D02*
X161800Y111800D01*
Y128000*
X167000Y133200*
Y134100*
X107000Y145780D02*
X110937Y141843D01*
X117630*
X107000Y145780D02*
Y155200D01*
Y168000*
X108400Y169400*
X117630Y141843D02*
X119857D01*
X127000Y134700*
X136800*
X134300Y158600D02*
X136300Y160600D01*
X152600*
X136800Y134700D02*
X144500D01*
X146900Y137100*
X148800*
X153800Y142100*
X157300*
X177000Y137000D02*
X178800Y135200D01*
X215300*
X216100Y136000*
X163900Y137400D02*
X163900D01*
X164100Y137200*
X155400Y160700D02*
Y156100D01*
X157600Y153900*
Y150200*
X166547Y147200D02*
Y153053D01*
X168494Y155000*
X168800*
X166547Y147200D02*
Y145253D01*
X168600Y143200*
X188900Y140800D02*
X191600D01*
X206400Y155600*
Y158900*
X217700Y170200*
X230200*
X235000Y175000*
X188000Y130700D02*
X190000Y132700D01*
X217300*
X225000Y125000*
X172500Y153300D02*
X179000Y159800D01*
X192500*
X189200Y145200D02*
X193700D01*
X204800Y156300*
Y161900*
X211600Y168700*
X168600Y143200D02*
X168700D01*
X178300Y152800*
X192100*
X197950Y158650*
X191100Y127500D02*
X194650Y131050D01*
X207850*
X215000Y123900*
Y115000*
X178000Y148100D02*
X181100Y151200D01*
X192800*
X199900Y158300*
Y159500*
X176200Y144300D02*
X178600D01*
X183900Y149600*
X193500*
X201500Y157600*
Y171500*
X205000Y175000*
X170000Y149800D02*
X173000D01*
X179200Y156000*
X188300*
X157000Y163000D02*
Y156800D01*
X160600Y153200*
X182000Y143200D02*
X186800Y148000D01*
X194200*
X203100Y156900*
Y165300*
X212400Y174600*
X214600*
X215000Y175000*
X197100Y159500D02*
X197950Y158650D01*
X135000Y175000D02*
X143200Y166800D01*
X150400*
X155400Y161800*
Y160700*
X115000Y175000D02*
Y170800D01*
X131900Y153900*
X141300*
X146300Y148900*
Y144200*
X145000Y175000D02*
X157000Y163000D01*
X164200Y165900D02*
Y165800D01*
X167000Y163000*
X173000*
X185000Y175000*
X165000D02*
X168200Y171800D01*
Y165800*
X195000Y175000D02*
X195400D01*
X199900Y170500*
Y159500*
G54D36*
X166200Y119200D02*
X168200Y121200D01*
X168200*
X170400Y123400*
Y136500*
X113400Y148400D02*
X139700D01*
X141700Y146400*
X141900*
Y143700*
X144800Y140800*
X149000*
X154400Y146200*
X160700*
X164200Y161000D02*
X164200D01*
X170400Y136500D02*
X160700Y146200D01*
X160700*
X164200Y149700*
Y161000*
X170400Y136500D02*
X174300Y140400D01*
X179200*
X182200Y137400*
X196000*
X198400Y139800*
X160700Y169300D02*
Y166000D01*
X160700*
Y164500*
X164200Y161000*
G54D48*
X105000Y105000D03*
X225000Y175000D03*
X235000Y135000D03*
X125000Y175000D03*
X225000Y125000D03*
X145000Y105000D03*
X215000Y115000D03*
X135000Y105000D03*
X145000Y175000D03*
X165000Y105000D03*
X195000Y175000D03*
X205000D03*
Y105000D03*
X195000D03*
X165000Y175000D03*
X175000D03*
X185000D03*
X115000Y105000D03*
X235000Y175000D03*
X175000Y105000D03*
X155000D03*
X115000Y175000D03*
X135000D03*
X155000D03*
X125000Y105000D03*
X215000Y175000D03*
X185000Y105000D03*
X105000Y175000D03*
G54D146*
X224000Y155000D03*
G54D147*
X117630Y122157D03*
Y141843D03*
G54D148*
X107000Y118220D03*
Y145780D03*
G54D149*
X146900Y123000D03*
X116500Y116600D03*
X170100Y109500D03*
X166200Y119200D03*
X203400Y111000D03*
X113400Y148400D03*
X134300Y158600D03*
X136800Y134700D03*
X152600Y160600D03*
X141900Y146400D03*
X146300Y144200D03*
X177000Y137000D03*
X163900Y137400D03*
X161300Y134100D03*
X160600Y153200D03*
X157300Y142100D03*
X188900Y140800D03*
X167000Y134100D03*
X188000Y130700D03*
X172500Y153300D03*
X192500Y159800D03*
X157600Y150200D03*
X188300Y156000D03*
X155400Y138100D03*
X173800Y133700D03*
X189200Y145200D03*
X168600Y143200D03*
X191100Y127500D03*
X178000Y148100D03*
X176200Y144300D03*
X159600Y138300D03*
X170000Y149800D03*
X167000Y128800D03*
X168800Y155000D03*
X182000Y143200D03*
X198400Y139800D03*
X216100Y136000D03*
X197100Y159500D03*
X108400Y169400D03*
X164200Y165900D03*
X168200Y165800D03*
X160700Y169300D03*
X211600Y168700D03*
G54D150*
X238500Y138285D02*
Y171715D01*
X233028Y170624D02*
G75*
G03X238500Y171715I1972J4376D01*
G01X233028Y170624D02*
X231402Y168998D01*
X230200Y168500D02*
G03X231402Y168998I0J1700D01*
G01X230200Y168500D02*
X218404D01*
X208100Y158196*
Y155600*
X207602Y154398D02*
G03X208100Y155600I-1202J1202D01*
G01X207602Y154398D02*
X192904Y139700D01*
X195047*
X195525Y140177*
X198777Y136925D02*
G03X195525Y140177I-377J2875D01*
G01X198777Y136925D02*
X198753Y136900D01*
X213343*
X218281Y134089D02*
G03X213343Y136900I-2181J1911D01*
G01X218502Y133902D02*
G03X218281Y134088I-1202J-1202D01*
G01X218502Y133902D02*
X223028Y129376D01*
X229760Y124381D02*
G03X223028Y129376I-4760J619D01*
G01X229760Y124381D02*
X235619Y130240D01*
X238500Y138285D02*
G03X235619Y130240I-3500J-3285D01*
G01X231715Y178500D02*
G03X230624Y173028I3285J-3500D01*
G01X231715Y178500D02*
X228285D01*
X228665Y171900D02*
G03X228285Y178500I-3665J3100D01*
G01X228665Y171900D02*
X229496D01*
X230624Y173028*
X221715Y178500D02*
G03X221335Y171900I3285J-3500D01*
G01X221715Y178500D02*
X218285D01*
X218665Y171900D02*
G03X218285Y178500I-3665J3100D01*
G01X218665Y171900D02*
X221335D01*
X214430Y169334D02*
X215306Y170210D01*
X214018Y170302D02*
G03X215306Y170210I982J4698D01*
G01X214430Y169334D02*
G03X214018Y170302I-2830J-634D01*
G01X211715Y178500D02*
G03X210204Y174808I3285J-3500D01*
G01X211715Y178500D02*
X208285D01*
X209757Y174362D02*
G03X208285Y178500I-4757J638D01*
G01X209757Y174362D02*
X210204Y174808D01*
X203200Y167804D02*
X205638Y170243D01*
X203200Y170550D02*
G03X205638Y170243I1800J4450D01*
G01X203200Y170550D02*
Y167804D01*
X201715Y178500D02*
G03X200624Y173028I3285J-3500D01*
G01X201715Y178500D02*
X198285D01*
X199493Y173311D02*
G03X198285Y178500I-4493J1689D01*
G01X199493Y173311D02*
X200204Y172600D01*
X200298Y172702D02*
G03X200204Y172600I1202J-1202D01*
G01X200298Y172702D02*
X200624Y173028D01*
X191559Y130363D02*
X192196Y131000D01*
X190884*
Y130392D02*
G03Y131000I-2884J308D01*
G01X191559Y130363D02*
G03X190884Y130392I-459J-2863D01*
G01X191093Y142697D02*
X191896Y143500D01*
X191549*
X190929Y142872D02*
G03X191549Y143500I-1729J2328D01*
G01X191093Y142697D02*
G03X190929Y142872I-2193J-1897D01*
G01X187171Y143128D02*
G03X186217Y139700I1729J-2328D01*
G01X186302Y145098D02*
G03X187171Y143128I2898J102D01*
G01X186302Y145098D02*
X184863Y143659D01*
X182508Y140345D02*
G03X184863Y143659I-508J2855D01*
G01X182508Y140345D02*
X183153Y139700D01*
X186217*
X168100Y124353D02*
Y126117D01*
X166541Y125937D02*
G03X168100Y126117I459J2863D01*
G01X166541Y125937D02*
X165100Y124496D01*
Y123800*
Y121883*
X165823Y122075D02*
G03X165100Y121883I377J-2875D01*
G01X165823Y122075D02*
X166574Y122826D01*
X168100Y124353*
X198200Y159500D02*
Y169796D01*
X197241Y170755*
X191715Y178500D02*
G03X197241Y170755I3285J-3500D01*
G01X191715Y178500D02*
X188285D01*
X183028Y170624D02*
G03X188285Y178500I1972J4376D01*
G01X183028Y170624D02*
X174202Y161798D01*
X173000Y161300D02*
G03X174202Y161798I0J1700D01*
G01X173000Y161300D02*
X167000D01*
X166467Y161386D02*
G03X167000Y161300I533J1614D01*
G01X166500Y160991D02*
G03X166467Y161386I-2300J9D01*
G01X166500Y160991D02*
Y149700D01*
X165826Y148074D02*
G03X166500Y149700I-1626J1626D01*
G01X165826Y148074D02*
X163953Y146200D01*
X170400Y139753*
X172674Y142026*
X173816Y142649D02*
G03X172674Y142026I484J-2249D01*
G01X175295Y147055D02*
G03X173816Y142649I905J-2755D01*
G01X178459Y150963D02*
G03X175295Y147055I-459J-2863D01*
G01X178459Y150963D02*
X179898Y152402D01*
X181100Y152900D02*
G03X179898Y152402I0J-1700D01*
G01X181100Y152900D02*
X192096D01*
X198200Y159004*
Y159500*
X186300Y158100D02*
G03X185951Y157700I2000J-2100D01*
G01X186300Y158100D02*
X179704D01*
X179304Y157700*
X185951*
X181715Y178500D02*
G03X180624Y173028I3285J-3500D01*
G01X181715Y178500D02*
X178285D01*
X171715D02*
G03X178285I3285J-3500D01*
G01X171715D02*
X168285D01*
X169376Y173028D02*
G03X168285Y178500I-4376J1972D01*
G01X169376Y173028D02*
X169402Y173002D01*
X169900Y171800D02*
G03X169402Y173002I-1700J0D01*
G01X169900Y171800D02*
Y168149D01*
X170883Y164700D02*
G03X169900Y168149I-2683J1100D01*
G01X170883Y164700D02*
X172296D01*
X180624Y173028*
X166500Y168149D02*
Y170440D01*
X163342Y170495D02*
G03X166500Y170440I1658J4505D01*
G01X163542Y168724D02*
G03X163342Y170495I-2842J576D01*
G01X166252Y167949D02*
G03X163542Y168724I-2052J-2049D01*
G01X166500Y168149D02*
G03X166252Y167949I1700J-2349D01*
G01X160234Y148987D02*
X161813Y150566D01*
X160498Y150302D02*
G03X161813Y150566I102J2898D01*
G01X160234Y148987D02*
G03X160498Y150302I-2634J1213D01*
G01X161900Y155792D02*
Y160047D01*
X159074Y162874*
X158617Y163525D02*
G03X159074Y162874I2083J975D01*
G01X158700Y163000D02*
G03X158617Y163525I-1700J0D01*
G01X158700Y163000D02*
Y157504D01*
X160141Y156063*
X161900Y155792D02*
G03X160141Y156063I-1300J-2592D01*
G01X155900Y152549D02*
Y153196D01*
X154198Y154898*
X153700Y156100D02*
G03X154198Y154898I1700J-0D01*
G01X153700Y156100D02*
Y157917D01*
X150251Y158900D02*
G03X153700Y157917I2349J1700D01*
G01X150251Y158900D02*
X137184D01*
X134759Y161463D02*
G03X137184Y158900I-459J-2863D01*
G01X134759Y161463D02*
X135098Y161802D01*
X135878Y162247D02*
G03X135098Y161802I422J-1647D01*
G01X138245Y162300D02*
G03X135878Y162247I-1245J2700D01*
G01X138245Y162300D02*
X150251D01*
X151509Y163287D02*
G03X150251Y162300I1091J-2687D01*
G01X151509Y163287D02*
X149696Y165100D01*
X143200*
X141998Y165598D02*
G03X143200Y165100I1202J1202D01*
G01X141998Y165598D02*
X136972Y170624D01*
X131715Y178500D02*
G03X136972Y170624I3285J-3500D01*
G01X131715Y178500D02*
X118285D01*
X117375Y170829D02*
G03X118285Y178500I-2375J4171D01*
G01X117375Y170829D02*
X132604Y155600D01*
X141300*
X142502Y155102D02*
G03X141300Y155600I-1202J-1202D01*
G01X142502Y155102D02*
X147502Y150102D01*
X148000Y148900D02*
G03X147502Y150102I-1700J0D01*
G01X148000Y148900D02*
Y146549D01*
X149200Y144252D02*
G03X148000Y146549I-2900J-52D01*
G01X149200Y144252D02*
X152774Y147826D01*
X154400Y148500D02*
G03X152774Y147826I0J-2300D01*
G01X154400Y148500D02*
X155250D01*
X155900Y152549D02*
G03X155250Y148500I1700J-2349D01*
G01X161715Y178500D02*
G03X161124Y172169I3285J-3500D01*
G01X161715Y178500D02*
X158285D01*
X151715D02*
G03X158285I3285J-3500D01*
G01X151715D02*
X148285D01*
X149376Y173028D02*
G03X148285Y178500I-4376J1972D01*
G01X149376Y173028D02*
X158202Y164202D01*
X158526Y163750D02*
G03X158202Y164202I-1526J-750D01*
G01X158400Y164500D02*
G03X158526Y163750I2300J-0D01*
G01X158400Y164500D02*
Y166000D01*
Y167534*
X161124Y172169D02*
G03X158400Y167534I-424J-2869D01*
G01X108285Y101500D02*
X111715D01*
X110573Y106854D02*
G03X111715Y101500I4427J-1854D01*
G01X110573Y106854D02*
X109699Y105980D01*
X108285Y101500D02*
G03X109699Y105980I-3285J3500D01*
G01X143904Y168500D02*
X149096D01*
X146972Y170624*
X141715Y178500D02*
G03X146972Y170624I3285J-3500D01*
G01X141715Y178500D02*
X138285D01*
X139376Y173028D02*
G03X138285Y178500I-4376J1972D01*
G01X139376Y173028D02*
X143904Y168500D01*
X158285Y101500D02*
X161715D01*
X161700Y108486D02*
G03X161715Y101500I3300J-3486D01*
G01X161700Y108486D02*
Y109296D01*
X159376Y106972*
X158285Y101500D02*
G03X159376Y106972I-3285J3500D01*
G01X160100Y112504D02*
Y120196D01*
X148346Y108442*
X148285Y101500D02*
G03X148346Y108442I-3285J3500D01*
G01X148285Y101500D02*
X151715D01*
X156972Y109376D02*
G03X151715Y101500I-1972J-4376D01*
G01X156972Y109376D02*
X160100Y112504D01*
X138285Y101500D02*
X141715D01*
X141253Y108000D02*
G03X141715Y101500I3747J-3000D01*
G01X141253Y108000D02*
X140404D01*
X139376Y106972*
X138285Y101500D02*
G03X139376Y106972I-3285J3500D01*
G01X136972Y109376D02*
X137196Y109600D01*
X136371*
X136972Y109376D02*
G03X136371Y109600I-1972J-4376D01*
G01X133629D02*
G03X131715Y101500I1371J-4600D01*
G01X133629Y109600D02*
X132004D01*
X129376Y106972*
X128285Y101500D02*
G03X129376Y106972I-3285J3500D01*
G01X128285Y101500D02*
X131715D01*
X126972Y109376D02*
X128796Y111200D01*
X123604*
X119376Y106972*
X118285Y101500D02*
G03X119376Y106972I-3285J3500D01*
G01X118285Y101500D02*
X121715D01*
X126972Y109376D02*
G03X121715Y101500I-1972J-4376D01*
G01X163392Y140255D02*
G03X162138Y139703I508J-2855D01*
G01X163392Y140255D02*
X159747Y143900D01*
X155353*
X150626Y139174*
X149000Y138500D02*
G03X150626Y139174I0J2300D01*
G01X149000Y138500D02*
X144800D01*
X143174Y139174D02*
G03X144800Y138500I1626J1626D01*
G01X143174Y139174D02*
X140274Y142074D01*
X139600Y143700D02*
G03X140274Y142074I2300J0D01*
G01X139600Y143700D02*
Y144634D01*
X139067Y145780D02*
G03X139600Y144634I2833J620D01*
G01X139067Y145780D02*
X138747Y146100D01*
X115166*
Y150700D02*
G03Y146100I-1766J-2300D01*
G01Y150700D02*
X139700D01*
X141326Y150026D02*
G03X139700Y150700I-1626J-1626D01*
G01X141326Y150026D02*
X142057Y149296D01*
X144600Y147458D02*
G03X142057Y149296I-2700J-1058D01*
G01X144600Y147458D02*
Y148196D01*
X140596Y152200*
X131900*
X130698Y152698D02*
G03X131900Y152200I1202J1202D01*
G01X130698Y152698D02*
X113798Y169598D01*
X113326Y170501D02*
G03X113798Y169598I1674J299D01*
G01X111715Y178500D02*
G03X113326Y170501I3285J-3500D01*
G01X111715Y178500D02*
X108285D01*
X101500Y171715D02*
G03X108285Y178500I3500J3285D01*
G01X101500Y171715D02*
Y108285D01*
X105812Y109731D02*
G03X101500Y108285I-812J-4731D01*
G01X105812Y109731D02*
X113842Y117761D01*
X117661Y113942D02*
G03X113842Y117761I-1161J2658D01*
G01X117661Y113942D02*
X113146Y109427D01*
X116972Y109376D02*
G03X113146Y109427I-1972J-4376D01*
G01X116972Y109376D02*
X121698Y114102D01*
X122900Y114600D02*
G03X121698Y114102I0J-1700D01*
G01X122900Y114600D02*
X142796D01*
X153700Y125504*
Y135751*
X157405Y140195D02*
G03X153700Y135751I-2005J-2095D01*
G01X162138Y139703D02*
G03X157405Y140195I-2538J-1403D01*
G01X204800Y164304D02*
X208737Y168241D01*
X208707Y168503D02*
G03X208737Y168241I2893J197D01*
G01X208707Y168503D02*
X204800Y164596D01*
Y164304*
X209760Y104381D02*
X215619Y110240D01*
X213300Y119489D02*
G03X215619Y110240I1700J-4489D01*
G01X213300Y119489D02*
Y123196D01*
X207146Y129350*
X206821*
X203179D02*
G03X206821I1821J-2350D01*
G01X203179D02*
X195354D01*
X193963Y127959*
X188216Y127808D02*
G03X193963Y127959I2884J-308D01*
G01X187245Y133500D02*
G03X188216Y127808I755J-2800D01*
G01X187245Y133500D02*
X178800D01*
X177598Y133998D02*
G03X178800Y133500I1202J1202D01*
G01X177598Y133998D02*
X177459Y134137D01*
X174100Y136948D02*
G03X177459Y134137I2900J52D01*
G01X174100Y136948D02*
X172700Y135547D01*
Y123400*
X172026Y121774D02*
G03X172700Y123400I-1626J1626D01*
G01X172026Y121774D02*
X169826Y119574D01*
X169075Y118823*
X165100Y116517D02*
G03X169075Y118823I1100J2683D01*
G01X165100Y116517D02*
Y109799D01*
X168285Y101500D02*
G03X165100Y109799I-3285J3500D01*
G01X168285Y101500D02*
X171715D01*
X178285D02*
G03X171715I-3285J3500D01*
G01X178285D02*
X181715D01*
X188285D02*
G03X181715I-3285J3500D01*
G01X188285D02*
X191715D01*
X198285D02*
G03X191715I-3285J3500D01*
G01X198285D02*
X201715D01*
X209760Y104381D02*
G03X201715Y101500I-4760J619D01*
G01X219760Y114381D02*
X225619Y120240D01*
X220624Y126972D02*
G03X225619Y120240I4376J-1972D01*
G01X220624Y126972D02*
X216596Y131000D01*
X210304*
X216202Y125102*
X216700Y123900D02*
G03X216202Y125102I-1700J0D01*
G01X216700Y123900D02*
Y119489D01*
X219760Y114381D02*
G03X216700Y119489I-4760J619D01*
G01X190819Y157437D02*
G03X190151Y161500I1681J2363D01*
G01X185951Y154300D02*
G03X190819Y157437I2349J1700D01*
G01X185951Y154300D02*
X179904D01*
X174202Y148598*
X173000Y148100D02*
G03X174202Y148598I0J1700D01*
G01X173000Y148100D02*
X172349D01*
X169667Y152681D02*
G03X172349Y148100I333J-2881D01*
G01X172959Y156163D02*
G03X169667Y152681I-459J-2863D01*
G01X172959Y156163D02*
X177798Y161002D01*
X179000Y161500D02*
G03X177798Y161002I0J-1700D01*
G01X179000Y161500D02*
X190151D01*
X216700Y119599D02*
X224977D01*
X218059Y118699D02*
X224077D01*
X216700Y120499D02*
X223333D01*
X218900Y117799D02*
X223177D01*
X219409Y116899D02*
X222277D01*
X216700Y121399D02*
X221827D01*
X219695Y115999D02*
X221377D01*
X216700Y122299D02*
X221032D01*
X216700Y123199D02*
X220551D01*
X214506Y126799D02*
X220550D01*
X219799Y115099D02*
X220477D01*
X216688Y124099D02*
X220285D01*
X215406Y125899D02*
X220285D01*
X216297Y124999D02*
X220200D01*
X213606Y127699D02*
X219897D01*
X212706Y128599D02*
X218997D01*
X211806Y129499D02*
X218097D01*
X210906Y130399D02*
X217197D01*
X205981Y109699D02*
X215077D01*
X207934Y108799D02*
X214177D01*
X172419Y122299D02*
X213300D01*
X171651Y121399D02*
X213300D01*
X170751Y120499D02*
X213300D01*
X169851Y119599D02*
X213300D01*
X172691Y123199D02*
X213297D01*
X208826Y107899D02*
X213277D01*
X165100Y110599D02*
X213085D01*
X205650Y124099D02*
X212397D01*
X209364Y106999D02*
X212377D01*
X169056Y118699D02*
X211941D01*
X165100Y111499D02*
X211717D01*
X207199Y124999D02*
X211497D01*
X209673Y106099D02*
X211477D01*
X168739Y117799D02*
X211100D01*
X165100Y112399D02*
X210966D01*
X207762Y125899D02*
X210597D01*
X167965Y116899D02*
X210591D01*
X209796Y105199D02*
X210577D01*
X165100Y113299D02*
X210512D01*
X165100Y115999D02*
X210305D01*
X165100Y114199D02*
X210267D01*
X165100Y115099D02*
X210201D01*
X207966Y126799D02*
X209697D01*
X207890Y127699D02*
X208797D01*
X207507Y128599D02*
X207897D01*
X172700Y124099D02*
X204350D01*
X195981Y109699D02*
X204019D01*
X192568Y124999D02*
X202801D01*
X194603Y128599D02*
X202493D01*
X193518Y125899D02*
X202238D01*
X193993Y127699D02*
X202110D01*
X197934Y108799D02*
X202066D01*
X193914Y126799D02*
X202034D01*
X198387Y101599D02*
X201613D01*
X198826Y107899D02*
X201174D01*
X199097Y102499D02*
X200903D01*
X199364Y106999D02*
X200636D01*
X199525Y103399D02*
X200475D01*
X199673Y106099D02*
X200327D01*
X199749Y104299D02*
X200251D01*
X199796Y105199D02*
X200204D01*
X185981Y109699D02*
X194019D01*
X187934Y108799D02*
X192066D01*
X188387Y101599D02*
X191613D01*
X188826Y107899D02*
X191174D01*
X189097Y102499D02*
X190903D01*
X189364Y106999D02*
X190636D01*
X189525Y103399D02*
X190475D01*
X189673Y106099D02*
X190327D01*
X189749Y104299D02*
X190251D01*
X189796Y105199D02*
X190204D01*
X172700Y124999D02*
X189632D01*
X172700Y125899D02*
X188682D01*
X172700Y126799D02*
X188286D01*
X172700Y127699D02*
X188207D01*
X172700Y133099D02*
X186370D01*
X172700Y128599D02*
X186001D01*
X172700Y132199D02*
X185517D01*
X172700Y129499D02*
X185360D01*
X172700Y131299D02*
X185162D01*
X172700Y130399D02*
X185116D01*
X175981Y109699D02*
X184019D01*
X177934Y108799D02*
X182066D01*
X178387Y101599D02*
X181613D01*
X178826Y107899D02*
X181174D01*
X179097Y102499D02*
X180903D01*
X179364Y106999D02*
X180636D01*
X179525Y103399D02*
X180475D01*
X179673Y106099D02*
X180327D01*
X179749Y104299D02*
X180251D01*
X179796Y105199D02*
X180204D01*
X172700Y133999D02*
X177597D01*
X172700Y134899D02*
X175001D01*
X172951Y135799D02*
X174360D01*
X173851Y136699D02*
X174116D01*
X165981Y109699D02*
X174019D01*
X167934Y108799D02*
X172066D01*
X168387Y101599D02*
X171613D01*
X168826Y107899D02*
X171174D01*
X169097Y102499D02*
X170903D01*
X169364Y106999D02*
X170636D01*
X169525Y103399D02*
X170475D01*
X169673Y106099D02*
X170327D01*
X169749Y104299D02*
X170251D01*
X169796Y105199D02*
X170204D01*
X208403Y168199D02*
X208694D01*
X207503Y167299D02*
X207794D01*
X206603Y166399D02*
X206894D01*
X205703Y165499D02*
X205994D01*
X204803Y164599D02*
X205094D01*
X161701Y140299D02*
X163349D01*
X159688Y141199D02*
X162449D01*
X153551Y142099D02*
X161549D01*
X154451Y142999D02*
X160649D01*
X155351Y143899D02*
X159749D01*
X152651Y141199D02*
X159512D01*
X157291Y140299D02*
X157499D01*
X101500Y134899D02*
X153700D01*
X101500Y133999D02*
X153700D01*
X101500Y133099D02*
X153700D01*
X101500Y132199D02*
X153700D01*
X101500Y131299D02*
X153700D01*
X101500Y130399D02*
X153700D01*
X101500Y129499D02*
X153700D01*
X101500Y128599D02*
X153700D01*
X101500Y127699D02*
X153700D01*
X101500Y126799D02*
X153700D01*
X101500Y125899D02*
X153700D01*
X101500Y135799D02*
X153635D01*
X151751Y140299D02*
X153509D01*
X101500Y124999D02*
X153194D01*
X101500Y136699D02*
X152861D01*
X150851Y139399D02*
X152807D01*
X101500Y137599D02*
X152544D01*
X101500Y138499D02*
X152528D01*
X101500Y124099D02*
X152294D01*
X101500Y123199D02*
X151394D01*
X101500Y122299D02*
X150494D01*
X101500Y121399D02*
X149594D01*
X101500Y120499D02*
X148694D01*
X101500Y119599D02*
X147794D01*
X118501Y118699D02*
X146894D01*
X119141Y117799D02*
X145994D01*
X119385Y116899D02*
X145094D01*
X144584Y147499D02*
X144600D01*
X144001Y148399D02*
X144397D01*
X119337Y115999D02*
X144194D01*
X142054Y149299D02*
X143497D01*
X118981Y115099D02*
X143294D01*
X101500Y139399D02*
X142949D01*
X141133Y150199D02*
X142597D01*
X101500Y140299D02*
X142049D01*
X114462Y151099D02*
X141697D01*
X101500Y141199D02*
X141149D01*
X101500Y151999D02*
X140797D01*
X101500Y142099D02*
X140249D01*
X101500Y142999D02*
X139710D01*
X101500Y143899D02*
X139600D01*
X101500Y144799D02*
X139482D01*
X114455Y145699D02*
X139086D01*
X101500Y152899D02*
X130497D01*
X101500Y153799D02*
X129597D01*
X101500Y154699D02*
X128697D01*
X101500Y155599D02*
X127797D01*
X101500Y156499D02*
X126897D01*
X101500Y157399D02*
X125997D01*
X101500Y158299D02*
X125097D01*
X101500Y159199D02*
X124197D01*
X101500Y160099D02*
X123297D01*
X101500Y160999D02*
X122397D01*
X118126Y114199D02*
X121803D01*
X101500Y161899D02*
X121497D01*
X117017Y113299D02*
X120894D01*
X101500Y162799D02*
X120597D01*
X116117Y112399D02*
X119994D01*
X101500Y163699D02*
X119697D01*
X115217Y111499D02*
X119094D01*
X101500Y164599D02*
X118797D01*
X114317Y110599D02*
X118194D01*
X101500Y165499D02*
X117897D01*
X115981Y109699D02*
X117294D01*
X101500Y166399D02*
X116997D01*
X101500Y167299D02*
X116097D01*
X101500Y168199D02*
X115197D01*
X101500Y118699D02*
X114499D01*
X101500Y169099D02*
X114297D01*
X113417Y109699D02*
X114019D01*
X101500Y117799D02*
X113859D01*
X101500Y169999D02*
X113501D01*
X101500Y116899D02*
X112980D01*
X107494Y170899D02*
X112506D01*
X101500Y145699D02*
X112345D01*
X101500Y151099D02*
X112338D01*
X101500Y115999D02*
X112080D01*
X108577Y171799D02*
X111423D01*
X108666Y178099D02*
X111334D01*
X101500Y115099D02*
X111180D01*
X101500Y146599D02*
X111127D01*
X101500Y150199D02*
X111125D01*
X109212Y172699D02*
X110788D01*
X109267Y177199D02*
X110733D01*
X101500Y147499D02*
X110644D01*
X101500Y149299D02*
X110643D01*
X101500Y148399D02*
X110500D01*
X109591Y173599D02*
X110409D01*
X109621Y176299D02*
X110379D01*
X101500Y114199D02*
X110280D01*
X109774Y174499D02*
X110226D01*
X109783Y175399D02*
X110217D01*
X101500Y113299D02*
X109380D01*
X101500Y112399D02*
X108480D01*
X101500Y111499D02*
X107580D01*
X101500Y110599D02*
X106680D01*
X101500Y109699D02*
X104019D01*
X101500Y170899D02*
X102506D01*
X101500Y108799D02*
X102066D01*
X123003Y110599D02*
X128194D01*
X125981Y109699D02*
X127294D01*
X122103D02*
X124019D01*
X121203Y108799D02*
X122066D01*
X118387Y101599D02*
X121613D01*
X120303Y107899D02*
X121174D01*
X119097Y102499D02*
X120903D01*
X119403Y106999D02*
X120636D01*
X119525Y103399D02*
X120475D01*
X119673Y106099D02*
X120327D01*
X119749Y104299D02*
X120251D01*
X119796Y105199D02*
X120204D01*
X131203Y108799D02*
X132066D01*
X128387Y101599D02*
X131613D01*
X130303Y107899D02*
X131174D01*
X129097Y102499D02*
X130903D01*
X129403Y106999D02*
X130636D01*
X129525Y103399D02*
X130475D01*
X129673Y106099D02*
X130327D01*
X129749Y104299D02*
X130251D01*
X129796Y105199D02*
X130204D01*
X138387Y101599D02*
X141613D01*
X140303Y107899D02*
X141174D01*
X139097Y102499D02*
X140903D01*
X139403Y106999D02*
X140636D01*
X139525Y103399D02*
X140475D01*
X139673Y106099D02*
X140327D01*
X139749Y104299D02*
X140251D01*
X139796Y105199D02*
X140204D01*
X159503Y119599D02*
X160100D01*
X158603Y118699D02*
X160100D01*
X157703Y117799D02*
X160100D01*
X156803Y116899D02*
X160100D01*
X155903Y115999D02*
X160100D01*
X155003Y115099D02*
X160100D01*
X154103Y114199D02*
X160100D01*
X153203Y113299D02*
X160100D01*
X152303Y112399D02*
X159994D01*
X151403Y111499D02*
X159094D01*
X150503Y110599D02*
X158194D01*
X155981Y109699D02*
X157294D01*
X149603D02*
X154019D01*
X148703Y108799D02*
X152066D01*
X148387Y101599D02*
X151613D01*
X148826Y107899D02*
X151174D01*
X149097Y102499D02*
X150903D01*
X149364Y106999D02*
X150636D01*
X149525Y103399D02*
X150475D01*
X149673Y106099D02*
X150327D01*
X149749Y104299D02*
X150251D01*
X149796Y105199D02*
X150204D01*
X161203Y108799D02*
X161700D01*
X158387Y101599D02*
X161613D01*
X160303Y107899D02*
X161174D01*
X159097Y102499D02*
X160903D01*
X159403Y106999D02*
X160636D01*
X159525Y103399D02*
X160475D01*
X159673Y106099D02*
X160327D01*
X159749Y104299D02*
X160251D01*
X159796Y105199D02*
X160204D01*
X143306Y169099D02*
X148497D01*
X142406Y169999D02*
X147597D01*
X141506Y170899D02*
X142506D01*
X140606Y171799D02*
X141423D01*
X138666Y178099D02*
X141334D01*
X139706Y172699D02*
X140788D01*
X139267Y177199D02*
X140733D01*
X139591Y173599D02*
X140409D01*
X139621Y176299D02*
X140379D01*
X139774Y174499D02*
X140226D01*
X139783Y175399D02*
X140217D01*
X108387Y101599D02*
X111613D01*
X109097Y102499D02*
X110903D01*
X109525Y103399D02*
X110475D01*
X109817Y106099D02*
X110327D01*
X109749Y104299D02*
X110251D01*
X109796Y105199D02*
X110204D01*
X158666Y178099D02*
X161334D01*
X159212Y172699D02*
X160788D01*
X159267Y177199D02*
X160733D01*
X159591Y173599D02*
X160409D01*
X159621Y176299D02*
X160379D01*
X159774Y174499D02*
X160226D01*
X159783Y175399D02*
X160217D01*
X158577Y171799D02*
X159228D01*
X157806Y164599D02*
X158400D01*
X155106Y167299D02*
X158400D01*
X156006Y166399D02*
X158400D01*
X156906Y165499D02*
X158400D01*
X157494Y170899D02*
X158280D01*
X154206Y168199D02*
X158017D01*
X152406Y169999D02*
X157885D01*
X153306Y169099D02*
X157807D01*
X151506Y170899D02*
X152506D01*
X150606Y171799D02*
X151423D01*
X148666Y178099D02*
X151334D01*
X149706Y172699D02*
X150788D01*
X149267Y177199D02*
X150733D01*
X149591Y173599D02*
X150409D01*
X149621Y176299D02*
X150379D01*
X149774Y174499D02*
X150226D01*
X149783Y175399D02*
X150217D01*
X144706Y152899D02*
X155900D01*
X145606Y151999D02*
X155325D01*
X143806Y153799D02*
X155297D01*
X147953Y149299D02*
X154844D01*
X146506Y151099D02*
X154843D01*
X147406Y150199D02*
X154700D01*
X142906Y154699D02*
X154397D01*
X141367Y155599D02*
X153776D01*
X148000Y148399D02*
X153725D01*
X136940Y157399D02*
X153700D01*
X136299Y156499D02*
X153700D01*
X148000Y147499D02*
X152446D01*
X148000Y146599D02*
X151546D01*
X139673Y163699D02*
X151097D01*
X137184Y158299D02*
X150835D01*
X138999Y162799D02*
X150709D01*
X148783Y145699D02*
X150646D01*
X139946Y164599D02*
X150197D01*
X149138Y144799D02*
X149746D01*
X139931Y165499D02*
X142106D01*
X139624Y166399D02*
X141197D01*
X138886Y167299D02*
X140297D01*
X120006Y168199D02*
X139397D01*
X119106Y169099D02*
X138497D01*
X118206Y169999D02*
X137597D01*
X126306Y161899D02*
X135203D01*
X120906Y167299D02*
X135114D01*
X125406Y162799D02*
X135001D01*
X121806Y166399D02*
X134376D01*
X124506Y163699D02*
X134327D01*
X122706Y165499D02*
X134069D01*
X123606Y164599D02*
X134054D01*
X127206Y160999D02*
X132670D01*
X117494Y170899D02*
X132506D01*
X131706Y156499D02*
X132301D01*
X128106Y160099D02*
X131817D01*
X130806Y157399D02*
X131660D01*
X129006Y159199D02*
X131462D01*
X118577Y171799D02*
X131423D01*
X129906Y158299D02*
X131416D01*
X118666Y178099D02*
X131334D01*
X119212Y172699D02*
X130788D01*
X119267Y177199D02*
X130733D01*
X119591Y173599D02*
X130409D01*
X119621Y176299D02*
X130379D01*
X119774Y174499D02*
X130226D01*
X119783Y175399D02*
X130217D01*
X158700Y159199D02*
X161900D01*
X158700Y158299D02*
X161900D01*
X158806Y157399D02*
X161900D01*
X159706Y156499D02*
X161900D01*
X158700Y160099D02*
X161849D01*
X158700Y160999D02*
X160949D01*
X158700Y161899D02*
X160049D01*
X158700Y162799D02*
X159149D01*
X160500Y150199D02*
X161446D01*
X160356Y149299D02*
X160546D01*
X163515Y169999D02*
X166500D01*
X163593Y169099D02*
X166500D01*
X165968Y168199D02*
X166500D01*
X178666Y178099D02*
X181334D01*
X179267Y177199D02*
X180733D01*
X179591Y173599D02*
X180409D01*
X179621Y176299D02*
X180379D01*
X179212Y172699D02*
X180294D01*
X179774Y174499D02*
X180226D01*
X179783Y175399D02*
X180217D01*
X178577Y171799D02*
X179394D01*
X177494Y170899D02*
X178494D01*
X169900Y169999D02*
X177594D01*
X169900Y169099D02*
X176694D01*
X169900Y168199D02*
X175794D01*
X170683Y167299D02*
X174894D01*
X171038Y166399D02*
X173994D01*
X171084Y165499D02*
X173094D01*
X169900Y170899D02*
X172506D01*
X169900Y171799D02*
X171423D01*
X168666Y178099D02*
X171334D01*
X169643Y172699D02*
X170788D01*
X169267Y177199D02*
X170733D01*
X169591Y173599D02*
X170409D01*
X169621Y176299D02*
X170379D01*
X169774Y174499D02*
X170226D01*
X169783Y175399D02*
X170217D01*
X181503Y169099D02*
X198200D01*
X180603Y168199D02*
X198200D01*
X179703Y167299D02*
X198200D01*
X178803Y166399D02*
X198200D01*
X177903Y165499D02*
X198200D01*
X177003Y164599D02*
X198200D01*
X176103Y163699D02*
X198200D01*
X175203Y162799D02*
X198200D01*
X194501Y161899D02*
X198200D01*
X195141Y160999D02*
X198200D01*
X195385Y160099D02*
X198200D01*
X195337Y159199D02*
X198200D01*
X182403Y169999D02*
X197997D01*
X194981Y158299D02*
X197494D01*
X194126Y157399D02*
X196594D01*
X191157Y156499D02*
X195694D01*
X191172Y155599D02*
X194794D01*
X190892Y154699D02*
X193894D01*
X190188Y153799D02*
X192994D01*
X187494Y170899D02*
X192506D01*
X188577Y171799D02*
X191423D01*
X188666Y178099D02*
X191334D01*
X190840Y157399D02*
X190874D01*
X189212Y172699D02*
X190788D01*
X189267Y177199D02*
X190733D01*
X174303Y161899D02*
X190499D01*
X189591Y173599D02*
X190409D01*
X189621Y176299D02*
X190379D01*
X189774Y174499D02*
X190226D01*
X189783Y175399D02*
X190217D01*
X179403Y153799D02*
X186412D01*
X178503Y152899D02*
X181033D01*
X177603Y151999D02*
X179494D01*
X176703Y151099D02*
X178594D01*
X166500Y160999D02*
X177794D01*
X166500Y160099D02*
X176894D01*
X175803Y150199D02*
X175999D01*
X166500Y159199D02*
X175994D01*
X174903Y149299D02*
X175359D01*
X171765Y147499D02*
X175163D01*
X173962Y148399D02*
X175115D01*
X166500Y158299D02*
X175094D01*
X164351Y146599D02*
X174432D01*
X166500Y157399D02*
X174194D01*
X164454Y145699D02*
X173660D01*
X167154Y142999D02*
X173608D01*
X165354Y144799D02*
X173343D01*
X166254Y143899D02*
X173328D01*
X166500Y156499D02*
X173294D01*
X168054Y142099D02*
X172749D01*
X168954Y141199D02*
X171846D01*
X169854Y140299D02*
X170946D01*
X166500Y155599D02*
X170732D01*
X166500Y154699D02*
X169960D01*
X166500Y153799D02*
X169643D01*
X166500Y152899D02*
X169628D01*
X165251Y147499D02*
X168235D01*
X166500Y151999D02*
X168109D01*
X166096Y148399D02*
X167461D01*
X166500Y151099D02*
X167407D01*
X166465Y149299D02*
X167144D01*
X166500Y150199D02*
X167128D01*
X166503Y125899D02*
X168100D01*
X165603Y124999D02*
X168100D01*
X165100Y124099D02*
X167846D01*
X165100Y123199D02*
X166946D01*
X165100Y122299D02*
X166046D01*
X184893Y142999D02*
X187009D01*
X185103Y143899D02*
X186608D01*
X186003Y144799D02*
X186328D01*
X184683Y142099D02*
X186307D01*
X182554Y140299D02*
X186044D01*
X184099Y141199D02*
X186028D01*
X191088Y142999D02*
X191394D01*
X191188Y130399D02*
X191594D01*
X190884D02*
X191012D01*
X198666Y178099D02*
X201334D01*
X199267Y177199D02*
X200733D01*
X199591Y173599D02*
X200409D01*
X199621Y176299D02*
X200379D01*
X200106Y172699D02*
X200295D01*
X199774Y174499D02*
X200226D01*
X199783Y175399D02*
X200217D01*
X203200Y169999D02*
X205394D01*
X203200Y169099D02*
X204494D01*
X203200Y168199D02*
X203594D01*
X208666Y178099D02*
X211334D01*
X209267Y177199D02*
X210733D01*
X209621Y176299D02*
X210379D01*
X209783Y175399D02*
X210217D01*
X209774Y174499D02*
X209894D01*
X214193Y169999D02*
X215094D01*
X218666Y178099D02*
X221334D01*
X219212Y172699D02*
X220788D01*
X219267Y177199D02*
X220733D01*
X219591Y173599D02*
X220409D01*
X219621Y176299D02*
X220379D01*
X219774Y174499D02*
X220226D01*
X219783Y175399D02*
X220217D01*
X228666Y178099D02*
X231334D01*
X229267Y177199D02*
X230733D01*
X229591Y173599D02*
X230409D01*
X229621Y176299D02*
X230379D01*
X229212Y172699D02*
X230294D01*
X229774Y174499D02*
X230226D01*
X229783Y175399D02*
X230217D01*
X237494Y170899D02*
X238500D01*
X232403Y169999D02*
X238500D01*
X231503Y169099D02*
X238500D01*
X218103Y168199D02*
X238500D01*
X217203Y167299D02*
X238500D01*
X216303Y166399D02*
X238500D01*
X215403Y165499D02*
X238500D01*
X214503Y164599D02*
X238500D01*
X213603Y163699D02*
X238500D01*
X212703Y162799D02*
X238500D01*
X211803Y161899D02*
X238500D01*
X210903Y160999D02*
X238500D01*
X210003Y160099D02*
X238500D01*
X209103Y159199D02*
X238500D01*
X208203Y158299D02*
X238500D01*
X208100Y157399D02*
X238500D01*
X208100Y156499D02*
X238500D01*
X208100Y155599D02*
X238500D01*
X207841Y154699D02*
X238500D01*
X207003Y153799D02*
X238500D01*
X206103Y152899D02*
X238500D01*
X205203Y151999D02*
X238500D01*
X204303Y151099D02*
X238500D01*
X203403Y150199D02*
X238500D01*
X202503Y149299D02*
X238500D01*
X201603Y148399D02*
X238500D01*
X200703Y147499D02*
X238500D01*
X199803Y146599D02*
X238500D01*
X198903Y145699D02*
X238500D01*
X198003Y144799D02*
X238500D01*
X197103Y143899D02*
X238500D01*
X196203Y142999D02*
X238500D01*
X200168Y142099D02*
X238500D01*
X200940Y141199D02*
X238500D01*
X201257Y140299D02*
X238500D01*
X236921Y139399D02*
X238500D01*
X238286Y138499D02*
X238500D01*
X226674Y129499D02*
X234877D01*
X228176Y128599D02*
X233977D01*
X222006Y130399D02*
X233633D01*
X201272Y139399D02*
X233079D01*
X228970Y127699D02*
X233077D01*
X229450Y126799D02*
X232177D01*
X221106Y131299D02*
X231944D01*
X217572Y138499D02*
X231714D01*
X229715Y125899D02*
X231277D01*
X220206Y132199D02*
X231102D01*
X218520Y137599D02*
X230964D01*
X219306Y133099D02*
X230593D01*
X218915Y136699D02*
X230511D01*
X229800Y124999D02*
X230377D01*
X218397Y133999D02*
X230306D01*
X218993Y135799D02*
X230267D01*
X218783Y134899D02*
X230201D01*
X222906Y129499D02*
X223326D01*
X200992Y138499D02*
X214628D01*
X200288Y137599D02*
X213680D01*
X195303Y142099D02*
X196632D01*
X194403Y141199D02*
X195860D01*
X193503Y140299D02*
X195543D01*
G54D152*
X105000Y105000D02*
Y105100D01*
X116500Y116600*
G74*
X0Y0D02*
M02*
