% M48 INCH,LZ
T1C.014F095S300
X011770Y010570
X012910Y010660
X011870Y014820
X012910Y014960
X011380Y014990
X012120Y020230
X010900Y021350
X011040Y022730
X012920Y024480
X012810Y025570
X011660Y026081
X011654Y030050
X011650Y033260
X013890Y034940
X013430Y034420
X015300Y033220
X014570Y031190
X014300Y029900
X015520Y028550
X015330Y027280
X013700Y026700
X015310Y026600
X013720Y025440
X015780Y025100
X015360Y025020
X015080Y024640
X013770Y023160
X014150Y021460
X014970Y020970
X014150Y020480
X013800Y017940
X015550Y016020
X013390Y016000
X014430Y015890
X015630Y015400
X013850Y014960
X014720Y014400
X014730Y011110
X015150Y010450
X017200Y010500
X017410Y014840
X017550Y015340
X018190Y015870
X017410Y016600
X017830Y018150
X017780Y018560
X017620Y019170
X017170Y019180
X017590Y020620
X017490Y021100
X017600Y021660
X017340Y022000
X015860Y022600
X017030Y023150
X017450Y024200
X017160Y025800
X017300Y026600
X017040Y027140
X017510Y027400
X017530Y027840
X017060Y028230
X017310Y028560
X018120Y028820
X017090Y029030
X017620Y029400
X016640Y029890
X016990Y030710
X017400Y030820
X017144Y032840
X016550Y033260
X017190Y033400
X017200Y033870
X017530Y034300
X016980Y034300
X020000Y033400
X018920Y033280
X020495Y032445
X018910Y031750
X019260Y031150
X019240Y030130
X018780Y030050
X020620Y029600
X018650Y028720
X020620Y027830
X019240Y027400
X020260Y026620
X019500Y026080
X018880Y025750
X019460Y025300
X020800Y025200
X018970Y024990
X018950Y024000
X020700Y023600
X019070Y023180
X019540Y023100
X018980Y021640
X018400Y018270
X019780Y018150
X020450Y018090
X018870Y017530
X019070Y016370
X018490Y016360
X019490Y015970
X018680Y013760
X020290Y013690
X020690Y013690
X019580Y012690
X019660Y012180
X019300Y011840
X022900Y011520
X021700Y011530
X022300Y011570
X022800Y013130
X022100Y013170
X021530Y014610
X020940Y015040
X022500Y015400
X022500Y016400
X021200Y017050
X021230Y017550
X022610Y017920
X023170Y017940
X022890Y018310
X022160Y019630
X021370Y020040
X022150Y020320
X022580Y020760
X022220Y020960
X021370Y021390
X023030Y021920
X022220Y022260
X022580Y023040
X021130Y024000
X021220Y024770
X021300Y025770
X020900Y026680
X022780Y027110
X021280Y027430
X022110Y028060
X022550Y029560
X023090Y029590
X021400Y029600
X021000Y029760
X020850Y030340
X021330Y030640
X020920Y031120
X021700Y032990
X021640Y033750
X022870Y034090
X021640Y034380
X024430Y035170
X025490Y034360
X023910Y034220
X023750Y031960
X024900Y030590
X025610Y030530
X025630Y030050
X023880Y029650
X025360Y029380
X025030Y027250
X023780Y027070
X025140Y026690
X025230Y025110
X024760Y024930
X023810Y023970
X024210Y023960
X025370Y023950
X024070Y023380
X023670Y021650
X023370Y018310
X023880Y018020
X024350Y017990
X024650Y017200
X024130Y017020
X023500Y016400
X025560Y015840
X023500Y015400
X024440Y013720
X023350Y013040
X025320Y012090
X024920Y011830
X027960Y012850
X026910Y013850
X027580Y014120
X027580Y015430
X026900Y015490
X026470Y015570
X026470Y016140
X027580Y016350
X027760Y017510
X026570Y017630
X026090Y017710
X028230Y018070
X027400Y018550
X027400Y020260
X026910Y022540
X027410Y023880
X026500Y025600
X025900Y025600
X026200Y025900
X025900Y026200
X026500Y026200
X027220Y026760
X026250Y027070
X027190Y027730
X026760Y027770
X026820Y028230
X027560Y028230
X025890Y028400
X028270Y028490
X026820Y029280
X027480Y029900
X026250Y029910
X027910Y030110
X027200Y031080
X030410Y033580
X029170Y031860
X029230Y031350
X029680Y031310
X029260Y030020
X028850Y029990
X030730Y029970
X030450Y029580
X029470Y029130
X028710Y028350
X029720Y028300
X030660Y027550
X028770Y026970
X028460Y026690
X030500Y026670
X030140Y026360
X029730Y026160
X029130Y025750
X030500Y025430
X028910Y025330
X028460Y024610
X030070Y024390
X030310Y022810
X029870Y022240
X028410Y021840
X030380Y020850
X028370Y020780
X029970Y020740
X028680Y018630
X030610Y017840
X030450Y017300
X028750Y016830
X028510Y015930
X028440Y015460
X030230Y015420
X030730Y014400
X030040Y013610
X030040Y013020
X033290Y012030
X032200Y012570
X032270Y013160
X032100Y013700
X032600Y013700
X032300Y014200
X032300Y014600
X032100Y015100
X032600Y015100
X033000Y015400
X031800Y015500
X033210Y017010
X033230Y018030
X030920Y018390
X032030Y018660
X033190Y018660
X031330Y018810
X032020Y019060
X032010Y019480
X031940Y020120
X030870Y021210
X031990Y022410
X032400Y022410
X032498Y023570
X032960Y023960
X033040Y024910
X033050Y025370
X031760Y025500
X031930Y026250
X031870Y026730
X032720Y026910
X032110Y027770
X032620Y027950
X031780Y028040
X032440Y028310
X032770Y028590
X031470Y029070
X030880Y029360
X033300Y030200
X031650Y031140
X033070Y031150
X033100Y032420
X031200Y032850
X032105Y033165
X031830Y034210
X031670Y034900
X033100Y034990
X034100Y032410
X035230Y031060
X034550Y030430
X035690Y030400
X035050Y030400
X035790Y030000
X033950Y029690
X035640Y028370
X034000Y028010
X035440Y027600
X035040Y027600
X033990Y027600
X034050Y026510
X033900Y025370
X033960Y024910
X035150Y024400
X035150Y023800
X035660Y023780
X033920Y023580
X034370Y023550
X034590Y022510
X035760Y022510
X034980Y022420
X035310Y022160
X034700Y021950
X034700Y021210
X033980Y020810
X035420Y020360
X035110Y019920
X034800Y018910
X033820Y018380
X035550Y016270
X034560Y015610
X033530Y015300
X035750Y015210
X033630Y013600
X034820Y013580
X034270Y013100
X035320Y012400
X037970Y012400
X038020Y013660
X036960Y016220
X037410Y016350
X036130Y018760
X036550Y020620
X037420Y020850
X036950Y021210
X037050Y021720
X037590Y022330
X037650Y023230
X035960Y024340
X036750Y024520
X037840Y024600
X036790Y025010
X038000Y025160
X036080Y025430
X036780Y025480
X037880Y025570
X036760Y026070
X038040Y026980
X036760Y027600
X036050Y027610
X036310Y028150
X036740Y029750
X036140Y029800
X036440Y030150
X036670Y032100
X036650Y032890
X036600Y035110
X038720Y033110
X038630Y032590
X038340Y031690
X039150Y030610
X039260Y028690
X039460Y027350
X038310Y027280
X039680Y027010
X038600Y026980
X038310Y025650
X039200Y024570
X039360Y023360
X039820Y021360
X038740Y020300
X038590Y018300
X038590Y016800
X038590Y015800
X039050Y015400
X039610Y012470
X041490Y013530
X042930Y015070
X041490Y015250
X042200Y016120
X041000Y017390
X042270Y019660
X041770Y020960
X041790Y021960
X042200Y023630
X041830Y023860
X043260Y026500
X041140Y028150
X041410Y030270
X043510Y024440
X045630Y023790
X044300Y022900
X043700Y022900
X044000Y022600
X043700Y022300
X044300Y022300
X045390Y022230
X044990Y020740
X044200Y019500
X045960Y020700
X048350Y020910
X048800Y021150
X048290Y021410
X045820Y022320
X048420Y022600
X046240Y022880
X047480Y025130
T2C.03346F197S550
X027700Y011000
X027700Y012400
T3C.037F197S550
X017400Y013500
X017400Y017500
X028900Y017500
X028900Y013500
X032900Y011200
X033900Y011200
X034900Y011200
X035900Y011200
X036900Y011200
T4C.0374F197S550
X010807Y015650
X011693Y015650
X011693Y019311
X010807Y019311
T5C.03937F197S550
X045534Y017956G85X046926Y016564
X044936Y017357G85X046328Y015965
X048318Y017956G85X046926Y019347
X048917Y018554G85X047525Y019946
T6C.04724F139S550
X040315Y020961
X040315Y021961
X040315Y022961
X040315Y023961
X040315Y024961
X040315Y025961
X040315Y026961
X040315Y027961
X040315Y028961
X042096Y032551
X042096Y031551
X042096Y030551
X042096Y029551
X042096Y028551
X042096Y027551
T7C.08F074S550
X034500Y014300
X042100Y014300
T8C.11811F069S658
X030472Y011181
X011181Y028012
X039724Y034409
T9C.11811F069S658
X016299Y010984
X011215Y034376
X048189Y023976
X039101Y011047
T10C.12598F035S794
X015827Y018248
X015827Y031673
X039921Y031673
X039921Y018248
M30
